<?xml version="1.0" standalone="no"?>
<!DOCTYPE svg PUBLIC "-//W3C//DTD SVG 1.1//EN" "http://www.w3.org/Graphics/SVG/1.1/DTD/svg11.dtd" >
<svg xmlns="http://www.w3.org/2000/svg" xmlns:xlink="http://www.w3.org/1999/xlink" version="1.1">
<metadata>
Created by FontForge 20170731 at Thu May  5 18:41:19 2011
 By Aleksey,,,
Copyright (c) 2011 by The Font Bureau, Inc. All rights reserved.
</metadata>
<defs>
<font id="SalvoSans-Bold" horiz-adv-x="670" >
  <font-face 
    font-family="SalvoSans Regular"
    font-weight="700"
    font-stretch="normal"
    units-per-em="1000"
    panose-1="2 0 5 3 0 0 0 2 0 4"
    ascent="800"
    descent="-200"
    x-height="567"
    cap-height="741"
    bbox="-90 -351 1742 1074"
    underline-thickness="50"
    underline-position="-200"
    unicode-range="U+0020-FB04"
  />
<missing-glyph horiz-adv-x="500" 
d="M0 0v700h500v-700h-500zM50 650v-600h400v600h-400z" />
    <glyph glyph-name="f_f" unicode="ff" horiz-adv-x="844" 
d="M286 426v-426h-165v426h-114v141h114v30q0 93 56 145t157 52q73 0 118 -10l-23 -136q-34 6 -76 6q-67 0 -67 -66v-21h218v30q0 93 56.5 145t160.5 52q83 0 141 -13l-23 -135q-45 8 -101 8q-38 0 -53.5 -17t-15.5 -49v-21h170v-141h-170v-426h-165v426h-218z" />
    <glyph glyph-name="f_i" unicode="fi" horiz-adv-x="733" 
d="M7 426v141h114v30q0 93 56 145t157 52q73 0 118 -10l-23 -136q-34 6 -76 6q-67 0 -67 -66v-21h152v-141h-152v-426h-165v426h-114zM504 0v567h165v-567h-165zM501 618v140h170v-140h-170z" />
    <glyph glyph-name="f_l" unicode="fl" horiz-adv-x="733" 
d="M7 426v141h114v30q0 93 56 145t157 52q73 0 118 -10l-23 -136q-34 6 -76 6q-67 0 -67 -66v-21h152v-141h-152v-426h-165v426h-114zM504 0v776h165v-776h-165z" />
    <glyph glyph-name="f_f_i" unicode="ffi" horiz-adv-x="1117" 
d="M286 426v-426h-165v426h-114v141h114v30q0 93 56 145t157 52q73 0 118 -10l-23 -136q-34 6 -76 6q-67 0 -67 -66v-21h218v30q0 93 56 145t157 52q73 0 118 -10l-23 -136q-34 6 -77 6q-66 0 -66 -66v-21h151v-141h-151v-426h-165v426h-218zM886 0v567h165v-567h-165z
M883 618v140h171v-140h-171z" />
    <glyph glyph-name="f_f_l" unicode="ffl" horiz-adv-x="1117" 
d="M286 426v-426h-165v426h-114v141h114v30q0 93 56 145t157 52q73 0 118 -10l-23 -136q-34 6 -76 6q-67 0 -67 -66v-21h218v30q0 93 56 145t157 52q73 0 118 -10l-23 -136q-34 6 -77 6q-66 0 -66 -66v-21h151v-141h-151v-426h-165v426h-218zM886 0v776h165v-776h-165z" />
    <glyph glyph-name="f_j" unicode="fj" horiz-adv-x="733" 
d="M7 426v141h114v30q0 93 56 145t157 52q73 0 118 -10l-23 -136q-34 6 -76 6q-67 0 -67 -66v-21h152v-141h-152v-426h-165v426h-114zM402 -173l9 127q26 -2 43 -2q28 0 39 13t11 42v560h165v-546q0 -107 -45 -151.5t-156 -44.5q-42 0 -66 2zM501 618v140h170v-140h-170z
" />
    <glyph glyph-name="f_t" unicode="ft" horiz-adv-x="887" 
d="M655 -10q-89 0 -126 46.5t-37 134.5v255h-206v-426h-165v426h-114v141h114v30q0 93 56 145t157 52q70 0 111 -9l-23 -136q-26 5 -69 5q-67 0 -67 -66v-21h211l22 164h137v-164h177v-141h-177v-213q0 -44 10.5 -58.5t44.5 -14.5q49 0 109 19l42 -130q-83 -39 -207 -39z
" />
    <glyph glyph-name=".notdef" horiz-adv-x="500" 
d="M0 0v700h500v-700h-500zM50 650v-600h400v600h-400z" />
    <glyph glyph-name=".null" horiz-adv-x="0" 
 />
    <glyph glyph-name="nonmarkingreturn" horiz-adv-x="333" 
 />
    <glyph glyph-name="space" unicode=" " horiz-adv-x="213" 
 />
    <glyph glyph-name="exclam" unicode="!" horiz-adv-x="407" 
d="M107 0v184h191v-184h-191zM130 237l-19 504h184l-20 -504h-145z" />
    <glyph glyph-name="quotedbl" unicode="&#x22;" horiz-adv-x="584" 
d="M96 391l-11 350h166l-11 -350h-144zM345 391l-12 350h167l-12 -350h-143z" />
    <glyph glyph-name="numbersign" unicode="#" horiz-adv-x="779" 
d="M114 0l32 160h-96v145h124l17 79h-141v145h168l38 187h160l-38 -187h90l37 187h160l-37 -187h101v-145h-128l-17 -79h145v-145h-173l-32 -160h-160l32 160h-89l-33 -160h-160zM324 295h107l20 100h-106z" />
    <glyph glyph-name="dollar" unicode="$" horiz-adv-x="698" 
d="M285 -94v94q-192 16 -269 114l105 95q58 -61 168 -77v171q-51 9 -87.5 21.5t-72 34.5t-53.5 58.5t-18 86.5q0 91 62 143.5t165 64.5v71h129v-70q151 -14 226 -85l-95 -104q-44 37 -135 52v-160q43 -7 74.5 -14.5t65 -23t54 -36t34 -53t13.5 -75.5q0 -88 -63.5 -145
t-173.5 -69v-94h-129zM498 206q0 30 -20 47.5t-68 28.5v-151q88 13 88 75zM213 509q0 -28 17.5 -44t58.5 -27v139q-76 -14 -76 -68z" />
    <glyph glyph-name="percent" unicode="%" horiz-adv-x="1262" 
d="M272 234q-99 0 -170 65.5t-71 181.5q0 114 71 180t170 66q98 0 169 -66t71 -180q0 -116 -70.5 -181.5t-169.5 -65.5zM272 359q40 0 65.5 32t25.5 90q0 56 -25.5 86.5t-65.5 30.5t-66 -30.5t-26 -86.5q0 -58 25.5 -90t66.5 -32zM347 0l415 716h153l-415 -716h-153z
M991 -10q-99 0 -170 66t-71 182q0 114 71 180t170 66q98 0 169 -66t71 -180q0 -116 -70.5 -182t-169.5 -66zM991 116q41 0 66 31.5t25 90.5q0 56 -25.5 86t-65.5 30t-66 -30t-26 -86q0 -59 25.5 -90.5t66.5 -31.5z" />
    <glyph glyph-name="ampersand" unicode="&#x26;" horiz-adv-x="902" 
d="M305 -8q-118 0 -193 51t-75 156q0 86 48.5 136.5t137.5 82.5q-18 60 -18 114q0 60 21.5 105t57.5 68.5t75 35t81 11.5q73 0 126 -45t53 -123q0 -93 -52.5 -144.5t-145.5 -85.5q45 -86 117 -139q58 61 100 217l133 -30q-37 -154 -107 -241q36 -16 82 -16q34 0 74 7
l15 -136q-48 -15 -97 -15q-113 0 -202 42q-104 -51 -231 -51zM325 124q42 0 73 14q-78 68 -128 169q-68 -37 -68 -97q0 -36 28 -61t95 -25zM374 454q54 18 81.5 42.5t27.5 68.5q0 26 -14.5 38.5t-36.5 12.5q-27 0 -48 -22t-21 -65q0 -34 11 -75z" />
    <glyph glyph-name="quotesingle" unicode="'" horiz-adv-x="343" 
d="M96 391l-11 350h173l-11 -350h-151z" />
    <glyph glyph-name="parenleft" unicode="(" horiz-adv-x="522" 
d="M304 -196q-83 70 -144 200t-61 300q0 154 63.5 295t141.5 207l119 -81q-154 -171 -154 -419q0 -145 46 -251.5t108 -169.5z" />
    <glyph glyph-name="parenright" unicode=")" horiz-adv-x="522" 
d="M218 -196l-118 81q153 170 153 419q0 146 -46.5 253.5t-106.5 167.5l118 81q83 -70 144.5 -200t61.5 -300q0 -154 -64 -294.5t-142 -207.5z" />
    <glyph glyph-name="asterisk" unicode="*" horiz-adv-x="613" 
d="M241 232l15 161l-136 -93l-66 119l149 67l-149 70l65 118l137 -94l-15 162h130l-15 -164l137 96l66 -117l-151 -71l151 -68l-65 -117l-138 93l14 -162h-129z" />
    <glyph glyph-name="plus" unicode="+" horiz-adv-x="726" 
d="M281 89v189h-189v149h189v188h164v-188h189v-149h-189v-189h-164z" />
    <glyph glyph-name="comma" unicode="," horiz-adv-x="299" 
d="M99 -161l-39 81q54 25 69 39t15 41h-90v187h191v-132q0 -94 -26.5 -135t-119.5 -81z" />
    <glyph glyph-name="hyphen" unicode="-" horiz-adv-x="422" 
d="M37 257v147h347v-147h-347z" />
    <glyph glyph-name="hyphen" unicode="&#xad;" horiz-adv-x="422" 
d="M37 257v147h347v-147h-347z" />
    <glyph glyph-name="period" unicode="." horiz-adv-x="299" 
d="M54 0v187h191v-187h-191z" />
    <glyph glyph-name="slash" unicode="/" horiz-adv-x="582" 
d="M0 0l414 741h168l-414 -741h-168z" />
    <glyph glyph-name="zero" unicode="0" horiz-adv-x="749" 
d="M375 -11q-143 0 -229 96t-86 273q0 178 86 273.5t229 95.5q142 0 227.5 -96t85.5 -273t-85.5 -273t-227.5 -96zM375 134q70 0 106.5 57t36.5 167q0 219 -143 219t-143 -219q0 -110 36.5 -167t106.5 -57z" />
    <glyph glyph-name="one" unicode="1" horiz-adv-x="417" 
d="M152 0v564q-50 -16 -124 -16v142q143 0 195 26h93v-716h-164z" />
    <glyph glyph-name="two" unicode="2" horiz-adv-x="657" 
d="M40 0v151l218 139q59 38 94.5 66.5t51.5 53t20.5 41t4.5 42.5q0 42 -29 65.5t-75 23.5q-95 0 -151 -76l-134 82q48 70 119 104.5t183 34.5t182 -57.5t70 -155.5q0 -88 -47 -155.5t-156 -137.5l-133 -85h350v-136h-568z" />
    <glyph glyph-name="three" unicode="3" horiz-adv-x="655" 
d="M326 -12q-135 0 -208 40t-110 115l141 66q23 -43 60.5 -62.5t102.5 -19.5q138 0 138 98q0 52 -49 72.5t-177 20.5v120q110 0 156 19t46 62q0 69 -108 69q-62 0 -96 -16t-58 -46l-128 78q83 124 294 124q121 0 189.5 -49t68.5 -126q0 -62 -38.5 -102t-95.5 -55
q67 -13 114 -58t47 -126q0 -74 -41.5 -126t-105 -75t-142.5 -23z" />
    <glyph glyph-name="four" unicode="4" horiz-adv-x="690" 
d="M28 135v121l324 460h177l-316 -448h187l37 141h114v-141h113v-133h-113v-135h-155v135h-368z" />
    <glyph glyph-name="five" unicode="5" horiz-adv-x="680" 
d="M337 -12q-231 0 -309 157l138 64q45 -82 165 -82q140 0 140 119q0 56 -35.5 83t-89.5 27q-76 0 -143 -25l-135 47l34 338h478v-142h-348l-15 -140q28 21 78 33t102 12q108 0 173.5 -62t65.5 -172q0 -130 -83.5 -193.5t-215.5 -63.5z" />
    <glyph glyph-name="six" unicode="6" horiz-adv-x="709" 
d="M370 -12q-149 0 -232 91t-83 251q0 194 102.5 295.5t301.5 101.5q50 0 108 -10l-24 -140q-45 9 -89 9q-66 0 -112.5 -16t-71 -44.5t-35.5 -59.5t-13 -70q27 42 80 68t125 26q110 0 174.5 -64.5t64.5 -175.5q0 -123 -80 -192.5t-216 -69.5zM376 125q57 0 90.5 32.5
t33.5 87.5q0 59 -34 88t-89 29q-56 0 -101.5 -29t-45.5 -84q0 -54 38 -89t108 -35z" />
    <glyph glyph-name="seven" unicode="7" horiz-adv-x="641" 
d="M178 0q17 397 246 574h-372v142h544v-107q-102 -81 -172.5 -236t-76.5 -373h-169z" />
    <glyph glyph-name="eight" unicode="8" horiz-adv-x="694" 
d="M347 -19q-78 0 -138.5 19.5t-95.5 52.5t-52.5 72t-17.5 83q0 139 137 186q-52 23 -77 63.5t-25 88.5q0 78 66.5 132t202.5 54q137 0 203 -54t66 -132q0 -48 -26 -90t-79 -62q141 -45 141 -186q0 -94 -76 -160.5t-229 -66.5zM347 109q67 0 102 30.5t35 79.5
q0 50 -35.5 81.5t-101.5 31.5t-101 -31.5t-35 -81.5q0 -49 35 -79.5t101 -30.5zM347 439q50 0 78 23.5t28 61.5q0 37 -28 58.5t-78 21.5t-78 -21.5t-28 -58.5q0 -38 28 -61.5t78 -23.5z" />
    <glyph glyph-name="nine" unicode="9" horiz-adv-x="709" 
d="M338 727q151 0 233.5 -89t82.5 -252q0 -194 -102.5 -295.5t-301.5 -101.5q-56 0 -107 10l23 136q46 -9 89 -9q128 0 177.5 49.5t54.5 140.5q-27 -42 -80 -68t-125 -26q-109 0 -173.5 66t-64.5 178q0 122 80 191.5t214 69.5zM334 584q-57 0 -91 -31.5t-34 -86.5
q0 -59 34 -87.5t88 -28.5q58 0 103 28t45 84q0 54 -37 88t-108 34z" />
    <glyph glyph-name="colon" unicode=":" horiz-adv-x="319" 
d="M64 0v183h191v-183h-191zM64 386v181h191v-181h-191z" />
    <glyph glyph-name="semicolon" unicode=";" horiz-adv-x="319" 
d="M109 -161l-39 81q54 25 69 39t15 41h-90v183h191v-128q0 -86 -28 -131.5t-118 -84.5zM64 386v181h191v-181h-191z" />
    <glyph glyph-name="less" unicode="&#x3c;" horiz-adv-x="726" 
d="M575 61l-456 227v118l456 225v-151l-285 -133l285 -133v-153z" />
    <glyph glyph-name="equal" unicode="=" horiz-adv-x="726" 
d="M98 156v147h530v-147h-530zM98 402v147h530v-147h-530z" />
    <glyph glyph-name="greater" unicode="&#x3e;" horiz-adv-x="726" 
d="M151 61v152l285 133l-285 133v152l456 -226v-119z" />
    <glyph glyph-name="question" unicode="?" horiz-adv-x="704" 
d="M249 218q-10 94 20 138.5t113 83.5q52 25 72 42.5t20 49.5q0 70 -121 70q-104 -2 -157 -73l-133 80q97 144 302 144q127 0 201.5 -52t74.5 -150q0 -128 -143 -196q-62 -29 -77.5 -53.5t-8.5 -83.5h-163zM235 0v166h191v-166h-191z" />
    <glyph glyph-name="at" unicode="@" horiz-adv-x="1059" 
d="M548 -165q-101 0 -184 23.5t-151.5 74.5t-107 142t-38.5 215q0 101 30 181.5t78.5 132.5t114 86.5t132 49t137.5 14.5q90 0 166 -21.5t137 -65t95.5 -119t34.5 -175.5q0 -180 -64 -258t-180 -78q-136 0 -147 105q-25 -41 -72 -70t-105 -29q-87 0 -127.5 56.5t-40.5 147.5
q0 125 68 220t178 95q63 0 101 -26.5t53 -62.5l49 78h99l-69 -331q-14 -44 -3 -74t59 -30q122 0 122 257q0 82 -28 142.5t-78 95.5t-112 51.5t-136 16.5q-60 0 -116 -11.5t-111 -40t-95.5 -71.5t-65.5 -111.5t-25 -154.5q0 -85 22 -151t59 -108.5t89 -70t109 -39t123 -11.5
q163 0 270 62l35 -65q-127 -72 -305 -72zM480 167q57 0 95.5 47.5t38.5 116.5q0 45 -22 72t-67 27q-57 0 -87.5 -51.5t-30.5 -121.5q0 -90 73 -90z" />
    <glyph glyph-name="A" unicode="A" horiz-adv-x="787" 
d="M14 0l296 746h168l296 -746h-176l-45 117h-328l-45 -117h-166zM280 262h217l-108 278z" />
    <glyph glyph-name="B" unicode="B" horiz-adv-x="724" 
d="M73 0v741h321q277 0 277 -193q0 -120 -134 -160q158 -34 158 -182q0 -206 -306 -206h-316zM243 135h154q123 0 123 89q0 87 -124 87h-153v-176zM243 438h143q110 0 110 84q0 79 -117 79h-136v-163z" />
    <glyph glyph-name="C" unicode="C" horiz-adv-x="768" 
d="M392 -12q-159 0 -259 104.5t-100 276.5q0 96 32 171.5t86 120.5t119.5 68.5t137.5 23.5q121 0 205.5 -51.5t125.5 -144.5l-153 -70q-54 105 -185 105q-83 0 -137.5 -59t-54.5 -166q0 -105 53.5 -164.5t139.5 -59.5q72 0 117 30.5t78 89.5l147 -69q-106 -206 -352 -206z
" />
    <glyph glyph-name="D" unicode="D" horiz-adv-x="774" 
d="M323 0h-250v741h264q405 0 405 -370q0 -85 -23.5 -150.5t-62 -106.5t-94 -67t-113.5 -36.5t-126 -10.5zM246 151h94q114 0 170.5 52t56.5 168q0 117 -56.5 166t-180.5 49h-84v-435z" />
    <glyph glyph-name="E" unicode="E" horiz-adv-x="668" 
d="M73 0v741h540v-156h-367v-142h336v-139h-336v-154h371v-150h-544z" />
    <glyph glyph-name="F" unicode="F" horiz-adv-x="654" 
d="M73 0v741h541v-156h-368v-179h349v-144h-349v-262h-173z" />
    <glyph glyph-name="G" unicode="G" horiz-adv-x="795" 
d="M357 -11q-136 0 -230 101t-94 273q0 188 107.5 289.5t268.5 101.5q119 0 202.5 -50t122.5 -139l-151 -69q-48 100 -177 100q-85 0 -141.5 -59.5t-56.5 -166.5q0 -112 53 -172t145 -60q80 0 125 38.5t50 93.5h-172v131h329v-401h-101l-26 110q-29 -51 -92.5 -86
t-161.5 -35z" />
    <glyph glyph-name="H" unicode="H" horiz-adv-x="824" 
d="M73 0v741h173v-283h331v283h173v-741h-173v297h-331v-297h-173z" />
    <glyph glyph-name="I" unicode="I" horiz-adv-x="343" 
d="M85 0v741h173v-741h-173z" />
    <glyph glyph-name="J" unicode="J" horiz-adv-x="517" 
d="M192 -12q-96 0 -181 25l36 146q68 -18 125 -18t80.5 24t23.5 77v499h173v-505q0 -248 -257 -248z" />
    <glyph glyph-name="K" unicode="K" horiz-adv-x="766" 
d="M73 0v741h171v-333l278 333h184l-249 -293l285 -448h-193l-201 315l-104 -120v-195h-171z" />
    <glyph glyph-name="L" unicode="L" horiz-adv-x="614" 
d="M73 0v741h173v-591h354v-150h-527z" />
    <glyph glyph-name="M" unicode="M" horiz-adv-x="987" 
d="M73 0v741h227l193 -497l194 497h226v-741h-170v501l-197 -501h-119l-198 501v-501h-156z" />
    <glyph glyph-name="N" unicode="N" horiz-adv-x="824" 
d="M73 0v741h189l323 -451v451h165v-741h-159l-353 491v-491h-165z" />
    <glyph glyph-name="O" unicode="O" horiz-adv-x="839" 
d="M420 -12q-54 0 -107 13t-104 42.5t-90 72.5t-62.5 109t-23.5 146t23.5 145.5t62.5 108.5t90 72.5t104 42.5t107 13t107 -13t104 -42.5t89.5 -72.5t62.5 -108.5t24 -145.5t-24 -146t-62.5 -109t-89.5 -72.5t-104 -42.5t-107 -13zM420 141q91 0 151 61.5t60 165.5t-60 165
t-151 61q-92 0 -152 -61t-60 -165q0 -105 60 -166t152 -61z" />
    <glyph glyph-name="P" unicode="P" horiz-adv-x="734" 
d="M73 0v741h338q131 0 210.5 -61.5t79.5 -189.5q0 -130 -81 -195t-218 -65h-160v-230h-169zM242 369h156q129 0 129 111q0 114 -132 114h-153v-225z" />
    <glyph glyph-name="Q" unicode="Q" horiz-adv-x="839" 
d="M493 -199q-118 0 -167 55t-40 162q-111 31 -182 119t-71 235q0 80 23.5 146t62.5 108.5t90 72t104 42t107 12.5t107 -12.5t104 -42t89.5 -72t62.5 -108.5t24 -146q0 -76 -21.5 -138t-57 -102.5t-84 -68.5t-99 -40.5t-105.5 -14.5q2 -34 18 -47t61 -13q76 0 152 30
l46 -133q-103 -44 -224 -44zM420 141q91 0 151 61.5t60 165.5t-60 165t-151 61q-92 0 -152 -61t-60 -165q0 -105 60 -166t152 -61z" />
    <glyph glyph-name="R" unicode="R" horiz-adv-x="742" 
d="M501 0l-137 250h-122v-250h-169v741h327q134 0 212 -61.5t78 -183.5q0 -174 -155 -226l147 -270h-181zM242 386h152q125 0 125 102q0 59 -33 82.5t-96 23.5h-148v-208z" />
    <glyph glyph-name="S" unicode="S" horiz-adv-x="722" 
d="M375 -12q-263 0 -365 124l118 107q82 -86 243 -86q146 0 146 78q0 39 -36.5 57.5t-122.5 31.5q-43 6 -73.5 12.5t-68.5 18t-64 28t-49 39t-34.5 56t-11.5 74.5q0 111 85 168t220 57q205 0 312 -94l-107 -118q-34 27 -90.5 44t-113.5 17q-134 0 -134 -69q0 -39 36.5 -56
t130.5 -31q52 -8 88.5 -16t78 -24.5t67 -39.5t42.5 -60.5t17 -86.5q0 -106 -84.5 -168.5t-229.5 -62.5z" />
    <glyph glyph-name="T" unicode="T" horiz-adv-x="693" 
d="M259 0v585h-246v156h667v-156h-247v-585h-174z" />
    <glyph glyph-name="U" unicode="U" horiz-adv-x="814" 
d="M579 741h168v-456q0 -56 -17.5 -106t-55 -95t-106.5 -71.5t-161 -26.5t-160.5 26.5t-106 71.5t-55 95t-17.5 106v456h173v-436q0 -166 169 -166t169 166v436z" />
    <glyph glyph-name="V" unicode="V" horiz-adv-x="787" 
d="M310 -5l-292 746h178l200 -530l200 530h174l-292 -746h-168z" />
    <glyph glyph-name="W" unicode="W" horiz-adv-x="1075" 
d="M246 -5l-226 746h175l137 -473l140 473h148l139 -474l138 474h158l-225 -746h-149l-143 479l-143 -479h-149z" />
    <glyph glyph-name="X" unicode="X" horiz-adv-x="785" 
d="M564 0l-178 260l-170 -260h-191l271 389l-243 352h195l151 -220l143 220h191l-244 -349l271 -392h-196z" />
    <glyph glyph-name="Y" unicode="Y" horiz-adv-x="760" 
d="M294 0v270l-285 471h182l192 -323l194 323h175l-286 -473v-268h-172z" />
    <glyph glyph-name="Z" unicode="Z" horiz-adv-x="688" 
d="M31 0v129l391 456h-374v156h595v-138l-389 -453h400v-150h-623z" />
    <glyph glyph-name="bracketleft" unicode="[" horiz-adv-x="522" 
d="M108 -165v941h329v-136h-161v-675h164v-130h-332z" />
    <glyph glyph-name="backslash" unicode="\" horiz-adv-x="582" 
d="M414 0l-414 741h168l414 -741h-168z" />
    <glyph glyph-name="bracketright" unicode="]" horiz-adv-x="522" 
d="M82 -165v130h164v675h-160v136h328v-941h-332z" />
    <glyph glyph-name="asciicircum" unicode="^" horiz-adv-x="726" 
d="M422 716l226 -456h-152l-134 285l-132 -285h-152l225 456h119z" />
    <glyph glyph-name="underscore" unicode="_" horiz-adv-x="453" 
d="M-37 -164v126h527v-126h-527z" />
    <glyph glyph-name="grave" unicode="`" horiz-adv-x="590" 
d="M421 612l-298 103l46 129l291 -127z" />
    <glyph glyph-name="a" unicode="a" horiz-adv-x="649" 
d="M209 -10q-88 0 -135.5 50.5t-47.5 128.5q0 88 64 135t174 47q76 0 141 -16v12q0 43 -19 65t-74 22q-98 0 -175 -34l-57 132q98 50 251 50q236 0 236 -230v-235h65v-108q-59 -17 -104 -17q-51 0 -77.5 16.5t-34.5 59.5l-4 30q-48 -108 -203 -108zM267 126q63 0 100.5 26.5
t37.5 70.5v16q-42 8 -86 8q-135 0 -135 -62q0 -59 83 -59z" />
    <glyph glyph-name="b" unicode="b" horiz-adv-x="682" 
d="M61 0v776h165v-304q53 108 196 108q111 0 168.5 -84t57.5 -211q0 -126 -61 -210t-177 -84q-137 0 -197 96l-38 -87h-114zM366 131q58 0 86 40t28 108q0 69 -28 110t-86 41q-64 0 -102 -41t-38 -110q0 -70 36.5 -109t103.5 -39z" />
    <glyph glyph-name="c" unicode="c" horiz-adv-x="608" 
d="M315 -9q-140 0 -210.5 82.5t-70.5 211.5q0 124 74.5 209.5t205.5 85.5q103 0 166 -36t105 -115l-140 -74q-37 74 -123 74q-55 0 -87 -40t-32 -108q0 -70 31 -110t91 -40q81 0 133 80l127 -79q-90 -141 -270 -141z" />
    <glyph glyph-name="d" unicode="d" horiz-adv-x="682" 
d="M260 -9q-111 0 -168.5 84t-57.5 211q0 126 61 210t176 84q128 0 185 -93v289h165v-776h-125l-26 103q-26 -52 -81 -82t-129 -30zM316 132q64 0 102 42.5t38 111.5t-36.5 107t-103.5 38q-58 0 -86 -38.5t-28 -106.5q0 -69 28 -111.5t86 -42.5z" />
    <glyph glyph-name="e" unicode="e" horiz-adv-x="617" 
d="M304 -11q-135 0 -202.5 83t-67.5 213q0 126 74.5 210.5t214.5 84.5q74 0 125.5 -23.5t78 -67.5t37.5 -94t11 -116v-50h-376q17 -106 122 -106q100 0 154 65l106 -89q-94 -110 -277 -110zM325 443q-104 0 -125 -105h223v2q0 42 -25.5 72.5t-72.5 30.5z" />
    <glyph glyph-name="f" unicode="f" horiz-adv-x="461" 
d="M7 426v141h114v30q0 93 56.5 145t160.5 52q82 0 141 -13l-22 -135q-45 8 -101 8q-39 0 -54.5 -17t-15.5 -49v-21h170v-141h-170v-426h-165v426h-114z" />
    <glyph glyph-name="g" unicode="g" horiz-adv-x="619" 
d="M248 -179q-250 0 -250 128q0 98 136 123q-30 10 -44.5 33t-14.5 49q0 22 15 45.5t38 39.5q-96 49 -96 148q0 90 73 141.5t192 51.5q51 0 97 -7l159 80l39 -139h-109q41 -20 61.5 -51t20.5 -84q0 -81 -74.5 -126.5t-193.5 -45.5q-41 0 -75 6q-7 -9 -7 -19q0 -16 18.5 -22
t82.5 -7q173 -1 234 -33.5t61 -120.5q0 -91 -91.5 -140.5t-271.5 -49.5zM267 -70q96 0 135.5 15.5t39.5 48.5q0 31 -30 41t-128 13q-52 1 -85.5 -14.5t-33.5 -46.5q0 -57 102 -57zM297 307q106 0 106 73t-106 73q-104 0 -104 -73q0 -35 27.5 -54t76.5 -19z" />
    <glyph glyph-name="h" unicode="h" horiz-adv-x="665" 
d="M61 0v776h165v-289q54 93 189 93q102 0 147.5 -58.5t45.5 -169.5v-352h-165v311q0 57 -21.5 85.5t-73.5 28.5q-122 0 -122 -118v-307h-165z" />
    <glyph glyph-name="i" unicode="i" horiz-adv-x="293" 
d="M64 0v567h165v-567h-165zM61 618v140h171v-140h-171z" />
    <glyph glyph-name="j" unicode="j" horiz-adv-x="293" 
d="M-38 -173l10 127q26 -2 43 -2q28 0 38.5 13t10.5 42v560h165v-546q0 -107 -45 -151.5t-155 -44.5q-42 0 -67 2zM61 618v140h171v-140h-171z" />
    <glyph glyph-name="k" unicode="k" horiz-adv-x="610" 
d="M61 0v776h163v-440l188 231h172l-187 -229l208 -338h-181l-137 214l-63 -75v-139h-163z" />
    <glyph glyph-name="l" unicode="l" horiz-adv-x="293" 
d="M64 0v776h165v-776h-165z" />
    <glyph glyph-name="m" unicode="m" horiz-adv-x="1023" 
d="M61 0v567h126l25 -95q24 51 75 79.5t122 28.5q42 0 71.5 -9t47.5 -27t28 -35.5t19 -43.5q24 51 77.5 83t126.5 32q101 0 144 -57.5t43 -170.5v-352h-166v311q0 59 -18.5 86.5t-69.5 27.5q-63 0 -89.5 -30.5t-26.5 -87.5v-307h-165v311q0 59 -19 86.5t-70 27.5
q-63 0 -89.5 -30.5t-26.5 -87.5v-307h-165z" />
    <glyph glyph-name="n" unicode="n" horiz-adv-x="665" 
d="M61 0v567h126l25 -95q23 50 77 79t126 29q102 0 147.5 -58.5t45.5 -169.5v-352h-165v311q0 57 -21.5 85.5t-73.5 28.5q-122 0 -122 -118v-307h-165z" />
    <glyph glyph-name="o" unicode="o" horiz-adv-x="661" 
d="M331 -11q-135 0 -216 80.5t-81 215.5t81 215t216 80t215.5 -80t80.5 -215t-80.5 -215.5t-215.5 -80.5zM331 131q62 0 96 40.5t34 109.5t-33.5 109t-96.5 40t-96.5 -40t-33.5 -109t33.5 -109.5t96.5 -40.5z" />
    <glyph glyph-name="p" unicode="p" horiz-adv-x="683" 
d="M61 -165v732h126l26 -99q29 52 82.5 82t127.5 30q111 0 168.5 -84t57.5 -211q0 -126 -61 -210t-177 -84q-125 0 -185 93v-249h-165zM366 131q58 0 86.5 40t28.5 108q0 69 -28 110t-87 41q-63 0 -101.5 -41t-38.5 -110t37 -108.5t103 -39.5z" />
    <glyph glyph-name="q" unicode="q" horiz-adv-x="683" 
d="M456 -165v264q-26 -53 -77.5 -80.5t-118.5 -27.5q-111 0 -168.5 84t-57.5 211q0 126 61.5 210t178.5 84q131 0 196 -96l39 83h113v-732h-166zM316 132q63 0 101.5 42.5t38.5 111.5q0 70 -36.5 107.5t-103.5 37.5q-58 0 -86 -38.5t-28 -106.5q0 -69 28 -111.5t86 -42.5z
" />
    <glyph glyph-name="r" unicode="r" horiz-adv-x="449" 
d="M62 0v567h126l27 -112q29 50 71 78t109 39l38 -160q-111 -3 -158.5 -36.5t-47.5 -93.5v-282h-165z" />
    <glyph glyph-name="s" unicode="s" horiz-adv-x="585" 
d="M294 -10q-89 0 -166 22.5t-122 68.5l95 100q70 -64 202 -64q91 0 91 45q0 27 -25 38t-96 20q-37 4 -62.5 8.5t-59.5 17t-54.5 30.5t-35.5 50.5t-15 75.5q0 86 67.5 132t174.5 46q169 0 255 -63l-81 -116q-70 43 -168 43q-88 0 -88 -42q0 -26 23 -36t88 -18q28 -3 39.5 -5
t38.5 -6.5t40.5 -10t36 -14.5t34 -21t24 -28t18 -38t5.5 -49q0 -94 -68 -140t-191 -46z" />
    <glyph glyph-name="t" unicode="t" horiz-adv-x="504" 
d="M274 -10q-89 0 -126 46.5t-37 134.5v255h-110v141h110l27 164h137v-164h178v-141h-178v-213q0 -44 10.5 -58.5t45.5 -14.5q49 0 108 19l42 -130q-83 -39 -207 -39z" />
    <glyph glyph-name="u" unicode="u" horiz-adv-x="663" 
d="M250 -9q-106 0 -149 57.5t-43 170.5v348h165v-319q0 -58 21 -86.5t73 -28.5q119 0 119 119v315h166v-567h-126l-25 96q-23 -50 -77.5 -77.5t-123.5 -27.5z" />
    <glyph glyph-name="v" unicode="v" horiz-adv-x="617" 
d="M223 -6l-220 573h173l138 -377l137 377h164l-220 -573h-172z" />
    <glyph glyph-name="w" unicode="w" horiz-adv-x="917" 
d="M198 -6l-185 573h170l101 -345l104 345h155l105 -345l100 345h156l-185 -573h-151l-109 351l-110 -351h-151z" />
    <glyph glyph-name="x" unicode="x" horiz-adv-x="605" 
d="M417 0l-124 178l-116 -178h-172l207 297l-187 270h183l104 -149l97 149h171l-186 -270l206 -297h-183z" />
    <glyph glyph-name="y" unicode="y" horiz-adv-x="594" 
d="M168 -176q-93 0 -165 22l42 131q63 -16 101 -16q55 0 75 38l-218 568h174l130 -361l130 361h155l-232 -606q-29 -74 -71.5 -105.5t-120.5 -31.5z" />
    <glyph glyph-name="z" unicode="z" horiz-adv-x="541" 
d="M19 0v112l279 314h-263v141h479v-111l-282 -322h293v-134h-506z" />
    <glyph glyph-name="braceleft" unicode="{" horiz-adv-x="559" 
d="M320 -165q-86 0 -134 42.5t-41 118.5q3 25 25 98.5t24 89.5q4 36 -20.5 45.5t-106.5 9.5v134q82 0 106.5 9.5t20.5 45.5q-2 15 -24 88.5t-25 98.5q-7 76 41.5 118.5t133.5 42.5h157v-136h-83q-38 0 -59.5 -14.5t-18.5 -54.5q2 -17 21.5 -79t22.5 -90q8 -74 -72 -96
q80 -23 72 -97q-3 -28 -22.5 -90t-21.5 -79q-3 -40 19.5 -57.5t58.5 -17.5h83v-130h-157z" />
    <glyph glyph-name="bar" unicode="|" horiz-adv-x="384" 
d="M108 -165v941h168v-941h-168z" />
    <glyph glyph-name="braceright" unicode="}" horiz-adv-x="559" 
d="M82 -165v130h83q36 0 59 17.5t19 57.5q-2 17 -21.5 79t-22.5 90q-8 74 72 97q-80 22 -72 96q3 28 22.5 90t21.5 79q4 40 -18 54.5t-60 14.5h-83v136h157q85 0 133.5 -42.5t41.5 -118.5q-2 -25 -24.5 -98.5t-24.5 -88.5q-3 -36 21 -45.5t106 -9.5v-134q-82 0 -106 -9.5
t-21 -45.5q2 -15 24.5 -88.5t24.5 -99.5q7 -77 -41 -119t-134 -42h-157z" />
    <glyph glyph-name="asciitilde" unicode="~" horiz-adv-x="726" 
d="M181 255l-92 76q95 115 180 115q39 0 102.5 -29.5t84.5 -29.5q42 0 92 63l92 -76q-94 -115 -180 -115q-39 0 -102 29t-85 29q-42 0 -92 -62z" />
    <glyph glyph-name="uni00A0" unicode="&#xa0;" horiz-adv-x="213" 
 />
    <glyph glyph-name="exclamdown" unicode="&#xa1;" horiz-adv-x="407" 
d="M111 0l20 505h145l19 -505h-184zM108 558v183h191v-183h-191z" />
    <glyph glyph-name="cent" unicode="&#xa2;" horiz-adv-x="615" 
d="M240 -94v97q-104 21 -155 96.5t-51 185.5q0 104 54 182t152 101v77h133v-72q76 -9 126 -43.5t86 -99.5l-134 -72q-30 55 -81 70v-298q53 16 93 78l122 -76q-73 -116 -212 -132v-94h-133zM198 281q0 -92 47 -130v257q-47 -42 -47 -127z" />
    <glyph glyph-name="sterling" unicode="&#xa3;" horiz-adv-x="699" 
d="M55 -9l-22 135q86 16 118.5 39.5t32.5 61.5q0 28 -15 71h-132v113h90q-20 53 -20 103q0 95 77 154t200 59q171 0 265 -102l-108 -110q-62 65 -160 65q-53 0 -81.5 -22.5t-28.5 -62.5q0 -36 16 -84h181v-113h-147q14 -38 14 -67q0 -34 -12 -70q62 -27 117 -27q41 0 60 19
t19 59q0 25 -8 60l143 20q10 -52 10 -85q0 -113 -56.5 -163t-162.5 -50q-103 0 -203 58q-70 -46 -187 -61z" />
    <glyph glyph-name="currency" unicode="&#xa4;" horiz-adv-x="725" 
d="M150 41l-102 104l90 90q-30 55 -30 124q0 65 26 115l-86 87l102 105l91 -92q51 24 117 24q67 0 118 -24l93 93l101 -105l-88 -88q26 -50 26 -115q0 -71 -31 -125l89 -89l-101 -104l-99 98q-49 -20 -108 -20q-60 0 -109 20zM358 232q51 0 83 35.5t32 87.5q0 53 -32 88
t-83 35t-83 -35t-32 -88q0 -52 32 -87.5t83 -35.5z" />
    <glyph glyph-name="yen" unicode="&#xa5;" horiz-adv-x="689" 
d="M83 243v102h158l-230 370h176l158 -271l158 271h175l-232 -370h157v-102h-178v-49h178v-103h-178v-91h-163v91h-179v103h179v49h-179z" />
    <glyph glyph-name="brokenbar" unicode="&#xa6;" horiz-adv-x="384" 
d="M108 -165v393h168v-393h-168zM108 384v392h168v-392h-168z" />
    <glyph glyph-name="section" unicode="&#xa7;" horiz-adv-x="641" 
d="M336 -172q-102 0 -166.5 28.5t-93.5 69.5l118 83q25 -30 58.5 -42t85.5 -12q82 0 82 50q0 24 -26 36.5t-65.5 15.5t-85 12.5t-85 24t-65.5 52.5t-26 96q0 106 105 152q-98 41 -98 151q0 86 67.5 132t181.5 46q98 0 162.5 -28t91.5 -68l-118 -84q-49 53 -133 53
q-90 0 -90 -50q0 -23 26.5 -36t66.5 -16t86.5 -12.5t86.5 -24t66.5 -52.5t26.5 -96q0 -113 -116 -148q56 -26 80 -61.5t24 -92.5q0 -87 -66 -133t-181 -46zM357 188q38 0 58 23t20 62q0 45 -41 68t-90 23q-77 0 -77 -85q0 -46 39 -68.5t91 -22.5z" />
    <glyph glyph-name="dieresis" unicode="&#xa8;" horiz-adv-x="590" 
d="M108 625v141h151v-141h-151zM332 625v141h150v-141h-150z" />
    <glyph glyph-name="copyright" unicode="&#xa9;" horiz-adv-x="806" 
d="M404 -12q-155 0 -263.5 112t-108.5 271t108.5 271t263.5 112q154 0 262.5 -112t108.5 -271t-108.5 -271t-262.5 -112zM404 50q133 0 219 94t86 227q0 134 -85.5 227.5t-219.5 93.5t-220 -93.5t-86 -227.5q0 -133 86 -227t220 -94zM401 132q-100 0 -163.5 66t-63.5 176
q0 78 36 134.5t88 81t112 24.5q159 0 205 -145l-102 -26q-30 66 -107 66q-50 0 -83.5 -36t-33.5 -101t32.5 -101.5t84.5 -36.5q82 0 121 81l96 -35q-25 -68 -81 -108t-141 -40z" />
    <glyph glyph-name="ordfeminine" unicode="&#xaa;" horiz-adv-x="624" 
d="M218 250q-72 0 -110.5 41t-38.5 103q0 70 52 106.5t141 36.5q64 0 113 -12v12q0 35 -15.5 51.5t-60.5 16.5q-80 0 -140 -27l-48 108q78 41 203 41q192 0 192 -186v-188h53v-88q-48 -13 -82 -13q-42 0 -65 13.5t-29 47.5l-3 23q-41 -86 -162 -86zM263 360q52 0 82 20.5
t30 57.5v14q-31 7 -70 7q-51 0 -79 -10.5t-28 -38.5q0 -50 65 -50zM93 82v120h414v-120h-414z" />
    <glyph glyph-name="guillemotleft" unicode="&#xab;" horiz-adv-x="770" 
d="M233 0l-151 283l151 284h144l-135 -284l135 -283h-144zM514 0l-151 283l151 284h143l-135 -284l135 -283h-143z" />
    <glyph glyph-name="logicalnot" unicode="&#xac;" horiz-adv-x="726" 
d="M463 89v189h-377v149h542v-338h-165z" />
    <glyph glyph-name="registered" unicode="&#xae;" horiz-adv-x="687" 
d="M344 183q-116 0 -197 83.5t-81 202.5q0 118 81 202t197 84q115 0 196 -84t81 -202q0 -119 -81 -202.5t-196 -83.5zM344 229q100 0 163.5 70t63.5 170q0 99 -63.5 169t-163.5 70t-164.5 -70t-64.5 -169q0 -100 64.5 -170t164.5 -70zM215 311v323l138 -1q134 0 134 -110
q0 -73 -61 -95l63 -117h-90l-56 105h-44v-105h-84zM299 481h53q27 0 39.5 9t12.5 32t-13 31.5t-45 8.5h-47v-81z" />
    <glyph glyph-name="macron" unicode="&#xaf;" horiz-adv-x="590" 
d="M108 625v132h374v-132h-374z" />
    <glyph glyph-name="macron" unicode="&#x304;" horiz-adv-x="590" 
d="M108 625v132h374v-132h-374z" />
    <glyph glyph-name="degree" unicode="&#xb0;" horiz-adv-x="569" 
d="M284 240q-111 0 -177 71t-66 173t66 172.5t177 70.5t177.5 -70.5t66.5 -172.5t-66.5 -173t-177.5 -71zM284 362q52 0 81 34t29 84t-29 84t-81 34t-80.5 -34.5t-28.5 -83.5t28.5 -83.5t80.5 -34.5z" />
    <glyph glyph-name="plusminus" unicode="&#xb1;" horiz-adv-x="726" 
d="M281 188v171h-189v148h189v167h164v-167h189v-148h-189v-171h-164zM92 0v148h542v-148h-542z" />
    <glyph glyph-name="two.sups" unicode="&#xb2;" horiz-adv-x="530" 
d="M58 267v114l156 99q70 48 92.5 74t22.5 56q0 24 -18.5 38t-53.5 14q-57 0 -99 -48l-103 64q69 98 214 98q89 0 139.5 -40.5t50.5 -109.5q0 -60 -33.5 -104t-113.5 -97l-83 -53h240v-105h-411z" />
    <glyph glyph-name="three.sups" unicode="&#xb3;" horiz-adv-x="526" 
d="M264 259q-170 0 -227 116l108 47q27 -55 106 -55q90 0 90 61q0 33 -33.5 46t-122.5 13v85q78 0 108.5 12t30.5 39q0 45 -70 45q-73 0 -101 -41l-98 59q65 91 209 91q88 0 137.5 -35.5t49.5 -88.5q0 -44 -26.5 -71.5t-66.5 -37.5q47 -10 79 -41t32 -88q0 -77 -59.5 -116.5
t-145.5 -39.5z" />
    <glyph glyph-name="acute" unicode="&#xb4;" horiz-adv-x="590" 
d="M169 611l-39 104l291 128l46 -129z" />
    <glyph glyph-name="mu" unicode="&#xb5;" horiz-adv-x="666" 
d="M61 -165v732h165v-315q0 -60 20 -89.5t69 -29.5q125 0 125 119v315h165v-567h-126l-24 96q-22 -45 -71 -68.5t-115 -23.5q-33 0 -43 15v-184h-165z" />
    <glyph glyph-name="mu" unicode="&#x3bc;" horiz-adv-x="666" 
d="M61 -165v732h165v-315q0 -60 20 -89.5t69 -29.5q125 0 125 119v315h165v-567h-126l-24 96q-22 -45 -71 -68.5t-115 -23.5q-33 0 -43 15v-184h-165z" />
    <glyph glyph-name="paragraph" unicode="&#xb6;" horiz-adv-x="685" 
d="M221 0v243q-177 37 -177 226q0 247 298 247h269v-716h-157v230h-76v-230h-157zM346 356h108v218h-98q-77 0 -112 -26t-35 -83q0 -109 137 -109z" />
    <glyph glyph-name="periodcentered" unicode="&#xb7;" horiz-adv-x="299" 
d="M54 280v192h191v-192h-191z" />
    <glyph glyph-name="periodcentered" unicode="&#x2219;" horiz-adv-x="299" 
d="M54 280v192h191v-192h-191z" />
    <glyph glyph-name="cedilla" unicode="&#xb8;" horiz-adv-x="590" 
d="M290 -242q-80 0 -135 31l43 78q46 -21 88 -21q60 0 60 37q0 39 -85 32l-35 20l16 72h94l-9 -51q49 16 89.5 -5.5t40.5 -78.5q0 -55 -46.5 -84.5t-120.5 -29.5z" />
    <glyph glyph-name="one.sups" unicode="&#xb9;" horiz-adv-x="360" 
d="M134 267v384q-35 -11 -84 -11v110q104 0 140 18h72v-501h-128z" />
    <glyph glyph-name="ordmasculine" unicode="&#xba;" horiz-adv-x="611" 
d="M305 248q-109 0 -174.5 65.5t-65.5 174.5t65.5 174.5t174.5 65.5q110 0 175.5 -65.5t65.5 -174.5t-65.5 -174.5t-175.5 -65.5zM305 368q48 0 74.5 33t26.5 83q0 52 -26 84.5t-75 32.5q-47 0 -73.5 -33t-26.5 -84q0 -50 26.5 -83t73.5 -33zM90 82v120h431v-120h-431z" />
    <glyph glyph-name="guillemotright" unicode="&#xbb;" horiz-adv-x="770" 
d="M407 283l-151 -283h-144l135 283l-135 284h144zM687 283l-151 -283h-143l135 283l-135 284h143z" />
    <glyph glyph-name="onequarter" unicode="&#xbc;" horiz-adv-x="1012" 
d="M114 218v384q-35 -11 -84 -11v110q104 0 140 18h72v-501h-128zM181 0l415 716h145l-415 -716h-145zM789 0v88h-259v95l225 318h139l-221 -310h118l27 95h91v-95h76v-103h-76v-88h-120z" />
    <glyph glyph-name="onehalf" unicode="&#xbd;" horiz-adv-x="1065" 
d="M114 218v384q-35 -11 -84 -11v110q104 0 140 18h72v-501h-128zM181 0l415 716h145l-415 -716h-145zM611 0v114l156 99q73 47 95 73t22 57q0 24 -18.5 38t-53.5 14q-57 0 -99 -48l-103 67q67 95 215 95q88 0 138.5 -40.5t50.5 -109.5q0 -61 -32.5 -105.5t-113.5 -95.5
l-84 -53h239v-105h-412z" />
    <glyph glyph-name="threequarters" unicode="&#xbe;" horiz-adv-x="1160" 
d="M329 0l415 716h146l-415 -716h-146zM937 0v88h-259v95l225 318h139l-221 -310h118l27 95h91v-95h76v-103h-76v-88h-120zM246 210q-171 0 -227 114l108 49q28 -55 106 -55q91 0 91 61q0 33 -33.5 46t-122.5 13v85q78 0 108.5 12t30.5 39q0 45 -70 45q-73 0 -101 -41
l-98 61q64 89 208 89q89 0 138.5 -35.5t49.5 -88.5q0 -43 -27 -71t-66 -38q47 -10 79 -41t32 -88q0 -77 -59.5 -116.5t-146.5 -39.5z" />
    <glyph glyph-name="questiondown" unicode="&#xbf;" horiz-adv-x="704" 
d="M339 -12q-128 0 -202 52t-74 150q0 128 143 196q61 29 77.5 53.5t9.5 83.5h162q7 -65 -7 -106.5t-41.5 -65t-83.5 -50.5q-51 -23 -71.5 -41t-20.5 -50q0 -71 120 -70q102 0 157 72l134 -80q-99 -144 -303 -144zM278 575v166h191v-166h-191z" />
    <glyph glyph-name="Agrave" unicode="&#xc0;" horiz-adv-x="787" 
d="M14 0l296 746h168l296 -746h-176l-45 117h-328l-45 -117h-166zM280 262h217l-108 278zM518 774l-298 103l46 129l291 -127z" />
    <glyph glyph-name="Aacute" unicode="&#xc1;" horiz-adv-x="787" 
d="M14 0l296 746h168l296 -746h-176l-45 117h-328l-45 -117h-166zM280 262h217l-108 278zM266 773l-39 104l291 128l46 -129z" />
    <glyph glyph-name="Acircumflex" unicode="&#xc2;" horiz-adv-x="787" 
d="M14 0l296 746h168l296 -746h-176l-45 117h-328l-45 -117h-166zM280 262h217l-108 278zM219 778l-44 91l185 113h64l187 -113l-45 -91l-174 71z" />
    <glyph glyph-name="Atilde" unicode="&#xc3;" horiz-adv-x="787" 
d="M14 0l296 746h168l296 -746h-176l-45 117h-328l-45 -117h-166zM280 262h217l-108 278zM247 782l-92 76q40 52 84.5 81t85.5 29q36 0 73 -23.5t54 -23.5q40 0 82 56l92 -75q-39 -51 -84.5 -80.5t-85.5 -29.5q-33 0 -70.5 23.5t-56.5 23.5q-42 0 -82 -57z" />
    <glyph glyph-name="Adieresis" unicode="&#xc4;" horiz-adv-x="787" 
d="M14 0l296 746h168l296 -746h-176l-45 117h-328l-45 -117h-166zM280 262h217l-108 278zM205 787v141h151v-141h-151zM429 787v141h150v-141h-150z" />
    <glyph glyph-name="Aring" unicode="&#xc5;" horiz-adv-x="787" 
d="M14 0l277 697q-46 41 -46 108q0 64 43 107.5t105 43.5q60 0 103.5 -44t43.5 -107t-44 -105l278 -700h-176l-45 117h-328l-45 -117h-166zM280 259h217l-108 281zM393 739q27 0 44.5 19t17.5 47q0 29 -17.5 48.5t-44.5 19.5t-45 -19.5t-18 -48.5q0 -28 18 -47t45 -19z" />
    <glyph glyph-name="AE" unicode="&#xc6;" horiz-adv-x="1134" 
d="M0 0l466 741h612v-156h-367v-142h337v-139h-337v-154h371v-150h-537v124h-293l-83 -124h-169zM334 265h211v328z" />
    <glyph glyph-name="Ccedilla" unicode="&#xc7;" horiz-adv-x="768" 
d="M377 -242q-80 0 -135 31l43 78q47 -21 88 -21q60 0 60 37q0 39 -85 32l-35 20l13 59q-133 21 -213 121.5t-80 253.5q0 96 32 171.5t86 120.5t119.5 68.5t137.5 23.5q121 0 205.5 -51.5t125.5 -144.5l-153 -70q-54 105 -185 105q-83 0 -137.5 -59t-54.5 -166
q0 -105 53.5 -164.5t139.5 -59.5q72 0 117 30.5t78 89.5l147 -69q-100 -194 -324 -205l-6 -33q49 16 89.5 -5.5t40.5 -78.5q0 -55 -46.5 -84.5t-120.5 -29.5z" />
    <glyph glyph-name="Egrave" unicode="&#xc8;" horiz-adv-x="668" 
d="M73 0v741h540v-156h-367v-142h336v-139h-336v-154h371v-150h-544zM459 774l-298 103l46 129l291 -127z" />
    <glyph glyph-name="Eacute" unicode="&#xc9;" horiz-adv-x="668" 
d="M207 773l-39 104l291 128l46 -129zM73 0v741h540v-156h-367v-142h336v-139h-336v-154h371v-150h-544z" />
    <glyph glyph-name="Ecircumflex" unicode="&#xca;" horiz-adv-x="668" 
d="M160 778l-44 91l185 113h64l187 -113l-45 -91l-174 71zM73 0v741h540v-156h-367v-142h336v-139h-336v-154h371v-150h-544z" />
    <glyph glyph-name="Edieresis" unicode="&#xcb;" horiz-adv-x="668" 
d="M146 787v141h151v-141h-151zM370 787v141h150v-141h-150zM73 0v741h540v-156h-367v-142h336v-139h-336v-154h371v-150h-544z" />
    <glyph glyph-name="Igrave" unicode="&#xcc;" horiz-adv-x="343" 
d="M85 0v741h173v-741h-173zM286 774l-298 103l46 129l291 -127z" />
    <glyph glyph-name="Iacute" unicode="&#xcd;" horiz-adv-x="343" 
d="M85 0v741h173v-741h-173zM58 773l-39 104l291 128l46 -129z" />
    <glyph glyph-name="Icircumflex" unicode="&#xce;" horiz-adv-x="343" 
d="M85 0v741h173v-741h-173zM-1 778l-44 91l185 113h64l187 -113l-45 -91l-174 71z" />
    <glyph glyph-name="Idieresis" unicode="&#xcf;" horiz-adv-x="343" 
d="M85 0v741h173v-741h-173zM-15 787v141h151v-141h-151zM209 787v141h150v-141h-150z" />
    <glyph glyph-name="Eth" unicode="&#xd0;" horiz-adv-x="774" 
d="M73 0v305h-73v137h73v299h264q405 0 405 -370q0 -85 -23.5 -150.5t-62 -106.5t-94 -67t-113.5 -36.5t-126 -10.5h-250zM246 585v-143h131v-137h-131v-154h94q115 0 171 50.5t56 169.5t-56 166.5t-181 47.5h-84z" />
    <glyph glyph-name="Ntilde" unicode="&#xd1;" horiz-adv-x="824" 
d="M73 0v741h189l323 -451v451h165v-741h-159l-353 491v-491h-165zM266 782l-92 76q40 52 84.5 81t85.5 29q36 0 73 -23.5t54 -23.5q40 0 82 56l92 -75q-39 -51 -84.5 -80.5t-85.5 -29.5q-33 0 -70.5 23.5t-56.5 23.5q-42 0 -82 -57z" />
    <glyph glyph-name="Ograve" unicode="&#xd2;" horiz-adv-x="839" 
d="M420 -12q-54 0 -107 13t-104 42.5t-90 72.5t-62.5 109t-23.5 146t23.5 145.5t62.5 108.5t90 72.5t104 42.5t107 13t107 -13t104 -42.5t89.5 -72.5t62.5 -108.5t24 -145.5t-24 -146t-62.5 -109t-89.5 -72.5t-104 -42.5t-107 -13zM420 141q91 0 151 61.5t60 165.5t-60 165
t-151 61q-92 0 -152 -61t-60 -165q0 -105 60 -166t152 -61zM544 774l-298 103l46 129l291 -127z" />
    <glyph glyph-name="Oacute" unicode="&#xd3;" horiz-adv-x="839" 
d="M292 773l-39 104l291 128l46 -129zM420 -12q-54 0 -107 13t-104 42.5t-90 72.5t-62.5 109t-23.5 146t23.5 145.5t62.5 108.5t90 72.5t104 42.5t107 13t107 -13t104 -42.5t89.5 -72.5t62.5 -108.5t24 -145.5t-24 -146t-62.5 -109t-89.5 -72.5t-104 -42.5t-107 -13z
M420 141q91 0 151 61.5t60 165.5t-60 165t-151 61q-92 0 -152 -61t-60 -165q0 -105 60 -166t152 -61z" />
    <glyph glyph-name="Ocircumflex" unicode="&#xd4;" horiz-adv-x="839" 
d="M245 778l-44 91l185 113h64l187 -113l-45 -91l-174 71zM420 -12q-54 0 -107 13t-104 42.5t-90 72.5t-62.5 109t-23.5 146t23.5 145.5t62.5 108.5t90 72.5t104 42.5t107 13t107 -13t104 -42.5t89.5 -72.5t62.5 -108.5t24 -145.5t-24 -146t-62.5 -109t-89.5 -72.5
t-104 -42.5t-107 -13zM420 141q91 0 151 61.5t60 165.5t-60 165t-151 61q-92 0 -152 -61t-60 -165q0 -105 60 -166t152 -61z" />
    <glyph glyph-name="Otilde" unicode="&#xd5;" horiz-adv-x="839" 
d="M420 -12q-54 0 -107 13t-104 42.5t-90 72.5t-62.5 109t-23.5 146t23.5 145.5t62.5 108.5t90 72.5t104 42.5t107 13t107 -13t104 -42.5t89.5 -72.5t62.5 -108.5t24 -145.5t-24 -146t-62.5 -109t-89.5 -72.5t-104 -42.5t-107 -13zM420 141q91 0 151 61.5t60 165.5t-60 165
t-151 61q-92 0 -152 -61t-60 -165q0 -105 60 -166t152 -61zM273 782l-92 76q40 52 84.5 81t85.5 29q36 0 73 -23.5t54 -23.5q40 0 82 56l92 -75q-39 -51 -84.5 -80.5t-85.5 -29.5q-33 0 -70.5 23.5t-56.5 23.5q-42 0 -82 -57z" />
    <glyph glyph-name="Odieresis" unicode="&#xd6;" horiz-adv-x="839" 
d="M231 787v141h151v-141h-151zM455 787v141h150v-141h-150zM420 -12q-54 0 -107 13t-104 42.5t-90 72.5t-62.5 109t-23.5 146t23.5 145.5t62.5 108.5t90 72.5t104 42.5t107 13t107 -13t104 -42.5t89.5 -72.5t62.5 -108.5t24 -145.5t-24 -146t-62.5 -109t-89.5 -72.5
t-104 -42.5t-107 -13zM420 141q91 0 151 61.5t60 165.5t-60 165t-151 61q-92 0 -152 -61t-60 -165q0 -105 60 -166t152 -61z" />
    <glyph glyph-name="multiply" unicode="&#xd7;" horiz-adv-x="726" 
d="M214 100l-101 104l148 149l-147 147l102 104l147 -147l148 147l101 -104l-148 -147l148 -147l-101 -105l-148 148z" />
    <glyph glyph-name="Oslash" unicode="&#xd8;" horiz-adv-x="839" 
d="M420 -12q-72 0 -143 24l-48 -80h-140l81 136q-137 104 -137 303q0 80 23.5 145.5t62.5 108.5t90 72.5t104 42.5t107 13q71 0 142 -24l48 80h141l-82 -137q138 -104 138 -301q0 -80 -24 -146t-62.5 -109t-89.5 -72.5t-104 -42.5t-107 -13zM420 135q94 0 155.5 63t61.5 170
q0 101 -58 165l-230 -388q31 -10 71 -10zM202 368q0 -101 55 -164l230 387q-30 10 -67 10q-95 0 -156.5 -63t-61.5 -170z" />
    <glyph glyph-name="Ugrave" unicode="&#xd9;" horiz-adv-x="814" 
d="M579 741h168v-456q0 -56 -17.5 -106t-55 -95t-106.5 -71.5t-161 -26.5t-160.5 26.5t-106 71.5t-55 95t-17.5 106v456h173v-436q0 -166 169 -166t169 166v436zM532 774l-298 103l46 129l291 -127z" />
    <glyph glyph-name="Uacute" unicode="&#xda;" horiz-adv-x="814" 
d="M280 773l-39 104l291 128l46 -129zM579 741h168v-456q0 -56 -17.5 -106t-55 -95t-106.5 -71.5t-161 -26.5t-160.5 26.5t-106 71.5t-55 95t-17.5 106v456h173v-436q0 -166 169 -166t169 166v436z" />
    <glyph glyph-name="Ucircumflex" unicode="&#xdb;" horiz-adv-x="814" 
d="M233 778l-44 91l185 113h64l187 -113l-45 -91l-174 71zM579 741h168v-456q0 -56 -17.5 -106t-55 -95t-106.5 -71.5t-161 -26.5t-160.5 26.5t-106 71.5t-55 95t-17.5 106v456h173v-436q0 -166 169 -166t169 166v436z" />
    <glyph glyph-name="Udieresis" unicode="&#xdc;" horiz-adv-x="814" 
d="M219 787v141h151v-141h-151zM443 787v141h150v-141h-150zM579 741h168v-456q0 -56 -17.5 -106t-55 -95t-106.5 -71.5t-161 -26.5t-160.5 26.5t-106 71.5t-55 95t-17.5 106v456h173v-436q0 -166 169 -166t169 166v436z" />
    <glyph glyph-name="Yacute" unicode="&#xdd;" horiz-adv-x="760" 
d="M294 0v270l-285 471h182l192 -323l194 323h175l-286 -473v-268h-172zM253 773l-39 104l291 128l46 -129z" />
    <glyph glyph-name="Thorn" unicode="&#xde;" horiz-adv-x="737" 
d="M74 0v741h172v-89h183q128 0 202 -70t74 -190q0 -122 -76 -195t-213 -73h-170v-124h-172zM246 264h148q63 0 99.5 30t36.5 90q0 120 -139 120h-145v-240z" />
    <glyph glyph-name="germandbls" unicode="&#xdf;" horiz-adv-x="720" 
d="M121 0v426h-114v141h114v30q0 94 68.5 145.5t205.5 51.5q259 0 259 -187q0 -68 -35.5 -111t-92.5 -62q68 -13 118.5 -62t50.5 -140q0 -242 -246 -242q-71 0 -120 13l31 147q32 -8 70 -8q44 0 72 25.5t28 79.5q0 57 -40.5 80.5t-125.5 25.5v131q127 2 127 90
q0 41 -23 60.5t-75 19.5q-53 0 -80 -19.5t-27 -53.5v-581h-165z" />
    <glyph glyph-name="agrave" unicode="&#xe0;" horiz-adv-x="649" 
d="M209 -10q-88 0 -135.5 50.5t-47.5 128.5q0 88 64 135t174 47q76 0 141 -16v12q0 43 -19 65t-74 22q-98 0 -175 -34l-57 132q98 50 251 50q236 0 236 -230v-235h65v-108q-59 -17 -104 -17q-51 0 -77.5 16.5t-34.5 59.5l-4 30q-48 -108 -203 -108zM267 126q63 0 100.5 26.5
t37.5 70.5v16q-42 8 -86 8q-135 0 -135 -62q0 -59 83 -59zM444 612l-298 103l46 129l291 -127z" />
    <glyph glyph-name="aacute" unicode="&#xe1;" horiz-adv-x="649" 
d="M209 -10q-88 0 -135.5 50.5t-47.5 128.5q0 88 64 135t174 47q76 0 141 -16v12q0 43 -19 65t-74 22q-98 0 -175 -34l-57 132q98 50 251 50q236 0 236 -230v-235h65v-108q-59 -17 -104 -17q-51 0 -77.5 16.5t-34.5 59.5l-4 30q-48 -108 -203 -108zM267 126q63 0 100.5 26.5
t37.5 70.5v16q-42 8 -86 8q-135 0 -135 -62q0 -59 83 -59zM192 611l-39 104l291 128l46 -129z" />
    <glyph glyph-name="acircumflex" unicode="&#xe2;" horiz-adv-x="649" 
d="M209 -10q-88 0 -135.5 50.5t-47.5 128.5q0 88 64 135t174 47q76 0 141 -16v12q0 43 -19 65t-74 22q-98 0 -175 -34l-57 132q98 50 251 50q236 0 236 -230v-235h65v-108q-59 -17 -104 -17q-51 0 -77.5 16.5t-34.5 59.5l-4 30q-48 -108 -203 -108zM267 126q63 0 100.5 26.5
t37.5 70.5v16q-42 8 -86 8q-135 0 -135 -62q0 -59 83 -59zM145 616l-44 91l185 113h64l187 -113l-45 -91l-174 71z" />
    <glyph glyph-name="atilde" unicode="&#xe3;" horiz-adv-x="649" 
d="M209 -10q-88 0 -135.5 50.5t-47.5 128.5q0 88 64 135t174 47q76 0 141 -16v12q0 43 -19 65t-74 22q-98 0 -175 -34l-57 132q98 50 251 50q236 0 236 -230v-235h65v-108q-59 -17 -104 -17q-51 0 -77.5 16.5t-34.5 59.5l-4 30q-48 -108 -203 -108zM267 126q63 0 100.5 26.5
t37.5 70.5v16q-42 8 -86 8q-135 0 -135 -62q0 -59 83 -59zM173 620l-92 76q40 52 84.5 81t85.5 29q36 0 73 -23.5t54 -23.5q40 0 82 56l92 -75q-39 -51 -84.5 -80.5t-85.5 -29.5q-33 0 -70.5 23.5t-56.5 23.5q-42 0 -82 -57z" />
    <glyph glyph-name="adieresis" unicode="&#xe4;" horiz-adv-x="649" 
d="M209 -10q-88 0 -135.5 50.5t-47.5 128.5q0 88 64 135t174 47q76 0 141 -16v12q0 43 -19 65t-74 22q-98 0 -175 -34l-57 132q98 50 251 50q236 0 236 -230v-235h65v-108q-59 -17 -104 -17q-51 0 -77.5 16.5t-34.5 59.5l-4 30q-48 -108 -203 -108zM267 126q63 0 100.5 26.5
t37.5 70.5v16q-42 8 -86 8q-135 0 -135 -62q0 -59 83 -59zM131 625v141h151v-141h-151zM355 625v141h150v-141h-150z" />
    <glyph glyph-name="aring" unicode="&#xe5;" horiz-adv-x="649" 
d="M209 -10q-88 0 -135.5 50.5t-47.5 128.5q0 88 64 135t174 47q76 0 141 -16v12q0 43 -19 65t-74 22q-98 0 -175 -34l-57 132q98 50 251 50q236 0 236 -230v-235h65v-108q-59 -17 -104 -17q-51 0 -77.5 16.5t-34.5 59.5l-4 30q-48 -108 -203 -108zM267 126q63 0 100.5 26.5
t37.5 70.5v16q-42 8 -86 8q-135 0 -135 -62q0 -59 83 -59zM318 611q-62 0 -105 43t-43 107t43 107.5t105 43.5q60 0 103.5 -44t43.5 -107t-43 -106.5t-104 -43.5zM318 695q27 0 44.5 19t17.5 47t-17.5 47.5t-44.5 19.5t-45 -19.5t-18 -47.5t18 -47t45 -19z" />
    <glyph glyph-name="ae" unicode="&#xe6;" horiz-adv-x="992" 
d="M666 -11q-138 0 -196 93q-33 -42 -97 -66.5t-151 -24.5q-98 0 -147 49.5t-49 128.5q0 87 64.5 134.5t173.5 47.5q63 0 141 -16v13q0 43 -19 64.5t-74 21.5q-98 0 -175 -34l-57 132q98 50 244 50q117 0 172 -72q67 70 189 70q74 0 125.5 -23.5t78 -67.5t37.5 -94t11 -116
v-50h-376q18 -106 122 -106q100 0 154 65l106 -89q-94 -110 -277 -110zM267 126q63 0 100.5 26.5t37.5 70.5v16q-42 8 -86 8q-135 0 -135 -62q0 -59 83 -59zM562 338h223v2q0 42 -25.5 72.5t-72.5 30.5q-104 0 -125 -105z" />
    <glyph glyph-name="ccedilla" unicode="&#xe7;" horiz-adv-x="608" 
d="M293 -242q-80 0 -135 31l43 78q47 -21 88 -21q60 0 60 37q0 39 -85 32l-35 20l14 63q-105 20 -157 98t-52 189q0 124 74.5 209.5t205.5 85.5q103 0 166 -36t105 -115l-140 -74q-37 74 -123 74q-55 0 -87 -40t-32 -108q0 -70 31 -110t91 -40q81 0 133 80l127 -79
q-83 -132 -249 -140l-6 -36q49 16 89.5 -5.5t40.5 -78.5q0 -55 -46.5 -84.5t-120.5 -29.5z" />
    <glyph glyph-name="egrave" unicode="&#xe8;" horiz-adv-x="617" 
d="M304 -11q-135 0 -202.5 83t-67.5 213q0 126 74.5 210.5t214.5 84.5q74 0 125.5 -23.5t78 -67.5t37.5 -94t11 -116v-50h-376q17 -106 122 -106q100 0 154 65l106 -89q-94 -110 -277 -110zM325 443q-104 0 -125 -105h223v2q0 42 -25.5 72.5t-72.5 30.5zM436 612l-298 103
l46 129l291 -127z" />
    <glyph glyph-name="eacute" unicode="&#xe9;" horiz-adv-x="617" 
d="M184 611l-39 104l291 128l46 -129zM304 -11q-135 0 -202.5 83t-67.5 213q0 126 74.5 210.5t214.5 84.5q74 0 125.5 -23.5t78 -67.5t37.5 -94t11 -116v-50h-376q17 -106 122 -106q100 0 154 65l106 -89q-94 -110 -277 -110zM325 443q-104 0 -125 -105h223v2
q0 42 -25.5 72.5t-72.5 30.5z" />
    <glyph glyph-name="ecircumflex" unicode="&#xea;" horiz-adv-x="617" 
d="M137 616l-44 91l185 113h64l187 -113l-45 -91l-174 71zM304 -11q-135 0 -202.5 83t-67.5 213q0 126 74.5 210.5t214.5 84.5q74 0 125.5 -23.5t78 -67.5t37.5 -94t11 -116v-50h-376q17 -106 122 -106q100 0 154 65l106 -89q-94 -110 -277 -110zM325 443q-104 0 -125 -105
h223v2q0 42 -25.5 72.5t-72.5 30.5z" />
    <glyph glyph-name="edieresis" unicode="&#xeb;" horiz-adv-x="617" 
d="M123 625v141h151v-141h-151zM347 625v141h150v-141h-150zM304 -11q-135 0 -202.5 83t-67.5 213q0 126 74.5 210.5t214.5 84.5q74 0 125.5 -23.5t78 -67.5t37.5 -94t11 -116v-50h-376q17 -106 122 -106q100 0 154 65l106 -89q-94 -110 -277 -110zM325 443
q-104 0 -125 -105h223v2q0 42 -25.5 72.5t-72.5 30.5z" />
    <glyph glyph-name="igrave" unicode="&#xec;" horiz-adv-x="293" 
d="M64 0v567h165v-567h-165zM262 612l-298 103l46 129l291 -127z" />
    <glyph glyph-name="iacute" unicode="&#xed;" horiz-adv-x="293" 
d="M33 611l-39 104l291 128l46 -129zM64 0v567h165v-567h-165z" />
    <glyph glyph-name="icircumflex" unicode="&#xee;" horiz-adv-x="293" 
d="M-26 616l-44 91l185 113h64l187 -113l-45 -91l-174 71zM64 0v567h165v-567h-165z" />
    <glyph glyph-name="idieresis" unicode="&#xef;" horiz-adv-x="293" 
d="M-40 625v141h151v-141h-151zM184 625v141h150v-141h-150zM64 0v567h165v-567h-165z" />
    <glyph glyph-name="eth" unicode="&#xf0;" horiz-adv-x="662" 
d="M331 -11q-142 0 -219.5 77t-77.5 199q0 113 66 186.5t184 73.5q107 0 158 -74q-14 62 -44 124l-103 -25v104l52 14q-18 25 -41 48l127 85q47 -37 87 -99l103 25v-105l-55 -14q60 -127 60 -286t-83.5 -246t-213.5 -87zM331 135q62 0 96 37t34 97q0 61 -34 97.5t-96 36.5
t-96 -36.5t-34 -97.5q0 -60 34 -97t96 -37z" />
    <glyph glyph-name="ntilde" unicode="&#xf1;" horiz-adv-x="665" 
d="M61 0v567h126l25 -95q23 50 77 79t126 29q102 0 147.5 -58.5t45.5 -169.5v-352h-165v311q0 57 -21.5 85.5t-73.5 28.5q-122 0 -122 -118v-307h-165zM187 620l-92 76q40 52 84.5 81t85.5 29q36 0 73 -23.5t54 -23.5q40 0 82 56l92 -75q-39 -51 -84.5 -80.5t-85.5 -29.5
q-33 0 -70.5 23.5t-56.5 23.5q-42 0 -82 -57z" />
    <glyph glyph-name="ograve" unicode="&#xf2;" horiz-adv-x="661" 
d="M331 -11q-135 0 -216 80.5t-81 215.5t81 215t216 80t215.5 -80t80.5 -215t-80.5 -215.5t-215.5 -80.5zM331 131q62 0 96 40.5t34 109.5t-33.5 109t-96.5 40t-96.5 -40t-33.5 -109t33.5 -109.5t96.5 -40.5zM456 612l-298 103l46 129l291 -127z" />
    <glyph glyph-name="oacute" unicode="&#xf3;" horiz-adv-x="661" 
d="M204 611l-39 104l291 128l46 -129zM331 -11q-135 0 -216 80.5t-81 215.5t81 215t216 80t215.5 -80t80.5 -215t-80.5 -215.5t-215.5 -80.5zM331 131q62 0 96 40.5t34 109.5t-33.5 109t-96.5 40t-96.5 -40t-33.5 -109t33.5 -109.5t96.5 -40.5z" />
    <glyph glyph-name="ocircumflex" unicode="&#xf4;" horiz-adv-x="661" 
d="M157 616l-44 91l185 113h64l187 -113l-45 -91l-174 71zM331 -11q-135 0 -216 80.5t-81 215.5t81 215t216 80t215.5 -80t80.5 -215t-80.5 -215.5t-215.5 -80.5zM331 131q62 0 96 40.5t34 109.5t-33.5 109t-96.5 40t-96.5 -40t-33.5 -109t33.5 -109.5t96.5 -40.5z" />
    <glyph glyph-name="otilde" unicode="&#xf5;" horiz-adv-x="661" 
d="M331 -11q-135 0 -216 80.5t-81 215.5t81 215t216 80t215.5 -80t80.5 -215t-80.5 -215.5t-215.5 -80.5zM331 131q62 0 96 40.5t34 109.5t-33.5 109t-96.5 40t-96.5 -40t-33.5 -109t33.5 -109.5t96.5 -40.5zM185 620l-92 76q40 52 84.5 81t85.5 29q36 0 73 -23.5t54 -23.5
q40 0 82 56l92 -75q-39 -51 -84.5 -80.5t-85.5 -29.5q-33 0 -70.5 23.5t-56.5 23.5q-42 0 -82 -57z" />
    <glyph glyph-name="odieresis" unicode="&#xf6;" horiz-adv-x="661" 
d="M143 625v141h151v-141h-151zM367 625v141h150v-141h-150zM331 -11q-135 0 -216 80.5t-81 215.5t81 215t216 80t215.5 -80t80.5 -215t-80.5 -215.5t-215.5 -80.5zM331 131q62 0 96 40.5t34 109.5t-33.5 109t-96.5 40t-96.5 -40t-33.5 -109t33.5 -109.5t96.5 -40.5z" />
    <glyph glyph-name="divide" unicode="&#xf7;" horiz-adv-x="726" 
d="M279 76v143h167v-143h-167zM92 278v149h542v-149h-542zM279 486v143h167v-143h-167z" />
    <glyph glyph-name="oslash" unicode="&#xf8;" horiz-adv-x="661" 
d="M331 -11q-57 0 -110 16l-45 -68h-135l81 126q-88 80 -88 222q0 135 81 215t216 80q58 0 109 -17l47 73h135l-83 -129q88 -82 88 -222q0 -135 -80.5 -215.5t-215.5 -80.5zM331 123q66 0 101.5 42.5t35.5 115.5q0 57 -21 94l-156 -248q16 -4 40 -4zM194 281q0 -53 18 -89
l153 242q-13 4 -34 4q-66 0 -101.5 -42t-35.5 -115z" />
    <glyph glyph-name="ugrave" unicode="&#xf9;" horiz-adv-x="663" 
d="M250 -9q-106 0 -149 57.5t-43 170.5v348h165v-319q0 -58 21 -86.5t73 -28.5q119 0 119 119v315h166v-567h-126l-25 96q-23 -50 -77.5 -77.5t-123.5 -27.5zM457 612l-298 103l46 129l291 -127z" />
    <glyph glyph-name="uacute" unicode="&#xfa;" horiz-adv-x="663" 
d="M205 611l-39 104l291 128l46 -129zM250 -9q-106 0 -149 57.5t-43 170.5v348h165v-319q0 -58 21 -86.5t73 -28.5q119 0 119 119v315h166v-567h-126l-25 96q-23 -50 -77.5 -77.5t-123.5 -27.5z" />
    <glyph glyph-name="ucircumflex" unicode="&#xfb;" horiz-adv-x="663" 
d="M158 616l-44 91l185 113h64l187 -113l-45 -91l-174 71zM250 -9q-106 0 -149 57.5t-43 170.5v348h165v-319q0 -58 21 -86.5t73 -28.5q119 0 119 119v315h166v-567h-126l-25 96q-23 -50 -77.5 -77.5t-123.5 -27.5z" />
    <glyph glyph-name="udieresis" unicode="&#xfc;" horiz-adv-x="663" 
d="M144 625v141h151v-141h-151zM368 625v141h150v-141h-150zM250 -9q-106 0 -149 57.5t-43 170.5v348h165v-319q0 -58 21 -86.5t73 -28.5q119 0 119 119v315h166v-567h-126l-25 96q-23 -50 -77.5 -77.5t-123.5 -27.5z" />
    <glyph glyph-name="yacute" unicode="&#xfd;" horiz-adv-x="594" 
d="M168 -176q-93 0 -165 22l42 131q63 -16 101 -16q55 0 75 38l-218 568h174l130 -361l130 361h155l-232 -606q-29 -74 -71.5 -105.5t-120.5 -31.5zM170 611l-39 104l291 128l46 -129z" />
    <glyph glyph-name="thorn" unicode="&#xfe;" horiz-adv-x="683" 
d="M61 -165v941h165v-304q55 108 197 108q111 0 168.5 -84t57.5 -211q0 -126 -61 -210t-177 -84q-125 0 -185 93v-249h-165zM366 131q58 0 86.5 40t28.5 108q0 69 -28 110t-87 41q-63 0 -101.5 -41t-38.5 -110t37 -108.5t103 -39.5z" />
    <glyph glyph-name="ydieresis" unicode="&#xff;" horiz-adv-x="594" 
d="M168 -176q-93 0 -165 22l42 131q63 -16 101 -16q55 0 75 38l-218 568h174l130 -361l130 361h155l-232 -606q-29 -74 -71.5 -105.5t-120.5 -31.5zM116 625v141h151v-141h-151zM340 625v141h150v-141h-150z" />
    <glyph glyph-name="Amacron" unicode="&#x100;" horiz-adv-x="787" 
d="M14 0l296 746h168l296 -746h-176l-45 117h-328l-45 -117h-166zM280 262h217l-108 278zM205 787v132h374v-132h-374z" />
    <glyph glyph-name="amacron" unicode="&#x101;" horiz-adv-x="649" 
d="M209 -10q-88 0 -135.5 50.5t-47.5 128.5q0 88 64 135t174 47q76 0 141 -16v12q0 43 -19 65t-74 22q-98 0 -175 -34l-57 132q98 50 251 50q236 0 236 -230v-235h65v-108q-59 -17 -104 -17q-51 0 -77.5 16.5t-34.5 59.5l-4 30q-48 -108 -203 -108zM267 126q63 0 100.5 26.5
t37.5 70.5v16q-42 8 -86 8q-135 0 -135 -62q0 -59 83 -59zM131 625v132h374v-132h-374z" />
    <glyph glyph-name="Abreve" unicode="&#x102;" horiz-adv-x="787" 
d="M14 0l296 746h168l296 -746h-176l-45 117h-328l-45 -117h-166zM280 262h217l-108 278zM392 774q-182 0 -218 189l119 22q10 -45 32.5 -64t66.5 -19t66.5 19t31.5 64l122 -22q-39 -189 -220 -189z" />
    <glyph glyph-name="abreve" unicode="&#x103;" horiz-adv-x="649" 
d="M209 -10q-88 0 -135.5 50.5t-47.5 128.5q0 88 64 135t174 47q76 0 141 -16v12q0 43 -19 65t-74 22q-98 0 -175 -34l-57 132q98 50 251 50q236 0 236 -230v-235h65v-108q-59 -17 -104 -17q-51 0 -77.5 16.5t-34.5 59.5l-4 30q-48 -108 -203 -108zM267 126q63 0 100.5 26.5
t37.5 70.5v16q-42 8 -86 8q-135 0 -135 -62q0 -59 83 -59zM318 612q-182 0 -218 189l119 22q10 -45 32.5 -64t66.5 -19t66.5 19t31.5 64l122 -22q-39 -189 -220 -189z" />
    <glyph glyph-name="Aogonek" unicode="&#x104;" horiz-adv-x="787" 
d="M637 -220q-146 0 -146 113q0 77 97 132l-35 92h-328l-45 -117h-166l296 746h168l296 -746h-114q-54 -46 -54 -87q0 -36 56 -36q44 0 94 20l31 -84q-77 -33 -150 -33zM280 262h217l-108 278z" />
    <glyph glyph-name="aogonek" unicode="&#x105;" horiz-adv-x="649" 
d="M500 -220q-146 0 -146 113q0 74 85 125q-17 16 -23 50l-4 30q-48 -108 -203 -108q-88 0 -135.5 50.5t-47.5 128.5q0 88 64 135t174 47q76 0 141 -16v12q0 43 -19 65t-74 22q-98 0 -175 -34l-57 132q98 50 251 50q236 0 236 -230v-235h65v-108q-59 -17 -104 -17h-14
q-45 -42 -45 -79q0 -36 56 -36q44 0 94 20l31 -84q-77 -33 -150 -33zM267 126q63 0 100.5 26.5t37.5 70.5v16q-42 8 -86 8q-135 0 -135 -62q0 -59 83 -59z" />
    <glyph glyph-name="Cacute" unicode="&#x106;" horiz-adv-x="768" 
d="M273 773l-39 104l291 128l46 -129zM392 -12q-159 0 -259 104.5t-100 276.5q0 96 32 171.5t86 120.5t119.5 68.5t137.5 23.5q121 0 205.5 -51.5t125.5 -144.5l-153 -70q-54 105 -185 105q-83 0 -137.5 -59t-54.5 -166q0 -105 53.5 -164.5t139.5 -59.5q72 0 117 30.5
t78 89.5l147 -69q-106 -206 -352 -206z" />
    <glyph glyph-name="cacute" unicode="&#x107;" horiz-adv-x="608" 
d="M189 611l-39 104l291 128l46 -129zM315 -9q-140 0 -210.5 82.5t-70.5 211.5q0 124 74.5 209.5t205.5 85.5q103 0 166 -36t105 -115l-140 -74q-37 74 -123 74q-55 0 -87 -40t-32 -108q0 -70 31 -110t91 -40q81 0 133 80l127 -79q-90 -141 -270 -141z" />
    <glyph glyph-name="Ccircumflex" unicode="&#x108;" horiz-adv-x="768" 
d="M226 778l-44 91l185 113h64l187 -113l-45 -91l-174 71zM392 -12q-159 0 -259 104.5t-100 276.5q0 96 32 171.5t86 120.5t119.5 68.5t137.5 23.5q121 0 205.5 -51.5t125.5 -144.5l-153 -70q-54 105 -185 105q-83 0 -137.5 -59t-54.5 -166q0 -105 53.5 -164.5t139.5 -59.5
q72 0 117 30.5t78 89.5l147 -69q-106 -206 -352 -206z" />
    <glyph glyph-name="ccircumflex" unicode="&#x109;" horiz-adv-x="608" 
d="M145 616l-44 91l185 113h64l187 -113l-45 -91l-174 71zM315 -9q-140 0 -210.5 82.5t-70.5 211.5q0 124 74.5 209.5t205.5 85.5q103 0 166 -36t105 -115l-140 -74q-37 74 -123 74q-55 0 -87 -40t-32 -108q0 -70 31 -110t91 -40q81 0 133 80l127 -79q-90 -141 -270 -141z
" />
    <glyph glyph-name="Cdotaccent" unicode="&#x10a;" horiz-adv-x="768" 
d="M392 -12q-159 0 -259 104.5t-100 276.5q0 96 32 171.5t86 120.5t119.5 68.5t137.5 23.5q121 0 205.5 -51.5t125.5 -144.5l-153 -70q-54 105 -185 105q-83 0 -137.5 -59t-54.5 -166q0 -105 53.5 -164.5t139.5 -59.5q72 0 117 30.5t78 89.5l147 -69q-106 -206 -352 -206z
M315 787v144h168v-144h-168z" />
    <glyph glyph-name="cdotaccent" unicode="&#x10b;" horiz-adv-x="608" 
d="M315 -9q-140 0 -210.5 82.5t-70.5 211.5q0 124 74.5 209.5t205.5 85.5q103 0 166 -36t105 -115l-140 -74q-37 74 -123 74q-55 0 -87 -40t-32 -108q0 -70 31 -110t91 -40q81 0 133 80l127 -79q-90 -141 -270 -141zM234 625v144h168v-144h-168z" />
    <glyph glyph-name="Ccaron" unicode="&#x10c;" horiz-adv-x="768" 
d="M367 776l-187 112l45 91l174 -71l174 71l43 -91l-185 -112h-64zM392 -12q-159 0 -259 104.5t-100 276.5q0 96 32 171.5t86 120.5t119.5 68.5t137.5 23.5q121 0 205.5 -51.5t125.5 -144.5l-153 -70q-54 105 -185 105q-83 0 -137.5 -59t-54.5 -166q0 -105 53.5 -164.5
t139.5 -59.5q72 0 117 30.5t78 89.5l147 -69q-106 -206 -352 -206z" />
    <glyph glyph-name="ccaron" unicode="&#x10d;" horiz-adv-x="608" 
d="M286 614l-187 112l45 91l174 -71l174 71l43 -91l-185 -112h-64zM315 -9q-140 0 -210.5 82.5t-70.5 211.5q0 124 74.5 209.5t205.5 85.5q103 0 166 -36t105 -115l-140 -74q-37 74 -123 74q-55 0 -87 -40t-32 -108q0 -70 31 -110t91 -40q81 0 133 80l127 -79
q-90 -141 -270 -141z" />
    <glyph glyph-name="Dcaron" unicode="&#x10e;" horiz-adv-x="774" 
d="M354 776l-187 112l45 91l174 -71l174 71l43 -91l-185 -112h-64zM323 0h-250v741h264q405 0 405 -370q0 -85 -23.5 -150.5t-62 -106.5t-94 -67t-113.5 -36.5t-126 -10.5zM246 151h94q114 0 170.5 52t56.5 168q0 117 -56.5 166t-180.5 49h-84v-435z" />
    <glyph glyph-name="dcaron" unicode="&#x10f;" horiz-adv-x="682" 
d="M810 883v-106q0 -85 -22 -122.5t-99 -71.5l-34 68q45 20 57.5 34.5t12.5 45.5h-75v152h160zM260 -9q-111 0 -168.5 84t-57.5 211q0 126 61 210t176 84q128 0 185 -93v289h165v-776h-125l-26 103q-26 -52 -81 -82t-129 -30zM316 132q64 0 102 42.5t38 111.5t-36.5 107
t-103.5 38q-58 0 -86 -38.5t-28 -106.5q0 -69 28 -111.5t86 -42.5z" />
    <glyph glyph-name="Dcroat" unicode="&#x110;" horiz-adv-x="774" 
d="M73 0v305h-73v137h73v299h264q405 0 405 -370q0 -85 -23.5 -150.5t-62 -106.5t-94 -67t-113.5 -36.5t-126 -10.5h-250zM246 585v-143h131v-137h-131v-154h94q115 0 171 50.5t56 169.5t-56 166.5t-181 47.5h-84z" />
    <glyph glyph-name="dcroat" unicode="&#x111;" horiz-adv-x="682" 
d="M367 595v126h89v55h165v-55h61v-126h-61v-595h-125l-26 103q-26 -52 -81 -82t-129 -30q-111 0 -168.5 84t-57.5 211q0 126 61 210t176 84q128 0 185 -93v108h-89zM316 132q64 0 102 42.5t38 111.5t-36.5 107t-103.5 38q-58 0 -86 -38.5t-28 -106.5q0 -69 28 -111.5
t86 -42.5z" />
    <glyph glyph-name="Emacron" unicode="&#x112;" horiz-adv-x="668" 
d="M73 0v741h540v-156h-367v-142h336v-139h-336v-154h371v-150h-544zM146 787v132h374v-132h-374z" />
    <glyph glyph-name="emacron" unicode="&#x113;" horiz-adv-x="617" 
d="M304 -11q-135 0 -202.5 83t-67.5 213q0 126 74.5 210.5t214.5 84.5q74 0 125.5 -23.5t78 -67.5t37.5 -94t11 -116v-50h-376q17 -106 122 -106q100 0 154 65l106 -89q-94 -110 -277 -110zM325 443q-104 0 -125 -105h223v2q0 42 -25.5 72.5t-72.5 30.5zM123 625v132h374
v-132h-374z" />
    <glyph glyph-name="Ebreve" unicode="&#x114;" horiz-adv-x="668" 
d="M73 0v741h540v-156h-367v-142h336v-139h-336v-154h371v-150h-544zM333 774q-182 0 -218 189l119 22q10 -45 32.5 -64t66.5 -19t66.5 19t31.5 64l122 -22q-39 -189 -220 -189z" />
    <glyph glyph-name="ebreve" unicode="&#x115;" horiz-adv-x="617" 
d="M304 -11q-135 0 -202.5 83t-67.5 213q0 126 74.5 210.5t214.5 84.5q74 0 125.5 -23.5t78 -67.5t37.5 -94t11 -116v-50h-376q17 -106 122 -106q100 0 154 65l106 -89q-94 -110 -277 -110zM325 443q-104 0 -125 -105h223v2q0 42 -25.5 72.5t-72.5 30.5zM310 612
q-182 0 -218 189l119 22q10 -45 32.5 -64t66.5 -19t66.5 19t31.5 64l122 -22q-39 -189 -220 -189z" />
    <glyph glyph-name="Edotaccent" unicode="&#x116;" horiz-adv-x="668" 
d="M73 0v741h540v-156h-367v-142h336v-139h-336v-154h371v-150h-544zM249 787v144h168v-144h-168z" />
    <glyph glyph-name="edotaccent" unicode="&#x117;" horiz-adv-x="617" 
d="M304 -11q-135 0 -202.5 83t-67.5 213q0 126 74.5 210.5t214.5 84.5q74 0 125.5 -23.5t78 -67.5t37.5 -94t11 -116v-50h-376q17 -106 122 -106q100 0 154 65l106 -89q-94 -110 -277 -110zM325 443q-104 0 -125 -105h223v2q0 42 -25.5 72.5t-72.5 30.5zM226 625v144h168
v-144h-168z" />
    <glyph glyph-name="Eogonek" unicode="&#x118;" horiz-adv-x="668" 
d="M73 0v741h540v-156h-367v-142h336v-139h-336v-154h371v-150h-81q-54 -46 -54 -87q0 -36 56 -36q44 0 94 20l31 -84q-77 -33 -150 -33q-146 0 -146 113q0 59 60 107h-354z" />
    <glyph glyph-name="eogonek" unicode="&#x119;" horiz-adv-x="617" 
d="M354 -220q-146 0 -146 113q0 55 50 99q-112 14 -168 94.5t-56 198.5q0 126 74.5 210.5t214.5 84.5q74 0 125.5 -23.5t78 -67.5t37.5 -94t11 -116v-50h-376q17 -106 122 -106q100 0 154 65l106 -89q-78 -91 -213 -106q-45 -43 -45 -80q0 -36 56 -36q44 0 94 20l31 -84
q-77 -33 -150 -33zM325 443q-104 0 -125 -105h223v2q0 42 -25.5 72.5t-72.5 30.5z" />
    <glyph glyph-name="Ecaron" unicode="&#x11a;" horiz-adv-x="668" 
d="M301 776l-187 112l45 91l174 -71l174 71l43 -91l-185 -112h-64zM73 0v741h540v-156h-367v-142h336v-139h-336v-154h371v-150h-544z" />
    <glyph glyph-name="ecaron" unicode="&#x11b;" horiz-adv-x="617" 
d="M278 614l-187 112l45 91l174 -71l174 71l43 -91l-185 -112h-64zM304 -11q-135 0 -202.5 83t-67.5 213q0 126 74.5 210.5t214.5 84.5q74 0 125.5 -23.5t78 -67.5t37.5 -94t11 -116v-50h-376q17 -106 122 -106q100 0 154 65l106 -89q-94 -110 -277 -110zM325 443
q-104 0 -125 -105h223v2q0 42 -25.5 72.5t-72.5 30.5z" />
    <glyph glyph-name="Gcircumflex" unicode="&#x11c;" horiz-adv-x="795" 
d="M223 778l-44 91l185 113h64l187 -113l-45 -91l-174 71zM357 -11q-136 0 -230 101t-94 273q0 188 107.5 289.5t268.5 101.5q119 0 202.5 -50t122.5 -139l-151 -69q-48 100 -177 100q-85 0 -141.5 -59.5t-56.5 -166.5q0 -112 53 -172t145 -60q80 0 125 38.5t50 93.5h-172
v131h329v-401h-101l-26 110q-29 -51 -92.5 -86t-161.5 -35z" />
    <glyph glyph-name="gcircumflex" unicode="&#x11d;" horiz-adv-x="619" 
d="M137 630l-41 85l173 106h60l175 -106l-42 -85l-163 67zM248 -179q-250 0 -250 128q0 98 136 123q-30 10 -44.5 33t-14.5 49q0 22 15 45.5t38 39.5q-96 49 -96 148q0 90 73 141.5t192 51.5q51 0 97 -7l159 80l39 -139h-109q41 -20 61.5 -51t20.5 -84q0 -81 -74.5 -126.5
t-193.5 -45.5q-41 0 -75 6q-7 -9 -7 -19q0 -16 18.5 -22t82.5 -7q173 -1 234 -33.5t61 -120.5q0 -91 -91.5 -140.5t-271.5 -49.5zM267 -70q96 0 135.5 15.5t39.5 48.5q0 31 -30 41t-128 13q-52 1 -85.5 -14.5t-33.5 -46.5q0 -57 102 -57zM297 307q106 0 106 73t-106 73
q-104 0 -104 -73q0 -35 27.5 -54t76.5 -19z" />
    <glyph glyph-name="Gbreve" unicode="&#x11e;" horiz-adv-x="795" 
d="M357 -11q-136 0 -230 101t-94 273q0 188 107.5 289.5t268.5 101.5q119 0 202.5 -50t122.5 -139l-151 -69q-48 100 -177 100q-85 0 -141.5 -59.5t-56.5 -166.5q0 -112 53 -172t145 -60q80 0 125 38.5t50 93.5h-172v131h329v-401h-101l-26 110q-29 -51 -92.5 -86
t-161.5 -35zM396 774q-182 0 -218 189l119 22q10 -45 32.5 -64t66.5 -19t66.5 19t31.5 64l122 -22q-39 -189 -220 -189z" />
    <glyph glyph-name="gbreve" unicode="&#x11f;" horiz-adv-x="619" 
d="M248 -179q-250 0 -250 128q0 98 136 123q-30 10 -44.5 33t-14.5 49q0 22 15 45.5t38 39.5q-96 49 -96 148q0 90 73 141.5t192 51.5q51 0 97 -7l159 80l39 -139h-109q41 -20 61.5 -51t20.5 -84q0 -81 -74.5 -126.5t-193.5 -45.5q-41 0 -75 6q-7 -9 -7 -19q0 -16 18.5 -22
t82.5 -7q173 -1 234 -33.5t61 -120.5q0 -91 -91.5 -140.5t-271.5 -49.5zM267 -70q96 0 135.5 15.5t39.5 48.5q0 31 -30 41t-128 13q-52 1 -85.5 -14.5t-33.5 -46.5q0 -57 102 -57zM297 307q106 0 106 73t-106 73q-104 0 -104 -73q0 -35 27.5 -54t76.5 -19zM309 612
q-182 0 -218 189l119 22q10 -45 32.5 -64t66.5 -19t66.5 19t31.5 64l122 -22q-39 -189 -220 -189z" />
    <glyph glyph-name="Gdotaccent" unicode="&#x120;" horiz-adv-x="795" 
d="M357 -11q-136 0 -230 101t-94 273q0 188 107.5 289.5t268.5 101.5q119 0 202.5 -50t122.5 -139l-151 -69q-48 100 -177 100q-85 0 -141.5 -59.5t-56.5 -166.5q0 -112 53 -172t145 -60q80 0 125 38.5t50 93.5h-172v131h329v-401h-101l-26 110q-29 -51 -92.5 -86
t-161.5 -35zM312 787v144h168v-144h-168z" />
    <glyph glyph-name="gdotaccent" unicode="&#x121;" horiz-adv-x="619" 
d="M248 -179q-250 0 -250 128q0 98 136 123q-30 10 -44.5 33t-14.5 49q0 22 15 45.5t38 39.5q-96 49 -96 148q0 90 73 141.5t192 51.5q51 0 97 -7l159 80l39 -139h-109q41 -20 61.5 -51t20.5 -84q0 -81 -74.5 -126.5t-193.5 -45.5q-41 0 -75 6q-7 -9 -7 -19q0 -16 18.5 -22
t82.5 -7q173 -1 234 -33.5t61 -120.5q0 -91 -91.5 -140.5t-271.5 -49.5zM267 -70q96 0 135.5 15.5t39.5 48.5q0 31 -30 41t-128 13q-52 1 -85.5 -14.5t-33.5 -46.5q0 -57 102 -57zM297 307q106 0 106 73t-106 73q-104 0 -104 -73q0 -35 27.5 -54t76.5 -19zM225 625v144h168
v-144h-168z" />
    <glyph glyph-name="Gcommaaccent" unicode="&#x122;" horiz-adv-x="795" 
d="M479 -40v-110q0 -88 -23 -126.5t-103 -74.5l-35 71q47 21 60 36t13 46h-78v158h166zM357 -11q-136 0 -230 101t-94 273q0 188 107.5 289.5t268.5 101.5q119 0 202.5 -50t122.5 -139l-151 -69q-48 100 -177 100q-85 0 -141.5 -59.5t-56.5 -166.5q0 -112 53 -172t145 -60
q80 0 125 38.5t50 93.5h-172v131h329v-401h-101l-26 110q-29 -51 -92.5 -86t-161.5 -35z" />
    <glyph glyph-name="gcommaaccent" unicode="&#x123;" horiz-adv-x="619" 
d="M248 -179q-250 0 -250 128q0 98 136 123q-30 10 -44.5 33t-14.5 49q0 22 15 45.5t38 39.5q-96 49 -96 148q0 90 73 141.5t192 51.5q51 0 97 -7l159 80l39 -139h-109q41 -20 61.5 -51t20.5 -84q0 -81 -74.5 -126.5t-193.5 -45.5q-41 0 -75 6q-7 -9 -7 -19q0 -16 18.5 -22
t82.5 -7q173 -1 234 -33.5t61 -120.5q0 -91 -91.5 -140.5t-271.5 -49.5zM267 -70q96 0 135.5 15.5t39.5 48.5q0 31 -30 41t-128 13q-52 1 -85.5 -14.5t-33.5 -46.5q0 -57 102 -57zM297 307q106 0 106 73t-106 73q-104 0 -104 -73q0 -35 27.5 -54t76.5 -19zM226 625v109
q0 88 23 127t103 74l34 -70q-46 -21 -59.5 -36t-13.5 -47h79v-157h-166z" />
    <glyph glyph-name="Hcircumflex" unicode="&#x124;" horiz-adv-x="824" 
d="M238 778l-44 91l185 113h64l187 -113l-45 -91l-174 71zM73 0v741h173v-283h331v283h173v-741h-173v297h-331v-297h-173z" />
    <glyph glyph-name="hcircumflex" unicode="&#x125;" horiz-adv-x="665" 
d="M-26 778l-44 91l185 113h64l187 -113l-45 -91l-174 71zM61 0v776h165v-289q54 93 189 93q102 0 147.5 -58.5t45.5 -169.5v-352h-165v311q0 57 -21.5 85.5t-73.5 28.5q-122 0 -122 -118v-307h-165z" />
    <glyph glyph-name="Hbar" unicode="&#x126;" horiz-adv-x="824" 
d="M0 465v137h73v139h173v-139h331v139h173v-139h74v-137h-74v-465h-173v257h-331v-257h-173v465h-73zM246 418h331v47h-331v-47z" />
    <glyph glyph-name="hbar" unicode="&#x127;" horiz-adv-x="665" 
d="M0 595v126h61v55h165v-55h89v-126h-89v-108q54 93 189 93q102 0 147.5 -58.5t45.5 -169.5v-352h-165v311q0 57 -21.5 85.5t-73.5 28.5q-122 0 -122 -118v-307h-165v595h-61z" />
    <glyph glyph-name="Itilde" unicode="&#x128;" horiz-adv-x="343" 
d="M85 0v741h173v-741h-173zM27 782l-92 76q40 52 84.5 81t85.5 29q36 0 73 -23.5t54 -23.5q40 0 82 56l92 -75q-39 -51 -84.5 -80.5t-85.5 -29.5q-33 0 -70.5 23.5t-56.5 23.5q-42 0 -82 -57z" />
    <glyph glyph-name="itilde" unicode="&#x129;" horiz-adv-x="293" 
d="M64 0v567h165v-567h-165zM2 620l-92 76q40 52 84.5 81t85.5 29q36 0 73 -23.5t54 -23.5q40 0 82 56l92 -75q-39 -51 -84.5 -80.5t-85.5 -29.5q-33 0 -70.5 23.5t-56.5 23.5q-42 0 -82 -57z" />
    <glyph glyph-name="Imacron" unicode="&#x12a;" horiz-adv-x="343" 
d="M85 0v741h173v-741h-173zM-15 787v132h374v-132h-374z" />
    <glyph glyph-name="imacron" unicode="&#x12b;" horiz-adv-x="293" 
d="M64 0v567h165v-567h-165zM-40 625v132h374v-132h-374z" />
    <glyph glyph-name="Ibreve" unicode="&#x12c;" horiz-adv-x="343" 
d="M85 0v741h173v-741h-173zM172 774q-182 0 -218 189l119 22q10 -45 32.5 -64t66.5 -19t66.5 19t31.5 64l122 -22q-39 -189 -220 -189z" />
    <glyph glyph-name="ibreve" unicode="&#x12d;" horiz-adv-x="293" 
d="M64 0v567h165v-567h-165zM147 612q-182 0 -218 189l119 22q10 -45 32.5 -64t66.5 -19t66.5 19t31.5 64l122 -22q-39 -189 -220 -189z" />
    <glyph glyph-name="Iogonek" unicode="&#x12e;" horiz-adv-x="343" 
d="M130 -220q-146 0 -146 113q0 80 101 134v714h173v-741h-105q-54 -46 -54 -87q0 -36 56 -36q44 0 94 20l31 -84q-77 -33 -150 -33z" />
    <glyph glyph-name="iogonek" unicode="&#x12f;" horiz-adv-x="293" 
d="M107 -220q-146 0 -146 113q0 80 103 135v539h165v-567h-99q-54 -46 -54 -87q0 -36 56 -36q44 0 94 20l31 -84q-77 -33 -150 -33zM61 618v140h171v-140h-171z" />
    <glyph glyph-name="Idotaccent" unicode="&#x130;" horiz-adv-x="343" 
d="M85 0v741h173v-741h-173zM88 787v144h168v-144h-168z" />
    <glyph glyph-name="dotlessi" unicode="&#x131;" horiz-adv-x="293" 
d="M64 0v567h165v-567h-165z" />
    <glyph glyph-name="IJ" unicode="&#x132;" horiz-adv-x="773" 
d="M85 0v741h173v-741h-173zM455 -12q-93 0 -152 18l34 146q49 -11 98 -11q54 0 76 24t22 77v499h173v-505q0 -248 -251 -248z" />
    <glyph glyph-name="ij" unicode="&#x133;" horiz-adv-x="566" 
d="M64 0v567h165v-567h-165zM61 618v140h171v-140h-171zM235 -173l10 127q26 -2 43 -2q28 0 38.5 13t10.5 42v560h165v-546q0 -107 -45 -151.5t-155 -44.5q-42 0 -67 2zM334 618v140h171v-140h-171z" />
    <glyph glyph-name="Jcircumflex" unicode="&#x134;" horiz-adv-x="517" 
d="M189 778l-44 91l185 113h64l187 -113l-45 -91l-174 71zM192 -12q-96 0 -181 25l36 146q68 -18 125 -18t80.5 24t23.5 77v499h173v-505q0 -248 -257 -248z" />
    <glyph glyph-name="jcircumflex" unicode="&#x135;" horiz-adv-x="293" 
d="M-38 -173l10 127q26 -2 43 -2q28 0 38.5 13t10.5 42v560h165v-546q0 -107 -45 -151.5t-155 -44.5q-42 0 -67 2zM-26 616l-44 91l185 113h64l187 -113l-45 -91l-174 71z" />
    <glyph glyph-name="Kcommaaccent" unicode="&#x136;" horiz-adv-x="766" 
d="M465 -40v-110q0 -88 -23 -126.5t-103 -74.5l-35 71q47 21 60 36t13 46h-78v158h166zM73 0v741h171v-333l278 333h184l-249 -293l285 -448h-193l-201 315l-104 -120v-195h-171z" />
    <glyph glyph-name="kcommaaccent" unicode="&#x137;" horiz-adv-x="610" 
d="M387 -40v-110q0 -88 -23 -126.5t-103 -74.5l-35 71q47 21 60 36t13 46h-78v158h166zM61 0v776h163v-440l188 231h172l-187 -229l208 -338h-181l-137 214l-63 -75v-139h-163z" />
    <glyph glyph-name="Lacute" unicode="&#x139;" horiz-adv-x="614" 
d="M66 773l-39 104l291 128l46 -129zM73 0v741h173v-591h354v-150h-527z" />
    <glyph glyph-name="lacute" unicode="&#x13a;" horiz-adv-x="293" 
d="M39 786l-39 104l291 128l46 -129zM64 0v776h165v-776h-165z" />
    <glyph glyph-name="Lcommaaccent" unicode="&#x13b;" horiz-adv-x="614" 
d="M389 -40v-110q0 -88 -23 -126.5t-103 -74.5l-35 71q47 21 60 36t13 46h-78v158h166zM73 0v741h173v-591h354v-150h-527z" />
    <glyph glyph-name="lcommaaccent" unicode="&#x13c;" horiz-adv-x="293" 
d="M230 -40v-110q0 -88 -23 -126.5t-103 -74.5l-35 71q47 21 60 36t13 46h-78v158h166zM64 0v776h165v-776h-165z" />
    <glyph glyph-name="Lcaron" unicode="&#x13d;" horiz-adv-x="614" 
d="M529 775v-105q0 -84 -22 -121.5t-99 -71.5l-33 68q44 20 56.5 34.5t12.5 44.5h-74v151h159zM73 0v741h173v-591h354v-150h-527z" />
    <glyph glyph-name="lcaron" unicode="&#x13e;" horiz-adv-x="293" 
d="M418 883v-106q0 -85 -22 -122.5t-99 -71.5l-34 68q45 20 57.5 34.5t12.5 45.5h-75v152h160zM64 0v776h165v-776h-165z" />
    <glyph glyph-name="Ldot" unicode="&#x13f;" horiz-adv-x="614" 
d="M73 0v741h173v-591h354v-150h-527zM381 373v144h168v-144h-168z" />
    <glyph glyph-name="ldot" unicode="&#x140;" horiz-adv-x="403" 
d="M64 0v776h165v-776h-165zM267 288v137h160v-137h-160z" />
    <glyph glyph-name="Lslash" unicode="&#x141;" horiz-adv-x="614" 
d="M3 252v138l70 22v329h173v-277l128 40v-138l-128 -40v-176h354v-150h-527v274z" />
    <glyph glyph-name="lslash" unicode="&#x142;" horiz-adv-x="339" 
d="M87 0v385l-88 -28v140l88 29v250h165v-201l87 28v-141l-87 -28v-434h-165z" />
    <glyph glyph-name="Nacute" unicode="&#x143;" horiz-adv-x="824" 
d="M285 773l-39 104l291 128l46 -129zM73 0v741h189l323 -451v451h165v-741h-159l-353 491v-491h-165z" />
    <glyph glyph-name="nacute" unicode="&#x144;" horiz-adv-x="665" 
d="M206 611l-39 104l291 128l46 -129zM61 0v567h126l25 -95q23 50 77 79t126 29q102 0 147.5 -58.5t45.5 -169.5v-352h-165v311q0 57 -21.5 85.5t-73.5 28.5q-122 0 -122 -118v-307h-165z" />
    <glyph glyph-name="Ncommaaccent" unicode="&#x145;" horiz-adv-x="824" 
d="M494 -40v-110q0 -88 -23 -126.5t-103 -74.5l-35 71q47 21 60 36t13 46h-78v158h166zM73 0v741h189l323 -451v451h165v-741h-159l-353 491v-491h-165z" />
    <glyph glyph-name="ncommaaccent" unicode="&#x146;" horiz-adv-x="665" 
d="M415 -40v-110q0 -88 -23 -126.5t-103 -74.5l-35 71q47 21 60 36t13 46h-78v158h166zM61 0v567h126l25 -95q23 50 77 79t126 29q102 0 147.5 -58.5t45.5 -169.5v-352h-165v311q0 57 -21.5 85.5t-73.5 28.5q-122 0 -122 -118v-307h-165z" />
    <glyph glyph-name="Ncaron" unicode="&#x147;" horiz-adv-x="824" 
d="M379 776l-187 112l45 91l174 -71l174 71l43 -91l-185 -112h-64zM73 0v741h189l323 -451v451h165v-741h-159l-353 491v-491h-165z" />
    <glyph glyph-name="ncaron" unicode="&#x148;" horiz-adv-x="665" 
d="M300 614l-187 112l45 91l174 -71l174 71l43 -91l-185 -112h-64zM61 0v567h126l25 -95q23 50 77 79t126 29q102 0 147.5 -58.5t45.5 -169.5v-352h-165v311q0 57 -21.5 85.5t-73.5 28.5q-122 0 -122 -118v-307h-165z" />
    <glyph glyph-name="Eng" unicode="&#x14a;" horiz-adv-x="824" 
d="M530 -179q-95 0 -179 23l32 124q66 -18 112 -18q71 0 84 65l-341 476v-491h-165v741h189l323 -451v451h165v-695q0 -107 -61.5 -166t-158.5 -59z" />
    <glyph glyph-name="eng" unicode="&#x14b;" horiz-adv-x="665" 
d="M341 -173l9 127q26 -2 43 -2q28 0 39 13t11 42v304q0 57 -21.5 85.5t-73.5 28.5q-122 0 -122 -118v-307h-165v567h126l25 -95q23 50 77 79t126 29q102 0 147.5 -58.5t45.5 -169.5v-331q0 -107 -45 -151.5t-156 -44.5q-42 0 -66 2z" />
    <glyph glyph-name="Omacron" unicode="&#x14c;" horiz-adv-x="839" 
d="M231 787v132h374v-132h-374zM420 -12q-54 0 -107 13t-104 42.5t-90 72.5t-62.5 109t-23.5 146t23.5 145.5t62.5 108.5t90 72.5t104 42.5t107 13t107 -13t104 -42.5t89.5 -72.5t62.5 -108.5t24 -145.5t-24 -146t-62.5 -109t-89.5 -72.5t-104 -42.5t-107 -13zM420 141
q91 0 151 61.5t60 165.5t-60 165t-151 61q-92 0 -152 -61t-60 -165q0 -105 60 -166t152 -61z" />
    <glyph glyph-name="omacron" unicode="&#x14d;" horiz-adv-x="661" 
d="M143 625v132h374v-132h-374zM331 -11q-135 0 -216 80.5t-81 215.5t81 215t216 80t215.5 -80t80.5 -215t-80.5 -215.5t-215.5 -80.5zM331 131q62 0 96 40.5t34 109.5t-33.5 109t-96.5 40t-96.5 -40t-33.5 -109t33.5 -109.5t96.5 -40.5z" />
    <glyph glyph-name="Obreve" unicode="&#x14e;" horiz-adv-x="839" 
d="M420 -12q-54 0 -107 13t-104 42.5t-90 72.5t-62.5 109t-23.5 146t23.5 145.5t62.5 108.5t90 72.5t104 42.5t107 13t107 -13t104 -42.5t89.5 -72.5t62.5 -108.5t24 -145.5t-24 -146t-62.5 -109t-89.5 -72.5t-104 -42.5t-107 -13zM420 141q91 0 151 61.5t60 165.5t-60 165
t-151 61q-92 0 -152 -61t-60 -165q0 -105 60 -166t152 -61zM418 774q-182 0 -218 189l119 22q10 -45 32.5 -64t66.5 -19t66.5 19t31.5 64l122 -22q-39 -189 -220 -189z" />
    <glyph glyph-name="obreve" unicode="&#x14f;" horiz-adv-x="661" 
d="M331 -11q-135 0 -216 80.5t-81 215.5t81 215t216 80t215.5 -80t80.5 -215t-80.5 -215.5t-215.5 -80.5zM331 131q62 0 96 40.5t34 109.5t-33.5 109t-96.5 40t-96.5 -40t-33.5 -109t33.5 -109.5t96.5 -40.5zM330 612q-182 0 -218 189l119 22q10 -45 32.5 -64t66.5 -19
t66.5 19t31.5 64l122 -22q-39 -189 -220 -189z" />
    <glyph glyph-name="Ohungarumlaut" unicode="&#x150;" horiz-adv-x="839" 
d="M299 775l-74 64l137 186l94 -82zM521 775l-73 64l137 186l93 -82zM420 -12q-54 0 -107 13t-104 42.5t-90 72.5t-62.5 109t-23.5 146t23.5 145.5t62.5 108.5t90 72.5t104 42.5t107 13t107 -13t104 -42.5t89.5 -72.5t62.5 -108.5t24 -145.5t-24 -146t-62.5 -109
t-89.5 -72.5t-104 -42.5t-107 -13zM420 141q91 0 151 61.5t60 165.5t-60 165t-151 61q-92 0 -152 -61t-60 -165q0 -105 60 -166t152 -61z" />
    <glyph glyph-name="ohungarumlaut" unicode="&#x151;" horiz-adv-x="661" 
d="M204 613l-74 64l137 186l94 -82zM426 613l-73 64l137 186l93 -82zM331 -11q-135 0 -216 80.5t-81 215.5t81 215t216 80t215.5 -80t80.5 -215t-80.5 -215.5t-215.5 -80.5zM331 131q62 0 96 40.5t34 109.5t-33.5 109t-96.5 40t-96.5 -40t-33.5 -109t33.5 -109.5t96.5 -40.5
z" />
    <glyph glyph-name="OE" unicode="&#x152;" horiz-adv-x="1199" 
d="M402 -12q-67 0 -130 21.5t-118.5 65t-89.5 120.5t-34 176q0 80 23 145.5t60 108.5t86 72.5t100 42.5t103 13q141 0 229 -95v83h512v-156h-366v-142h336v-139h-336v-154h370v-150h-516v83q-89 -95 -229 -95zM409 141q89 0 146 61t57 166q0 104 -57 165t-146 61t-147 -61
t-58 -165q0 -105 58 -166t147 -61z" />
    <glyph glyph-name="oe" unicode="&#x153;" horiz-adv-x="1041" 
d="M331 -11q-135 0 -216 80.5t-81 215.5t81 215t216 80t202 -91q63 91 203 91q60 0 105.5 -16t73 -43t44.5 -67t23.5 -81.5t6.5 -93.5v-50h-376q16 -106 122 -106q99 0 153 65l106 -89q-92 -110 -276 -110q-132 0 -190 85q-67 -85 -197 -85zM331 131q62 0 96 40.5t34 109.5
t-33.5 109t-96.5 40t-96.5 -40t-33.5 -109t33.5 -109.5t96.5 -40.5zM613 338h223v2q0 42 -25 72.5t-72 30.5q-105 0 -126 -105z" />
    <glyph glyph-name="Racute" unicode="&#x154;" horiz-adv-x="742" 
d="M244 773l-39 104l291 128l46 -129zM501 0l-137 250h-122v-250h-169v741h327q134 0 212 -61.5t78 -183.5q0 -174 -155 -226l147 -270h-181zM242 386h152q125 0 125 102q0 59 -33 82.5t-96 23.5h-148v-208z" />
    <glyph glyph-name="racute" unicode="&#x155;" horiz-adv-x="449" 
d="M101 611l-39 104l291 128l46 -129zM62 0v567h126l27 -112q29 50 71 78t109 39l38 -160q-111 -3 -158.5 -36.5t-47.5 -93.5v-282h-165z" />
    <glyph glyph-name="Rcommaaccent" unicode="&#x156;" horiz-adv-x="742" 
d="M453 -40v-110q0 -88 -23 -126.5t-103 -74.5l-35 71q47 21 60 36t13 46h-78v158h166zM501 0l-137 250h-122v-250h-169v741h327q134 0 212 -61.5t78 -183.5q0 -174 -155 -226l147 -270h-181zM242 386h152q125 0 125 102q0 59 -33 82.5t-96 23.5h-148v-208z" />
    <glyph glyph-name="rcommaaccent" unicode="&#x157;" horiz-adv-x="449" 
d="M228 -40v-110q0 -88 -23 -126.5t-103 -74.5l-35 71q47 21 60 36t13 46h-78v158h166zM62 0v567h126l27 -112q29 50 71 78t109 39l38 -160q-111 -3 -158.5 -36.5t-47.5 -93.5v-282h-165z" />
    <glyph glyph-name="Rcaron" unicode="&#x158;" horiz-adv-x="742" 
d="M338 776l-187 112l45 91l174 -71l174 71l43 -91l-185 -112h-64zM501 0l-137 250h-122v-250h-169v741h327q134 0 212 -61.5t78 -183.5q0 -174 -155 -226l147 -270h-181zM242 386h152q125 0 125 102q0 59 -33 82.5t-96 23.5h-148v-208z" />
    <glyph glyph-name="rcaron" unicode="&#x159;" horiz-adv-x="449" 
d="M195 614l-187 112l45 91l174 -71l174 71l43 -91l-185 -112h-64zM62 0v567h126l27 -112q29 50 71 78t109 39l38 -160q-111 -3 -158.5 -36.5t-47.5 -93.5v-282h-165z" />
    <glyph glyph-name="Sacute" unicode="&#x15a;" horiz-adv-x="722" 
d="M236 773l-39 104l291 128l46 -129zM375 -12q-263 0 -365 124l118 107q82 -86 243 -86q146 0 146 78q0 39 -36.5 57.5t-122.5 31.5q-43 6 -73.5 12.5t-68.5 18t-64 28t-49 39t-34.5 56t-11.5 74.5q0 111 85 168t220 57q205 0 312 -94l-107 -118q-34 27 -90.5 44t-113.5 17
q-134 0 -134 -69q0 -39 36.5 -56t130.5 -31q52 -8 88.5 -16t78 -24.5t67 -39.5t42.5 -60.5t17 -86.5q0 -106 -84.5 -168.5t-229.5 -62.5z" />
    <glyph glyph-name="sacute" unicode="&#x15b;" horiz-adv-x="585" 
d="M169 611l-39 104l291 128l46 -129zM294 -10q-89 0 -166 22.5t-122 68.5l95 100q70 -64 202 -64q91 0 91 45q0 27 -25 38t-96 20q-37 4 -62.5 8.5t-59.5 17t-54.5 30.5t-35.5 50.5t-15 75.5q0 86 67.5 132t174.5 46q169 0 255 -63l-81 -116q-70 43 -168 43q-88 0 -88 -42
q0 -26 23 -36t88 -18q28 -3 39.5 -5t38.5 -6.5t40.5 -10t36 -14.5t34 -21t24 -28t18 -38t5.5 -49q0 -94 -68 -140t-191 -46z" />
    <glyph glyph-name="Scircumflex" unicode="&#x15c;" horiz-adv-x="722" 
d="M189 778l-44 91l185 113h64l187 -113l-45 -91l-174 71zM375 -12q-263 0 -365 124l118 107q82 -86 243 -86q146 0 146 78q0 39 -36.5 57.5t-122.5 31.5q-43 6 -73.5 12.5t-68.5 18t-64 28t-49 39t-34.5 56t-11.5 74.5q0 111 85 168t220 57q205 0 312 -94l-107 -118
q-34 27 -90.5 44t-113.5 17q-134 0 -134 -69q0 -39 36.5 -56t130.5 -31q52 -8 88.5 -16t78 -24.5t67 -39.5t42.5 -60.5t17 -86.5q0 -106 -84.5 -168.5t-229.5 -62.5z" />
    <glyph glyph-name="scircumflex" unicode="&#x15d;" horiz-adv-x="585" 
d="M122 616l-44 91l185 113h64l187 -113l-45 -91l-174 71zM294 -10q-89 0 -166 22.5t-122 68.5l95 100q70 -64 202 -64q91 0 91 45q0 27 -25 38t-96 20q-37 4 -62.5 8.5t-59.5 17t-54.5 30.5t-35.5 50.5t-15 75.5q0 86 67.5 132t174.5 46q169 0 255 -63l-81 -116
q-70 43 -168 43q-88 0 -88 -42q0 -26 23 -36t88 -18q28 -3 39.5 -5t38.5 -6.5t40.5 -10t36 -14.5t34 -21t24 -28t18 -38t5.5 -49q0 -94 -68 -140t-191 -46z" />
    <glyph glyph-name="Scedilla" unicode="&#x15e;" horiz-adv-x="722" 
d="M354 -242q-80 0 -135 31l43 78q46 -21 88 -21q60 0 60 37q0 39 -85 32l-35 20l12 56q-205 15 -292 121l118 107q82 -86 243 -86q146 0 146 78q0 39 -36.5 57.5t-122.5 31.5q-43 6 -73.5 12.5t-68.5 18t-64 28t-49 39t-34.5 56t-11.5 74.5q0 111 85 168t220 57
q205 0 312 -94l-107 -118q-34 27 -90.5 44t-113.5 17q-134 0 -134 -69q0 -39 36.5 -56t130.5 -31q52 -8 88.5 -16t78 -24.5t67 -39.5t42.5 -60.5t17 -86.5q0 -102 -78.5 -164t-214.5 -66l-5 -33q49 16 89.5 -5.5t40.5 -78.5q0 -55 -46.5 -84.5t-120.5 -29.5z" />
    <glyph glyph-name="scedilla" unicode="&#x15f;" horiz-adv-x="585" 
d="M287 -242q-80 0 -135 31l43 78q47 -21 88 -21q60 0 60 37q0 39 -85 32l-35 20l13 58q-157 12 -230 88l95 100q70 -64 202 -64q91 0 91 45q0 27 -25 38t-96 20q-37 4 -62.5 8.5t-59.5 17t-54.5 30.5t-35.5 50.5t-15 75.5q0 86 67.5 132t174.5 46q169 0 255 -63l-81 -116
q-70 43 -168 43q-88 0 -88 -42q0 -26 23 -36t88 -18q28 -3 39.5 -5t38.5 -6.5t40.5 -10t36 -14.5t34 -21t24 -28t18 -38t5.5 -49q0 -87 -58 -133t-165 -52l-6 -35q49 16 89.5 -5.5t40.5 -78.5q0 -55 -46.5 -84.5t-120.5 -29.5z" />
    <glyph glyph-name="Scaron" unicode="&#x160;" horiz-adv-x="722" 
d="M330 776l-187 112l45 91l174 -71l174 71l43 -91l-185 -112h-64zM375 -12q-263 0 -365 124l118 107q82 -86 243 -86q146 0 146 78q0 39 -36.5 57.5t-122.5 31.5q-43 6 -73.5 12.5t-68.5 18t-64 28t-49 39t-34.5 56t-11.5 74.5q0 111 85 168t220 57q205 0 312 -94
l-107 -118q-34 27 -90.5 44t-113.5 17q-134 0 -134 -69q0 -39 36.5 -56t130.5 -31q52 -8 88.5 -16t78 -24.5t67 -39.5t42.5 -60.5t17 -86.5q0 -106 -84.5 -168.5t-229.5 -62.5z" />
    <glyph glyph-name="scaron" unicode="&#x161;" horiz-adv-x="585" 
d="M263 614l-187 112l45 91l174 -71l174 71l43 -91l-185 -112h-64zM294 -10q-89 0 -166 22.5t-122 68.5l95 100q70 -64 202 -64q91 0 91 45q0 27 -25 38t-96 20q-37 4 -62.5 8.5t-59.5 17t-54.5 30.5t-35.5 50.5t-15 75.5q0 86 67.5 132t174.5 46q169 0 255 -63l-81 -116
q-70 43 -168 43q-88 0 -88 -42q0 -26 23 -36t88 -18q28 -3 39.5 -5t38.5 -6.5t40.5 -10t36 -14.5t34 -21t24 -28t18 -38t5.5 -49q0 -94 -68 -140t-191 -46z" />
    <glyph glyph-name="Tcommaaccent" unicode="&#x162;" horiz-adv-x="693" 
d="M428 -40v-110q0 -88 -23 -126.5t-103 -74.5l-35 71q47 21 60 36t13 46h-78v158h166zM259 0v585h-246v156h667v-156h-247v-585h-174z" />
    <glyph glyph-name="Tcommaaccent" unicode="&#x21a;" horiz-adv-x="693" 
d="M428 -40v-110q0 -88 -23 -126.5t-103 -74.5l-35 71q47 21 60 36t13 46h-78v158h166zM259 0v585h-246v156h667v-156h-247v-585h-174z" />
    <glyph glyph-name="tcommaaccent" unicode="&#x163;" horiz-adv-x="504" 
d="M288 -40v-110q0 -88 -23 -126.5t-103 -74.5l-35 71q47 21 60 36t13 46h-78v158h166zM274 -10q-89 0 -126 46.5t-37 134.5v255h-110v141h110l27 164h137v-164h178v-141h-178v-213q0 -44 10.5 -58.5t45.5 -14.5q49 0 108 19l42 -130q-83 -39 -207 -39z" />
    <glyph glyph-name="tcommaaccent" unicode="&#x21b;" horiz-adv-x="504" 
d="M288 -40v-110q0 -88 -23 -126.5t-103 -74.5l-35 71q47 21 60 36t13 46h-78v158h166zM274 -10q-89 0 -126 46.5t-37 134.5v255h-110v141h110l27 164h137v-164h178v-141h-178v-213q0 -44 10.5 -58.5t45.5 -14.5q49 0 108 19l42 -130q-83 -39 -207 -39z" />
    <glyph glyph-name="Tcaron" unicode="&#x164;" horiz-adv-x="693" 
d="M313 776l-187 112l45 91l174 -71l174 71l43 -91l-185 -112h-64zM259 0v585h-246v156h667v-156h-247v-585h-174z" />
    <glyph glyph-name="tcaron" unicode="&#x165;" horiz-adv-x="504" 
d="M487 894v-106q0 -85 -22 -122.5t-99 -71.5l-34 68q45 20 57.5 34.5t12.5 45.5h-75v152h160zM274 -10q-89 0 -126 46.5t-37 134.5v255h-110v141h110l27 164h137v-164h178v-141h-178v-213q0 -44 10.5 -58.5t45.5 -14.5q49 0 108 19l42 -130q-83 -39 -207 -39z" />
    <glyph glyph-name="Tbar" unicode="&#x166;" horiz-adv-x="693" 
d="M126 305v137h133v143h-246v156h667v-156h-247v-143h134v-137h-134v-305h-174v305h-133z" />
    <glyph glyph-name="tbar" unicode="&#x167;" horiz-adv-x="504" 
d="M1 239v125h110v62h-110v141h110l27 164h137v-164h178v-141h-178v-62h177v-125h-177v-26q0 -44 10.5 -58.5t45.5 -14.5q49 0 108 19l42 -130q-83 -39 -207 -39q-89 0 -126 46.5t-37 134.5v68h-110z" />
    <glyph glyph-name="Utilde" unicode="&#x168;" horiz-adv-x="814" 
d="M579 741h168v-456q0 -56 -17.5 -106t-55 -95t-106.5 -71.5t-161 -26.5t-160.5 26.5t-106 71.5t-55 95t-17.5 106v456h173v-436q0 -166 169 -166t169 166v436zM261 782l-92 76q40 52 84.5 81t85.5 29q36 0 73 -23.5t54 -23.5q40 0 82 56l92 -75q-39 -51 -84.5 -80.5
t-85.5 -29.5q-33 0 -70.5 23.5t-56.5 23.5q-42 0 -82 -57z" />
    <glyph glyph-name="utilde" unicode="&#x169;" horiz-adv-x="663" 
d="M250 -9q-106 0 -149 57.5t-43 170.5v348h165v-319q0 -58 21 -86.5t73 -28.5q119 0 119 119v315h166v-567h-126l-25 96q-23 -50 -77.5 -77.5t-123.5 -27.5zM186 620l-92 76q40 52 84.5 81t85.5 29q36 0 73 -23.5t54 -23.5q40 0 82 56l92 -75q-39 -51 -84.5 -80.5
t-85.5 -29.5q-33 0 -70.5 23.5t-56.5 23.5q-42 0 -82 -57z" />
    <glyph glyph-name="Umacron" unicode="&#x16a;" horiz-adv-x="814" 
d="M579 741h168v-456q0 -56 -17.5 -106t-55 -95t-106.5 -71.5t-161 -26.5t-160.5 26.5t-106 71.5t-55 95t-17.5 106v456h173v-436q0 -166 169 -166t169 166v436zM219 787v132h374v-132h-374z" />
    <glyph glyph-name="umacron" unicode="&#x16b;" horiz-adv-x="663" 
d="M250 -9q-106 0 -149 57.5t-43 170.5v348h165v-319q0 -58 21 -86.5t73 -28.5q119 0 119 119v315h166v-567h-126l-25 96q-23 -50 -77.5 -77.5t-123.5 -27.5zM144 625v132h374v-132h-374z" />
    <glyph glyph-name="Ubreve" unicode="&#x16c;" horiz-adv-x="814" 
d="M579 741h168v-456q0 -56 -17.5 -106t-55 -95t-106.5 -71.5t-161 -26.5t-160.5 26.5t-106 71.5t-55 95t-17.5 106v456h173v-436q0 -166 169 -166t169 166v436zM406 774q-182 0 -218 189l119 22q10 -45 32.5 -64t66.5 -19t66.5 19t31.5 64l122 -22q-39 -189 -220 -189z" />
    <glyph glyph-name="ubreve" unicode="&#x16d;" horiz-adv-x="663" 
d="M250 -9q-106 0 -149 57.5t-43 170.5v348h165v-319q0 -58 21 -86.5t73 -28.5q119 0 119 119v315h166v-567h-126l-25 96q-23 -50 -77.5 -77.5t-123.5 -27.5zM331 612q-182 0 -218 189l119 22q10 -45 32.5 -64t66.5 -19t66.5 19t31.5 64l122 -22q-39 -189 -220 -189z" />
    <glyph glyph-name="Uring" unicode="&#x16e;" horiz-adv-x="814" 
d="M406 773q-62 0 -105 43t-43 107t43 107.5t105 43.5q60 0 103.5 -44t43.5 -107t-43 -106.5t-104 -43.5zM406 857q27 0 44.5 19t17.5 47t-17.5 47.5t-44.5 19.5t-45 -19.5t-18 -47.5t18 -47t45 -19zM579 741h168v-456q0 -56 -17.5 -106t-55 -95t-106.5 -71.5t-161 -26.5
t-160.5 26.5t-106 71.5t-55 95t-17.5 106v456h173v-436q0 -166 169 -166t169 166v436z" />
    <glyph glyph-name="uring" unicode="&#x16f;" horiz-adv-x="663" 
d="M331 611q-62 0 -105 43t-43 107t43 107.5t105 43.5q60 0 103.5 -44t43.5 -107t-43 -106.5t-104 -43.5zM331 695q27 0 44.5 19t17.5 47t-17.5 47.5t-44.5 19.5t-45 -19.5t-18 -47.5t18 -47t45 -19zM250 -9q-106 0 -149 57.5t-43 170.5v348h165v-319q0 -58 21 -86.5
t73 -28.5q119 0 119 119v315h166v-567h-126l-25 96q-23 -50 -77.5 -77.5t-123.5 -27.5z" />
    <glyph glyph-name="Uhungarumlaut" unicode="&#x170;" horiz-adv-x="814" 
d="M579 741h168v-456q0 -56 -17.5 -106t-55 -95t-106.5 -71.5t-161 -26.5t-160.5 26.5t-106 71.5t-55 95t-17.5 106v456h173v-436q0 -166 169 -166t169 166v436zM280 775l-74 64l137 186l94 -82zM502 775l-73 64l137 186l93 -82z" />
    <glyph glyph-name="uhungarumlaut" unicode="&#x171;" horiz-adv-x="663" 
d="M250 -9q-106 0 -149 57.5t-43 170.5v348h165v-319q0 -58 21 -86.5t73 -28.5q119 0 119 119v315h166v-567h-126l-25 96q-23 -50 -77.5 -77.5t-123.5 -27.5zM192 613l-74 64l137 186l94 -82zM414 613l-73 64l137 186l93 -82z" />
    <glyph glyph-name="Uogonek" unicode="&#x172;" horiz-adv-x="814" 
d="M579 741h168v-456q0 -54 -16.5 -103t-52 -93t-100 -71.5t-150.5 -30.5q-39 -39 -39 -74q0 -36 56 -36q44 0 94 20l31 -84q-77 -33 -150 -33q-146 0 -146 113q0 55 50 99q-69 11 -120.5 40.5t-80 71.5t-42 87t-13.5 94v456h173v-436q0 -166 169 -166t169 166v436z" />
    <glyph glyph-name="uogonek" unicode="&#x173;" horiz-adv-x="663" 
d="M250 -9q-106 0 -149 57.5t-43 170.5v348h165v-319q0 -58 21 -86.5t73 -28.5q119 0 119 119v315h166v-567h-73q-53 -43 -53 -86q0 -37 55 -37q41 0 94 21l30 -85q-76 -32 -149 -32q-145 0 -145 114q0 83 106 138l-16 63q-23 -50 -77.5 -77.5t-123.5 -27.5z" />
    <glyph glyph-name="Wcircumflex" unicode="&#x174;" horiz-adv-x="1075" 
d="M370 778l-44 91l185 113h64l187 -113l-45 -91l-174 71zM246 -5l-226 746h175l137 -473l140 473h148l139 -474l138 474h158l-225 -746h-149l-143 479l-143 -479h-149z" />
    <glyph glyph-name="wcircumflex" unicode="&#x175;" horiz-adv-x="917" 
d="M284 616l-44 91l185 113h64l187 -113l-45 -91l-174 71zM198 -6l-185 573h170l101 -345l104 345h155l105 -345l100 345h156l-185 -573h-151l-109 351l-110 -351h-151z" />
    <glyph glyph-name="Ycircumflex" unicode="&#x176;" horiz-adv-x="760" 
d="M294 0v270l-285 471h182l192 -323l194 323h175l-286 -473v-268h-172zM206 778l-44 91l185 113h64l187 -113l-45 -91l-174 71z" />
    <glyph glyph-name="ycircumflex" unicode="&#x177;" horiz-adv-x="594" 
d="M168 -176q-93 0 -165 22l42 131q63 -16 101 -16q55 0 75 38l-218 568h174l130 -361l130 361h155l-232 -606q-29 -74 -71.5 -105.5t-120.5 -31.5zM130 616l-44 91l185 113h64l187 -113l-45 -91l-174 71z" />
    <glyph glyph-name="Ydieresis" unicode="&#x178;" horiz-adv-x="760" 
d="M294 0v270l-285 471h182l192 -323l194 323h175l-286 -473v-268h-172zM192 787v141h151v-141h-151zM416 787v141h150v-141h-150z" />
    <glyph glyph-name="Zacute" unicode="&#x179;" horiz-adv-x="688" 
d="M217 773l-39 104l291 128l46 -129zM31 0v129l391 456h-374v156h595v-138l-389 -453h400v-150h-623z" />
    <glyph glyph-name="zacute" unicode="&#x17a;" horiz-adv-x="541" 
d="M145 611l-39 104l291 128l46 -129zM19 0v112l279 314h-263v141h479v-111l-282 -322h293v-134h-506z" />
    <glyph glyph-name="Zdotaccent" unicode="&#x17b;" horiz-adv-x="688" 
d="M31 0v129l391 456h-374v156h595v-138l-389 -453h400v-150h-623zM259 787v144h168v-144h-168z" />
    <glyph glyph-name="zdotaccent" unicode="&#x17c;" horiz-adv-x="541" 
d="M19 0v112l279 314h-263v141h479v-111l-282 -322h293v-134h-506zM187 625v144h168v-144h-168z" />
    <glyph glyph-name="Zcaron" unicode="&#x17d;" horiz-adv-x="688" 
d="M311 776l-187 112l45 91l174 -71l174 71l43 -91l-185 -112h-64zM31 0v129l391 456h-374v156h595v-138l-389 -453h400v-150h-623z" />
    <glyph glyph-name="zcaron" unicode="&#x17e;" horiz-adv-x="541" 
d="M239 614l-187 112l45 91l174 -71l174 71l43 -91l-185 -112h-64zM19 0v112l279 314h-263v141h479v-111l-282 -322h293v-134h-506z" />
    <glyph glyph-name="florin" unicode="&#x192;" horiz-adv-x="550" 
d="M171 -165v474h-109v136h109v85q0 93 57 145t161 52q78 0 128 -11l-23 -136q-45 8 -88 8q-70 0 -70 -66v-77h152v-136h-152v-474h-165z" />
    <glyph glyph-name="Scommaaccent" unicode="&#x218;" horiz-adv-x="722" 
d="M442 -40v-110q0 -88 -23 -126.5t-103 -74.5l-35 71q47 21 60 36t13 46h-78v158h166zM375 -12q-263 0 -365 124l118 107q82 -86 243 -86q146 0 146 78q0 39 -36.5 57.5t-122.5 31.5q-43 6 -73.5 12.5t-68.5 18t-64 28t-49 39t-34.5 56t-11.5 74.5q0 111 85 168t220 57
q205 0 312 -94l-107 -118q-34 27 -90.5 44t-113.5 17q-134 0 -134 -69q0 -39 36.5 -56t130.5 -31q52 -8 88.5 -16t78 -24.5t67 -39.5t42.5 -60.5t17 -86.5q0 -106 -84.5 -168.5t-229.5 -62.5z" />
    <glyph glyph-name="scommaaccent" unicode="&#x219;" horiz-adv-x="585" 
d="M375 -40v-110q0 -88 -23 -126.5t-103 -74.5l-35 71q47 21 60 36t13 46h-78v158h166zM294 -10q-89 0 -166 22.5t-122 68.5l95 100q70 -64 202 -64q91 0 91 45q0 27 -25 38t-96 20q-37 4 -62.5 8.5t-59.5 17t-54.5 30.5t-35.5 50.5t-15 75.5q0 86 67.5 132t174.5 46
q169 0 255 -63l-81 -116q-70 43 -168 43q-88 0 -88 -42q0 -26 23 -36t88 -18q28 -3 39.5 -5t38.5 -6.5t40.5 -10t36 -14.5t34 -21t24 -28t18 -38t5.5 -49q0 -94 -68 -140t-191 -46z" />
    <glyph glyph-name="schwa" unicode="&#x259;" horiz-adv-x="617" 
d="M296 -11q-74 0 -125.5 23.5t-78 67.5t-37.5 94t-11 116v50h376q-18 106 -122 106q-98 0 -154 -65l-105 89q92 110 276 110q135 0 202.5 -83t67.5 -213q0 -126 -74.5 -210.5t-214.5 -84.5zM294 126q104 0 125 105h-223v-2q0 -42 25.5 -72.5t72.5 -30.5z" />
    <glyph glyph-name="circumflex" unicode="&#x2c6;" horiz-adv-x="590" 
d="M122 616l-44 91l185 113h64l187 -113l-45 -91l-174 71z" />
    <glyph glyph-name="caron" unicode="&#x2c7;" horiz-adv-x="590" 
d="M263 614l-187 112l45 91l174 -71l174 71l43 -91l-185 -112h-64z" />
    <glyph glyph-name="breve" unicode="&#x2d8;" horiz-adv-x="590" 
d="M295 612q-182 0 -218 189l119 22q10 -45 32.5 -64t66.5 -19t66.5 19t31.5 64l122 -22q-39 -189 -220 -189z" />
    <glyph glyph-name="dotaccent" unicode="&#x2d9;" horiz-adv-x="590" 
d="M211 625v144h168v-144h-168z" />
    <glyph glyph-name="ring" unicode="&#x2da;" horiz-adv-x="590" 
d="M295 611q-62 0 -105 43t-43 107t43 107.5t105 43.5q60 0 103.5 -44t43.5 -107t-43 -106.5t-104 -43.5zM295 695q27 0 44.5 19t17.5 47t-17.5 47.5t-44.5 19.5t-45 -19.5t-18 -47.5t18 -47t45 -19z" />
    <glyph glyph-name="ogonek" unicode="&#x2db;" horiz-adv-x="590" 
d="M309 -246q-146 0 -146 113q0 49 36 85t77 55h98q-96 -69 -96 -120q0 -36 56 -36q44 0 94 20l31 -84q-77 -33 -150 -33z" />
    <glyph glyph-name="tilde" unicode="&#x2dc;" horiz-adv-x="590" 
d="M150 620l-92 76q40 52 84.5 81t85.5 29q36 0 73 -23.5t54 -23.5q40 0 82 56l92 -75q-39 -51 -84.5 -80.5t-85.5 -29.5q-33 0 -70.5 23.5t-56.5 23.5q-42 0 -82 -57z" />
    <glyph glyph-name="hungarumlaut" unicode="&#x2dd;" horiz-adv-x="590" 
d="M156 613l-74 64l137 186l94 -82zM378 613l-73 64l137 186l93 -82z" />
    <glyph glyph-name="commaaccent" unicode="&#x326;" horiz-adv-x="590" 
d="M378 -40v-110q0 -88 -23 -126.5t-103 -74.5l-35 71q47 21 60 36t13 46h-78v158h166z" />
    <glyph glyph-name="Delta" unicode="&#x394;" horiz-adv-x="787" 
d="M18 0l292 746h168l292 -746h-752zM235 127h313l-156 414z" />
    <glyph glyph-name="Delta" unicode="&#x2206;" horiz-adv-x="787" 
d="M18 0l292 746h168l292 -746h-752zM235 127h313l-156 414z" />
    <glyph glyph-name="Omega" unicode="&#x3a9;" horiz-adv-x="859" 
d="M44 0v150h178v27q-78 29 -126.5 95t-48.5 163q0 82 35 146t92 100t122 54t134 18q68 0 133 -18t122.5 -54t92.5 -100t35 -146q0 -97 -49 -163.5t-127 -94.5v-27h180v-150h-312v224q133 44 133 183q0 92 -57.5 139.5t-150.5 47.5q-94 0 -150.5 -47.5t-56.5 -139.5
q0 -138 132 -183v-224h-311z" />
    <glyph glyph-name="Omega" unicode="&#x2126;" horiz-adv-x="859" 
d="M44 0v150h178v27q-78 29 -126.5 95t-48.5 163q0 82 35 146t92 100t122 54t134 18q68 0 133 -18t122.5 -54t92.5 -100t35 -146q0 -97 -49 -163.5t-127 -94.5v-27h180v-150h-312v224q133 44 133 183q0 92 -57.5 139.5t-150.5 47.5q-94 0 -150.5 -47.5t-56.5 -139.5
q0 -138 132 -183v-224h-311z" />
    <glyph glyph-name="pi" unicode="&#x3c0;" horiz-adv-x="792" 
d="M124 0v426h-114v141h773v-141h-115v-426h-165v426h-214v-426h-165z" />
    <glyph glyph-name="Wgrave" unicode="&#x1e80;" horiz-adv-x="1075" 
d="M246 -5l-226 746h175l137 -473l140 473h148l139 -474l138 474h158l-225 -746h-149l-143 479l-143 -479h-149zM662 774l-298 103l46 129l291 -127z" />
    <glyph glyph-name="wgrave" unicode="&#x1e81;" horiz-adv-x="917" 
d="M198 -6l-185 573h170l101 -345l104 345h155l105 -345l100 345h156l-185 -573h-151l-109 351l-110 -351h-151zM583 612l-298 103l46 129l291 -127z" />
    <glyph glyph-name="Wacute" unicode="&#x1e82;" horiz-adv-x="1075" 
d="M417 773l-39 104l291 128l46 -129zM246 -5l-226 746h175l137 -473l140 473h148l139 -474l138 474h158l-225 -746h-149l-143 479l-143 -479h-149z" />
    <glyph glyph-name="wacute" unicode="&#x1e83;" horiz-adv-x="917" 
d="M331 611l-39 104l291 128l46 -129zM198 -6l-185 573h170l101 -345l104 345h155l105 -345l100 345h156l-185 -573h-151l-109 351l-110 -351h-151z" />
    <glyph glyph-name="Wdieresis" unicode="&#x1e84;" horiz-adv-x="1075" 
d="M356 787v141h151v-141h-151zM580 787v141h150v-141h-150zM246 -5l-226 746h175l137 -473l140 473h148l139 -474l138 474h158l-225 -746h-149l-143 479l-143 -479h-149z" />
    <glyph glyph-name="wdieresis" unicode="&#x1e85;" horiz-adv-x="917" 
d="M270 625v141h151v-141h-151zM494 625v141h150v-141h-150zM198 -6l-185 573h170l101 -345l104 345h155l105 -345l100 345h156l-185 -573h-151l-109 351l-110 -351h-151z" />
    <glyph glyph-name="Ygrave" unicode="&#x1ef2;" horiz-adv-x="760" 
d="M294 0v270l-285 471h182l192 -323l194 323h175l-286 -473v-268h-172zM505 774l-298 103l46 129l291 -127z" />
    <glyph glyph-name="ygrave" unicode="&#x1ef3;" horiz-adv-x="594" 
d="M168 -176q-93 0 -165 22l42 131q63 -16 101 -16q55 0 75 38l-218 568h174l130 -361l130 361h155l-232 -606q-29 -74 -71.5 -105.5t-120.5 -31.5zM422 612l-298 103l46 129l291 -127z" />
    <glyph glyph-name="space.en" unicode="&#x2002;" horiz-adv-x="500" 
 />
    <glyph glyph-name="space.em" unicode="&#x2003;" horiz-adv-x="1000" 
 />
    <glyph glyph-name="space.tab_en" unicode="&#x2007;" 
 />
    <glyph glyph-name="space.thin" unicode="&#x2009;" horiz-adv-x="200" 
 />
    <glyph glyph-name="endash.tab" unicode="&#x2012;" 
d="M33 257v147h604v-147h-604z" />
    <glyph glyph-name="endash" unicode="&#x2013;" horiz-adv-x="739" 
d="M37 257v147h664v-147h-664z" />
    <glyph glyph-name="emdash" unicode="&#x2014;" horiz-adv-x="954" 
d="M37 257v147h880v-147h-880z" />
    <glyph glyph-name="emdash.salt_em" unicode="&#x2015;" horiz-adv-x="1000" 
d="M0 257v147h1000v-147h-1000z" />
    <glyph glyph-name="quoteleft" unicode="&#x2018;" horiz-adv-x="299" 
d="M54 381v132q0 101 26 144.5t119 84.5l40 -81q-54 -25 -68.5 -41.5t-14.5 -51.5h89v-187h-191z" />
    <glyph glyph-name="quoteright" unicode="&#x2019;" horiz-adv-x="299" 
d="M100 380l-40 81q54 25 69 41.5t15 51.5h-90v187h191v-132q0 -101 -26 -145t-119 -84z" />
    <glyph glyph-name="quotesinglbase" unicode="&#x201a;" horiz-adv-x="299" 
d="M100 -174l-40 81q53 24 68.5 41t15.5 52h-90v187h191v-132q0 -101 -26 -145t-119 -84z" />
    <glyph glyph-name="quotedblleft" unicode="&#x201c;" horiz-adv-x="544" 
d="M54 389v129q0 98 25.5 141.5t116.5 81.5l38 -79q-52 -24 -66.5 -40.5t-14.5 -50.5h88v-182h-187zM304 389v129q0 98 25.5 141.5t115.5 81.5l39 -79q-53 -24 -67.5 -40.5t-14.5 -50.5h88v-182h-186z" />
    <glyph glyph-name="quotedblright" unicode="&#x201d;" horiz-adv-x="544" 
d="M99 389l-39 78q53 26 67.5 42t14.5 50h-88v182h187v-128q0 -98 -25.5 -141.5t-116.5 -82.5zM349 389l-39 78q53 26 67.5 42t14.5 50h-88v182h186v-128q0 -98 -25.5 -141.5t-115.5 -82.5z" />
    <glyph glyph-name="quotedblbase" unicode="&#x201e;" horiz-adv-x="544" 
d="M99 -170l-39 78q53 25 67.5 41.5t14.5 50.5h-88v183h187v-130q0 -92 -26.5 -138.5t-115.5 -84.5zM349 -170l-39 78q53 25 67.5 41.5t14.5 50.5h-88v183h186v-130q0 -92 -26.5 -138t-114.5 -85z" />
    <glyph glyph-name="dagger" unicode="&#x2020;" horiz-adv-x="604" 
d="M220 -166v567h-174v149h174v226h163v-226h175v-149h-175v-567h-163z" />
    <glyph glyph-name="daggerdbl" unicode="&#x2021;" horiz-adv-x="604" 
d="M220 -166v226h-174v149h174v192h-174v149h174v226h164v-226h174v-149h-174v-192h174v-149h-174v-226h-164z" />
    <glyph glyph-name="bullet" unicode="&#x2022;" horiz-adv-x="394" 
d="M88 187v235h218v-235h-218z" />
    <glyph glyph-name="ellipsis" unicode="&#x2026;" horiz-adv-x="864" 
d="M54 0v187h191v-187h-191zM336 0v187h191v-187h-191zM618 0v187h192v-187h-192z" />
    <glyph glyph-name="perthousand" unicode="&#x2030;" horiz-adv-x="1766" 
d="M266 234q-100 0 -170.5 65.5t-70.5 181.5q0 114 71 180t170 66q98 0 168.5 -66t70.5 -180q0 -115 -70.5 -181t-168.5 -66zM266 359q40 0 65.5 32t25.5 90q0 56 -25.5 86.5t-65.5 30.5t-66.5 -30.5t-26.5 -86.5q0 -58 26 -90t67 -32zM340 0l415 716h153l-415 -716h-153z
M985 -10q-100 0 -170.5 66t-70.5 182q0 114 71 180t170 66q98 0 168.5 -66t70.5 -180q0 -116 -70.5 -182t-168.5 -66zM985 116q40 0 65.5 31.5t25.5 90.5q0 55 -26 85.5t-65 30.5q-41 0 -67 -30t-26 -86q0 -59 26 -90.5t67 -31.5zM1502 -10q-99 0 -170 66t-71 182
q0 114 71 180t170 66t169.5 -66t70.5 -180q0 -116 -70.5 -182t-169.5 -66zM1502 116q41 0 66.5 31.5t25.5 90.5q0 56 -25.5 86t-66.5 30q-40 0 -66 -30t-26 -86q0 -58 26 -90t66 -32z" />
    <glyph glyph-name="prime" unicode="&#x2032;" horiz-adv-x="343" 
d="M76 366l49 350h173l-71 -350h-151z" />
    <glyph glyph-name="primedbl" unicode="&#x2033;" horiz-adv-x="584" 
d="M76 366l49 350h166l-71 -350h-144zM325 366l48 350h167l-72 -350h-143z" />
    <glyph glyph-name="guilsinglleft" unicode="&#x2039;" horiz-adv-x="496" 
d="M233 0l-151 283l151 284h151l-135 -284l135 -283h-151z" />
    <glyph glyph-name="guilsinglright" unicode="&#x203a;" horiz-adv-x="496" 
d="M414 283l-151 -283h-151l135 283l-135 284h151z" />
    <glyph glyph-name="fraction" unicode="&#x2044;" horiz-adv-x="562" 
d="M1 0l415 716h145l-415 -716h-145z" />
    <glyph glyph-name="fraction" unicode="&#x2215;" horiz-adv-x="562" 
d="M1 0l415 716h145l-415 -716h-145z" />
    <glyph glyph-name="zero.sups" unicode="&#x2070;" horiz-adv-x="592" 
d="M297 259q-103 0 -165 67.5t-62 191.5t62 191t165 67q101 0 163.5 -67.5t62.5 -190.5q0 -124 -62.5 -191.5t-163.5 -67.5zM297 373q92 0 92 145q0 140 -92 140q-93 0 -93 -140q0 -145 93 -145z" />
    <glyph glyph-name="four.sups" unicode="&#x2074;" horiz-adv-x="549" 
d="M306 267v88h-259v95l225 318h139l-221 -310h118l27 95h91v-95h76v-103h-76v-88h-120z" />
    <glyph glyph-name="five.sups" unicode="&#x2075;" horiz-adv-x="547" 
d="M274 259q-166 0 -222 116l108 47q28 -58 107 -58q92 0 92 75q0 35 -23.5 53t-57.5 18q-45 0 -93 -16l-106 33l25 241h344v-110h-244l-10 -88q41 32 126 32q77 0 122.5 -42.5t45.5 -119.5q0 -93 -59.5 -137t-154.5 -44z" />
    <glyph glyph-name="six.sups" unicode="&#x2076;" horiz-adv-x="565" 
d="M294 259q-107 0 -167.5 64t-60.5 176q0 137 72 207t211 70q47 0 91 -9l-21 -108q-39 8 -74 8q-143 0 -149 -121q18 28 55.5 46t86.5 18q78 0 123.5 -45t45.5 -123q0 -86 -58 -134.5t-155 -48.5zM297 366q37 0 58.5 20t21.5 54q0 76 -78 76q-41 0 -69 -18.5t-28 -55.5
q0 -33 24.5 -54.5t70.5 -21.5z" />
    <glyph glyph-name="seven.sups" unicode="&#x2077;" horiz-adv-x="505" 
d="M153 267q8 275 169 391h-258v110h393v-80q-72 -56 -120.5 -161.5t-51.5 -259.5h-132z" />
    <glyph glyph-name="eight.sups" unicode="&#x2078;" horiz-adv-x="555" 
d="M277 254q-109 0 -164 47t-55 113q0 97 96 129q-72 31 -72 105q0 55 48.5 93t146.5 38q99 0 147 -38.5t48 -92.5q0 -33 -18 -62t-55 -43q98 -33 98 -129q0 -66 -55 -113t-165 -47zM277 352q43 0 65.5 20.5t22.5 52.5q0 33 -22.5 53.5t-65.5 20.5q-42 0 -64.5 -21
t-22.5 -53t22.5 -52.5t64.5 -20.5zM277 573q31 0 49.5 16t18.5 40q0 23 -18.5 37t-49.5 14q-32 0 -49.5 -13.5t-17.5 -37.5q0 -25 18 -40.5t49 -15.5z" />
    <glyph glyph-name="nine.sups" unicode="&#x2079;" horiz-adv-x="564" 
d="M125 268l21 105q50 -8 75 -8q82 0 114 30.5t34 90.5q-19 -28 -55.5 -46t-85.5 -18q-78 0 -124 46.5t-46 124.5q0 86 58 134.5t155 48.5q107 0 167 -63t60 -177q0 -138 -71.5 -207.5t-210.5 -69.5q-39 0 -91 9zM266 516q42 0 69.5 18t27.5 54q0 33 -24.5 54.5t-71.5 21.5
q-37 0 -58.5 -19.5t-21.5 -53.5q0 -37 22 -56t57 -19z" />
    <glyph glyph-name="zero.sinf" unicode="&#x2080;" horiz-adv-x="592" 
d="M297 -173q-103 0 -165 67.5t-62 191.5t62 191t165 67q101 0 163.5 -67.5t62.5 -190.5q0 -124 -62.5 -191.5t-163.5 -67.5zM297 -59q92 0 92 145q0 140 -92 140q-93 0 -93 -140q0 -145 93 -145z" />
    <glyph glyph-name="one.sinf" unicode="&#x2081;" horiz-adv-x="360" 
d="M134 -165v384q-35 -11 -84 -11v110q104 0 140 18h72v-501h-128z" />
    <glyph glyph-name="two.sinf" unicode="&#x2082;" horiz-adv-x="530" 
d="M58 -165v114l156 99q70 48 92.5 74t22.5 56q0 24 -18.5 38t-53.5 14q-57 0 -99 -48l-103 64q69 98 214 98q89 0 139.5 -40.5t50.5 -109.5q0 -60 -33.5 -104t-113.5 -97l-83 -53h240v-105h-411z" />
    <glyph glyph-name="three.sinf" unicode="&#x2083;" horiz-adv-x="526" 
d="M264 -173q-170 0 -227 116l108 47q27 -55 106 -55q90 0 90 61q0 33 -33.5 46t-122.5 13v85q78 0 108.5 12t30.5 39q0 45 -70 45q-73 0 -101 -41l-98 59q65 91 209 91q88 0 137.5 -35.5t49.5 -88.5q0 -44 -26.5 -71.5t-66.5 -37.5q47 -10 79 -41t32 -88
q0 -77 -59.5 -116.5t-145.5 -39.5z" />
    <glyph glyph-name="four.sinf" unicode="&#x2084;" horiz-adv-x="549" 
d="M306 -165v88h-259v95l225 318h139l-221 -310h118l27 95h91v-95h76v-103h-76v-88h-120z" />
    <glyph glyph-name="five.sinf" unicode="&#x2085;" horiz-adv-x="547" 
d="M274 -173q-166 0 -222 116l108 47q28 -58 107 -58q92 0 92 75q0 35 -23.5 53t-57.5 18q-45 0 -93 -16l-106 33l25 241h344v-110h-244l-10 -88q41 32 126 32q77 0 122.5 -42.5t45.5 -119.5q0 -93 -59.5 -137t-154.5 -44z" />
    <glyph glyph-name="six.sinf" unicode="&#x2086;" horiz-adv-x="565" 
d="M294 -173q-107 0 -167.5 64t-60.5 176q0 137 72 207t211 70q47 0 91 -9l-21 -108q-39 8 -74 8q-143 0 -149 -121q18 28 55.5 46t86.5 18q78 0 123.5 -45t45.5 -123q0 -86 -58 -134.5t-155 -48.5zM297 -66q37 0 58.5 20t21.5 54q0 76 -78 76q-41 0 -69 -18.5t-28 -55.5
q0 -33 24.5 -54.5t70.5 -21.5z" />
    <glyph glyph-name="seven.sinf" unicode="&#x2087;" horiz-adv-x="505" 
d="M153 -165q8 275 169 391h-258v110h393v-80q-72 -56 -120.5 -161.5t-51.5 -259.5h-132z" />
    <glyph glyph-name="eight.sinf" unicode="&#x2088;" horiz-adv-x="555" 
d="M277 -178q-109 0 -164 47t-55 113q0 97 96 129q-72 31 -72 105q0 55 48.5 93t146.5 38q99 0 147 -38.5t48 -92.5q0 -33 -18 -62t-55 -43q98 -33 98 -129q0 -66 -55 -113t-165 -47zM277 -80q43 0 65.5 20.5t22.5 52.5q0 33 -22.5 53.5t-65.5 20.5q-42 0 -64.5 -21
t-22.5 -53t22.5 -52.5t64.5 -20.5zM277 141q31 0 49.5 16t18.5 40q0 23 -18.5 37t-49.5 14q-32 0 -49.5 -13.5t-17.5 -37.5q0 -25 18 -40.5t49 -15.5z" />
    <glyph glyph-name="nine.sinf" unicode="&#x2089;" horiz-adv-x="564" 
d="M125 -164l21 105q50 -8 75 -8q82 0 114 30.5t34 90.5q-19 -28 -55.5 -46t-85.5 -18q-78 0 -124 46.5t-46 124.5q0 86 58 134.5t155 48.5q107 0 167 -63t60 -177q0 -138 -71.5 -207.5t-210.5 -69.5q-39 0 -91 9zM266 84q42 0 69.5 18t27.5 54q0 33 -24.5 54.5t-71.5 21.5
q-37 0 -58.5 -19.5t-21.5 -53.5q0 -37 22 -56t57 -19z" />
    <glyph glyph-name="Euro" unicode="&#x20ac;" horiz-adv-x="753" 
d="M436 -11q-103 0 -176 63.5t-101 174.5h-118v103h103v49h-103v102h116q28 119 108.5 183t183.5 64q101 0 171 -47.5t102 -132.5l-144 -58q-40 89 -135 89q-92 0 -124 -98h171v-102h-190v-49h190v-103h-173q33 -97 128 -97q52 0 85.5 21.5t63.5 70.5l125 -71
q-93 -162 -283 -162z" />
    <glyph glyph-name="copyrightsound" unicode="&#x2117;" horiz-adv-x="806" 
d="M404 -12q-155 0 -263.5 112t-108.5 271t108.5 271t263.5 112q154 0 262.5 -112t108.5 -271t-108.5 -271t-262.5 -112zM404 50q133 0 219 94t86 227q0 134 -85.5 227.5t-219.5 93.5t-220 -93.5t-86 -227.5q0 -133 86 -227t220 -94zM237 138v453h200q189 0 189 -156
q0 -155 -197 -155h-76v-142h-116zM353 372h82q39 0 57 14.5t18 47.5t-19 46.5t-62 13.5h-76v-122z" />
    <glyph glyph-name="trademark" unicode="&#x2122;" horiz-adv-x="1117" 
d="M502 280v462h143l114 -301l116 301h141v-462h-122v252l-94 -252h-84l-95 252v-252h-119zM193 280v350h-146v112h418v-112h-146v-350h-126z" />
    <glyph glyph-name="estimated" unicode="&#x212e;" horiz-adv-x="697" 
d="M664 318h-490v-220q73 -71 174 -71q83 0 137.5 37.5t99.5 107.5l37 -23q-52 -79 -114.5 -120t-159.5 -41q-138 0 -224 96t-86 235q0 141 85.5 236t227.5 95t226.5 -95t86.5 -237zM525 358v182q-74 71 -175 71q-107 0 -176 -71v-182h351z" />
    <glyph glyph-name="partialdiff" unicode="&#x2202;" horiz-adv-x="642" 
d="M279 -10q-125 0 -190.5 65.5t-65.5 167.5q0 130 79.5 216.5t204.5 86.5q50 0 93 -19.5t60 -54.5q1 32 -0.5 53t-10.5 47t-27 41.5t-51.5 26.5t-82.5 11q-60 0 -121 -13l-25 146q93 17 166 17q161 0 241.5 -89t80.5 -240q0 -231 -99.5 -346.5t-251.5 -115.5zM297 133
q66 0 106 46.5t40 118.5q0 48 -26 78t-80 30q-62 0 -105 -48.5t-43 -119.5q0 -47 28 -76t80 -29z" />
    <glyph glyph-name="product" unicode="&#x220f;" horiz-adv-x="824" 
d="M95 -116v701h-87v156h807v-156h-86v-701h-173v701h-288v-701h-173z" />
    <glyph glyph-name="summation" unicode="&#x2211;" horiz-adv-x="674" 
d="M32 -116v139l304 291l-304 283v144h592v-156h-370l248 -232v-80l-248 -238h391v-151h-613z" />
    <glyph glyph-name="minus" unicode="&#x2212;" horiz-adv-x="726" 
d="M92 278v149h542v-149h-542z" />
    <glyph glyph-name="radical" unicode="&#x221a;" horiz-adv-x="687" 
d="M252 -6l-127 326h-97v147h213l102 -277l199 543h163l-281 -739h-172z" />
    <glyph glyph-name="infinity" unicode="&#x221e;" horiz-adv-x="957" 
d="M259 139q-110 0 -173 69t-63 171t63 171t173 69q139 0 219 -115q82 115 220 115q110 0 173 -69t63 -171t-63 -171t-173 -69q-137 0 -220 116q-81 -116 -219 -116zM259 261q52 0 91 32t61 82q-22 50 -61 82.5t-91 32.5q-51 0 -76.5 -32.5t-25.5 -82.5t25.5 -82t76.5 -32z
M698 261q51 0 76.5 32t25.5 82t-25.5 82.5t-76.5 32.5t-91 -32.5t-61 -82.5q21 -49 61 -81.5t91 -32.5z" />
    <glyph glyph-name="integral" unicode="&#x222b;" horiz-adv-x="550" 
d="M119 -172q-83 0 -128 11l22 135q65 -7 88 -7q70 0 70 67v496q0 93 57 145t161 52q77 0 127 -11l-22 -136q-45 8 -88 8q-70 0 -70 -66v-497q0 -93 -56.5 -145t-160.5 -52z" />
    <glyph glyph-name="approxequal" unicode="&#x2248;" horiz-adv-x="726" 
d="M181 382l-92 75q94 115 180 115q39 0 102.5 -29t84.5 -29q42 0 92 62l92 -76q-93 -114 -180 -114q-39 0 -102 28.5t-85 28.5q-41 0 -92 -61zM181 136l-92 75q94 115 180 115q39 0 102.5 -29t84.5 -29q42 0 92 62l92 -75q-94 -115 -180 -115q-39 0 -102 29t-85 29
q-42 0 -92 -62z" />
    <glyph glyph-name="notequal" unicode="&#x2260;" horiz-adv-x="726" 
d="M98 402v147h310l63 111h130l-64 -111h91v-147h-175l-56 -99h231v-147h-315l-59 -103h-129l58 103h-85v147h169l57 99h-226z" />
    <glyph glyph-name="lessequal" unicode="&#x2264;" horiz-adv-x="726" 
d="M119 0v148h383l-383 190v119l456 225v-151l-285 -133l285 -133v-265h-456z" />
    <glyph glyph-name="greaterequal" unicode="&#x2265;" horiz-adv-x="726" 
d="M151 0v265l285 133l-285 133v151l456 -225v-119l-384 -190h384v-148h-456z" />
    <glyph glyph-name="lozenge" unicode="&#x25ca;" horiz-adv-x="747" 
d="M366 -12l-346 346l344 344l346 -346zM367 179l152 152l-156 156l-152 -152z" />
    <glyph glyph-name="u2022.check" unicode="&#x2713;" horiz-adv-x="687" 
d="M208 -6l-185 473h173l103 -277l201 552h163l-284 -748h-171z" />
    <glyph glyph-name="apple" unicode="&#xf8ff;" horiz-adv-x="911" 
d="M50 369q0 84 25.5 151.5t66.5 110.5t95.5 71.5t108 40t108.5 11.5t109 -11.5t109 -40t96 -71.5t67 -110.5t26 -151.5t-26 -152t-67 -110.5t-96 -71.5t-109 -40.5t-109 -11.5t-108.5 11.5t-108 40.5t-95.5 71.5t-66.5 110.5t-25.5 152zM214 369q0 -63 22.5 -111t59.5 -74
t76.5 -38t81.5 -12t82.5 12t78 38t60 74t22.5 111t-22.5 110.5t-60 73.5t-78 38t-82.5 12t-81.5 -12t-76.5 -38t-59.5 -73.5t-22.5 -110.5zM338 369q0 57 35.5 83.5t80.5 26.5t81 -26.5t36 -83.5q0 -58 -35.5 -84.5t-81.5 -26.5q-45 0 -80.5 26.5t-35.5 84.5z" />
    <glyph glyph-name="zero.salt_slash" horiz-adv-x="749" 
d="M375 -11q-143 0 -229 96.5t-86 272.5t86 272.5t229 96.5q141 0 227 -97t86 -272t-86 -272t-227 -97zM375 131q72 0 112 59t40 168q0 78 -22 131l-193 -345q27 -13 63 -13zM222 358q0 -66 13 -111l182 326q-19 6 -42 6q-73 0 -113 -56t-40 -165z" />
    <glyph glyph-name="endash.salt_en" horiz-adv-x="500" 
d="M0 257v147h500v-147h-500z" />
    <glyph glyph-name="registered.salt_big" horiz-adv-x="806" 
d="M404 -12q-155 0 -263.5 112t-108.5 271t108.5 271t263.5 112q154 0 262.5 -112t108.5 -271t-108.5 -271t-262.5 -112zM404 50q133 0 219 94t86 227q0 134 -85.5 227.5t-219.5 93.5t-220 -93.5t-86 -227.5q0 -133 86 -227t220 -94zM337 386h74q37 0 53.5 13t16.5 44
q0 32 -17 44t-60 12h-67v-113zM228 161v430h184q180 0 180 -146q0 -99 -84 -128l85 -156h-119l-75 141h-62v-141h-109z" />
    <glyph glyph-name="zero.tab" 
d="M336 -11q-142 0 -222 98t-80 272q0 172 80.5 270.5t221.5 98.5q139 0 219.5 -98t80.5 -271t-80 -271.5t-220 -98.5zM336 131q134 0 134 228q0 222 -134 222q-136 0 -136 -222q0 -228 136 -228z" />
    <glyph glyph-name="zero.tab_salt_slash" 
d="M336 -11q-142 0 -222 98t-80 272q0 172 80.5 270.5t221.5 98.5q139 0 219.5 -98t80.5 -271t-80 -271.5t-220 -98.5zM336 126q69 0 106 59.5t37 173.5q0 79 -19 134l-186 -353q28 -14 62 -14zM192 359q0 -72 13 -118l178 337q-22 8 -47 8q-144 0 -144 -227z" />
    <glyph glyph-name="one.tab" 
d="M120 0v129h160v436q-48 -16 -163 -16v142q178 0 231 26h91v-588h144v-129h-463z" />
    <glyph glyph-name="two.tab" 
d="M57 0v143l208 140q100 74 131.5 117.5t31.5 91.5q0 42 -27 66t-71 24q-92 0 -146 -76l-128 80q45 71 113.5 106t176.5 35t176 -58t68 -155q0 -92 -43 -161.5t-155 -145.5l-117 -78h326v-129h-544z" />
    <glyph glyph-name="three.tab" 
d="M330 -11q-128 0 -199.5 37t-113.5 116l135 77q29 -48 66 -71t103 -23q129 0 129 99q0 53 -48.5 76t-165.5 23v118q100 0 145 18.5t45 61.5q0 70 -109 70q-97 0 -161 -62l-107 94q103 105 281 105q121 0 186 -44.5t65 -127.5q0 -62 -35 -102.5t-91 -57.5q64 -14 109 -58.5
t45 -124.5q0 -110 -78 -167t-201 -57z" />
    <glyph glyph-name="four.tab" 
d="M37 141v115l308 460h167l-302 -448h174l35 141h114v-141h108v-127h-108v-141h-152v141h-344z" />
    <glyph glyph-name="five.tab" 
d="M331 -11q-225 0 -306 148l132 76q29 -46 65.5 -67t101.5 -21q133 0 133 121q0 58 -34.5 85.5t-87.5 27.5q-67 0 -130 -25l-128 45l32 338h453v-139h-327l-13 -141q57 44 167 44q104 0 166 -63t62 -173q0 -129 -80 -192.5t-206 -63.5z" />
    <glyph glyph-name="six.tab" 
d="M351 -12q-145 0 -224 91.5t-79 250.5q0 396 395 396q56 0 98 -9l-21 -136q-39 8 -81 8q-66 0 -112 -15.5t-69.5 -44t-34 -59t-12.5 -70.5q56 91 195 91q106 0 167 -64.5t61 -176.5q0 -122 -76.5 -192t-206.5 -70zM355 123q55 0 86 32.5t31 92.5q0 63 -31.5 93.5
t-83.5 30.5q-55 0 -97 -30.5t-42 -89.5q0 -57 35 -93t102 -36z" />
    <glyph glyph-name="seven.tab" 
d="M205 0q17 398 246 576h-371v141h544v-107q-102 -80 -172.5 -236t-77.5 -374h-169z" />
    <glyph glyph-name="eight.tab" 
d="M334 -18q-143 0 -216.5 64.5t-73.5 160.5q0 140 131 188q-99 44 -99 152q0 79 65.5 132t192.5 53q129 0 194 -53t65 -132q0 -110 -103 -152q137 -44 137 -188q0 -95 -74 -160t-219 -65zM334 108q63 0 96 30.5t33 80.5q0 52 -33 83t-96 31q-62 0 -94.5 -31.5t-32.5 -82.5
q0 -50 32.5 -80.5t94.5 -30.5zM334 438q47 0 74 24t27 62t-26.5 60t-74.5 22q-47 0 -73.5 -22t-26.5 -60t26.5 -62t73.5 -24z" />
    <glyph glyph-name="nine.tab" 
d="M227 -10q-51 0 -96 8l20 134q33 -7 81 -7q126 0 174.5 49t52.5 139q-25 -41 -75 -65.5t-120 -24.5q-106 0 -167 66.5t-61 178.5q0 121 76.5 190.5t206.5 69.5q147 0 225 -90t78 -251q0 -397 -395 -397zM313 342q54 0 96.5 30t42.5 89q0 57 -35 92t-102 35
q-55 0 -86.5 -32t-31.5 -91q0 -63 32 -93t84 -30z" />
    <glyph glyph-name="plus.tab" 
d="M253 89v189h-189v149h189v188h164v-188h189v-149h-189v-189h-164z" />
    <glyph glyph-name="minus.tab" 
d="M64 278v149h542v-149h-542z" />
    <glyph glyph-name="multiply.tab" 
d="M186 100l-101 104l148 149l-148 147l103 104l147 -147l148 147l101 -104l-148 -147l148 -147l-101 -105l-148 148z" />
    <glyph glyph-name="divide.tab" 
d="M251 76v143h167v-143h-167zM64 278v149h542v-149h-542zM251 486v143h167v-143h-167z" />
    <glyph glyph-name="equal.tab" 
d="M70 156v147h530v-147h-530zM70 402v147h530v-147h-530z" />
    <glyph glyph-name="less.tab" 
d="M547 61l-456 227v118l456 225v-151l-285 -133l285 -133v-153z" />
    <glyph glyph-name="greater.tab" 
d="M123 61v152l285 133l-285 133v152l456 -226v-119z" />
    <glyph glyph-name="dollar.tab" 
d="M279 -94v94q-185 12 -264 102l105 98q57 -59 163 -73v179q-48 9 -82 20.5t-67 33t-50 58t-17 86.5q0 91 58 144t154 65v70h118v-70q147 -12 220 -74l-94 -108q-43 37 -129 49v-166q41 -7 69.5 -14.5t60.5 -22.5t51 -35t31.5 -52.5t12.5 -75.5q0 -88 -59.5 -145
t-162.5 -69v-94h-118zM477 203q0 32 -19 51t-64 31v-158q83 13 83 76zM209 512q0 -30 17 -47.5t57 -28.5v145q-74 -14 -74 -69z" />
    <glyph glyph-name="cent.tab" 
d="M268 -94v97q-104 21 -155 96.5t-51 185.5q0 104 54 182t152 101v77h133v-72q77 -9 128.5 -43.5t87.5 -99.5l-138 -72q-30 55 -81 70v-298q53 16 93 78l124 -76q-71 -115 -214 -132v-94h-133zM226 281q0 -92 47 -130v257q-47 -42 -47 -127z" />
    <glyph glyph-name="Euro.tab" 
d="M382 -11q-96 0 -168 64t-99 174h-96v103h83q-1 6 -1 24t1 25h-83v102h95q27 119 105.5 183t175.5 64q91 0 160.5 -49t102.5 -134l-139 -54q-37 88 -130 88q-89 0 -121 -98h165v-102h-179v-49h179v-103h-166q13 -47 46 -72t77 -25q51 0 81.5 21t59.5 71l124 -65
q-91 -168 -273 -168z" />
    <glyph glyph-name="sterling.tab" 
d="M61 -8l-25 132q80 15 111 36.5t31 57.5q0 22 -17 84h-120v111h82q-19 59 -19 106q0 94 66.5 151.5t182.5 57.5q178 0 251 -141l-125 -72q-46 72 -128 72q-41 0 -65.5 -23t-24.5 -61q0 -37 16 -90h171v-111h-141q15 -53 15 -82q0 -31 -12 -67q58 -25 108 -25q73 0 73 77
q0 29 -8 58l137 18q9 -45 9 -82q0 -108 -51.5 -156.5t-151.5 -48.5q-97 0 -192 55q-67 -44 -173 -57z" />
    <glyph glyph-name="yen.tab" 
d="M252 0v92h-179v102h179v49h-179v102h159l-217 370h176l147 -284l146 284h172l-219 -370h157v-102h-178v-49h178v-102h-178v-92h-164z" />
    <glyph glyph-name="florin.tab" 
d="M231 -165v474h-108v136h108v85q0 93 56.5 145t160.5 52q76 0 128 -11l-22 -136q-45 8 -88 8q-70 0 -70 -66v-77h152v-136h-152v-474h-165z" />
    <glyph glyph-name="numbersign.tab" 
d="M75 0l31 164h-91v138h115l16 87h-131v139h155l35 189h149l-34 -189h91l35 189h149l-34 -189h94v-139h-118l-17 -87h135v-138h-158l-31 -164h-149l30 164h-92l-30 -164h-150zM272 294h104l20 104h-105z" />
    <glyph glyph-name="prime.tab" horiz-adv-x="335" 
d="M72 366l48 350h174l-71 -350h-151z" />
    <glyph glyph-name="primedbl.tab" 
d="M119 366l49 350h166l-71 -350h-144zM368 366l48 350h167l-72 -350h-143z" />
    <glyph glyph-name="period.tab" horiz-adv-x="335" 
d="M72 0v187h191v-187h-191z" />
    <glyph glyph-name="comma.tab" horiz-adv-x="335" 
d="M117 -161l-40 81q54 25 69 39t15 41h-89v187h191v-132q0 -94 -26.5 -135t-119.5 -81z" />
    <glyph glyph-name="colon.tab" horiz-adv-x="335" 
d="M72 0v183h191v-183h-191zM72 386v181h191v-181h-191z" />
    <glyph glyph-name="semicolon.tab" horiz-adv-x="335" 
d="M117 -161l-40 81q54 25 69 39t15 41h-89v183h191v-128q0 -86 -28 -131.5t-118 -84.5zM72 386v181h191v-181h-191z" />
    <glyph glyph-name="parenleft.tab" horiz-adv-x="335" 
d="M247 -196q-83 70 -144.5 200t-61.5 300q0 154 64 294.5t142 207.5l106 -73q-154 -171 -154 -427q0 -145 48 -253.5t110 -172.5z" />
    <glyph glyph-name="parenright.tab" horiz-adv-x="335" 
d="M89 -196l-111 76q62 63 110.5 172t48.5 253q0 258 -155 428l107 73q80 -68 142.5 -205t62.5 -296q0 -165 -62 -298.5t-143 -202.5z" />
    <glyph glyph-name="space.tab" horiz-adv-x="335" 
 />
    <glyph glyph-name="space.tab_em" horiz-adv-x="1340" 
 />
    <glyph glyph-name="space.tab_thin" horiz-adv-x="167" 
 />
    <glyph glyph-name="space.frac" horiz-adv-x="170" 
 />
    <glyph glyph-name="zero.numr" horiz-adv-x="552" 
d="M277 210q-103 0 -165 67.5t-62 191.5t62 191t165 67q101 0 163.5 -67.5t62.5 -190.5q0 -124 -62.5 -191.5t-163.5 -67.5zM277 324q92 0 92 145q0 140 -92 140q-93 0 -93 -140q0 -145 93 -145z" />
    <glyph glyph-name="one.numr" horiz-adv-x="320" 
d="M114 218v384q-35 -11 -84 -11v110q104 0 140 18h72v-501h-128z" />
    <glyph glyph-name="two.numr" horiz-adv-x="490" 
d="M38 218v114l156 99q70 48 92.5 74t22.5 56q0 24 -18.5 38t-53.5 14q-57 0 -99 -48l-103 64q69 98 214 98q89 0 139.5 -40.5t50.5 -109.5q0 -60 -33.5 -104t-113.5 -97l-83 -53h240v-105h-411z" />
    <glyph glyph-name="three.numr" horiz-adv-x="486" 
d="M244 210q-170 0 -227 116l108 47q27 -55 106 -55q90 0 90 61q0 33 -33.5 46t-122.5 13v85q78 0 108.5 12t30.5 39q0 45 -70 45q-73 0 -101 -41l-98 59q65 91 209 91q88 0 137.5 -35.5t49.5 -88.5q0 -44 -26.5 -71.5t-66.5 -37.5q47 -10 79 -41t32 -88q0 -77 -59.5 -116.5
t-145.5 -39.5z" />
    <glyph glyph-name="four.numr" horiz-adv-x="509" 
d="M286 218v88h-259v95l225 318h139l-221 -310h118l27 95h91v-95h76v-103h-76v-88h-120z" />
    <glyph glyph-name="five.numr" horiz-adv-x="507" 
d="M254 210q-166 0 -222 116l108 47q28 -58 107 -58q92 0 92 75q0 35 -23.5 53t-57.5 18q-45 0 -93 -16l-106 33l25 241h344v-110h-244l-10 -88q41 32 126 32q77 0 122.5 -42.5t45.5 -119.5q0 -93 -59.5 -137t-154.5 -44z" />
    <glyph glyph-name="six.numr" horiz-adv-x="525" 
d="M274 210q-107 0 -167.5 64t-60.5 176q0 137 72 207t211 70q48 0 91 -9l-21 -108q-39 8 -74 8q-143 0 -149 -121q18 28 55.5 46t86.5 18q78 0 123.5 -45t45.5 -123q0 -86 -58 -134.5t-155 -48.5zM277 317q37 0 58.5 20t21.5 54q0 76 -78 76q-41 0 -69 -18.5t-28 -55.5
q0 -33 24.5 -54.5t70.5 -21.5z" />
    <glyph glyph-name="seven.numr" horiz-adv-x="465" 
d="M133 218q8 275 169 391h-258v110h393v-80q-72 -56 -120.5 -161.5t-51.5 -259.5h-132z" />
    <glyph glyph-name="eight.numr" horiz-adv-x="515" 
d="M257 205q-109 0 -164 47t-55 113q0 97 96 129q-72 31 -72 105q0 55 48.5 93t146.5 38q99 0 147 -38.5t48 -92.5q0 -33 -18 -62t-55 -43q98 -33 98 -129q0 -66 -55 -113t-165 -47zM257 303q43 0 65.5 20.5t22.5 52.5q0 33 -22.5 53.5t-65.5 20.5q-42 0 -64.5 -21
t-22.5 -53t22.5 -52.5t64.5 -20.5zM257 524q31 0 49.5 16t18.5 40q0 23 -18.5 37t-49.5 14q-32 0 -49.5 -13.5t-17.5 -37.5q0 -25 18 -40.5t49 -15.5z" />
    <glyph glyph-name="nine.numr" horiz-adv-x="524" 
d="M105 219l21 105q50 -8 75 -8q82 0 114 30.5t34 90.5q-19 -28 -55.5 -46t-85.5 -18q-78 0 -124 46.5t-46 124.5q0 86 58 134.5t155 48.5q107 0 167 -63t60 -177q0 -138 -71.5 -207.5t-210.5 -69.5q-39 0 -91 9zM246 467q42 0 69.5 18t27.5 54q0 33 -24.5 54.5t-71.5 21.5
q-37 0 -58.5 -19.5t-21.5 -53.5q0 -37 22 -56t57 -19z" />
    <glyph glyph-name="zero.dnom" horiz-adv-x="552" 
d="M277 -8q-103 0 -165 67.5t-62 191.5t62 191t165 67q101 0 163.5 -67.5t62.5 -190.5q0 -124 -62.5 -191.5t-163.5 -67.5zM277 106q92 0 92 145q0 140 -92 140q-93 0 -93 -140q0 -145 93 -145z" />
    <glyph glyph-name="one.dnom" horiz-adv-x="320" 
d="M114 0v384q-35 -11 -84 -11v110q104 0 140 18h72v-501h-128z" />
    <glyph glyph-name="two.dnom" horiz-adv-x="490" 
d="M38 0v114l156 99q70 48 92.5 74t22.5 56q0 24 -18.5 38t-53.5 14q-57 0 -99 -48l-103 64q69 98 214 98q89 0 139.5 -40.5t50.5 -109.5q0 -60 -33.5 -104t-113.5 -97l-83 -53h240v-105h-411z" />
    <glyph glyph-name="three.dnom" horiz-adv-x="486" 
d="M244 -8q-170 0 -227 116l108 47q27 -55 106 -55q90 0 90 61q0 33 -33.5 46t-122.5 13v85q78 0 108.5 12t30.5 39q0 45 -70 45q-73 0 -101 -41l-98 59q65 91 209 91q88 0 137.5 -35.5t49.5 -88.5q0 -44 -26.5 -71.5t-66.5 -37.5q47 -10 79 -41t32 -88q0 -77 -59.5 -116.5
t-145.5 -39.5z" />
    <glyph glyph-name="four.dnom" horiz-adv-x="509" 
d="M286 0v88h-259v95l225 318h139l-221 -310h118l27 95h91v-95h76v-103h-76v-88h-120z" />
    <glyph glyph-name="five.dnom" horiz-adv-x="507" 
d="M254 -8q-166 0 -222 116l108 47q28 -58 107 -58q92 0 92 75q0 35 -23.5 53t-57.5 18q-45 0 -93 -16l-106 33l25 241h344v-110h-244l-10 -88q41 32 126 32q77 0 122.5 -42.5t45.5 -119.5q0 -93 -59.5 -137t-154.5 -44z" />
    <glyph glyph-name="six.dnom" horiz-adv-x="525" 
d="M274 -8q-107 0 -167.5 64t-60.5 176q0 137 72 207t211 70q48 0 91 -9l-21 -108q-39 8 -74 8q-143 0 -149 -121q18 28 55.5 46t86.5 18q78 0 123.5 -45t45.5 -123q0 -86 -58 -134.5t-155 -48.5zM277 99q37 0 58.5 20t21.5 54q0 76 -78 76q-41 0 -69 -18.5t-28 -55.5
q0 -33 24.5 -54.5t70.5 -21.5z" />
    <glyph glyph-name="seven.dnom" horiz-adv-x="465" 
d="M133 0q8 275 169 391h-258v110h393v-80q-72 -56 -120.5 -161.5t-51.5 -259.5h-132z" />
    <glyph glyph-name="eight.dnom" horiz-adv-x="515" 
d="M257 -13q-109 0 -164 47t-55 113q0 97 96 129q-72 31 -72 105q0 55 48.5 93t146.5 38q99 0 147 -38.5t48 -92.5q0 -33 -18 -62t-55 -43q98 -33 98 -129q0 -66 -55 -113t-165 -47zM257 85q43 0 65.5 20.5t22.5 52.5q0 33 -22.5 53.5t-65.5 20.5q-42 0 -64.5 -21t-22.5 -53
t22.5 -52.5t64.5 -20.5zM257 306q31 0 49.5 16t18.5 40q0 23 -18.5 37t-49.5 14q-32 0 -49.5 -13.5t-17.5 -37.5q0 -25 18 -40.5t49 -15.5z" />
    <glyph glyph-name="nine.dnom" horiz-adv-x="524" 
d="M105 1l21 105q50 -8 75 -8q82 0 114 30.5t34 90.5q-19 -28 -55.5 -46t-85.5 -18q-78 0 -124 46.5t-46 124.5q0 86 58 134.5t155 48.5q107 0 167 -63t60 -177q0 -138 -71.5 -207.5t-210.5 -69.5q-39 0 -91 9zM246 249q42 0 69.5 18t27.5 54q0 33 -24.5 54.5t-71.5 21.5
q-37 0 -58.5 -19.5t-21.5 -53.5q0 -37 22 -56t57 -19z" />
    <glyph glyph-name="commaaccent.scrap" horiz-adv-x="590" 
d="M212 625v109q0 88 23 127t103 74l34 -70q-46 -21 -59.5 -36t-13.5 -47h79v-157h-166z" />
    <glyph glyph-name="onesuperior" horiz-adv-x="360" 
d="M134 267v384q-35 -11 -84 -11v110q104 0 140 18h72v-501h-128z" />
    <glyph glyph-name="twosuperior" horiz-adv-x="530" 
d="M58 267v114l156 99q70 48 92.5 74t22.5 56q0 24 -18.5 38t-53.5 14q-57 0 -99 -48l-103 64q69 98 214 98q89 0 139.5 -40.5t50.5 -109.5q0 -60 -33.5 -104t-113.5 -97l-83 -53h240v-105h-411z" />
    <glyph glyph-name="threesuperior" horiz-adv-x="528" 
d="M266 259q-170 0 -227 116l108 47q27 -55 106 -55q90 0 90 61q0 33 -33.5 46t-122.5 13v85q78 0 108.5 12t30.5 39q0 45 -70 45q-73 0 -101 -41l-98 59q65 91 209 91q88 0 137.5 -35.5t49.5 -88.5q0 -44 -26.5 -71.5t-66.5 -37.5q47 -10 79 -41t32 -88q0 -77 -59.5 -116.5
t-145.5 -39.5z" />
    </font>
</defs>
</svg>
