<svg xmlns="http://www.w3.org/2000/svg" viewBox="0 0 167.27 38.8"><defs><style>.cls-1{fill:#fff;}.cls-1,.cls-2{fill-rule:evenodd;}.cls-2{fill:#0e0e0e;}</style></defs><title>amazon-client</title><g id="Layer_2" data-name="Layer 2"><g id="NOSOTROS"><g id="CLIENTES"><g id="LOGOS_CLIENTES" data-name="LOGOS CLIENTES"><g id="AMAMZON_PRIME_VIDEO" data-name="AMAMZON PRIME VIDEO"><path class="cls-1" d="M4.89.66A11.46,11.46,0,0,1,8.42,0a11,11,0,0,1,3.23.35,7.22,7.22,0,0,1,2.14,1,4.75,4.75,0,0,1,1.86,2.33A9.9,9.9,0,0,1,16.06,7c0,2,0,4,0,6a8.26,8.26,0,0,0,.07,1.57,4,4,0,0,0,.5,1.37,12.79,12.79,0,0,0,.8,1.13.88.88,0,0,1,.2.71.65.65,0,0,1-.26.35c-.84.7-1.66,1.41-2.48,2.12a1.66,1.66,0,0,1-.61.4.75.75,0,0,1-.6-.12,8.14,8.14,0,0,1-1.22-1.2c-.31-.38-.57-.79-.85-1.19a9.12,9.12,0,0,1-2.89,2.12,7.93,7.93,0,0,1-3,.53,5.8,5.8,0,0,1-3.8-1.14A5.06,5.06,0,0,1,.13,16.6a7.12,7.12,0,0,1,.59-4.52A6.29,6.29,0,0,1,3.47,9.43a11.08,11.08,0,0,1,3-.94c1.46-.27,2.93-.38,4.4-.54,0-.65,0-1.3,0-1.94a2.4,2.4,0,0,0-.61-1.42,2.53,2.53,0,0,0-1.72-.7,3.23,3.23,0,0,0-2.28.71,2.66,2.66,0,0,0-.84,1.48c-.07.32-.33.68-.69.66L1.22,6.36a.64.64,0,0,1-.61-.68,6.52,6.52,0,0,1,1-2.61A6.72,6.72,0,0,1,4.89.66Zm3.29,10.5a4.35,4.35,0,0,0-1.8.89,3,3,0,0,0-.94,1.82A3.81,3.81,0,0,0,5.7,16a2,2,0,0,0,1.21,1,2.56,2.56,0,0,0,2.21-.36,4.17,4.17,0,0,0,1.53-2.29,14.62,14.62,0,0,0,.23-3.56,11.12,11.12,0,0,0-2.7.29Z"/><path class="cls-1" d="M55.12.18a11.32,11.32,0,0,1,5.42.36,6.26,6.26,0,0,1,2.37,1.4A4.68,4.68,0,0,1,64.12,4a11.27,11.27,0,0,1,.29,3.07V13a7.28,7.28,0,0,0,.16,2.08,6,6,0,0,0,1.16,2,1,1,0,0,1,.25.78c0,.21-.24.33-.4.47-.83.7-1.66,1.4-2.47,2.12a1,1,0,0,1-.71.3c-.35,0-.56-.33-.82-.52a9.85,9.85,0,0,1-1.62-2,10.23,10.23,0,0,1-2.31,1.84,6.52,6.52,0,0,1-2.59.76,8.43,8.43,0,0,1-2.79-.13,5.08,5.08,0,0,1-2.42-1.33A5.5,5.5,0,0,1,48.39,16a7.29,7.29,0,0,1,.38-3.21,6,6,0,0,1,2.46-3,9.63,9.63,0,0,1,3.44-1.25c1.51-.29,3-.41,4.56-.57a16.06,16.06,0,0,0-.06-2.08,2.24,2.24,0,0,0-.74-1.43,2.88,2.88,0,0,0-2-.55,3,3,0,0,0-2,.86,2.67,2.67,0,0,0-.68,1.35c-.08.32-.34.67-.71.64L49.6,6.36A.65.65,0,0,1,49,5.68,6.26,6.26,0,0,1,51,2,8.26,8.26,0,0,1,55.12.18Zm1,11.1a3.49,3.49,0,0,0-1.82,1.26,3.66,3.66,0,0,0-.52,2.56,2.36,2.36,0,0,0,1,1.78,2.5,2.5,0,0,0,2.62-.14,4.17,4.17,0,0,0,1.61-2.47,16.06,16.06,0,0,0,.18-3.4,10.19,10.19,0,0,0-3.11.41Z"/><path class="cls-1" d="M28.79.32a6.48,6.48,0,0,1,2.52,0,4.29,4.29,0,0,1,2.23,1.25,7.15,7.15,0,0,1,1.33,2.09,5.63,5.63,0,0,1,1-1.7A5.18,5.18,0,0,1,38.28.43a5.72,5.72,0,0,1,5.23,1,4.28,4.28,0,0,1,1.37,2.07,12.18,12.18,0,0,1,.31,3.76c0,1.93,0,3.87,0,5.8v6.81a.7.7,0,0,1-.69.68H41.06a1.07,1.07,0,0,1-.63-.12.65.65,0,0,1-.32-.62c0-3.88,0-7.76,0-11.64A11.35,11.35,0,0,0,40,6.65a2.13,2.13,0,0,0-.69-1.34,2.35,2.35,0,0,0-1.48-.44,2.43,2.43,0,0,0-2,1.17,3.07,3.07,0,0,0-.42,1.29,18.55,18.55,0,0,0-.12,2.79v9.75a.67.67,0,0,1-.34.6,1.47,1.47,0,0,1-.69.1c-1.1,0-2.19,0-3.28,0a.73.73,0,0,1-.67-.36,1,1,0,0,1-.09-.57V9.93a15.43,15.43,0,0,0-.15-3.26,2.41,2.41,0,0,0-.81-1.45,2.44,2.44,0,0,0-1.85-.34,2,2,0,0,0-1.42,1,5.57,5.57,0,0,0-.57,2.48c-.05,1.09,0,2.19,0,3.28v8.26a.69.69,0,0,1-.7.68c-1.22,0-2.44,0-3.66,0a.69.69,0,0,1-.71-.68V1.28A.7.7,0,0,1,21,.59h3.43a.69.69,0,0,1,.69.65c0,.8,0,1.6,0,2.4h.05a6.54,6.54,0,0,1,1.05-1.81A4.53,4.53,0,0,1,28.79.32Z"/><path class="cls-1" d="M114.29.63a5.85,5.85,0,0,1,2.78-.42,5,5,0,0,1,3,1.2,4.74,4.74,0,0,1,1.28,1.92,13.68,13.68,0,0,1,.52,4.23c0,4.11,0,8.21,0,12.32a.68.68,0,0,1-.51.66,3.76,3.76,0,0,1-.58,0h-3.28a.68.68,0,0,1-.7-.63V10.07c0-.82,0-1.64,0-2.45a4.34,4.34,0,0,0-.5-1.91,1.83,1.83,0,0,0-1.08-.83,2.42,2.42,0,0,0-1.46.06,2.6,2.6,0,0,0-1.35,1.3,7,7,0,0,0-.59,2.82c0,.8,0,1.61,0,2.41v8.07a1.42,1.42,0,0,1,0,.58.71.71,0,0,1-.69.44c-1.2,0-2.41,0-3.61,0a.69.69,0,0,1-.72-.68V1.28A.65.65,0,0,1,107,.69a.87.87,0,0,1,.48-.1h3.28a.72.72,0,0,1,.64.36,1.1,1.1,0,0,1,.06.48c0,.85,0,1.71,0,2.56a.18.18,0,0,0,.11-.1A8,8,0,0,1,112.63,2,4.3,4.3,0,0,1,114.29.63Z"/><path class="cls-1" d="M68.85,1.23A.65.65,0,0,1,69.5.58H81.58a.69.69,0,0,1,.65.35,1.12,1.12,0,0,1,.08.55v2a2.28,2.28,0,0,1-.5,1.2q-3.34,4.71-6.67,9.44a13.93,13.93,0,0,1,6.4,1.21,2.39,2.39,0,0,1,.92.64,1.51,1.51,0,0,1,.21.93c0,.86,0,1.71,0,2.57a.69.69,0,0,1-.61.69,1.52,1.52,0,0,1-.58-.22,14.08,14.08,0,0,0-12.22,0c-.18.09-.36.23-.57.18a.73.73,0,0,1-.54-.71V17a3.4,3.4,0,0,1,.5-2.16L75.85,4.6h-6.3a.69.69,0,0,1-.6-.3.83.83,0,0,1-.11-.46c0-.87,0-1.74,0-2.61Z"/><path class="cls-1" d="M74.74,21.51a14.06,14.06,0,0,1,3.55.24,4,4,0,0,1,1.28.46.82.82,0,0,1,.33.57,6,6,0,0,1,0,1.59,15,15,0,0,1-1.45,4.91,10.57,10.57,0,0,1-2.65,3.49.78.78,0,0,1-.76.23.44.44,0,0,1-.13-.57,39.47,39.47,0,0,0,1.85-5.36A5.8,5.8,0,0,0,77,25.13a1,1,0,0,0-.44-.75A3.64,3.64,0,0,0,75,24a34.16,34.16,0,0,0-6.31.34c-.2,0-.46,0-.51-.25a.67.67,0,0,1,.34-.64A9.54,9.54,0,0,1,71,22.18a14.08,14.08,0,0,1,3.75-.67Z"/><path class="cls-1" d="M17,22.75a.8.8,0,0,1,.73.1,62.73,62.73,0,0,0,21.8,7.51,62,62,0,0,0,15.46.4,62.79,62.79,0,0,0,17.37-4.33,2.76,2.76,0,0,1,1.07-.32,1,1,0,0,1,.94.66,1,1,0,0,1-.34.94c-.24.21-.51.37-.76.55a39.5,39.5,0,0,1-10.58,5.06A49,49,0,0,1,49.9,35.57a47.7,47.7,0,0,1-17.33-2.63,46,46,0,0,1-15.3-9c-.2-.18-.45-.34-.51-.62a.5.5,0,0,1,.27-.6Z"/><path class="cls-1" d="M101.35,23.87a1.69,1.69,0,0,1,1.33.26,1.11,1.11,0,0,1,0,1.69,1.59,1.59,0,0,1-1.16.28,1.25,1.25,0,0,1-.91-.43,1.11,1.11,0,0,1,.74-1.8Z"/><path class="cls-1" d="M137.67,23.81h2.75v2.33h-2.75V23.81Z"/><path class="cls-1" d="M147.19,24.27a.44.44,0,0,1,.45-.44h1.5a.45.45,0,0,1,.43.49V35a.47.47,0,0,1-.39.5c-.28,0-.57,0-.86,0a1.17,1.17,0,0,1-.72-.13,1,1,0,0,1-.3-.58,3.56,3.56,0,0,1-2.22.87,3.25,3.25,0,0,1-2.36-.77,4,4,0,0,1-1.22-2.53,6.36,6.36,0,0,1,.19-2.64,3.67,3.67,0,0,1,1.61-2.11,3.74,3.74,0,0,1,3.89.3c0-1.21,0-2.43,0-3.64Zm-2.87,5.24a2.82,2.82,0,0,0-.45,1.47,5.3,5.3,0,0,0,.12,1.64,1.83,1.83,0,0,0,.57,1,1.64,1.64,0,0,0,1,.35,2.84,2.84,0,0,0,1.63-.44c0-1.39,0-2.78,0-4.16a3.29,3.29,0,0,0-1.87-.38,1.38,1.38,0,0,0-1,.56Z"/><path class="cls-1" d="M86.91,28.18a3.88,3.88,0,0,1,2.78-1,3,3,0,0,1,1.92.76,4,4,0,0,1,1.19,2.46,6.48,6.48,0,0,1-.25,2.9,3.62,3.62,0,0,1-1.52,2,3.24,3.24,0,0,1-2.09.41,3.43,3.43,0,0,1-1.8-.75v3.39a.47.47,0,0,1-.44.48H85.24a.46.46,0,0,1-.45-.48V27.94a.46.46,0,0,1,.38-.51c.25,0,.5,0,.75,0a1,1,0,0,1,.69.12.92.92,0,0,1,.3.63Zm.21,1.17v4.23a3,3,0,0,0,2,.38,1.37,1.37,0,0,0,.95-.63,3.16,3.16,0,0,0,.38-1.48,5.76,5.76,0,0,0-.1-1.55,1.82,1.82,0,0,0-.51-1,1.57,1.57,0,0,0-1-.38,3.23,3.23,0,0,0-1.8.43Z"/><path class="cls-1" d="M108.62,27.27a3.58,3.58,0,0,1,1.92.1,2,2,0,0,1,.94.82,5.74,5.74,0,0,1,2.3-1,3,3,0,0,1,2.28.41,2.25,2.25,0,0,1,.78,1.79V35a.45.45,0,0,1-.44.46H115a.46.46,0,0,1-.47-.37,3.73,3.73,0,0,1,0-.47V30a1.19,1.19,0,0,0-.21-.76.83.83,0,0,0-.66-.31,4.15,4.15,0,0,0-1.84.4V35a.46.46,0,0,1-.47.46h-1.4a.45.45,0,0,1-.46-.46V30a1.21,1.21,0,0,0-.22-.78.91.91,0,0,0-.68-.29,3.9,3.9,0,0,0-1.83.42c0,1.87,0,3.75,0,5.62a.45.45,0,0,1-.44.46h-1.45a.45.45,0,0,1-.44-.46v-7.1a.46.46,0,0,1,.44-.47h1a.63.63,0,0,1,.59.36,2.8,2.8,0,0,1,.13.41,6,6,0,0,1,2.08-.92Z"/><path class="cls-1" d="M119.4,28.1a3.8,3.8,0,0,1,2.26-.88,4.52,4.52,0,0,1,2.24.31,2.71,2.71,0,0,1,1.32,1.33,4.32,4.32,0,0,1,.28,2.22,2.84,2.84,0,0,1-.06.5.56.56,0,0,1-.54.41c-1.54,0-3.07,0-4.6,0a2.11,2.11,0,0,0,.49,1.35,2.23,2.23,0,0,0,1.4.58,8.84,8.84,0,0,0,2.75-.27.35.35,0,0,1,.41.3c0,.22,0,.44,0,.66a.68.68,0,0,1-.44.64,6.46,6.46,0,0,1-1.94.41,6.68,6.68,0,0,1-2.23-.18,3.42,3.42,0,0,1-1.76-1.1,4,4,0,0,1-.85-2.19,6.42,6.42,0,0,1,.14-2.23,3.57,3.57,0,0,1,1.13-1.86Zm1.38,1.18a2.15,2.15,0,0,0-.5,1.31h3.21a2.33,2.33,0,0,0-.21-1.22,1.14,1.14,0,0,0-.85-.55,1.84,1.84,0,0,0-1.65.47Z"/><path class="cls-1" d="M153.29,27.41a5.42,5.42,0,0,1,2.47-.13,2.84,2.84,0,0,1,2,1.33,4.59,4.59,0,0,1,.36,2.9.57.57,0,0,1-.56.48c-1.53,0-3.06,0-4.6,0a2.23,2.23,0,0,0,.5,1.36,2.13,2.13,0,0,0,1.32.56,8.73,8.73,0,0,0,2.83-.26.36.36,0,0,1,.4.3c0,.22,0,.44,0,.66a.71.71,0,0,1-.44.64,6,6,0,0,1-1.56.37,6.53,6.53,0,0,1-2.85-.21,3.31,3.31,0,0,1-1.71-1.27,4.54,4.54,0,0,1-.7-2.48A5.05,5.05,0,0,1,151.3,29a3.48,3.48,0,0,1,2-1.58Zm.18,1.82a2.08,2.08,0,0,0-.54,1.35c1.06,0,2.13,0,3.2,0a2.2,2.2,0,0,0-.26-1.31,1.26,1.26,0,0,0-.94-.48,1.87,1.87,0,0,0-1.46.44Z"/><path class="cls-1" d="M162.62,27.23a4.94,4.94,0,0,1,2.63.4,3.4,3.4,0,0,1,1.63,1.73,5.66,5.66,0,0,1,.37,2.64,4.11,4.11,0,0,1-1,2.46,3.6,3.6,0,0,1-2.22,1.16,5.21,5.21,0,0,1-2.57-.23,3.37,3.37,0,0,1-1.81-1.57,5.13,5.13,0,0,1-.54-2.55,4.65,4.65,0,0,1,.64-2.39,3.48,3.48,0,0,1,1.69-1.39,4.56,4.56,0,0,1,1.15-.26Zm.21,1.76a1.4,1.4,0,0,0-1,.78,3.66,3.66,0,0,0-.31,1.5,4.38,4.38,0,0,0,.2,1.57,1.56,1.56,0,0,0,.63.86,1.71,1.71,0,0,0,1.27.18,1.4,1.4,0,0,0,.88-.62,3.28,3.28,0,0,0,.38-1.51,5,5,0,0,0-.16-1.63,1.64,1.64,0,0,0-.62-.92,1.71,1.71,0,0,0-1.27-.21Z"/><path class="cls-1" d="M97.34,27.72a2.65,2.65,0,0,1,1.43-.38.6.6,0,0,1,.43.12.41.41,0,0,1,.13.33c0,.47,0,.93,0,1.4a.29.29,0,0,1-.36.27,5.15,5.15,0,0,0-2.55.32V35a.46.46,0,0,1-.44.46H94.51a.45.45,0,0,1-.43-.46v-7.1a.46.46,0,0,1,.44-.47h1a.6.6,0,0,1,.56.47c.07.24.12.48.18.73a4.78,4.78,0,0,1,1.06-.9Z"/><path class="cls-1" d="M100.77,27.44a4.43,4.43,0,0,1,.89,0c.26,0,.52,0,.78,0a.47.47,0,0,1,.38.48v7a.56.56,0,0,1-.14.48.57.57,0,0,1-.44.14h-1.3a.45.45,0,0,1-.45-.47v-7.1a.46.46,0,0,1,.28-.45Z"/><path class="cls-1" d="M128.72,27.83a.29.29,0,0,1,.23-.42c.53,0,1.06,0,1.59,0a.66.66,0,0,1,.66.46q.81,2.78,1.63,5.53c.52-1.75,1-3.5,1.57-5.26a1.36,1.36,0,0,1,.22-.51.69.69,0,0,1,.51-.22h1.4a.42.42,0,0,1,.34.11.36.36,0,0,1,0,.36c-.93,2.38-1.84,4.75-2.77,7.13a.7.7,0,0,1-.63.46h-1.06a1.49,1.49,0,0,1-.52-.06.76.76,0,0,1-.42-.46c-.92-2.37-1.85-4.74-2.77-7.12Z"/><path class="cls-1" d="M138.13,27.42a2.07,2.07,0,0,1,.43,0h1.16a.45.45,0,0,1,.42.48V35a.46.46,0,0,1-.43.47h-1.39a.48.48,0,0,1-.43-.19.76.76,0,0,1-.08-.47V27.89a.47.47,0,0,1,.32-.47Z"/><path class="cls-1" d="M93.68,0A10.44,10.44,0,1,1,83.24,10.44,10.44,10.44,0,0,1,93.68,0Z"/><path class="cls-2" d="M91,6.17l8,3.66c.3.15.56.27.56.64s-.29.51-.56.65l-8,3.66c-.27,0-.55-.11-.55-.47V6.64c0-.36.28-.47.55-.47Z"/></g></g></g></g></g></svg>