<svg xmlns="http://www.w3.org/2000/svg" width="167.268" height="38.801" viewBox="0 0 167.268 38.801"><defs><style>.cls-1{fill:#fff;}.cls-1,.cls-2{fill-rule:evenodd;}.cls-2{fill:#0e0e0e;}</style></defs><title>amazon-client</title><g id="Layer_2" data-name="Layer 2"><g id="NOSOTROS"><g id="CLIENTES"><g id="LOGOS_CLIENTES" data-name="LOGOS CLIENTES"><g id="AMAMZON_PRIME_VIDEO" data-name="AMAMZON PRIME VIDEO"><path class="cls-1" d="M4.893.663A11.259,11.259,0,0,1,8.418.018a10.882,10.882,0,0,1,3.234.357,7.215,7.215,0,0,1,2.141.944,4.768,4.768,0,0,1,1.858,2.334,9.943,9.943,0,0,1,.409,3.376c0,2.013,0,4.025,0,6.039a9.585,9.585,0,0,0,.068,1.571,3.982,3.982,0,0,0,.5,1.372c.238.4.524.761.8,1.133a.887.887,0,0,1,.2.707.66.66,0,0,1-.262.352c-.837.692-1.655,1.406-2.477,2.115a1.615,1.615,0,0,1-.607.4.73.73,0,0,1-.608-.121A8.479,8.479,0,0,1,12.459,19.4c-.307-.38-.569-.793-.849-1.192a9.287,9.287,0,0,1-2.887,2.119,7.886,7.886,0,0,1-3.011.534,5.833,5.833,0,0,1-3.8-1.148A5.088,5.088,0,0,1,.127,16.6a7.1,7.1,0,0,1,.591-4.512A6.25,6.25,0,0,1,3.474,9.429a11.065,11.065,0,0,1,3.008-.94c1.454-.265,2.928-.383,4.4-.539a19.294,19.294,0,0,0-.043-1.939,2.439,2.439,0,0,0-.6-1.425,2.55,2.55,0,0,0-1.722-.7A3.257,3.257,0,0,0,6.229,4.6a2.632,2.632,0,0,0-.84,1.474c-.067.327-.326.683-.694.661-1.158-.122-2.316-.25-3.474-.377A.643.643,0,0,1,.61,5.68,6.536,6.536,0,0,1,1.653,3.071,6.655,6.655,0,0,1,4.893.663ZM8.178,11.157a4.258,4.258,0,0,0-1.794.893,2.981,2.981,0,0,0-.946,1.819A3.741,3.741,0,0,0,5.7,16.028a2.017,2.017,0,0,0,1.207,1.055,2.579,2.579,0,0,0,2.206-.363,4.1,4.1,0,0,0,1.533-2.289,14.3,14.3,0,0,0,.231-3.556,11.145,11.145,0,0,0-2.7.282Z"/><path class="cls-1" d="M55.117.177a11.392,11.392,0,0,1,5.421.361,6.083,6.083,0,0,1,2.369,1.406,4.584,4.584,0,0,1,1.209,2.063,11.2,11.2,0,0,1,.3,3.071c-.006,1.963,0,3.927,0,5.891a7.489,7.489,0,0,0,.159,2.076,5.9,5.9,0,0,0,1.163,2.03.955.955,0,0,1,.251.77c-.046.216-.245.338-.4.474q-1.249,1.047-2.478,2.119a.952.952,0,0,1-.708.3c-.348-.013-.563-.323-.815-.52a9.7,9.7,0,0,1-1.619-2,10.593,10.593,0,0,1-2.311,1.839,6.491,6.491,0,0,1-2.591.762,8.468,8.468,0,0,1-2.787-.133,5.036,5.036,0,0,1-2.426-1.335,5.455,5.455,0,0,1-1.462-3.387,7.192,7.192,0,0,1,.384-3.21,6.032,6.032,0,0,1,2.462-2.981,9.727,9.727,0,0,1,3.439-1.246c1.505-.29,3.036-.407,4.558-.572a15.974,15.974,0,0,0-.062-2.076,2.237,2.237,0,0,0-.741-1.432,2.814,2.814,0,0,0-1.964-.55,3.062,3.062,0,0,0-2.039.86A2.7,2.7,0,0,0,53.736,6.1c-.072.324-.337.674-.7.641q-1.719-.183-3.436-.372a.656.656,0,0,1-.637-.685,6.242,6.242,0,0,1,2.046-3.727A8.293,8.293,0,0,1,55.117.177Zm1,11.1A3.512,3.512,0,0,0,54.3,12.543a3.691,3.691,0,0,0-.522,2.558,2.4,2.4,0,0,0,1.045,1.783,2.5,2.5,0,0,0,2.616-.142,4.13,4.13,0,0,0,1.608-2.475,15.962,15.962,0,0,0,.186-3.392,10.121,10.121,0,0,0-3.111.4Z"/><path class="cls-1" d="M28.791.323a6.345,6.345,0,0,1,2.52-.009A4.237,4.237,0,0,1,33.54,1.559,7.265,7.265,0,0,1,34.867,3.65a5.667,5.667,0,0,1,1.015-1.7,5.054,5.054,0,0,1,2.4-1.518,5.694,5.694,0,0,1,5.226,1.01,4.335,4.335,0,0,1,1.371,2.067,12.338,12.338,0,0,1,.307,3.761c-.019,1.933,0,3.866-.009,5.8q0,3.4,0,6.808a.7.7,0,0,1-.694.685c-1.141.008-2.283,0-3.425,0a1.1,1.1,0,0,1-.629-.112.675.675,0,0,1-.323-.625c.007-3.879-.012-7.759.013-11.638a12.02,12.02,0,0,0-.085-1.541,2.138,2.138,0,0,0-.684-1.343,2.322,2.322,0,0,0-1.48-.433,2.432,2.432,0,0,0-2.056,1.162A3.357,3.357,0,0,0,35.4,7.327a19.738,19.738,0,0,0-.117,2.793q0,4.877,0,9.753a.669.669,0,0,1-.346.593,1.336,1.336,0,0,1-.689.1q-1.641,0-3.282,0a.736.736,0,0,1-.67-.353,1.111,1.111,0,0,1-.085-.577q0-4.854,0-9.707a15.659,15.659,0,0,0-.147-3.261,2.42,2.42,0,0,0-.812-1.443A2.421,2.421,0,0,0,27.4,4.881a2.023,2.023,0,0,0-1.418.979,5.51,5.51,0,0,0-.574,2.477c-.042,1.093-.014,2.189-.023,3.283q0,4.13,0,8.258a.694.694,0,0,1-.7.684c-1.221.006-2.442,0-3.662,0a.686.686,0,0,1-.707-.687q0-9.3,0-18.595a.692.692,0,0,1,.7-.691q1.715-.008,3.43,0a.687.687,0,0,1,.69.647c.008.8-.006,1.6.007,2.4l.058.007a6.5,6.5,0,0,1,1.046-1.81A4.526,4.526,0,0,1,28.791.323Z"/><path class="cls-1" d="M114.287.626a5.771,5.771,0,0,1,2.779-.414,4.924,4.924,0,0,1,2.962,1.2,4.611,4.611,0,0,1,1.277,1.914,13.619,13.619,0,0,1,.52,4.235c.006,4.105,0,8.21,0,12.315a.664.664,0,0,1-.511.66,2.743,2.743,0,0,1-.58.029c-1.092,0-2.183,0-3.275,0a.686.686,0,0,1-.7-.639q0-4.926,0-9.853c0-.819.03-1.639-.034-2.457a4.384,4.384,0,0,0-.5-1.907,1.806,1.806,0,0,0-1.075-.823,2.336,2.336,0,0,0-1.469.058,2.577,2.577,0,0,0-1.347,1.3,7.128,7.128,0,0,0-.593,2.816c-.024.8-.009,1.611-.013,2.417v8.064a1.643,1.643,0,0,1-.05.585.729.729,0,0,1-.69.439c-1.206,0-2.412,0-3.618,0a.693.693,0,0,1-.712-.685q0-9.3,0-18.6A.654.654,0,0,1,106.976.7a.88.88,0,0,1,.484-.107c1.1,0,2.19,0,3.285,0a.705.705,0,0,1,.634.357.982.982,0,0,1,.061.482c0,.854-.007,1.708,0,2.561a.186.186,0,0,0,.106-.1,8.263,8.263,0,0,1,1.077-1.93,4.425,4.425,0,0,1,1.66-1.333Z"/><path class="cls-1" d="M68.846,1.23A.659.659,0,0,1,69.5.581q6.039-.008,12.079,0a.7.7,0,0,1,.649.347,1.074,1.074,0,0,1,.082.55q0,.992,0,1.981a2.217,2.217,0,0,1-.505,1.2L75.137,14.1a13.925,13.925,0,0,1,6.406,1.216,2.237,2.237,0,0,1,.915.636,1.519,1.519,0,0,1,.216.932c0,.855,0,1.71,0,2.565a.7.7,0,0,1-.615.695,1.5,1.5,0,0,1-.578-.22,14.038,14.038,0,0,0-12.217.053c-.18.086-.365.225-.576.174a.72.72,0,0,1-.534-.7c0-.806,0-1.611,0-2.417a3.419,3.419,0,0,1,.5-2.159q3.6-5.132,7.206-10.265-3.153,0-6.3,0a.694.694,0,0,1-.6-.3.776.776,0,0,1-.108-.454c0-.872,0-1.743,0-2.614Z"/><path class="cls-1" d="M74.745,21.507a14.174,14.174,0,0,1,3.549.245,4,4,0,0,1,1.28.462.82.82,0,0,1,.326.564,5.629,5.629,0,0,1,.026,1.593,14.892,14.892,0,0,1-1.449,4.909,10.682,10.682,0,0,1-2.648,3.494.776.776,0,0,1-.758.222.433.433,0,0,1-.131-.567,39.009,39.009,0,0,0,1.85-5.36,5.846,5.846,0,0,0,.19-1.937.986.986,0,0,0-.438-.755,3.858,3.858,0,0,0-1.587-.41,34.8,34.8,0,0,0-6.318.347c-.2.021-.456-.037-.512-.255a.693.693,0,0,1,.342-.635,9.538,9.538,0,0,1,2.519-1.243,14.293,14.293,0,0,1,3.759-.674Z"/><path class="cls-1" d="M17.027,22.749a.8.8,0,0,1,.729.1,62.581,62.581,0,0,0,21.806,7.514,61.746,61.746,0,0,0,15.455.4A62.969,62.969,0,0,0,72.4,26.433a2.78,2.78,0,0,1,1.07-.324.966.966,0,0,1,.931.659.949.949,0,0,1-.34.945c-.237.2-.5.367-.753.552a39.744,39.744,0,0,1-10.582,5.054A49.166,49.166,0,0,1,49.9,35.566a47.541,47.541,0,0,1-17.33-2.623,46.136,46.136,0,0,1-15.3-8.973c-.2-.178-.444-.342-.509-.617a.5.5,0,0,1,.269-.6Z"/><path class="cls-1" d="M101.35,23.87a1.686,1.686,0,0,1,1.329.259,1.116,1.116,0,0,1,0,1.689,1.616,1.616,0,0,1-1.166.285,1.308,1.308,0,0,1-.911-.435,1.166,1.166,0,0,1-.167-1.088,1.144,1.144,0,0,1,.911-.71Z"/><path class="cls-1" d="M137.667,23.814h2.753q0,1.163,0,2.325-1.377,0-2.754,0c0-.775,0-1.549,0-2.323Z"/><path class="cls-1" d="M147.189,24.273a.451.451,0,0,1,.449-.448c.5,0,1-.006,1.5,0a.46.46,0,0,1,.433.493V34.994a.462.462,0,0,1-.385.492c-.289.025-.58,0-.869.011a1.116,1.116,0,0,1-.716-.128.929.929,0,0,1-.3-.582,3.52,3.52,0,0,1-2.22.876,3.285,3.285,0,0,1-2.365-.774,4.023,4.023,0,0,1-1.219-2.531,6.423,6.423,0,0,1,.2-2.642,3.662,3.662,0,0,1,1.6-2.106,3.738,3.738,0,0,1,3.892.3c0-1.211,0-2.423,0-3.634Zm-2.868,5.234a2.834,2.834,0,0,0-.447,1.477,5.244,5.244,0,0,0,.117,1.638,1.81,1.81,0,0,0,.565.96,1.674,1.674,0,0,0,1.006.349,2.8,2.8,0,0,0,1.628-.443c-.008-1.386,0-2.774,0-4.161a3.288,3.288,0,0,0-1.866-.376,1.4,1.4,0,0,0-1,.556Z"/><path class="cls-1" d="M86.914,28.184a3.821,3.821,0,0,1,2.774-.992,3.007,3.007,0,0,1,1.921.761A3.985,3.985,0,0,1,92.8,30.411a6.4,6.4,0,0,1-.245,2.9,3.622,3.622,0,0,1-1.517,1.964,3.224,3.224,0,0,1-2.09.406,3.4,3.4,0,0,1-1.8-.747c0,1.131,0,2.262,0,3.393a.459.459,0,0,1-.441.474c-.486,0-.971,0-1.456,0a.459.459,0,0,1-.452-.477q0-5.19,0-10.379a.467.467,0,0,1,.383-.508c.25-.02.5,0,.752-.009a1.068,1.068,0,0,1,.682.12.971.971,0,0,1,.309.639Zm.2,1.164c0,1.41,0,2.819,0,4.229a3.04,3.04,0,0,0,2.031.388,1.414,1.414,0,0,0,.953-.636,3.17,3.17,0,0,0,.379-1.477,6.07,6.07,0,0,0-.1-1.552,1.9,1.9,0,0,0-.511-1,1.568,1.568,0,0,0-.951-.377,3.15,3.15,0,0,0-1.8.424Z"/><path class="cls-1" d="M108.625,27.267a3.514,3.514,0,0,1,1.91.107,1.946,1.946,0,0,1,.948.816,5.748,5.748,0,0,1,2.3-.951,3,3,0,0,1,2.278.413,2.233,2.233,0,0,1,.78,1.789q.006,2.775,0,5.55a.456.456,0,0,1-.443.461c-.47.005-.939,0-1.408,0a.456.456,0,0,1-.466-.371,4.015,4.015,0,0,1-.01-.478V30.018a1.246,1.246,0,0,0-.209-.762.873.873,0,0,0-.662-.3,4.071,4.071,0,0,0-1.842.4c0,1.88,0,3.76,0,5.641a.46.46,0,0,1-.468.459q-.7,0-1.4,0a.458.458,0,0,1-.455-.466c0-1.657,0-3.315,0-4.972a1.22,1.22,0,0,0-.219-.773.89.89,0,0,0-.682-.293,3.994,3.994,0,0,0-1.824.416c-.008,1.875,0,3.75,0,5.624a.455.455,0,0,1-.435.461q-.729.009-1.456,0a.454.454,0,0,1-.435-.462q0-3.549,0-7.1a.455.455,0,0,1,.439-.467c.323-.006.646,0,.969,0a.629.629,0,0,1,.592.357c.053.134.083.276.126.414a5.863,5.863,0,0,1,2.087-.926Z"/><path class="cls-1" d="M119.4,28.1a3.878,3.878,0,0,1,2.259-.88,4.551,4.551,0,0,1,2.242.312,2.658,2.658,0,0,1,1.326,1.331,4.4,4.4,0,0,1,.28,2.221,4.094,4.094,0,0,1-.064.494.565.565,0,0,1-.544.416c-1.532,0-3.065,0-4.6,0a2.159,2.159,0,0,0,.495,1.35,2.207,2.207,0,0,0,1.392.579,9.151,9.151,0,0,0,2.75-.269.35.35,0,0,1,.411.294c.017.219.006.439.007.66a.7.7,0,0,1-.441.643,6.522,6.522,0,0,1-1.948.407,6.593,6.593,0,0,1-2.222-.178,3.467,3.467,0,0,1-1.76-1.1,4.045,4.045,0,0,1-.851-2.2,6.329,6.329,0,0,1,.135-2.228A3.623,3.623,0,0,1,119.4,28.1Zm1.383,1.183a2.088,2.088,0,0,0-.5,1.3c1.069,0,2.137,0,3.206,0a2.355,2.355,0,0,0-.211-1.224,1.148,1.148,0,0,0-.845-.551,1.859,1.859,0,0,0-1.654.473Z"/><path class="cls-1" d="M153.29,27.412a5.33,5.33,0,0,1,2.466-.129,2.827,2.827,0,0,1,1.983,1.329,4.534,4.534,0,0,1,.36,2.9.569.569,0,0,1-.558.481c-1.533,0-3.065,0-4.6,0a1.823,1.823,0,0,0,1.82,1.921,8.97,8.97,0,0,0,2.823-.261.348.348,0,0,1,.405.294c.018.22.006.442.008.663a.706.706,0,0,1-.443.64,6.019,6.019,0,0,1-1.559.371,6.641,6.641,0,0,1-2.849-.216,3.339,3.339,0,0,1-1.709-1.271,4.582,4.582,0,0,1-.7-2.475,5.02,5.02,0,0,1,.563-2.668,3.458,3.458,0,0,1,1.987-1.58Zm.181,1.823a2.071,2.071,0,0,0-.546,1.348c1.07,0,2.139,0,3.209,0a2.182,2.182,0,0,0-.268-1.312,1.215,1.215,0,0,0-.938-.481,1.828,1.828,0,0,0-1.457.444Z"/><path class="cls-1" d="M162.617,27.227a4.921,4.921,0,0,1,2.63.4,3.472,3.472,0,0,1,1.636,1.735A5.553,5.553,0,0,1,167.245,32a4.151,4.151,0,0,1-.962,2.464,3.63,3.63,0,0,1-2.223,1.157,5.28,5.28,0,0,1-2.574-.225,3.436,3.436,0,0,1-1.81-1.574,5.066,5.066,0,0,1-.531-2.549,4.64,4.64,0,0,1,.637-2.39,3.438,3.438,0,0,1,1.69-1.39,4.4,4.4,0,0,1,1.145-.263Zm.21,1.763a1.392,1.392,0,0,0-1,.777,3.561,3.561,0,0,0-.306,1.5,4.6,4.6,0,0,0,.193,1.566,1.6,1.6,0,0,0,.636.863,1.74,1.74,0,0,0,1.269.178,1.369,1.369,0,0,0,.878-.624,3.177,3.177,0,0,0,.385-1.5,4.939,4.939,0,0,0-.16-1.638,1.68,1.68,0,0,0-.623-.914,1.734,1.734,0,0,0-1.273-.211Z"/><path class="cls-1" d="M97.336,27.718a2.614,2.614,0,0,1,1.43-.373.639.639,0,0,1,.438.11.418.418,0,0,1,.124.34c0,.464,0,.93,0,1.394a.293.293,0,0,1-.362.274,5.108,5.108,0,0,0-2.557.317c0,1.738,0,3.475,0,5.212a.455.455,0,0,1-.433.459q-.729.009-1.458,0a.452.452,0,0,1-.434-.461q0-3.549,0-7.1a.453.453,0,0,1,.435-.469c.341,0,.683,0,1.024,0a.6.6,0,0,1,.565.463c.062.243.115.487.176.729a5.007,5.007,0,0,1,1.056-.9Z"/><path class="cls-1" d="M100.77,27.438a4.749,4.749,0,0,1,.894-.035c.259.006.52-.013.779.009a.459.459,0,0,1,.376.479c0,2.319,0,4.637,0,6.956a.6.6,0,0,1-.138.481.551.551,0,0,1-.439.137c-.435,0-.87,0-1.3,0a.459.459,0,0,1-.452-.473q0-3.549,0-7.1a.465.465,0,0,1,.283-.453Z"/><path class="cls-1" d="M128.723,27.83a.285.285,0,0,1,.226-.421c.531-.015,1.064,0,1.6-.006a.648.648,0,0,1,.652.459q.816,2.766,1.63,5.533.789-2.631,1.577-5.262a1.292,1.292,0,0,1,.214-.509.646.646,0,0,1,.515-.221c.466,0,.933,0,1.4,0a.411.411,0,0,1,.336.1.354.354,0,0,1,.019.364Q135.5,31.434,134.123,35a.725.725,0,0,1-.636.462c-.354.008-.708,0-1.061,0a1.27,1.27,0,0,1-.517-.058.74.74,0,0,1-.415-.452q-1.383-3.564-2.771-7.125Z"/><path class="cls-1" d="M138.133,27.424a1.94,1.94,0,0,1,.425-.021c.388.005.777-.008,1.166,0a.457.457,0,0,1,.417.485q0,3.552,0,7.1a.459.459,0,0,1-.431.467c-.465.009-.929,0-1.393,0a.482.482,0,0,1-.421-.2.744.744,0,0,1-.086-.471q0-3.456,0-6.91a.46.46,0,0,1,.323-.465Z"/><path class="cls-1" d="M93.68,0A10.439,10.439,0,1,1,83.241,10.438,10.438,10.438,0,0,1,93.68,0Z"/><path class="cls-2" d="M90.954,6.17l7.962,3.662c.308.148.567.267.567.642s-.291.511-.567.643l-7.962,3.662c-.278,0-.549-.111-.549-.469V6.639c0-.358.271-.469.549-.469Z"/></g></g></g></g></g></svg>