<?xml version="1.0" encoding="utf-8"?>
<!-- Generator: Adobe Illustrator 22.0.0, SVG Export Plug-In . SVG Version: 6.00 Build 0)  -->
<svg version="1.1" id="Layer_1" xmlns="http://www.w3.org/2000/svg" xmlns:xlink="http://www.w3.org/1999/xlink" x="0px" y="0px"
	 viewBox="0 0 139.9 24.7" style="enable-background:new 0 0 139.9 24.7;" xml:space="preserve">
<style type="text/css">
	.st0{fill:#FFFFFF;}
</style>
<title>azteca-client</title>
<g id="Layer_2_1_">
	<g id="NOSOTROS">
		<g id="CLIENTES">
			<g id="LOGOS_CLIENTES">
				<g id="TV_AZTECA">
					<path class="st0" d="M147.9,23.3h-2.5c-0.7,0-1.3,0-2,0c-0.5,0-0.7-0.2-0.7-0.6c-0.1-0.4-0.2-0.8-0.3-1.4
						c-0.3,0.3-0.5,0.4-0.6,0.6c-2.4,2.1-5.9,2.4-8.7,0.7c-2.7-2.1-3.1-5.9-1-8.6c0.5-0.7,1.2-1.2,2-1.6c1.6-0.8,3.4-1.3,5.2-1.5
						c0.7-0.1,1.4-0.1,2.2-0.1c0.4,0,0.5-0.2,0.5-0.5c0-0.9-0.6-1.7-1.4-2c-1.5-0.5-3.1-0.6-4.6-0.1c-0.9,0.2-1.8,0.6-2.8,1
						c-0.2-0.9-0.5-1.8-0.8-2.7c-0.2-0.9-0.4-0.8,0.6-1.2c3-1.3,6.4-1.6,9.6-0.9c2.8,0.6,4.8,3,5,5.9c0.1,1.6,0.1,3.2,0.1,4.8
						c0,1.4,0,2.7,0,4.1C147.7,20.5,147.8,21.9,147.9,23.3z M142.2,15.9c0-0.4,0-0.6,0-0.8c0.1-0.6-0.2-0.9-0.8-0.8
						c-0.4,0-0.8,0.1-1.3,0.1c-0.9,0.2-1.7,0.5-2.5,0.8c-1,0.5-1.4,1.7-1.1,2.7c0.2,0.9,0.8,1.5,1.7,1.7c0.9,0.2,1.8,0,2.5-0.5
						C141.8,18.5,142.3,17.2,142.2,15.9L142.2,15.9z"/>
					<path class="st0" d="M56.6,21.3c-0.1,0.2-0.2,0.4-0.4,0.6c-2.3,2.1-5.8,2.4-8.5,0.9c-3.5-2.2-3.6-8,0.7-10.4
						c1.6-0.9,3.5-1.4,5.3-1.5c0.7-0.1,1.4-0.1,2.2-0.1c0.4,0,0.5-0.2,0.5-0.5c-0.1-1.2-1-2.2-2.2-2.3c-2-0.3-4.1,0-5.9,0.9
						c-0.2,0.1-0.3,0.2-0.6,0.3C47.4,8.1,47,7,46.8,5.8c0-0.1,0.2-0.4,0.4-0.4c1.4-0.5,2.8-0.9,4.3-1.2c1.8-0.4,3.7-0.3,5.6,0.2
						c2.8,0.6,4.9,3,5.1,5.9c0.1,0.8,0.1,1.6,0.1,2.4c0.1,3.4,0.2,6.9,0.2,10.3c-0.1,0.2-0.2,0.3-0.4,0.4c-1.4,0-2.9,0-4.3,0
						c-0.2,0-0.4-0.3-0.5-0.6c-0.1-0.4-0.2-0.8-0.2-1.3L56.6,21.3z M56.7,15.9c0-0.4,0-0.7,0-0.9c0-0.5-0.2-0.7-0.7-0.7
						c-0.4,0-0.9,0-1.3,0.1c-1.1,0.1-2.2,0.5-3,1.2c-0.7,0.7-0.9,1.7-0.6,2.6c0.2,0.8,0.9,1.4,1.7,1.5c0.9,0.2,1.8,0,2.5-0.5
						C56.3,18.4,56.9,17.1,56.7,15.9z"/>
					<path class="st0" d="M111,18.7c0.2,1.2,0.5,2.4,0.7,3.5c0,0.1-0.2,0.4-0.4,0.4c-1.2,0.3-2.3,0.6-3.5,0.8
						c-2.2,0.4-4.4,0.3-6.5-0.3c-3.5-0.9-6-4-6.3-7.6c-0.4-2.9,0.3-5.8,2-8.1c2.1-2.8,5.1-3.7,8.5-3.4c4.3,0.4,6.7,3.6,7.2,7.5
						c0.1,1.1,0,2.3,0.1,3.4c0,0.5-0.2,0.7-0.8,0.7c-3.6,0-7.2,0-10.7,0c-0.9,0-1,0.1-0.7,1c0.6,1.5,2.1,2.6,3.7,2.7
						c2.1,0.3,4.2,0.2,6.2-0.4C110.6,18.8,110.8,18.8,111,18.7z M100.4,11.8c2.3,0,4.5,0,6.8,0c0.1,0,0.3-0.2,0.3-0.4
						c0.1-1.6-0.9-3.1-2.5-3.5c-2-0.5-4.1,0.8-4.5,2.8C100.4,11,100.4,11.4,100.4,11.8z"/>
					<path class="st0" d="M73.5,8.9c-0.4,0-0.6-0.1-0.9-0.1c-2.3,0-4.5,0-6.8,0c-0.6,0-0.8-0.2-0.7-0.8c0-1,0-2,0-3
						c0-0.5,0.1-0.7,0.6-0.7c4.7,0,9.4,0,14.1,0c0.4,0,0.6,0.1,0.7,0.6c0.2,1.8-0.3,3.5-1.6,4.8c-2.5,2.7-4.7,5.6-7.1,8.5
						c-0.1,0.1-0.1,0.2-0.2,0.4c0.3,0,0.6,0.1,0.9,0.1c2.5,0,5,0,7.5,0c0.6,0,0.8,0.2,0.8,0.8c0,1,0,2.1,0,3.1
						c0,0.4-0.1,0.6-0.6,0.6c-5,0-10.1,0-15.1,0c-0.4,0-0.6-0.1-0.6-0.6c0-0.7,0-1.5,0-2.2c0-0.3,0.1-0.6,0.3-0.9
						c2.8-3.4,5.5-6.7,8.3-10.1C73.2,9.3,73.3,9.2,73.5,8.9z"/>
					<path class="st0" d="M21.2,4.4h1.6c1.3,0,2.7,0,4,0c0.3-0.1,0.6,0.2,0.7,0.5c0,0,0,0,0,0c1.1,4.1,2.2,8.2,3.4,12.3
						c0.1,0.2,0.2,0.4,0.3,0.6c0.1-0.2,0.2-0.5,0.2-0.7c1.1-4,2.1-8.1,3.2-12.1c0.1-0.2,0.3-0.5,0.5-0.5c1.8,0,3.7,0,5.6,0
						c-0.1,0.4-0.2,0.8-0.4,1.1c-2.1,5.7-4.2,11.4-6.4,17.1c-0.1,0.4-0.5,0.7-1,0.7c-1.5,0-3,0-4.5,0c-0.3,0-0.7-0.2-0.8-0.5
						c-2.2-6-4.3-11.9-6.5-17.9C21.2,4.7,21.2,4.6,21.2,4.4z"/>
					<path class="st0" d="M89.5-1c0,1.6,0,3,0,4.5c0,1,0,1,1,1c0.9,0,1.7,0,2.6,0c0.5,0,0.7,0.1,0.7,0.7c0,1,0,1.9,0,2.9
						c0,0.5-0.1,0.6-0.6,0.6c-1,0-2.1,0-3.1,0c-0.4,0-0.6,0.1-0.6,0.6c0,2.5,0,4.9,0.1,7.4c0.1,2,1.1,2.7,3.1,2.5
						c0.9-0.1,0.9-0.1,0.9,0.8c0,1,0,1.9,0.1,2.9c0,0.3,0,0.6-0.4,0.7c-1.8,0.5-3.7,0.5-5.5,0c-2.1-0.5-3.6-2.4-3.7-4.6
						c-0.2-2.2-0.1-4.4-0.2-6.6c0-1,0-1.9,0-2.9c0-0.5-0.1-0.7-0.6-0.6c-0.5,0-1,0-1.5,0c-0.2-0.1-0.4-0.2-0.4-0.4
						c0-1.1,0-2.2,0-3.3c0.1-0.2,0.2-0.4,0.4-0.4c0.5,0,0.9-0.1,1.4,0c0.5,0,0.7-0.2,0.7-0.7c0-1,0-2,0-2.9c0-0.2,0.2-0.6,0.3-0.6
						C85.9-0.2,87.6-0.6,89.5-1z"/>
					<path class="st0" d="M16.1-1c0,1.6,0,3,0,4.5c0,1,0,1,1,1c0.9,0,1.8,0,2.7,0c0.4,0,0.5,0.1,0.5,0.6c0,1,0,2,0,3.1
						c0,0.4-0.1,0.5-0.5,0.5c-1,0-2.1,0-3.1,0c-0.4,0-0.6,0.1-0.6,0.5c0,2.5,0,5,0.1,7.5c0.1,2,1.2,2.7,3.2,2.4
						c0.8-0.1,0.8-0.1,0.8,0.7c0,1,0,2,0.1,3c0.1,0.3-0.1,0.6-0.4,0.6c0,0,0,0-0.1,0c-1.8,0.5-3.6,0.5-5.4,0.1
						c-2.1-0.5-3.7-2.4-3.7-4.6c-0.2-1.9-0.1-3.7-0.2-5.6c0-1.3,0-2.6,0-3.9c0-0.5-0.1-0.8-0.7-0.7c-0.5,0-0.9,0-1.4,0
						C8.3,8.5,8.1,8.4,8,8.2C8,7.1,8,6,8,4.9c0-0.2,0.3-0.4,0.5-0.4c0.5,0,1-0.1,1.5,0c0.4,0,0.6-0.2,0.6-0.6c0-1,0-2,0-3
						c0-0.2,0.2-0.6,0.4-0.6C12.6-0.2,14.3-0.6,16.1-1z"/>
					<path class="st0" d="M129.5,22.9c-0.9,0.2-1.8,0.4-2.7,0.6c-2.4,0.4-4.9,0.2-7.1-0.7c-3-1.2-5-4-5.3-7.1
						c-0.4-2.6,0.1-5.2,1.5-7.4c1.7-2.4,4.3-3.9,7.2-4.2c1.9-0.2,3.8-0.1,5.7,0.4c0.5,0.1,0.7,0.2,0.5,0.8c-0.3,1-0.5,2.1-0.7,3.2
						c0,0.1-0.1,0.2-0.1,0.2c-1.1-0.1-2.2-0.3-3.3-0.3c-2.7-0.1-5.1,2-5.2,4.8c0,0.1,0,0.3,0,0.4c-0.2,2,0.7,3.9,2.4,4.9
						c1.6,0.8,3.5,1,5.2,0.5c0.3-0.1,0.7-0.2,1.1-0.3L129.5,22.9z"/>
				</g>
			</g>
		</g>
	</g>
</g>
</svg>
