<svg xmlns="http://www.w3.org/2000/svg" width="139.879" height="24.712" viewBox="0 0 139.879 24.712"><defs><style>.cls-1{fill:#fff;}</style></defs><title>azteca-client</title><g id="Layer_2" data-name="Layer 2"><g id="NOSOTROS"><g id="CLIENTES"><g id="LOGOS_CLIENTES" data-name="LOGOS CLIENTES"><g id="TV_AZTECA" data-name="TV AZTECA"><path class="cls-1" d="M139.879,24.3h-2.471c-.66,0-1.322-.034-1.978.011-.509.034-.679-.2-.741-.646-.057-.411-.159-.817-.272-1.384-.288.26-.469.415-.64.581a7.275,7.275,0,0,1-8.686.74,6.128,6.128,0,0,1,.954-10.248,13.824,13.824,0,0,1,5.241-1.468c.718-.071,1.442-.106,2.164-.124.362-.01.478-.154.478-.5A2.262,2.262,0,0,0,132.5,9.24a7.028,7.028,0,0,0-4.569-.068c-.921.234-1.806.609-2.8.953-.25-.856-.532-1.776-.785-2.7-.248-.9-.378-.8.58-1.182a15.482,15.482,0,0,1,9.614-.862,6.445,6.445,0,0,1,5.016,5.91c.13,1.607.115,3.227.139,4.842.021,1.362-.017,2.725.011,4.086C139.738,21.548,139.818,22.879,139.879,24.3Zm-5.723-7.432c0-.392-.019-.607,0-.817.067-.607-.18-.871-.8-.792a9.219,9.219,0,0,0-1.265.123,11.667,11.667,0,0,0-2.507.836,2.4,2.4,0,0,0-1.123,2.748,2.073,2.073,0,0,0,1.7,1.688,3.35,3.35,0,0,0,2.5-.468A3.387,3.387,0,0,0,134.156,16.87Z"/><path class="cls-1" d="M48.647,22.265a2.743,2.743,0,0,1-.363.606,7.233,7.233,0,0,1-8.463.857c-3.452-2.17-3.552-8.04.716-10.35a13.677,13.677,0,0,1,5.3-1.491c.718-.069,1.441-.107,2.163-.123.383-.009.455-.194.455-.522a2.448,2.448,0,0,0-2.219-2.263,10.062,10.062,0,0,0-5.946.947c-.173.077-.341.165-.6.289-.327-1.146-.659-2.254-.939-3.375-.029-.114.224-.4.392-.448a41.714,41.714,0,0,1,4.273-1.2,12.647,12.647,0,0,1,5.564.16,6.546,6.546,0,0,1,5.116,5.9c.082.78.112,1.567.131,2.351q.127,5.163.217,10.326a.519.519,0,0,1-.362.356c-1.446.026-2.894.037-4.339-.01-.179-.006-.423-.344-.5-.575A8.7,8.7,0,0,1,49,22.422Zm.035-5.409c0-.414-.018-.67,0-.923.047-.547-.222-.723-.725-.672-.443.044-.891.049-1.33.115a4.952,4.952,0,0,0-3,1.224,2.566,2.566,0,0,0-.554,2.609,1.952,1.952,0,0,0,1.683,1.457,3.326,3.326,0,0,0,2.492-.511A3.392,3.392,0,0,0,48.682,16.856Z"/><path class="cls-1" d="M103.044,19.742c.235,1.219.47,2.359.656,3.508.02.127-.218.4-.377.436a35.724,35.724,0,0,1-3.534.8,15.153,15.153,0,0,1-6.511-.31,8.437,8.437,0,0,1-6.268-7.551,10.959,10.959,0,0,1,2.025-8.143c2.122-2.8,5.063-3.727,8.462-3.435,4.344.372,6.749,3.575,7.194,7.513.128,1.132.042,2.287.058,3.432.008.522-.246.66-.753.657-3.577-.021-7.154-.012-10.731-.011-.91,0-1.016.133-.7,1A4.3,4.3,0,0,0,96.259,20.3a14.888,14.888,0,0,0,6.19-.42C102.612,19.843,102.775,19.806,103.044,19.742Zm-10.63-6.971c2.291,0,4.54,0,6.788-.016.114,0,.307-.222.325-.359a3.568,3.568,0,0,0-2.475-3.542A3.779,3.779,0,0,0,92.414,12.771Z"/><path class="cls-1" d="M65.509,9.939c-.4-.026-.649-.055-.894-.056-2.257,0-4.513-.022-6.769.011-.6.009-.771-.2-.749-.769.037-1,.027-2,0-3-.012-.482.134-.687.649-.685q7.056.019,14.112,0c.449,0,.6.134.651.613a5.77,5.77,0,0,1-1.566,4.8c-2.457,2.735-4.722,5.643-7.065,8.48-.065.078-.114.169-.239.36.342.037.6.088.855.088,2.512.007,5.024.021,7.535-.008.6-.007.775.186.753.766-.039,1.042-.025,2.086,0,3.129.009.445-.1.646-.6.645q-7.566-.023-15.133,0c-.442,0-.615-.149-.6-.59.018-.744-.028-1.492.019-2.234a1.706,1.706,0,0,1,.335-.916q4.143-5.062,8.322-10.094C65.221,10.348,65.311,10.21,65.509,9.939Z"/><path class="cls-1" d="M13.165,5.446h1.561c1.341,0,2.682.009,4.023,0a.6.6,0,0,1,.7.484q1.68,6.176,3.374,12.348a1.2,1.2,0,0,0,.314.562c.083-.232.182-.459.244-.7,1.065-4.045,2.119-8.092,3.2-12.132.057-.213.319-.527.492-.53,1.845-.039,3.692-.024,5.633-.024-.14.422-.24.76-.363,1.09q-3.18,8.544-6.354,17.09a.851.851,0,0,1-.958.682c-1.51-.042-3.022-.027-4.533-.006a.675.675,0,0,1-.752-.513q-3.251-8.958-6.517-17.912A2.52,2.52,0,0,1,13.165,5.446Z"/><path class="cls-1" d="M81.466,0c0,1.568,0,3.011,0,4.453,0,.988,0,.989.994.991.873,0,1.746.019,2.617-.006.5-.014.739.115.713.679-.042.956-.032,1.915,0,2.872.014.469-.134.642-.616.628-1.042-.029-2.086,0-3.128-.014-.411-.008-.582.146-.576.553.034,2.466-.015,4.936.114,7.4.1,1.987,1.147,2.728,3.11,2.461.876-.119.872-.119.89.774.019.957.041,1.914.072,2.87.011.33-.041.578-.429.658a11.207,11.207,0,0,1-5.483.046,4.855,4.855,0,0,1-3.669-4.625c-.184-2.2-.13-4.416-.169-6.626q-.024-1.436,0-2.872c.008-.453-.138-.669-.624-.637a7.973,7.973,0,0,1-1.466-.015.637.637,0,0,1-.437-.431c-.038-1.083-.038-2.17,0-3.254a.655.655,0,0,1,.45-.433,8.394,8.394,0,0,1,1.4-.023c.483.016.69-.174.677-.677-.025-.978-.028-1.958.011-2.935.008-.222.184-.587.347-.628C77.949.784,79.645.414,81.466,0Z"/><path class="cls-1" d="M8.13,0c0,1.573,0,3.017,0,4.46,0,.982,0,.983,1,.985.916,0,1.831.013,2.747,0,.418-.008.545.147.531.569-.033,1.021-.037,2.044,0,3.065.016.444-.14.548-.545.54-1.043-.02-2.087.005-3.13-.012-.387-.006-.608.1-.6.527.033,2.489-.011,4.981.112,7.466.1,1.952,1.175,2.7,3.153,2.41.82-.119.815-.119.834.7.022,1,.045,2,.084,3a.522.522,0,0,1-.481.618,11.226,11.226,0,0,1-5.364.058,4.876,4.876,0,0,1-3.736-4.578c-.184-1.856-.14-3.737-.172-5.607-.023-1.3-.02-2.6,0-3.9.009-.509-.143-.75-.691-.7a6.7,6.7,0,0,1-1.4-.014.645.645,0,0,1-.443-.429Q-.029,7.531.031,5.9c0-.157.28-.41.454-.433a10.234,10.234,0,0,1,1.466-.026c.427.008.615-.175.609-.613-.014-1-.024-2,.015-3,.008-.22.189-.584.354-.625C4.613.782,6.311.413,8.13,0Z"/><path class="cls-1" d="M121.531,23.931c-.923.2-1.8.437-2.691.566a13.041,13.041,0,0,1-7.141-.7,8.457,8.457,0,0,1-5.254-7.135,10.308,10.308,0,0,1,1.549-7.38,9.776,9.776,0,0,1,7.224-4.172,14.668,14.668,0,0,1,5.688.372c.455.117.7.242.546.814-.279,1.044-.456,2.115-.684,3.173a.857.857,0,0,1-.114.247c-1.129-.124-2.2-.331-3.269-.343a4.97,4.97,0,0,0-5.159,5.149,5.189,5.189,0,0,0,2.366,4.918,7.022,7.022,0,0,0,5.2.542c.347-.065.689-.161,1.077-.254Z"/></g></g></g></g></g></svg>