<svg xmlns="http://www.w3.org/2000/svg" viewBox="0 0 139.88 24.71"><defs><style>.cls-1{fill:#fff;}</style></defs><title>azteca-client</title><g id="Layer_2" data-name="Layer 2"><g id="NOSOTROS"><g id="CLIENTES"><g id="LOGOS_CLIENTES" data-name="LOGOS CLIENTES"><g id="TV_AZTECA" data-name="TV AZTECA"><path class="cls-1" d="M139.88,24.3h-2.47c-.66,0-1.32,0-2,0s-.68-.2-.74-.64-.16-.82-.27-1.39l-.64.58a7.28,7.28,0,0,1-8.69.74,6.12,6.12,0,0,1,1-10.24,13.75,13.75,0,0,1,5.24-1.47c.71-.07,1.44-.11,2.16-.13.36,0,.48-.15.48-.5a2.26,2.26,0,0,0-1.43-2,7.08,7.08,0,0,0-4.57-.07c-.92.24-1.8.61-2.79,1-.25-.86-.54-1.78-.79-2.71s-.38-.8.58-1.18a15.48,15.48,0,0,1,9.61-.86,6.44,6.44,0,0,1,5,5.91c.13,1.61.11,3.23.14,4.84,0,1.36,0,2.72,0,4.09S139.82,22.88,139.88,24.3Zm-5.72-7.43c0-.39,0-.61,0-.82.07-.6-.18-.87-.8-.79a8.68,8.68,0,0,0-1.26.12,12.34,12.34,0,0,0-2.51.84A2.39,2.39,0,0,0,128.47,19a2.08,2.08,0,0,0,1.69,1.69,3.35,3.35,0,0,0,4-3.79Z"/><path class="cls-1" d="M48.65,22.26a2.48,2.48,0,0,1-.37.61,7.24,7.24,0,0,1-8.46.86c-3.45-2.17-3.55-8,.72-10.35a13.66,13.66,0,0,1,5.29-1.49c.72-.07,1.45-.11,2.17-.13.38,0,.45-.19.45-.52A2.45,2.45,0,0,0,46.23,9a10,10,0,0,0-5.94.95c-.18.07-.34.16-.6.29C39.36,9.07,39,8,38.75,6.84c0-.11.22-.4.39-.45a40.65,40.65,0,0,1,4.28-1.2A12.59,12.59,0,0,1,49,5.35a6.55,6.55,0,0,1,5.12,5.9c.08.78.11,1.57.13,2.35.08,3.44.16,6.89.21,10.33,0,.12-.23.35-.36.35-1.45,0-2.89,0-4.34,0-.18,0-.42-.34-.5-.57A9,9,0,0,1,49,22.42Zm0-5.4a9,9,0,0,1,0-.93c0-.54-.23-.72-.73-.67s-.89.05-1.33.12a4.89,4.89,0,0,0-3,1.22,2.57,2.57,0,0,0-.56,2.61,2,2,0,0,0,1.69,1.46,3.35,3.35,0,0,0,2.49-.51A3.42,3.42,0,0,0,48.68,16.86Z"/><path class="cls-1" d="M103,19.74c.24,1.22.47,2.36.66,3.51,0,.13-.22.4-.38.44-1.17.29-2.34.62-3.53.8a15.23,15.23,0,0,1-6.51-.31A8.43,8.43,0,0,1,87,16.63a11,11,0,0,1,2-8.14c2.13-2.8,5.07-3.73,8.47-3.44,4.34.37,6.75,3.58,7.19,7.51.13,1.14,0,2.29.06,3.44,0,.52-.25.66-.75.65-3.58,0-7.16,0-10.74,0-.9,0-1,.13-.69,1a4.28,4.28,0,0,0,3.69,2.66,14.72,14.72,0,0,0,6.19-.42Zm-10.63-7c2.3,0,4.54,0,6.79,0,.12,0,.31-.22.33-.35a3.58,3.58,0,0,0-2.48-3.55A3.79,3.79,0,0,0,92.41,12.77Z"/><path class="cls-1" d="M65.51,9.94c-.4,0-.65-.06-.9-.06-2.25,0-4.51,0-6.76,0-.61,0-.77-.19-.75-.77,0-1,0-2,0-3,0-.48.13-.68.65-.68H71.86c.45,0,.6.13.65.61A5.76,5.76,0,0,1,71,10.85c-2.46,2.74-4.73,5.64-7.07,8.48-.06.08-.11.17-.24.36a7.89,7.89,0,0,0,.86.09c2.51,0,5,0,7.53,0,.6,0,.78.19.76.77,0,1,0,2.08,0,3.13,0,.44-.1.64-.6.64H57c-.44,0-.61-.15-.6-.59,0-.75,0-1.49,0-2.23a1.74,1.74,0,0,1,.33-.92c2.77-3.38,5.55-6.73,8.33-10.09Z"/><path class="cls-1" d="M13.17,5.45h1.56c1.34,0,2.68,0,4,0a.61.61,0,0,1,.7.48q1.68,6.18,3.37,12.35a1.23,1.23,0,0,0,.32.57c.08-.24.18-.46.24-.7Q25,12.08,26.58,6c.06-.22.32-.53.49-.53,1.85,0,3.69,0,5.63,0-.14.43-.24.76-.36,1.09-2.12,5.7-4.25,11.39-6.35,17.09a.86.86,0,0,1-1,.69c-1.51-.05-3,0-4.53,0a.66.66,0,0,1-.75-.51q-3.26-9-6.52-17.91A2.12,2.12,0,0,1,13.17,5.45Z"/><path class="cls-1" d="M81.47,0V4.45c0,1,0,1,1,1s1.75,0,2.62,0c.5,0,.74.11.71.68,0,1,0,1.91,0,2.87,0,.47-.14.64-.62.63-1,0-2.08,0-3.13,0-.41,0-.58.15-.57.56,0,2.46,0,4.93.11,7.39.1,2,1.15,2.73,3.11,2.46.88-.11.87-.11.89.78s0,1.91.07,2.87c0,.33,0,.58-.43.66a11.17,11.17,0,0,1-5.48,0,4.85,4.85,0,0,1-3.67-4.62c-.18-2.2-.13-4.42-.17-6.63,0-.95,0-1.91,0-2.87,0-.45-.14-.67-.63-.64a7.91,7.91,0,0,1-1.46,0c-.17,0-.44-.28-.44-.43,0-1.09,0-2.17,0-3.26a.67.67,0,0,1,.45-.43,8.17,8.17,0,0,1,1.4,0c.48,0,.69-.18.68-.68,0-1,0-2,0-2.94,0-.22.18-.58.35-.62C78,.78,79.65.41,81.47,0Z"/><path class="cls-1" d="M8.13,0V4.46c0,1,0,1,1,1s1.83,0,2.75,0c.42,0,.54.15.53.57,0,1,0,2.05,0,3.07,0,.44-.14.54-.55.54-1,0-2.08,0-3.13,0-.38,0-.6.1-.6.53,0,2.49,0,5,.11,7.47.1,1.95,1.18,2.69,3.16,2.41.82-.12.81-.12.83.7q0,1.5.09,3a.53.53,0,0,1-.49.62,11.17,11.17,0,0,1-5.36.06,4.89,4.89,0,0,1-3.74-4.58c-.18-1.86-.14-3.74-.17-5.61,0-1.3,0-2.6,0-3.89,0-.51-.14-.75-.69-.71a6.55,6.55,0,0,1-1.4,0C.3,9.57,0,9.31,0,9.16,0,8.07,0,7,0,5.9a.66.66,0,0,1,.46-.43A11.82,11.82,0,0,1,2,5.44c.43,0,.62-.17.61-.61,0-1,0-2,0-3,0-.22.19-.58.36-.63C4.61.78,6.31.41,8.13,0Z"/><path class="cls-1" d="M121.53,23.93c-.92.2-1.8.44-2.69.57a13.09,13.09,0,0,1-7.14-.7,8.44,8.44,0,0,1-5.25-7.13A10.33,10.33,0,0,1,108,9.28a9.82,9.82,0,0,1,7.23-4.17,14.58,14.58,0,0,1,5.69.38c.45.11.7.24.54.81-.28,1-.45,2.11-.68,3.17a1,1,0,0,1-.12.25,31.38,31.38,0,0,0-3.26-.34,5,5,0,0,0-5.16,5.15,5.18,5.18,0,0,0,2.36,4.91,7,7,0,0,0,5.2.54c.35-.06.69-.16,1.08-.25Z"/></g></g></g></g></g></svg>