<svg xmlns="http://www.w3.org/2000/svg" viewBox="0 0 141.98 27.72"><defs><style>.cls-1{fill:#fff;}</style></defs><title>claro-client</title><g id="Layer_2" data-name="Layer 2"><g id="NOSOTROS"><g id="CLIENTES"><g id="LOGOS_CLIENTES" data-name="LOGOS CLIENTES"><g id="CLARO_VIDEO" data-name="CLARO VIDEO"><path class="cls-1" d="M55.18,0h3V9.33h-3V0"/><path class="cls-1" d="M62.41,10.53C65.2,7.65,68,4.74,70.74,1.86c.72.75,1.46,1.48,2.16,2.25C70.14,7,67.36,9.89,64.6,12.79c-.74-.74-1.46-1.51-2.19-2.26"/><path class="cls-1" d="M6.85,8.9a9,9,0,0,1,2.42-.25,8.86,8.86,0,0,1,7,3.42A9.16,9.16,0,0,1,18,15.49H14.26a5.85,5.85,0,0,0-2.47-2.64,5.55,5.55,0,0,0-1.94-.64,6.78,6.78,0,0,0-1.91.1,5.47,5.47,0,0,0-2.76,1.56,5.31,5.31,0,0,0-1.67,3.55,5.67,5.67,0,0,0,.85,3.7A6.07,6.07,0,0,0,7.2,23.46,5.62,5.62,0,0,0,13,22.26a6.9,6.9,0,0,0,1.26-1.76H18a9.06,9.06,0,0,1-1.81,3.58,10.32,10.32,0,0,1-1.86,1.7A9.14,9.14,0,0,1,3.5,25.37a10.06,10.06,0,0,1-2.37-2.82,9.76,9.76,0,0,1-1-6.41,9,9,0,0,1,2.6-4.82A8.53,8.53,0,0,1,6.85,8.9"/><path class="cls-1" d="M19.79,8.56h3.63c0,6.26,0,12.52,0,18.79-1.2,0-2.41,0-3.62,0V8.56"/><path class="cls-1" d="M37.86,16.55a3.18,3.18,0,0,0-1.06-2.72,5.9,5.9,0,0,0-2-1.22,10.11,10.11,0,0,0-2.39-.39,10.79,10.79,0,0,0-2,.08,4.86,4.86,0,0,0-3.42,1.63,5.81,5.81,0,0,0-1.18,3.31c1.14,0,2.28,0,3.43,0a2.37,2.37,0,0,1,1-1.71,3,3,0,0,1,1.52-.3,3,3,0,0,1,1.67.42,1.49,1.49,0,0,1,.43,1.54,1.26,1.26,0,0,1-1.17.81,30.09,30.09,0,0,0-4.32.89,4,4,0,0,0-2.48,2.32,5.89,5.89,0,0,0-.12,3.5A3.45,3.45,0,0,0,27.94,27a4.9,4.9,0,0,0,2.46.26A6.15,6.15,0,0,0,34,25.86c0,.49,0,1,0,1.47,1.16,0,2.67,0,3.82,0Zm-4.62,7.21a3.4,3.4,0,0,1-3.07.94,1.52,1.52,0,0,1-.88-.63,2.23,2.23,0,0,1,.16-2.43A2.73,2.73,0,0,1,31,20.9a20,20,0,0,0,2-.48c.34-.06.59-.32.91-.42C33.9,21.27,34.05,22.7,33.24,23.76Z"/><path class="cls-1" d="M46.27,12.73a6.94,6.94,0,0,1,2.25-.41c0,1.21.08,2.43,0,3.65a4.86,4.86,0,0,0-2,0,3.76,3.76,0,0,0-2.75,3.07c0,.32-.1.63-.1.95v7.33c-1.2,0-2.4,0-3.6,0q0-7.21,0-14.43c1.16,0,2.32,0,3.48.08,0,.59,0,1.19,0,1.78a5.78,5.78,0,0,1,2.66-2"/><path class="cls-1" d="M63.62,17.88a7.41,7.41,0,0,0-6.83-5.58,7.7,7.7,0,0,0-1.59.06,7.53,7.53,0,0,0-5.38,3.94,7.8,7.8,0,0,0,0,7.16,7.69,7.69,0,0,0,5.41,3.89h2.3a7.3,7.3,0,0,0,4.19-2.24A7.56,7.56,0,0,0,63.62,17.88Zm-3.54,3.43a4.09,4.09,0,0,1-2,2.19,3.86,3.86,0,0,1-4.72-1.22,4,4,0,0,1,2.17-6.36,6.74,6.74,0,0,1,1.68,0,3.92,3.92,0,0,1,2.75,2.05A4.13,4.13,0,0,1,60.08,21.31Z"/><path class="cls-1" d="M66,16.46h9.12c0,1.06,0,2.11,0,3.17H66V16.46Z"/><path class="cls-1" d="M105,27.69A4.94,4.94,0,0,1,99.81,23a31.08,31.08,0,0,1,.06-6.1c.54-4,4.92-5.61,8.28-3.19.07.05.16.08.39.2V7.57h3.73V27.36H108.4v-.93A5.26,5.26,0,0,1,105,27.69Zm3.34-9.62a3.43,3.43,0,0,0-.18-.7,2.13,2.13,0,0,0-2.29-1.48c-1.15,0-2.07.54-2.17,1.6a26.94,26.94,0,0,0,0,5.08c.11,1.09,1,1.59,2.16,1.61a2.05,2.05,0,0,0,2.31-1.57A22.74,22.74,0,0,0,108.38,18.07Z"/><path class="cls-1" d="M115.13,22.49a11.54,11.54,0,0,1,.15-5.26,6.18,6.18,0,0,1,12,.2,26.12,26.12,0,0,1,.27,3.8h-9a2.81,2.81,0,0,0,1.56,2.85,4.16,4.16,0,0,0,4.87-1l2,2.32a7.45,7.45,0,0,1-5.19,2.29A6.52,6.52,0,0,1,115.13,22.49Zm3.41-3.82h5.36c-.07-1.84-1.06-2.94-2.62-3S118.7,16.71,118.54,18.67Z"/><path class="cls-1" d="M93.4,12.94h3.51V27.36H93.4Z"/><path class="cls-1" d="M95.2,6.61a2.28,2.28,0,0,1,0,4.55,2.29,2.29,0,0,1-2.27-2.3A2.26,2.26,0,0,1,95.2,6.61Z"/><polygon class="cls-1" points="91.79 12.94 87.89 12.94 85.13 21.59 82.12 12.94 78.22 12.94 83.56 27.36 86.57 27.36 91.79 12.94"/><path class="cls-1" d="M141.84,17.66a4.91,4.91,0,0,0-2.47-3.9,6.32,6.32,0,0,0-4-1.12c-2.91.08-5.17,1.76-5.59,4.51a.13.13,0,0,0,0,.06c-.06.39-.1.78-.14,1.17s-.05.88-.06,1.32v.95q0,.68.06,1.32c0,.4.08.8.14,1.19v.05c.42,2.75,2.68,4.42,5.59,4.51h.78c2.92-.09,5.18-1.76,5.6-4.51A21.93,21.93,0,0,0,141.84,17.66Zm-3.65,2.67c0,.14,0,.29-.05.45a13.22,13.22,0,0,1-.25,1.72,2.12,2.12,0,0,1-2.23,1.71,2.68,2.68,0,0,1-1.15-.22,2.35,2.35,0,0,1-.84-1.23,3.45,3.45,0,0,1-.15-.71c-.06-.59-.09-1.19-.14-2a19.27,19.27,0,0,1,.29-2.17,2.16,2.16,0,0,1,4.22,0,13,13,0,0,1,.25,1.72c0,.16,0,.31.05.45v.3Z"/></g></g></g></g></g></svg>