<svg xmlns="http://www.w3.org/2000/svg" width="64.222" height="74.408" viewBox="0 0 64.222 74.408"><defs><style>.cls-1,.cls-2{fill:#fff;}.cls-1{fill-rule:evenodd;}</style></defs><title>conaculta-client</title><g id="Layer_2" data-name="Layer 2"><g id="NOSOTROS"><g id="CLIENTES"><g id="LOGOS_CLIENTES" data-name="LOGOS CLIENTES"><g id="CANAL_22" data-name="CANAL 22"><path class="cls-1" d="M8.045,74.232a2.822,2.822,0,1,1,0-5.644v5.644Z"/><polygon class="cls-1" points="8.103 74.239 13.722 74.239 10.912 68.581 8.103 74.239 8.103 74.239"/><path class="cls-1" d="M18.712,70.847a1.44,1.44,0,0,0-1.164-.561A1.344,1.344,0,0,0,16.187,71.7a1.324,1.324,0,0,0,1.381,1.388,1.527,1.527,0,0,0,1.144-.542v1.591a3.739,3.739,0,0,1-1.171.237,2.844,2.844,0,0,1-1.916-.751,2.5,2.5,0,0,1-.819-1.93,2.669,2.669,0,0,1,.752-1.868A2.761,2.761,0,0,1,17.5,69a3.122,3.122,0,0,1,1.212.257v1.591Z"/><path class="cls-1" d="M24.919,71.592A2.83,2.83,0,1,1,22.1,68.966a2.714,2.714,0,0,1,2.822,2.626Zm-4.264.007a1.444,1.444,0,1,0,2.884,0,1.445,1.445,0,0,0-2.884,0Z"/><polygon class="cls-1" points="25.536 69.134 26.863 69.134 29.293 72.255 29.307 72.255 29.307 69.134 30.634 69.134 30.634 74.239 29.307 74.239 26.876 71.112 26.863 71.112 26.863 74.239 25.536 74.239 25.536 69.134 25.536 69.134"/><path class="cls-1" d="M32.8,73.352l-.352.887H31.039L33,69.134h1.449l1.923,5.105H34.959l-.332-.887Zm.928-2.64h-.014l-.548,1.625h1.1l-.541-1.625Z"/><path class="cls-1" d="M40.434,70.847a1.44,1.44,0,0,0-1.164-.561A1.343,1.343,0,0,0,37.91,71.7a1.323,1.323,0,0,0,1.38,1.388,1.525,1.525,0,0,0,1.144-.542v1.591a3.733,3.733,0,0,1-1.171.237,2.844,2.844,0,0,1-1.916-.751,2.5,2.5,0,0,1-.818-1.93,2.668,2.668,0,0,1,.751-1.868A2.764,2.764,0,0,1,39.223,69a3.117,3.117,0,0,1,1.211.257v1.591Z"/><path class="cls-1" d="M45.681,69.134v2.871a2.308,2.308,0,0,1-.535,1.8,2.806,2.806,0,0,1-3.385,0,2.308,2.308,0,0,1-.535-1.8V69.134h1.327v2.688c0,.663.047,1.388.9,1.388s.9-.725.9-1.388V69.134Z"/><polygon class="cls-1" points="47.847 73.115 49.437 73.115 49.437 74.239 46.52 74.239 46.52 69.134 47.847 69.134 47.847 73.115 47.847 73.115"/><polygon class="cls-1" points="51.901 74.239 50.574 74.239 50.574 70.259 49.477 70.259 49.477 69.134 52.997 69.134 52.997 70.259 51.901 70.259 51.901 74.239 51.901 74.239"/><path class="cls-1" d="M54.778,73.352l-.352.887H53.018l1.963-5.105H56.43l1.922,5.105H56.937l-.331-.887Zm.927-2.64h-.013l-.548,1.625h1.1l-.542-1.625Z"/><path class="cls-2" d="M18.386,46.227H31.607v-23.8c0,5.534-3.829,10.534-5.026,12.224Z"/><path class="cls-2" d="M31.548,16.428l.022,6.036.006,1.683c3.355-3.362,8.528-8.366,11.769-5.164S43.7,26.7,41.871,29.408,31.647,44.26,31.647,44.26l.008,2,.021,6.088,19.594-.069-.021-5.916-12.6.045L46.8,34.748a28.4,28.4,0,0,0,4.377-8.267l-.028-7.676a9.666,9.666,0,0,0-5.365-5.719l-9.926.036A9.524,9.524,0,0,0,31.548,16.428Z"/><path class="cls-2" d="M11.987,15.631A10.324,10.324,0,0,1,15.7,13.1H11.987Z"/><path class="cls-2" d="M31.606,22.429V13.1H25.652A9.894,9.894,0,0,1,31.606,22.429Z"/><path class="cls-2" d="M21.669,29.322c1.839-2.683,4.74-7.17,1.511-10.367-3.045-3.015-7.833,1.224-11.193,4.512V43.215C13.921,40.45,20.122,31.581,21.669,29.322Z"/><path class="cls-2" d="M63.517.961S40.444,0,31.7,0,.192.961.192.961,0,27.625,0,32.175.192,64.158.192,64.158s25.125.193,31.919.193,31.406-.193,31.406-.193.7-26.022.7-31.723S63.517.961,63.517.961ZM52.466,53.581H10.722V11.837H52.466Z"/></g></g></g></g></g></svg>