<svg xmlns="http://www.w3.org/2000/svg" viewBox="0 0 64.22 74.41"><defs><style>.cls-1,.cls-2{fill:#fff;}.cls-1{fill-rule:evenodd;}</style></defs><title>conaculta-client</title><g id="Layer_2" data-name="Layer 2"><g id="NOSOTROS"><g id="CLIENTES"><g id="LOGOS_CLIENTES" data-name="LOGOS CLIENTES"><g id="CANAL_22" data-name="CANAL 22"><path class="cls-1" d="M8,74.23a2.82,2.82,0,1,1,0-5.64v5.64Z"/><polygon class="cls-1" points="8.1 74.24 13.72 74.24 10.91 68.58 8.1 74.24 8.1 74.24"/><path class="cls-1" d="M18.71,70.85a1.42,1.42,0,0,0-1.16-.56,1.34,1.34,0,0,0-1.36,1.41,1.32,1.32,0,0,0,1.38,1.39,1.53,1.53,0,0,0,1.14-.54v1.59a3.91,3.91,0,0,1-1.17.23,2.82,2.82,0,0,1-1.91-.75,2.47,2.47,0,0,1-.82-1.93,2.65,2.65,0,0,1,.75-1.86A2.73,2.73,0,0,1,17.5,69a3,3,0,0,1,1.21.26v1.59Z"/><path class="cls-1" d="M24.92,71.59A2.83,2.83,0,1,1,22.1,69a2.72,2.72,0,0,1,2.82,2.62Zm-4.27,0a1.45,1.45,0,1,0,2.89,0,1.45,1.45,0,0,0-2.89,0Z"/><polygon class="cls-1" points="25.54 69.13 26.86 69.13 29.29 72.25 29.31 72.25 29.31 69.13 30.63 69.13 30.63 74.24 29.31 74.24 26.88 71.11 26.86 71.11 26.86 74.24 25.54 74.24 25.54 69.13 25.54 69.13"/><path class="cls-1" d="M32.8,73.35l-.35.89H31l2-5.11h1.45l1.92,5.11H35l-.33-.89Zm.93-2.64h0l-.55,1.63h1.11l-.54-1.63Z"/><path class="cls-1" d="M40.43,70.85a1.42,1.42,0,0,0-1.16-.56,1.34,1.34,0,0,0-1.36,1.41,1.32,1.32,0,0,0,1.38,1.39,1.52,1.52,0,0,0,1.14-.54v1.59a3.85,3.85,0,0,1-1.17.23,2.83,2.83,0,0,1-1.91-.75,2.51,2.51,0,0,1-.82-1.93,2.65,2.65,0,0,1,.75-1.86A2.73,2.73,0,0,1,39.22,69a3,3,0,0,1,1.21.26v1.59Z"/><path class="cls-1" d="M45.68,69.13V72a2.35,2.35,0,0,1-.53,1.8,2.85,2.85,0,0,1-3.39,0,2.31,2.31,0,0,1-.53-1.8V69.13h1.32v2.69c0,.67.05,1.39.9,1.39s.9-.72.9-1.39V69.13Z"/><polygon class="cls-1" points="47.85 73.11 49.44 73.11 49.44 74.24 46.52 74.24 46.52 69.13 47.85 69.13 47.85 73.11 47.85 73.11"/><polygon class="cls-1" points="51.9 74.24 50.57 74.24 50.57 70.26 49.48 70.26 49.48 69.13 53 69.13 53 70.26 51.9 70.26 51.9 74.24 51.9 74.24"/><path class="cls-1" d="M54.78,73.35l-.35.89H53l2-5.11h1.45l1.92,5.11H56.94l-.33-.89Zm.93-2.64h0l-.55,1.63h1.11l-.54-1.63Z"/><path class="cls-2" d="M18.39,46.23H31.61V22.43c0,5.53-3.83,10.53-5,12.22Z"/><path class="cls-2" d="M31.55,16.43l0,6v1.69c3.35-3.36,8.52-8.37,11.76-5.17s.36,7.72-1.47,10.43S31.65,44.26,31.65,44.26v2l0,6.09,19.59-.07,0-5.92-12.6,0L46.8,34.75a28.48,28.48,0,0,0,4.38-8.27l0-7.67a9.64,9.64,0,0,0-5.36-5.72l-9.93,0A9.49,9.49,0,0,0,31.55,16.43Z"/><path class="cls-2" d="M12,15.63A10.38,10.38,0,0,1,15.7,13.1H12Z"/><path class="cls-2" d="M31.61,22.43V13.1h-6A9.89,9.89,0,0,1,31.61,22.43Z"/><path class="cls-2" d="M21.67,29.32c1.84-2.68,4.74-7.17,1.51-10.36-3.05-3-7.83,1.22-11.19,4.51V43.21C13.92,40.45,20.12,31.58,21.67,29.32Z"/><path class="cls-2" d="M63.52,1S40.44,0,31.7,0,.19,1,.19,1,0,27.62,0,32.18s.19,32,.19,32,25.13.19,31.92.19,31.41-.19,31.41-.19.7-26,.7-31.72S63.52,1,63.52,1ZM52.47,53.58H10.72V11.84H52.47Z"/></g></g></g></g></g></svg>