<svg xmlns="http://www.w3.org/2000/svg" viewBox="0 0 118.48 50.35"><defs><style>.cls-1{fill:#fff;}</style></defs><title>disney-client</title><g id="Layer_2" data-name="Layer 2"><g id="NOSOTROS"><g id="CLIENTES"><g id="LOGOS_CLIENTES" data-name="LOGOS CLIENTES"><path id="DISNEY" class="cls-1" d="M48.2,11.64s.46-.69.84-1.21A21.52,21.52,0,0,1,52,7.36l.64-.53s-.54,0-.84.11a6.43,6.43,0,0,0-2.31,1.3c-.88.75-1.84,2-1.4,3,.06.15.16.36.16.36m4.85,1.3a9.22,9.22,0,0,0,3.87-1.16c1.18-.66,2.91-1.94,2.74-3.46a1.28,1.28,0,0,0-.78-1,1.77,1.77,0,0,0-1.48,0,4.49,4.49,0,0,0-1.16.49,17.79,17.79,0,0,0-4.31,3.81c-.25.32-.49.67-.68.92a.76.76,0,0,0-.2.32,6.35,6.35,0,0,0,2,.1M49.54,15.3a6.89,6.89,0,0,0-.45.77,1.59,1.59,0,0,1-.34.38.71.71,0,0,1-1,0A2.43,2.43,0,0,1,47,14.72a4.43,4.43,0,0,0,0-.82,5.21,5.21,0,0,0-.71-1.18A4.57,4.57,0,0,1,45.75,11a5.72,5.72,0,0,1,1.83-4.13,12.15,12.15,0,0,1,4.09-2.74,8.06,8.06,0,0,1,5.24-.48,4,4,0,0,1,1.63,1.08,1.12,1.12,0,0,0,.22.25,2.15,2.15,0,0,0,.41.09,4.15,4.15,0,0,1,1.57.73,2.93,2.93,0,0,1,1.09,1.72,4.71,4.71,0,0,1-1.49,4A14.94,14.94,0,0,1,55,15.14a8.72,8.72,0,0,1-3.42.6c-.32,0-.66-.12-1-.14a4.28,4.28,0,0,1-.82-.2c-.08-.06-.18-.12-.2-.1m1.88,3.47.25.07a2.17,2.17,0,0,1,1.22,1.72,50.56,50.56,0,0,1,.68,7.11c0,1.13.08,2.25.13,3.37a13.88,13.88,0,0,1-.09,3.1A1.43,1.43,0,0,1,53,35a2.66,2.66,0,0,1-1.59.15c-1.08-.22-1.43-.92-1.58-2a52.91,52.91,0,0,1,0-9.68,21.38,21.38,0,0,1,.7-3.87c.13-.31.39-.95.85-.86M18.09,22.6s-1.61.11-2.71.24A29.2,29.2,0,0,0,9.83,24c-.46.16-1.39.55-1.47,1a1.62,1.62,0,0,0,.55,1.27c.2.22,1.3,1.28,1.61,1.54a27.6,27.6,0,0,0,5.83,3.54c.66.28,1.76.67,1.76.67S18,28.9,18,25.83c0-1.62.05-3.23.05-3.23m29.36,1.24a14.34,14.34,0,0,1-.16,2.64,12.32,12.32,0,0,1-.5,1.72A19.72,19.72,0,0,1,45.91,30a14.84,14.84,0,0,1-2.52,3.09c-2.76,2.38-7,3.74-10.68,4.18a27.11,27.11,0,0,1-8-.23c-.91-.16-2.25-.47-2.25-.47a8.48,8.48,0,0,1,0,.91,3.9,3.9,0,0,1-.22.78,1.23,1.23,0,0,1-1,.69,3,3,0,0,1-1.65-.08,2.4,2.4,0,0,1-1.28-2c-.12-.72-.24-2-.24-2l-1.15-.55a30.17,30.17,0,0,1-4.46-2.74c-.36-.27-2-1.6-2.3-1.93a13,13,0,0,1-2.53-3.05,2.87,2.87,0,0,1-.28-2.73c.55-1.37,2.51-2.41,3.86-3a32.13,32.13,0,0,1,5.34-1.62c.6-.09,1.53-.25,1.59-.29l.06-.06s.08-1.4.07-1.89.36-3.7.48-4.38a7.81,7.81,0,0,1,.63-2.15.56.56,0,0,1,.78-.06c1.46.91,1.9,4.07,2,5.67.07,1,.1,2.45.1,2.45s1.68-.05,2.71,0a24.87,24.87,0,0,1,3.15.35,21.81,21.81,0,0,1,5.43,1.54,5.5,5.5,0,0,1,2.75,2.78,2.84,2.84,0,0,1-.24,2.64,3.71,3.71,0,0,1-2.84,1.87,4.74,4.74,0,0,1-2-.45.36.36,0,0,1,0-.49,8.05,8.05,0,0,1,1-.55,2.18,2.18,0,0,0,.45-.33c.3-.26.56-.54.53-.87s-.5-.69-.93-.87a34.1,34.1,0,0,0-8.07-1.59c-.76-.05-1.86-.08-1.86-.08l.23,10.84,1.62.29c.41.06,2.14.22,2.6.23,3.51.09,7.42-.22,10.64-1.74a11,11,0,0,0,3.68-2.61,7.56,7.56,0,0,0,1.8-5.63c-.2-2.32-1.83-5.06-3.13-6.74-3.43-4.42-9.32-8-14.51-10.18A46.11,46.11,0,0,0,9.12,3.26a27,27,0,0,0-6.2.45c-.23.07-.46.15-.67.2a1.48,1.48,0,0,0-.5.2l-.08.08.19.1c.17.07.88.11,1.25.18A1.22,1.22,0,0,1,3.92,5a.48.48,0,0,1,0,.6c-.36.44-1.72.37-2.32.27S.19,5.53.05,5A2.48,2.48,0,0,1,.51,3.15,4.42,4.42,0,0,1,3.5,1,30.09,30.09,0,0,1,9.79,0,36.44,36.44,0,0,1,22,1.83a58.2,58.2,0,0,1,7.6,3A60,60,0,0,1,35.13,7.9c.45.29,3.06,2.21,3.46,2.55.85.69,2,1.69,2.76,2.48a25.78,25.78,0,0,1,4.42,5.76c.22.45.4.89.69,1.41a13.81,13.81,0,0,1,.6,1.54c.07.31.17.75.18.77A12.38,12.38,0,0,1,47.45,23.84Zm18.06.79.17,0a13.61,13.61,0,0,1,3.5.84,3.59,3.59,0,0,1,1.9,1.78,5.56,5.56,0,0,1,.12,4.67,5.57,5.57,0,0,1-2.56,2.43,9.26,9.26,0,0,1-3.18.86,11.32,11.32,0,0,1-6-1.07,7.3,7.3,0,0,1-3.05-2.59,2.61,2.61,0,0,1,.12-2.78c.95-1.29,3-1.57,4.49-1.52a18.43,18.43,0,0,1,4.35.8,8.42,8.42,0,0,1,1.63.75.54.54,0,0,1,.17.53c-.25.77-2.13,1.18-2.66,1.26-1.45.22-2.2-.33-3.85-1a5.26,5.26,0,0,0-1.37-.37c-.74-.08-1.64.13-1.79.95-.07.42.43.81.8,1a6,6,0,0,0,2.47.52,13,13,0,0,0,7.54-1.86,1.17,1.17,0,0,0,.57-.88c0-.06-.06-.46-.19-.51h-.06c-.05,0-.13-.14-.2-.23a3.62,3.62,0,0,0-.87-.5,21.76,21.76,0,0,0-5.38-1c-1.41-.13-3.63-.31-4.16-.39a6.52,6.52,0,0,1-1.62-.4,2,2,0,0,1-1.08-1.23,3.8,3.8,0,0,1,.6-2.92c1.4-2,4.68-2.78,7.14-3.08s6.21-.29,8.54.95c.36.19.55.37.47.75a1.9,1.9,0,0,1-1.35,1.4,15.88,15.88,0,0,1-2.75.34c-2.81.16-6.21.08-8.89.81a1.89,1.89,0,0,0-.69.28c-.42.46.78.59,1,.64l.17,0,5.92.7m8.77,10.52c-1.14-.42-1.39-2.25-1.44-3.18a29,29,0,0,1,1.62-10c.29-.82.71-2.13,1.61-2.05a2,2,0,0,1,1.41,1c.9,1.25,2.06,3,2.84,4.14.87,1.33,1.7,2.66,2.52,3.87a1.74,1.74,0,0,0,.3.38c.15.12.29.13.34,0s0-1.57-.06-1.88c-.06-.48-.09-.88-.14-1.3a39.18,39.18,0,0,0-.85-4.1c-.34-1.3-.75-2.65-1.05-3.91a5.24,5.24,0,0,1-.19-1.21.64.64,0,0,1,1-.66c1.15.41,2.68,2.91,3.13,3.78.15.3.75,1.79.89,2.21a18.56,18.56,0,0,1,.9,4.36,12.24,12.24,0,0,1-.62,5.24,5.6,5.6,0,0,1-1.13,1.66,2.58,2.58,0,0,1-2.76.55c-1-.54-2.51-3.24-2.77-3.7-.91-1.58-2.46-4.67-2.71-5a.43.43,0,0,0-.24-.19c-.09,0-.13.16-.15.29-.16.9-.26,5.11-.27,5.23a21.69,21.69,0,0,1-.26,3.3c-.14.56-.27,1-.78,1.26a1.32,1.32,0,0,1-1.09-.07m15.65-.27a6.55,6.55,0,0,1-.47-.46A9.11,9.11,0,0,1,89,33.6l-.18-.42a5,5,0,0,1-.15-2.93,12.64,12.64,0,0,1,.86-2.33.73.73,0,0,0,.06-.21c0-.18-.27-1.4-.29-1.79,0-.6.44-1,1.22-1.1l.18,0c.31-.08.5-.67.67-1.15L91.93,22s-1-.23-1.51-.42a2.17,2.17,0,0,1-1.29-1.05c-.32-.63-.11-1,.54-1.18.25-.08,2.15-.44,2.75-.53l2.17-.29c.62-.08,3.46-.41,4.37-.38A3.56,3.56,0,0,1,102,19.89c.44.63.73,1.37.08,1.77-1,.62-4.27.66-4.87.66-1,0-2.26,0-2.26,0l-.67,2.21,3.65,0a4.58,4.58,0,0,1,.82,0c.67.15.9.66.93,1.41s-.13,1.27-.82,1.38c-.36.06-4.37.08-4.91.14l-.7.1s-.29.75-.54,1.51-.47,1.61-.47,1.61h.37a4.69,4.69,0,0,0,.79-.08c1.23-.22,3-.49,4.54-.73.8-.12,1.2-.18,1.62.35a2.28,2.28,0,0,1,.58,1.43c0,.54-.38.89-.88,1.27A14.75,14.75,0,0,1,93,35.7a3.9,3.9,0,0,1-2-.21,3.44,3.44,0,0,1-.71-.33S90,35,89.93,34.88Zm25.36-11.15a21.85,21.85,0,0,0-3,3.55c-.85,1.22-1.65,2.61-2.42,3.69a10.78,10.78,0,0,0-.65,1.13,2.5,2.5,0,0,0,1.05,0,8.84,8.84,0,0,0,3.36-1.58,7.11,7.11,0,0,0,2.44-3.85,4,4,0,0,0-.24-2.84.37.37,0,0,0-.53-.06m-8.22,12.68s-.32,1-.56,1.72c-.42,1.3-1.33,4.8-1.54,5.89-.32,1.62-1.22,5.85-1.27,5.94a.54.54,0,0,1-.26.26c-.37.22-.52.14-1-.09a4.37,4.37,0,0,1-1.55-1.21c-.88-1.14-.66-3.3-.49-4.57a39.52,39.52,0,0,1,2.9-10.79.15.15,0,0,0,0-.16,8.8,8.8,0,0,1-.81-3.56c0-3.46,2-6.88,4.21-9.62.17-.21,1.27-1.52,1.76-1.5s.58.61.51,1.09c-.25,1.6-1.38,3.23-2.14,4.57a13.65,13.65,0,0,0-1.48,3.51,13.65,13.65,0,0,0-.23,1.35c0,.37.1.84.1.84s1.41-2,2.33-3.18c.51-.67.87-1.11,1.29-1.59s2.08-2.19,2.55-2.64a9.33,9.33,0,0,1,2.52-1.91,2.21,2.21,0,0,1,2.45,0,5.73,5.73,0,0,1,2,4.19,10,10,0,0,1-1,5.3,11.08,11.08,0,0,1-3.92,4.27,10.47,10.47,0,0,1-5.87,1.91l-.6,0"/></g></g></g></g></svg>