<svg xmlns="http://www.w3.org/2000/svg" width="62.844" height="69.134" viewBox="0 0 62.844 69.134"><defs><style>.cls-1{fill:#fff;}</style></defs><title>ele-client</title><g id="Layer_2" data-name="Layer 2"><g id="NOSOTROS"><g id="CLIENTES"><g id="LOGOS_CLIENTES" data-name="LOGOS CLIENTES"><g id="L"><polygon class="cls-1" points="62.844 69.134 33.836 69.134 33.836 63.853 59.43 39.219 62.844 39.219 62.844 69.134"/><polygon class="cls-1" points="29.82 22.9 29.82 29.595 0.013 59.031 0 52.315 29.82 22.9"/><polygon class="cls-1" points="29.83 9.842 29.83 16.537 0.02 46.117 0.012 39.286 29.83 9.842"/><polygon class="cls-1" points="0.088 32.982 0.088 26.263 26.574 0.04 29.798 0.04 29.798 3.579 0.088 32.982"/><polygon class="cls-1" points="0.025 68.958 0.06 65.341 29.829 35.941 29.829 42.438 3.197 68.959 0.025 68.958"/><polygon class="cls-1" points="29.85 49.014 29.85 55.694 16.184 69.048 9.521 69.048 29.85 49.014"/><polygon class="cls-1" points="0.061 19.907 0.061 13.823 13.932 0.025 19.935 0.025 0.061 19.907"/><path class="cls-1" d="M.119,0h7.2L.119,6.994Z"/><polygon class="cls-1" points="22.725 69.019 29.791 62.118 29.848 69.019 22.725 69.019"/></g></g></g></g></g></svg>