<svg xmlns="http://www.w3.org/2000/svg" viewBox="0 0 62.84 69.13"><defs><style>.cls-1{fill:#fff;}</style></defs><title>ele-client</title><g id="Layer_2" data-name="Layer 2"><g id="NOSOTROS"><g id="CLIENTES"><g id="LOGOS_CLIENTES" data-name="LOGOS CLIENTES"><g id="L"><polygon class="cls-1" points="62.84 69.13 33.84 69.13 33.84 63.85 59.43 39.22 62.84 39.22 62.84 69.13"/><polygon class="cls-1" points="29.82 22.9 29.82 29.59 0.01 59.03 0 52.31 29.82 22.9"/><polygon class="cls-1" points="29.83 9.84 29.83 16.54 0.02 46.12 0.01 39.29 29.83 9.84"/><polygon class="cls-1" points="0.09 32.98 0.09 26.26 26.57 0.04 29.8 0.04 29.8 3.58 0.09 32.98"/><polygon class="cls-1" points="0.03 68.96 0.06 65.34 29.83 35.94 29.83 42.44 3.2 68.96 0.03 68.96"/><polygon class="cls-1" points="29.85 49.01 29.85 55.69 16.18 69.05 9.52 69.05 29.85 49.01"/><polygon class="cls-1" points="0.06 19.91 0.06 13.82 13.93 0.03 19.93 0.03 0.06 19.91"/><path class="cls-1" d="M.12,0h7.2L.12,7Z"/><polygon class="cls-1" points="22.73 69.02 29.79 62.12 29.85 69.02 22.73 69.02"/></g></g></g></g></g></svg>