<svg xmlns="http://www.w3.org/2000/svg" width="61.292" height="73.943" viewBox="0 0 61.292 73.943"><defs><style>.cls-1{fill:#fff;}</style></defs><title>eltrece-client</title><g id="Layer_2" data-name="Layer 2"><g id="NOSOTROS"><g id="CLIENTES"><g id="LOGOS_CLIENTES" data-name="LOGOS CLIENTES"><g id="EL_TRECE" data-name="EL TRECE"><path class="cls-1" d="M50.617,34.778l9.656-5.746-9.19-5.319c1.8-3.137,3.521-6.127,5.358-9.322H45.705V3.8l-9.3,5.322C34.6,6.018,32.891,3.091,31.09,0L25.758,9.175,16.5,3.86V14.517H5.872l5.186,8.949-9.1,5.325,9.151,5.385L5.687,43.459l10.737.078c-.026,3.537-.05,6.949-.077,10.588l9.337-5.255c1.787,3.119,3.471,6.059,5.25,9.162l5.4-9.136,9.223,5.382c.026-3.639.051-7.046.077-10.657l10.624.077-5.219-9.159Zm-19.5,8.893A14.655,14.655,0,1,1,45.772,29.016,14.655,14.655,0,0,1,31.117,43.671Z"/><path class="cls-1" d="M61.223,69.447H54.761a2.7,2.7,0,0,0,1.28,2.185,2.9,2.9,0,0,0,3.186-.582l1.318,1.426A4.428,4.428,0,0,1,58.212,73.8a4.282,4.282,0,0,1-4.182-1.085,4.952,4.952,0,0,1-1.368-2.826,7.259,7.259,0,0,1,.377-3.957A4.123,4.123,0,0,1,57.4,63.324,4.025,4.025,0,0,1,61,66.347,7.414,7.414,0,0,1,61.223,69.447Zm-6.388-1.895h4.17a2.029,2.029,0,0,0-2.045-2.191A2.086,2.086,0,0,0,54.835,67.552Z"/><path class="cls-1" d="M40.535,71.047l1.316,1.433a4.668,4.668,0,0,1-6.731,0,5.015,5.015,0,0,1-1.183-2.809,7.1,7.1,0,0,1,.512-3.971,4.107,4.107,0,0,1,4.24-2.375,3.953,3.953,0,0,1,3.527,2.763,6.8,6.8,0,0,1,.311,3.347H36.063a2.65,2.65,0,0,0,1.176,2.128C38.432,72.232,39.505,71.8,40.535,71.047Zm-.195-3.493c-.146-1.49-.926-2.23-2.268-2.186a2.069,2.069,0,0,0-1.936,2.186Z"/><path class="cls-1" d="M8.679,69.447H2.221A2.642,2.642,0,0,0,3.4,71.565c1.2.67,2.266.23,3.294-.516l1.315,1.43A4.492,4.492,0,0,1,5.684,73.8a4.348,4.348,0,0,1-3.84-.765A4.778,4.778,0,0,1,.156,70.059,6.888,6.888,0,0,1,.64,65.641a4,4,0,0,1,4.239-2.305A3.838,3.838,0,0,1,8.368,66.09,6.737,6.737,0,0,1,8.679,69.447ZM6.493,67.554a2.071,2.071,0,0,0-2.267-2.187A2.071,2.071,0,0,0,2.3,67.554Z"/><path class="cls-1" d="M25.4,71.416c-.08.621-.154,1.236-.245,1.848a.369.369,0,0,1-.18.24,3.69,3.69,0,0,1-2.646.315,2.077,2.077,0,0,1-1.481-1.757,4.566,4.566,0,0,1-.076-.859c-.007-1.753,0-3.507,0-5.261v-.353H19.388V63.528h1.377v-.879c0-.555,0-1.11,0-1.665,0-.1.033-.245.1-.282.664-.375,1.337-.732,2.06-1.122v3.927h2.413v2.07H22.964c-.008.139-.02.247-.02.354,0,1.609.009,3.219,0,4.828-.007.981.257,1.231,1.331,1.046A7.224,7.224,0,0,0,25.4,71.416Z"/><path class="cls-1" d="M51.673,65.106,50.34,66.711a5.449,5.449,0,0,0-.682-.592,4.427,4.427,0,0,0-1.174-.593,1.924,1.924,0,0,0-2.427,1.317,4.888,4.888,0,0,0,.027,3.577,2.027,2.027,0,0,0,3.272.879c.3-.23.559-.5.85-.77l1.369,1.453a4.437,4.437,0,0,1-2.735,1.862,4.209,4.209,0,0,1-4.864-2.734,6.548,6.548,0,0,1,.215-5.455,4.321,4.321,0,0,1,6.64-1.343C51.117,64.554,51.377,64.826,51.673,65.106Z"/><path class="cls-1" d="M32.956,65.879a9.868,9.868,0,0,0-1.005-.312,1.754,1.754,0,0,0-2.319,1.789c-.059,1.6-.051,3.2-.044,4.8a.593.593,0,0,1-.393.629c-.6.284-1.179.607-1.8.932V63.547h2.172v.612c.1-.069.165-.1.219-.147a3.233,3.233,0,0,1,3.357-.429c.291.109.408.259.292.6C33.24,64.745,33.108,65.328,32.956,65.879Z"/><path class="cls-1" d="M10.628,73.722v-.583q0-6.025-.006-12.05a.478.478,0,0,1,.3-.511c.624-.3,1.231-.643,1.885-.988.008.14.019.234.019.328,0,4.083,0,8.166.009,12.249a.588.588,0,0,1-.395.647C11.846,73.077,11.274,73.4,10.628,73.722Z"/></g></g></g></g></g></svg>