<svg xmlns="http://www.w3.org/2000/svg" width="74.82" height="72.448" viewBox="0 0 74.82 72.448"><defs><style>.cls-1{fill:#fff;}</style></defs><title>imagen-client</title><g id="Layer_2" data-name="Layer 2"><g id="NOSOTROS"><g id="CLIENTES"><g id="LOGOS_CLIENTES" data-name="LOGOS CLIENTES"><g id="GRUPO_IMAGEN" data-name="GRUPO IMAGEN"><path class="cls-1" d="M37.115,27.886c3.787,0,7.574,0,11.361-.007.313,0,.393.078.393.392q-.014,11.4,0,22.8c0,.319-.085.389-.4.389q-11.38-.014-22.76,0c-.329,0-.415-.074-.415-.411q.017-11.379,0-22.76c0-.341.091-.41.417-.409C29.515,27.891,33.315,27.886,37.115,27.886Z"/><path class="cls-1" d="M49.982,12.926A12.905,12.905,0,1,1,37.092,0,12.948,12.948,0,0,1,49.982,12.926Z"/><path class="cls-1" d="M12.854,69.866,9.52,64.772v.467c0,2.2,0,4.4.006,6.606,0,.272-.049.367-.345.36-.956-.022-1.913-.018-2.869,0-.255,0-.314-.075-.313-.318q.009-6.171,0-12.344c0-.277.089-.327.341-.324q1.585.021,3.171,0a.475.475,0,0,1,.469.276c.954,1.567,1.919,3.126,2.886,4.7.151-.071.192-.224.266-.344.893-1.442,1.785-2.885,2.663-4.336a.534.534,0,0,1,.536-.291q1.546.021,3.095,0c.266,0,.363.039.362.341q-.017,6.153,0,12.307c0,.259-.061.343-.331.338-.956-.016-1.912-.018-2.868,0-.3.006-.377-.072-.375-.372.013-2.252.007-4.5.007-6.757v-.217l-.069-.03Z"/><path class="cls-1" d="M66.113,65.2v.406c0,2.076-.007,4.152.008,6.227,0,.306-.088.375-.379.37-.955-.018-1.912-.016-2.867,0-.248,0-.319-.063-.319-.313q.011-6.189,0-12.378c0-.232.06-.3.294-.294.893.014,1.786.016,2.679,0a.68.68,0,0,1,.625.3c1.571,2.042,3.157,4.073,4.739,6.106.09.116.187.228.3.368a.638.638,0,0,0,.061-.408c0-2,.008-4-.006-6,0-.3.084-.37.373-.365.956.019,1.913.013,2.868,0,.226,0,.329.027.329.3q-.015,6.189,0,12.378c0,.263-.092.309-.326.306-.83-.013-1.661-.016-2.491,0a.621.621,0,0,1-.562-.279q-2.515-3.249-5.044-6.488c-.067-.087-.136-.171-.2-.256Z"/><path class="cls-1" d="M45.23,64.606c.893,0,1.786.008,2.679,0,.227,0,.3.05.3.29-.01,1.774-.007,3.548,0,5.322a.408.408,0,0,1-.157.358c-2.884,2.3-7.356,2.583-10.145.309a6.336,6.336,0,0,1-2.357-4.588,6.641,6.641,0,0,1,5.816-7.252,7.683,7.683,0,0,1,6.162,1.6c.183.149.222.237.05.435q-.877,1.011-1.712,2.058c-.161.2-.262.223-.468.056a4.242,4.242,0,0,0-3.294-1,3.322,3.322,0,0,0-2.816,2.719,3.572,3.572,0,0,0,1.826,4.074,3.954,3.954,0,0,0,3.423-.018.39.39,0,0,0,.268-.434,9.6,9.6,0,0,1,0-1.018c.011-.218-.065-.279-.278-.275-.666.013-1.333-.005-2,.01-.233.005-.3-.062-.294-.3.015-.691.013-1.384,0-2.075,0-.218.068-.278.28-.276C43.418,64.612,44.324,64.606,45.23,64.606Z"/><path class="cls-1" d="M50.214,65.7c0-2.051.006-4.1-.006-6.154,0-.266.067-.329.33-.328q4.871.015,9.741,0c.269,0,.37.046.36.344q-.036,1.131,0,2.265c.01.327-.057.441-.419.438-2.026-.021-4.052,0-6.078-.019-.325,0-.4.09-.382.4a10.983,10.983,0,0,1,0,1.283c-.013.255.074.308.315.307,1.85-.01,3.7,0,5.549-.013.3,0,.38.08.371.375-.021.716-.019,1.434,0,2.151.007.271-.081.331-.339.33-1.85-.011-3.7,0-5.55-.014-.29,0-.361.079-.346.355a12.835,12.835,0,0,1,0,1.359c-.015.276.055.357.346.355,2.064-.014,4.128,0,6.191-.016.345,0,.441.084.429.43-.027.792-.015,1.585,0,2.378,0,.209-.049.28-.269.279q-4.984-.009-9.967,0c-.314,0-.271-.163-.271-.352Q50.216,68.777,50.214,65.7Z"/><path class="cls-1" d="M21.038,72.2c.3-.725.587-1.405.873-2.083q2.256-5.342,4.509-10.684a.421.421,0,0,1,.468-.311c.944.016,1.888.012,2.831,0a.375.375,0,0,1,.42.263q2.627,6.248,5.274,12.486c.108.255.1.338-.212.333q-1.6-.024-3.208,0a.393.393,0,0,1-.43-.309c-.229-.6-.485-1.184-.715-1.781a.323.323,0,0,0-.355-.245c-1.5.009-2.994.011-4.491,0a.343.343,0,0,0-.374.275c-.229.6-.469,1.191-.709,1.785-.049.12-.061.272-.258.272C23.471,72.194,22.281,72.2,21.038,72.2Zm5.769-5.147H29.7l-1.436-3.665Z"/><path class="cls-1" d="M3.631,65.7c0,2.049-.006,4.1.006,6.148,0,.281-.064.362-.351.356q-1.47-.028-2.942,0c-.3.006-.344-.09-.344-.362q.013-6.148,0-12.3c0-.265.068-.335.331-.33q1.49.024,2.98,0c.271,0,.327.079.326.336C3.626,61.6,3.63,63.651,3.631,65.7Z"/></g></g></g></g></g></svg>