<svg xmlns="http://www.w3.org/2000/svg" viewBox="0 0 74.82 72.45"><defs><style>.cls-1{fill:#fff;}</style></defs><title>imagen-client</title><g id="Layer_2" data-name="Layer 2"><g id="NOSOTROS"><g id="CLIENTES"><g id="LOGOS_CLIENTES" data-name="LOGOS CLIENTES"><g id="GRUPO_IMAGEN" data-name="GRUPO IMAGEN"><path class="cls-1" d="M37.11,27.89H48.48c.31,0,.39.08.39.39q0,11.4,0,22.8c0,.32-.09.39-.4.39H25.71c-.33,0-.41-.07-.41-.41q0-11.38,0-22.76c0-.34.09-.41.42-.41Z"/><path class="cls-1" d="M50,12.93A12.91,12.91,0,1,1,37.09,0,12.94,12.94,0,0,1,50,12.93Z"/><path class="cls-1" d="M12.85,69.87l-3.33-5.1v.47c0,2.2,0,4.4,0,6.61,0,.27,0,.36-.35.35-1,0-1.91,0-2.87,0-.25,0-.31-.07-.31-.31q0-6.18,0-12.35c0-.28.09-.33.34-.32H9.51a.46.46,0,0,1,.47.27c.95,1.57,1.92,3.13,2.88,4.7.15-.07.2-.23.27-.35C14,62.4,14.92,61,15.79,59.51a.54.54,0,0,1,.54-.29h3.09c.27,0,.37,0,.37.34,0,4.1,0,8.2,0,12.3,0,.26-.06.35-.33.34-.95,0-1.91,0-2.87,0-.29,0-.37-.07-.37-.37q0-3.37,0-6.76v-.21l-.07,0Z"/><path class="cls-1" d="M66.11,65.2v.41c0,2.07,0,4.15,0,6.22,0,.31-.09.38-.38.37-.95,0-1.91,0-2.87,0-.24,0-.31-.06-.31-.31V59.51c0-.23.06-.3.29-.29h2.68a.65.65,0,0,1,.62.3l4.74,6.1c.09.12.19.23.31.37a.68.68,0,0,0,.06-.41q0-3,0-6c0-.3.08-.37.37-.36h2.87c.23,0,.33,0,.33.3q0,6.18,0,12.38c0,.26-.09.31-.33.3q-1.24,0-2.49,0a.62.62,0,0,1-.56-.27l-5-6.49-.21-.26Z"/><path class="cls-1" d="M45.23,64.61h2.68c.23,0,.3.05.3.29,0,1.77,0,3.55,0,5.32a.42.42,0,0,1-.16.36c-2.88,2.3-7.36,2.58-10.14.31a6.31,6.31,0,0,1-2.36-4.59A6.65,6.65,0,0,1,41.36,59a7.69,7.69,0,0,1,6.17,1.6c.18.15.22.24,0,.44-.59.67-1.16,1.36-1.71,2.05-.17.21-.27.23-.47.06a4.26,4.26,0,0,0-3.3-1,3.31,3.31,0,0,0-2.81,2.72A3.56,3.56,0,0,0,41.11,69a4,4,0,0,0,3.43,0,.39.39,0,0,0,.26-.44c0-.34,0-.68,0-1s-.06-.27-.27-.27c-.67,0-1.34,0-2,0-.24,0-.3-.06-.3-.3,0-.69,0-1.38,0-2.07,0-.22.07-.28.28-.28Z"/><path class="cls-1" d="M50.21,65.7c0-2.05,0-4.1,0-6.15,0-.27.07-.33.33-.33h9.74c.27,0,.37,0,.36.34,0,.76,0,1.51,0,2.27,0,.32-.06.44-.42.43-2,0-4,0-6.08,0-.32,0-.4.09-.38.39a10.93,10.93,0,0,1,0,1.28c0,.26.07.31.31.31h5.55c.3,0,.38.08.37.37q0,1.08,0,2.16c0,.27-.08.33-.34.32-1.85,0-3.7,0-5.54,0-.3,0-.37.08-.35.36q0,.67,0,1.35c0,.28.05.36.34.36,2.07,0,4.13,0,6.2,0,.34,0,.44.09.43.43,0,.8,0,1.59,0,2.38,0,.21,0,.28-.27.28q-5,0-10,0c-.31,0-.27-.16-.27-.35Z"/><path class="cls-1" d="M21,72.2c.3-.73.58-1.41.87-2.09q2.27-5.34,4.51-10.68a.41.41,0,0,1,.47-.31c.94,0,1.89,0,2.83,0a.38.38,0,0,1,.42.26q2.63,6.25,5.27,12.49c.11.25.1.34-.21.33q-1.61,0-3.21,0a.38.38,0,0,1-.43-.3c-.23-.6-.48-1.19-.71-1.79a.33.33,0,0,0-.36-.24H26a.34.34,0,0,0-.37.27c-.23.6-.47,1.19-.71,1.79-.05.12-.06.27-.26.27C23.47,72.19,22.28,72.2,21,72.2Zm5.77-5.15H29.7l-1.44-3.66Z"/><path class="cls-1" d="M3.63,65.7c0,2,0,4.1,0,6.15,0,.28-.07.36-.35.35-1,0-2,0-2.95,0-.29,0-.34-.09-.34-.36q0-6.15,0-12.29c0-.27.07-.34.33-.33h3c.27,0,.33.07.33.33Q3.63,62.63,3.63,65.7Z"/></g></g></g></g></g></svg>