<svg xmlns="http://www.w3.org/2000/svg" viewBox="0 0 112.81 30.31"><defs><style>.cls-1{fill:#fff;}</style></defs><title>netflix-client</title><g id="Layer_2" data-name="Layer 2"><g id="NOSOTROS"><g id="CLIENTES"><g id="LOGOS_CLIENTES" data-name="LOGOS CLIENTES"><g id="NETFLIX"><path class="cls-1" d="M87.12,27.5c1.59.12,3.17.25,4.75.39V0H87.12ZM10.7,17.15,4.51,0H0V30.31c1.58-.23,3.16-.44,4.75-.65V13.18L10.25,29c1.73-.2,3.47-.39,5.2-.56V0H10.7ZM20,28q6.57-.59,13.2-1V22.31c-2.83.17-5.64.36-8.45.58V15.8c1.84,0,4.27-.07,6.42,0V11.07c-1.72,0-4.48,0-6.42,0V4.73h8.45V0H20ZM36.26,4.73h5V26.61c1.58-.06,3.17-.11,4.75-.15V4.73h5V0H36.26ZM54,26.33h4.75V15.53h6.44V10.85H58.75V4.73h8.51V0H54ZM112.81,0h-5.22l-3.44,8-3.09-8H95.92l5.52,14.25-6,14,5,.52,3.5-8.12,3.48,9q2.72.34,5.41.73h0l-6.19-16ZM75.06,0H70.31V26.57q6.47.22,12.89.65V22.54c-2.7-.18-5.42-.34-8.14-.46Z"/></g></g></g></g></g></svg>