<svg xmlns="http://www.w3.org/2000/svg" viewBox="0 0 89.25 60.85"><defs><style>.cls-1{fill:#fff;}</style></defs><title>rcn-client</title><g id="Layer_2" data-name="Layer 2"><g id="NOSOTROS"><g id="CLIENTES"><g id="LOGOS_CLIENTES" data-name="LOGOS CLIENTES"><g id="RCN"><path class="cls-1" d="M34,9.2c.47-.17.94-.35,1.41-.51s.73-.18,1.09-.29A2.21,2.21,0,0,1,37,8.24c.25,0,.41-.17.62-.21.4-.09.81-.13,1.21-.2a3.2,3.2,0,0,1,.65-.15A11.59,11.59,0,0,0,41,7.39c.42,0,.84-.09,1.26-.11.91,0,1.81-.08,2.72-.11a1.59,1.59,0,0,1,1.08.22.46.46,0,0,0,.65-.07l-.22,0v0l.81.06v0l-.15,0v0h1.26v.06H48v0l2,.18-.11.09,0-.06L51.56,8h0c.32.37.81.13,1.19.32a2.3,2.3,0,0,0,.32.15c.11,0,.26,0,.35,0,.33.22.79.15,1.08.4s.79.28,1.17.45c.07,0,.11.12.17.17a.4.4,0,0,0,.16.08l.59.13V9.8h-.15l0,.08a2.79,2.79,0,0,0,.39.1,2.85,2.85,0,0,1,1,.43c.38.23.74.52,1.12.76s.5.25.73.4.63.45.94.68c0,0,0,.1,0,.12s.12.18.19.2a2,2,0,0,1,1,.75c.3.31.62.59.91.9s.65.72,1,1.1.19.35-.12.5a12.92,12.92,0,0,1-1.84.87c-.21.07-.41.35-.65.47s-.54.22-.81.33a1.37,1.37,0,0,0-.24.18,2.23,2.23,0,0,1-.24.19.32.32,0,0,1-.46-.13c-.17-.23-.3-.49-.48-.71a5.67,5.67,0,0,0-.48-.5,3.88,3.88,0,0,1-.42-.39c-.07-.07-.08-.19-.14-.34s-.33-.07-.38-.32c0-.09-.2-.14-.3-.2-.36-.23-.72-.46-1.07-.7,0,0,0-.1,0-.08l-.43-.25L55.19,14c-.18-.11-.35-.25-.54-.35s-.36-.15-.54-.23a7.43,7.43,0,0,1-1-.43,3.84,3.84,0,0,0-1.11-.42s0-.06-.07-.1-.09-.09-.21,0a.14.14,0,0,1-.11,0l-1.22-.37.14-.05s-.06,0-.09,0a9,9,0,0,1-1-.13,3.41,3.41,0,0,1-.76-.15c-.4-.21-.83-.07-1.21-.24H46.6c-.1,0-.19,0-.29,0l-3.32,0-1.08,0c-.11,0-.22.06-.33.07-.37,0-.75.07-1.11.13a4.45,4.45,0,0,0-.51.19c-.13,0-.27,0-.41,0s-.2.07-.3.1,0,0,0,0c-.52,0-.93.33-1.42.41a10.72,10.72,0,0,0-1.29.5,7.52,7.52,0,0,0-1.07.51l-1.08.59c-.07,0-.16,0-.22.07a1.83,1.83,0,0,0-.3.18,3.21,3.21,0,0,1-.56.43c-.41.16-.63.54-1,.77a3.64,3.64,0,0,0-.46.3,5.45,5.45,0,0,0-.37.47c-.26.26-.54.49-.79.76a2.69,2.69,0,0,0-.26.44c-.32.47-.66.93-1,1.41a6,6,0,0,0-.3.79l-.2-.23a1.86,1.86,0,0,1-.19,1.27h-.07l.07-.27-.07,0c0,.16-.14.34-.11.48a4.42,4.42,0,0,1-.08,1.36c0,.31-.06.61,0,.91,0,.58.11,1.15.17,1.72a.17.17,0,0,0,0,.08s.09,0,.09,0c0,.32.18.55.28.82a11.2,11.2,0,0,0,.52,1.24c.15.33.32.64.48,1l.11-.07,0,.3c.35,0,.47.35.62.59s.41.31.38.6c.3,0,.42.3.57.49s.61.29.76.66c.06.17.36.24.59.38h-.2A5.48,5.48,0,0,1,34.5,32c.1,0,.27.09.43.17L36.6,33c.12.06.34.06.26.24.33.08.68.15,1,.24,0,0,0,.08,0,.08a4.85,4.85,0,0,1,.6.13,3.24,3.24,0,0,0,.74.29A5.51,5.51,0,0,1,40,34c.65.14,1.3.3,1.95.42.25.05.53,0,.76,0,.42.12.85,0,1.25.07a5.2,5.2,0,0,0,1.47.06c.35,0,.71-.07,1.06-.1.1,0,.2.05.3,0a9,9,0,0,0,.91-.1l1.78-.35a.16.16,0,0,1,.12,0c.33.15.33.15.56-.14,0,0,0-.05.05,0,.32.11.51-.21.79-.24.12,0,.24,0,.35,0,.44-.33,1.06-.27,1.51-.66v.12l2.41-1.19.3-.23c.22-.19.5-.27.72-.48a6.4,6.4,0,0,1,.93-.69l.27-.2.54-.57c.24-.23.51-.45.73-.69a7.33,7.33,0,0,0,.45-.64,5,5,0,0,1,.44-.59s.21,0,.29,0c.27.14.52.33.8.47.46.25.94.46,1.41.7.19.1.34.26.53.36s.35.11.51.19.4.26.6.39L64,30c-.19.2-.24.58-.68.51.14.19.08.29-.08.42a3.57,3.57,0,0,0-.34.43c-.34.36-.67.72-1,1.05s-.54.4-.8.62-.47.45-.72.65-.69.49-1,.72c-.07.05-.16,0-.3.07a7.87,7.87,0,0,0,.53.72,13.39,13.39,0,0,0,3.14,2.51,32.65,32.65,0,0,0,5,2.45,24.53,24.53,0,0,0,6,1.61,31.87,31.87,0,0,0,4,.13h4.41l2.33,0c.15,0,.21-.06.19-.21V4.08H73.87v12a1.2,1.2,0,0,1,0,.19,1.63,1.63,0,0,1-.11.23c-.06-.06-.15-.1-.19-.17-.29-.51-.56-1-.87-1.54a27.56,27.56,0,0,0-7.91-8.36,31.71,31.71,0,0,0-8.25-4.07A34.73,34.73,0,0,0,51,1,38.4,38.4,0,0,0,44.71.52h-.13c-.07-.21.09-.2.2-.21C45.36.23,46,.15,46.54.13c1.33,0,2.67-.1,4-.1a32.86,32.86,0,0,1,5.23.44A33.58,33.58,0,0,1,61.85,2a29.9,29.9,0,0,1,7.37,3.84,1.37,1.37,0,0,0,.2.13h.09V5.71c0-1.61,0-3.22,0-4.83,0-.26.09-.31.32-.31H88.69c.24,0,.32.05.32.31q0,22.35,0,44.7V46h-.31c-4.45,0-8.9,0-13.35,0a23.13,23.13,0,0,1-6-.8,35.17,35.17,0,0,1-9-4A19.93,19.93,0,0,1,56,37.66c-.22-.24-.43-.51-.63-.77a2.29,2.29,0,0,1-.16-.31,6.1,6.1,0,0,1-1.31.39s-.06.09-.12.1c-.34.1-.69.17-1,.27s-.61.24-.92.34a5.41,5.41,0,0,1-.69.1c-.08.11-.08.11-.28,0,0,0-.07,0-.1,0a7.35,7.35,0,0,1-.79.27,5.24,5.24,0,0,1-.7,0,2.89,2.89,0,0,0-.58.08,9.32,9.32,0,0,1-2.68.31c-.85,0-1.71,0-2.56,0s-1.92-.11-2.93-.16l.11-.16a1.45,1.45,0,0,0-.26-.07c-.2,0-.39.07-.59.11v-.08l.21,0c-.24,0-.42,0-.6-.05l-.69-.14-.24,0s-.07,0-.08,0c-.45-.31-1-.11-1.49-.39l0-.22c-.44.27-.8-.08-1.19-.16a8.4,8.4,0,0,1-1.2-.39,1.22,1.22,0,0,1-.29-.23s-.06-.05-.08,0c-.3.12-.48-.18-.73-.2-.06,0-.11-.08-.15-.13s-.08-.1-.11-.09c-.4,0-.69-.23-1-.38s-.81-.46-1.23-.7l.17-.13c-.58,0-.88-.43-1.32-.62a5.46,5.46,0,0,1-1.24-.89c-.37-.3-.72-.64-1.1-1l.22,0c-.12-.07-.18-.14-.26-.15-.3,0-.42-.29-.58-.49a3.88,3.88,0,0,0-.26-.31c-.36-.41-.73-.81-1.07-1.24a9.09,9.09,0,0,1-.71-1c-.18-.32-.31-.68-.47-1s-.34-.63-.47-1a5.54,5.54,0,0,1-.12-.71c0-.08-.12-.14-.14-.22s-.1-.41-.15-.63l0,.16a.45.45,0,0,1,0-.08c0-.26,0-.52-.07-.78,0-.07-.08-.13-.1-.21A10.75,10.75,0,0,1,23,21.74c0-.1.08-.19.1-.3a3.87,3.87,0,0,0,.12-.68l0,.08s0,0,0,0c.1-.37.21-.73.31-1.09a12.11,12.11,0,0,1,.37-1.21c.19-.48.42-1,.66-1.42a2.11,2.11,0,0,1,.37-.36s.11-.12.1-.15c-.12-.23.06-.39.16-.54a6.09,6.09,0,0,1,.72-.95,16.61,16.61,0,0,1,1.37-1.53,3.24,3.24,0,0,1,.88-.68c.11,0,.19-.16.29-.25l.27-.24a2,2,0,0,1,1.15-.74.47.47,0,0,1,0-.21s.11,0,.17,0l.52-.39,0-.06-.39.22c-.32-.35-.62-.71-.95-1A14,14,0,0,0,26,7.92c-1.07-.6-2.18-1.15-3.3-1.66a25.79,25.79,0,0,0-6.38-2,23.23,23.23,0,0,0-4-.23H4.63a.93.93,0,0,0,0,.14V41.55c0,.46,0,.39.4.39H15.08c.26,0,.33-.07.33-.33V29.55c.16-.14.22,0,.28.12a24.5,24.5,0,0,0,3.4,5,36.46,36.46,0,0,0,2.76,2.8,29.79,29.79,0,0,0,9.48,5.67A34.58,34.58,0,0,0,38,44.94a41.85,41.85,0,0,0,6.51.55.37.37,0,0,1,.19.09c-.06,0-.11.09-.17.1a43.24,43.24,0,0,1-5.46.3,35.43,35.43,0,0,1-4.83-.35,33.89,33.89,0,0,1-6.53-1.54,29.7,29.7,0,0,1-7.18-3.62l-.79-.54v5.48H.51c-.22,0-.26-.07-.26-.27V0l.3,0C5,0,9.45,0,13.9,0a24.08,24.08,0,0,1,8.38,1.57,38.22,38.22,0,0,1,7.48,3.82A16.66,16.66,0,0,1,33.67,8.8c.11.13.2.27.3.4l-.78.31.05.11ZM58,35.29,58,35.21l-.94.52,0,.07ZM42.32,7.45l-.69.07v.1A.73.73,0,0,0,42.32,7.45ZM32.67,9.87l0-.08-.51.25,0,.08Z"/><path class="cls-1" d="M2,56.75v3.93H0v-8.8H3.65a2,2,0,0,1,1.81.79,1.4,1.4,0,0,1,.26.57,6.46,6.46,0,0,1,0,1.39,1.54,1.54,0,0,1-1.38,1.32L4.05,56a3.25,3.25,0,0,1,1.89,3c.07.55.08,1.1.12,1.67h-2c0-.45,0-.9-.08-1.34a9,9,0,0,0-.3-1.55C3.4,56.91,3,56.66,2,56.75Zm0-3.63v2.36c.39,0,.77,0,1.13-.1a.8.8,0,0,0,.68-.77,2.66,2.66,0,0,0,0-.63.82.82,0,0,0-.78-.8C2.7,53.13,2.36,53.14,2,53.12Z"/><path class="cls-1" d="M82.53,51.66h1a.42.42,0,0,1,.23.15l3.68,4.56.42.53V51.67h1.42v8.91c-.25,0-.51,0-.76,0-.08,0-.17-.11-.23-.19-1.38-1.71-2.74-3.44-4.11-5.16L84,55v5.52H82.53Z"/><path class="cls-1" d="M74.14,56.18a5.64,5.64,0,0,1,.5-2.75A3.3,3.3,0,0,1,78,51.53a3.2,3.2,0,0,1,3.2,2.5,7.34,7.34,0,0,1,0,4.23,3.32,3.32,0,0,1-3.45,2.46,3.48,3.48,0,0,1-3.52-3.23c0-.22,0-.44-.06-.65S74.14,56.4,74.14,56.18Zm5.33,0c-.09-.81-.13-1.53-.26-2.24a1.2,1.2,0,0,0-1.35-1.15,1.27,1.27,0,0,0-1.51,1.08,8,8,0,0,0-.16,1.2,13.52,13.52,0,0,0,.12,3.24,1.15,1.15,0,0,0,.63,1,1.49,1.49,0,0,0,2.21-.92C79.33,57.63,79.37,56.87,79.47,56.2Z"/><path class="cls-1" d="M14.15,51.87c.33,0,.64,0,.94,0a.42.42,0,0,1,.27.17L18.52,56l.87,1.08V51.88h1.42V60.7c-.25,0-.5,0-.75,0a.45.45,0,0,1-.24-.17l-4.15-5.21-.09-.1v5.47H14.15Z"/><path class="cls-1" d="M31.13,60.57V51.68h5.41V53H33.16v2.38h2.63v1.36H33.16v2.5h3.63v1.35Z"/><path class="cls-1" d="M46.69,53v2.37h2.63v1.37H46.69v2.49h3.62v1.36H44.68v-8.9h5.4V53Z"/><path class="cls-1" d="M62.63,58.83a11.87,11.87,0,0,0,1.67.4,9.1,9.1,0,0,0,1.73,0,.82.82,0,0,0,.76-.73,1,1,0,0,0-.43-1.13c-.4-.23-.84-.41-1.25-.62s-.83-.42-1.22-.68a2.44,2.44,0,0,1,.56-4.18,5.18,5.18,0,0,1,2.7-.29c.37,0,.74.15,1.11.22.16,0,.21.11.21.27,0,.38,0,.75,0,1.14-.5-.09-1-.2-1.46-.25a6.17,6.17,0,0,0-1.29,0A.85.85,0,0,0,65,54.28a1,1,0,0,0,.42.38c.47.22,1,.41,1.43.6a3.49,3.49,0,0,1,1.56,1.05A2.63,2.63,0,0,1,67,60.49a7.67,7.67,0,0,1-4.14-.13.28.28,0,0,1-.18-.2C62.62,59.71,62.63,59.26,62.63,58.83Z"/><path class="cls-1" d="M54.63,57.77c.14-.45.26-.82.38-1.19.48-1.55,1-3.09,1.42-4.64a.35.35,0,0,1,.41-.29c.43,0,.88,0,1.35,0-.18.54-.35,1.06-.53,1.58-.8,2.35-1.6,4.69-2.38,7-.08.24-.18.32-.43.31a8.52,8.52,0,0,0-1.13,0,.28.28,0,0,1-.32-.23q-.9-2.79-1.82-5.56c-.32-1-.63-1.91-.94-2.86,0-.08,0-.17-.08-.27h2.17Z"/><path class="cls-1" d="M12.93,53.37a15,15,0,0,0-1.58-.23,2,2,0,0,0-2.11,1.41,5.38,5.38,0,0,0,0,3.65,1.81,1.81,0,0,0,2,1.25c.55-.06,1.09-.19,1.65-.29,0,.37,0,.79,0,1.21a.22.22,0,0,1-.14.16,4.73,4.73,0,0,1-4.7-.72A3.68,3.68,0,0,1,7,57.64a7.16,7.16,0,0,1,.12-3.09,3.83,3.83,0,0,1,4-2.79c.54,0,1.08.13,1.62.2.18,0,.24.13.23.32C12.92,52.66,12.93,53,12.93,53.37Z"/><path class="cls-1" d="M26.27,53h-2V51.68h5.88V53h-1.9v7.58h-2Z"/><path class="cls-1" d="M40.05,59.24h3.27v1.32H38V51.67h2Z"/><path class="cls-1" d="M61.26,60.56h-2V51.68h2Z"/><path class="cls-1" d="M70.52,51.67h2v8.89h-2Z"/></g></g></g></g></g></svg>