<svg xmlns="http://www.w3.org/2000/svg" width="89.255" height="60.848" viewBox="0 0 89.255 60.848"><defs><style>.cls-1{fill:#fff;}</style></defs><title>rcn-client</title><g id="Layer_2" data-name="Layer 2"><g id="NOSOTROS"><g id="CLIENTES"><g id="LOGOS_CLIENTES" data-name="LOGOS CLIENTES"><g id="RCN"><path class="cls-1" d="M33.966,9.2c.472-.168.94-.348,1.416-.5.356-.115.725-.19,1.086-.29a2.148,2.148,0,0,1,.524-.166c.245,0,.412-.169.623-.214.4-.083.8-.125,1.2-.2a3.237,3.237,0,0,1,.654-.149,11.772,11.772,0,0,0,1.558-.285c.42-.035.839-.1,1.261-.118.9-.047,1.809-.078,2.714-.108a1.572,1.572,0,0,1,1.085.224.464.464,0,0,0,.65-.077l-.219-.034.005-.043.811.065.005.036-.152.032,0,.029h1.258v.06h-.41v.021l1.948.174-.106.1.017-.067L51.559,8c.009,0,.021,0,.026.005.329.364.818.122,1.193.314a1.9,1.9,0,0,0,.326.154c.11.03.257-.019.342.036.336.219.8.154,1.08.4.356.307.793.285,1.173.459.067.03.108.114.169.164a.424.424,0,0,0,.158.081c.2.047.4.085.6.127l-.008.067h-.15l-.026.072a2.664,2.664,0,0,0,.4.109,2.656,2.656,0,0,1,1.021.428c.389.227.741.516,1.121.759.235.151.5.248.737.4.323.211.628.449.936.681.021.016-.01.093.011.12.055.074.117.18.192.2.458.092.7.449,1,.753s.622.585.914.9c.332.354.647.723.956,1.1.223.271.192.355-.116.507a13.872,13.872,0,0,1-1.84.868c-.215.07-.413.349-.657.472s-.538.214-.8.331a1.238,1.238,0,0,0-.245.173,2.7,2.7,0,0,1-.236.194.326.326,0,0,1-.466-.131c-.169-.23-.3-.488-.472-.713a4.964,4.964,0,0,0-.488-.5c-.138-.132-.294-.246-.418-.388a1.294,1.294,0,0,1-.14-.348c-.112-.054-.327-.065-.383-.317-.02-.085-.193-.135-.3-.2-.358-.23-.717-.457-1.071-.693-.031-.021-.024-.1-.02-.081-.169-.1-.3-.182-.43-.256-.148-.082-.3-.149-.448-.236-.184-.111-.352-.249-.54-.351-.171-.093-.36-.152-.54-.23a7.586,7.586,0,0,1-.952-.432,3.9,3.9,0,0,0-1.114-.422c-.03-.008-.051-.059-.071-.093-.056-.092-.084-.1-.2-.041a.179.179,0,0,1-.112,0c-.406-.122-.811-.247-1.222-.372l.147-.048c-.045-.024-.069-.047-.1-.05-.346-.043-.7-.056-1.036-.133a3.53,3.53,0,0,1-.765-.149c-.4-.208-.831-.065-1.212-.241a.058.058,0,0,0-.026-.006c-.284,0-.568.012-.852.011-.1,0-.191-.034-.287-.034-1.107.01-2.214.02-3.321.036-.359,0-.718.019-1.076.039-.113.006-.222.052-.335.066-.37.045-.744.069-1.112.13-.174.029-.332.138-.5.185-.131.036-.275.023-.41.049a2.223,2.223,0,0,0-.3.1c-.016,0-.031.023-.045.022-.517-.014-.927.332-1.426.416a10.554,10.554,0,0,0-1.291.5,7.305,7.305,0,0,0-1.062.51c-.368.183-.721.395-1.084.588-.067.036-.154.035-.223.07a2.105,2.105,0,0,0-.293.182,2.89,2.89,0,0,1-.562.424c-.41.165-.633.542-.977.775a3.633,3.633,0,0,0-.468.295c-.145.135-.231.331-.37.475-.252.261-.535.493-.783.757a3.2,3.2,0,0,0-.267.438c-.317.473-.655.932-.952,1.416a4.843,4.843,0,0,0-.308.786l-.192-.227a1.881,1.881,0,0,1-.2,1.269l-.063-.014.063-.265-.065-.024c-.041.163-.145.342-.11.486a4.862,4.862,0,0,1-.078,1.359c-.008.3-.068.609-.048.91.038.575.116,1.148.177,1.723,0,.026-.006.062.009.076s.085.031.084.042c-.022.312.188.547.28.818a13.37,13.37,0,0,0,.523,1.242c.147.324.318.637.483.966l.113-.071-.024.3c.352.037.469.355.622.594.126.2.4.3.38.593.3.035.421.307.565.5.21.276.615.286.76.661.063.163.359.236.595.377h-.2A5.468,5.468,0,0,1,34.5,32.027c.107.041.273.1.432.17.558.253,1.115.509,1.668.773.121.057.342.061.26.239.338.077.683.153,1.026.238.023,0,.028.081.028.081a4.538,4.538,0,0,1,.6.134,3.316,3.316,0,0,0,.744.29,4.99,4.99,0,0,1,.712.069c.651.14,1.3.3,1.952.422.245.045.523-.057.757.009.422.12.852-.043,1.249.063a5.132,5.132,0,0,0,1.466.063c.356-.006.71-.072,1.066-.1.1-.008.2.051.3.044.3-.024.611-.049.911-.1.593-.107,1.183-.234,1.775-.349a.216.216,0,0,1,.127.019c.325.152.324.153.557-.142.013-.017.038-.045.049-.041.319.108.511-.2.786-.235.119-.013.242,0,.349-.023.447-.332,1.069-.266,1.518-.655l-.01.112,2.407-1.186c.119-.092.214-.158.3-.233.218-.188.5-.265.717-.479a7.592,7.592,0,0,1,.927-.691c.09-.066.18-.13.275-.2.177-.187.354-.383.542-.568.239-.235.5-.447.727-.7a6.458,6.458,0,0,0,.453-.636,6.174,6.174,0,0,1,.432-.588.317.317,0,0,1,.291-.017c.274.145.524.334.8.477.465.243.946.455,1.411.7.19.1.347.26.535.362.158.085.351.1.509.189.207.111.394.258.594.384a2.153,2.153,0,0,0,.25.113c-.2.2-.241.585-.682.508.141.192.081.3-.085.422-.142.107-.217.3-.343.433-.332.357-.663.718-1.02,1.05-.244.227-.538.4-.8.614s-.468.454-.723.654c-.331.258-.682.491-1.031.724a.985.985,0,0,1-.3.063c.183.251.338.5.529.721a13.3,13.3,0,0,0,3.147,2.509,32.128,32.128,0,0,0,4.96,2.456A24.464,24.464,0,0,0,73.666,41.8a31.6,31.6,0,0,0,4.034.13c1.471-.008,2.943,0,4.414,0q1.162,0,2.326.017c.15,0,.207-.06.193-.2,0-.052,0-.106,0-.159q0-18.543,0-37.087V4.082H73.871V16.074a.712.712,0,0,1,0,.185,1.815,1.815,0,0,1-.1.235.931.931,0,0,1-.191-.178c-.294-.511-.565-1.035-.87-1.539A27.434,27.434,0,0,0,64.79,6.425a31.537,31.537,0,0,0-8.249-4.078,35.2,35.2,0,0,0-5.5-1.334A38.462,38.462,0,0,0,44.708.518a1.155,1.155,0,0,1-.13-.01c-.071-.213.094-.2.2-.213.586-.061,1.172-.14,1.759-.164,1.337-.053,2.675-.1,4.012-.106a35.1,35.1,0,0,1,11.3,1.993,29.861,29.861,0,0,1,7.37,3.845c.064.046.132.086.2.127.013.007.034,0,.095,0V5.715c0-1.613,0-3.225-.007-4.838,0-.253.083-.307.316-.307q9.436.007,18.874,0c.232,0,.314.054.313.308Q89,23.228,89,45.578v.391c-.118.006-.212.015-.306.015-4.45,0-8.9.03-13.349-.01a23.339,23.339,0,0,1-5.969-.809,34.837,34.837,0,0,1-8.956-4,19.625,19.625,0,0,1-4.409-3.5c-.224-.247-.429-.513-.631-.778a1.716,1.716,0,0,1-.156-.3c-.427.075-.808.392-1.318.387-.017.015-.059.088-.118.1-.34.1-.689.164-1.026.268-.314.1-.613.242-.927.337a5.136,5.136,0,0,1-.682.105c-.079.112-.078.11-.28.013a.155.155,0,0,0-.1.007,7.69,7.69,0,0,1-.79.262,5.567,5.567,0,0,1-.7.053,2.61,2.61,0,0,0-.582.082,9.768,9.768,0,0,1-2.683.314c-.852.038-1.708,0-2.561-.029-.962-.035-1.923-.1-2.925-.159l.107-.152a.764.764,0,0,0-.261-.07c-.2.02-.39.069-.585.107l-.013-.077.211-.044c-.237-.019-.42-.021-.6-.049-.234-.037-.464-.1-.7-.142a2.147,2.147,0,0,0-.24-.026c-.025,0-.061.022-.076.011-.447-.316-1.019-.111-1.494-.4l-.034-.22c-.439.268-.8-.08-1.2-.157a7.635,7.635,0,0,1-1.2-.4,1.238,1.238,0,0,1-.286-.223c-.026-.02-.066-.056-.084-.048-.3.128-.478-.171-.733-.2-.054-.006-.1-.083-.151-.128s-.073-.1-.1-.1c-.406.054-.691-.226-1.014-.379-.42-.2-.812-.457-1.23-.7l.171-.127c-.58,0-.878-.428-1.318-.619a5.729,5.729,0,0,1-1.237-.89c-.376-.3-.724-.643-1.1-.983l.213-.022c-.113-.072-.178-.143-.251-.154-.3-.042-.424-.282-.583-.486-.083-.107-.175-.208-.264-.311-.357-.412-.728-.812-1.066-1.239a8.669,8.669,0,0,1-.71-1.043c-.185-.32-.312-.674-.472-1.009s-.343-.631-.468-.964a5.035,5.035,0,0,1-.124-.715c-.018-.081-.118-.142-.141-.222-.058-.2-.094-.409-.141-.625l-.048.155a.535.535,0,0,1-.019-.078c-.023-.259-.039-.519-.071-.777-.009-.072-.077-.135-.1-.208A11.09,11.09,0,0,1,23,21.745c0-.1.077-.2.1-.3a3.86,3.86,0,0,0,.114-.688l-.048.084c-.008-.013-.024-.026-.022-.035q.156-.544.316-1.089c.118-.4.208-.815.362-1.2a14.892,14.892,0,0,1,.668-1.418c.078-.147.247-.244.37-.368.04-.041.106-.117.093-.144-.117-.237.063-.391.166-.546a6.27,6.27,0,0,1,.715-.945,16.359,16.359,0,0,1,1.377-1.535,3.22,3.22,0,0,1,.876-.676c.111-.039.192-.162.286-.246l.271-.245a1.975,1.975,0,0,1,1.153-.74.489.489,0,0,1,.017-.205c.017-.03.108-.017.17-.024l.519-.392-.037-.057-.387.217c-.32-.35-.619-.7-.948-1.029a14.155,14.155,0,0,0-3.123-2.241c-1.075-.6-2.18-1.147-3.3-1.655a25.661,25.661,0,0,0-6.38-1.976,23.488,23.488,0,0,0-4-.233c-2.476.01-4.951,0-7.427,0H4.629a1.142,1.142,0,0,0-.018.14q0,18.677,0,37.352c0,.453-.031.39.4.39q5.036,0,10.072.005c.254,0,.329-.071.329-.325q-.011-5.909,0-11.816v-.255c.16-.139.217-.009.285.123a24.436,24.436,0,0,0,3.393,5.017,36.252,36.252,0,0,0,2.763,2.795,29.7,29.7,0,0,0,9.482,5.674,34.779,34.779,0,0,0,6.69,1.785,41.06,41.06,0,0,0,6.513.541c.063,0,.125.059.187.09-.058.034-.114.092-.176.1a42.457,42.457,0,0,1-5.452.309,38.438,38.438,0,0,1-4.839-.351,33.944,33.944,0,0,1-6.521-1.547,29.851,29.851,0,0,1-7.188-3.616c-.244-.169-.491-.334-.788-.536v5.479h-.374q-9.436,0-18.874.006c-.216,0-.263-.067-.263-.272Q.255,22.863.251.579V.026C.362.02.455.011.548.011,5,.01,9.448-.019,13.9.02a23.957,23.957,0,0,1,8.38,1.568A38.317,38.317,0,0,1,29.76,5.407a16.858,16.858,0,0,1,3.913,3.4c.1.13.2.267.3.4l-.783.31.051.105ZM58.018,35.287l-.055-.081-.939.526.036.064ZM42.318,7.45l-.689.068.01.1A.708.708,0,0,0,42.318,7.45ZM32.667,9.868l-.034-.079-.513.255.041.081Z"/><path class="cls-1" d="M1.981,56.752v3.93H0v-8.8c.068-.005.127-.013.186-.013,1.154,0,2.308-.011,3.462,0a2,2,0,0,1,1.808.786,1.382,1.382,0,0,1,.261.568,6.11,6.11,0,0,1,.035,1.39,1.544,1.544,0,0,1-1.381,1.325l-.323.066c1.373.56,1.727,1.729,1.892,3,.07.546.08,1.1.118,1.672H4.071c-.026-.452-.024-.9-.083-1.342a8.727,8.727,0,0,0-.3-1.547C3.4,56.911,2.955,56.664,1.981,56.752ZM2,53.124v2.361c.393-.036.768-.049,1.135-.11a.8.8,0,0,0,.679-.769,2.506,2.506,0,0,0-.005-.63.819.819,0,0,0-.773-.8C2.7,53.129,2.356,53.14,2,53.124Z"/><path class="cls-1" d="M82.528,51.658c.342,0,.659-.01.974.007a.367.367,0,0,1,.226.144q1.843,2.279,3.678,4.563l.427.527V51.671h1.422v8.906c-.259,0-.514.015-.764-.009-.084-.008-.173-.106-.234-.183q-2.06-2.578-4.112-5.162c-.037-.046-.078-.09-.157-.181V60.56h-1.46Z"/><path class="cls-1" d="M74.137,56.176a5.7,5.7,0,0,1,.5-2.75,3.3,3.3,0,0,1,3.316-1.9,3.2,3.2,0,0,1,3.2,2.5,7.331,7.331,0,0,1,.018,4.222,3.336,3.336,0,0,1-3.459,2.466,3.479,3.479,0,0,1-3.516-3.23c-.025-.218-.05-.437-.061-.656S74.137,56.4,74.137,56.176Zm5.333.026c-.089-.811-.131-1.533-.256-2.241a1.211,1.211,0,0,0-1.358-1.154A1.281,1.281,0,0,0,76.35,53.89a7.71,7.71,0,0,0-.163,1.2,13.349,13.349,0,0,0,.127,3.238,1.143,1.143,0,0,0,.623.951,1.49,1.49,0,0,0,2.211-.921A19.766,19.766,0,0,0,79.47,56.2Z"/><path class="cls-1" d="M14.154,51.869c.325,0,.633-.014.939.008a.454.454,0,0,1,.263.176q1.587,1.959,3.165,3.927c.275.342.551.682.872,1.077V51.881h1.419V60.7c-.247,0-.5.015-.752-.008a.432.432,0,0,1-.24-.172q-2.079-2.6-4.152-5.2c-.016-.021-.034-.039-.092-.1V60.68H14.154Z"/><path class="cls-1" d="M31.135,60.567V51.68h5.4v1.3H33.162v2.381h2.629V56.72H33.164v2.5h3.628v1.349Z"/><path class="cls-1" d="M46.692,52.983v2.37h2.631v1.368h-2.63v2.493h3.618v1.355H44.679v-8.9h5.4v1.311Z"/><path class="cls-1" d="M62.632,58.834a13.169,13.169,0,0,0,1.663.395,8.955,8.955,0,0,0,1.732-.023.82.82,0,0,0,.766-.726.992.992,0,0,0-.434-1.13c-.4-.234-.837-.405-1.25-.621a11.62,11.62,0,0,1-1.214-.682,2.44,2.44,0,0,1,.555-4.181,5.22,5.22,0,0,1,2.7-.286c.373.039.739.148,1.111.216.161.03.213.111.208.273-.01.376,0,.754,0,1.145-.5-.089-.983-.208-1.468-.25a5.539,5.539,0,0,0-1.287.028A.847.847,0,0,0,65,54.284a1.014,1.014,0,0,0,.421.376c.468.221.953.408,1.434.6a3.438,3.438,0,0,1,1.554,1.051,2.622,2.622,0,0,1-1.447,4.172,7.616,7.616,0,0,1-4.142-.129.294.294,0,0,1-.18-.2C62.624,59.708,62.632,59.26,62.632,58.834Z"/><path class="cls-1" d="M54.631,57.772c.142-.448.262-.82.377-1.193.478-1.544.959-3.088,1.427-4.635a.338.338,0,0,1,.4-.293c.439.022.879.006,1.355.006-.182.543-.355,1.065-.531,1.585-.8,2.346-1.6,4.692-2.384,7.042-.077.231-.174.321-.423.3a10.25,10.25,0,0,0-1.136,0c-.185.007-.258-.059-.314-.23Q52.5,57.575,51.576,54.8q-.47-1.428-.938-2.856c-.027-.082-.049-.166-.079-.268h2.174Z"/><path class="cls-1" d="M12.926,53.372a13.786,13.786,0,0,0-1.574-.232A1.956,1.956,0,0,0,9.24,54.547a5.328,5.328,0,0,0,0,3.651,1.815,1.815,0,0,0,2.031,1.251c.545-.055,1.083-.186,1.652-.287,0,.372,0,.79-.007,1.207a.239.239,0,0,1-.14.164,4.707,4.707,0,0,1-4.694-.719,3.683,3.683,0,0,1-1.093-2.175,7.127,7.127,0,0,1,.12-3.089,3.841,3.841,0,0,1,3.971-2.792c.541.035,1.078.132,1.617.2.179.024.238.13.231.313C12.916,52.658,12.926,53.043,12.926,53.372Z"/><path class="cls-1" d="M26.267,53H24.306v-1.32h5.888v1.3h-1.9v7.585H26.267Z"/><path class="cls-1" d="M40.046,59.236h3.273v1.326H38.03V51.669h2.016Z"/><path class="cls-1" d="M61.255,60.563h-2V51.679h2Z"/><path class="cls-1" d="M70.515,51.67H72.5v8.895H70.515Z"/></g></g></g></g></g></svg>