<svg xmlns="http://www.w3.org/2000/svg" width="73.564" height="70.393" viewBox="0 0 73.564 70.393"><defs><style>.cls-1{fill:#fff;}</style></defs><title>space-client</title><g id="Layer_2" data-name="Layer 2"><g id="NOSOTROS"><g id="CLIENTES"><g id="LOGOS_CLIENTES" data-name="LOGOS CLIENTES"><g id="SPACE"><path class="cls-1" d="M19.836,53.269H14.563V70.155h3.672v-5.2h1.6a5.858,5.858,0,1,0,0-11.687Zm-.423,8.367H18.235V56.589h1.178c3.025,0,3.025,1.908,3.025,2.532S22.438,61.636,19.413,61.636Z"/><path class="cls-1" d="M8.5,60.205l-2.248-.722c-2-.641-2-1.295-2-1.611,0-.482.23-1.609,2.352-1.609a7.465,7.465,0,0,1,4.98,1.909,18.051,18.051,0,0,1,1.6-2.756,8.633,8.633,0,0,0-6.555-2.555c-3.676,0-6.339,2.133-6.339,5.072,0,2.336,1.486,3.968,4.543,4.987l2.272.763c1.444.483,2.177,1.048,2.177,1.674,0,.871-1.093,1.549-2.49,1.549-2.285,0-2.71-1.044-2.825-2.067H0l.011.175c.306,3.316,2.8,5.294,6.664,5.294s6.571-2.1,6.571-5.111C13.246,62.888,11.653,61.208,8.5,60.205Z"/><path class="cls-1" d="M56.364,70.155H67.692V66.712H60.206V63.351h7.486V59.912H60.206v-3.2h7.486V53.269H56.364Z"/><path class="cls-1" d="M33.712,53.269H30.853l-5.415,12.6L23.72,69.855l-.13.3h4.019L29.072,66.6h6.42c.31.743,1.466,3.552,1.466,3.552h4.016ZM30.443,63.282c.47-1.154,1.153-2.827,1.841-4.5l1.839,4.5Z"/><polygon class="cls-1" points="73.045 67.997 72.559 68.951 72.074 67.997 71.554 67.997 71.554 70.155 72.083 70.155 72.083 69.122 72.389 69.653 72.73 69.653 73.031 69.122 73.031 70.155 73.564 70.155 73.564 67.997 73.045 67.997"/><polygon class="cls-1" points="69.653 68.471 70.182 68.471 70.182 70.155 70.711 70.155 70.711 68.471 71.245 68.471 71.245 67.997 69.653 67.997 69.653 68.471"/><path class="cls-1" d="M43.578,61.167a5.105,5.105,0,0,1,1.531-3.085c.05-.048.1-.1.149-.14s.1-.088.152-.131a5.98,5.98,0,0,1,2.7-1.251l.053-.007c.139-.024.28-.043.421-.057.177-.017.356-.026.538-.026.043,0,.085.005.127.005.148,0,.3.016.455.029a5.637,5.637,0,0,1,3.047,1.333l.581.5,2.516-2.6-.651-.566a9.623,9.623,0,0,0-6.075-2.148c-5.866,0-9.371,4.413-9.371,8.683h0c0,4.269,3.5,8.682,9.371,8.682A9.622,9.622,0,0,0,55.2,68.246l.651-.565-2.516-2.6-.581.5A5.621,5.621,0,0,1,49.7,66.916c-.154.014-.307.027-.455.029-.042,0-.084.007-.127.007-.182,0-.361-.011-.538-.026-.141-.014-.282-.034-.421-.058l-.053-.008a5.966,5.966,0,0,1-2.7-1.249c-.05-.043-.1-.087-.152-.132s-.1-.092-.149-.139a5.111,5.111,0,0,1-1.531-3.085c-.017-.162-.026-.328-.028-.494,0-.018,0-.034,0-.051s0-.032,0-.049C43.552,61.493,43.561,61.328,43.578,61.167Z"/><path class="cls-1" d="M34.1,19.42a5.486,5.486,0,1,0,5.528,5.486A5.509,5.509,0,0,0,34.1,19.42Z"/><path class="cls-1" d="M34.1,0A24.221,24.221,0,1,0,58.324,24.221,24.218,24.218,0,0,0,34.1,0Zm0,37.383a12.462,12.462,0,0,1-5.333-23.777V10.912a5.333,5.333,0,0,1,10.666,0l-.094,2.65A12.462,12.462,0,0,1,34.1,37.383Z"/></g></g></g></g></g></svg>