<svg xmlns="http://www.w3.org/2000/svg" viewBox="0 0 73.56 70.39"><defs><style>.cls-1{fill:#fff;}</style></defs><title>space-client</title><g id="Layer_2" data-name="Layer 2"><g id="NOSOTROS"><g id="CLIENTES"><g id="LOGOS_CLIENTES" data-name="LOGOS CLIENTES"><g id="SPACE"><path class="cls-1" d="M19.84,53.27H14.56V70.16h3.68V65h1.6a5.86,5.86,0,1,0,0-11.69Zm-.43,8.37H18.24v-5h1.17c3,0,3,1.91,3,2.53S22.44,61.64,19.41,61.64Z"/><path class="cls-1" d="M8.5,60.2l-2.24-.72c-2-.64-2-1.29-2-1.61,0-.48.23-1.61,2.35-1.61a7.46,7.46,0,0,1,5,1.91,18.17,18.17,0,0,1,1.6-2.75,8.61,8.61,0,0,0-6.55-2.56C3,52.86.29,55,.29,57.93c0,2.34,1.49,4,4.54,5l2.27.76c1.45.49,2.18,1.05,2.18,1.68,0,.87-1.09,1.55-2.49,1.55-2.28,0-2.71-1-2.82-2.07H0V65c.31,3.32,2.8,5.3,6.66,5.3s6.58-2.1,6.58-5.11C13.25,62.89,11.65,61.21,8.5,60.2Z"/><path class="cls-1" d="M56.36,70.16H67.69V66.71H60.21V63.35h7.48V59.91H60.21v-3.2h7.48V53.27H56.36Z"/><path class="cls-1" d="M33.71,53.27H30.85L25.44,65.86l-1.72,4-.13.31h4s1.16-2.81,1.46-3.56h6.42L37,70.16h4Zm-3.27,10c.47-1.15,1.16-2.82,1.84-4.5l1.84,4.5Z"/><polygon class="cls-1" points="73.05 68 72.56 68.95 72.07 68 71.55 68 71.55 70.16 72.08 70.16 72.08 69.12 72.39 69.65 72.73 69.65 73.03 69.12 73.03 70.16 73.56 70.16 73.56 68 73.05 68"/><polygon class="cls-1" points="69.65 68.47 70.18 68.47 70.18 70.16 70.71 70.16 70.71 68.47 71.25 68.47 71.25 68 69.65 68 69.65 68.47"/><path class="cls-1" d="M43.58,61.17a5.07,5.07,0,0,1,1.53-3.09l.15-.14.15-.13a6,6,0,0,1,2.7-1.25h0l.42,0a4.89,4.89,0,0,1,.54,0h.13l.45,0a5.73,5.73,0,0,1,3,1.34l.58.5,2.52-2.6-.66-.57A9.62,9.62,0,0,0,49.12,53c-5.87,0-9.37,4.41-9.37,8.68h0c0,4.27,3.5,8.68,9.37,8.68a9.62,9.62,0,0,0,6.07-2.14l.66-.57-2.52-2.6-.58.5a5.65,5.65,0,0,1-3,1.34l-.45,0h-.13l-.54,0-.42-.06h0a6,6,0,0,1-2.7-1.25l-.15-.13-.15-.14a5.07,5.07,0,0,1-1.53-3.09,3.91,3.91,0,0,1,0-.49v-.1A3.91,3.91,0,0,1,43.58,61.17Z"/><path class="cls-1" d="M34.1,19.42a5.49,5.49,0,1,0,5.53,5.49A5.51,5.51,0,0,0,34.1,19.42Z"/><path class="cls-1" d="M34.1,0A24.22,24.22,0,1,0,58.32,24.22,24.22,24.22,0,0,0,34.1,0Zm0,37.38a12.46,12.46,0,0,1-5.33-23.77v-2.7a5.33,5.33,0,0,1,10.66,0l-.09,2.65A12.46,12.46,0,0,1,34.1,37.38Z"/></g></g></g></g></g></svg>