<svg xmlns="http://www.w3.org/2000/svg" viewBox="0 0 80.44 62.71"><defs><style>.cls-1{fill:#fff;}</style></defs><title>telemundo-client</title><g id="Layer_2" data-name="Layer 2"><g id="NOSOTROS"><g id="CLIENTES"><g id="LOGOS_CLIENTES" data-name="LOGOS CLIENTES"><g id="TELEMUNDO"><polygon class="cls-1" points="0 54.05 0 55.81 2.45 55.81 2.45 62.57 4.43 62.57 4.43 55.81 6.88 55.81 6.88 54.05 0 54.05"/><polygon class="cls-1" points="8.85 62.57 8.85 54.05 14.92 54.05 14.92 55.79 10.82 55.79 10.82 57.34 13.78 57.34 13.78 59.06 10.82 59.06 10.82 60.84 14.98 60.84 14.98 62.57 8.85 62.57"/><polygon class="cls-1" points="17.34 62.57 17.34 54.05 19.34 54.05 19.34 60.79 23.19 60.79 23.19 62.57 17.34 62.57"/><polygon class="cls-1" points="25 62.57 25 54.05 31.08 54.05 31.08 55.79 26.97 55.79 26.97 57.34 29.94 57.34 29.94 59.06 26.97 59.06 26.97 60.84 31.14 60.84 31.14 62.57 25 62.57"/><path class="cls-1" d="M44.19,54.05h2V59.3a1.52,1.52,0,1,0,3,0V54.05h2V59.3c0,2.37-1.64,3.38-3.55,3.38s-3.52-1-3.52-3.39Z"/><path class="cls-1" d="M53.74,62.57V54.05h1.71s3.36,4.75,3.48,5v-5h1.91v8.52H59.22s-3.43-4.91-3.57-5.16v5.16Z"/><path class="cls-1" d="M66.38,54.05h-3v8.52h2.86c2.94,0,4.46-1.45,4.46-4.29s-1.6-4.23-4.32-4.23m0,6.76h-1v-5h1c1.64,0,2.31.95,2.31,2.49s-.71,2.51-2.35,2.51"/><path class="cls-1" d="M79.37,55.19a4.18,4.18,0,0,0-6,0,5,5,0,0,0,0,6.23,3.89,3.89,0,0,0,3,1.28,4,4,0,0,0,3-1.29,5.07,5.07,0,0,0,0-6.23m-1.45,4.88a1.81,1.81,0,0,1-1.56.85,1.86,1.86,0,0,1-1.56-.85,3.16,3.16,0,0,1-.49-1.77,3.13,3.13,0,0,1,.49-1.76,1.8,1.8,0,0,1,1.54-.84,1.83,1.83,0,0,1,1.57.86,3.11,3.11,0,0,1,.49,1.76,3.15,3.15,0,0,1-.48,1.75"/><path class="cls-1" d="M33.48,62.57V54.05h1.77s2.26,4.23,2.35,4.54c.1-.32,2.35-4.54,2.35-4.54H41.7v8.52H39.82V57.7c-.12.31-1.54,2.9-1.89,3.68h-.67c-.36-.78-1.77-3.37-1.9-3.68v4.87Z"/><path class="cls-1" d="M63.87,0H55.55C49.14,0,44.1,1.94,40.35,5h0l-.11.1S39,6.26,38.11,7.26a18.94,18.94,0,0,0-1.19,1.49c-3,4.12-4.51,9.3-4.45,15.41a28.08,28.08,0,0,0,1.3,8.34,21.71,21.71,0,0,0,.84,2.21c0,.11.09.22.14.33a22.28,22.28,0,0,0,1.48,2.72c.19.31.31.48.51.77l-.22.15-.34-.48c-.29-.43-.57-.88-.83-1.34a31.42,31.42,0,0,1-1.45-3c0-.09-.07-.18-.1-.28A26.81,26.81,0,0,1,32,24.17a26.46,26.46,0,0,1,2.68-12.44A21.8,21.8,0,0,1,36.62,8.6a22.5,22.5,0,0,1,2.47-2.8l.3-.29c.21-.21.43-.43.64-.61l0,0A23.35,23.35,0,0,0,25,0H16.71a.14.14,0,0,0-.14.14V18.48a.14.14,0,0,0,.14.14H30.86c.08,0,.14,0,.14.12-.83,28.25-.87,29.6-.87,29.62s0,.07.07.07a24.08,24.08,0,0,0,10.09-5.07,24.12,24.12,0,0,0,10.08,5.07c.07,0,.08,0,.08-.08s-.87-29.61-.87-29.61.05-.12.13-.12H63.87a.14.14,0,0,0,.14-.14V.14A.14.14,0,0,0,63.87,0Z"/></g></g></g></g></g></svg>