<svg xmlns="http://www.w3.org/2000/svg" viewBox="0 0 97.87 54.57"><defs><style>.cls-1{fill:#fff;}</style></defs><title>telefe-client</title><g id="Layer_2" data-name="Layer 2"><g id="NOSOTROS"><g id="CLIENTES"><g id="LOGOS_CLIENTES" data-name="LOGOS CLIENTES"><g id="TELEFE"><path class="cls-1" d="M85.32,46a4.9,4.9,0,0,0-.16.85c0,.33-.15.41-.46.41H74.52c.25,2.71.82,4.42,3.56,5.08a6.12,6.12,0,0,0,4.22-.72c.19-.09.37-.2.6-.32L84,53.09c-.65.3-1.27.62-1.92.86a8.52,8.52,0,0,1-5,.39,6.21,6.21,0,0,1-4.62-4.13,8.43,8.43,0,0,1,.94-8,6.47,6.47,0,0,1,6.07-2.77,6.56,6.56,0,0,1,3.15,1,5.74,5.74,0,0,1,2.65,4.4,2.46,2.46,0,0,0,.09.29Zm-2.53-.56c0-2.26-1.78-3.79-4.28-3.76-1.9,0-4,2-4,3.76Z"/><path class="cls-1" d="M36.06,47.19H25.43c-.08,3.43,1.85,5.43,5.14,5.17a6.61,6.61,0,0,0,3.14-1.16c.27.47.54.91.79,1.36a.49.49,0,0,1-.24.77,8.35,8.35,0,0,1-7.63.57,6.32,6.32,0,0,1-3.7-4.73A8.07,8.07,0,0,1,25,41.34a6.85,6.85,0,0,1,9.83.35,5.66,5.66,0,0,1,1.24,3.38C36.09,45.76,36.06,46.46,36.06,47.19Zm-2.38-1.8c-.46-2.58-1.72-3.84-4.18-3.76s-3.72,1.69-4.07,3.76Z"/><path class="cls-1" d="M59.54,47.2H48.91c0,3.63,2.12,5.64,5.7,5.08A6.07,6.07,0,0,0,56,51.87a14.17,14.17,0,0,0,1.3-.64l1,1.8a8.5,8.5,0,0,1-2.8,1.22,8,8,0,0,1-5-.19,6.6,6.6,0,0,1-4.13-5.51A8.89,8.89,0,0,1,47,43.39a6.72,6.72,0,0,1,7-3.9,6.2,6.2,0,0,1,4.67,2.66,4.79,4.79,0,0,1,.85,2.64C59.56,45.57,59.54,46.35,59.54,47.2Zm-2.39-1.82a3.83,3.83,0,0,0-3.52-3.76,4.39,4.39,0,0,0-4.73,3.76Z"/><path class="cls-1" d="M69.13,39.75v2h-3V54.28h-2.5V41.83H61.49c0-.67,0-1.3,0-1.93,0-.06.21-.17.32-.17.58,0,1.17,0,1.75,0,.12-.72.21-1.42.36-2.1a5,5,0,0,1,1.61-2.85,4.83,4.83,0,0,1,3.82-1c.54,0,1.07.16,1.65.26-.2.54-.36,1-.56,1.53,0,.08-.2.14-.3.15-.41,0-.83,0-1.24,0a2.63,2.63,0,0,0-2.69,2.32c-.07.43-.08.87-.13,1.3s.08.37.36.36h2.38Z"/><path class="cls-1" d="M16,41.69c0,.16,0,.27,0,.39,0,2.36,0,4.71,0,7.07a9,9,0,0,0,.17,1.46,2.08,2.08,0,0,0,2.16,1.78,15.77,15.77,0,0,0,1.92-.25c.13,0,.26-.06.42-.1.06.37.12.71.18,1.06s.12.71.19,1.1a14.23,14.23,0,0,1-4.21.24,4,4,0,0,1-3.27-3.63,32.67,32.67,0,0,1-.12-3.29c0-1.8,0-3.6,0-5.41,0-.33-.09-.44-.42-.42a5.46,5.46,0,0,1-1,0c-.11,0-.28-.14-.28-.22,0-.56,0-1.13,0-1.74H13c.51,0,.51,0,.51-.53,0-.75,0-1.51,0-2.26,0-.13.08-.32.17-.35.75-.32,1.51-.61,2.34-.93v.48c0,1.06,0,2.12,0,3.18,0,.31.08.41.4.41,1,0,2.1,0,3.14,0l.49,0v2Z"/><path class="cls-1" d="M39.11,33.72h2.53v.51q0,7.19,0,14.36c0,.47,0,.95.06,1.43a2.22,2.22,0,0,0,1.72,2.16c.82.23.65,0,.67.9,0,.45,0,.9,0,1.35,0,0,0,0,0,.12-1.43-.14-2.87-.28-4-1.41a3.81,3.81,0,0,1-.9-2.57c-.06-.81-.08-1.64-.08-2.46,0-4.62,0-9.25,0-13.88Z"/><path class="cls-1" d="M97.87,15.68C98,25,90.27,31.32,82.05,31.36A16,16,0,0,1,66.3,15.67C66.27,8.85,71.66,0,82.12,0A15.38,15.38,0,0,1,97.87,15.68Z"/><path class="cls-1" d="M64.7,15.68A15.64,15.64,0,0,1,48.89,31.36,16,16,0,0,1,33.13,15.67C33.1,8.85,38.5,0,49,0A15.38,15.38,0,0,1,64.7,15.68Z"/><path class="cls-1" d="M15.89,31.25A15.81,15.81,0,0,1,4,26.15,15.63,15.63,0,0,1,.18,18C-.94,11.62,3.15,3.39,10.36.93A16.62,16.62,0,0,1,18,.24a15,15,0,0,1,7.53,3,14.67,14.67,0,0,1,5.75,9.9,15.33,15.33,0,0,1-3.25,12.26A15.21,15.21,0,0,1,18,31.16c-.2,0-.4.08-.59.08C16.87,31.26,16.38,31.25,15.89,31.25Z"/></g></g></g></g></g></svg>