<svg xmlns="http://www.w3.org/2000/svg" viewBox="0 0 68.13 66.54"><defs><style>.cls-1{fill:#faf4f5;}</style></defs><title>tnt-client</title><g id="Layer_2" data-name="Layer 2"><g id="NOSOTROS"><g id="CLIENTES"><g id="LOGOS_CLIENTES" data-name="LOGOS CLIENTES"><g id="TNT"><path class="cls-1" d="M0,33.26C0,51.61,15.3,66.54,34.07,66.54S68.13,51.61,68.13,33.26,52.85,0,34.07,0,0,14.92,0,33.26Zm5.46,0C5.46,17.85,18.3,5.32,34.07,5.32S62.69,17.85,62.69,33.26s-12.84,28-28.62,28S5.46,48.68,5.46,33.26Z"/><path class="cls-1" d="M24.8,30.28H19.69v13H15.24v-13H10.13V26.53H24.8Z"/><path class="cls-1" d="M26.72,26.53h4.57l6,10.3h0V26.53h4.2V43.24H36.9L31,32.83h-.05V43.24H26.72Z"/><path class="cls-1" d="M58.08,30.28H53v13H48.52v-13h-5.1V26.53H58.08Z"/></g></g></g></g></g></svg>