<svg xmlns="http://www.w3.org/2000/svg" width="68.129" height="66.538" viewBox="0 0 68.129 66.538"><defs><style>.cls-1{fill:#faf4f5;}</style></defs><title>tnt-client</title><g id="Layer_2" data-name="Layer 2"><g id="NOSOTROS"><g id="CLIENTES"><g id="LOGOS_CLIENTES" data-name="LOGOS CLIENTES"><g id="TNT"><path class="cls-1" d="M0,33.262c0,18.35,15.3,33.276,34.075,33.276S68.129,51.612,68.129,33.262,52.853,0,34.075,0,0,14.922,0,33.262Zm5.461,0C5.461,17.853,18.3,5.316,34.075,5.316S62.693,17.853,62.693,33.262,49.853,61.219,34.075,61.219,5.461,48.678,5.461,33.262Z"/><path class="cls-1" d="M24.8,30.276H19.7V43.24H15.24V30.276H10.134V26.532H24.8Z"/><path class="cls-1" d="M26.717,26.532h4.576l5.945,10.294h.046V26.532h4.2V43.24H36.9L30.958,32.827h-.046V43.24H26.717Z"/><path class="cls-1" d="M58.084,30.276h-5.1V43.24H48.523V30.276h-5.1V26.532h14.66Z"/></g></g></g></g></g></svg>