<svg xmlns="http://www.w3.org/2000/svg" viewBox="0 0 83.78 79.69"><defs><style>.cls-1{fill:#fff;}</style></defs><title>univision-client</title><g id="Layer_2" data-name="Layer 2"><g id="NOSOTROS"><g id="CLIENTES"><g id="LOGOS_CLIENTES" data-name="LOGOS CLIENTES"><g id="UNIVISION"><polygon class="cls-1" points="26.93 71.94 24.24 71.94 24.24 63.31 24.24 61.91 26.93 61.91 26.93 71.94"/><polygon class="cls-1" points="44.18 71.94 41.49 71.94 41.49 63.31 41.49 61.91 44.18 61.91 44.18 71.94"/><polygon class="cls-1" points="59.21 71.94 56.52 71.94 56.52 63.31 56.52 61.91 59.21 61.91 59.21 71.94"/><path class="cls-1" d="M14.7,71.94V66.39a2.13,2.13,0,0,1,2.2-2.19,2.18,2.18,0,0,1,2.22,2.19v5.55H21.8V66.49A4.63,4.63,0,0,0,17,61.71a4.59,4.59,0,0,0-5,4.78v5.45Z"/><path class="cls-1" d="M76.42,71.94V66.39a2.13,2.13,0,0,1,2.21-2.19,2.17,2.17,0,0,1,2.21,2.19v5.55h2.69V66.49a4.9,4.9,0,0,0-9.8,0v5.45Z"/><polygon class="cls-1" points="34.2 68.03 36.95 61.91 39.75 61.91 35.14 71.94 33.28 71.94 28.67 61.91 31.46 61.91 34.2 68.03"/><path class="cls-1" d="M47.64,68.88a4.22,4.22,0,0,0,2.75,1c.72,0,1.28-.35,1.28-.85,0-1.5-4.86-1-4.86-4.19,0-1.93,1.86-3.12,3.85-3.12a6.22,6.22,0,0,1,3.39,1l-1.26,1.94A3.41,3.41,0,0,0,50.86,64c-.74,0-1.36.29-1.36.8,0,1.31,4.86.79,4.86,4.27,0,1.91-1.88,3.09-4,3.09a6.91,6.91,0,0,1-4-1.34Z"/><path class="cls-1" d="M66.47,61.71a5.22,5.22,0,1,1-5.34,5.23,5.21,5.21,0,0,1,5.34-5.23m0,7.95a2.74,2.74,0,1,0-2.64-2.72,2.62,2.62,0,0,0,2.64,2.72"/><path class="cls-1" d="M7.12,61.91v5.55a2.15,2.15,0,0,1-2.22,2.2,2.19,2.19,0,0,1-2.21-2.2V61.91H0v5.45a4.63,4.63,0,0,0,4.84,4.78,4.59,4.59,0,0,0,5-4.78V61.91Z"/><path class="cls-1" d="M83.05,78.08a1.55,1.55,0,0,1-1.26.66,1.45,1.45,0,0,1,0-2.9,1.43,1.43,0,0,1,1.09.51l.69-.73a2.42,2.42,0,0,0-1.78-.73,2.4,2.4,0,1,0,0,4.8,2.45,2.45,0,0,0,2-1Z"/><polygon class="cls-1" points="71.53 79.63 72.58 79.63 72.58 74.95 71.53 74.95 71.53 75.65 71.53 79.63"/><polygon class="cls-1" points="77.14 77.72 74.78 74.95 74.03 74.95 74.03 79.63 75.08 79.63 75.08 76.86 77.42 79.6 77.45 79.63 78.19 79.63 78.19 74.95 77.14 74.95 77.14 77.72"/><path class="cls-1" d="M3.75,78.08a1.54,1.54,0,0,1-1.26.66,1.45,1.45,0,0,1,0-2.9,1.43,1.43,0,0,1,1.09.51l.69-.73a2.39,2.39,0,0,0-1.77-.73,2.4,2.4,0,1,0,0,4.8,2.43,2.43,0,0,0,2-1Z"/><path class="cls-1" d="M40.29,78.08a1.54,1.54,0,0,1-1.26.66,1.45,1.45,0,0,1,0-2.9,1.46,1.46,0,0,1,1.09.51l.68-.73A2.43,2.43,0,1,0,39,79.69a2.47,2.47,0,0,0,2-1Z"/><path class="cls-1" d="M7.51,74.89a2.4,2.4,0,1,0,0,4.8,2.4,2.4,0,1,0,0-4.8Zm0,3.85A1.45,1.45,0,1,1,8.9,77.29,1.41,1.41,0,0,1,7.51,78.74Z"/><polygon class="cls-1" points="13.39 77.56 11.8 74.95 11.05 74.95 11.05 79.63 12.1 79.63 12.1 77.36 13.03 78.89 13.74 78.89 14.67 77.36 14.67 79.63 15.72 79.63 15.72 74.95 14.97 74.95 13.39 77.56"/><polygon class="cls-1" points="19.51 77.56 17.93 74.95 17.17 74.95 17.17 79.63 18.22 79.63 18.22 77.36 19.16 78.89 19.86 78.89 20.8 77.36 20.8 79.63 21.85 79.63 21.85 74.95 21.09 74.95 19.51 77.56"/><polygon class="cls-1" points="31.89 77.72 29.52 74.95 28.78 74.95 28.78 79.63 29.83 79.63 29.83 76.86 32.17 79.6 32.2 79.63 32.94 79.63 32.94 74.95 31.89 74.95 31.89 77.72"/><polygon class="cls-1" points="34.39 79.63 35.44 79.63 35.44 74.95 34.39 74.95 34.39 75.65 34.39 79.63"/><polygon class="cls-1" points="50.94 79.63 51.99 79.63 51.99 74.95 50.94 74.95 50.94 75.65 50.94 79.63"/><path class="cls-1" d="M44.28,75h-.73l-2,4.68h1.1l.42-1h1.68l.43,1h1.1Zm-.82,2.73.45-1.05.45,1.05Z"/><polygon class="cls-1" points="46.38 75.91 47.57 75.91 47.57 79.63 48.62 79.63 48.62 75.91 49.8 75.91 49.8 74.95 46.38 74.95 46.38 75.91"/><path class="cls-1" d="M55.52,74.89A2.4,2.4,0,1,0,58,77.29,2.36,2.36,0,0,0,55.52,74.89Zm0,3.85a1.45,1.45,0,1,1,1.39-1.45A1.41,1.41,0,0,1,55.52,78.74Z"/><polygon class="cls-1" points="62.17 77.72 59.8 74.95 59.06 74.95 59.06 79.63 60.11 79.63 60.11 76.86 62.45 79.6 62.48 79.63 63.22 79.63 63.22 74.95 62.17 74.95 62.17 77.72"/><path class="cls-1" d="M64.33,78.93a2.51,2.51,0,0,0,1.76.76,1.52,1.52,0,0,0,1.61-1.44c0-1-.76-1.26-1.37-1.5-.44-.17-.7-.29-.7-.51s.37-.4.6-.4a1.1,1.1,0,0,1,.79.35l.56-.8a2.17,2.17,0,0,0-1.43-.5,1.45,1.45,0,0,0-1.57,1.35,1.22,1.22,0,0,0,.68,1.11,4.59,4.59,0,0,0,.6.27c.42.17.79.31.79.65a.5.5,0,0,1-.56.47A1.4,1.4,0,0,1,65,78.2Z"/><path class="cls-1" d="M25.31,79.69a1.88,1.88,0,0,1-2-2V75h1.05v2.7c0,.88.5,1.09,1,1.09s1-.21,1-1.09V75h1v2.7A1.88,1.88,0,0,1,25.31,79.69Z"/><g id="layer1"><g id="g23394"><path id="path23309" class="cls-1" d="M39.77,51.86c-13-1.37-22-12.88-22-23.48,0,0,5.73,2.63,18.93,2.63-.16,12.89.86,17.12,3.1,20.85Z"/><path id="path23311" class="cls-1" d="M17.74,27.07V9.17c1.9,5,6.12,9.87,6.12,19.33a17.36,17.36,0,0,1-6.12-1.43Z"/><path id="path23313" class="cls-1" d="M27.5,28.69c3.33,0,8.11-1.28,9.16-2V12.4C33.37,8.34,26,3.83,19.92,3.83c-1.75,0-2.19.41-2.19,1.26a11.41,11.41,0,0,0,1.62,4.58c3.45,6.3,5.84,12,5.76,18.89C25.11,28.56,26.93,28.69,27.5,28.69Z"/><path id="path23333" class="cls-1" d="M38,29.55V0C61.69,0,65.39,2.07,66.21,3.06V26.93C64.26,27.86,60.6,29.66,38,29.55Z"/><path id="path23335" class="cls-1" d="M38,31c18,.15,26-1.45,28.24-2.62C66.21,32,63.37,52,41.28,52,38.12,47.54,38,39.14,38,31Z"/></g></g></g></g></g></g></g></svg>