<svg xmlns="http://www.w3.org/2000/svg" width="83.78" height="79.693" viewBox="0 0 83.78 79.693"><defs><style>.cls-1{fill:#fff;}</style></defs><title>univision-client</title><g id="Layer_2" data-name="Layer 2"><g id="NOSOTROS"><g id="CLIENTES"><g id="LOGOS_CLIENTES" data-name="LOGOS CLIENTES"><g id="UNIVISION"><polygon class="cls-1" points="26.928 71.935 24.239 71.935 24.239 63.306 24.239 61.914 26.928 61.914 26.928 71.935"/><polygon class="cls-1" points="44.178 71.935 41.489 71.935 41.489 63.306 41.489 61.914 44.178 61.914 44.178 71.935"/><polygon class="cls-1" points="59.206 71.935 56.517 71.935 56.517 63.306 56.517 61.914 59.206 61.914 59.206 71.935"/><path class="cls-1" d="M14.7,71.935V66.392a2.13,2.13,0,0,1,2.2-2.2,2.18,2.18,0,0,1,2.216,2.2v5.543H21.8V66.494a4.635,4.635,0,0,0-4.842-4.788,4.593,4.593,0,0,0-4.956,4.788v5.441Z"/><path class="cls-1" d="M76.424,71.935V66.392a2.131,2.131,0,0,1,2.2-2.2,2.18,2.18,0,0,1,2.216,2.2v5.543h2.685V66.494a4.9,4.9,0,0,0-9.8,0v5.441Z"/><polygon class="cls-1" points="34.205 68.033 36.953 61.914 39.749 61.914 35.138 71.935 33.28 71.935 28.668 61.914 31.457 61.914 34.205 68.033"/><path class="cls-1" d="M47.639,68.88a4.227,4.227,0,0,0,2.747.99c.725,0,1.282-.351,1.282-.845,0-1.507-4.856-.97-4.856-4.2,0-1.922,1.861-3.12,3.843-3.12a6.224,6.224,0,0,1,3.392,1.011l-1.258,1.944a3.386,3.386,0,0,0-1.925-.679c-.741,0-1.364.286-1.364.8,0,1.3,4.857.786,4.857,4.262,0,1.919-1.878,3.1-3.987,3.1A6.923,6.923,0,0,1,46.341,70.8Z"/><path class="cls-1" d="M66.475,61.706a5.221,5.221,0,1,1-5.341,5.231,5.216,5.216,0,0,1,5.341-5.231m0,7.956a2.739,2.739,0,1,0-2.649-2.725,2.617,2.617,0,0,0,2.649,2.725"/><path class="cls-1" d="M7.117,61.914v5.545a2.141,2.141,0,0,1-2.216,2.2,2.185,2.185,0,0,1-2.213-2.2V61.914H0v5.442a4.637,4.637,0,0,0,4.842,4.789A4.6,4.6,0,0,0,9.8,67.356V61.914Z"/><path class="cls-1" d="M83.046,78.076a1.516,1.516,0,0,1-1.259.664,1.448,1.448,0,0,1-.037-2.9,1.438,1.438,0,0,1,1.09.5l.687-.725a2.4,2.4,0,0,0-1.773-.732,2.4,2.4,0,1,0,.015,4.8,2.451,2.451,0,0,0,2.011-.963Z"/><polygon class="cls-1" points="71.535 79.628 72.585 79.628 72.585 74.953 71.535 74.953 71.535 75.651 71.535 79.628"/><polygon class="cls-1" points="77.144 77.722 74.778 74.953 74.035 74.953 74.035 79.628 75.084 79.628 75.084 76.859 77.424 79.596 77.451 79.628 78.195 79.628 78.195 74.953 77.144 74.953 77.144 77.722"/><path class="cls-1" d="M3.75,78.076a1.516,1.516,0,0,1-1.258.664,1.448,1.448,0,0,1-.038-2.9,1.442,1.442,0,0,1,1.091.5l.686-.725a2.4,2.4,0,0,0-1.773-.732,2.4,2.4,0,1,0,.015,4.8,2.45,2.45,0,0,0,2.011-.963Z"/><path class="cls-1" d="M40.291,78.076a1.517,1.517,0,0,1-1.258.664,1.448,1.448,0,0,1-.038-2.9,1.436,1.436,0,0,1,1.09.5l.687-.725A2.406,2.406,0,0,0,39,74.89a2.4,2.4,0,1,0,.013,4.8,2.452,2.452,0,0,0,2.012-.963Z"/><path class="cls-1" d="M7.513,74.89a2.4,2.4,0,1,0,0,4.8,2.4,2.4,0,1,0,0-4.8Zm0,3.85A1.449,1.449,0,1,1,8.9,77.292,1.4,1.4,0,0,1,7.513,78.74Z"/><polygon class="cls-1" points="13.386 77.557 11.801 74.953 11.049 74.953 11.049 79.628 12.098 79.628 12.098 77.362 13.033 78.891 13.74 78.891 14.673 77.362 14.673 79.628 15.722 79.628 15.722 74.953 14.971 74.953 13.386 77.557"/><polygon class="cls-1" points="19.511 77.557 17.928 74.953 17.172 74.953 17.172 79.628 18.223 79.628 18.223 77.362 19.157 78.891 19.863 78.891 20.798 77.362 20.798 79.628 21.847 79.628 21.847 74.953 21.094 74.953 19.511 77.557"/><polygon class="cls-1" points="31.891 77.722 29.524 74.953 28.78 74.953 28.78 79.628 29.829 79.628 29.829 76.859 32.17 79.596 32.197 79.628 32.94 79.628 32.94 74.953 31.891 74.953 31.891 77.722"/><polygon class="cls-1" points="34.39 79.628 35.439 79.628 35.439 74.953 34.39 74.953 34.39 75.651 34.39 79.628"/><polygon class="cls-1" points="50.938 79.628 51.987 79.628 51.987 74.953 50.938 74.953 50.938 75.651 50.938 79.628"/><path class="cls-1" d="M44.281,74.953h-.733l-2,4.675h1.1l.424-1h1.68l.425,1h1.1Zm-.823,2.728.453-1.053.453,1.053Z"/><polygon class="cls-1" points="46.383 75.907 47.569 75.907 47.569 79.628 48.62 79.628 48.62 75.907 49.804 75.907 49.804 74.953 46.383 74.953 46.383 75.907"/><path class="cls-1" d="M55.524,74.89a2.4,2.4,0,1,0,2.432,2.4A2.366,2.366,0,0,0,55.524,74.89Zm0,3.85a1.45,1.45,0,1,1,1.382-1.448A1.4,1.4,0,0,1,55.524,78.74Z"/><polygon class="cls-1" points="62.168 77.722 59.801 74.953 59.058 74.953 59.058 79.628 60.107 79.628 60.107 76.859 62.447 79.596 62.476 79.628 63.218 79.628 63.218 74.953 62.168 74.953 62.168 77.722"/><path class="cls-1" d="M64.331,78.93a2.508,2.508,0,0,0,1.755.763A1.516,1.516,0,0,0,67.7,78.255c0-.959-.761-1.26-1.373-1.5-.434-.174-.7-.29-.7-.514,0-.31.379-.394.6-.394a1.09,1.09,0,0,1,.791.344l.56-.8a2.171,2.171,0,0,0-1.429-.5,1.453,1.453,0,0,0-1.573,1.355,1.214,1.214,0,0,0,.681,1.1,4.169,4.169,0,0,0,.607.274c.42.168.784.311.784.646a.5.5,0,0,1-.562.474,1.4,1.4,0,0,1-1.057-.537Z"/><path class="cls-1" d="M25.313,79.693A1.882,1.882,0,0,1,23.3,77.645V74.953h1.051v2.692c0,.888.5,1.095.965,1.095s.966-.207.966-1.095V74.953H27.33v2.692A1.882,1.882,0,0,1,25.313,79.693Z"/><g id="layer1"><g id="g23394"><path id="path23309" class="cls-1" d="M39.771,51.864c-12.965-1.37-22.028-12.88-22.028-23.482,0,0,5.722,2.631,18.927,2.631-.158,12.89.858,17.119,3.1,20.851Z"/><path id="path23311" class="cls-1" d="M17.743,27.072V9.17c1.9,5.011,6.113,9.867,6.113,19.325a17.312,17.312,0,0,1-6.113-1.423Z"/><path id="path23313" class="cls-1" d="M27.5,28.691c3.327,0,8.105-1.285,9.163-1.972V12.4c-3.3-4.057-10.623-8.572-16.747-8.572-1.753,0-2.184.41-2.184,1.267A11.427,11.427,0,0,0,19.348,9.67c3.453,6.305,5.847,12,5.76,18.888C25.108,28.558,26.933,28.691,27.5,28.691Z"/><path id="path23333" class="cls-1" d="M37.975,29.547V0C61.691,0,65.386,2.072,66.211,3.057v23.87C64.259,27.855,60.6,29.655,37.975,29.547Z"/><path id="path23335" class="cls-1" d="M37.975,31c18.032.145,26-1.454,28.236-2.626,0,3.637-2.844,23.588-24.933,23.588C38.117,47.537,37.975,39.141,37.975,31Z"/></g></g></g></g></g></g></g></svg>