<svg xmlns="http://www.w3.org/2000/svg" viewBox="0 0 118.33 27.08"><defs><style>.cls-1{fill:#fff;fill-rule:evenodd;}</style></defs><title>youtube-client</title><g id="Layer_2" data-name="Layer 2"><g id="NOSOTROS"><g id="CLIENTES"><g id="LOGOS_CLIENTES" data-name="LOGOS CLIENTES"><g id="YOUTUBE"><path class="cls-1" d="M71.22,25.07h3.07V8H71.22V21c-2.2,2.57-2.76.65-2.76-.32V8H65.39V21.3c0,2.17.54,3.55,1.92,3.77.92.15,2.25,0,3.91-2v2Zm-24.8,0h3.46V15.91L54,2.27H50.53l-2.38,8.57L45.76,2.27H42.3l4.12,13.66v9.14Zm12-17.25h0A4.6,4.6,0,0,1,63,12.41v8.07a4.6,4.6,0,0,1-4.59,4.59h0a4.61,4.61,0,0,1-4.59-4.59V12.41a4.6,4.6,0,0,1,4.59-4.59ZM57,20.89a1.47,1.47,0,0,0,1.46,1.47h0a1.47,1.47,0,0,0,1.47-1.47V12a1.47,1.47,0,0,0-1.47-1.46h0A1.47,1.47,0,0,0,57,12Z"/><path class="cls-1" d="M97.68,25.07h3.07V23.25a3.69,3.69,0,0,0,3.4,1.82c3.09-.36,2.53-4.47,2.53-4.47V11.85c0-2.88-1-4-2.82-4a4.61,4.61,0,0,0-3.11,1.77V2.27H97.68v22.8Zm3.07-3.53V11.36a1.93,1.93,0,0,1,1.55-.8c1.44.09,1.29,1.92,1.29,1.92s0,6.75,0,8.05-.51,1.75-1.35,1.78A2.12,2.12,0,0,1,100.75,21.54Z"/><path class="cls-1" d="M91.88,25.07H95V8H91.88V21c-2.21,2.57-2.76.65-2.76-.32V8H86.05V21.3c0,2.17.54,3.55,1.92,3.77.92.15,2.25,0,3.91-2Z"/><polygon class="cls-1" points="78.52 25.07 81.98 25.07 81.98 5.52 85.61 5.52 85.61 2.27 74.9 2.27 74.9 5.52 78.52 5.52 78.52 25.07"/><path class="cls-1" d="M113.74,7.82h0a4.6,4.6,0,0,1,4.59,4.59V17h-6.06v3.87a1.47,1.47,0,0,0,1.47,1.47h0a1.47,1.47,0,0,0,1.46-1.47V19h3.13v1.49a4.61,4.61,0,0,1-4.59,4.59h0a4.61,4.61,0,0,1-4.6-4.59V12.41a4.6,4.6,0,0,1,4.6-4.59Zm1.46,6.6V12a1.47,1.47,0,0,0-1.46-1.46h0A1.47,1.47,0,0,0,112.27,12v2.4Z"/><path class="cls-1" d="M39.18,12.12c-.06-4.42-.46-8.85-2.27-10.49-.7-.63-1.36-1-4-1.27C29.58.05,25.09,0,21.7,0H17.49C14.1,0,9.61.05,6.29.36,3.64.61,3,1,2.28,1.63.44,3.3.06,7.86,0,12.34c0,.84,0,1.68,0,2.51,0,4.45.45,9,2.27,10.6.7.63,1.36,1,4,1.28,3.32.3,7.81.35,11.2.35H21.7c3.39,0,7.88,0,11.2-.35,2.65-.25,3.31-.65,4-1.28,1.81-1.64,2.21-6.07,2.27-10.48Q39.19,13.54,39.18,12.12ZM15.76,19.53V7.91l9.89,5.63Z"/></g></g></g></g></g></svg>