<svg xmlns="http://www.w3.org/2000/svg" width="118.326" height="27.084" viewBox="0 0 118.326 27.084"><defs><style>.cls-1{fill:#fff;fill-rule:evenodd;}</style></defs><title>youtube-client</title><g id="Layer_2" data-name="Layer 2"><g id="NOSOTROS"><g id="CLIENTES"><g id="LOGOS_CLIENTES" data-name="LOGOS CLIENTES"><g id="YOUTUBE"><path class="cls-1" d="M71.224,25.066h3.068V8.008H71.224v13c-2.209,2.573-2.765.651-2.765-.315V8.008H65.39V21.3c0,2.17.543,3.554,1.922,3.773.92.146,2.247,0,3.912-2.033v2.026Zm-24.8,0h3.46V15.912L54,2.268h-3.46l-2.388,8.573L45.759,2.268H42.3L46.42,15.932v9.134ZM58.444,7.816h0a4.6,4.6,0,0,1,4.59,4.59v8.07a4.6,4.6,0,0,1-4.59,4.59h0a4.6,4.6,0,0,1-4.591-4.59v-8.07a4.6,4.6,0,0,1,4.591-4.59ZM56.978,20.89a1.471,1.471,0,0,0,1.466,1.466h0A1.471,1.471,0,0,0,59.91,20.89V12.022a1.471,1.471,0,0,0-1.466-1.467h0a1.471,1.471,0,0,0-1.466,1.467Z"/><path class="cls-1" d="M97.682,25.066h3.068V23.253a3.691,3.691,0,0,0,3.4,1.813c3.1-.357,2.533-4.464,2.533-4.464V11.853c0-2.884-1.019-4.037-2.822-4.037a4.612,4.612,0,0,0-3.107,1.775V2.268H97.682v22.8Zm3.068-3.526V11.363a1.939,1.939,0,0,1,1.545-.808c1.442.1,1.3,1.923,1.3,1.923s-.024,6.754-.024,8.051-.505,1.755-1.346,1.779A2.129,2.129,0,0,1,100.75,21.54Z"/><path class="cls-1" d="M91.88,25.066h3.069V8.008H91.88v13c-2.208,2.573-2.764.651-2.764-.315V8.008H86.047V21.3c0,2.17.542,3.554,1.922,3.773.919.146,2.247,0,3.911-2.033Z"/><polygon class="cls-1" points="78.524 25.066 81.984 25.066 81.984 5.522 85.609 5.522 85.609 2.268 74.899 2.268 74.899 5.522 78.524 5.522 78.524 25.066"/><path class="cls-1" d="M113.735,7.816h0a4.6,4.6,0,0,1,4.591,4.59v4.615h-6.057V20.89a1.471,1.471,0,0,0,1.466,1.466h0A1.47,1.47,0,0,0,115.2,20.89v-1.9h3.125v1.485a4.6,4.6,0,0,1-4.591,4.59h0a4.6,4.6,0,0,1-4.59-4.59v-8.07a4.6,4.6,0,0,1,4.59-4.59Zm1.466,6.609v-2.4a1.47,1.47,0,0,0-1.466-1.467h0a1.471,1.471,0,0,0-1.466,1.467v2.4Z"/><path class="cls-1" d="M39.178,12.116c-.06-4.411-.463-8.844-2.269-10.482C36.211,1,35.549.605,32.9.359,29.582.05,25.091.007,21.7,0q-2.1,0-4.2,0C14.1.007,9.605.05,6.289.359,3.639.605,2.976,1,2.279,1.634.441,3.3.056,7.859.007,12.344q-.015,1.254,0,2.51C.062,19.3.457,23.8,2.279,25.45c.7.632,1.36,1.029,4.01,1.275,3.316.308,7.808.352,11.2.357q2.1,0,4.2,0c3.395,0,7.886-.049,11.2-.357,2.65-.246,3.312-.643,4.01-1.275,1.806-1.638,2.209-6.071,2.269-10.482Q39.2,13.543,39.178,12.116ZM15.759,19.534V7.909l9.887,5.633Z"/></g></g></g></g></g></svg>