<svg xmlns="http://www.w3.org/2000/svg" viewBox="0 0 103.44 51.41"><defs><style>.cls-1{fill:#fff;}</style></defs><title>chile-client</title><g id="Layer_2" data-name="Layer 2"><g id="NOSOTROS"><g id="CLIENTES"><g id="LOGOS_CLIENTES" data-name="LOGOS CLIENTES"><g id="CHILE_VISIÓN" data-name="CHILE VISIÓN"><path class="cls-1" d="M103.44,50.59h-3V44.48c0-.46,0-.92,0-1.38,0-2.32-.89-3.48-2.63-3.49a3.64,3.64,0,0,0-3.68,3.55c0,2.06,0,4.13,0,6.2,0,.33-.05.66-.09,1.09H91.47V37.55H94l.28,1.93.88-.78c3.19-2.84,7.29-2,8.29,2.7Z"/><polygon class="cls-1" points="10.59 5.52 10.59 0 26.24 11.92 26.24 17.16 0.01 17.16 0 12.33 19.73 12.45 10.59 5.52"/><path class="cls-1" d="M.19,36H4.93c0,1,0,1.9,0,2.8a8.32,8.32,0,0,0,7.77,8,8.09,8.09,0,0,0,8.5-6.55A26,26,0,0,0,21.47,36h4.58c.47,4.77-1,9.78-5.08,12.84a13,13,0,0,1-14.55.67C1.94,46.76-.08,42.66.19,36Z"/><path class="cls-1" d="M55,8.34l-2.26,2c-1.85-2.3-4.13-3.69-7.15-3.31a7.17,7.17,0,0,0-4.81,2.76,8.65,8.65,0,0,0,.93,11.71c3.37,3,7.33,2.37,11.32-1.83l2.09,1.94c-1.88,3.43-6.6,5.28-11,4.36A11.11,11.11,0,0,1,42.49,4.87,10.65,10.65,0,0,1,55,8.34Z"/><path class="cls-1" d="M51.14,29.13H54.6L45.31,50.46C42.15,43.21,39.13,36.3,36,29.18h3.46c1.87,4.73,3.77,9.57,5.83,14.81Z"/><path class="cls-1" d="M68.82,25.69H65.9V18.3c0-2.27-.82-3.31-2.57-3.36a3.51,3.51,0,0,0-3.74,3.45c-.05,2,0,4,0,6,0,.39-.07.78-.11,1.27H56.9V4.2h2.62V14.87c.81-.67,1.24-1.1,1.74-1.44a5,5,0,0,1,5.36-.65c1.76.9,2.19,2.56,2.2,4.37C68.83,20,68.82,22.77,68.82,25.69Z"/><path class="cls-1" d="M68.25,39.11l-1.34,1.44c-2.95-1.62-4.25-1.08-4.76.09s.91,1.51,1.62,1.8c1,.41,2.11.56,3.11,1,1.66.72,2.23,1.94,2,3.94a3.53,3.53,0,0,1-2.74,3.34,7.3,7.3,0,0,1-7.34-2.37L60.11,47a9.53,9.53,0,0,0,2.48,1.65,4.17,4.17,0,0,0,3,0,1.88,1.88,0,0,0,1.07-1.67c0-.8-.53-1.12-1.51-1.5a28.57,28.57,0,0,1-4.64-1.78c-1.94-1.22-1.29-4.54.61-5.63A6.47,6.47,0,0,1,68.25,39.11Z"/><path class="cls-1" d="M79.53,25.69H77V4.17h2.57Z"/><rect class="cls-1" x="16.34" y="24.28" width="9.89" height="4.66"/><rect class="cls-1" x="0.15" y="24.26" width="9.84" height="4.69"/><path class="cls-1" d="M56.72,38.74V50.43H54V37.32Z"/><path class="cls-1" d="M73.6,38.76V50.43H70.84V37.29Z"/><path class="cls-1" d="M74.24,14.08V25.65H71.48V12.52Z"/><path class="cls-1" d="M84,35H81.23V32.6H84Z"/><path class="cls-1" d="M74.32,10.16l-.09,1.89H71.47V10.16Z"/><path class="cls-1" d="M56.79,36.75H54V34.84H56.7Z"/><path class="cls-1" d="M73.58,34.87V36.7H70.84V34.87Z"/><path class="cls-1" d="M93.67,14.61a7.13,7.13,0,0,0-10.07-.06,6.59,6.59,0,0,0,.19,9.54c2.89,2.67,8.15,2.59,10.74-.34L93,22.29c-3.63,2.49-7.37,1.62-8.16-2H95.37A6.17,6.17,0,0,0,93.67,14.61ZM84.9,18.08a3.74,3.74,0,0,1,3.55-3.35c1.83-.1,3.36,1.13,4,3.35Z"/><path class="cls-1" d="M82.57,37.18a6.93,6.93,0,0,0-7,6.66,7,7,0,1,0,7-6.66Zm0,11.23A4.49,4.49,0,1,1,86.66,44,4.28,4.28,0,0,1,82.56,48.41Z"/></g></g></g></g></g></svg>