<svg xmlns="http://www.w3.org/2000/svg" viewBox="0 0 53.91 85.08"><defs><style>.cls-1{fill:#fff;}</style></defs><title>once-client</title><g id="Layer_2" data-name="Layer 2"><g id="NOSOTROS"><g id="CLIENTES"><g id="LOGOS_CLIENTES" data-name="LOGOS CLIENTES"><g id="ONCE"><path class="cls-1" d="M28.3,0c.42.05.85.11,1.28.15a26,26,0,0,1,11.76,4,26.91,26.91,0,0,1,12.43,25.5A27,27,0,1,1,25.2.07c.14,0,.27,0,.41-.07ZM39.78,27A12.83,12.83,0,1,0,26.94,39.79,12.84,12.84,0,0,0,39.78,27Z"/><path class="cls-1" d="M8.93,71.88a7,7,0,0,1,3,.59A6.16,6.16,0,0,1,15.76,78a6.26,6.26,0,0,1-2.49,5.66A6.71,6.71,0,0,1,10.16,85a7.63,7.63,0,0,1-3.76-.34,6.58,6.58,0,0,1-.54-12.12A7.14,7.14,0,0,1,8.93,71.88ZM5.26,78.44a3.66,3.66,0,0,0,4.87,3.62,3.6,3.6,0,0,0,2.49-3.35A3.67,3.67,0,0,0,8,74.81,3.62,3.62,0,0,0,5.26,78.44Z"/><path class="cls-1" d="M27.9,84.67l-.34,0H25.63c-.61,0-.86-.26-.86-.88,0-1.86,0-3.72,0-5.58a14.12,14.12,0,0,0-.16-1.71,1.4,1.4,0,0,0-.11-.4,2,2,0,0,0-2.17-1.43,2.77,2.77,0,0,0-2.76,2.68c0,.25,0,.5,0,.75v6.53a3,3,0,0,1-.36,0H17c-.47,0-.56-.1-.56-.58V72.58c0-.4,0-.42.44-.42h1.89c.44,0,.54.1.55.53s0,.79,0,1.18l0,.27c.07-.11.11-.15.14-.21a4,4,0,0,1,3.21-2,5.66,5.66,0,0,1,1.88.1,3.89,3.89,0,0,1,3,2.78,6.81,6.81,0,0,1,.29,2.15c0,2.42,0,4.84,0,7.26Z"/><path class="cls-1" d="M42,79a2.77,2.77,0,0,0,0,.39,4,4,0,0,0,3.1,3,4.24,4.24,0,0,0,3.2-.68c.57-.36.8-.35,1.27.15s.71.75,1.07,1.13a1.16,1.16,0,0,1-.13.15,7,7,0,0,1-7.6,1.23A6.45,6.45,0,0,1,39.18,78a6.54,6.54,0,0,1,2-4.42A5.91,5.91,0,0,1,46.22,72a6,6,0,0,1,1.19.25,5.09,5.09,0,0,1,3.32,3.15,7.77,7.77,0,0,1,.54,2.78c0,.61-.21.85-.82.85H42.56Zm6.58-2.17a2.69,2.69,0,0,0-1.49-2.24,3.47,3.47,0,0,0-3.08,0,2.72,2.72,0,0,0-1.5,2.24Z"/><path class="cls-1" d="M21.21,63.35a2.24,2.24,0,0,0-2.14-2.53,2.53,2.53,0,0,0-1.62.32c-.42.25-.82.53-1.22.81-.57.42-.75.41-1.26-.09L14.08,61a2,2,0,0,1,.22-.25,7,7,0,0,1,6.47-1.67,3.6,3.6,0,0,1,2.9,3.42,13.69,13.69,0,0,1,.07,1.43c0,1.87,0,3.75,0,5.63,0,.11,0,.22,0,.33s-.12.37-.33.37H21.25V68.83a1,1,0,0,0-.2.15,3.69,3.69,0,0,1-2.55,1.53,5.27,5.27,0,0,1-3.16-.39A3,3,0,0,1,13.56,68a3.27,3.27,0,0,1,1.57-3.7,6.75,6.75,0,0,1,2.72-.81c1-.09,1.92-.11,2.89-.16Zm0,2a1,1,0,0,0-.21-.06c-.9.06-1.81.08-2.71.17a3,3,0,0,0-1.52.57,1.26,1.26,0,0,0,0,2,2.29,2.29,0,0,0,.79.37,3.46,3.46,0,0,0,2.22-.18,2,2,0,0,0,1.29-1.54A12.16,12.16,0,0,0,21.2,65.35Z"/><path class="cls-1" d="M43.68,70.21V68.8l-.17.19A3.68,3.68,0,0,1,41,70.51a5.2,5.2,0,0,1-3.16-.4A3,3,0,0,1,36,67.76a3.22,3.22,0,0,1,1.56-3.4,6.53,6.53,0,0,1,2.78-.85c1-.09,1.93-.11,2.89-.16h.47a2,2,0,0,0-1-2.12A2.56,2.56,0,0,0,40.15,61a10.47,10.47,0,0,0-1.35.84c-.12.07-.22.17-.34.25a.58.58,0,0,1-.77-.05c-.38-.35-.73-.73-1.1-1.11a1,1,0,0,1,.12-.17,6.94,6.94,0,0,1,6.61-1.7,3.54,3.54,0,0,1,2.78,3.11,8.21,8.21,0,0,1,.09,1.21q0,3.15,0,6.3c0,.48-.08.55-.56.55s-1.18,0-1.77,0A.71.71,0,0,1,43.68,70.21Zm-.06-4.92a12.57,12.57,0,0,0-3.38.29,3.41,3.41,0,0,0-1,.48,1.23,1.23,0,0,0,0,2,2.29,2.29,0,0,0,.79.37,3.51,3.51,0,0,0,2.26-.18,2,2,0,0,0,1.1-1A3.67,3.67,0,0,0,43.62,65.29Z"/><path class="cls-1" d="M40,83a6.62,6.62,0,0,1-11.4-4.68A6.32,6.32,0,0,1,33,72.24a6.38,6.38,0,0,1,6.85,1.6c-.33.55-.65,1.12-1,1.68a.64.64,0,0,1-.88.23c-.08,0-.16-.12-.24-.16-.4-.21-.79-.44-1.19-.62a3.53,3.53,0,0,0-4.82,2.85,3.93,3.93,0,0,0,.75,3.05A3.44,3.44,0,0,0,36.44,82a11,11,0,0,0,1.4-.74c.53-.33.86-.29,1.19.23Z"/><path class="cls-1" d="M35.26,70.24l-.32,0c-.54,0-1.09,0-1.63,0s-.81-.22-.82-.81c0-1.65,0-3.3,0-4.95,0-.53-.1-1.06-.16-1.59a2,2,0,0,0-.16-.47,1.67,1.67,0,0,0-1.54-1.11,2.54,2.54,0,0,0-2.84,2.26,5.83,5.83,0,0,0-.05.84c0,1.77,0,3.55,0,5.33v.46a2.16,2.16,0,0,1-.29,0c-.65,0-1.29,0-1.93,0-.41,0-.5-.09-.5-.5V59.41c0-.1,0-.19,0-.3s.11-.06.16-.06h2c.29,0,.39.1.4.42s0,.83,0,1.32a1.5,1.5,0,0,0,.16-.14A3.73,3.73,0,0,1,31,58.82a5.66,5.66,0,0,1,1.3.1A3.55,3.55,0,0,1,35.17,62a7.19,7.19,0,0,1,.11,1c0,2.31,0,4.62,0,6.93C35.28,70,35.27,70.11,35.26,70.24Z"/><path class="cls-1" d="M13.12,60.57c-.45.49-.87,1-1.31,1.43-.23.23-.49.2-.82,0a12.19,12.19,0,0,0-1.21-.57A3.36,3.36,0,1,0,8.19,68a4,4,0,0,0,2.93-.75c.1-.07.2-.16.3-.22a.64.64,0,0,1,1,.38c.16.54.3,1.08.45,1.61a.44.44,0,0,1-.08.1,6.48,6.48,0,0,1-8.53-.26,6,6,0,0,1-.2-8.18,6.19,6.19,0,0,1,3.83-1.9,6.52,6.52,0,0,1,5,1.58A2.2,2.2,0,0,1,13.12,60.57Z"/><path class="cls-1" d="M47.47,53.93h2.59V68a3.31,3.31,0,0,0,.06.7,1.84,1.84,0,0,0,1,1.29l.41.22a22.71,22.71,0,0,1-1.59,1.66c-.15-.07-.29-.12-.42-.19a3.82,3.82,0,0,1-2-3.31c0-.27,0-.54,0-.8q0-6.55,0-13.1Z"/></g></g></g></g></g></svg>