<svg xmlns="http://www.w3.org/2000/svg" viewBox="0 0 61.29 73.94"><defs><style>.cls-1{fill:#fff;}</style></defs><title>eltrece-client</title><g id="Layer_2" data-name="Layer 2"><g id="NOSOTROS"><g id="CLIENTES"><g id="LOGOS_CLIENTES" data-name="LOGOS CLIENTES"><g id="EL_TRECE" data-name="EL TRECE"><path class="cls-1" d="M50.62,34.78,60.27,29l-9.19-5.32c1.81-3.13,3.52-6.12,5.36-9.32H45.7V3.8L36.41,9.12,31.09,0,25.76,9.17,16.5,3.86V14.52H5.87l5.19,9L2,28.79l9.15,5.39L5.69,43.46l10.73.08c0,3.53-.05,7-.07,10.59l9.33-5.26C27.47,52,29.16,54.93,30.93,58l5.4-9.13,9.23,5.38c0-3.64,0-7.05.07-10.66l10.63.08c-1.81-3.16-3.49-6.11-5.22-9.16Zm-19.5,8.89A14.66,14.66,0,1,1,45.77,29,14.65,14.65,0,0,1,31.12,43.67Z"/><path class="cls-1" d="M61.22,69.45H54.76A2.68,2.68,0,0,0,56,71.63a2.91,2.91,0,0,0,3.19-.58l1.31,1.43a4.44,4.44,0,0,1-2.33,1.32A4.28,4.28,0,0,1,54,72.71a5,5,0,0,1-1.37-2.82,7.24,7.24,0,0,1,.38-4,4.13,4.13,0,0,1,4.36-2.61,4,4,0,0,1,3.6,3A7.32,7.32,0,0,1,61.22,69.45Zm-6.38-1.9H59a2,2,0,0,0-2-2.19A2.07,2.07,0,0,0,54.84,67.55Z"/><path class="cls-1" d="M40.53,71.05l1.32,1.43a4.43,4.43,0,0,1-2,1.24,4.32,4.32,0,0,1-4.7-1.24,5,5,0,0,1-1.18-2.81,7,7,0,0,1,.51-4,4.12,4.12,0,0,1,4.24-2.38,4,4,0,0,1,3.53,2.77,6.85,6.85,0,0,1,.31,3.34H36.06a2.64,2.64,0,0,0,1.18,2.13C38.43,72.23,39.5,71.8,40.53,71.05Zm-.19-3.5c-.15-1.49-.93-2.23-2.27-2.18a2.05,2.05,0,0,0-1.93,2.18Z"/><path class="cls-1" d="M8.68,69.45H2.22A2.64,2.64,0,0,0,3.4,71.56c1.19.67,2.26.24,3.29-.51L8,72.48A4.52,4.52,0,0,1,5.68,73.8,4.38,4.38,0,0,1,1.84,73a4.77,4.77,0,0,1-1.68-3,6.93,6.93,0,0,1,.48-4.42,4,4,0,0,1,4.24-2.3,3.84,3.84,0,0,1,3.49,2.75A6.79,6.79,0,0,1,8.68,69.45Zm-2.19-1.9a2.06,2.06,0,0,0-2.26-2.18A2.06,2.06,0,0,0,2.3,67.55Z"/><path class="cls-1" d="M25.4,71.42c-.08.62-.16,1.23-.25,1.84a.34.34,0,0,1-.18.24,3.67,3.67,0,0,1-2.64.32,2.06,2.06,0,0,1-1.48-1.76,4.11,4.11,0,0,1-.08-.86c0-1.75,0-3.5,0-5.26v-.35H19.39V63.53h1.38v-.88c0-.56,0-1.11,0-1.67,0-.09,0-.24.1-.28.66-.37,1.34-.73,2.06-1.12v3.93h2.41v2.07H23c0,.14,0,.24,0,.35,0,1.61,0,3.22,0,4.83,0,1,.26,1.23,1.33,1A8.45,8.45,0,0,0,25.4,71.42Z"/><path class="cls-1" d="M51.67,65.11l-1.33,1.6a4.63,4.63,0,0,0-.68-.59,4.21,4.21,0,0,0-1.18-.59,1.91,1.91,0,0,0-2.42,1.31,4.92,4.92,0,0,0,0,3.58,2,2,0,0,0,3.28.88c.29-.23.56-.51.85-.77L51.58,72a4.43,4.43,0,0,1-2.74,1.86A4.19,4.19,0,0,1,44,71.11a6.53,6.53,0,0,1,.21-5.45,4.32,4.32,0,0,1,6.64-1.35C51.12,64.55,51.38,64.83,51.67,65.11Z"/><path class="cls-1" d="M33,65.88a9.54,9.54,0,0,0-1-.31,1.75,1.75,0,0,0-2.32,1.79c-.06,1.59-.05,3.19,0,4.79a.6.6,0,0,1-.4.63c-.59.28-1.17.61-1.8.93V63.55h2.18v.61a1.7,1.7,0,0,0,.21-.15,3.25,3.25,0,0,1,3.36-.43c.29.11.41.26.29.6C33.24,64.75,33.11,65.33,33,65.88Z"/><path class="cls-1" d="M10.63,73.72v-.58q0-6,0-12a.48.48,0,0,1,.3-.51c.63-.31,1.24-.64,1.89-1,0,.14,0,.23,0,.33,0,4.08,0,8.16,0,12.25a.57.57,0,0,1-.4.64C11.85,73.08,11.27,73.39,10.63,73.72Z"/></g></g></g></g></g></svg>