<svg xmlns="http://www.w3.org/2000/svg" viewBox="0 0 332.05 150.67"><defs><style>.cls-1{fill:#fff;}</style></defs><title>selena_logo</title><g id="Layer_2" data-name="Layer 2"><g id="PROYECTOS"><g id="SELENA"><path class="cls-1" d="M110.68,133.72a54.42,54.42,0,0,1-7.64-.62c.61,5.5,4.12,12.69,12.52,12.69,6.57,0,11-3.06,14.67-6l2.14,2.59c-4.13,3.67-9.93,8.25-19.4,8.25-9.78,0-18.88-6.44-18.88-16.53,0-18.79,20-28.67,34.31-28.08,7.32.31,11.46,3.21,11.46,9C139.86,122.87,128.7,133.72,110.68,133.72Zm13-23.07c-11.3,0-17.72,9.47-20.17,18.18a30.3,30.3,0,0,0,6,.61c10.24,0,20.32-6.11,20.32-13.14C129.77,112.48,127.79,110.65,123.66,110.65Z"/><path class="cls-1" d="M203.84,62.69a11,11,0,0,0-6.18-.73c-7.42,1.8-12.64,13.78-17.8,25.82L158,136.54c-1.38,3.05-2.29,6.89-1.86,8.25.51,1.6,2,1.76,3.53,1.91a8.35,8.35,0,0,0,2.6-.46l.76,3.36a18.38,18.38,0,0,1-5.5,1.07c-4,0-6.66-1.07-9.26-1.07s-4.79,1.07-7.24,1.07a12.33,12.33,0,0,1-4.43-1.07l1.53-3.36c.76.31,3.36-.66,4-1.05,2.06-1.23,4.19-3.31,7.4-9.78l23.7-50.52c9.43-20.72,15.52-27.72,25.14-27.72a16.84,16.84,0,0,1,7.49,1.7Z"/><path class="cls-1" d="M189.81,133.72a54.68,54.68,0,0,1-7.64-.62c-.24,6.49,2.67,12.43,12.53,12.69,6.57.16,11-3.06,14.67-6l2.14,2.59c-4.13,3.67-9.93,8.25-19.4,8.25-9.78,0-19.56-6.41-19.56-16.5,0-18.79,21.84-29.26,35-28.11,7.3.64,10.78,4.59,10.78,9.63C218.32,123.48,207.84,133.72,189.81,133.72Zm10.9-22.45c-9,1.25-17.46,10.1-18.08,17.56a30.3,30.3,0,0,0,6,.61c10.24,0,20.32-6.11,20.32-13.14C208.91,112.48,204.8,110.71,200.71,111.27Z"/><path class="cls-1" d="M268.94,147.6c-.21.21-.42.4-.63.58a7.63,7.63,0,0,1-5.3,1.9c-2.82,0-5.49-1.07-8.17-1.07a9.4,9.4,0,0,0-4.6,1.07l-1-2.44c6.24-6.72,16.14-19.51,16.14-29.44,0-2.14-1.59-6.21-8-6-12,.39-25.19,29.5-25.38,31.63a2.07,2.07,0,0,0,2,2.36,3.81,3.81,0,0,0,2.58-.59l1.25,2.33c-3,2-3.57,2.16-6.68,2.16-2.38,0-3.57-.88-6-.88-2.67,0-3.07,1.12-5.86.88a7.12,7.12,0,0,1-1.89-.59l.59-3.36c3.93,0,5.38-2,8.5-7.16,6.67-11,11.79-20.4,11.75-23.24a3.1,3.1,0,0,0-2.51-3.24,15.52,15.52,0,0,0-4.9-.55l.08-5.07,14.94-.16a1.84,1.84,0,0,1,1.87,1.79v0a24.69,24.69,0,0,1-1.67,5.72l.48-.53c4.6-4.58,9.05-8.25,16.62-8.25,4.9,0,9.95,3.06,9.95,11.15,0,8.71-9.52,23.69-13.38,28.12.87,0,1.54.66,3.23,1.2a3.49,3.49,0,0,0,3.12-.15l.65-.35Z"/><path class="cls-1" d="M307.49,143.72c-3.67,4.39-10.26,6.95-15.41,6.95a13.38,13.38,0,0,1-13.54-13.59c0-20.63,23.72-31,41.67-31,4.57,0,9.69.44,9.69,2.58,0,.31-4.2,9.34-9.89,22.31,0,0-5.74,12.94-6.24,14,.73,0,1.32.85,2.75,1.41a3.29,3.29,0,0,0,3.05,0,13.3,13.3,0,0,0,1.88-1.39l1.38,2.17c-1.76,2.32-3.22,3.57-5.85,3.57-2.38,0-4.63-1.08-6.87-1.08a6.83,6.83,0,0,0-3.88,1.08l-.88-2.48ZM313,111.78c-8.75,1.71-24.92,7.9-27.43,20.48-1.18,5.88.22,10.81,6.56,12.24,4.16.94,8.4-1.13,11.45-2.84,2.52-1.4,5.91-5.38,8-9.1,3.72-7.44,6-11.75,9.88-20.49A17.72,17.72,0,0,0,313,111.78Z"/><path class="cls-1" d="M76.76,60.82c1.85,1.27,2.9,1.25,3.58,1,1.8-.73,2-3.34-.16-5.53-2.27-2.34-6.21-4.95-13.24-4.92-10.71,0-15.37,6.9-15.35,12.2C51.63,74.15,65,81.63,75.12,92c6.38,6.83,12.1,14.33,12.13,22.72.08,20.36-20.11,35.84-43.7,35.92C17.78,150.77,1,135.6.94,119c0-11,8-21.76,21.5-21a23.79,23.79,0,0,1,12.46,4.06l-2.27,3.65a30.78,30.78,0,0,0-8.13-2.12c-9.66-1-16.11,6.24-16.15,15.74-.07,15.58,18.6,24.8,35,24.74,21.25-.07,33.41-13.26,33.35-29.17,0-12.67-15.94-23-23.85-31.39-5.17-5.7-8.75-12.29-8.77-19,0-12,10.65-19.28,23.18-18.74,10.94.47,19.62,7.72,19.15,13.86a6.19,6.19,0,0,1-4.89,5.74c-1.16.28-3.75.26-6.12-2.39Z"/><path class="cls-1" d="M0,.57H26.18V5.79H6.2v8.64H23.91V19.7H6.2v8.88H26.43V33.8H0Z"/><path class="cls-1" d="M35.16.57h6.21V28.49H59.93V33.8H35.16Z"/><path class="cls-1" d="M81.83,29l3.73-4.18c3.38,2.76,6.81,4.32,11.15,4.32,3.83,0,6.25-1.71,6.25-4.18v-.09c0-2.37-1.41-3.66-8-5.08C87.48,18,83.24,16,83.24,9.83v-.1C83.24,4,88.29.09,95.3.09a20.39,20.39,0,0,1,12.81,4.18l-3.33,4.42A16.67,16.67,0,0,0,95.2,5.27c-3.64,0-5.75,1.76-5.75,3.94v.1c0,2.56,1.61,3.7,8.42,5.22,7.46,1.71,11.3,4.22,11.3,9.73v.1c0,6.21-5.2,9.92-12.61,9.92A22.55,22.55,0,0,1,81.83,29Z"/><path class="cls-1" d="M117.85.57H144V5.79h-20v8.64h17.71V19.7H124.05v8.88h20.23V33.8H117.85Z"/><path class="cls-1" d="M151.45,17.28v-.09C151.45,7.74,159,0,169.61,0c6.56,0,10.49,2.14,13.87,5.17l-4,4.33c-2.87-2.47-5.85-4.09-9.93-4.09A11.45,11.45,0,0,0,158,17.09v.1A11.51,11.51,0,0,0,169.61,29c4.34,0,7.11-1.61,10.14-4.27l4,3.8a18.76,18.76,0,0,1-14.32,5.88C159.07,34.37,151.45,26.82,151.45,17.28Z"/><path class="cls-1" d="M191.66.57h15.73c4.44,0,7.92,1.23,10.19,3.32a9.74,9.74,0,0,1,2.93,7.17v.1c0,5.46-3.48,8.73-8.37,10.06l9.53,12.58h-7.36l-8.68-11.58h-7.77V33.8h-6.2ZM206.94,17c4.44,0,7.26-2.18,7.26-5.55v-.1c0-3.56-2.72-5.5-7.31-5.5h-9V17Z"/><path class="cls-1" d="M229.49.57h26.18V5.79h-20v8.64h17.7V19.7H235.7v8.88h20.22V33.8H229.49Z"/><path class="cls-1" d="M273.23,6H262V.57h28.71V6H279.44V33.8h-6.21Z"/><path class="cls-1" d="M295.13,17.28v-.09C295.13,7.83,302.8,0,313.64,0s18.41,7.74,18.41,17.09v.1c0,9.35-7.67,17.18-18.51,17.18S295.13,26.63,295.13,17.28Zm30.41,0v-.09a11.68,11.68,0,0,0-12-11.78,11.52,11.52,0,0,0-11.9,11.68v.1a11.68,11.68,0,0,0,12,11.77A11.52,11.52,0,0,0,325.54,17.28Z"/><path class="cls-1" d="M104.29,52.34h9.56c8.06,0,13.63,5.21,13.63,12v.07c0,6.79-5.57,12.07-13.63,12.07h-9.56Zm4.51,3.86V72.62h5c5.39,0,8.91-3.42,8.91-8.14v-.07c0-4.72-3.52-8.21-8.91-8.21Z"/><path class="cls-1" d="M133.86,52.34h19v3.79H138.37v6.28h12.86v3.83H138.37v6.45h14.69v3.79h-19.2Z"/></g></g></g></svg>