<svg xmlns="http://www.w3.org/2000/svg" viewBox="0 0 302.267 111.837"><defs><style>.cls-1{fill:#fff;}</style></defs><title>elcesar-logo</title><g id="Layer_2" data-name="Layer 2"><g id="PROYECTOS"><g id="EL_CESAR" data-name="EL CESAR"><g id="EL_CESAR_LOGO" data-name="EL CESAR LOGO"><path class="cls-1" d="M78.469,1.628a1.714,1.714,0,0,1,2.673,1.421v6.5a1.714,1.714,0,0,1-.8,1.453L69.766,17.656a1.714,1.714,0,0,1-2.638-1.444v-6.5a1.711,1.711,0,0,1,.8-1.452Z"/><g id="EL_CÉSAR_LOGO" data-name="EL CÉSAR LOGO"><path class="cls-1" d="M34.2,19.331q0-8.128,0-16.257a6.839,6.839,0,0,1,.1-1.648A1.543,1.543,0,0,1,36,.033C38.031.027,40.063,0,42.1.039a1.625,1.625,0,0,1,1.726,1.747c.02.429-.035.862-.018,1.292a1.775,1.775,0,0,1-.722,1.6c-.421.328-.407.491.109.828a1.284,1.284,0,0,1,.644,1.22c-.014.8-.027,1.6,0,2.4a1.621,1.621,0,0,1-1.2,1.662c-.741.293-1.5.537-2.245.818a1.949,1.949,0,0,0-.456.294c-.041.031-.078.134-.058.166.056.087.179.233.214.218a12.689,12.689,0,0,1,2.864-.505c.708-.141.858-.04.86.7q.018,5.541,0,11.084a1.193,1.193,0,0,1-.094.538c-.075.144-.24.324-.379.337a10.357,10.357,0,0,1-1.474.031,5.809,5.809,0,0,0-2.362.268,1.829,1.829,0,0,1-2.292-.643,2.222,2.222,0,0,0-.552-.466c-.037-.025-.245.088-.246.139q-.017,1.289.013,2.576a.374.374,0,0,0,.206.266.4.4,0,0,0,.343-.038c.32-.281.607-.6.924-.883.132-.119.334-.3.458-.266.623.156,1.255-.167,1.806-.056,1.043.21,2.087.076,3.114.235.183.028.346.287.481.468a.646.646,0,0,1,.053.358c.005,2.094-.012,4.188.019,6.281a2.056,2.056,0,0,1-1.018,1.844c-.767.513-1.545,1.01-2.324,1.5q-1.479.941-2.969,1.866a6.456,6.456,0,0,1-.807.443,1.64,1.64,0,0,1-2.181-.8,4.04,4.04,0,0,1-.309-1.241,13.462,13.462,0,0,1-.023-1.477q0-7.759,0-15.518Zm8.1,1.62c-.022-.207-.033-.378-.063-.545-.009-.047-.073-.085-.112-.127a1.439,1.439,0,0,0-.2.2.3.3,0,0,0-.02.168,1.609,1.609,0,0,0,.031.341,1.737,1.737,0,0,0,.141.3Z"/><path class="cls-1" d="M209.437,33.686a2.232,2.232,0,0,0,1.089-1.928,10.2,10.2,0,0,1,.939-2.974,1.476,1.476,0,0,1,1.974-.813c.746.277,1.53.446,2.285.7a2.316,2.316,0,0,0,1.62.034,3.782,3.782,0,0,1,.906-.161c1.025-.114,1.288.088,1.531,1.107a6.283,6.283,0,0,1,.019,3.8,6.221,6.221,0,0,0-.343,1.985,3.575,3.575,0,0,1-.7,2.235c-.054.069.076.319.17.45.03.041.247,0,.331-.06a1.981,1.981,0,0,0,.829-1.166c.22-.951.522-1.883.8-2.822a.227.227,0,0,1,.123-.131c.032-.011.113.039.131.08a12.091,12.091,0,0,1,.485,1.183c.723,2.348,1.409,4.707,2.148,7.049q.97,3.074,2.038,6.116a1.14,1.14,0,0,1-.289,1.466c-.247.207-.054.487.232.488.558,0,.755.381.892.788.509,1.514.994,3.037,1.478,4.559q1.286,4.037,2.559,8.077c.536,1.7,1.075,3.4,1.594,5.1a.523.523,0,0,1-.365.721c-.189.061-.587-.039-.47.337a.764.764,0,0,0,.564.366,1.125,1.125,0,0,1,1.041.892c.65,2.176,1.282,4.357,1.954,6.526.472,1.523,1,3.028,1.5,4.542.135.408.264.818.378,1.233.117.43-.144.666-.615.544a23.517,23.517,0,0,0-5.075-.746c-.8-.029-1.1-.376-1.1-1.164.007-.677.066-1.354.042-2.029a2.428,2.428,0,0,0-.278-.853c-.039-.086-.2-.122-.309-.167a.268.268,0,0,0-.091.143A14.772,14.772,0,0,1,229,82.276a1.237,1.237,0,0,0,.4,1.173,1.292,1.292,0,0,1,.321,1.375c-.527,1.239,0,2.423.072,3.628,0,.051.159.107.251.131.039.01.123-.047.144-.093a1.918,1.918,0,0,0,.273-.665,6.377,6.377,0,0,0-.207-2.736.515.515,0,0,1,.3-.737,1.654,1.654,0,0,1,1.24-.2c.711.185,1.426.359,2.146.5a6.591,6.591,0,0,0,1.275.138,4.212,4.212,0,0,1,2.04.789,1.354,1.354,0,0,1,.434.58,6.857,6.857,0,0,1,.424,1.022c.7,2.225,1.437,4.443,2.071,6.689a21.921,21.921,0,0,1,.5,3.068c.016.117-.169.326-.306.384-.219.094-.486.071-.716.146a.724.724,0,0,0-.423.293c-.107.245.15.253.305.3a4.807,4.807,0,0,0,1.064.289,1.387,1.387,0,0,1,1.409,1.185c.471,1.717,1,3.419,1.548,5.114a1.246,1.246,0,0,1-.172,1.215,12.487,12.487,0,0,1-1.1,1.231.7.7,0,0,1-.848.174,3.335,3.335,0,0,0-1.786-.342,2.54,2.54,0,0,1-.553-.026c-1.253-.289-2.5-.611-3.757-.88a8.314,8.314,0,0,1-3.515-1.94,8.493,8.493,0,0,0-.987-.823,1.466,1.466,0,0,1-.693-1.891c.071-.233.165-.46.233-.694.012-.04-.043-.117-.087-.149a.152.152,0,0,0-.145.008,9.181,9.181,0,0,0-.913.905,1.09,1.09,0,0,0,.234,1.619c.634.484,1.282.948,1.912,1.436a.364.364,0,0,1,.081.321.423.423,0,0,1-.246.239,1.578,1.578,0,0,1-.546.074,19.672,19.672,0,0,0-4.913.618,23.917,23.917,0,0,1-2.546.359.957.957,0,0,1-.667-.222,14.957,14.957,0,0,1-1.131-1.215c-.24-.276-.4-.655-.69-.849-.855-.57-.8-1.5-.877-2.3-.085-.852.464-1.266,1.4-1.272,1.786-.012,3.572,0,5.358-.006a10.488,10.488,0,0,0,1.292-.033,1.251,1.251,0,0,0,1-1.652c-1.392-4.263-2.794-8.522-4.174-12.788-.908-2.806-1.787-5.621-2.663-8.436-.044-.144.069-.337.109-.507a1.135,1.135,0,0,1,.338.087,3.9,3.9,0,0,0,2.874.3,16.3,16.3,0,0,1,2.374-.218,1.791,1.791,0,0,0,.863-.213.831.831,0,0,0,.255-.63.43.43,0,0,0-.494-.425,1.85,1.85,0,0,1-1.247-.021,2.274,2.274,0,0,0-2.577.341.865.865,0,0,1-.68.053,2.736,2.736,0,0,1-1.812-2.151,5.989,5.989,0,0,0-1.517-2.673,5.079,5.079,0,0,1-1.03-1.933c-.535-1.631-.974-3.295-1.443-4.948-.066-.231-.192-.526-.108-.7a1.392,1.392,0,0,0-.466-1.777,3.433,3.433,0,0,1-.7-1.276c-.356-.981-.638-1.989-.97-2.98a1.734,1.734,0,0,1,.095-1.423,2.856,2.856,0,0,0,.4-1.944c-.117-.576.087-.857.57-.9.672-.061,1.35-.078,2.026-.076.923,0,1.847.031,2.769.063,1.122.04,1.139.058,1.5,1.208a8.172,8.172,0,0,0,.316,1.057c.089.186.34.295.519.439a1.57,1.57,0,0,0,.2-.5c.014-1.045.03-2.093-.013-3.137-.027-.663-.4-.9-.954-.631a4.653,4.653,0,0,1-2.5.421,14.5,14.5,0,0,0-4.577.359.494.494,0,0,0-.419.512c-.011.306-.015.615-.054.918-.035.279-.457.768-.54.68a1.989,1.989,0,0,1-.42-.585,11.322,11.322,0,0,1-.383-1.231c-.13-.482.132-.446.49-.406.3.034.5-.262.352-.436a9.512,9.512,0,0,0-.986-1.093,3.584,3.584,0,0,1-1.07-1.691q-1.094-3.423-2.166-6.854a1.279,1.279,0,0,1,.2-1.379c.188-.2.54-.405.25-.744-.036-.042-.387.182-.589.288a.293.293,0,0,1-.432-.2,11.464,11.464,0,0,1-1.043-4.439c.05-.736.037-1.4.053-2.137ZM230.151,98.07c-.207.023-.28.012-.326.042a.838.838,0,0,0-.225.211c-.02.029.015.129.054.163.569.5,1.149.938,1.929.367a.75.75,0,0,1,.355-.073,5.029,5.029,0,0,0,3.374-1.994.521.521,0,0,0,.14-.324c-.006-.08-.152-.224-.213-.213a1.449,1.449,0,0,0-.663.22c-.512.435-.949.962-1.479,1.371a1.753,1.753,0,0,1-2.018.4A2.805,2.805,0,0,0,230.151,98.07Zm2.762-20c-.4.041-.88.081-1.36.154-.072.011-.17.179-.166.271a.348.348,0,0,0,.187.267,18.058,18.058,0,0,0,1.8.319,1.4,1.4,0,0,0,.691-.192c.149-.071.349-.221.363-.354.037-.334-.275-.342-.5-.375C233.617,78.114,233.31,78.1,232.913,78.067ZM219.4,60a1.933,1.933,0,0,0-.462-.323.42.42,0,0,0-.568.282,2,2,0,0,0,.058.863c.02.079.3.171.422.132C219.231,60.836,219.4,60.533,219.4,60Zm2.176-19.148c-.046.038-.137.1-.131.111a2.177,2.177,0,0,0,1.232,1.192.2.2,0,0,0,.152-.049c.036-.028.079-.1.066-.129a2.49,2.49,0,0,0-1.141-1.1A.513.513,0,0,0,221.576,40.854Zm6.669,31.914c.015.175.024.351.051.525a.25.25,0,0,0,.1.132c.079-.038.21-.093.213-.148.014-.349,0-.7-.011-1.05a.259.259,0,0,0-.1-.136c-.079.041-.2.086-.212.151A3.256,3.256,0,0,0,228.245,72.768ZM224.506,50.42c-.147-.156-.21-.28-.3-.3s-.273.062-.277.111a3.549,3.549,0,0,0,.029.642c0,.006.115.024.138,0C224.246,50.723,224.382,50.561,224.506,50.42Z"/><path class="cls-1" d="M199.869.062q2.31,0,4.621,0a.9.9,0,0,1,.97.68c.264.883.5,1.775.79,2.649a1,1,0,0,1-.518,1.246,7.788,7.788,0,0,1-2.741,1.032,23.437,23.437,0,0,0-2.279.683,1.092,1.092,0,0,0-.285.214c.085.047.167.128.257.136a3.867,3.867,0,0,0,1.987-.231A4.323,4.323,0,0,1,205,6.042a3.124,3.124,0,0,0,.366-.04c.824.007,1.43-.96,2.236-.655a7,7,0,0,0,2.287.609,1.06,1.06,0,0,1,1,.939,8.352,8.352,0,0,1,.081,1.1c.047.612.11,1.222.145,1.834a3.575,3.575,0,0,1-.029.9,9.411,9.411,0,0,0,.628,5.393,2.346,2.346,0,0,1,.066,1.78.892.892,0,0,1-.946.7,1,1,0,0,0-.53.114.977.977,0,0,0-.348.4c-.072.144.248.451.475.468a1.585,1.585,0,0,0,.727.009,2.886,2.886,0,0,1,2.479.087,1.063,1.063,0,0,0,.546,0c.108-.02.279-.117.285-.192a.807.807,0,0,0-.1-.5.706.706,0,0,0-.439-.307,1.32,1.32,0,0,1-1.3-1.3,7.121,7.121,0,0,1-.28-1.061c.024-1.238-.289-2.44-.363-3.654-.124-2.024-.015-4.062.006-6.094a1.02,1.02,0,0,1,.139-.333c.093.065.229.109.271.2a8.906,8.906,0,0,1,.416,1.018q.806,2.452,1.591,4.913.754,2.371,1.482,4.753a1.976,1.976,0,0,1,.1.714c-.028.369-.716.473-.5.863.145.264.655.3.9.544a1.531,1.531,0,0,1,.358.832,9.534,9.534,0,0,1,.069,1.474,14.407,14.407,0,0,0,.587,5.275.76.76,0,0,1-.771.984,1.366,1.366,0,0,1-.546-.05,5.529,5.529,0,0,0-1.812-.262c-.85-.088-1.693-.25-2.542-.36a.75.75,0,0,0-.881.488c-.208.511-.5.992-.667,1.516A1.115,1.115,0,0,1,208.94,30c-2.087.034-1.845.042-2.437-1.742-1.026-3.092-1.975-6.208-2.965-9.311a10.318,10.318,0,0,0-.527-1.375.9.9,0,0,0-1.416-.248,2.942,2.942,0,0,0-.669,1.067c-.768,2.461-1.493,4.936-2.236,7.405-.071.235-.181.459-.249.694a1.125,1.125,0,0,1-1.2.925c-.493-.009-.986.023-1.479.013a2.137,2.137,0,0,1-.719-.109c-.685-.265-1.353-.574-2.035-.847a1.315,1.315,0,0,1-.815-.938,3.057,3.057,0,0,1-.038-1.992,2.833,2.833,0,0,0-.15-2.482,12.869,12.869,0,0,1-.733-3.212c-.1-.467.193-.789.715-.9a2.87,2.87,0,0,1,.718-.04c.8.04,1.591.1,2.387.145a3.279,3.279,0,0,0,1.789-.345,1.539,1.539,0,0,1,.684-.265c1.67.03,2.782-1.194,4.158-1.82a.855.855,0,0,0,.382-.386.67.67,0,0,0,.012-.5.279.279,0,0,0-.452-.105,18.934,18.934,0,0,1-4.293,2.1,4.289,4.289,0,0,1-1.43.294c-2.032,0-4.064-.039-6.1-.081-.695-.014-.851-.253-.632-.952.847-2.7,1.706-5.392,2.556-8.089.481-1.524.931-3.058,1.437-4.573.833-2.494,1.182-2.286,3.151-2.278,1.171,0,2.342,0,3.513,0Zm11.355,21.526a5.537,5.537,0,0,0,.119.7.359.359,0,0,0,.242.208.321.321,0,0,0,.272-.136,1,1,0,0,0-.192-1.277.3.3,0,0,0-.28.017A2.589,2.589,0,0,0,211.224,21.588Zm-7.677-10.859-.183-.4c-.089.057-.222.093-.258.173a2.663,2.663,0,0,0-.218.675.338.338,0,0,0,.176.275.321.321,0,0,0,.293-.119A3.991,3.991,0,0,0,203.547,10.729Z"/><path class="cls-1" d="M181.965,41.731c.314-.186.662-.327.78-.731a16.939,16.939,0,0,0,1.131-3.875c.034-.711.608-1.035.945-1.53a.423.423,0,0,0-.263-.693c-.179-.038-.373-.01-.549-.057-.688-.181-.946-.578-.743-1.22.5-1.581,1.023-3.153,1.537-4.73.3-.931.593-1.868.914-2.794.25-.723.766-.995,1.431-.685,1.225.572,2.426,1.2,3.626,1.818a.619.619,0,0,1,.326.918,25.025,25.025,0,0,1-3.849,5.582c-.341.344-.617.753-.933,1.123-.192.224-.508.384-.366.762a1.385,1.385,0,0,0,.792.965c.524.168,1.075.253,1.607.4a3.857,3.857,0,0,1,1.556.507,7.448,7.448,0,0,0,2.99,1.292.482.482,0,0,0,.614-.21c.249-.327.528-.807.988-.471.313.229.081.683-.03,1.031q-2.016,6.316-4.03,12.635-1.01,3.158-2.022,6.314c-.074.234-.121.478-.207.707-.5,1.347-.9,1.653-2.3,1.661-2.03.012-4.061-.019-6.092-.024-.861,0-1.722-.008-2.581.031a1.76,1.76,0,0,1-1.738-2.4c.674-2.1,1.377-4.2,2.049-6.306s1.349-4.207,1.967-6.327a5.681,5.681,0,0,1,1.894-3.08,4.153,4.153,0,0,0,.5-.545Zm2.71,8.835c0-.785-.005-1.278,0-1.77a2.22,2.22,0,0,0-.562-1.518c-.063-.072-.212-.081-.324-.095-.034,0-.1.072-.114.12-.111.537-.223,1.075-.311,1.616a.405.405,0,0,0,.121.306,1.721,1.721,0,0,1,.306,2.037,5.383,5.383,0,0,0-.316,1.8c0,.246.017.493,0,.738a.941.941,0,0,1-1.1.949c-.123-.006-.246-.008-.368-.024-1.149-.147-2.3-.3-3.447-.439-.041-.005-.12.068-.132.117-.028.111-.078.28-.025.336.157.166.372.42.544.405a3.741,3.741,0,0,1,2.124.468,2.3,2.3,0,0,0,.881.236,1.086,1.086,0,0,1,.989.7.925.925,0,0,0,.393.358.341.341,0,0,0,.323-.042,2.016,2.016,0,0,0,.388-1.723,2.187,2.187,0,0,1,.116-1.615A6.416,6.416,0,0,0,184.675,50.566Zm-2.981.083c.091-.073.224-.128.265-.222a.84.84,0,0,0-.944-1.129c-.092.014-.246.154-.236.214a1.446,1.446,0,0,0,.578,1.078A.877.877,0,0,0,181.694,50.649Zm6.14-1.419c.108-.048.292-.078.307-.147a.668.668,0,0,0-.038-.484.835.835,0,0,0-.968-.332.368.368,0,0,0-.2.264C186.905,48.91,187.273,49.183,187.834,49.23Zm-8.99,1.862c.052.1.084.255.16.281s.2-.069.307-.112l-.227-.388Zm.431,7.61c-.032-.044-.074-.13-.1-.126a1.919,1.919,0,0,0-.285.1c.033.045.074.132.1.127A1.747,1.747,0,0,0,179.275,58.7Z"/><path class="cls-1" d="M199.968,109.312a9.475,9.475,0,0,0,.414,1.1c.2.723.092.831-.565,1.108a3.315,3.315,0,0,1-1.244.253q-7.757.048-15.512.057a4.765,4.765,0,0,1-.737-.038,1.587,1.587,0,0,1-1.341-1.341c-.066-1.041-.032-2.089-.01-3.134a.577.577,0,0,1,.271-.445c.727-.247,1.373-.884,2.246-.5a1.881,1.881,0,0,0,1.44.032,3.428,3.428,0,0,1,2.5.2,12.618,12.618,0,0,1,3.241,1.664c.081.062.317-.038.454-.112.04-.022-.006-.218-.029-.331a.7.7,0,0,0-.088-.16c-.189-.357-.918-.379-.707-.924.109-.281.547-.436.839-.644s.6-.429.907-.634a3.416,3.416,0,0,1,1.643-.774,3.987,3.987,0,0,0,1.188-.476,3.608,3.608,0,0,1,1-.461,9.1,9.1,0,0,0,3.683-1.584,3.01,3.01,0,0,1,1.565-.432,6.079,6.079,0,0,0,1.821-.134,3.709,3.709,0,0,1,3.032.33,3.68,3.68,0,0,0,3.518.154,5.7,5.7,0,0,1,1.978-.336,1.7,1.7,0,0,0,.631-.316c.038-.022.052-.115.047-.172s-.058-.119-.088-.118c-.605.007-1.211,0-1.814.043-.855.057-1.707.185-2.562.213a2.567,2.567,0,0,1-1.257-.219,6.723,6.723,0,0,0-3.593-.544,6.459,6.459,0,0,1-.736,0c-.075-.006-.14-.12-.21-.185.051-.035.1-.1.152-.1,1.537-.038,3.075-.095,4.612-.1q3.786,0,7.571.055c1.175.018,1.356.293,1.216,1.63-.006.06-.035.132-.012.179.048.1.1.242.192.274a.361.361,0,0,0,.333-.067,12.267,12.267,0,0,0,.909-1.571c.23-.524.639-.5,1.064-.5a.768.768,0,0,1,.843.554,6.584,6.584,0,0,1,.693,2.272,1.312,1.312,0,0,0,.662,1.244c.9.485,1.015,1.51,1.582,2.222.083.1.043.356-.013.513-.247.693-.549,1.368-.775,2.068a1.6,1.6,0,0,1-.813,1.15,2.578,2.578,0,0,1-1.775.3c-1.185-.306-2.362-.656-3.564-.874a15.945,15.945,0,0,0-2.38-.1.319.319,0,0,0-.16.07c.034.108.053.266.131.306.594.309,1.209.581,1.8.9.113.062.175.288.186.444a.355.355,0,0,1-.221.265,10.553,10.553,0,0,1-1.632.226c-1.538.03-3.077.012-4.616.013-1.847,0-3.694.007-5.541-.007a5.948,5.948,0,0,1-1.084-.14c-.059-.011-.144-.2-.122-.274.113-.4.7-.685.443-1.129-.2-.341-.632-.544-.968-.8a1.227,1.227,0,0,1-.366-.392,7.512,7.512,0,0,0-.69-2.487,2.111,2.111,0,0,0-.632-.627.315.315,0,0,0-.305,0,.333.333,0,0,0-.047.3c.25.676.509,1.35.784,2.016A2.985,2.985,0,0,0,199.968,109.312Zm11.612.166c-.083-.133-.141-.357-.27-.41a2.4,2.4,0,0,0-1.028-.264,3.546,3.546,0,0,1-1.786-.242c-.672-.3-1.286.336-1.965.207a2.056,2.056,0,0,1-.54-.082,2.134,2.134,0,0,0-1.938.112c-.56.243-1.112.5-1.659.776-.058.028-.072.169-.079.26,0,.024.1.081.151.081.61,0,1.222-.03,1.831,0a11.8,11.8,0,0,0,3.447-.294,4.422,4.422,0,0,1,3.059.164.841.841,0,0,0,.53-.017C211.422,109.743,211.48,109.6,211.58,109.478Zm-.428-4.578c.023-.425-.284-.81-.49-.706a.87.87,0,0,0-.4.506c-.077.282.267.667.482.574A1.461,1.461,0,0,0,211.152,104.9Zm2.206-3.712c.016.036.022.087.05.106a1.326,1.326,0,0,0,1.277-.284.191.191,0,0,0,.063-.154.218.218,0,0,0-.135-.1c-.445-.143-.782.136-1.145.306C213.421,101.08,213.4,101.144,213.358,101.188Z"/><path class="cls-1" d="M231.739,111.8q-5.445,0-10.89,0a10.086,10.086,0,0,1-1.094-.1c-.046-.005-.121-.064-.121-.1a.215.215,0,0,1,.086-.157,8.852,8.852,0,0,0,2.343-2.129,1.9,1.9,0,0,0,.586-1.114c.016-.884.641-1.121,1.35-1.216a4.843,4.843,0,0,0,1.433-.237c.715-.315.752-.254,1.045.48.259.649.258.644.889.537.362-.062.727-.1,1.091-.158a12.541,12.541,0,0,0,3.709-.988,2.187,2.187,0,0,1,2.425.067,15.12,15.12,0,0,0,2.025.818,3.115,3.115,0,0,0,2.131.248,8.348,8.348,0,0,1,2.378,0,.96.96,0,0,1,.637.318,2.3,2.3,0,0,0,2.511.661c.531-.087.642-.035.772.437a3.938,3.938,0,0,1,.192,1.251,1.565,1.565,0,0,1-1.319,1.354,11.865,11.865,0,0,1-1.474.053q-5.352.006-10.7,0Z"/><path class="cls-1" d="M191.431,100.256c2.4,0,4.8,0,7.2,0,.49,0,.981.036,1.47.08.068.007.136.152.178.245a.19.19,0,0,1-.065.159,3.064,3.064,0,0,1-.437.326c-.747.424-1.5.84-2.25,1.255a2.583,2.583,0,0,1-.661.32,41.784,41.784,0,0,0-5.147,1.927,2.755,2.755,0,0,1-.879.2,24.066,24.066,0,0,1-2.577-.086,5.7,5.7,0,0,1-2.717-1.064,1.425,1.425,0,0,0-1.711-.168c-.438.279-.818.039-1.23-.015-.118-.016-.346.176-.375.306a.5.5,0,0,0,.21.438.929.929,0,0,0,.683.116,1.389,1.389,0,0,1,1.52.274.605.605,0,0,1,.252.449.54.54,0,0,1-.315.381,14.385,14.385,0,0,1-1.421.369,2.65,2.65,0,0,1-1.791-.252.793.793,0,0,1-.4-.547,27.373,27.373,0,0,1-.019-2.949,1.8,1.8,0,0,1,1.808-1.742c.428-.035.861-.014,1.292-.014h7.38Z"/><path class="cls-1" d="M193.722,27.815c1.051-.315,1.91.506,2.924.7.475.092.582.3.545.8a8.126,8.126,0,0,1-.206,1.631c-.432,1.53-.915,3.047-1.4,4.562a1.6,1.6,0,0,1-1.242,1.225.512.512,0,0,0-.175.055,2.3,2.3,0,0,1-3.013-.072,7.2,7.2,0,0,0-2.045-.77.915.915,0,0,1-.544-1.451q.451-.8.912-1.592a2.258,2.258,0,0,1,1.009-1.031,2.026,2.026,0,0,0,1.158-1.752,5.421,5.421,0,0,1,.533-1.55A1.193,1.193,0,0,1,193.722,27.815Z"/><path class="cls-1" d="M191.435,24.019c.081.581-.3.946-.872.773-.7-.215-1.386-.5-2.084-.733-.405-.137-.823-.236-1.232-.36a.559.559,0,0,1-.432-.7q.7-2.475,1.424-4.941a2.3,2.3,0,0,1,.218-.506.842.842,0,0,1,.742-.466.939.939,0,0,1,.906.522,3.9,3.9,0,0,1,.361,1.04,8.418,8.418,0,0,0,.659,2.289A20.753,20.753,0,0,1,191.435,24.019Zm-1.758-2.338-.07-.326c-.1.06-.23.1-.282.187-.038.063.032.189.054.287Zm-.017,1.2c-.044.012-.109.012-.126.04a.209.209,0,0,0-.03.169c.082.145.169.125.21-.05C189.725,23,189.68,22.939,189.66,22.886Z"/><path class="cls-1" d="M210.225,4.545a2.006,2.006,0,0,1-1.375-.35,4.7,4.7,0,0,1-1.644-2.363,8.66,8.66,0,0,1-.242-1.251c-.014-.137.145-.417.234-.421a18.636,18.636,0,0,1,2.545-.005,1.35,1.35,0,0,1,1.046.944c.318.854.584,1.729.836,2.606.142.494-.134.815-.657.838C210.785,4.552,210.6,4.545,210.225,4.545Z"/><path class="cls-1" d="M181.9,41.607l-.065.069a.409.409,0,0,1-.3.145c-.354.014-.667-.167-.593-.5a21.545,21.545,0,0,1,1.665-4.984c.041-.083.275-.169.3-.14.111.114.266.291.242.412a8.124,8.124,0,0,1-.453,1.755A9.7,9.7,0,0,0,181.9,41.607Z"/><path class="cls-1" d="M209.321,33.56c-.045.084-.044.213-.1.281-.226.281.02.717-.457.8a8.352,8.352,0,0,1-.508-.932c-.225-.565-.418-1.143-.6-1.725s.087-.887.766-.843a1.121,1.121,0,0,1,.531.1c.181.124.414.331.427.515a9.061,9.061,0,0,1,.092,1.281Z"/><path class="cls-1" d="M.059,49.29c0-1.165,0-2.33,0-3.495.005-1.785.01-3.57.025-5.354a.753.753,0,0,1,.634-.785c.154-.04.369-.178.4-.306C1.192,39,.858,39,.639,38.943a.672.672,0,0,1-.559-.635C.047,37.941.051,37.57.051,37.2q0-4.806,0-9.613a12.027,12.027,0,0,1,.1-1.469c.019-.151.11-.35.378-.259,1.125.386,2.18-.149,3.265-.279a.309.309,0,0,0,.174-.248.379.379,0,0,0-.195-.279,4.363,4.363,0,0,0-.9-.137C2.2,24.9,1.518,24.924.842,24.9A.8.8,0,0,1,.23,23.579c.065-.1.162-.182.237-.277.174-.217.661-.226.519-.627-.066-.183-.359-.3-.561-.418a.823.823,0,0,1-.366-.786q0-2.865.008-5.73a1.456,1.456,0,0,1,.059-.363A.444.444,0,0,1,.657,15a15.209,15.209,0,0,1,4.277,1.049,12.313,12.313,0,0,0,2.887,1.14.38.38,0,0,1,.169.061c.088.081.242.194.228.265C8,18.594,9.61,18.46,9.5,19.483a8.308,8.308,0,0,0,.012,1.661,4.839,4.839,0,0,0,.295,1.241.84.84,0,0,0,1.081.419c.235-.073.454-.194.686-.273s.423.117.445.4a2,2,0,0,1-.927,1.9,6.068,6.068,0,0,1-1,.437.484.484,0,0,0-.286.6.474.474,0,0,0,.527.413,3.383,3.383,0,0,0,2.8-1.846,7.48,7.48,0,0,1,.608-1.135,1.588,1.588,0,0,1,2.6.323.668.668,0,0,1,.019.528c-.375.608.052.911.439,1.207a2.084,2.084,0,0,0,.667.278c1.334.405,1.581.922,1.224,2.289a1.918,1.918,0,0,1-.77,1.21c-1.754,1.137-3.53,2.241-5.3,3.349a.4.4,0,0,1-.333.025c-.058-.03-.072-.2-.065-.3.018-.243.085-.485.085-.728,0-.466-.164-.9-.658-.983-.592-.1-.779-.527-1.034-.948-.1-.17-.153-.573-.491-.337a.927.927,0,0,0-.331.611,2.39,2.39,0,0,0,.12.9,15.124,15.124,0,0,0,.566,1.56c.343.793.462,1.471-.48,1.985a1.257,1.257,0,0,0-.48,1.15q-.011,3.511,0,7.023a2.609,2.609,0,0,0,.144.719c.221.739.753.993,1.4.625.856-.485,1.686-1.015,2.524-1.532.891-.548,1.787-1.09,2.663-1.662a2.762,2.762,0,0,1,1.7-.609,1.544,1.544,0,0,0,1.108-.591,1.265,1.265,0,0,1,1.506-.31,2.691,2.691,0,0,0,1.254.2,21.944,21.944,0,0,1,3.477.3c.471.033.7.256.71.68.02,1.293.028,2.588.009,3.881a1.694,1.694,0,0,1-.732,1.426q-1.3.881-2.655,1.672c-.169.1-.458.021-.684-.018-.108-.019-.194-.145-.294-.217-1.437-1.039-1.506-1.215-.773-2.89a3.931,3.931,0,0,0,.163-2.523.4.4,0,0,0-.259-.229.316.316,0,0,0-.273.134,4.081,4.081,0,0,0-.346.849c-.073.3-.04.617-.105.915a1.9,1.9,0,0,1-1.326,1.615,2.805,2.805,0,0,0-1.287.677c-.849.969-1.839.82-2.881.546a2.476,2.476,0,0,1-.511-.213,1.532,1.532,0,0,0-1.245-.158,2.888,2.888,0,0,1-1.977-.208,5.079,5.079,0,0,0-2.43-.494,16.985,16.985,0,0,1-2.566-.158c-.43-.026-.861-.022-1.292-.021a1.714,1.714,0,0,0-.729.05c-1.028.533-2.228.731-3.1,1.568a.347.347,0,0,0-.071.318.363.363,0,0,0,.3.162,10.806,10.806,0,0,1,3.282-.3,3.523,3.523,0,0,1,1.263.16,1.431,1.431,0,0,0,1.22-.014,1.29,1.29,0,0,1,1.52.334A1.1,1.1,0,0,1,8.551,48.3a13.434,13.434,0,0,0-.8,2.631,2.8,2.8,0,0,1-.715,1.477,1.077,1.077,0,0,0-.042,1.725c.3.34-.013.665-.248.966a.423.423,0,0,0,.263.678c.359.067.729.075,1.09.13a1.05,1.05,0,0,1,.3.161,1.7,1.7,0,0,1-.235.269c-.349.253-.7.5-1.062.735-1.244.8-2.488,1.595-3.744,2.373A4.451,4.451,0,0,1,2.2,60a1.672,1.672,0,0,1-2.13-1.465,3.246,3.246,0,0,1-.019-.369q0-4.437,0-8.873Zm3.655,6.789c.44-.066.851-.118,1.256-.2.06-.012.106-.158.13-.249.01-.039-.044-.112-.087-.143-.538-.393-.909-.342-1.367.2-.056.067-.041.206-.031.31C3.619,56.04,3.7,56.071,3.714,56.079ZM2.265,48.391a1.187,1.187,0,0,0-.449-.107.474.474,0,0,0-.438.483c0,.213.363.39.56.269A.571.571,0,0,0,2.265,48.391Zm.669-9.155a.933.933,0,0,0,.22,0c.149-.047.293-.1.439-.159-.155-.051-.31-.1-.467-.149a.334.334,0,0,0-.169,0c-.1.031-.206.076-.309.115Z"/><path class="cls-1" d="M18.578,5.266c-.472.277-.53.79-.61,1.269A5.771,5.771,0,0,0,17.855,8c.08.856-.259,1.021-.9,1.022-1.724,0-3.447,0-5.17,0a1.423,1.423,0,0,1-1.33-.818,5.011,5.011,0,0,1-.789-2.789,4.184,4.184,0,0,0-.3-1.231c-.012-.048-.106-.12-.128-.109-.084.038-.221.111-.218.164a5.132,5.132,0,0,0,.152,1.63c.431,1.058.082,2.219.536,3.255-.249.8-.151,1.724-.823,2.39a4.328,4.328,0,0,0-.556.73c-.334.511-.408,1.051-.249.975a4.479,4.479,0,0,0,.7-.525.772.772,0,0,1,.3-.184c.084-.013.263.078.265.129.036.853.06,1.706.064,2.56a.448.448,0,0,1-.539.345.725.725,0,0,0-.174-.062c-.666-.061-.8-.987-1.486-.953a5.246,5.246,0,0,1-1.793-.287,3.687,3.687,0,0,0-1.811-.029c-1.162.27-2.16-.283-3.226-.485-.119-.022-.252-.273-.277-.434a7.231,7.231,0,0,1-.064-1.1Q.046,7.3.052,2.406A5.534,5.534,0,0,1,.113,1.3,1.53,1.53,0,0,1,1.341.076a2.47,2.47,0,0,1,.55-.05c1.6,0,3.2-.022,4.8.008A1.963,1.963,0,0,1,8.708,1.973,3.076,3.076,0,0,0,8.75,2.7a2.1,2.1,0,0,0,.432.54,1.709,1.709,0,0,0,.325-.435c.192-.579.332-1.174.521-1.754A1.279,1.279,0,0,1,11.249.1c.123-.008.245-.038.368-.038C14.2.053,16.785.04,19.37.051c.55,0,.768.262.748.821a11.9,11.9,0,0,1-.146,1.273c-.026.18-.119.352-.127.531a.374.374,0,0,0,.164.295.348.348,0,0,0,.328-.062,3.347,3.347,0,0,0,.471-.757,1.029,1.029,0,0,0-.023-.542C20.7,1.2,20.327.778,20.6.382c.314-.453.885-.347,1.369-.355.739-.013,1.478.014,2.216,0C25.27,0,25.83.689,26.008,1.721a2.37,2.37,0,0,1,.018.368c0,1.6-.007,3.2.006,4.8a2.508,2.508,0,0,1-.382,1.4,1.284,1.284,0,0,1-1.035.692c-1.784.024-3.568.016-5.351,0-.389,0-.622-.306-.644-.76-.023-.491-.011-.984-.012-1.476s0-.983,0-1.475c.164-.223.345-.438.488-.674.1-.172-.019-.4-.155-.344-.1.042-.236.118-.247.2A7.861,7.861,0,0,0,18.578,5.266Z"/><path class="cls-1" d="M13.547,52.479c-.353-.137-.6.028-.646.249a2.063,2.063,0,0,1-1.1,1.379c-.827.511-1.035.42-1.29-.613a3.229,3.229,0,0,0-.1-.349.493.493,0,0,0-.734-.238c-.108.052-.194.2-.3.2A.883.883,0,0,1,8.911,53a.327.327,0,0,1-.071-.309,1.2,1.2,0,0,0,.234-1.5,1.8,1.8,0,0,1,.054-1.434c.152-.4.268-.814.427-1.211a2.1,2.1,0,0,1,2.473-1.39,10.388,10.388,0,0,0,2.347.354,7.47,7.47,0,0,1,1.072.239.867.867,0,0,1,.676.545c.173.41.466.461.893.366.537-.12.869-.274.884-.931.012-.545.351-.723.837-.725a3.652,3.652,0,0,1,1.945.934c.078.05.078.337.016.465a1.056,1.056,0,0,1-.394.369c-1.816,1.139-3.638,2.268-5.453,3.407C14.425,52.445,14.009,52.7,13.547,52.479Z"/><path class="cls-1" d="M22.611,20.471c0,.489.034.981-.011,1.466a.912.912,0,0,1-.66.795,5.336,5.336,0,0,1-2.539.206,26.1,26.1,0,0,1-3.024-.7,1.864,1.864,0,0,1-.614-.384.945.945,0,0,1-.082-1.569c1.352-1.043,2.748-2.03,4.142-3.017a1.874,1.874,0,0,1,1.42-.2,1.333,1.333,0,0,1,1.088.872,2.719,2.719,0,0,1,.208.7C22.605,19.251,22.611,20.471,22.611,20.471Z"/><path class="cls-1" d="M21.173,38.082c-.082-.016-.15-.152-.2-.246a.17.17,0,0,1,.045-.159A24.886,24.886,0,0,1,23.458,36.1,1.722,1.722,0,0,1,26,37.555a.818.818,0,0,1-.69.919c-.12.019-.242.025-.364.032a5.893,5.893,0,0,1-.729.035C23.968,38.523,22.178,38.281,21.173,38.082Z"/><path class="cls-1" d="M22.629,24.461a2.419,2.419,0,0,1-.914,2.281c-.095.069-.3.226-.333.138s-.179-.372-.122-.484a1.84,1.84,0,0,0-.008-1.581c-.158-.427.1-.78.574-1.017a.566.566,0,0,1,.752.3C22.6,24.217,22.612,24.339,22.629,24.461Z"/><path class="cls-1" d="M265.994,2.261a9.331,9.331,0,0,0-.542-1.289c-.431-.819-.4-.922.414-.927,2.524-.014,5.048-.012,7.572-.025a1.143,1.143,0,0,1,1.253.813,28.487,28.487,0,0,0,2.2,4.444c.056.09.256.2.287.178a.666.666,0,0,0,.27-.365,1.908,1.908,0,0,0-.324-1.4c-.328-.446-.642-.9-.953-1.359a2.622,2.622,0,0,1-.546-1.537.667.667,0,0,1,.631-.745c.738-.023,1.477-.023,2.215-.024q2.494,0,4.988,0c.43,0,.861.005,1.291.027a1.374,1.374,0,0,1,1.273.913,3.641,3.641,0,0,1,.262,1.058c.044.551.015,1.108.015,1.662q0,8.957,0,17.914,0,3.045,0,6.091a.93.93,0,0,1-.286.83c-.221.168-.708.045-.653.481.023.18.308.349.5.481a1.2,1.2,0,0,1,.438,1.148q-.007,2.677-.026,5.356a4.462,4.462,0,0,0-.026.737,1.594,1.594,0,0,1-1.067,1.858,9.066,9.066,0,0,1-2.955.976,18.332,18.332,0,0,1-3.256.538.858.858,0,0,0-.478.241c-.071.056-.086.2-.1.3,0,.03.087.09.143.1a.858.858,0,0,0,.36.049c1.676-.361,3.419-.306,5.069-.817a10.117,10.117,0,0,0,1.195-.471c1.123-.518,1.122-.524,1.142.782.006.431-.038.866.007,1.292a2.083,2.083,0,0,1-2.062,2.137c-.735-.05-1.477-.007-2.216-.007-1.785,0-3.571-.008-5.356,0a.648.648,0,0,0-.718.827,5.427,5.427,0,0,0,.316,1.235c.605,1.545,1.21,3.091,1.869,4.613.484,1.119.623,2.131-.488,2.966a.233.233,0,0,0-.04.153.788.788,0,0,0,.327.1.865.865,0,0,0,.337-.137c.933-.526.914-.383,1.3.528q1.194,2.8,2.275,5.641c.409,1.083.751,2.186,1.269,3.232.489.986.869,2.027,1.283,3.05a10.313,10.313,0,0,1,.419,1.219,1.013,1.013,0,0,1-.724,1.3c-.412.118-.843.175-1.247.312a1.545,1.545,0,0,1-1.062-.115c-.456-.154-.622.071-.483.589a8.63,8.63,0,0,1,.229.884c.04.247.051.5.341.572.369.093.577-.089.651-.444a.967.967,0,0,1,.557-.688c.384-.193.76-.4,1.151-.583.914-.419,1.279-.347,1.577.512.458,1.322,2.216,5.842,2.547,6.428a4.4,4.4,0,0,1,.267,3.9,1.582,1.582,0,0,0-.048,1.073c.156.523.229,1.071.376,1.6.041.147.255.381.322.36a.908.908,0,0,0,.544-.372,3.435,3.435,0,0,0,.143-.9c.025-.18.045-.361.081-.54.009-.048.065-.123.1-.122a.21.21,0,0,1,.155.089,14.684,14.684,0,0,1,.768,1.464q2.459,6.064,4.884,12.143a5.463,5.463,0,0,1,.263.877.41.41,0,0,1-.1.336,1.811,1.811,0,0,1-1.628.619,15.646,15.646,0,0,0-4.353-.591,2,2,0,0,1-1.02-.34c-.483-.266-.906-.646-1.4-.889a4.042,4.042,0,0,0-1.043-.264,2.582,2.582,0,0,0-1.4-.97c-.061-.028-.184.078-.279.122a.565.565,0,0,0,.094.152,2.852,2.852,0,0,0,1.526.785,7.085,7.085,0,0,0,2.587,2.289.7.7,0,0,0,.512.138c1.313-.375,2.533.19,3.792.345.182.022.36.079.543.1a3.212,3.212,0,0,0,2.149-.256c.4-.237.669-.09.872.369.421.956.822,1.921,1.213,2.889q1.792,4.443,3.565,8.894a6.353,6.353,0,0,1,.4,1.4.956.956,0,0,1-.94,1.122c-.613.044-1.228.072-1.843.074-2.585.009-5.171-.039-7.754.024a2.277,2.277,0,0,1-2.411-1.589c-.793-2-1.577-4-2.369-6-.316-.8-.669-1.584-.957-2.393a3.038,3.038,0,0,1-.247-2.134c-.416-.586-1.071-.958-1.332-1.7-.45-1.273-.977-2.52-1.5-3.767-.226-.543-.284-.947.463-1.048.186-.025.2-.2.033-.225-1.113-.148-1.445-.99-1.764-1.886-.432-1.214-.918-2.408-1.367-3.616a.3.3,0,0,1,.364-.426c1.805.58,3.663.275,5.5.338a18.192,18.192,0,0,1,3.86.147.475.475,0,0,0,.583-.312c.117-.251-.009-.731-.237-.811a2.7,2.7,0,0,0-.88-.184c-2.028.014-4.055.066-6.083.078-.8,0-1.6-.033-2.4-.1a2.007,2.007,0,0,1-1.834-1.329c-.067-.171-.154-.335-.222-.506-.48-1.194-.816-2.443-1.4-3.6a.7.7,0,0,1,.017-.52c.107-.245.306-.042.466-.03a.4.4,0,0,0,.488-.4.454.454,0,0,0-.591-.5c-.542.164-.944.155-1.18-.437q-1.47-3.679-2.941-7.357a.5.5,0,0,1-.025-.358,1.317,1.317,0,0,1,.316-.37.193.193,0,0,1,.177.009,2.228,2.228,0,0,0,2.287,0,.763.763,0,0,1,.507-.028.741.741,0,0,0,.975.5c.137-.042.228-.236.34-.36-.082-.066-.162-.183-.248-.188-.354-.018-.677-.107-1.031-.138a5.419,5.419,0,0,0-1.849-.566,8.4,8.4,0,0,1-.918-.044,2.248,2.248,0,0,1-1.756-1.43c-2.166-5.489-4.386-10.956-6.591-16.429-.5-1.254-1.024-2.5-1.529-3.757-.206-.513-.418-1.026-.58-1.554a2.012,2.012,0,0,1,.057-1.616,1.275,1.275,0,0,0-.224-1.68,2.374,2.374,0,0,1-.681-2.2,3.864,3.864,0,0,0-.91-3.081,2.8,2.8,0,0,1-.572-2.058c.048-1.1-.015-2.214,0-3.32a.831.831,0,0,1,.78-.869,6.47,6.47,0,0,1,.737-.032q3.51,0,7.02,0a4.652,4.652,0,0,1,.913.085.626.626,0,0,1,.542.647,10.435,10.435,0,0,1-.239,2.748,4.436,4.436,0,0,0-.071,1.271c0,.082.14.211.235.232a.328.328,0,0,0,.289-.13,10.778,10.778,0,0,0,.855-3.553c.025-.641.239-1.1.881-1.213.994-.182,1.268-.84,1.264-1.732,0-1.046.018-2.094,0-3.14a1.247,1.247,0,0,1,.754-1.336c.255-.116.429-.42.617-.656.024-.03-.085-.24-.134-.241-.241,0-.487.069-.725.049a.579.579,0,0,1-.4-.229,1.085,1.085,0,0,1-.095-.537c.026-3.57.044-7.14.1-10.71.019-1.256-.374-1.766-1.651-1.935-.182-.024-.365-.041-.547-.071a.245.245,0,0,1-.094-.421,16.249,16.249,0,0,1,1.265-1.055,12.423,12.423,0,0,0,1.117-.637,4.048,4.048,0,0,1,3.693-1.144c.256.052.57-.15.846-.262.034-.015.012-.206-.012-.308a.208.208,0,0,0-.143-.108,4.135,4.135,0,0,0-3.357.538,9.239,9.239,0,0,1-2.14,1.032,23.689,23.689,0,0,0-2.769,1.438.764.764,0,0,0-.254.463.627.627,0,0,1-.662.511c-.923.015-1.847.007-2.77.006-3.079,0-6.158-.035-9.237,0a3.923,3.923,0,0,1-3.036-1.041,1.651,1.651,0,0,0-.967-.452A2.075,2.075,0,0,1,252.484,9a4.648,4.648,0,0,1-.859-2.212c-.061-1.106-.111-2.213-.135-3.32A6.513,6.513,0,0,1,252.14.8a1.144,1.144,0,0,1,1.145-.76c.677-.007,1.354-.015,2.031-.015q4.065,0,8.129,0c.6,0,1.056.117,1.253.814a3.627,3.627,0,0,0,1.033,1.587c.045.159.646,1.029.976.987A.384.384,0,0,0,267,2.892,1.115,1.115,0,0,0,265.994,2.261Zm2.047,48.9c-.529,0-.925.356-.922.683,0,.362.263.531.561.626.23.073.486.067.714.145.631.219,1.254.465,1.88.7a1.259,1.259,0,0,1,.94,1.21.987.987,0,0,0,.116.526,1.268,1.268,0,0,0,.533.4c.06.024.316-.21.326-.338a2.568,2.568,0,0,1,.768-1.609,2.151,2.151,0,0,0,.547-.929,1.31,1.31,0,0,0-.239-.825.387.387,0,0,0-.628-.057,1.28,1.28,0,0,1-1.8.214C269.92,51.334,268.821,51.511,268.041,51.159Zm28.641,57.912a4.268,4.268,0,0,0-.557-2.5,1.347,1.347,0,0,1-.066-1.064c.078-.244-.1-.348-.268-.375a2.969,2.969,0,0,1-1.725-.541.942.942,0,0,0-.514-.18,16.336,16.336,0,0,1-4.218-1.285,2.6,2.6,0,0,0-.709-.153.38.38,0,0,0-.3.168.332.332,0,0,0,.06.316c.871.448,1.737.909,2.634,1.3,1.182.515,2.4.957,3.584,1.463a2.173,2.173,0,0,1,.693.557,2.476,2.476,0,0,1,.641,1.865,4.65,4.65,0,0,0,.2,1.241c.017.076.194.121.3.161.021.008.1-.066.108-.11C296.612,109.577,296.661,109.216,296.682,109.071Zm-23.675-64.2c0-.21.01-.4,0-.578a.7.7,0,0,0-.815-.557c-.421.027-.778.376-.643.708a7.431,7.431,0,0,1,.16,3.995,2.1,2.1,0,0,0,.89,2.057c.04.035.138.06.171.036a.523.523,0,0,0,.216-.236,1.165,1.165,0,0,0,.047-.546A12.185,12.185,0,0,1,273.007,44.866Zm9.027-23.672c.15-.11.4-.207.507-.388.618-1.061,1.221-2.132,1.789-3.221a6.889,6.889,0,0,0,.5-1.378c.036-.132-.089-.345-.2-.469-.131-.149-.491-.019-.614.2a5,5,0,0,0-.256.486,17.856,17.856,0,0,1-2.132,4.239.356.356,0,0,0,.013.329C281.7,21.072,281.84,21.1,282.034,21.194ZM269.473,4.772c.054.106.079.252.165.313a8.383,8.383,0,0,1,1.341.926,8.65,8.65,0,0,0,2.145,1.364.643.643,0,0,0,.352.035.2.2,0,0,0,.132-.118c.036-.106.1-.252.056-.325a.94.94,0,0,0-.368-.379,8.387,8.387,0,0,1-3.063-1.905c-.092-.107-.339-.106-.514-.1C269.636,4.581,269.555,4.7,269.473,4.772Zm15.4,32.364c.214-.025.393-.043.572-.068a.454.454,0,0,0,.364-.653,6.769,6.769,0,0,0-.3-.845,1.113,1.113,0,0,0-.428-.523c-.249-.11-.442.109-.53.344a1.212,1.212,0,0,1-.567.662,2.58,2.58,0,0,0-.488.491,4.058,4.058,0,0,0,.7.5A2.242,2.242,0,0,0,284.875,37.136Zm-2.73-10.126c-.024-.053-.033-.13-.074-.157-.8-.512-1.6-1.025-2.421-1.51-.045-.027-.3.171-.346.3a.6.6,0,0,0,.306.77c.772.319,1.572.574,2.363.847.031.011.1-.052.134-.1A.416.416,0,0,0,282.145,27.01Zm-.456,49.075c-.049-.037-.108-.115-.145-.106a2.7,2.7,0,0,0-1.663,1.052.191.191,0,0,0-.029.154c.023.049.1.118.135.109a2.7,2.7,0,0,0,1.667-1.044A.48.48,0,0,0,281.689,76.085Zm8.555,17c.1-.064.242-.106.292-.2a.668.668,0,0,0-.4-1.01.331.331,0,0,0-.293.133A.965.965,0,0,0,290.244,93.083ZM278.856,23.37a.5.5,0,0,0-.423-.652.43.43,0,0,0-.328.058.313.313,0,0,0-.057.285,1.408,1.408,0,0,0,.265.458.366.366,0,0,0,.311.09C278.717,23.582,278.78,23.454,278.856,23.37Zm-2.613-9.722a6.881,6.881,0,0,0-.6-.5c-.052-.036-.236.034-.289.106a.324.324,0,0,0-.009.309,2.38,2.38,0,0,0,.52.456c.054.035.2-.056.3-.11C276.2,13.886,276.2,13.807,276.243,13.648Zm5.045,47.842.389-.144c-.058-.139-.079-.345-.183-.4a1.766,1.766,0,0,0-.655-.178c-.085-.01-.251.093-.261.163a.364.364,0,0,0,.15.291A4.409,4.409,0,0,0,281.288,61.49Zm2.064,12.364a2.214,2.214,0,0,0,.007.48c.025.086.129.223.177.215.245-.042.543-.719.439-1.015a.317.317,0,0,0-.28-.086A3.088,3.088,0,0,0,283.352,73.854ZM270.079,44.4c-.292-.072-.469-.175-.594-.131-.148.052-.253.23-.377.354.154.049.317.156.459.133S269.833,44.578,270.079,44.4Zm-2.716-35c-.035-.31-.262-.375-.512-.373a.426.426,0,0,0-.318.125c-.108.179.351.559.616.493C267.235,9.623,267.292,9.485,267.363,9.4Zm12.981,61.693c.125-.027.3-.059.464-.105.035-.009.056-.067.084-.1-.047-.037-.093-.1-.141-.1-.353-.01-.708-.011-1.062,0-.049,0-.1.062-.146.1.072.06.138.155.22.172A4.267,4.267,0,0,0,280.344,71.093Zm-2.722-46.772c-.048-.036-.106-.111-.141-.1-.108.03-.25.068-.3.149-.036.065.049.2.081.3.056-.018.131-.019.163-.057A2.487,2.487,0,0,0,277.622,24.321Zm20.475,79.7-.154-.2-.34.333c.045.036.111.111.131.1C297.859,104.192,297.974,104.105,298.1,104.022ZM264.735,8.96a.985.985,0,0,0,.172-.032c.181-.069.193-.188.011-.234a1.473,1.473,0,0,0-.5.034c-.008,0-.02.105-.007.111C264.516,8.886,264.626,8.922,264.735,8.96Zm13.24,18.311c-.037-.046-.086-.135-.11-.129a2.053,2.053,0,0,0-.3.128c.038.046.088.136.112.13A1.892,1.892,0,0,0,277.975,27.271ZM275.042,7.315a1.573,1.573,0,0,0-.273-.113c-.029-.007-.077.062-.116.1a1.563,1.563,0,0,0,.271.115C274.954,7.42,275,7.35,275.042,7.315Zm14.827,83.227c-.036.013-.094.017-.105.041a.245.245,0,0,0-.021.164c.061.148.132.13.168-.048C289.921,90.652,289.884,90.594,289.869,90.542ZM286.5,73.126a1.683,1.683,0,0,0-.284-.1c-.033-.007-.08.066-.121.1a1.811,1.811,0,0,0,.293.114C286.419,73.245,286.466,73.165,286.5,73.126Z"/><path class="cls-1" d="M251.2,11.948c.023,4.372.009,8.713.028,13.085.008,1.724,0,3.448.008,5.173a8.325,8.325,0,0,0,.04.921.889.889,0,0,0,.713.754,10.823,10.823,0,0,0,1.286.073c1.848.008,3.7-.007,5.543.007,1.719.013,1.9.24,1.679,1.925-.025.183-.01.37-.037.553-.116.8-.358,1.034-1.184,1.143-.365.048-.735.055-1.1.113-.089.014-.239.2-.221.232.072.14.18.331.307.36.3.066.618.012.915.074a6.092,6.092,0,0,1,1.4.409,1.026,1.026,0,0,1,.522.69,2.812,2.812,0,0,0,.57,1.518,2.209,2.209,0,0,1,.225,1.052,11.814,11.814,0,0,0,.233,3.114.363.363,0,0,1-.354.509c-1.538.02-3.076.016-4.614.008a.321.321,0,0,1-.277-.51c.089-.159.231-.29.315-.451a.349.349,0,0,0,.006-.307.409.409,0,0,0-.325-.11,1.254,1.254,0,0,0-.5.2c-.3.218-.549.5-.852.7a2.153,2.153,0,0,1-2.425.215c-.592-.327-1.219-.591-1.811-.918s-1.368-.118-1.877-.69a.586.586,0,0,0-.5-.057,4.531,4.531,0,0,1-2.547-.043,2.2,2.2,0,0,0-1.783.185.779.779,0,0,0-.416.761.763.763,0,0,0,.179.489.568.568,0,0,0,.478.017c.225-.09.4-.307.631-.373a3.172,3.172,0,0,1,1.073-.145.846.846,0,0,1,.535.395c.153.245-.083.578-.441.657-.658.144-1.317.293-1.983.395a3.082,3.082,0,0,0-2.387,1.522,18.141,18.141,0,0,1-1.654,2.21.953.953,0,0,1-.641.234c-.08,0-.249-.279-.25-.431q-.025-5.264-.015-10.528c0-.446.2-.648.693-.683a25.92,25.92,0,0,1,3.265-.463c1.038.053,1.8-.7,2.593-1.272.056-.04.031-.212.015-.319a.177.177,0,0,0-.142-.1,2.945,2.945,0,0,0-1.048.174,5.535,5.535,0,0,1-1.928.576c-.18.028-.4.145-.534.084a2.081,2.081,0,0,0-2.061.4c-.414.253-.859-.066-.866-.6-.019-1.355-.009-2.71-.011-4.064q0-2.217-.008-4.435a1.624,1.624,0,0,1,.455-1.349c.463-.407.3-.7-.141-1.009a.992.992,0,0,1-.279-.65,11.1,11.1,0,0,1-.036-1.291q0-9.607,0-19.215a12.068,12.068,0,0,1,.048-1.474A1.624,1.624,0,0,1,241.059.058a2.265,2.265,0,0,1,.368-.03c2.647.031,5.294.05,7.941.106.88.019.964.114,1.017,1.053a8.546,8.546,0,0,1-.144,1.452,6.4,6.4,0,0,0-.171,1.444,11.58,11.58,0,0,0,.877,4.115,1.329,1.329,0,0,1,.015,1.237,15.408,15.408,0,0,1-2.333,4.148.83.83,0,0,0-.235.466,7.772,7.772,0,0,1-1.043,2.911,15.872,15.872,0,0,0-.729,2.261c-.092.329.071.437.3.544.11.052.238.133.34.111.061-.013.15-.22.119-.3a1.219,1.219,0,0,1-.025-1.217c.1-.149.063-.386.167-.522,1.416-1.846,2.1-4.16,3.643-5.923Zm-3.764,16.273a.53.53,0,0,0,.022.181,2.226,2.226,0,0,0,.267.45c.108.125.438-.136.481-.406a12.528,12.528,0,0,1,.816-3c.048-.111.129-.244.106-.346q-.248-1.062-.544-2.112a.3.3,0,0,0-.268-.127.525.525,0,0,0-.265.232.566.566,0,0,0-.1.346,2.627,2.627,0,0,0,.213.871,1.434,1.434,0,0,1-.032,1.665A3.759,3.759,0,0,0,247.438,28.221Zm9.8,7.545c-.107-.051-.218-.154-.32-.145a4.939,4.939,0,0,1-3.14-.649,4.753,4.753,0,0,0-1.576-.4,1.063,1.063,0,0,0-.527.088.447.447,0,0,0-.241.248.307.307,0,0,0,.1.28c.96.373,1.927.731,2.9,1.082a.51.51,0,0,0,.357,0,6.98,6.98,0,0,1,2.31-.4C257.152,35.864,257.194,35.8,257.24,35.766Zm-8.626-2.694c-.095.062-.259.111-.273.188a2.977,2.977,0,0,0-.069.875c.031.271.487.441.743.308a.476.476,0,0,0,.248-.608,2.436,2.436,0,0,0-.329-.634C248.879,33.122,248.724,33.113,248.614,33.072Zm.984,7.661-.078-.151c-.036.043-.108.1-.1.127a.767.767,0,0,0,.131.182Z"/><path class="cls-1" d="M251.149,58.434a5.458,5.458,0,0,1-.029.736,1.526,1.526,0,0,1-1.214,1.231,3.167,3.167,0,0,1-.55.048q-3.876,0-7.752,0a3.391,3.391,0,0,1-.552-.037,1.67,1.67,0,0,1-1.346-1.34,3.5,3.5,0,0,1-.039-.551q0-3.783,0-7.567a1.338,1.338,0,0,1,.072-.543c.066-.146.248-.362.351-.348.87.124,1.108-.474,1.46-1.085a7.98,7.98,0,0,1,3.136-3.276,17.266,17.266,0,0,0,3.263-2.05,2.247,2.247,0,0,1,2.394-.413c.976.34.958.286.922,1.355-.045,1.352-.026,2.707-.03,4.06C251.233,49.639,251.192,56.159,251.149,58.434Zm-8.217-2.848c-.112-.538-.217-1.059-.331-1.578-.011-.05-.079-.088-.12-.132-.036.047-.1.094-.1.14.012.53.025,1.06.067,1.587,0,.072.17.18.26.179S242.862,55.651,242.932,55.586ZM241.4,51.129a2.767,2.767,0,0,0-.14.617c.017.286.271.45.438.3.076-.065.162-.22.133-.283A5.145,5.145,0,0,0,241.4,51.129Zm1.942,7.724-.085-.148-.128.087.149.217Z"/><path class="cls-1" d="M251.2,11.842a1.79,1.79,0,0,1,.193-.575c.59-.935.953-1.057,1.954-.71.171.059.33.152.5.221.417.173,1.021-.033,1.21.6-.467.068-.932.173-1.4.2a5.186,5.186,0,0,0-2.4.3Z"/><path class="cls-1" d="M8.741,67.553a.635.635,0,0,1,.354-.067,2.047,2.047,0,0,1,1.7,1.471,4.651,4.651,0,0,0,.523,1.557,2.337,2.337,0,0,1,.209,1.439c-.046.281-.175.67-.386.779a1.2,1.2,0,0,0-.652,1.377,10.817,10.817,0,0,1-.051,1.105,1.106,1.106,0,0,0,.529,1.1c.561.315.612.845.652,1.427a10.043,10.043,0,0,1-.464,2.53,1.84,1.84,0,0,0,.561,1.979c.048.038.111.076.131.128.072.187.072.362-.2.343a1.089,1.089,0,0,0-1.092.8,1.335,1.335,0,0,1-1.462.847c-.921,0-1.843.07-2.764.129-.311.02-.464.262-.456.647a2.794,2.794,0,0,0,.043.706.8.8,0,0,0,1.025.5,5.722,5.722,0,0,0,.821-.421,4.407,4.407,0,0,1,2.86-.46,1.077,1.077,0,0,1,.643.309,2.644,2.644,0,0,1-.155,3.486c-.185.16-.408.278-.587.443a.875.875,0,0,0-.3,1,3.191,3.191,0,0,1,.079,2.342c-.033.092.16.352.289.388a.476.476,0,0,0,.416-.225,5.6,5.6,0,0,0,.266-1.239c.036-.424-.035-.857-.026-1.286.006-.287.422-.691.584-.581a.972.972,0,0,1,.412.548,7.9,7.9,0,0,1,.043,1.289c0,2.157-.006,4.314.01,6.47.012,1.644.181,1.82,1.781,1.825,3.636.011,11.646,0,12.015.006,1.061.019,1.053.023,1.45,1.144.056.156.229.271.347.405l-.033-.042c-.079.286-.283.607-.214.852a9.79,9.79,0,0,1,.3,2.676.918.918,0,0,0,.679.954l-.034-.046c.02.184.04.367.059.551.049.482-.055,1.069.187,1.416s.829.454,1.265.666l-.032-.036a7.34,7.34,0,0,1,.564,1.348,2.235,2.235,0,0,1-.031,1.406c-.208.272-.644.258-1.377.26s-8.617.006-12.926,0c-.246,0-.493,0-.738-.015a.668.668,0,0,1-.679-.7,9.936,9.936,0,0,0-.229-2.745c-.075-.222.116-.593.282-.828.282-.4.657-.731.958-1.119a.884.884,0,0,0,.113-.513c0-.07-.148-.194-.228-.194a.456.456,0,0,0-.315.158,2.582,2.582,0,0,1-2.347,1.192.6.6,0,0,0-.335.136.58.58,0,0,0-.24.265.363.363,0,0,0,.092.309,1.752,1.752,0,0,0,.463.289,1.2,1.2,0,0,1,.748,1.166c.007.246.022.492.021.738-.01,1.852-.011,1.859-1.819,1.863a4.743,4.743,0,0,1-3.03-.534.5.5,0,0,0-.477.084,1.415,1.415,0,0,1-1.167.43c-1.847.005-3.694.039-5.54.009a1.6,1.6,0,0,1-1.765-1.7c-.03-2.707,0-5.415,0-8.123a.294.294,0,0,1,.035-.179c.111-.124.227-.311.362-.329a.605.605,0,0,1,.475.191,2.458,2.458,0,0,1,.306.65c.045.113.047.243.089.357.173.462.511.548.805.2.117-.14.166-.356.3-.456.3-.21.63-.523.944-.518a6.907,6.907,0,0,0,3.255-1.166c.761-.389,1.5-.833,2.243-1.248.921-.511,1.026-.482,1.8.415a1.466,1.466,0,0,0,.3.206c.05-.094.168-.224.14-.277a1.684,1.684,0,0,1-.024-1.586,1.879,1.879,0,0,0,.1-.9c-.009-.106-.249-.2-.393-.282-.027-.015-.117.038-.15.081a2.1,2.1,0,0,1-2.775.65c-.383-.159-.68.051-.734.556a1.18,1.18,0,0,1-.624,1.035c-.593.322-1.17.673-1.762,1-.158.086-.385.211-.514.158-.808-.33-1.573.091-2.356.082a3.217,3.217,0,0,1-1.593-.2c-.485-.314-.25-1.025-.25-1.563,0-4.8.027-9.6.031-14.4,0-2.338-.027-4.677-.033-7.015a12.466,12.466,0,0,1,.072-1.472.355.355,0,0,1,.529-.3c.276.1.572.377.836.073a2.267,2.267,0,0,1,2.038-.61,1.662,1.662,0,0,0,1.6-.574,1.388,1.388,0,0,1,1.855-.2c.913.553,1.749.038,2.58-.285.237-.092.188-.686-.069-.783a2,2,0,0,0-1.038-.25,11.157,11.157,0,0,1-3.983.351A3.972,3.972,0,0,0,2.9,73.8a3.994,3.994,0,0,1-2.177.1.613.613,0,0,1-.361-1,2.589,2.589,0,0,1,.525-.511Q3.307,70.877,5.752,69.4S7.94,67.993,8.741,67.553ZM6.318,69.546c-.136.565.359,1.149-.046,1.709.1.052.2.148.3.147a1.346,1.346,0,0,0,1.035-.639.5.5,0,0,0,.006-.47,2.487,2.487,0,0,0-1.154-.877ZM.87,84.992c.012.118-.013.262.045.349.125.185.266.429.451.485a.819.819,0,0,0,.64-.153,2.68,2.68,0,0,0,.562-.688c.3-.462.011-.94-.576-1C1.218,83.918.874,84.225.87,84.992Zm.553-8.61c-.06.141-.215.322-.182.456.145.583.335,1.156.533,1.724a.365.365,0,0,0,.284.172.367.367,0,0,0,.287-.166A6.779,6.779,0,0,0,2.7,77.537C2.84,76.938,2.117,76.27,1.423,76.382Zm4.838,31.167c-.033.11-.12.239-.089.327a2.688,2.688,0,0,0,1.255,1.514c.078.043.347-.1.4-.211a.649.649,0,0,0-.02-.522,2.306,2.306,0,0,0-1.385-1.122A.488.488,0,0,0,6.261,107.549Zm.109-31.98c-.12.009-.274-.026-.354.035a1.381,1.381,0,0,0-.626,1.4c.01.055.237.141.269.111.351-.326.7-.66,1.013-1.018C6.823,75.929,6.613,75.587,6.37,75.569Zm4.988,32.243c-.05-.031-.1-.082-.152-.091a2.431,2.431,0,0,0-1.562.083.352.352,0,0,0-.138.283.371.371,0,0,0,.171.274,1.551,1.551,0,0,0,1.625-.407C11.336,107.926,11.34,107.86,11.358,107.812ZM24.3,110.125c.006-.049.036-.121.015-.145-.282-.314-.565-.628-.867-.922-.042-.04-.2.021-.289.061-.029.012-.049.119-.029.163a1.509,1.509,0,0,0,1.025.926C24.189,110.218,24.246,110.155,24.3,110.125ZM10.425,94.438c-.066.111-.247.29-.21.378a2.307,2.307,0,0,0,.422.526c.085-.133.231-.262.242-.4A.417.417,0,0,0,10.425,94.438ZM4.391,85.7c-.029-.042-.051-.107-.09-.12a.451.451,0,0,0-.171.017.878.878,0,0,0,.119.18C4.261,85.789,4.342,85.728,4.391,85.7Z"/><path class="cls-1" d="M40.821,57.791c.246.011.46.019.706.031A1.564,1.564,0,0,0,43.064,57a.5.5,0,0,1,.454-.179c.128.057.184.287.261.446a.44.44,0,0,1,.024.182c0,2.156,0,4.312-.011,6.467a.513.513,0,0,1-.137.327c-.068.071-.261.139-.3.105-.3-.3-.56-.643-.864-.941a1.793,1.793,0,0,1-.582-1.494A3.191,3.191,0,0,0,41.338,60a.879.879,0,0,0-.425-.311c-.066-.026-.276.1-.278.159a1.283,1.283,0,0,0,.091.691,2.275,2.275,0,0,1,.037,2.424,4.684,4.684,0,0,1-.306.67c-.355.517-.108.88.2,1.32s.585.474,1.074.317c.531-.171.88.209.685.695-.214.534-.406,1,.074,1.508.113.12.036.468-.025.692a19.126,19.126,0,0,0-.576,2.127,1.908,1.908,0,0,0,.522,1.961,3.772,3.772,0,0,1,1.03,2.129,1,1,0,0,1-.713,1.141,5.467,5.467,0,0,1-1.1.107c-2.588.009-5.176.021-7.764,0-1.67-.015-2.217-.565-2.275-2.2a12.673,12.673,0,0,1,.017-1.293,1.706,1.706,0,0,1,.183-.475,2.14,2.14,0,0,1,.537.429c.229.361.355.787.592,1.141a2.74,2.74,0,0,0,.681.611c.041.03.231-.073.292-.157a.509.509,0,0,0,.06-.34c-.137-.968-.306-1.933-.413-2.9a.747.747,0,0,1,.278-.626,3.643,3.643,0,0,0,1.568-1.5,3.622,3.622,0,0,1,1.092-.95,1.828,1.828,0,0,1,2.09.007c.261.16.5.358.762.516s.932-.3.937-.654a.408.408,0,0,0-.135-.315c-.367-.218-.75-.412-1.133-.6a1.5,1.5,0,0,1-.709-.8c-.367-.811-.426-.826-.933-.086a2.926,2.926,0,0,1-1.64,1.124,1.832,1.832,0,0,0-1.261.961,4.371,4.371,0,0,1-1.689,1.667c-.284.183-.631.547-.973.275-.185-.148-.187-.557-.226-.854a1.027,1.027,0,0,0-1.541-.769,5.7,5.7,0,0,0-.784.483q-4.693,2.942-9.389,5.882c-.311.194-.634.369-.961.534a.493.493,0,0,1-.577-.315c-.034-.181-.037-.37-.086-.546-.131-.476.459-1,.039-1.373-.282-.251-.806-.214-1.2-.357a1.093,1.093,0,0,1-.674-.821c-.233-.916-1.024-1.507-1.391-2.35-.036-.081-.337-.081-.506-.055-.092.014-.192.149-.237.251a.472.472,0,0,0-.033.355c.479.841.96,1.683,1.478,2.5a2.837,2.837,0,0,0,.658.639c1.044.826.977,1.9.683,3.02a.629.629,0,0,1-.378.367c-.278.081-.438-.134-.52-.376-.059-.174-.073-.362-.126-.538a.6.6,0,0,0-.162-.319c-.126-.086-.4-.182-.432-.142-.493.691-1.4.747-1.974,1.327-.212.216-.46-.009-.636-.174a1.421,1.421,0,0,1-.446-1.173,16.614,16.614,0,0,1,.2-3.665.961.961,0,0,0-.083-.688,6.391,6.391,0,0,1-.929-3.7c.018-.321-.312-.659.09-.958s.728-.6,1.321-.381a.828.828,0,0,0,1.174-.5,2.785,2.785,0,0,1,1.543-1.723c2.607-1.636,5.205-3.286,7.808-4.928.26-.164.53-.314.8-.46.649-.35.794-.3,1.226.248.492.623,1.014,1.224,1.536,1.824a.391.391,0,0,0,.611-.147c.19-.581.368-1.166.518-1.758.179-.709.164-.715.992-.781.184-.015.334,0,.519-.009,1.1.823,1.343.84,2.227.13a3.824,3.824,0,0,1,1.53-.945c.427-.1.563-.6.614-1.038.011-.094-.092-.211-.164-.3a.2.2,0,0,0-.173-.021c-.113.033-.261.056-.324.138-.73.948-2,1.111-2.822,1.933-.168.168-.552.02-.853.055-.208-.569-.431-1.075-.66-1.635a.616.616,0,0,1,.166-.818c1.183-.758,2.383-1.49,3.587-2.215.3-.178.55-.013.639.383.04.177.033.365.062.546a.5.5,0,0,0,.994.018.857.857,0,0,1,.1-.343c.05-.065.24-.12.27-.088.243.257.462.536.688.808-.456.842.263,1.024.748,1.351a.79.79,0,0,1,.334,1.1.6.6,0,0,0-.01.676c.1.154.52.316.142.539-.157.093-.464-.012-.68-.09-.164-.058-.281-.234-.439-.324a.434.434,0,0,0-.33-.041.813.813,0,0,0-.462.735.686.686,0,0,0,.46.712,1.263,1.263,0,0,0,.533.033,5.086,5.086,0,0,1,2.535.037,12.786,12.786,0,0,0,1.276.1.956.956,0,0,0,1.112-.658Zm-9.4,7.2a.634.634,0,0,0-.078-.166,1.992,1.992,0,0,0-1.609-.751,3.415,3.415,0,0,1-2.426-.562c-.038-.027-.23.087-.287.176A.374.374,0,0,0,27,64.02a1.4,1.4,0,0,0,.368.388c.194.143.423.241.612.39a.322.322,0,0,1-.011.288c-.764.35-1.414,1.022-2.356.888-1.506-.216-3.067.23-4.543-.369a.209.209,0,0,0-.176.023c-.132.106-.318.211-.355.35a.6.6,0,0,0,.134.481.632.632,0,0,0,.475.206c1.192-.221,2.278.384,3.437.422a.538.538,0,0,1,.523.627c-.042.464.3.461.6.429a2.653,2.653,0,0,0,2.067-1.385,2.153,2.153,0,0,1,2.412-1.221,2.676,2.676,0,0,0,1.045-.253C31.319,65.255,31.36,65.093,31.422,64.992ZM20.388,69.149c.59-.141,1.184-.252,1.756-.432a3.625,3.625,0,0,0,.958-.506.6.6,0,0,0,.207-.457c-.022-.287-.28-.376-.529-.371a3.718,3.718,0,0,0-2.556,1.5c-.02.02.012.108.04.151A.678.678,0,0,0,20.388,69.149Zm-7.157,3.6c-.039.047-.113.1-.11.142a6.2,6.2,0,0,0,.1.873c.014.07.191.154.284.144a.36.36,0,0,0,.26-.2.763.763,0,0,0-.365-.928A.48.48,0,0,0,13.231,72.75Zm26.532,1.39c-.143.094-.3.149-.3.21a.351.351,0,0,0,.158.279c.077.034.2-.046.311-.076ZM13.23,70.91c.167.049.293.13.376.1a.356.356,0,0,0,.157-.275c0-.057-.185-.185-.2-.173A3.228,3.228,0,0,0,13.23,70.91Z"/><path class="cls-1" d="M27.891,101.791a.926.926,0,0,1,.007-.183c.329-1.432.436-1.367,1.7-1.367,3.931,0,11.486,0,12.163,0a1.848,1.848,0,0,1,2.077,1.988c-.04.488-.005.982,0,1.474,0,.737.01,1.474-.006,2.211-.008.42.127.961-.29,1.183-.255.135-.686-.1-1.04-.105-1.166-.024-2.332-.037-3.5-.022a3.026,3.026,0,0,1-1.732-.523c-.3-.192-.509-.639-.918-.5a3.593,3.593,0,0,0-.9.617,5.394,5.394,0,0,0-1.169,1.145,8.451,8.451,0,0,1-1.572,1.537,1.16,1.16,0,0,1-1.66-.023,1.664,1.664,0,0,0-.98-.443l.032.036a2.085,2.085,0,0,0-.8-2.086c-.235-.186-.476-.365-.715-.547l.034.046c-.01-1.132-.018-2.263-.03-3.395a1.01,1.01,0,0,0-.738-1.087Z"/><path class="cls-1" d="M40.687,57.688a.917.917,0,0,1-.861-.306,2.685,2.685,0,0,1-.463-.568,12.754,12.754,0,0,0-2.318-3.044c-.242-.224-.292-.655-.436-.988a.492.492,0,0,0-.721-.317c-.4.17-.707-.1-1.025-.256a.648.648,0,0,1-.277-.79.549.549,0,0,1,.605-.3,1.882,1.882,0,0,0,.35.095c.149-.006.414-.046.426-.11.212-1.112,1.09-1.574,1.954-2.055.214-.119.431-.234.64-.362a1.114,1.114,0,0,1,1.2.054c.46.238.553.117.508-.492-.013-.17-.074-.39.006-.505a2.106,2.106,0,0,1,2.9-.611,1.4,1.4,0,0,1,.626,1.076q.033.55.032,1.1Q43.82,52.255,43.8,55.2c0,.359-.16.482-.538.452-.121-.009-.248-.1-.356-.072a4.876,4.876,0,0,1-1.38.309c-.379-.037-.712-.431-1.093-.611a.561.561,0,0,0-.492.108.653.653,0,0,0-.161.482.885.885,0,0,0,.674.767c.724.283.709.155.338.983A.134.134,0,0,1,40.687,57.688ZM42.6,54.921l-.119-.3c-.047.037-.138.083-.132.109a1.9,1.9,0,0,0,.116.306Z"/><path class="cls-1" d="M37.112,111.8c-1.477,0-2.954,0-4.431,0a4.52,4.52,0,0,1-.73-.089.44.44,0,0,1-.243-.593,3.322,3.322,0,0,1,.672-.838,6.654,6.654,0,0,1,1.147-.586,1.7,1.7,0,0,0,1.07-1.164,2.754,2.754,0,0,1,.712-1.033,1.387,1.387,0,0,1,1.818-.346,8.347,8.347,0,0,0,4.274.875q.184-.012.369-.015c2.25-.036,2.11.193,2.034,2.2a1.6,1.6,0,0,1-1.706,1.575c-1.169.04-2.339.014-3.508.016H37.112Z"/><path class="cls-1" d="M43.763,70.037c0,.668.007,1.337-.007,2,0,.106-.1.21-.153.315-.139-.108-.351-.19-.4-.329a2.506,2.506,0,0,1-.219-1.049c.108-.961.3-1.912.462-2.867.008-.049.08-.088.122-.132.06.079.17.156.172.236.015.607.008,1.215.008,1.822Z"/><path class="cls-1" d="M27.033,56.31c-.01-.154-.032-.221-.013-.235a2.161,2.161,0,0,1,.427-.279c.074-.031.188.032.283.053-.024.1-.021.261-.079.286A4.014,4.014,0,0,1,27.033,56.31Z"/><path class="cls-1" d="M62.6,42.225a3.439,3.439,0,0,0,.763-1.991c.1-.477.281-.936.375-1.413a1.552,1.552,0,0,1,1.926-1.45.993.993,0,0,0,.929-.507c.21-.3.4-.618.6-.931.026-.042.032-.147.015-.156a1.528,1.528,0,0,0-.334-.119.242.242,0,0,0-.179.023c-1.067.831-2.312.662-3.54.67a17.18,17.18,0,0,0-4.588.262c-.045.013-.153-.031-.155-.055-.008-.095-.022-.242.032-.282.586-.446,1.163-.91,1.785-1.3Q68.5,29.751,76.8,24.549a4.067,4.067,0,0,1,2-.862,1.132,1.132,0,0,0,.706-.5.872.872,0,0,1,1.263-.326,1.105,1.105,0,0,0,1.208-.185c1.222-.937,2.754-1,4.146-1.459a1.3,1.3,0,0,1,.721.069c.291.088.509.053.5-.271-.031-1.154.736-2.079.888-3.186.043-.31.39-.621.666-.847a13.772,13.772,0,0,1,1.378-.928q6.252-3.933,12.51-7.857a14.716,14.716,0,0,1,1.593-.932A1.74,1.74,0,0,1,107,8.822c.052,1.23.015,2.464.015,3.7q0,2.772,0,5.545a2.193,2.193,0,0,1-1.118,1.989c-1.933,1.2-3.856,2.424-5.784,3.637-.052.033-.109.057-.163.087-.658.372-.716.348-1.194-.418a.4.4,0,0,0-.26-.2c-.086,0-.181.115-.256.2a.225.225,0,0,0-.048.172c.208,1.108-.429,1.669-1.293,2.175-1.7.994-3.366,2.044-5.031,3.094-1.509.952-3,1.938-4.5,2.9-.414.266-.837.516-1.263.763a.361.361,0,0,1-.537-.288c-.026-.553-.027-1.107-.057-1.66,0-.083-.106-.162-.162-.243-.078.089-.2.168-.224.269a9.376,9.376,0,0,0-.258,1.625,1.976,1.976,0,0,1-1.084,1.785C82,35.045,80.246,36.189,78.475,37.3q-5.232,3.291-10.47,6.576a6.066,6.066,0,0,0-.6.429,1.562,1.562,0,0,0-.613,1.283c.008,1.171.009,2.342,0,3.513q-.019,2.026-.072,4.055c0,.108-.106.214-.162.321-.143-.092-.349-.152-.417-.282a3.406,3.406,0,0,1-.183-.7,1.3,1.3,0,0,0-1.267-.792.34.34,0,0,0-.192.273,2.624,2.624,0,0,0,.183.883,1.892,1.892,0,0,0,.581.706,3.5,3.5,0,0,1,1.5,3.309c-.093,3.077.009,6.159.031,9.239,0,.062,0,.123-.008.185-.04.566-.2.716-.8.759-.389.027-1-.214-.995.412.007.451.582.3.92.288a.83.83,0,0,1,.942.68,2.1,2.1,0,0,0,.226.5.847.847,0,0,0,1.072.479.876.876,0,0,1,1.009.207,1.237,1.237,0,0,0,1.008.364.545.545,0,0,0,.329-.118c.055-.058.032-.2.02-.308-.007-.054-.062-.105-.1-.152-.2-.233-.542-.455-.558-.7-.025-.4.408-.558.731-.725.272-.141.552-.27.835-.388a.506.506,0,0,1,.721.339,19.557,19.557,0,0,1,.056,2.011c0,.123-.221.321-.365.347a.866.866,0,0,0-.809.83,3.876,3.876,0,0,1-1.064,1.7.5.5,0,0,0,.183.775.589.589,0,0,0,.16.088c1.42.244,1.645,1.161,1.571,2.444a14.58,14.58,0,0,1-.266,3.842c-.011.034.056.118.105.141a.159.159,0,0,0,.146-.054,4.993,4.993,0,0,0,.749-2.226,9.653,9.653,0,0,1,.162-1.831,1.543,1.543,0,0,0-.284-1.538.809.809,0,0,1-.1-.678,3.982,3.982,0,0,0,.225-1.631,6.933,6.933,0,0,1,.552-3.238,1.177,1.177,0,0,0,.1-.87c-.5-.94.105-1.52.623-2.109a4.009,4.009,0,0,1,.909-.624q4.144-2.6,8.291-5.2c1.615-1.016,3.218-2.052,4.831-3.07.468-.3.954-.563,1.435-.836a.754.754,0,0,1,.859,0,2.1,2.1,0,0,0,2.094.177c.522-.208,1.107.376,1.032.969-.068.536-.313,1.056-.33,1.588a2.392,2.392,0,0,1-.481,1.334,3.649,3.649,0,0,0-.335,1.371c-.106.613.18.958.775.97.185,0,.37-.024.554-.019a4.577,4.577,0,0,1,1.639.1c.476.212.881.6,1.409.8a1.041,1.041,0,0,1,.06,1.708c-.575.357-1.124.755-1.7,1.117q-2.419,1.53-4.847,3.046c-.271.17-.574.308-.841.059a.785.785,0,0,1-.211-.846,3.888,3.888,0,0,0,.139-.719.457.457,0,0,0-.452-.471.508.508,0,0,0-.5.446,7.178,7.178,0,0,0-.033.735c-.016.431-.049.862-.046,1.292a1.31,1.31,0,0,1-.714,1.2c-.842.51-1.671,1.042-2.506,1.565-1.878,1.175-3.76,2.346-5.634,3.529-.475.3-.915.627-1.526.312-.23-.119-.3.124-.314.3a1.08,1.08,0,0,1-.566.9,45.351,45.351,0,0,1-4.734,2.863,3.91,3.91,0,0,0-.645.352c-1.169.8-2.3,1.651-3.506,2.386a2.331,2.331,0,0,0-1.216,2.283c.052,2.093.008,4.189.008,6.284q0,3.051.008,6.1c0,.247-.007.494,0,.74.049,1.055.4,1.46,1.41,1.57a11.551,11.551,0,0,0,1.289.059q5.822-.024,11.643-.059.185,0,.369.006c.882.038.981.092,1.034.924.067,1.043.064,2.091.095,3.136a.538.538,0,0,0,.073.169c.085-.056.22-.093.249-.17.383-1.018,1-1.986.521-3.17-.158-.393.264-.823.735-.87.306-.03.615-.033.922-.033q5.176,0,10.352,0c.247,0,.493,0,.739.018.565.039.77.283.688.836-.027.18-.133.348-.157.528a.68.68,0,0,0,.107.323.327.327,0,0,0,.16-.043c.407-.276.793-.587,1.218-.829a5.223,5.223,0,0,1,2.595-.831c1.417,0,2.836.037,4.251-.011a1.874,1.874,0,0,1,1.941,1.976c-.046,2.587-.017,5.175-.015,7.763a1.758,1.758,0,0,1-1.873,1.832c-1.293-.011-2.587,0-3.881,0-.986,0-1.973-.019-2.958,0a1.477,1.477,0,0,1-1.534-.776,1.927,1.927,0,0,0-.833-.7,2.549,2.549,0,0,1-1.46-2.2,1.778,1.778,0,0,0-1.043-1.577,6.332,6.332,0,0,0-.815-.428.608.608,0,0,0-.484.018,3.953,3.953,0,0,0-1.134.918,2.624,2.624,0,0,1-1.781,1.183c-.611.125-.951.9-1.609.794a8.189,8.189,0,0,1-1.538-.607c-.286-.11-.585-.188-.881-.271-.246-.068-.557-.074-.609.19-.035.175.165.436.323.6a2.972,2.972,0,0,0,.619.4c.825.5.965.809.722,1.607a1.066,1.066,0,0,1-1.078.838c-.307.023-.616.018-.924.018H73.151c-.123,0-.247,0-.37,0-1.343-.031-1.456-.125-1.7-1.4a2.554,2.554,0,0,0-.152-.713c-.228-.427-.657-.793-.742-1.235s.21-.95.219-1.43a3.98,3.98,0,0,0-.245-1.25,18.256,18.256,0,0,0-.653-1.723,1.864,1.864,0,0,1-.032-1.6,2.068,2.068,0,0,0,.083-1.074c-.027-.188-.288-.343-.443-.513a1.66,1.66,0,0,0-.2.463c-.073.72.107,1.492-.56,2.064-.215.183-.092.448.017.678a7.852,7.852,0,0,1,.858,4.277,1.582,1.582,0,0,0,.709,1.758,1.08,1.08,0,0,1,.432.972.606.606,0,0,1-.483.667c-.305.03-.613.05-.92.051q-5.914,0-11.83,0c-.124,0-.247,0-.37,0a1.979,1.979,0,0,1-2.2-1.976,7.669,7.669,0,0,1-.022-.923q0-2.4,0-4.807a8.036,8.036,0,0,1,.06-.917.508.508,0,0,1,.665-.424c.921.329,1.845.652,2.757,1a.872.872,0,0,0,1.018-.134,6.091,6.091,0,0,1,.553-.49,2.652,2.652,0,0,1,2.767-.428c1.08.436,2.2.776,3.315,1.121a1.269,1.269,0,0,0,.68-.1.324.324,0,0,0,.116-.3c-.034-.1-.166-.176-.272-.229a16.247,16.247,0,0,0-5.586-1.728c-.774-.083-.948-.274-.973-1.04a5.025,5.025,0,0,1,.037-1.473c.29-1.056-.116-2.062-.11-3.093,0-.083-.132-.217-.225-.24-.255-.063-.3.17-.325.333A4.873,4.873,0,0,0,59,96.7c0,1.048,0,2.095-.012,3.143,0,.431,0,.863-.031,1.292a.821.821,0,0,1-.521.686c-1.378.728-2.485.059-3.566-.678a.982.982,0,0,1-.29-.647,11.1,11.1,0,0,1-.031-1.291q.008-16.083.017-32.165c0-.985,0-1.971-.01-2.957a1.375,1.375,0,0,1,.622-1.259c.408-.273.8-.573,1.182-.883a.748.748,0,0,0,.252-.983.705.705,0,0,1,.236-.963,1.454,1.454,0,0,1,1.838-.346,2.32,2.32,0,0,0,1.422.3,3.057,3.057,0,0,0,.867-.186c.18-.073-.088-.613-.429-.915a1.16,1.16,0,0,0-1.025-.292c-.36.069-.7.242-1.063.286a2.187,2.187,0,0,1-.893-.1.621.621,0,0,1-.193-1.048,2.58,2.58,0,0,1,1.506-.623,1.427,1.427,0,0,1,1.27.626.78.78,0,0,0,1.118.2.673.673,0,0,1,.942.554c.026.242-.024.492,0,.734a13.225,13.225,0,0,0,.287,1.995,2.526,2.526,0,0,1-.079,1.962.523.523,0,0,0,.347.73c.575.2,1.148.4,1.734.562a.459.459,0,0,0,.526-.651c-.385-.839-.785-1.672-1.215-2.489a3.9,3.9,0,0,1-.489-1.76,8.568,8.568,0,0,1-.049-2.736c.067-.228-.134-.459-.417-.514a1.724,1.724,0,0,0-.364-.043q-1.755.02-3.509.047a1.8,1.8,0,0,0-1.365.444,3.237,3.237,0,0,1-.62.386,1.9,1.9,0,0,1-2.079-.223.915.915,0,0,1-.333-.618,9.568,9.568,0,0,1-.038-1.291q0-7.024,0-14.049a10.762,10.762,0,0,1,.017-1.108A2.5,2.5,0,0,1,57.3,37.456c1.786.008,3.572-.012,5.358,0a.7.7,0,0,1,.707,1c-.262.751-.548,1.5-.875,2.222a1.534,1.534,0,0,0,.116,1.545,1.812,1.812,0,0,0-.722,1.594c.006,1.346-.016,2.692-.013,4.039a4.2,4.2,0,0,0,.1.717c.008.05.081.136.1.131.109-.042.249-.077.307-.163a1.088,1.088,0,0,0,.2-.5,21.211,21.211,0,0,1,.309-3.095,4.2,4.2,0,0,0-.094-1.272C62.737,43.2,62.667,42.71,62.6,42.225ZM64.121,83.3c-.149.1-.352.162-.437.3a3.121,3.121,0,0,1-1.427,1.366.5.5,0,0,0-.2.443A7.012,7.012,0,0,0,63.369,88.2c.038.04.15.078.163.063.069-.084.178-.2.164-.277-.052-.3-.158-.583-.227-.877a2.3,2.3,0,0,1,.342-2.248,2.092,2.092,0,0,0,.278-1.58c.092-.062.22-.1.266-.19s-.014-.2-.027-.3c-.065.057-.165.1-.188.173A1.23,1.23,0,0,0,64.121,83.3Zm41.357-67.876c-.032-.318-.036-.439-.059-.557-.01-.054-.048-.133-.089-.145a.189.189,0,0,0-.165.061,13.231,13.231,0,0,1-1.459,2.063,13.5,13.5,0,0,1-2.722,2.414A5.086,5.086,0,0,0,99.8,20.4a.465.465,0,0,0,.057.451c.1.1.4.165.469.1.7-.682,1.514-1.2,2.266-1.812a2.873,2.873,0,0,0,.615-.673,13.808,13.808,0,0,1,1.75-2.1A3.52,3.52,0,0,0,105.478,15.428ZM75.957,37.2c.054-.1.165-.218.15-.313-.053-.358-.173-.708-.22-1.066a.741.741,0,0,1,.635-.942A11.943,11.943,0,0,0,79.687,33.5a.368.368,0,0,0,.151-.306c-.012-.069-.184-.152-.286-.155a1.139,1.139,0,0,0-.531.087,7.9,7.9,0,0,1-2.053.735,9.524,9.524,0,0,0-1.883.683,2.433,2.433,0,0,0-.7.575c-.111.115-.246.382.018.419a1.038,1.038,0,0,1,.934.959,2.07,2.07,0,0,0,.321.651C75.7,37.2,75.855,37.183,75.957,37.2ZM64.289,89.364a1.243,1.243,0,0,0-.141.318c-.068.483.33.758.523,1.127a.793.793,0,0,1-.245,1.121c-.354.232-.752.395-1.114.616a2.553,2.553,0,0,0-.544.468c-.058.064-.038.212-.026.319.005.042.105.117.13.106a11,11,0,0,1,2.618-.734c.172-.027.384-.321.426-.524a1.615,1.615,0,0,0-.059-.891,4.2,4.2,0,0,0-1.392-1.879A.513.513,0,0,0,64.289,89.364ZM69.2,34.656a.7.7,0,0,0-.162.11c-.032.042-.067.127-.047.154.176.243.377.469.547.716a3.613,3.613,0,0,0,2.505,1.387.857.857,0,0,0,1.039-.552c.041-.1.086-.252.041-.325a.354.354,0,0,0-.305-.14,2.005,2.005,0,0,1-1.894-.335c-.346-.251-.712-.478-1.079-.7C69.64,34.848,69.41,34.756,69.2,34.656Zm13.482,71.212c-.228-.143-.405-.333-.493-.3a12.173,12.173,0,0,0-3.49,2.266.264.264,0,0,0-.084.159,1.136,1.136,0,0,0,0,.522c.118.251.315.083.427-.029a5.31,5.31,0,0,1,1.622-1.166,13.106,13.106,0,0,0,1.6-.857C82.435,106.358,82.521,106.109,82.685,105.868ZM59.5,67.518a.856.856,0,0,0,.087.318c.194.236.445.429.614.679.2.289.274.831.5.893.526.14.512-.579.866-.786a5.426,5.426,0,0,1,.961-.494,7.673,7.673,0,0,1,.9-.12.319.319,0,0,0,.171-.262c-.009-.081-.168-.226-.225-.211a5.3,5.3,0,0,1-3.557-.149C59.74,67.355,59.6,67.471,59.5,67.518Zm2.389-17.432a3.829,3.829,0,0,0,.925,2.681c.05.072.21.077.322.089.032,0,.092-.072.109-.122a3.576,3.576,0,0,0-.847-3.335.354.354,0,0,0-.3.042A5.951,5.951,0,0,0,61.885,50.086Zm25.1-21.453V28.6c-.611,0-1.223-.007-1.833.012-.059,0-.169.176-.158.257.068.494.485.841.85.658a3.332,3.332,0,0,1,1.613-.3c.308.006.616.01.924,0,.573-.011.839-.144.711-.347-.2-.321-.525-.239-.813-.249C87.853,28.621,87.421,28.633,86.99,28.633Zm11.4-7.4c.011-.058.05-.131.029-.174a1.074,1.074,0,0,0-1.237-.391.442.442,0,0,0-.034.629.886.886,0,0,0,1.141.071A.5.5,0,0,0,98.386,21.231Zm-12.947,41.5c.015-.053.059-.118.043-.159a1.592,1.592,0,0,0-1.151-1.007c-.031-.008-.1.071-.125.121a.218.218,0,0,0-.029.16,1.814,1.814,0,0,0,.961,1C85.205,62.884,85.337,62.777,85.439,62.733ZM84.3,28.546a1.255,1.255,0,0,0-.4-.249,2.458,2.458,0,0,0-.673.016c-.024,0-.073.11-.058.129.105.137.2.337.343.376a1.984,1.984,0,0,0,.673-.012C84.209,28.8,84.226,28.721,84.3,28.546Zm5.63-9.036c.294-.171.608-.35.916-.539a.191.191,0,0,0,.076-.158.182.182,0,0,0-.135-.111,1.183,1.183,0,0,0-1.068.541c-.021.031.009.112.039.154S89.85,19.458,89.933,19.51ZM58.177,72.575a4.03,4.03,0,0,0-.005-.554,1.857,1.857,0,0,0-.126-.334c-.054.105-.148.208-.153.316a8.623,8.623,0,0,0,.018.909c0,.052.066.1.1.151.038-.045.1-.086.11-.137C58.159,72.749,58.178,72.569,58.177,72.575Zm34.67,31.142a2.081,2.081,0,0,0-.218.441c-.024.1.052.226.084.34a1.766,1.766,0,0,0,.251-.245,1.163,1.163,0,0,0,.144-.333.177.177,0,0,0-.062-.14C93.01,103.748,92.947,103.746,92.847,103.717Zm12.472-93.78c-.032.044-.1.109-.091.127a4.843,4.843,0,0,0,.352.539c.01.012.215-.068.223-.121C105.843,10.207,105.532,9.875,105.319,9.937ZM76.19,74.4c-.252-.116-.453-.214-.661-.294-.026-.01-.112.067-.127.117a.18.18,0,0,0,.054.159,2.208,2.208,0,0,0,.447.272C75.94,74.67,76.038,74.539,76.19,74.4Zm15.573-11.4a1.987,1.987,0,0,0-.191.413c-.008.032.235.177.263.153a1.82,1.82,0,0,0,.268-.361Zm-3.686.895a1.6,1.6,0,0,0-.472-.072c-.059.008-.1.188-.143.29a1.625,1.625,0,0,0,.436.131C87.944,64.251,88,64.061,88.077,63.9Zm2-1.194c-.11.143-.213.274-.306.412,0,.007.1.117.121.108.13-.074.25-.164.374-.25Zm-32.148-1.95-.3.2a3.472,3.472,0,0,0,.313.339c.011.01.212-.137.2-.172A1.841,1.841,0,0,0,57.927,60.756ZM59.556,93.5c.116-.142.222-.269.319-.4.005-.006-.094-.115-.116-.106-.136.058-.264.135-.394.2Zm27.6-70.61c-.017.054-.057.114-.046.162.045.2.127.2.2.022a.23.23,0,0,0-.038-.167C87.258,22.884,87.194,22.893,87.153,22.888Zm.081,39.136c-.041.033-.122.072-.118.1a1.787,1.787,0,0,0,.095.287c.042-.034.125-.075.12-.1A1.561,1.561,0,0,0,87.234,62.024Z"/><path class="cls-1" d="M80.787,5.809c0,.984.011,1.969-.006,2.953a.586.586,0,0,1-.618.556c-.546-.045-1.087-.151-1.632-.205a.334.334,0,0,0-.264.187.363.363,0,0,0,.091.327,5.432,5.432,0,0,0,.771.448c.327.161.671.288.993.458a.316.316,0,0,1,.036.3,3.248,3.248,0,0,1-.657.627Q76.158,13.6,72.8,15.708a12.053,12.053,0,0,1-1.133.619.581.581,0,0,1-.831-.447A3.1,3.1,0,0,1,71,14.071a1.451,1.451,0,0,0,.038-.7c-.007-.071-.177-.135-.282-.179a.179.179,0,0,0-.16.043,1,1,0,0,0-.2.3c-.3.807-.569,1.625-.886,2.424a.975.975,0,0,0,.153,1.023.494.494,0,0,1-.129.749,1.789,1.789,0,0,1-2.816-1.417c-.069-1.412-.011-2.831.015-4.247,0-.157.128-.418.247-.451.684-.19,1.341-.658,2.109-.2a3.1,3.1,0,0,0,1.052.33.556.556,0,0,0,.462-.219,4.041,4.041,0,0,0,.416-1.014.585.585,0,0,0-.179-.48.551.551,0,0,0-.468-.034c-.225.085-.419.349-.63.353a6.507,6.507,0,0,0-2.28.644.54.54,0,0,1-.7-.393A2.067,2.067,0,0,1,67.539,8.3c.246-.184.511-.341.771-.5Q72.764,5,77.222,2.2a7.531,7.531,0,0,1,1.465-.75,1.563,1.563,0,0,1,2.1,1.4c.061.981.013,1.969.013,2.954Z"/><path class="cls-1" d="M102.252,55.982c0,1.478-.014,2.956.007,4.434a2.074,2.074,0,0,1-1.1,1.98c-.372.214-.717.48-1.094.686a1.816,1.816,0,0,1-2.356-.3,4.8,4.8,0,0,1-1.377-2.758,10.064,10.064,0,0,0-1.1-4.046c-.151-.262-.166-.6-.315-.864-.227-.405.18-1.115-.471-1.25-.477-.1-.614.523-.939.782a2.008,2.008,0,0,1-1.707.5.238.238,0,0,1-.152-.1.173.173,0,0,1,.028-.16,3.106,3.106,0,0,1,.656-.623c2.175-1.156,4.134-2.655,6.239-3.92.317-.19.629-.393.961-.551a1.745,1.745,0,0,1,2.718,1.57C102.287,52.9,102.252,54.442,102.252,55.982Z"/><path class="cls-1" d="M87.507,111.745a.494.494,0,0,1-.413-.67,4.054,4.054,0,0,1,4.244-2.129,8.2,8.2,0,0,0,1.907.6c.2.017.411.237.576.4.383.386.746.792,1.105,1.2.072.082.154.265.117.312a.741.741,0,0,1-.4.287,5.227,5.227,0,0,1-.912.051C92.819,111.805,88.666,111.761,87.507,111.745Z"/><path class="cls-1" d="M54.48,59.7c.129-.412.244-.808.385-1.194a.28.28,0,0,1,.253-.081,1.438,1.438,0,0,1,.416,1.442c-.2.505-.543.82-.671.631A5.75,5.75,0,0,1,54.48,59.7Z"/><path class="cls-1" d="M86.935,18.533a1.006,1.006,0,0,1-.082.331,2.927,2.927,0,0,1-1.619,1.122,1.706,1.706,0,0,1-.659-.082,1.692,1.692,0,0,1,.338-.413c.563-.357,1.142-.691,1.725-1.016C86.705,18.438,86.834,18.511,86.935,18.533Z"/><path class="cls-1" d="M94.325,58.4a1.551,1.551,0,0,1-.147.326,2.182,2.182,0,0,1-.409-.148c.042-.1.08-.273.124-.274A1.615,1.615,0,0,1,94.325,58.4Z"/><path class="cls-1" d="M153.079.021c.493,0,.986.009,1.479,0a1.442,1.442,0,0,1,1.413.661c.084.14.3.209.456.3.247.139.534.116.63-.134.249-.645.764-.748,1.34-.759.861-.016,1.722-.023,2.583-.013a1.891,1.891,0,0,1,.508.156q-.187.189-.376.377c-.087.086-.207.156-.252.259-.032.074.019.269.06.277a1.665,1.665,0,0,0,.715.061,6.162,6.162,0,0,0,1.9-.655A3.342,3.342,0,0,1,165.622.02c.616.007,1.235.039,1.848-.006,1.769-.129,2.564.605,2.45,2.549-.075,1.29-.012,2.587-.012,3.881q0,1.2,0,2.4c0,.308-.017.617,0,.924a1.776,1.776,0,0,1-1.893,1.816c-.429-.029-.862,0-1.294,0h-12.2q-7.2,0-14.41,0a16.064,16.064,0,0,1-1.657-.073.441.441,0,0,1-.375-.54c.073-.416.2-.821.3-1.233.009-.041-.06-.139-.1-.141-.1-.005-.274-.007-.3.047-.236.495-.418,1.017-.68,1.5a.868.868,0,0,1-.559.394,11.3,11.3,0,0,1-1.474.05c-1.417.006-2.834.006-4.251.009-.468,0-.957.161-1.022.618-.1.726-.854.854-1.1,1.416-.26.6-.911.586-1.392.808a43.741,43.741,0,0,1-4.237,1.781,6.286,6.286,0,0,0-1.273.73c-.058.037-.05.2-.043.307,0,.043.1.125.13.115.519-.171,1.042-.338,1.55-.539.335-.133.633-.372.975-.469a15.486,15.486,0,0,0,3.773-1.428,2.283,2.283,0,0,1,.89-.229.462.462,0,0,1,.526.405,11.6,11.6,0,0,1,.09,1.467c.008,3.019,0,6.038,0,9.057,0,.369.028.742,0,1.108a1.61,1.61,0,0,0,.9,1.673c2.148,1.2,4.145,2.641,6.233,3.937,2.245,1.392,4.524,2.737,6.716,4.215.2.137.406.275.6.421.181.133.184.363.009.422a9.69,9.69,0,0,1-1.226.39,2.467,2.467,0,0,1-1.782-.247c-.629-.361-.784-.235-.717.516a12.787,12.787,0,0,0,.233,1.26c.035.179.155.39.1.53-.5,1.234.336,2.24.554,3.347.025.127.261.214.4.319.071-.154.2-.308.2-.463a9.331,9.331,0,0,0-.293-3.824.515.515,0,0,1,.458-.665,9.264,9.264,0,0,0,2.9-.411,1.52,1.52,0,0,1,1.247.179c.322.18.664.328.975.524q5.005,3.138,10,6.292a3.683,3.683,0,0,1,.726.559.472.472,0,0,1,0,.452c-1.239.8-2.493,1.576-3.75,2.347a1.494,1.494,0,0,1-.673.286,6.366,6.366,0,0,0-2.635.738c-.213.1-.58-.069-.857-.17-.337-.122-.648-.318-.985-.446-.074-.029-.237.066-.3.149a.382.382,0,0,0-.065.327,2.025,2.025,0,0,0,.412.6c.364.328.794.586,1.135.933.137.141.231.54.138.652a17.716,17.716,0,0,1-1.519,1.594c-.1.091-.353.071-.51.022a2.86,2.86,0,0,1-.658-.331c-1.3-.82-2.605-1.639-3.9-2.475a5.082,5.082,0,0,1-1.008-.8,1.967,1.967,0,0,0-1.234-.723,1.806,1.806,0,0,1-.664-.311c-1.876-1.179-3.745-2.368-5.62-3.549a1.306,1.306,0,0,1-.652-1.414,10.193,10.193,0,0,1,.34-1.423c.187-.582.435-1.145.634-1.723.018-.053-.153-.243-.189-.231a14.149,14.149,0,0,0-1.724.646c-.419.207-1.12.038-1.23.59-.068.345.291.771.448,1.164a1.255,1.255,0,0,1,.074.355.189.189,0,0,1-.066.153c-.1.056-.253.154-.313.118q-1.419-.858-2.814-1.752a.311.311,0,0,1,.081-.557,2.632,2.632,0,0,1,.88-.232,1.342,1.342,0,0,0,1.391-.975,8.445,8.445,0,0,1,.467-.782c.019-.033-.018-.114-.051-.155s-.1-.067-.131-.052a1.362,1.362,0,0,0-.3.2,2.9,2.9,0,0,1-2.033.746c-.861.022-1.724-.01-2.585,0a2.46,2.46,0,0,1-1.38-.444c-1.923-1.22-3.856-2.423-5.787-3.632-.626-.392-1.261-.769-1.877-1.176a1.947,1.947,0,0,1-.969-1.867c.019-.245,0-.493,0-.739q0-14.6,0-29.2a11.062,11.062,0,0,1,.024-1.108A1.607,1.607,0,0,1,119.081.054a8.894,8.894,0,0,1,1.108-.031C123.453.046,147.782.021,153.079.021Zm-27.723,3.5c-.072.13-.238.287-.216.41.138.777.324,1.545.482,2.319a14.1,14.1,0,0,0,2.032,4.654.212.212,0,0,0,.16.078.153.153,0,0,0,.112-.1,1.152,1.152,0,0,0-.029-.347c-.6-2.166-1.191-4.331-1.8-6.492a.962.962,0,0,0-.341-.406A1.25,1.25,0,0,0,125.356,3.519ZM133.2,38.11a1.83,1.83,0,0,0,.45-.258A3.424,3.424,0,0,1,135.6,36.6c.152-.022.3-.2.411-.338.068-.081.132-.268.09-.318a.958.958,0,0,0-.406-.274.438.438,0,0,0-.352.034c-.733.531-1.463,1.068-2.172,1.63a.8.8,0,0,0-.191.486C132.972,37.9,133.1,37.993,133.2,38.11Zm9.721,8.94c-.077-.435-.144-.977-.281-1.5-.046-.177-.27-.308-.412-.46a1.713,1.713,0,0,0-.108.513c.053.528.317,1.042.055,1.589a.412.412,0,0,0,.07.337.386.386,0,0,0,.284.157.415.415,0,0,0,.265-.187A1.857,1.857,0,0,0,142.919,47.05Zm4.527-38.063c-.4.033-.838-.017-1.039.462a.137.137,0,0,0,.053.122c.438.231.781-.046,1.135-.233.078-.041.117-.156.174-.237Zm1.028-4.036c-.094-.208-.184-.423-.29-.63a.17.17,0,0,0-.161-.041.855.855,0,0,0-.241.207.214.214,0,0,0-.007.176,3.782,3.782,0,0,0,.227.492,1.8,1.8,0,0,0,.228.269Zm-11.98,29.114c-.083-.081-.194-.278-.3-.277a2.349,2.349,0,0,0-.636.187c.062.153.081.372.194.445A.513.513,0,0,0,136.494,34.065ZM128.38,19.85c-.107.087-.235.144-.234.2a.341.341,0,0,0,.139.266c.074.034.2-.041.3-.068Zm.577-17.914a1.616,1.616,0,0,0-.063-.26.175.175,0,0,0-.146.006.547.547,0,0,0-.19.237c-.014.056.09.14.14.212ZM144.936,40.2c-.062-.1-.105-.226-.194-.278a.294.294,0,0,0-.283.04c-.119.191,0,.329.187.365C144.731,40.344,144.839,40.246,144.936,40.2Z"/><path class="cls-1" d="M166.178,85.164a1.111,1.111,0,0,0,1.108.736,5.887,5.887,0,0,0,1.1-.074c.409-.089.811-.518,1.21-.281.492.292.305.886.308,1.359.014,2.217.009,4.433,0,6.65a8.276,8.276,0,0,1-.068,1.1.449.449,0,0,1-.514.413,3.875,3.875,0,0,1-3.011-1.444,8.049,8.049,0,0,0-1.5-1.343c-.037-.032-.158-.036-.174-.012-.055.089-.142.228-.109.29.555,1.024,1.11,2.048,1.705,3.05.176.3.437.117.587-.085.215-.289.529-.482.71-.123a1.514,1.514,0,0,0,1.509.813c.728.04.826.186.856.9.013.307.007.615.007.923q0,5.542,0,11.084a9.912,9.912,0,0,1-.044,1.291,1.639,1.639,0,0,1-1.343,1.342,6.15,6.15,0,0,1-.921.041q-6.927-.022-13.854-.055a2.981,2.981,0,0,1-.543-.081c-.037-.007-.095-.071-.089-.093a.237.237,0,0,1,.1-.146c.323-.136.6-.474,1.012-.252.958.517,1.778-.042,2.626-.349.1-.035.16-.181.226-.283a.464.464,0,0,0-.078-.658c-.112-.091-.391-.15-.467-.082-.5.448-1.167.37-1.711.618-1.046.475-2.211.107-3.255.54-.109.046-.33-.112-.47-.215-.9-.666-.99-.7-1.6.029a1.011,1.011,0,0,1-1.11.328,6,6,0,0,1-2.971-1.359c-1.3-1.032-2.55-2.117-3.845-3.151a2.7,2.7,0,0,0-.84-.315c-.047-.016-.148.009-.164.044-.042.089-.1.245-.065.285.928.96,1.62,2.154,2.863,2.806a2,2,0,0,1,.727.8,2.73,2.73,0,0,0,1.04,1.247c.159.084.115.236-.06.238-1.224.012-2.45.029-3.674.007-.235,0-.189-.254-.122-.426.088-.229.206-.449.271-.684.017-.064-.118-.247-.168-.242a17.688,17.688,0,0,1-1.805.216,12.578,12.578,0,0,1-1.63-.236,1.271,1.271,0,0,0-.55.028,11.922,11.922,0,0,1-3.109.31c-.488.031-.971.135-1.457.2-.425.055-.851.121-1.278.138-1.591.064-1.919-.259-1.943-1.87a1.584,1.584,0,0,1,1.186-1.658c.7-.227,1.416-.4,2.114-.625a.43.43,0,0,0,.288-.582.474.474,0,0,0-.551-.373c-.709.192-1.407.431-2.1.674a2.462,2.462,0,0,1-1.784.093,2.591,2.591,0,0,0-.915-.058c-.09,0-.179.094-.268.144.046.041.085.1.139.118a3.279,3.279,0,0,1,.689.241c.7.463.8.866.582,1.715-.217.83-.376,1.675-.615,2.5a.814.814,0,0,1-.512.433,3.437,3.437,0,0,1-.916.051q-3.418,0-6.836,0a9.14,9.14,0,0,1-.922-.023,1.7,1.7,0,0,1-1.5-1.4,4.645,4.645,0,0,1-.04-.737q0-3.694,0-7.39a2.983,2.983,0,0,1,.063-.733,1.539,1.539,0,0,1,1.251-1.211,8.119,8.119,0,0,1,1.473-.062c3.755.015,7.511.05,11.267.051,3.14,0,6.28-.042,9.42-.052,3.322-.009,6.644,0,9.966,0,.493,0,.986-.01,1.478.016a.9.9,0,0,1,.961.913c.058.426.045.862.117,1.285a1.48,1.48,0,0,0,.644,1.072.49.49,0,0,0,.351.054c.233-.065.2-.234.1-.4a.7.7,0,0,0-.108-.149c-.776-.739-.4-1.584-.2-2.4a.566.566,0,0,1,.406-.312c.486-.06.98-.058,1.471-.084,1.035-.054,1.334-.321,1.348-1.326.023-1.724,0-3.449.014-5.173.008-.733.08-1.466.123-2.2a20.9,20.9,0,0,1,1.737-1.333c.663-.412,1.2-1.083,2.1-1.071.283,0,.415-.24.439-.5a1.78,1.78,0,0,1,.809-1.191c.906-.728,1.859-1.4,2.8-2.08a1.892,1.892,0,0,1,.436-.211Zm-8.55,20.573a4.555,4.555,0,0,1-.676-.056c-.665-.176-.886,0-.781.7a3.643,3.643,0,0,0,.325,1.016c.056.116.292.176.455.2.077.01.227-.116.254-.208.154-.516.342-.96.479-1.482a1.607,1.607,0,0,0,1.461-.34.6.6,0,0,0,.115-.294c0-.02-.09-.082-.144-.091A1.322,1.322,0,0,0,157.628,105.737Zm4.264-1.222c-.064.288-.18.5-.125.635a.893.893,0,0,0,.441.5.949.949,0,0,0,.659-.13.44.44,0,0,0,.179-.625,2.635,2.635,0,0,1-.567-1.32.47.47,0,0,0-.368-.539c-.219-.046-.424.31-.374.7C161.776,104.037,161.854,104.328,161.892,104.515Zm-16.722-2.157a1.3,1.3,0,0,0,.25-.387,1.043,1.043,0,0,0-.3-1c-.174-.174-.4-.371-.624-.166a1.265,1.265,0,0,0-.456.724C144.019,101.9,144.694,102.351,145.17,102.358Zm-19.165,4.33c-.028-.062-.038-.138-.08-.166a2.617,2.617,0,0,0-1.822-.624c-.088.012-.172.111-.238.187-.018.019.023.128.064.155a3.612,3.612,0,0,0,1.839.615C125.845,106.859,125.927,106.746,126.005,106.688Zm15.237-3.609c.354-.046.763-.577.666-.9a.388.388,0,0,0-.257-.207c-.1-.022-.278.014-.311.08a4.137,4.137,0,0,0-.3.8C141.03,102.907,141.172,103,141.242,103.079Zm25.113,2.255c-.027-.041-.045-.1-.083-.122a.753.753,0,0,0-.965.193c-.036.04-.067.134-.046.166.058.087.135.2.224.22a.812.812,0,0,0,.806-.289C166.33,105.463,166.335,105.391,166.355,105.334Z"/><path class="cls-1" d="M141.864,74.016q-2.562-1.646-5.16-3.234a2.963,2.963,0,0,1-1.436-1.829c-.108-.413-.328-.8-.443-1.209a.9.9,0,0,1,.9-1.12.817.817,0,0,1,.185,0c.959.188,1.92.366,2.874.575a1.458,1.458,0,0,1,.926.834.785.785,0,0,0,.946.382c.346-.087.679-.338,1.05-.093a1.709,1.709,0,0,1,.811,1.176,1.911,1.911,0,0,0,.332.618c.023.036.118.048.174.038s.115-.062.121-.1c.046-.36.052-.727.128-1.08a2.151,2.151,0,0,1,.326-.854,2.576,2.576,0,0,0,.478-2.362,3.763,3.763,0,0,1,.944-2.9.462.462,0,0,1,.654-.123q1.57.967,3.134,1.948a1.413,1.413,0,0,1,.762,1.372,1.863,1.863,0,0,0,.371,1.39.428.428,0,0,0,.308.148.347.347,0,0,0,.264-.19c.067-.3.082-.605.127-.907.049-.331.231-.458.476-.3.669.427,6.334,3.949,7.742,4.823a1.854,1.854,0,0,1,.406.371.552.552,0,0,1,.075.674,2.064,2.064,0,0,1-1.79,1.137c-1.038.055-2.083-.018-3.124-.057a7.487,7.487,0,0,0-.907-.127c-1.327.128-1.864-.673-2.182-1.771a7.615,7.615,0,0,0-.352-1.026c-.114-.252-.632-.236-.792,0a1.119,1.119,0,0,0,.108,1.619c.6.6.6.6.045,1.28-.116.143-.292.275-.323.434-.023.119.137.28.234.408a.194.194,0,0,0,.175.034,3.028,3.028,0,0,1,2.28.067c.419.187,1.166-.141,1.315.391a2.466,2.466,0,0,1-.378,1.9,2.513,2.513,0,0,1-.368.412,1.846,1.846,0,0,0-.48,1.169,7.241,7.241,0,0,1-.24,1.436c-.28.859-.619.985-1.347.531-2.349-1.464-4.688-2.945-7.029-4.422Zm1.345.388c.091-.066.219-.114.261-.2s-.024-.2-.042-.306c-.062.063-.157.116-.177.19-.03.108-.142.2-.141.322Zm2.914.387c.621-.185,1.262-.359,1.886-.581a.475.475,0,0,0,.164-.435c-.05-.141-.276-.342-.387-.32a17.46,17.46,0,0,0-1.923.487c-.1.031-.206.311-.17.436C145.734,74.52,145.931,74.618,146.123,74.791Z"/><path class="cls-1" d="M169.863,83.425c-.006.335-.238.474-.458.279a6.618,6.618,0,0,0-2.582-1.368c-.6-.176-.716-.483-.629-1.15.046-.36.116-.718.14-1.079.006-.094-.106-.219-.195-.291-.2-.158-.372-.012-.451.136a4.193,4.193,0,0,0-.646,2.268c.021.307.061.614.056.92a2.37,2.37,0,0,1-.874,1.946c-1.059.841-2.081,1.728-3.139,2.57-.865.688-1.754,1.347-2.646,2-.407.3-.737.156-.752-.317-.025-.8-.017-1.6-.031-2.4-.059-3.523.47-2.6-2.439-4.5-.566-.37-1.154-.707-1.725-1.07-.615-.391-.6-.5-.008-1.143a.849.849,0,0,0,.244-.626c-.419-1.8.546-3.227,1.362-4.628a1.859,1.859,0,0,1,3.008-.356c.282.236.522.526.819.738a.561.561,0,0,0,.5.008c.134-.074.3-.318.268-.425-.357-1.073.509-1.691.9-2.48.03-.061.227-.08.331-.055a1.734,1.734,0,0,1,.508.213c1.715,1.087,3.449,2.144,5.123,3.29a21.442,21.442,0,0,0,1.889,1.128,2.411,2.411,0,0,1,1.485,2.519C169.859,80.1,169.877,82.687,169.863,83.425Zm-8.909-3.449a.909.909,0,0,0-.527-1.029c-.092-.042-.285-.049-.318,0-.085.128-.184.33-.137.447.176.446.346.54.807.692a3.263,3.263,0,0,0,.52,1.608c.1.13.154.4.382.243a.521.521,0,0,0,.192-.444A3.189,3.189,0,0,0,160.954,79.976Z"/><path class="cls-1" d="M161.311,50.487c-.047.727-.075,5.89-.02,7.355a2.355,2.355,0,0,1-.3,1.049,1.649,1.649,0,0,1-2.182.781,7.359,7.359,0,0,1-.976-.52q-3.357-2.114-6.705-4.245a6.475,6.475,0,0,1-.891-.644c-.1-.1-.185-.395-.121-.471.611-.733.62-1.723,1.126-2.507a2.691,2.691,0,0,1,1.658-1.347c2.26-.543,4.055-1.969,5.941-3.209a.874.874,0,0,1,1.009-.031,2.478,2.478,0,0,1,1.462,2.371C161.309,49.5,161.311,49.931,161.311,50.487Zm-7.582,3.985c.766.157,1.4-.3,2.094-.455.053-.012.1-.071.143-.108a1.64,1.64,0,0,0-.26-.235,2.154,2.154,0,0,0-2.514.287c-.082.059-.105.206-.138.317,0,.013.093.071.149.085C153.377,54.406,153.553,54.437,153.729,54.472Zm5.959-.948a1.6,1.6,0,0,0,.267.114c.029.007.077-.063.116-.1-.036-.038-.078-.112-.107-.108A1.542,1.542,0,0,0,159.688,53.524Z"/><path class="cls-1" d="M138.122,65.752a4.56,4.56,0,0,0-2.719,0,.87.87,0,0,1-.985-.3,5.9,5.9,0,0,1-1.546-2.883,1.362,1.362,0,0,0-.675-1.032,1.539,1.539,0,0,1-.719-1.03,5.392,5.392,0,0,0-.976-1.966.547.547,0,0,1,.073-.821,19.665,19.665,0,0,1,1.919-1.419,2.569,2.569,0,0,1,3.2.068c1.782,1.3,3.722,2.391,5.589,3.579a5.29,5.29,0,0,1,.867.67.54.54,0,0,1,.107.487c-.182.381-.441.725-.648,1.1-.037.067.011.265.056.277a.383.383,0,0,0,.324-.049c.3-.3.584-.624.861-.951a.431.431,0,0,1,.639-.048c.125.088.269.291.246.413a1.356,1.356,0,0,1-.318.651,2.049,2.049,0,0,0-.44,2.062c.046.179.134.347.168.527a1,1,0,0,1-.853,1.2,9.218,9.218,0,0,1-1.1.008A30.058,30.058,0,0,1,138.122,65.752Z"/><path class="cls-1" d="M126.233,60.921c0-.429,0-.859,0-1.288-.012-1.677.067-1.336,1.472-1.8a.75.75,0,0,1,.916.437,8.663,8.663,0,0,0,1.365,2.366,3.267,3.267,0,0,1,.387,1.2c.135.718.245,1.444.308,2.171a.779.779,0,0,0,.6.78,5.1,5.1,0,0,1,1.261.718c.176.13.378.433.341.609-.169.805.3,1.414.536,2.1.013.036-.028.106-.064.14s-.109.081-.148.069a2.185,2.185,0,0,1-.5-.2c-1.717-1.071-3.409-2.181-5.148-3.212a2.489,2.489,0,0,1-1.329-2.426c.019-.552,0-1.1,0-1.657Z"/><path class="cls-1" d="M126.244,53.789a1.807,1.807,0,0,1,1.043-1.605,1.334,1.334,0,0,1,1.393-.071c.943.562,1.891,1.116,2.822,1.7a.422.422,0,0,1,.1.635,7.34,7.34,0,0,0-.806,1.213,1.416,1.416,0,0,1-1.708,1,3.633,3.633,0,0,0-2.328.265c-.2.107-.482-.128-.489-.39C126.259,56.05,126.226,54.216,126.244,53.789Z"/><path class="cls-1" d="M137.637,111.418c.24.015.48.026.719.049.055,0,.105.054.158.083-.08.048-.158.134-.24.137-.419.015-.839.012-1.259.006-.054,0-.107-.05-.161-.076.081-.058.156-.15.246-.167A3.982,3.982,0,0,1,137.637,111.418Z"/><path class="cls-1" d="M166.174,84.884c-.052-.109-.048-.189-.1-.3-.093-.215-.251-.437.022-.637a.212.212,0,0,1,.161-.034c.269.081.349.35.2.744a.734.734,0,0,1-.218.262Z"/><path class="cls-1" d="M135.286,111.705l-.323-.1a1.3,1.3,0,0,1,.374-.158c.086-.008.183.094.275.147Z"/></g></g></g></g></g></svg>