<svg xmlns="http://www.w3.org/2000/svg" width="44.303" height="23.407" viewBox="0 0 44.303 23.407"><defs><style>.cls-1{fill:#fff;}</style></defs><title>flecha-esp</title><g id="Layer_2" data-name="Layer 2"><g id="CONTACTO"><g id="MAPA_BACKGROUND" data-name="MAPA BACKGROUND"><g id="ESP"><g id="FLECHA"><path class="cls-1" d="M41.378,5.1a.086.086,0,0,1-.038.051h0l-.008.018-.012.008a.119.119,0,0,1-.052.064h0a.205.205,0,0,1-.069.084.241.241,0,0,1-.071.086.211.211,0,0,1-.07.089.1.1,0,0,1-.044.053L41,5.575l-.011,0a.165.165,0,0,1-.054.069.208.208,0,0,1-.075.087.185.185,0,0,1-.076.082l-.01.017-.009,0a.261.261,0,0,1-.088.1.3.3,0,0,1-.109.1.216.216,0,0,1-.078.079c-.011.018-.02.026-.027.023a.211.211,0,0,1-.084.085.064.064,0,0,1-.016.019l-.006,0a.312.312,0,0,1-.088.092.207.207,0,0,1-.081.085.2.2,0,0,1-.079.083l-.012.018-.011,0h0a7.5,7.5,0,0,1-.647.65.124.124,0,0,1-.05.055.084.084,0,0,1-.033.033c-.085.089-.17.176-.256.264-.156.258-.256.356-.405.391.144-.17.27-.305.4-.431l.135-.16a.185.185,0,0,1,.053-.061c.037-.081.067-.157.049-.192a.425.425,0,0,1,.137-.219c.2-.2.388-.4.574-.6l.005-.007a.485.485,0,0,1,.039-.061h0a.089.089,0,0,1,.043-.063h0c.061-.037.119-.134.178-.182a.243.243,0,0,1,.068-.086.126.126,0,0,1,.045-.055.186.186,0,0,1,.069-.082.189.189,0,0,1,.068-.08.208.208,0,0,1,.066-.081.2.2,0,0,1,.068-.076.173.173,0,0,1,.065-.077.178.178,0,0,1,.066-.076h0c.025-.035.049-.07.072-.1-.023-.059.068-.155.046-.2h0l-.058.05a.058.058,0,0,1-.03.043h0l-.008.014a.264.264,0,0,1-.073.076.137.137,0,0,1-.061.067.22.22,0,0,1-.088.093c-.008.035-.036.051-.062.07-.008.037-.037.053-.063.072a.162.162,0,0,1-.062.072.079.079,0,0,1-.038.049.207.207,0,0,1-.067.073h0a.232.232,0,0,1-.065.076.2.2,0,0,1-.065.078.094.094,0,0,1-.041.048c-.006.013-.013.021-.021.022a.117.117,0,0,1-.049.055c-.007.014-.015.022-.023.022a.11.11,0,0,1-.047.052.046.046,0,0,1-.027.027c-.145.185-.307.326-.468.508-.022.025-.039.022-.049.012h0l-.06.039a.213.213,0,0,1-.083.089c-.04.035-.007-.024-.015-.03h0a1.533,1.533,0,0,0-.353.313,1.617,1.617,0,0,1-.419.443c-.035-.01.016-.1.025-.145h0l-.085.061a.743.743,0,0,1-.131.136.158.158,0,0,1-.049.055l-.005.006a.27.27,0,0,1-.077.085h0A.944.944,0,0,1,38,7.881a.278.278,0,0,1-.084.082.182.182,0,0,1-.053.059.114.114,0,0,1-.05.055c-.01.017-.019.025-.026.023a1.393,1.393,0,0,1-.263.239l-.012.016-.009,0a.189.189,0,0,1-.1.078c-.011.016-.02.023-.026.02a.264.264,0,0,1-.093.086.226.226,0,0,1-.086.078h0a.216.216,0,0,1-.086.073h0c-.029.035-.059.068-.083.073s-.024.024-.032.022a.3.3,0,0,1-.122.1.368.368,0,0,1-.119.1.173.173,0,0,1-.086.071l-.012.015h-.008a.7.7,0,0,1-.187.161.177.177,0,0,1-.054.055.122.122,0,0,1-.053.053l-.013.017-.01,0a.275.275,0,0,1-.1.081c-.031.039-.042.038-.044.02h0l-.012.009,0,0a.316.316,0,0,1-.16.1h0c-.08.1-.119.075-.185.129-.064.072-.093.049-.149.1-.065.069-.1.049-.154.1s-.068.057-.079.041h0l-.011,0L35.378,10h0a.109.109,0,0,1-.075.057.317.317,0,0,0-.112.069l0,0a2.744,2.744,0,0,1-.343.22.064.064,0,0,1-.028.031c-.04.048-.055.046-.064.032h0c-.01.01-.017.013-.019.008a.708.708,0,0,1-.21.149h0c-.049.056-.078.05-.118.078h0l0,0a.288.288,0,0,1-.114.076q-.021.019-.033.018l-.139.11,0,0h0a.153.153,0,0,1-.049.049.1.1,0,0,1-.05.045.092.092,0,0,1-.017.013H34l-.1.071h0a.059.059,0,0,1-.024.027.281.281,0,0,1-.108.071c-.016.014-.027.019-.033.014l-.018.011-.015.005a.53.53,0,0,1-.168.1.309.309,0,0,0-.169.14c-.019.037-.054.039-.061.023-.016,0-.029.007-.029,0l-.088.037h0a.95.95,0,0,0-.208.159c-.012.015-.066.037-.075.02l-.1.042c-.042.043-.076.042-.115.065h0a.632.632,0,0,1-.144.083c-.035.028-.056.034-.07.027l-.234.1a.07.07,0,0,1-.033.016l-.03.02a1.116,1.116,0,0,1-.153.074.036.036,0,0,1-.024.013.509.509,0,0,1-.122.07.214.214,0,0,1-.081.048.467.467,0,0,1-.112.063.224.224,0,0,1-.077.049.29.29,0,0,1-.079.047.207.207,0,0,1-.076.047.308.308,0,0,1-.078.046.6.6,0,0,1-.145.073,1.232,1.232,0,0,1-.146.072c-.03.025-.053.034-.07.03L31,12.619l-.015.005a.413.413,0,0,1-.071.046c-.019.037-.046.033-.075.028l-.022.009-.009,0a.15.15,0,0,1-.058.053c-.019.037-.047.033-.075.027l-.016.008-.017.005-.01.009h-.006a.073.073,0,0,1-.039.043c-.034.059-.1.017-.136.055-.025.081-.114.059-.168.093-.028.076-.119.05-.167.092a.057.057,0,0,1-.029.039c-.01.047-.058.051-.1.066-.029.04-.063.062-.106.045l-.168.067a.477.477,0,0,1-.159.1.062.062,0,0,1-.033.037c0,.036.02.076-.053.107-.008.024-.02.032-.038.018l-.067.02c-.034.065-.108.065-.16.1h0a.558.558,0,0,1-.238.146c-.057.019-.109.048-.164.069a.055.055,0,0,1-.033.039h0a.456.456,0,0,1-.217.12c-.109.032-.215.082-.322.121l-.057.029a.166.166,0,0,1-.032.022.987.987,0,0,1-.213.1l0,.009h-.01a.215.215,0,0,1-.116.071l-.008.01-.013,0c-.061.055-.143.062-.207.111a.043.043,0,0,1-.035.036.019.019,0,0,1-.02.015.11.11,0,0,1-.077.052.035.035,0,0,1-.03.016.2.2,0,0,1-.1.07c-.027.062-.086.058-.134.078a.033.033,0,0,1-.012.011h-.007a.193.193,0,0,1-.112.069l-.006.008h-.009a2.346,2.346,0,0,1-.524.228l-.006.01h-.012a.354.354,0,0,1-.143.084l-.07.061c-.024.039,0,.072-.012.111-.048,0-.04-.035-.044-.06l-.017-.008-.121.05A.177.177,0,0,1,26,15.41a.3.3,0,0,1-.033.021,1.088,1.088,0,0,1-.218.1l-.007.011-.012,0c-.047.057-.114.055-.172.078-.125.052-.254.092-.377.153a.17.17,0,0,1-.092.067.083.083,0,0,1-.067.047A.02.02,0,0,1,25,15.9a.052.052,0,0,1-.04.037.065.065,0,0,1-.055.027.44.44,0,0,1-.209.1.04.04,0,0,1-.031.015l-.014.014a.278.278,0,0,1-.118.061.02.02,0,0,1-.024.013.175.175,0,0,1-.105.062.027.027,0,0,1-.027.014.267.267,0,0,1-.135.075l-.006.01-.011,0a.046.046,0,0,1-.044.037l-.057.026c-.053.076-.127.059-.2.069h0a.253.253,0,0,1-.135.049.05.05,0,0,1-.059.02h0l-.012.005a.149.149,0,0,1-.02.015.585.585,0,0,1-.15.075.383.383,0,0,1-.165.082l0,.009h-.011a.207.207,0,0,1-.111.063.019.019,0,0,1-.023.012.2.2,0,0,1-.1.062.151.151,0,0,1-.093.062.132.132,0,0,1-.095.06.016.016,0,0,1-.021.012.453.453,0,0,1-.206.095.019.019,0,0,1-.023.012.3.3,0,0,1-.136.073l-.013.013a.252.252,0,0,1-.112.059.248.248,0,0,1-.126.071.142.142,0,0,1-.094.06l-.01.011a.169.169,0,0,1-.083.045.038.038,0,0,1-.029.015c-.024.052-.081.056-.13.07l-.007.01h-.013a.18.18,0,0,1-.105.06l-.011.013a.183.183,0,0,1-.081.044.026.026,0,0,1-.027.013.66.66,0,0,1-.23.105l-.006.008h-.01a.5.5,0,0,1-.175.084l-.009.01h-.013a1.8,1.8,0,0,1-.334.136.1.1,0,0,1-.034.023.467.467,0,0,1-.154.069.122.122,0,0,1-.114.037h0l-.008,0a.219.219,0,0,1-.159.051h0a.04.04,0,0,1-.044.015.093.093,0,0,1-.058.018.125.125,0,0,1-.03.021.888.888,0,0,1-.166.075.188.188,0,0,1-.083.054l-.03.009c-.085.025-.172.055-.262.073a.339.339,0,0,1-.072.012h0a.206.206,0,0,1-.129.015.106.106,0,0,1-.1,0c-.024.009-.048.019-.071,0l-.323.1a2.069,2.069,0,0,1-.5.172l-.056.022c-.011.025,0,.059-.036.074a1.2,1.2,0,0,1-.268.088l-.084.035a.1.1,0,0,0-.017.036h0c-.03.063-.105.065-.166.086a.059.059,0,0,1-.05.022l-.048.048c0,.016,0,.029-.016.037-.026.051-.083.045-.136.046h0l0,.008-.009,0a.445.445,0,0,1-.221.048.079.079,0,0,1-.073,0,.315.315,0,0,1-.105.02.065.065,0,0,1-.031,0,.019.019,0,0,1-.025.007.4.4,0,0,1-.2.047h0l-.008.006-.011,0-.059.021c0,.009-.007.013-.018.011-.062.059-.086.148-.2.163l0,.006h-.01c-.029.051-.092.062-.15.08a.365.365,0,0,1-.147.054c-.095.025-.181.065-.278.087a.4.4,0,0,1-.062.011h0l-.119.039,0,.009h-.01a.078.078,0,0,1-.026.017l-.061.044c-.006.036-.036.026-.065.016a.052.052,0,0,1-.048-.006.194.194,0,0,1-.114.04,1.447,1.447,0,0,1-.377.109.028.028,0,0,1-.03.007h0l-.084.037a.223.223,0,0,1-.194.072h0a.119.119,0,0,1-.08.024.535.535,0,0,1-.167.045.19.19,0,0,1-.035,0c0,.007-.009.009-.019.007a.06.06,0,0,1-.05.042h0l-.057.026h0c-.012.029,0,.069-.055.079l-.031.01a.083.083,0,0,1-.081,0,.027.027,0,0,1-.028.006.17.17,0,0,1-.113.016c-.005.008-.014.01-.027,0a.214.214,0,0,1-.142.026.028.028,0,0,1-.029.006.09.09,0,0,1-.088.009h0l-.007.007-.012,0a.085.085,0,0,1-.082,0,.1.1,0,0,1-.081,0l-.086.033h0c-.047.066-.142.075-.23.091l-.058.013,0,.007-.012,0a.358.358,0,0,1-.2.075h0l-.007,0a.047.047,0,0,1-.054.026l-.02,0h0a.049.049,0,0,1-.052-.008.262.262,0,0,1-.124-.038l-.083.026c0,.033-.034.03-.071.022a.18.18,0,0,1-.123.014h0q-.008.011-.024,0l-.188.066h0l-.051.025a.246.246,0,0,1-.146.078.13.13,0,0,1-.1.043.549.549,0,0,1-.284.1h0a.139.139,0,0,1-.1.035.077.077,0,0,1-.093.034h0a.138.138,0,0,1-.1.034.3.3,0,0,1-.248.089h0l-.009.006-.014,0a.108.108,0,0,1-.084.006.18.18,0,0,1-.1.008l-.017,0a.1.1,0,0,1-.086,0l-.082.037h0a.1.1,0,0,1-.116.05c-.128-.046-.186.011-.266.037l-.172.061-.048.024a.824.824,0,0,1-.493.135.817.817,0,0,1-.169.036l-.032,0h0c-.009.018-.03.025-.061.02h0l-.006.008-.015,0a.169.169,0,0,1-.123.009.122.122,0,0,1-.09,0c-.063.009-.1.054-.187.031l-.015.006-.019,0a.156.156,0,0,1-.089.033.4.4,0,0,1-.309.1.729.729,0,0,1-.161.032.129.129,0,0,1-.028,0,.852.852,0,0,1-.292.058.066.066,0,0,1-.058,0,.16.16,0,0,1-.089-.005.341.341,0,0,1-.124,0l-.271.078c0,.008,0,.012-.018.011-.011.041-.051.053-.117.037a.063.063,0,0,1-.06-.011.07.07,0,0,1-.055-.016.083.083,0,0,1-.056-.016.44.44,0,0,1-.11.007l-.014,0a3.365,3.365,0,0,1-.432.1h0a.391.391,0,0,1-.194.026.125.125,0,0,1-.091,0l-.072.024h0c.038.027.025.056.034.087-.1-.039-.1-.039-.059-.084a.071.071,0,0,1-.03-.015.256.256,0,0,1-.135,0h0l-.01.006-.014,0a.139.139,0,0,1-.1,0c-.006.007-.015.008-.028,0a.2.2,0,0,1-.137.013h0L6,22.2l-.014,0a.438.438,0,0,1-.174.022h0l-.008,0-.012,0a.346.346,0,0,1-.194.028.152.152,0,0,1-.1,0h0l-.01.005-.013-.005a.224.224,0,0,1-.124.006.672.672,0,0,1-.229.031.506.506,0,0,1-.163.022l-.032,0a.343.343,0,0,1-.2.025c-.094,0-.149.073-.267.033h0c-.03-.012-.06,0-.09-.008h0c-.062-.019-.1.024-.16.008h0c-.09-.013-.144.037-.232.027-.028-.012-.058,0-.087-.009h0a.885.885,0,0,0-.177-.013.366.366,0,0,0-.1,0l-.011,0-.013,0a.507.507,0,0,0-.087,0c-.046-.019-.081.006-.124,0a.134.134,0,0,0-.133.025v0c-.013.007-.017.017-.025.026s-.012.01-.025.008a.107.107,0,0,1-.08.018c-.079-.02-.131.023-.205.013l-.012,0-.013,0c-.03,0-.058,0-.088,0h0c-.045-.019-.082.007-.125,0h0c-.044-.02-.082.006-.123,0h0c-.044-.019-.081,0-.122,0-.047-.02-.088,0-.132,0a.078.078,0,0,1-.057.006c-.071-.012-.124.022-.193.012h0c-.085-.019-.147.021-.226.013-.04-.02-.08.005-.12-.006h0a.393.393,0,0,0-.084-.009.1.1,0,0,0-.048-.018c-.018-.021-.052-.01-.073-.024h0c-.024-.015-.048-.032-.073-.047l-.018-.013a.146.146,0,0,0-.042-.019l-.024,0a.263.263,0,0,0-.049,0c-.192.117-.154.12-.407-.013A.21.21,0,0,0,.872,22.3l-.025,0-.05,0c-.044-.007-.094-.006-.114.02-.088.115-.219.082-.355.041a.17.17,0,0,0-.094.02l-.06.01c-.023.014-.057.015-.081.028s-.042.042-.036.071v0c0,.013.025.024.008.037h0c-.016.016-.007.037-.013.053v0A.185.185,0,0,0,0,22.653c.008.005.01.011.005.016a.132.132,0,0,1,.043.119l0,0c.044.035.026.09.083.125l0,0a.028.028,0,0,1,.012.035s-.005,0-.006.01,0,.013.013.019.016.01.012.019a.259.259,0,0,1,.047.09.171.171,0,0,0,.051.045l.018.014a.275.275,0,0,0,.041.024l.022.009.044.019a.177.177,0,0,0,.046,0,.19.19,0,0,1,.113,0h0c.019.012.042.011.062.022l.017.014.029.031a.187.187,0,0,0,.035.028.437.437,0,0,0,.062.017.09.09,0,0,0,.055.027l-.005,0c.082.048.145-.027.225.007.048.024.092-.014.14.016l0,0c.031.01.061,0,.091.014h0c.06.034.107-.021.167.01h0c.061.029.107-.023.167.005h0c.062.028.109-.02.17,0h0c.066.033.115-.017.178,0l.012-.007.015.007c.047.022.085-.015.131.008l.017-.006.021,0c.045.018.081-.018.128.007h0c.091.024.153-.037.242-.02.064.033.109-.021.17,0h0a.077.077,0,0,0,.053.01c.051,0,.091-.036.152-.016h0c.048.021.085-.013.133,0H3c.065.024.118-.02.184.008.094,0,.161-.056.264-.039.031.009.042.046.081.043a.05.05,0,0,0,.046.015c.052-.006.092-.037.155-.021h0c.052.02.091-.013.141,0l.011,0a.423.423,0,0,1,.238-.058h0a.208.208,0,0,0,.064.016l.014-.006.017,0c.048.015.081-.021.129,0h0a.378.378,0,0,0,.106,0l.011-.007.015.006c.145,0,.24-.079.386-.074h0c.05.018.085-.015.133,0h0a.218.218,0,0,0,.11,0l.008-.006.012,0c.055.016.094-.014.145-.01l.01-.006.013,0a.166.166,0,0,1,.132-.006l.072-.016a.625.625,0,0,1,.192-.04.169.169,0,0,1,.045,0l.016-.008h.021a.338.338,0,0,1,.137-.022l.026,0a.629.629,0,0,1,.217-.034h0l0-.007.012,0a.11.11,0,0,1,.095,0,.174.174,0,0,1,.106,0h0l.011-.006.014.006a.061.061,0,0,1,.057.006c.113,0,.186-.065.3-.06l.037-.006a2.022,2.022,0,0,1,.48-.124l.014-.007H7.3l.135-.049a.037.037,0,0,1,.039-.006h0a.051.051,0,0,1,.055.008.176.176,0,0,1,.091,0h0c.074,0,.106-.048.172-.059l.009-.008h.015c.009-.044.06-.043.116-.036h0c.088,0,.161-.032.252-.023l.014-.007h.02a.318.318,0,0,1,.171-.033h0l.006-.006.012,0a.381.381,0,0,1,.169-.029h0l.084-.027c0-.031.036-.032.077-.025h0l.035-.006c.053-.007.088-.041.154-.027a.131.131,0,0,1,.09,0,.183.183,0,0,1,.1-.007h0l.009-.006.014,0,.064-.023c.03-.049.1-.06.179-.063h0l.127-.037.1-.035,0-.009.016,0c0-.018.018-.022.045-.013h0a1.255,1.255,0,0,1,.252-.066h0a.388.388,0,0,1,.159-.023l.062-.016a.712.712,0,0,1,.247-.063h0l.131-.043a.711.711,0,0,1,.26-.069.361.361,0,0,1,.19-.067h0l.006,0c.007-.017.026-.024.056-.02h0l.005,0c0-.017.02-.021.046-.013h0a.13.13,0,0,1,.086-.01c.2-.044.352-.13.539-.182A.181.181,0,0,1,11.8,21.8a.644.644,0,0,0,.2-.032.156.156,0,0,1,.044-.007.077.077,0,0,1,.065-.024.094.094,0,0,1,.078-.028.048.048,0,0,1,.052.007.1.1,0,0,1,.051.007,1.1,1.1,0,0,0,.212-.065.135.135,0,0,1,.106,0l.139-.03a.189.189,0,0,1,.07-.015.431.431,0,0,1,.128-.047h0c.009-.017.028-.024.058-.021h0a.48.48,0,0,1,.212-.076h0a.156.156,0,0,1,.077-.025.081.081,0,0,1,.079-.008c.046-.01.079-.041.139-.03l.061-.013.006-.009.015,0c.014-.031.065-.043.1-.066h0c.015-.038.077-.046.124-.061a2.6,2.6,0,0,1,.347-.1h0l.007,0,.011,0a.351.351,0,0,1,.141-.03h0l.054-.016a4.051,4.051,0,0,1,.546-.176l.058-.017a.366.366,0,0,1,.173-.044h0a.065.065,0,0,1,.047-.012.189.189,0,0,1,.107-.019l.011-.006h.014a.411.411,0,0,1,.106-.026.111.111,0,0,1,.026,0l.013-.006H15.5l.572-.206.007-.008.014,0h0a.159.159,0,0,1,.15-.057h0l.067-.006a.069.069,0,0,1,.035,0c.249-.083.5-.162.733-.26a.137.137,0,0,1,.071-.028.23.23,0,0,1,.058-.031,1.77,1.77,0,0,1,.2-.08.036.036,0,0,1,.014-.009l.008,0a.1.1,0,0,1,.069-.042.918.918,0,0,0,.24-.072.463.463,0,0,1,.2-.043.108.108,0,0,0,.018,0c.034-.011.069-.023.1-.037a.29.29,0,0,1,.057-.025.149.149,0,0,1,.12-.044h0a.049.049,0,0,1,.04-.014.079.079,0,0,1,.078-.028h0c0-.012.012-.015.025-.009l.086-.037c.2-.086.417-.164.63-.238a.048.048,0,0,1,.065.024.425.425,0,0,0,.187-.064c-.013-.039.026-.054.059-.068.066-.025.135-.048.2-.071,0-.02.018-.025.039-.016h0l.009-.006.009,0c.031-.011.061-.034.1-.018l.075-.023h0c.047-.055.126-.059.19-.086l.01-.012c.033-.034.091-.01.127-.038.009-.036.032-.035.061-.021a.048.048,0,0,1,.024-.007c.033-.06.111-.047.161-.079q0-.032.03-.012L20.481,19c.006-.02.019-.025.038-.015h0a.031.031,0,0,1,.035-.011.15.15,0,0,1,.032-.019c.071-.039.15-.059.237-.1.009-.046.043-.029.071-.025h0l.007-.007h.01a.23.23,0,0,1,.157-.073,1.517,1.517,0,0,0,.267-.1.276.276,0,0,1,.126-.065.246.246,0,0,1,.124-.067.131.131,0,0,1,.092-.055l0-.009h.012a.128.128,0,0,1,.073-.047.051.051,0,0,1,.049-.02.275.275,0,0,1,.1-.061h0a.27.27,0,0,1,.158-.078.133.133,0,0,1,.019-.014.536.536,0,0,1,.136-.066h0a1.5,1.5,0,0,1,.357-.142.106.106,0,0,1,.02-.017.424.424,0,0,1,.136-.063c.037-.046.1-.046.149-.066.112-.043.224-.083.336-.124a.625.625,0,0,1,.224-.1c.034-.056.105-.053.156-.081.057-.068.152-.062.222-.1a.184.184,0,0,1,.1-.056l.01-.011h.015a.212.212,0,0,1,.1-.059.025.025,0,0,1,.009-.009h.006a.131.131,0,0,1,.077-.049l.008-.01h.014a.332.332,0,0,1,.137-.067l.012-.012.016-.005a.113.113,0,0,1,.1-.056l.034-.012.031-.014a.079.079,0,0,1,.025-.02.674.674,0,0,1,.131-.067h0a.087.087,0,0,1,.023-.016c.052-.034.111-.053.165-.082h0l0,0a2.192,2.192,0,0,1,.4-.16.05.05,0,0,1,.05-.021c.034-.052.092-.055.141-.076a.16.16,0,0,1,.031-.022.511.511,0,0,1,.164-.071.062.062,0,0,1,.048-.022.2.2,0,0,1,.037-.022,1.436,1.436,0,0,1,.239-.1c.021-.038.062-.045.1-.061h0a.1.1,0,0,1,.031-.025,1.256,1.256,0,0,1,.129-.06l.012-.011.015,0a.235.235,0,0,1,.134-.077l0-.008h.009a.35.35,0,0,1,.18-.09l.034-.012c.029-.016.054-.02.073,0A2.137,2.137,0,0,0,27,15.967a.374.374,0,0,1,.161-.09c.031-.055.085-.056.131-.074l.012-.011.015,0a.258.258,0,0,1,.135-.075l.013-.012.015,0a.449.449,0,0,1,.2-.1.145.145,0,0,1,.09-.039.4.4,0,0,1,.173-.089l.01-.011.013,0a.432.432,0,0,1,.173-.091l.009-.012h.013a.14.14,0,0,1,.074-.057.131.131,0,0,1,.095-.069.21.21,0,0,1,.133-.076l.014-.012.016,0h0l.033-.041c.053-.12.054-.121.2-.108h0l.1-.039.01-.012h.013a.53.53,0,0,1,.206-.11.24.24,0,0,1,.134-.077h0l.054-.028h0a.321.321,0,0,1,.177-.094.066.066,0,0,1,.017-.014h.009a.245.245,0,0,1,.14-.085l.006-.01H29.6a.149.149,0,0,1,.081-.062.112.112,0,0,1,.067-.056h0c.028-.038.041-.091.094-.106l.014-.011h.015c.013-.025.028-.03.044-.017l.01-.01h.011a.128.128,0,0,1,.023-.019.386.386,0,0,1,.15-.075l.013-.012.014,0a.092.092,0,0,1,.07-.061.16.16,0,0,1,.1-.072.351.351,0,0,1,.2-.111l.013-.012h.015a.125.125,0,0,1,.061-.04l.1-.066c.017-.035.035-.034.053-.015h0l.009,0c.034-.06.055-.12.137-.139s.176-.122.271-.166c.066-.03.131-.07.2-.106.01-.04.04-.048.068-.058a.182.182,0,0,1,.1-.072.855.855,0,0,1,.229-.132.059.059,0,0,1,.036-.042c.021-.048.063-.055.1-.076.026-.043.067-.048.1-.071.025-.043.066-.049.1-.071h0c.011-.027.025-.034.043-.021h0l.011-.005c.025-.055.069-.061.11-.076.023-.048.064-.055.1-.068l.005-.011h.01a.728.728,0,0,1,.254-.132l.013-.011.015,0a.438.438,0,0,1,.168-.1.116.116,0,0,1,.068-.057.208.208,0,0,1,.095-.077,1.082,1.082,0,0,0,.134-.2c0-.03.036-.037.052-.055a.091.091,0,0,1,.042-.051c.018-.013.043-.035.052-.014s-.02.04-.048.047a.2.2,0,0,1-.072.089c-.014.047-.07.089-.064.143.037.017.073-.03.109-.038.012-.033.027-.032.043-.015a.165.165,0,0,1,.083-.034.155.155,0,0,1,.031-.023c.047-.031.1-.048.146-.079a.1.1,0,0,1,.067-.057h0a.081.081,0,0,1,.02-.021.343.343,0,0,1,.106-.068.129.129,0,0,1,.068-.056c.074-.094.182-.072.264-.14l.027-.071c0-.035.033-.045.061-.058a.109.109,0,0,1,.07-.05l.006-.01.011,0a.13.13,0,0,1,.072-.062.106.106,0,0,1,.067-.051.111.111,0,0,1,.063-.053.115.115,0,0,1,.057-.056c.021-.039.066-.044.1-.062a.091.091,0,0,1,.021-.018.529.529,0,0,1,.138-.076.258.258,0,0,1,.093-.064.2.2,0,0,1,.077-.041l.018-.013a.65.65,0,0,1,.118-.059A.188.188,0,0,1,35.1,10.9a.177.177,0,0,1,.071-.047.223.223,0,0,1,.069-.05,2.628,2.628,0,0,0,.151-.1.308.308,0,0,1,.1-.067.224.224,0,0,1,.076-.052.21.21,0,0,1,.077-.052.2.2,0,0,1,.077-.054h0a.157.157,0,0,1,.021-.017.593.593,0,0,1,.119-.071.387.387,0,0,1,.11-.071.225.225,0,0,1,.111-.065l.015-.012.013,0a.151.151,0,0,1,.083-.057.121.121,0,0,1,.022-.014l.008,0a.4.4,0,0,1,.113-.079.245.245,0,0,1,.079-.064.256.256,0,0,1,.114-.073c.115-.1.2-.091.306-.162a.285.285,0,0,1,.114-.075.1.1,0,0,1,.018-.015h.006a.294.294,0,0,1,.122-.083.979.979,0,0,1,.178-.11.223.223,0,0,1,.079-.071.109.109,0,0,1,.048-.044l.011-.015.012-.005a.208.208,0,0,1,.093-.068l.016-.015.014,0a.22.22,0,0,1,.085-.073.228.228,0,0,1,.082-.074A.159.159,0,0,1,37.8,9.07a.059.059,0,0,1,.016-.015h.006a.194.194,0,0,1,.094-.076.335.335,0,0,1,.114-.1l.053-.057c.075-.147.076-.149.139-.129l.06-.041a.251.251,0,0,1,.084-.081A.705.705,0,0,1,38.5,8.43a.25.25,0,0,1,.084-.087.14.14,0,0,1,.055-.056.3.3,0,0,1,.083-.092.166.166,0,0,1,.054-.059.246.246,0,0,1,.086-.093A.685.685,0,0,1,39,7.9a.305.305,0,0,1,.117-.1.226.226,0,0,1,.086-.085.254.254,0,0,1,.084-.088.292.292,0,0,1,.086-.095l.158-.193,0,0a.3.3,0,0,1,.112-.117.137.137,0,0,1,.054-.059h0a.311.311,0,0,1,.115-.109.242.242,0,0,1,.084-.089,1.028,1.028,0,0,1,.166-.177.223.223,0,0,1,.083-.09.262.262,0,0,1,.082-.092.259.259,0,0,1,.082-.1.772.772,0,0,1,.131-.15.22.22,0,0,1,.08-.09.247.247,0,0,1,.08-.091.162.162,0,0,1,.08-.083l.014-.019.011,0a.207.207,0,0,1,.086-.09.346.346,0,0,1,.108-.115.306.306,0,0,1,.079-.086.229.229,0,0,1,.076-.094.227.227,0,0,1,.076-.084.23.23,0,0,1,.041-.066.121.121,0,0,1,.059-.114.2.2,0,0,1,.069-.09.2.2,0,0,1,.042-.064.092.092,0,0,1,.044-.057.069.069,0,0,1,.011-.017H41.4l.047-.072C41.483,5,41.426,5.058,41.378,5.1ZM39.55,6.646c.005,0,0,.011.005.018a.074.074,0,0,1-.037.048.01.01,0,0,1-.009-.014A.1.1,0,0,1,39.55,6.646Zm-.311.25,0,.012,0,0Zm-.053,0,0,.027-.014.018a.135.135,0,0,1,0-.028Zm-.078.082V7l-.012.02c-.012.01-.013,0,0-.016A.2.2,0,0,1,39.108,6.983ZM18.368,19.661a.2.2,0,0,1-.042,0c.009-.009.016-.021.027-.026a.182.182,0,0,1,.048,0C18.387,19.645,18.38,19.657,18.368,19.661Zm8.858-4.429.01.005-.009.011-.01-.006Zm-1.879,1a.055.055,0,0,1,.028-.017c.026-.049.064-.012.094-.029l0,0,0,0,0,0h0c0-.022.014-.036.045-.042l.011.013a.088.088,0,0,1-.056.029v0l-.006,0a.189.189,0,0,1-.079.066.176.176,0,0,1-.036.032c-.029.011-.071.034-.076-.005S25.322,16.241,25.347,16.228Zm-.262.126a.022.022,0,0,1,.028-.011l.037-.013.031-.018c.024-.013.053-.062.07-.021s-.029.046-.063.051l-.037.007c-.07.1-.183.107-.3.173A.435.435,0,0,1,25.085,16.354Zm-.974.486c.055-.023.1-.076.159-.083.029-.041.066-.035.1-.034.012-.07.093-.035.124-.077l.275-.134c.021-.01.045-.018.049.007a.047.047,0,0,1-.018.039.986.986,0,0,1-.263.128.355.355,0,0,1-.165.052c-.03.046-.082.054-.127.074l-.088.047h0a.17.17,0,0,1-.034.032c-.024.012-.059.031-.069.008S24.077,16.851,24.111,16.84ZM20.988,18.2c.014-.02.035-.009.053-.012h0a.111.111,0,0,1,.159-.053c-.049.049-.108.038-.159.053h0a.035.035,0,0,1-.042.028C20.993,18.216,20.985,18.2,20.988,18.2Zm-.388.151s.022-.017.022-.017.013.007.02.011-.007.018-.014.021S20.6,18.367,20.6,18.352Zm-1.954,1.274c-.005,0-.015-.01-.016-.016s.006-.021.021-.025.02,0,.02.009A.025.025,0,0,1,18.646,19.626Zm1.474-.645c0,.009-.011.01-.02,0l.007-.011h.011Zm.111-.057c-.007.02-.017.044-.045.027s-.007-.029.015-.039S20.231,18.9,20.231,18.924Zm.244-.031c-.01.007-.019.007-.024,0l.007-.011a.016.016,0,0,1,.024,0Zm.21-.094a.189.189,0,0,1-.052,0,.653.653,0,0,1,.057-.036c.006,0,.017,0,.025.006C20.706,18.78,20.7,18.794,20.685,18.8Zm.55-.3h-.01l.009-.006Zm1.873-.977c-.012.007-.026.012-.041.019l0,0h0l0,0-.006.02-.016-.006.022-.014v0l.006,0a.138.138,0,0,1,.03-.029C23.108,17.505,23.116,17.516,23.108,17.521Zm.024-.117h0a.261.261,0,0,1-.059.035c-.217.056-.4.189-.612.259a.183.183,0,0,0-.033.011c-.047.026-.141.044-.124.087.023.064.093-.01.139-.023.143-.039.285-.088.427-.133h0a.234.234,0,0,1,.154-.08.3.3,0,0,1-.15.1c-.1.055-.2.112-.3.163a.492.492,0,0,1-.26.083.488.488,0,0,0-.193.066,3.864,3.864,0,0,0-.653.326.427.427,0,0,1-.078.034h0a.924.924,0,0,1-.4.209c-.066.017-.159.033-.123.116h0c.02-.006.043-.023.06-.006s0,.033-.019.044a.426.426,0,0,1-.063.022c-.049.033-.061-.012-.085-.013a.35.35,0,0,0-.216.074c-.048.035.046.039.034.075-.035.029-.047,0-.067-.015s-.04-.023-.051-.012c-.089.084-.2.024-.291.059-.143.056-.29.1-.426.169-.159.078-.32.151-.469.239a.311.311,0,0,1-.125.04.565.565,0,0,1-.347.15h0c-.009.022-.033.031-.055.042h0c.01.015.035.036.009.045s-.026-.02-.033-.036h0l-.033.01-.032,0a.163.163,0,0,0-.049,0h0l.045,0-.045,0a.206.206,0,0,1-.149.055c.008-.043.043-.041.067-.052a.492.492,0,0,1,.153-.062h0a.229.229,0,0,1,.169-.059c0-.024.018-.034.043-.042a.488.488,0,0,0,.146-.057c.243-.111.467-.253.712-.369.16-.077.325-.151.479-.237a1.688,1.688,0,0,1,.3-.148.035.035,0,0,1,.043.007c-.039.065-.145.057-.2.139a.386.386,0,0,0,.177-.038c.177-.111.42-.193.631-.3.035-.018.079-.03.075-.07s.03-.057.067-.075a3.555,3.555,0,0,1,.606-.282c.083-.023.08-.075.1-.125-.123-.035-.2.094-.31.1h0l-.274.126c.061-.118.182-.1.259-.152.11-.057.194-.156.331-.17.032,0,.036-.036.055-.054.056-.052.058,0,.074.02h0a.05.05,0,0,1,.024-.009h0c-.012-.024,0-.043.028-.06.241-.112.5-.161.749-.253a.175.175,0,0,1,.114-.012.316.316,0,0,1,.126-.047.1.1,0,0,1,.065-.048c.019,0,.049-.022.051.008s-.017.035-.042.041A.571.571,0,0,1,23.132,17.4Zm3.5-1.528c-.016.005-.021,0-.013-.011a.023.023,0,0,1,.015-.007l.01.007S26.635,15.875,26.631,15.876Zm.35-.169a.137.137,0,0,1,.157-.075C27.091,15.7,27.033,15.672,26.981,15.707Zm1.009-.358-.012-.005A.125.125,0,0,1,28,15.326l.011,0C28.005,15.337,28,15.344,27.99,15.349Zm.15-.114a.07.07,0,0,1-.029,0l.013-.024c.012-.01.023-.011.027,0A.032.032,0,0,1,28.14,15.235Zm.065-.032-.012-.006.011-.012.012,0Zm.03-.108-.011-.006a.15.15,0,0,1,.025-.019l.012.006A.214.214,0,0,1,28.235,15.1Zm.411-.448a3.83,3.83,0,0,0-.368.207s-.19.153-.192.156c-.036.05-.036.05.017.1l-.193.085,0,0,0,0h0a.42.42,0,0,1-.183.13c-.056.03-.049-.037-.087-.033-.058.012-.023-.057-.056-.067l-.009.008-.011,0c.015.084-.035.137-.115.188-.043.027-.108-.013-.137.074,0,.013-.087.021-.133.031h0l-.037.013-.016.01H27.11l-.032.01h0c-.022.012-.033,0-.037-.012-.021,0-.057,0-.06,0-.053.109-.155.141-.249.19a.955.955,0,0,0-.27.149h0c.016.015.035.029.011.059-.006.007-.019.019-.024.017-.036-.008-.021-.043-.025-.068-.044-.024-.052.011-.067.042s-.032.105-.108.082c-.052-.015-.03.07-.08.064l-.067.02h0c-.028.039-.061.059-.1.042h0c-.024.009-.028,0-.03-.02h0A.044.044,0,0,1,26,16.083h0l.027-.017h0l0-.034h0l-.075.033a1.241,1.241,0,0,0-.291.183c-.05.03-.1.091-.163.073h0c.035.026,0,.051-.026.066-.1.059-.2.117-.3.17-.076.04-.155.074-.233.11l-.034.013h0c-.016.031-.038.039-.065.024a.1.1,0,0,1-.028.014c-.108.086-.244.123-.353.2a.068.068,0,0,1-.035.089c-.042.022-.032-.037-.068-.029-.052-.012-.095.028-.139.047a.989.989,0,0,1-.311.113.919.919,0,0,0-.26.125h0a.47.47,0,0,1-.219.1l0,0h0c-.033.06-.092.059-.165.075a.361.361,0,0,1,.166-.076l0,0h0c.053-.068.148-.076.215-.126a.27.27,0,0,1,.109-.1c.353-.139.69-.325,1.048-.456.009-.032.037-.038.065-.041.15-.08.3-.157.449-.242a.762.762,0,0,1,.19-.08l0,0H25.5c.015-.067.1-.112.108-.184,0-.022.029-.03.05-.042.268-.154.536-.31.812-.453.107-.055.214-.11.322-.161.13-.062.131-.061.2.017.11-.107.265-.128.376-.239,0,0,.033.011.051.017a.107.107,0,0,1,.046-.085c.017-.011.025.007.029.02l.059-.022c.024-.088.115-.085.158-.1a3.867,3.867,0,0,0,.636-.355c.089-.053.179-.131.276-.184.038-.021.071-.02.078.015A.078.078,0,0,1,28.646,14.647Zm4.062-2.681V11.96h.009Zm.617-.038a.121.121,0,0,1-.014-.02l.011-.013.018.01Zm.074-.05c-.006.011-.015.013-.023,0s.006-.01.01-.013H33.4ZM38.4,7.8a.227.227,0,0,1-.115.09c-.025.01-.022-.011-.007-.046a.282.282,0,0,1,.027-.042c.021-.009.007.018,0,.042l.027-.012c.055-.069.132-.209.14-.118C38.479,7.774,38.428,7.771,38.4,7.8Zm.519-.6c-.008.008-.015,0-.022.006a.473.473,0,0,1,.028-.044c.015-.019.023-.02.021-.005A.268.268,0,0,1,38.923,7.2Zm.085-.1a.065.065,0,0,1,.009-.02.058.058,0,0,1,.012-.01.024.024,0,0,1,0,.014C39.016,7.1,39.008,7.107,39.008,7.1Zm.13.483c-.006,0,0-.01-.007-.015l.017-.019c.015-.015.02-.014.016,0A.244.244,0,0,1,39.138,7.579Zm.839-.831,0,0h0c-.019.04-.039.059-.061.065V6.805a.117.117,0,0,1,.06-.051l0,0,0,0a.144.144,0,0,1,.06-.073c.005,0,0,.02,0,.024A.106.106,0,0,1,39.977,6.748Zm.191-.189h0c-.021.032-.041.059-.059.061l0-.019a.1.1,0,0,1,.056-.042l0,0v0l0,0a.067.067,0,0,1,.02-.039s.007,0,.01.008l-.03.031Z"/><path class="cls-1" d="M43.823.112C43.8.106,43.789.1,43.788.074L43.771.037c-.021,0-.03-.021-.04-.037l-.064.014a.016.016,0,0,1-.022.008l-.133.044-.023.007a.025.025,0,0,1-.036,0l-.077.024c-.023.04-.069.04-.1.061a.076.076,0,0,1-.038.037c0,.021-.015.031-.031.04a.026.026,0,0,1-.018.029c-.018.056-.064.03-.1.032h0l-.006,0a.1.1,0,0,1-.045.026l-.083.046A.023.023,0,0,1,42.93.39h0a.044.044,0,0,1-.038.032l-.019.012a.051.051,0,0,1-.039.036l0,.008h-.008a.07.07,0,0,1-.044.04.082.082,0,0,1-.063.043l0,.005h-.006A.1.1,0,0,1,42.633.6a.075.075,0,0,1-.024,0l-.066,0a.029.029,0,0,1-.026.027A.013.013,0,0,1,42.5.638c-.024.037-.084.022-.1.069h0q0,.021-.021.018c-.015.011-.023,0-.03-.009a.146.146,0,0,0-.1.038c.03.058.033.066-.036.068a.066.066,0,0,1-.032,0l-.007.005-.007,0-.022.008,0,.007h-.008c-.009.026.021.056-.007.08a.014.014,0,0,1,0,.018c.009.028-.013.032-.031.038a.054.054,0,0,1-.039.036.042.042,0,0,1-.038.034.017.017,0,0,1-.017.01c0,.014,0,.025-.02.028l0,.008h-.009l-.027.028h0v0a.2.2,0,0,1-.11.1l0,0,0,.007c.016.011.035.021.013.044v.009l-.009,0a.064.064,0,0,1-.047.037h0a.038.038,0,0,1-.013.015.265.265,0,0,1-.068.037h0a.046.046,0,0,1-.017.017.343.343,0,0,1-.085.044l-.008.01a.117.117,0,0,1-.052.032c-.008.016-.023.016-.037.017a.028.028,0,0,1-.022.03h0l-.006.009a.081.081,0,0,1-.053.033l-.021.01c-.008.016-.014.034-.036.039a.344.344,0,0,1-.114.093c-.007.032-.044.022-.061.042,0,.014,0,.024-.018.026a.051.051,0,0,1-.04.017c-.009.043-.057.032-.08.056s-.044.022-.065.036a.017.017,0,0,1-.021.012l-.042.017h0c-.076.064-.177.066-.261.111h0a.151.151,0,0,1-.015.028h0c.006.031-.016.032-.036.036a.017.017,0,0,1-.02.009c-.018.033-.061.039-.075.075s-.027.035-.052.021h0a.008.008,0,0,1-.015,0,.048.048,0,0,1-.055,0,.018.018,0,0,1-.02,0l-.13.047a.062.062,0,0,1-.032.04.025.025,0,0,1-.022.026h0a.063.063,0,0,1-.034.039c0,.036-.036.034-.061.043l0,.007h-.008a.079.079,0,0,1-.049.035.017.017,0,0,1-.018.011.053.053,0,0,1-.041.037h0c-.005.013-.009.029-.024.031s-.022-.02-.03-.033l-.06-.006h0a.05.05,0,0,1-.056.015l-.065.024c-.013.035-.048.04-.075.057a.03.03,0,0,1-.021.025.026.026,0,0,1-.016.029h0c-.006.028-.017.042-.043.016a.026.026,0,0,1-.029-.015.026.026,0,0,1-.03-.015h0a.026.026,0,0,1-.029-.015h0c-.013,0-.022,0-.025-.016a.013.013,0,0,1-.012-.014.036.036,0,0,1-.032-.014c-.025,0-.05.022-.073,0a.028.028,0,0,1-.03-.015.025.025,0,0,1-.029-.017.062.062,0,0,1-.041-.031.029.029,0,0,1-.029-.014.027.027,0,0,1-.026-.021.1.1,0,0,1-.069-.047.034.034,0,0,1-.028-.019c-.013,0-.024,0-.03-.014-.044-.007-.059-.041-.073-.076h0a.065.065,0,0,1-.053,0,.022.022,0,0,1-.031-.011.028.028,0,0,1-.031-.012.039.039,0,0,1-.035-.016l-.008,0-.006,0a.021.021,0,0,1-.03-.011.029.029,0,0,1-.03-.011c-.019.009-.038.021-.054,0a.027.027,0,0,1-.03-.016c-.014,0-.02-.011-.025-.022h0c-.023,0-.025-.011-.014-.029h0l-.009-.029a.039.039,0,0,1-.031-.017c-.036.006-.076.035-.1-.02h0c-.012,0-.024,0-.03-.012-.034-.006-.029-.041-.044-.06h0c-.013,0-.024,0-.028-.016h0a.057.057,0,0,1-.041-.026.082.082,0,0,1-.107-.045c-.007,0-.01-.006-.008-.013-.018,0-.039,0-.05-.017h0a.02.02,0,0,1-.012-.008l-.034-.02h0l-.007,0-.007,0c-.027.007-.039-.017-.058-.028h0l-.179-.085a.025.025,0,0,1-.031-.013.054.054,0,0,1-.06-.028.037.037,0,0,1-.034-.014.009.009,0,0,1-.016,0c-.015.007-.024,0-.027-.013a.036.036,0,0,1-.017-.034l-.037-.013a.023.023,0,0,1-.014,0h0c-.024.008-.05.029-.053-.021a.146.146,0,0,0-.023-.049.137.137,0,0,0-.074.02l-.052-.034h0l-.044.019h0a.03.03,0,0,1-.036-.011l-.015,0,0,.007h-.008l.006.044c.031.006.051.031.077.046h0l.05.032c.075,0,.075,0,.059.073a.134.134,0,0,1-.091-.059h0a.065.065,0,0,1-.048-.036l-.077-.04c-.072.011-.02.044-.013.069a.062.062,0,0,1,.038.036.022.022,0,0,1,.024.02l.009,0v.008a.151.151,0,0,1,.078.079c.026,0,.023.017.01.034h0l0,.009.04.037a.03.03,0,0,1,.03.015.028.028,0,0,1,.03.015.059.059,0,0,1,.064.054l.031.015a.016.016,0,0,1,.02,0h0c.028,0,.023.022.031.036l.014.019.032.012a.2.2,0,0,1,.084.068c-.048.021-.07-.021-.1-.035a.108.108,0,0,1-.048-.03l-.011-.006a.043.043,0,0,1-.043-.023l-.115-.061A.047.047,0,0,1,37.495,2c-.034,0-.065.031-.1.01l-.009,0-.008-.008c-.02,0-.026-.018-.036-.03a.077.077,0,0,1-.054,0h0c-.048,0-.053-.06-.095-.068-.047.02-.1-.036-.143.006l.005,0V1.92l.005,0,.035.029a.033.033,0,0,1,.029.019.026.026,0,0,1,.029.015A.031.031,0,0,1,37.18,2a.025.025,0,0,1,.031.011.028.028,0,0,1,.027.02.025.025,0,0,1,.03.015c.024,0,.032.015.041.032a1.518,1.518,0,0,0,.259.135c.028.008.016.029.02.045h0c.016-.007.025,0,.028.014h0c.016,0,.035-.024.047.007h0l0,.019c-.012.009-.018,0-.024-.01s-.024,0-.026-.015h0a.052.052,0,0,1-.051,0c-.042.037,0,.063.01.093.029.01.073.007.051.061.057.015.087.044.058.107a.241.241,0,0,0-.013.067l.017.022a.023.023,0,0,1,.027.018h0a1.363,1.363,0,0,1,.232.117.017.017,0,0,1,.014.016.034.034,0,0,1,.031.015c.025,0,.031.02.043.034a.01.01,0,0,1,.016,0c.021,0,.029.014.039.027a.025.025,0,0,1,.028.016l.034.006a.032.032,0,0,1,.017,0c.031-.007.029.02.037.036a.029.029,0,0,1,.031.013.025.025,0,0,1,.029.016.025.025,0,0,1,.028.017h0a.027.027,0,0,1,.029.014h0c.014,0,.025,0,.03.014.022,0,.031.017.04.033.013,0,.023,0,.024.02s.011.006.011.014l.037.016.008,0,.007,0a.023.023,0,0,1,.031.009.024.024,0,0,1,.03.015c.019,0,.029.018.039.033a.027.027,0,0,1,.029.018l.085.048h0c.025,0,.028.021.037.035s.026,0,.031.014.029.019.039.033a.022.022,0,0,1,.026.02h0a.024.024,0,0,1,.011.009l.029.02a.026.026,0,0,1,.028.02l.029.016c.028-.006.031.016.039.033a.033.033,0,0,1,.029.014l.037-.013c0-.029-.014-.072.044-.04h0a.025.025,0,0,1,.028.02l0,0a.226.226,0,0,1,.114.1c-.058-.025-.091-.085-.14-.037l.01.034a.03.03,0,0,1,.03.019c.023,0,.033.015.041.033.044.028.019.043-.012.057h0a.048.048,0,0,1-.034.038.05.05,0,0,1-.037.038.047.047,0,0,1-.034.039c0,.021-.012.027-.029.012a.025.025,0,0,1-.03-.016.03.03,0,0,1-.026-.021h0l-.031-.008-.11.03a.015.015,0,0,1-.017.01.05.05,0,0,1-.041.037h0a.047.047,0,0,1-.036.036l0,.008h-.007a.035.035,0,0,1-.027.029h0a.052.052,0,0,1-.031.039.025.025,0,0,1-.019.028c0,.021-.019.03-.038.036h0a.047.047,0,0,1-.035.037h0a.053.053,0,0,1-.037.037h0a.058.058,0,0,1-.031.04.028.028,0,0,1-.017.028.023.023,0,0,1-.018.027h0v0a.06.06,0,0,1-.029.04.025.025,0,0,1-.019.027.044.044,0,0,1-.038.036l0,.008h-.009a.03.03,0,0,1-.026.028h0a.051.051,0,0,1-.033.038.025.025,0,0,1-.018.027l0,0a.056.056,0,0,1-.027.041.1.1,0,0,1-.03.075v0c0,.017.009.034,0,.049h0v0h0a.032.032,0,0,1,.006.018c.02.035.067.021.089.05h0a.061.061,0,0,1,.012.016.066.066,0,0,1,.053.009l.008-.006.009,0c.008-.021.019-.019.026,0s.021.055.03.082a.052.052,0,0,1,.038.035.035.035,0,0,1,.03.014c.017,0,.034,0,.045.014.019,0,.02.018.02.033a.029.029,0,0,1,.026.025.013.013,0,0,1,.011.015.039.039,0,0,1,.032.017c.032.007.061-.033.094-.006h0a.048.048,0,0,1,.039.035l.028.017.2-.065.007-.008.011,0h0c.005-.017.015-.021.029-.01h0l.01-.006.01,0,.061-.028a.047.047,0,0,1,.042-.032l.007-.008.01,0a.044.044,0,0,1,.041-.036l.007-.008h.01c0-.024.022-.031.04-.038,0-.023.019-.03.036-.038a.046.046,0,0,1,.033-.039c0-.014.011-.02.021-.026h0c0-.014,0-.024.015-.027l0-.009.009,0a.03.03,0,0,1,.019-.031,2.149,2.149,0,0,1,.034-.057l-.017.027h0a.246.246,0,0,0,.017-.027h0a.024.024,0,0,1,.015-.028h0a.093.093,0,0,1,.043-.071.031.031,0,0,1,.018-.028.026.026,0,0,1,.016-.028.025.025,0,0,1,.017-.028h0a.113.113,0,0,1,.043-.071.028.028,0,0,1,.015-.029,176240065966.227,176240065966.227,0,0,0,.032-.058.028.028,0,0,1,.014-.03.025.025,0,0,1,.018-.028c.008-.03.036-.034.059-.045a.075.075,0,0,1,.06-.044.013.013,0,0,1,.022,0c.023,0,.032.012.04.028a.022.022,0,0,1,.023.021.012.012,0,0,1,.011.014.054.054,0,0,1,.05.016h0A.026.026,0,0,1,40,3.957l.041-.012c.005-.038.02-.042.047-.016a.029.029,0,0,1,.031.012.057.057,0,0,1,.062.025.03.03,0,0,1,.026.022c.025.008.043.019.013.045h0c-.007.028-.036.032-.053.049a.014.014,0,0,1,0,.019l.019.042a.052.052,0,0,1,.063.023.06.06,0,0,1,.048.014.078.078,0,0,1,.058,0h0l.009,0c.021-.018.036-.056.074-.026a.023.023,0,0,1,.028.018h0A.056.056,0,0,1,40.5,4.2a.03.03,0,0,1,.028.017.021.021,0,0,1,.027.019l.007,0V4.25A.069.069,0,0,1,40.6,4.3h0l.008,0,0,.008a.04.04,0,0,1,.031.024.028.028,0,0,1,.03.013.029.029,0,0,1,.031.011c.018,0,.036,0,.048.015h0a.028.028,0,0,1,.03.013.051.051,0,0,1,.063.022.074.074,0,0,1,.059.028.06.06,0,0,1,.05.012.026.026,0,0,1,.03.014.062.062,0,0,1,.061.027.043.043,0,0,1,.057.033.031.031,0,0,1,.03.013h0c.058-.013.076.045.116.064h0l.008,0v.009a.037.037,0,0,1,.029.025h0a.023.023,0,0,1,.027.015l.009,0c.064.024.133.039.16.116.006.016.036.024.056.035l.024-.007h0l.021-.009h0c.024-.038.024-.038.053,0,.024,0,.031.021.035.04l.008,0v.008a.031.031,0,0,1,.026.027.013.013,0,0,1,.011.015.026.026,0,0,1,.027.022c.008,0,.011,0,.01.012a.038.038,0,0,1,.032.02.027.027,0,0,1,.028.019l-.028-.018h0a.112.112,0,0,0,.028.018h0l.031.009c.024,0,.05-.025.073,0A.046.046,0,0,1,41.956,5,.06.06,0,0,1,42,5.032c.021,0,.03.018.038.034a.032.032,0,0,1,.027.019l.06,0h0l0-.007.007,0c.031-.016.05,0,.067.023a.033.033,0,0,1,.026.021.03.03,0,0,1,.032.01.028.028,0,0,1,.03.013.06.06,0,0,1,.058.032.029.029,0,0,1,.031.013c.014,0,.021.01.027.021a.023.023,0,0,1,.029.015.026.026,0,0,1,.028.016l-.028-.016h0l.028.016h0a.024.024,0,0,1,.029.015l-.029-.015a.159.159,0,0,1,.029.015h0a.028.028,0,0,1,.03.012.018.018,0,0,1,.025.016.015.015,0,0,1,.012.017.049.049,0,0,1,.037.041.048.048,0,0,1,.035.039h.011c.017-.016.057-.017.035-.058-.043-.081-.042-.115,0-.13a.137.137,0,0,1,.146.081.785.785,0,0,1,.027.087.2.2,0,0,0,.16.176c.044.014.094.022.077.088l.034.032h0l.035.01a.206.206,0,0,1,.115-.01.183.183,0,0,0,.109-.027.1.1,0,0,1,.161.053c.005.014,0,.033.017.041.092.052.047.116.016.178h0l.006.017,0,0a.022.022,0,0,1,.026.014h0l0,0a.019.019,0,0,1,.025.013l0,0a.022.022,0,0,1,.027.012h0a.022.022,0,0,1,.029.012h0a.167.167,0,0,0,.082-.035.022.022,0,0,1,.019-.026l.019-.026-.019.026h0a.174.174,0,0,1,.019-.026v0c0-.035.028-.028.051-.022h0v0h0a.057.057,0,0,1,.029-.019l.059-.039a.029.029,0,0,1,.021-.026h0c0-.012,0-.021.015-.023a.014.014,0,0,1,.014-.014.032.032,0,0,1,.018-.031.02.02,0,0,1,.018-.025l0-.009.01,0a.07.07,0,0,1,.037-.042.027.027,0,0,1,.018-.027.027.027,0,0,1,.019-.026l-.018.025h0a.042.042,0,0,1,0,.012l0-.011a.2.2,0,0,0,.018-.026l0,0a.022.022,0,0,1,.014-.026h0v0a.081.081,0,0,1,.048-.068.077.077,0,0,1,.03-.047c0-.012.007-.018.019-.019a.1.1,0,0,0,.015-.032.02.02,0,0,1,0-.022c-.008-.013,0-.022.009-.029a.054.054,0,0,1,.011-.049v0a.029.029,0,0,1,.008-.035.012.012,0,0,1,0-.017.045.045,0,0,1,0-.051h0a.053.053,0,0,1,0-.053.076.076,0,0,1,0-.073h0a.052.052,0,0,1,0-.054l-.023-.087h0L44.27,4.9h0c-.014-.019,0-.025.013-.032l.014-.031h0l-.016-.065L44.214,4.6c-.058-.027,0-.038.009-.055,0-.024.015-.031.032-.039a.066.066,0,0,1,.013-.049h0a.062.062,0,0,1,0-.055.015.015,0,0,1,0-.021.048.048,0,0,1,.005-.05l-.005-.024h0a.065.065,0,0,1,0-.073.386.386,0,0,1-.04-.189l-.017-.063h0c-.01-.041-.036-.08-.024-.126h0l-.005-.006,0-.007a.059.059,0,0,1,0-.074.055.055,0,0,1,0-.079.012.012,0,0,1,0-.018c-.007-.013,0-.022.009-.03a.056.056,0,0,1,.01-.05h0A.049.049,0,0,1,44.2,3.54c-.007-.019-.014-.039,0-.056a.014.014,0,0,1,0-.018.04.04,0,0,1,0-.055c-.008-.013-.018-.025-.01-.041a.071.071,0,0,1,0-.059h0L44.189,3.3l0-.008a.32.32,0,0,1-.021-.1.059.059,0,0,1,0-.023l-.008-.038c-.015-.038-.048-.073-.017-.117h0a.239.239,0,0,1,0-.059.028.028,0,0,1,0-.015h0a.049.049,0,0,1,.006-.053.167.167,0,0,1-.012-.1.035.035,0,0,1-.01-.039c-.007-.026-.024-.052-.006-.081h0a.037.037,0,0,1-.007-.038.088.088,0,0,1-.009-.074c-.008-.034-.026-.068-.009-.1h0l0-.006,0-.007a.031.031,0,0,1,.009-.046l.017-.013.019-.029-.019.029c.007-.009.012-.019.019-.029h0l-.062-.176c-.045-.022-.013-.04,0-.059h0l-.006-.04c-.031-.063-.035-.136-.071-.2A.014.014,0,0,1,44,1.856.041.041,0,0,1,44,1.8a.177.177,0,0,1,.02-.087c-.006-.006-.005-.011,0-.016-.007-.025.014-.032.028-.044-.006-.006,0-.011,0-.015a.026.026,0,0,1,.007-.035.012.012,0,0,1,0-.017.136.136,0,0,1-.013-.1h0l-.049-.142c-.025-.012-.025-.032-.016-.054h0a.016.016,0,0,1-.006-.02c-.011-.038-.035-.074-.014-.116l0,0c0-.021.014-.03.028-.039A.071.071,0,0,1,44,1.059l-.007-.041c-.008-.023-.024-.046,0-.071h0c0-.022.013-.031.027-.041a.062.062,0,0,1,.014-.049.061.061,0,0,1,0-.057.022.022,0,0,1-.01-.026L43.978.729h0c-.046-.02-.035-.058-.029-.095C43.942.57,43.9.513,43.91.445h0a.011.011,0,0,1,0-.017.09.09,0,0,1,0-.077l-.02-.063Zm-5.794,2.14a.015.015,0,0,1-.025,0c0-.006,0-.017,0-.02s.019,0,.025,0S38.037,2.245,38.029,2.252Zm-.057-.312-.041-.016h0c-.066.048-.068.047-.124-.034-.016.007-.026,0-.03-.014h0l-.018,0,.007-.013.012.015h0c.015-.008.024,0,.029.014h0c.052.012.111-.019.16.02a.3.3,0,0,1,.135.077A.24.24,0,0,1,37.972,1.94Zm1.5,2.282a.174.174,0,0,1-.137-.048c-.022-.028-.008-.065,0-.119a.214.214,0,0,0,.188.057C39.518,4.161,39.54,4.225,39.473,4.222Zm.465-1.031-.013.015s-.011-.011-.01-.016a.02.02,0,0,1,.014-.014C39.938,3.175,39.942,3.181,39.938,3.191Zm2.443-1.843.009.006-.005.01-.009-.006Zm.73,2.472c-.014-.075-.013-.075.084-.074a.477.477,0,0,1-.037.154c-.007.019-.018.036-.042.027s-.015-.026-.007-.039A.094.094,0,0,0,43.111,3.82Zm-.447-1.161c.006-.008.013-.007.02,0l-.007.015c-.005,0-.013,0-.02,0A.039.039,0,0,1,42.664,2.659Zm-.741-1.094a.891.891,0,0,1,.142-.07h0c.008-.03.041-.028.059-.045a.092.092,0,0,1,.073-.044c0,.085,0,.085-.054.1l-.012,0c0,.021-.012.038-.034.038a.116.116,0,0,0-.113.064c-.019.04-.064.031-.094.057C41.872,1.622,41.874,1.586,41.923,1.565Zm-.005.681c.024-.088.013-.187.113-.25a.207.207,0,0,0,.128-.191c0-.038.05-.04.043-.077-.01-.021,0-.038.017-.043s.017.018.025.028,0,.035,0,.052a.391.391,0,0,1,.008.18.124.124,0,0,0,.011.088.183.183,0,0,1-.045.206.048.048,0,0,1-.063.007c-.018-.012-.043-.017-.05.006-.024.082-.1.013-.142.049C41.941,2.315,41.911,2.274,41.918,2.246Zm-1.149.082c.008,0,.018.011.026.016a.063.063,0,0,1-.058.052c-.006,0-.022-.013-.022-.021C40.716,2.342,40.741,2.331,40.769,2.328Zm-.6,1c-.06,0-.087-.041-.128-.059.042-.02.055-.1.116-.059S40.145,3.285,40.172,3.327Zm.935-.683a.057.057,0,0,1-.046.066.373.373,0,0,0-.014.044c-.024.1-.024.1.06.182-.048.025-.092,0-.135,0-.1,0-.105-.005-.132.083-.012.041-.055.053-.062.094-.011-.005-.025-.007-.032-.015-.028-.03-.057-.06-.1-.026a.117.117,0,0,0,.006.143c.072.058.144.117.218.173.027.02.052.036.018.071h0c.007.036,0,.081.067.1-.092.026-.094-.053-.135-.071-.082.017-.138-.038-.2-.077a.055.055,0,0,0-.079,0c-.023.023-.015.049.013.067s.036.038.01.064l.011.02c.014.028.089.018.056.065s-.058-.018-.087-.031c-.006,0-.011-.011-.017-.016l-.322-.223c.1-.1.214-.172.313-.265a2.062,2.062,0,0,1,.393-.28.55.55,0,0,0,.115-.094.1.1,0,0,1,.044-.07c0-.016.009-.028.026-.027S41.116,2.634,41.107,2.644ZM41.1,2.6c-.04-.058,0-.128-.051-.171-.033,0-.036.029-.04.05a.093.093,0,0,1-.066.075.806.806,0,0,0-.335.218c-.014.041-.047.043-.084.043,0-.033.034-.04.051-.058-.007-.036-.054-.075.017-.1.037-.015.014-.069.037-.1a.885.885,0,0,0-.253.09.03.03,0,0,1-.048-.013.029.029,0,0,1,.016-.039.54.54,0,0,0,.174-.11.041.041,0,0,1,.061.006c.015.016.018.006.025-.013.017-.049.021-.049.071-.02.011.006.02.01.03,0,.072-.052.164-.051.239-.1a.075.075,0,0,0,.042-.074c0-.027-.042-.006-.06-.021l-.016.017c-.02.025-.042.044-.077.031,0,0-.009-.012-.008-.017.006-.041.043-.036.07-.046l.021-.008h0c.053-.074.091-.089.153-.048.023.016.042.022.061.009l.154-.1c.025-.016.038-.04.077-.04s.015-.065.071-.058.035-.085.1-.069a.124.124,0,0,1,.118-.082.035.035,0,0,0,.015-.015c-.03-.045-.017-.055.029-.034s.025.045.005.066-.053.044-.079.067-.07.037-.085.077h0a.018.018,0,0,1,.007.015c.021,0,.048-.02.06.011s-.018.03-.033.039a.527.527,0,0,0-.081.045c-.055.044-.12.07-.16.143a.3.3,0,0,1-.191.114C41.122,2.446,41.178,2.528,41.1,2.6Zm.43-.138c-.011.024-.015.022-.109.02.041-.1.1-.191.142-.293.014-.039.074-.008.119-.022A1.854,1.854,0,0,1,41.528,2.458Zm.2.011-.005.007-.008,0,0-.008Zm-.029.6c0,.006,0,.011-.009.012l-.007,0,.006-.009Zm-.31-.214,0,.007,0,0ZM42.305,4c-.019.005-.035-.013-.042-.03s.01-.042.031-.05a.025.025,0,0,1,.036.015C42.326,3.963,42.341,4,42.305,4Zm-.069-.149c-.063.034-.134.051-.112.154a1.066,1.066,0,0,1-.565-.328,2.787,2.787,0,0,1,.423-.154c.044-.016.068.023.081.048a.264.264,0,0,0,.111.1c.089.053.139.036.179-.06l.016-.041.236.065a.092.092,0,0,1,.033,0c.025.007.044.028.026.049s-.039,0-.051-.018a.052.052,0,0,0-.046.029c-.013.027-.021.065-.064.033a.024.024,0,0,0-.032,0A.937.937,0,0,1,42.236,3.855Zm.921.451a.606.606,0,0,0,.03.286.282.282,0,0,1,0,.21c-.214-.145-.389-.336-.606-.495.106-.057.211-.077.3-.128.031-.017.055-.025.073-.058.007-.014.061.013.076-.028s.038-.022.058-.027c.063-.018.077-.009.076.055A1.425,1.425,0,0,1,43.157,4.306Zm.2.23-.009.02h0a.088.088,0,0,1,0,.071h0c0,.01,0,.028-.009.028s-.018-.008-.018-.021l0-.1h0c.017-.032-.031-.092.018-.095S43.334,4.506,43.352,4.536Zm.09.136s-.009.009-.014.014-.014-.007-.015-.012.005-.02.017-.018A.022.022,0,0,1,43.442,4.672Zm0-.062-.009,0,.008-.009.006.006Zm-.006-.069-.015-.007.006-.009a.011.011,0,0,1,.018,0S43.438,4.539,43.434,4.541Zm.067-.253c0-.006-.006-.011-.008-.017l0-.009.014.014Zm-.062.132a.021.021,0,0,1,.005.02c.007.019,0,.032-.02.031s-.014-.012,0-.022c0-.027-.032-.053,0-.082h0c-.022-.021-.037-.074-.074-.014a.028.028,0,0,1-.016.043.02.02,0,0,1-.016-.01c0-.011,0-.02.011-.026A2.462,2.462,0,0,1,43.309,4c0-.065.045-.057.09-.073Zm-.267-1.146h0a.051.051,0,0,1,.01.043c0,.037.01.077-.029.112a.11.11,0,0,1,.017-.106l.012-.006-.007,0-.005,0c-.012-.017-.026-.035,0-.05h0l0-.04.016.006A.025.025,0,0,1,43.172,3.274Zm.311.794c-.007,0-.012,0-.013-.009l.006-.008.008.007Zm0-.069-.012-.015,0-.009.012.015Zm0-.073V3.919l.007,0ZM43.35,3.55V3.544l.006,0Zm.109-.3c0,.023-.02.02-.032.015-.035-.013-.069-.029-.1-.043-.014,0-.024,0-.026-.018a.108.108,0,0,1,.053-.122l-.008.1.015.019h0l.077.014A.026.026,0,0,1,43.459,3.253Zm.125-.052c-.008,0-.019-.012-.021-.021a.044.044,0,0,1,0-.022c.025,0,.035,0,.039.016A.02.02,0,0,1,43.584,3.2Zm-.135-.347c0,.036-.052.034-.052.07a.223.223,0,0,1-.042.139.145.145,0,0,1,.02-.13c0-.047-.049-.047-.073-.071-.043-.007-.052.023-.059.055-.016.071-.032.143-.05.214-.01.04-.029.079-.079.043-.035-.025-.067.014-.1,0a.207.207,0,0,1,.019-.1c.028-.012.04.017.06.021s.062,0,.059-.044a.264.264,0,0,1,.013-.068c.025-.105.008-.124-.108-.116-.006.03-.011.061-.019.091s-.015.042-.022.063C42.972,3.034,42.941,3,42.9,3c-.011,0-.021.007-.032.009s-.019,0-.02,0,.008-.015.016-.018l.033-.01c.048-.034.069-.1.126-.121.073-.075.075-.078.155-.026.04.026.072.038.112.008a.252.252,0,0,1,.086-.131c.035-.038,0-.107.05-.154A1.016,1.016,0,0,1,43.449,2.854Zm.33-.281c0,.107.007.214.012.321a5.221,5.221,0,0,0,.044.545.131.131,0,0,1-.01.045.108.108,0,0,1-.1-.116,4.665,4.665,0,0,0-.042-.625.325.325,0,0,1,.026-.182.045.045,0,0,1,.044-.031C43.79,2.531,43.778,2.557,43.779,2.573Zm-.408-.454c.018,0,.037.007.031.03s-.015.008-.021,0c-.021,0-.054.007-.048-.03,0-.014.025-.008.038,0Zm.008.129-.006.014-.01,0c-.011,0-.013-.008,0-.014S43.372,2.248,43.379,2.248Zm0-.329c-.005-.023,0-.044.027-.041s.014.021,0,.032a.071.071,0,0,1-.01.053l.006.023h0l0,.01c-.005.016.029.049-.013.048-.024,0-.037-.024-.017-.05l0-.024C43.358,1.951,43.379,1.936,43.378,1.919Zm-.023-.21h.011a.036.036,0,0,1-.019.046l0,.02c-.02-.01-.007-.015,0-.02C43.339,1.738,43.331,1.72,43.355,1.709Zm-.1-.565c0,.03-.03.028-.05.038-.077.035-.164.034-.242.068a2.061,2.061,0,0,1-.235.072c-.016.01-.046.02-.049.012-.009-.026.014-.041.036-.053a.559.559,0,0,1,.186-.169c.114-.071.224-.15.342-.229A.494.494,0,0,1,43.257,1.144Z"/></g></g></g></g></g></svg>