<svg xmlns="http://www.w3.org/2000/svg" viewBox="0 0 36.38 41.055"><defs><style>.cls-1{fill:#fff;}</style></defs><title>flecha-usa</title><g id="Layer_2" data-name="Layer 2"><g id="CONTACTO"><g id="MAPA_BACKGROUND" data-name="MAPA BACKGROUND"><g id="USA"><g id="FLECHA"><path class="cls-1" d="M5.962,3.078a.094.094,0,0,1,.064.026h0l.021,0,.012.01a.138.138,0,0,1,.081.035h0a.226.226,0,0,1,.107.048.255.255,0,0,1,.11.049A.223.223,0,0,1,6.47,3.3a.108.108,0,0,1,.067.031l.022,0,.009.01a.171.171,0,0,1,.086.037.206.206,0,0,1,.111.053.194.194,0,0,1,.108.055l.02.006L6.9,3.5a.276.276,0,0,1,.124.065.322.322,0,0,1,.139.083.237.237,0,0,1,.1.059c.022.006.032.013.032.021a.231.231,0,0,1,.111.063l.023.007,0,.01a.329.329,0,0,1,.121.066.218.218,0,0,1,.111.059A.219.219,0,0,1,7.777,4L7.8,4l.007.009h0a8.1,8.1,0,0,1,.858.488.137.137,0,0,1,.072.037.1.1,0,0,1,.043.024c.116.063.231.127.346.191.312.089.442.166.52.31-.217-.1-.392-.194-.559-.29l-.205-.1a.183.183,0,0,1-.077-.038c-.095-.015-.182-.024-.214,0a.465.465,0,0,1-.266-.08c-.262-.148-.528-.289-.787-.426l-.009,0a.454.454,0,0,1-.074-.023h0a.1.1,0,0,1-.078-.027h0C7.32,4.032,7.2,4,7.136,3.951a.268.268,0,0,1-.108-.046.142.142,0,0,1-.07-.031.2.2,0,0,1-.1-.048.212.212,0,0,1-.1-.049.22.22,0,0,1-.1-.045.216.216,0,0,1-.1-.049.187.187,0,0,1-.1-.046.188.188,0,0,1-.1-.047h0l-.129-.045c-.054.041-.18-.027-.22.009v0l.067.046a.057.057,0,0,1,.053.019h0l.017,0a.276.276,0,0,1,.1.055.151.151,0,0,1,.088.044.231.231,0,0,1,.12.065.135.135,0,0,1,.091.045.13.13,0,0,1,.092.044.173.173,0,0,1,.093.045.09.09,0,0,1,.062.025A.226.226,0,0,1,6.885,4h0a.245.245,0,0,1,.1.045.211.211,0,0,1,.1.046.1.1,0,0,1,.061.029.034.034,0,0,1,.029.016.126.126,0,0,1,.071.035q.025,0,.03.018a.121.121,0,0,1,.067.033.055.055,0,0,1,.036.021c.232.1.425.227.66.342.031.015.033.034.026.047h0l.057.052a.226.226,0,0,1,.116.06c.047.032-.023.014-.027.025h0a1.67,1.67,0,0,0,.425.277,1.75,1.75,0,0,1,.578.309c0,.039-.105.011-.157.016h0l.087.071a.781.781,0,0,1,.178.1.162.162,0,0,1,.072.036l.007,0a.29.29,0,0,1,.11.056h0A.976.976,0,0,1,9.8,5.8a.309.309,0,0,1,.109.063.208.208,0,0,1,.076.039.128.128,0,0,1,.072.036c.02.006.031.013.031.02a1.5,1.5,0,0,1,.323.206l.02.008.005.009a.205.205,0,0,1,.109.078c.019.007.029.014.028.021a.288.288,0,0,1,.115.072.234.234,0,0,1,.105.068h0a.235.235,0,0,1,.1.069h0a.245.245,0,0,1,.1.065c.021.01.031.019.032.027a.33.33,0,0,1,.136.1.377.377,0,0,1,.133.1.191.191,0,0,1,.1.069l.018.008,0,.008a.775.775,0,0,1,.22.148.2.2,0,0,1,.072.041.14.14,0,0,1,.07.039L11.8,7.1l.006.01a.3.3,0,0,1,.112.079c.049.022.051.033.033.04h0l.012.01v0a.331.331,0,0,1,.154.136h0c.122.055.111.1.186.155.093.046.077.082.145.127.091.048.078.085.148.132s.078.054.064.07h0l.008.009.076.05h0a.121.121,0,0,1,.081.061.341.341,0,0,0,.1.1l-.006,0a2.738,2.738,0,0,1,.325.293.079.079,0,0,1,.041.02c.061.029.064.045.051.058h0c.014.008.019.013.014.017a.769.769,0,0,1,.214.176h0c.072.034.074.066.115.1h0l0,0a.3.3,0,0,1,.111.1c.018.01.027.02.029.028l.153.114,0,0h0a.164.164,0,0,1,.065.037.1.1,0,0,1,.061.04l.016.009,0,.01.1.081h0a.059.059,0,0,1,.035.017.321.321,0,0,1,.1.092q.028.02.024.03l.016.016.01.014a.557.557,0,0,1,.146.147.331.331,0,0,0,.194.135c.044.01.056.046.041.057.011.016.016.028,0,.031l.063.082h0c.076.055.127.134.223.171.02.008.058.058.043.072l.07.089c.057.031.065.067.1.1h0a.722.722,0,0,1,.127.126c.038.029.05.049.047.066l.167.215a.1.1,0,0,1,.026.03.238.238,0,0,1,.028.026,1.041,1.041,0,0,1,.12.137.04.04,0,0,1,.021.022.538.538,0,0,1,.107.106.246.246,0,0,1,.073.07.56.56,0,0,1,.1.1.293.293,0,0,1,.073.067.328.328,0,0,1,.071.068.235.235,0,0,1,.07.067.322.322,0,0,1,.07.068.664.664,0,0,1,.117.129,1.38,1.38,0,0,1,.116.131c.034.024.051.046.051.065l.012.015.01.014a.468.468,0,0,1,.067.061c.044.009.048.039.05.07l.013.014.009.015a.165.165,0,0,1,.071.044c.044.01.048.04.049.071l.013.014.01.017.01,0,0,.011a.078.078,0,0,1,.057.028c.07.019.044.1.1.125.091,0,.093.1.144.149.087.007.085.109.143.147a.056.056,0,0,1,.048.019c.051,0,.069.046.1.081.049.019.082.047.077.1l.116.155c.065.028.1.091.145.138a.066.066,0,0,1,.048.024c.037-.013.073-.043.126.024.028,0,.039.012.029.035l.041.063c.076.018.1.094.149.139h0a.589.589,0,0,1,.219.207c.036.053.081.1.119.149a.061.061,0,0,1,.049.025h0a.484.484,0,0,1,.185.191c.065.1.147.2.218.3l.046.051a.207.207,0,0,1,.031.027,1.074,1.074,0,0,1,.166.192l.011,0,0,.011a.219.219,0,0,1,.106.1l.014,0,.005.013c.074.048.105.131.174.183a.049.049,0,0,1,.047.027.018.018,0,0,1,.021.017.119.119,0,0,1,.077.065.038.038,0,0,1,.025.026.211.211,0,0,1,.1.082c.072.01.085.073.119.117l.012,0,0,.012a.209.209,0,0,1,.1.1l.01,0,0,.009a2.555,2.555,0,0,1,.384.479l.013,0,0,.012a.374.374,0,0,1,.128.125l.083.055c.047.014.073-.022.119-.018.012.05-.025.051-.051.062a.157.157,0,0,1,0,.02l.087.111a.184.184,0,0,1,.059.075.3.3,0,0,1,.032.029,1.232,1.232,0,0,1,.164.2l.012,0,.006.012c.073.033.089.1.13.156.09.116.167.238.265.348a.186.186,0,0,1,.1.077.093.093,0,0,1,.068.057.02.02,0,0,1,.02.018.056.056,0,0,1,.05.032.066.066,0,0,1,.044.049c.083.041.115.12.162.189a.046.046,0,0,1,.024.027.118.118,0,0,1,.019.011.3.3,0,0,1,.1.1.023.023,0,0,1,.021.022.183.183,0,0,1,.093.091.029.029,0,0,1,.023.024.3.3,0,0,1,.116.119l.012,0,.005.012a.05.05,0,0,1,.052.034l.043.052c.093.034.1.115.127.183h0a.276.276,0,0,1,.088.126.054.054,0,0,1,.038.056h0l.008.01a.12.12,0,0,1,.021.017.6.6,0,0,1,.121.135.409.409,0,0,1,.132.148l.011,0,0,.012a.215.215,0,0,1,.1.1.02.02,0,0,1,.019.02.214.214,0,0,1,.1.091.158.158,0,0,1,.09.079.145.145,0,0,1,.089.081.018.018,0,0,1,.018.019.487.487,0,0,1,.157.186.021.021,0,0,1,.019.021.313.313,0,0,1,.114.12.077.077,0,0,1,.018.01.289.289,0,0,1,.093.1.273.273,0,0,1,.11.111.153.153,0,0,1,.088.08l.015.007a.192.192,0,0,1,.07.074.041.041,0,0,1,.023.025c.062.011.081.069.11.115l.012.005,0,.013a.2.2,0,0,1,.093.092l.017.008a.2.2,0,0,1,.068.072.028.028,0,0,1,.021.024.734.734,0,0,1,.175.209l.009,0,0,.011a.534.534,0,0,1,.137.158l.013.006,0,.014a1.9,1.9,0,0,1,.236.307.137.137,0,0,1,.034.029.512.512,0,0,1,.115.141.131.131,0,0,1,.07.108h0l0,.008a.238.238,0,0,1,.1.15h0a.04.04,0,0,1,.026.041.091.091,0,0,1,.037.055.137.137,0,0,1,.029.025.912.912,0,0,1,.125.151.2.2,0,0,1,.08.071l.017.028c.051.082.107.164.151.251a.359.359,0,0,1,.032.072h0a.219.219,0,0,1,.052.13.112.112,0,0,1,.03.1c.016.023.033.045.022.073.066.1.132.2.2.306a2.245,2.245,0,0,1,.321.474l.039.053c.029,0,.06-.021.086.016a1.294,1.294,0,0,1,.168.253l.06.078a.123.123,0,0,0,.042.007h0c.074.013.1.09.137.148a.06.06,0,0,1,.036.046l.064.036c.015-.009.029-.013.043,0,.061.014.069.075.086.129h0l.009,0v.01c.041.069.1.123.112.216a.088.088,0,0,1,.016.077.354.354,0,0,1,.051.1.106.106,0,0,1,.009.033.019.019,0,0,1,.013.024.411.411,0,0,1,.106.2h0l.009.006V24.3l.039.055c.01,0,.015,0,.016.016.079.048.178.047.226.162l.008,0v.006c.061.02.091.082.125.137.048.029.068.089.1.137.052.092.119.17.168.265a.381.381,0,0,1,.029.061h0l.075.113h.009l0,.011a.09.09,0,0,1,.026.022l.062.051c.04,0,.038.029.035.063a.054.054,0,0,1,.008.051c.028.031.064.054.074.107a1.6,1.6,0,0,1,.22.36.033.033,0,0,1,.016.029h0l.062.077a.248.248,0,0,1,.13.181h0a.131.131,0,0,1,.046.077.556.556,0,0,1,.095.16.139.139,0,0,1,.012.036c.008,0,.013.006.013.017a.065.065,0,0,1,.058.041h0l.043.052h0c.034,0,.071-.023.1.034l.019.029a.09.09,0,0,1,.027.083.03.03,0,0,1,.014.028.181.181,0,0,1,.049.112c.01,0,.014.013.013.027a.232.232,0,0,1,.067.14.03.03,0,0,1,.014.028.1.1,0,0,1,.035.09h0l.009,0v.008a.111.111,0,0,1,.023.091.106.106,0,0,1,.024.084l.058.079h0c.082.03.118.126.16.213.01.019.02.037.029.057l.009,0v.013a.385.385,0,0,1,.136.189h0l0,.007a.05.05,0,0,1,.042.049.069.069,0,0,1,0,.021v0a.05.05,0,0,1,.006.055.276.276,0,0,1,0,.14l.051.079c.036-.008.041.027.043.067a.2.2,0,0,1,.05.124h0q.014,0,.009.024l.122.176h0l.04.047a.259.259,0,0,1,.123.129.14.14,0,0,1,.074.1.591.591,0,0,1,.186.265h0a.148.148,0,0,1,.064.091c.029.015.062.025.062.087h0a.148.148,0,0,1,.063.093.327.327,0,0,1,.163.232h0l.008.008v.015a.116.116,0,0,1,.03.086.2.2,0,0,1,.037.1l0,.011a.131.131,0,0,1,.025.1l.062.075h0a.1.1,0,0,1,.084.106c-.011.146.064.191.115.266.036.055.074.107.112.161l.038.043a7.144,7.144,0,0,1,.365.639.255.255,0,0,1,.011.033h0c.022,0,.035.024.039.058h0l.01,0V31.4a.184.184,0,0,1,.045.126.126.126,0,0,1,.024.093c.027.063.085.093.085.186l.011.014.007.019a.161.161,0,0,1,.059.083.423.423,0,0,1,.192.292.833.833,0,0,1,.079.158.123.123,0,0,1,.008.029.92.92,0,0,1,.144.287.072.072,0,0,1,.013.061.172.172,0,0,1,.02.094.363.363,0,0,1,.039.127l.158.26c.008-.005.014,0,.016.015.047,0,.07.038.072.111a.068.068,0,0,1,.006.065.083.083,0,0,1,0,.062.1.1,0,0,1,0,.063.441.441,0,0,1,.038.111l0,.011a3.894,3.894,0,0,1,.222.426h0a.409.409,0,0,1,.082.194.129.129,0,0,1,.022.1l.045.067h0c.019-.047.052-.042.082-.06-.012.117-.012.117-.071.085a.08.08,0,0,1-.007.036.281.281,0,0,1,.042.139h0l.008.009v.015a.149.149,0,0,1,.028.1c.01,0,.013.013.012.028a.22.22,0,0,1,.052.138h0l.009.008v.016a.457.457,0,0,1,.073.174h0l.007.006v.013a.38.38,0,0,1,.084.194.159.159,0,0,1,.026.107h0l.008.009v.015a.249.249,0,0,1,.041.128.711.711,0,0,1,.1.229.544.544,0,0,1,.068.163.16.16,0,0,1,.007.033.385.385,0,0,1,.081.2c.029.1.117.134.109.267h0c0,.034.016.062.018.094h0c0,.068.053.1.053.163h0c.012.1.079.139.094.232,0,.034.015.062.015.094h0a.966.966,0,0,0,.036.187.407.407,0,0,0,.026.1l.008.01V37.4a.528.528,0,0,0,.024.091c-.007.053.029.082.037.128a.145.145,0,0,0,.063.131h0a.078.078,0,0,0,.034.019c.008,0,.013.01.016.024a.116.116,0,0,1,.041.078c0,.087.061.129.071.208l.008.012V38.1a.928.928,0,0,0,.022.091v0c-.006.053.03.084.034.131v0c-.009.052.029.084.032.131v-.005c-.006.051.027.083.034.127s.029.09.035.138a.078.078,0,0,1,.021.057c.008.077.058.122.067.2v0c.005.093.064.146.078.231-.009.046.028.082.028.125v0a.47.47,0,0,0,.014.089.1.1,0,0,0,0,.055c-.017.024,0,.056-.005.082h0c-.009.03-.02.059-.028.089l-.008.022a.2.2,0,0,0-.009.05l0,.026a.205.205,0,0,0,.018.049c.176.166.168.126.1.426a.165.165,0,0,0-.011.05l0,.027.018.051c0,.048.021.1.054.112.144.059.146.205.143.357a.187.187,0,0,0,.046.092l.029.06c.021.02.031.055.051.076s.056.032.084.017v0c.011-.009.017-.034.036-.019h0c.021.011.039,0,.059,0h0a.191.191,0,0,0,.094.031c0-.01.008-.013.015-.01.023-.055.067-.064.111-.079v0c.024-.055.086-.052.106-.121v0a.03.03,0,0,1,.033-.022s.005,0,.012,0,.013-.006.016-.019.006-.02.016-.018a.3.3,0,0,1,.08-.075.159.159,0,0,0,.032-.065l.01-.023a.2.2,0,0,0,.013-.049l0-.025c0-.017.006-.034.008-.051a.19.19,0,0,0-.014-.048c-.013-.038-.039-.069-.03-.117h0c.007-.023,0-.047.005-.07l.01-.022.024-.039a.219.219,0,0,0,.02-.044.53.53,0,0,0,0-.069.1.1,0,0,0,.013-.065v.006c.026-.1-.069-.143-.057-.236.012-.056-.04-.091-.022-.149v0c0-.035-.015-.064-.011-.1v0c.018-.071-.053-.1-.038-.175h0c.013-.071-.054-.1-.041-.175h0c.011-.072-.052-.107-.046-.177v0c.016-.077-.05-.114-.048-.185l-.01-.01,0-.018c.01-.054-.039-.083-.028-.138l-.012-.016,0-.022c.006-.052-.042-.08-.029-.135h0c0-.1-.082-.148-.09-.246.016-.076-.052-.106-.047-.177v0a.075.075,0,0,0-.005-.057c-.019-.052-.063-.085-.059-.154h0c.008-.056-.038-.085-.034-.139v0c.006-.075-.055-.117-.044-.194-.026-.1-.1-.151-.115-.262,0-.035.036-.057.022-.1a.053.053,0,0,0,0-.052c-.021-.052-.064-.085-.065-.154h0c.006-.06-.039-.09-.042-.145l-.007-.011a.452.452,0,0,1-.126-.23h0a.248.248,0,0,0,0-.072l-.011-.012v-.02c0-.053-.045-.077-.039-.133h0a.4.4,0,0,0-.027-.11l-.01-.01,0-.017c-.037-.152-.15-.227-.186-.38h0c0-.057-.04-.083-.043-.137v.005a.245.245,0,0,0-.027-.116l-.009-.006v-.013c0-.062-.042-.094-.051-.149l-.01-.008,0-.015a.175.175,0,0,1-.044-.135l-.037-.07a.666.666,0,0,1-.1-.188.215.215,0,0,1-.013-.047l-.012-.014,0-.022a.354.354,0,0,1-.062-.136.126.126,0,0,1,0-.028.693.693,0,0,1-.1-.215h0l-.008,0V34.53a.116.116,0,0,1-.023-.1.18.18,0,0,1-.032-.109h0l-.009-.01,0-.016a.063.063,0,0,1-.009-.061c-.033-.118-.121-.175-.149-.3L34.4,33.9a2.127,2.127,0,0,1-.265-.464l-.012-.012,0-.021-.089-.127a.039.039,0,0,1-.018-.038h0a.055.055,0,0,1-.007-.059.194.194,0,0,1-.022-.1h0c-.024-.076-.079-.1-.11-.161l-.01-.008L33.86,32.9c-.048,0-.061-.05-.07-.11h0c-.022-.093-.079-.159-.095-.256l-.012-.012,0-.021a.322.322,0,0,1-.083-.168h0l-.008-.005v-.013a.405.405,0,0,1-.079-.167h0l-.051-.079c-.033.005-.043-.029-.048-.073h0l-.017-.035c-.021-.053-.067-.08-.071-.152a.137.137,0,0,1-.029-.092.2.2,0,0,1-.036-.1h0l-.009-.008v-.015l-.043-.06c-.059-.017-.09-.087-.116-.168h0l-.074-.121-.064-.091h-.011l-.006-.016c-.02,0-.028-.013-.026-.044h0c-.041-.089-.111-.136-.14-.243h0a.423.423,0,0,1-.07-.158l-.033-.059a.733.733,0,0,1-.135-.24h0l-.083-.123a.8.8,0,0,1-.145-.25.4.4,0,0,1-.123-.178h0l0-.005c-.02,0-.032-.02-.037-.052h0l-.005-.008c-.018,0-.027-.015-.027-.044h0a.145.145,0,0,1-.034-.086c-.1-.2-.234-.329-.342-.509a.2.2,0,0,1-.062-.088.718.718,0,0,0-.088-.194.189.189,0,0,1-.02-.043.089.089,0,0,1-.043-.061.1.1,0,0,1-.052-.073.051.051,0,0,1-.006-.056.1.1,0,0,1-.008-.055,1.131,1.131,0,0,0-.127-.2.144.144,0,0,1-.035-.109l-.07-.136a.205.205,0,0,1-.036-.069.443.443,0,0,1-.085-.12h0c-.019,0-.032-.022-.038-.054h0l0,0h0a.531.531,0,0,1-.139-.2h0a.16.16,0,0,1-.048-.072.093.093,0,0,1-.031-.08c-.023-.046-.065-.071-.07-.136l-.031-.06-.011,0-.007-.014c-.035-.006-.063-.056-.1-.082h0c-.044,0-.07-.067-.1-.111a2.681,2.681,0,0,1-.207-.331h0l-.008-.006v-.012a.376.376,0,0,1-.071-.138h0l-.032-.053a4.168,4.168,0,0,1-.337-.516L29.837,26a.379.379,0,0,1-.094-.167h0a.066.066,0,0,1-.026-.045.2.2,0,0,1-.05-.105l-.009-.01,0-.016a.4.4,0,0,1-.056-.1.131.131,0,0,1-.009-.028l-.01-.011-.006-.016-.375-.536-.011,0-.007-.014h0a.172.172,0,0,1-.1-.139h0l-.025-.067a.087.087,0,0,1-.013-.035c-.156-.236-.309-.472-.478-.688a.165.165,0,0,1-.049-.065.3.3,0,0,1-.048-.052,1.942,1.942,0,0,1-.138-.18l-.011,0L28.31,23.7a.1.1,0,0,1-.063-.06,1,1,0,0,0-.143-.229.5.5,0,0,1-.1-.2l0-.017c-.021-.033-.043-.065-.067-.1a.259.259,0,0,1-.042-.052.159.159,0,0,1-.08-.112h0a.052.052,0,0,1-.025-.038.085.085,0,0,1-.052-.073h0c-.013,0-.019-.008-.016-.024l-.063-.078c-.147-.187-.288-.386-.425-.586a.052.052,0,0,1,.006-.075.443.443,0,0,0-.119-.176c-.037.025-.064-.011-.087-.042-.046-.062-.088-.126-.132-.189-.021,0-.031-.012-.027-.036h0l-.009-.008V21.6c-.02-.029-.051-.053-.045-.094l-.046-.071h0c-.07-.034-.1-.114-.142-.173l-.016-.007c-.044-.025-.036-.092-.075-.122-.04,0-.046-.023-.039-.056a.072.072,0,0,1-.014-.024c-.071-.017-.08-.1-.128-.144-.022,0-.029-.006-.021-.028l-.033-.05c-.023,0-.031-.012-.027-.036h0a.03.03,0,0,1-.021-.032.257.257,0,0,1-.029-.028c-.06-.063-.1-.139-.166-.219-.051,0-.043-.036-.047-.066h0l-.009,0,0-.01c-.064-.021-.093-.089-.12-.142a1.649,1.649,0,0,0-.176-.25.292.292,0,0,1-.1-.113.267.267,0,0,1-.1-.109.142.142,0,0,1-.083-.08l-.011,0,0-.012a.139.139,0,0,1-.069-.063.052.052,0,0,1-.034-.045.275.275,0,0,1-.093-.09h0c-.064-.023-.091-.087-.125-.142a.113.113,0,0,1-.021-.015.609.609,0,0,1-.107-.124h0a1.646,1.646,0,0,1-.249-.329.124.124,0,0,1-.023-.017.441.441,0,0,1-.1-.123c-.058-.026-.077-.089-.111-.136-.077-.1-.15-.209-.225-.314a.679.679,0,0,1-.169-.2c-.067-.019-.084-.094-.128-.139-.086-.04-.107-.14-.17-.2a.189.189,0,0,1-.085-.083l-.014-.008-.006-.015a.239.239,0,0,1-.089-.087l-.01,0,0-.011a.134.134,0,0,1-.073-.066l-.013-.005-.005-.014a.39.39,0,0,1-.109-.123l-.015-.009-.009-.016a.123.123,0,0,1-.087-.084l-.022-.032-.023-.029a.09.09,0,0,1-.027-.02.7.7,0,0,1-.107-.117h0a.142.142,0,0,1-.022-.02c-.05-.044-.087-.1-.133-.147h0c-.13-.1-.176-.253-.28-.37a.057.057,0,0,1-.037-.046c-.063-.02-.082-.08-.118-.125a.13.13,0,0,1-.031-.026.544.544,0,0,1-.12-.15.067.067,0,0,1-.038-.044.242.242,0,0,1-.033-.031,1.6,1.6,0,0,1-.174-.22c-.046-.01-.064-.051-.091-.082h0a.128.128,0,0,1-.035-.024c-.039-.034-.063-.08-.1-.117l-.014-.01-.007-.015a.253.253,0,0,1-.119-.116l-.009,0,0-.01a.364.364,0,0,1-.143-.161l-.023-.032c-.025-.025-.036-.05-.02-.075a2.427,2.427,0,0,0-.214-.308.416.416,0,0,1-.139-.141c-.065-.017-.082-.073-.114-.116l-.015-.009-.006-.015a.283.283,0,0,1-.116-.119l-.016-.01-.008-.015a.493.493,0,0,1-.161-.18.153.153,0,0,1-.065-.083.422.422,0,0,1-.141-.154l-.015-.007-.007-.013a.469.469,0,0,1-.144-.154l-.014,0,0-.013a.15.15,0,0,1-.08-.061.143.143,0,0,1-.1-.079.232.232,0,0,1-.116-.117l-.016-.011-.008-.016h0l-.052-.022c-.14-.022-.14-.022-.168-.175h0l-.069-.093-.015-.007,0-.013a.6.6,0,0,1-.173-.183A.255.255,0,0,1,19.429,13h0l-.044-.049h0a.343.343,0,0,1-.148-.157l-.016-.008-.006-.014a.267.267,0,0,1-.127-.121l-.012,0,0-.01a.154.154,0,0,1-.087-.066.121.121,0,0,1-.077-.054h0c-.047-.018-.105-.017-.136-.068l-.016-.01,0-.016c-.029-.007-.039-.02-.03-.041l-.013-.008,0-.012a.167.167,0,0,1-.026-.017.428.428,0,0,1-.121-.135l-.016-.01-.009-.014a.1.1,0,0,1-.083-.054.181.181,0,0,1-.1-.083c-.1-.038-.127-.112-.172-.178l-.016-.01,0-.014A.131.131,0,0,1,18.1,11.8l-.1-.089c-.041-.008-.046-.027-.031-.05h0l-.007-.009c-.072-.018-.14-.023-.183-.1s-.176-.148-.248-.235c-.051-.06-.111-.116-.167-.173-.044,0-.061-.028-.079-.055a.194.194,0,0,1-.1-.084.939.939,0,0,1-.2-.2.061.061,0,0,1-.054-.025c-.055-.008-.074-.049-.106-.08-.052-.014-.069-.055-.1-.085-.052-.014-.071-.055-.1-.084h0c-.032,0-.042-.016-.034-.038h0l-.009-.01c-.063-.01-.083-.054-.109-.093-.057-.01-.075-.05-.1-.086l-.012,0,0-.01a.782.782,0,0,1-.21-.225l-.015-.011-.006-.015a.452.452,0,0,1-.155-.145.123.123,0,0,1-.078-.054.228.228,0,0,1-.107-.077,1.118,1.118,0,0,0-.247-.082c-.032.005-.048-.027-.072-.039a.1.1,0,0,1-.065-.029c-.018-.015-.048-.035-.029-.05s.047.01.062.036a.217.217,0,0,1,.113.05c.053,0,.113.048.166.026.008-.044-.051-.067-.069-.1-.038,0-.042-.019-.028-.041a.18.18,0,0,1-.059-.077.168.168,0,0,1-.033-.025c-.046-.04-.077-.089-.123-.129a.107.107,0,0,1-.078-.053h0a.087.087,0,0,1-.027-.014.439.439,0,0,1-.1-.091.133.133,0,0,1-.076-.055c-.119-.05-.127-.169-.22-.234L14.8,8.837c-.037.008-.056-.021-.077-.047a.116.116,0,0,1-.072-.058l-.012,0-.006-.012a.142.142,0,0,1-.084-.057.11.11,0,0,1-.072-.055.119.119,0,0,1-.073-.051.122.122,0,0,1-.074-.042c-.047-.012-.065-.057-.094-.089a.1.1,0,0,1-.024-.016.57.57,0,0,1-.118-.122.289.289,0,0,1-.093-.079.209.209,0,0,1-.064-.068l-.018-.015a.643.643,0,0,1-.1-.106.226.226,0,0,1-.067-.061.209.209,0,0,1-.069-.061.239.239,0,0,1-.071-.058.2.2,0,0,1-.07-.066.186.186,0,0,1-.073-.063.333.333,0,0,1-.1-.089.26.26,0,0,1-.075-.064.218.218,0,0,1-.075-.065.211.211,0,0,1-.078-.065h0a.113.113,0,0,1-.024-.017.585.585,0,0,1-.107-.1.423.423,0,0,1-.105-.094.244.244,0,0,1-.1-.1L12.8,7.1l-.007-.013a.165.165,0,0,1-.083-.07l-.018-.013-.007-.013a.411.411,0,0,1-.114-.1.265.265,0,0,1-.089-.064.269.269,0,0,1-.108-.1c-.131-.092-.151-.181-.256-.272a.294.294,0,0,1-.109-.1l-.019-.01,0-.01a.3.3,0,0,1-.121-.1c-.083-.05-.105-.1-.165-.153a.254.254,0,0,1-.1-.063.114.114,0,0,1-.059-.037l-.019-.007-.009-.011a.219.219,0,0,1-.1-.077l-.02-.013L11.39,5.87a.247.247,0,0,1-.1-.068.226.226,0,0,1-.1-.064.164.164,0,0,1-.095-.067l-.019-.008,0-.009a.214.214,0,0,1-.106-.076.369.369,0,0,1-.132-.092l-.074-.039c-.174-.036-.176-.037-.174-.108l-.058-.05a.275.275,0,0,1-.109-.065.733.733,0,0,1-.188-.1.263.263,0,0,1-.114-.063.146.146,0,0,1-.073-.04.329.329,0,0,1-.119-.06.184.184,0,0,1-.077-.04.248.248,0,0,1-.12-.063.75.75,0,0,1-.187-.1.308.308,0,0,1-.14-.093A.237.237,0,0,1,9.288,4.6a.276.276,0,0,1-.115-.063.3.3,0,0,1-.123-.062l-.245-.109,0,0a.323.323,0,0,1-.154-.083.144.144,0,0,1-.076-.04h0a.328.328,0,0,1-.145-.088.251.251,0,0,1-.116-.062,1.144,1.144,0,0,1-.231-.122.242.242,0,0,1-.117-.06.291.291,0,0,1-.119-.06.261.261,0,0,1-.123-.058A.8.8,0,0,1,7.524,3.7a.244.244,0,0,1-.116-.059.26.26,0,0,1-.116-.057.174.174,0,0,1-.109-.059l-.024-.009L7.153,3.5a.232.232,0,0,1-.119-.063.393.393,0,0,1-.149-.08A.314.314,0,0,1,6.773,3.3a.254.254,0,0,1-.119-.052.235.235,0,0,1-.108-.057.22.22,0,0,1-.08-.023.13.13,0,0,1-.135-.029A.2.2,0,0,1,6.217,3.1a.189.189,0,0,1-.078-.025.1.1,0,0,1-.072-.029l-.018,0-.005-.008L5.956,3C5.822,3,5.9,3.041,5.962,3.078Zm2.12,1.461s.011-.008.017-.011a.072.072,0,0,1,.06.026s0,.013-.011.012A.111.111,0,0,1,8.082,4.539Zm.347.251.014,0,0,.006Zm.02.054.029,0,.023.01a.136.136,0,0,1-.03,0Zm.108.058.013,0L8.6,4.9c.013.009.007.013-.017.008A.065.065,0,0,1,8.557,4.9ZM27.589,22.838a.177.177,0,0,1,.011.044.115.115,0,0,1-.034-.021.191.191,0,0,1-.015-.049C27.567,22.822,27.582,22.827,27.589,22.838ZM20.483,14.9l0-.011.014.006,0,.012Zm1.566,1.668a.067.067,0,0,1-.026-.024c-.058-.013-.03-.062-.056-.089l-.006,0v0l0,0a.046.046,0,0,1-.053-.029.026.026,0,0,1,.007-.021.09.09,0,0,1,.046.05h0l0,0a.2.2,0,0,1,.091.063.179.179,0,0,1,.043.029c.021.026.056.063.017.079S22.07,16.589,22.049,16.566Zm.206.237a.024.024,0,0,1-.02-.026l-.024-.035-.027-.027c-.021-.021-.08-.037-.041-.067s.056.017.07.051l.017.036c.122.046.164.16.266.263A.46.46,0,0,1,22.255,16.8Zm.78.873c-.04-.05-.106-.078-.132-.141-.05-.019-.054-.059-.064-.1-.076.007-.062-.087-.114-.107-.073-.082-.145-.164-.217-.247-.017-.019-.032-.042-.007-.054a.057.057,0,0,1,.046.009c.066.081.165.136.206.236a.385.385,0,0,1,.1.157c.056.018.08.069.113.111l.074.077h0a.212.212,0,0,1,.043.028c.019.02.048.051.028.069S23.056,17.709,23.035,17.676Zm2.3,2.856c-.025-.009-.019-.034-.028-.052h0a.12.12,0,0,1-.1-.15c.064.036.07.1.1.149h0a.039.039,0,0,1,.042.036C25.346,20.522,25.336,20.534,25.332,20.532Zm.267.36c-.006,0-.019-.01-.024-.018s0-.016,0-.024.021,0,.026.009S25.615,20.89,25.6,20.892Zm1.876,1.667a.03.03,0,0,1-.013.021c-.011.006-.023,0-.032-.015s0-.021,0-.023A.027.027,0,0,1,27.475,22.559Zm-1.087-1.347c.01,0,.013.009.008.021l-.013,0,0-.011Zm-.092-.1c.023,0,.051,0,.041.039,0,.017-.028.015-.044,0S26.275,21.119,26.3,21.113Zm-.1-.245c.01.009.012.018,0,.026l-.013,0a.017.017,0,0,1,0-.026Zm-.158-.191a.2.2,0,0,1,.017.054.558.558,0,0,1-.053-.05c0-.005,0-.019,0-.027A.137.137,0,0,1,26.038,20.677Zm-.468-.486,0,.011-.009-.008Zm-1.545-1.667a.225.225,0,0,1,.031.037l0,0v0l0,0h.023l0,.018-.02-.019h0l0,0a.167.167,0,0,1-.039-.023C24.009,18.529,24.018,18.517,24.025,18.524Zm-.128.009h0c.018.017.043.031.054.051.119.209.309.363.441.562a.21.21,0,0,0,.022.03c.04.043.085.134.125.105.059-.042-.037-.093-.063-.138-.081-.138-.172-.271-.259-.405h0c-.051-.02-.084-.058-.127-.137.073.044.117.071.143.127.086.089.172.176.255.267a.542.542,0,0,1,.16.247.516.516,0,0,0,.123.181,4.068,4.068,0,0,0,.523.586.464.464,0,0,1,.057.072h0a1.007,1.007,0,0,1,.331.354c.036.063.078.155.155.094h0c-.012-.019-.036-.038-.023-.06s.034-.011.051.007a.513.513,0,0,1,.041.059c.048.042.005.066.011.092a.37.37,0,0,0,.137.2c.051.04.027-.059.068-.057.04.029.011.051,0,.074s-.013.048,0,.057c.112.068.081.2.144.285.1.132.187.272.3.395.126.142.247.289.381.419a.322.322,0,0,1,.077.118.61.61,0,0,1,.254.318h0c.025,0,.041.025.058.045h0l0,0c.012-.015.027-.046.044-.022s-.014.033-.028.045h0l.019.031.014.032a.17.17,0,0,0,.015.05v0h0l-.014-.046.014.046a.226.226,0,0,1,.1.139c-.047,0-.056-.033-.073-.054a.528.528,0,0,1-.108-.142h0a.242.242,0,0,1-.109-.159c-.025.009-.041-.009-.056-.032a.542.542,0,0,0-.1-.135c-.184-.221-.395-.413-.584-.634-.125-.145-.249-.3-.382-.431a1.789,1.789,0,0,1-.238-.268c-.007-.012-.018-.024-.005-.046.079.022.1.134.2.163a.4.4,0,0,0-.089-.173c-.165-.152-.319-.381-.492-.57-.028-.031-.054-.073-.094-.057s-.067-.016-.1-.049a3.764,3.764,0,0,1-.464-.549c-.047-.079-.1-.061-.159-.073,0,.138.154.182.189.295h0l.209.249c-.141-.031-.159-.16-.232-.227-.089-.1-.216-.156-.27-.3-.012-.032-.048-.027-.071-.042-.07-.043-.018-.059,0-.082h0a.048.048,0,0,1-.016-.022h0c-.022.02-.046.012-.071-.012-.185-.218-.309-.474-.475-.7a.192.192,0,0,1-.044-.115c-.03-.039-.072-.069-.085-.118a.106.106,0,0,1-.068-.055c-.01-.018-.036-.044-.006-.054s.041.007.055.032C23.81,18.442,23.867,18.473,23.9,18.533Zm-2.576-3.2c.009.014.006.021-.008.016a.028.028,0,0,1-.012-.014l.005-.012A.056.056,0,0,1,21.321,15.334Zm-.275-.316a.146.146,0,0,1-.122-.142C21.006,14.906,21,14.975,21.046,15.018Zm-.658-.945v.013a.128.128,0,0,1-.026-.02l0-.012A.143.143,0,0,1,20.388,14.073Zm-.16-.124a.059.059,0,0,1,.009.03l-.028-.008c-.014-.009-.019-.02-.008-.027A.032.032,0,0,1,20.228,13.949Zm-.051-.059,0,.014-.016-.008,0-.013Zm-.121,0,0,.014a.188.188,0,0,1-.026-.022l0-.013A.278.278,0,0,1,20.056,13.89Zm-.582-.3a4.211,4.211,0,0,0,.319.322s.213.154.216.155c.063.024.063.024.094-.044l.144.176h0a.448.448,0,0,1,.187.153c.048.05-.024.062-.009.1.029.057-.053.04-.054.077l.011.007,0,.011c.082-.039.152,0,.227.066.041.037.018.116.116.121.015,0,.046.085.07.13h0l.025.035.014.013.006.016h0l.019.031h0c.019.019.015.032,0,.042.007.021.014.06.021.061.127.024.189.121.266.2a1.072,1.072,0,0,0,.232.239h0c.011-.021.02-.045.058-.029.009,0,.025.015.025.021,0,.039-.039.034-.064.045-.013.053.027.051.063.057.053.01.118,0,.116.09,0,.058.08.011.088.064l.04.064h0c.049.019.079.046.072.094h0c.016.023,0,.03-.013.037h0a.045.045,0,0,1-.051-.016h0a.194.194,0,0,1-.026-.023h0l-.037.006h0l.056.068a1.345,1.345,0,0,0,.271.251c.046.043.123.074.123.148h0v0c.017-.043.053-.015.076.008.09.088.178.177.263.268.063.068.12.14.18.211l.023.032h0c.037.008.052.028.044.061a.171.171,0,0,1,.022.025c.12.087.2.219.313.308a.074.074,0,0,1,.1.011c.035.038-.029.044-.011.079,0,.057.056.091.088.131a1.026,1.026,0,0,1,.205.291c.032.083.134.156.2.234h0c.084.044.113.13.162.2l0,0v0l0,0c.072.019.088.08.125.151a.374.374,0,0,1-.125-.151h0l0-.005c-.086-.036-.121-.133-.192-.188a.3.3,0,0,1-.134-.085c-.244-.327-.532-.624-.77-.959-.036,0-.049-.027-.061-.055-.125-.133-.248-.269-.378-.4a.806.806,0,0,1-.137-.175v0c-.074,0-.145-.074-.222-.06-.023,0-.04-.022-.058-.04-.236-.234-.474-.469-.7-.715q-.132-.143-.258-.288c-.1-.118-.1-.119-.04-.214-.142-.084-.208-.238-.354-.323-.007,0,0-.037,0-.057a.117.117,0,0,1-.1-.024c-.017-.015,0-.027.012-.036l-.04-.054c-.1,0-.12-.1-.148-.136a4.137,4.137,0,0,0-.548-.56c-.08-.077-.186-.148-.269-.234-.033-.034-.041-.068-.007-.085A.083.083,0,0,1,19.474,13.591Zm-3.933-3.458-.006,0,0-.01ZM15.328,9.5a.116.116,0,0,1-.018.02l-.016-.008a.142.142,0,0,1,0-.022Zm-.074-.063c.014,0,.018.012.011.023a.05.05,0,0,1-.017-.007l0-.012ZM9.6,5.4a.234.234,0,0,1,.126.094c.018.023,0,.026-.045.02A.228.228,0,0,1,9.633,5.5c-.016-.018.016-.012.043-.008a.207.207,0,0,1-.019-.025c-.087-.037-.254-.077-.163-.111C9.556,5.331,9.567,5.385,9.6,5.4Zm-.772-.368c.01,0,.009.014.012.021-.018-.006-.037-.01-.054-.017s-.027-.018-.011-.02A.279.279,0,0,1,8.831,5.034ZM8.7,4.974a.058.058,0,0,1-.023,0,.061.061,0,0,1-.014-.01c.005,0,.009,0,.016,0C8.706,4.964,8.714,4.97,8.7,4.974ZM9.167,4.7s-.009.007-.014.01L9.129,4.7c-.02-.011-.02-.017,0-.018A.229.229,0,0,1,9.167,4.7Zm-1.1-.637h0l0,0a.117.117,0,0,1,.084.041l-.014.006a.132.132,0,0,1-.07-.047l0,0,0,0a.155.155,0,0,1-.093-.041s.02-.009.025-.008A.118.118,0,0,1,8.067,4.066ZM7.815,3.92l0,0c.04.012.073.026.081.044,0,0-.017,0-.021,0a.11.11,0,0,1-.06-.046l0,0,0,0,0,0,0,0a.075.075,0,0,1-.047-.009s0-.009.006-.013l.041.022Z"/><path class="cls-1" d="M.09,1.954c0,.022-.007.04-.03.047l-.033.028A.069.069,0,0,1,0,2.081l.033.062a.018.018,0,0,1,.014.022l.084.125.013.022a.026.026,0,0,1,.005.038L.2,2.424c.048.012.062.06.093.09a.08.08,0,0,1,.049.029.054.054,0,0,1,.051.021.028.028,0,0,1,.034.01c.063,0,.049.058.062.1h0l0,.006a.107.107,0,0,1,.039.04L.6,2.787A.027.027,0,0,1,.632,2.8h0a.047.047,0,0,1,.044.03L.7,2.849a.056.056,0,0,1,.048.029H.752l0,.008a.075.075,0,0,1,.054.034.087.087,0,0,1,.062.053H.878v.007a.1.1,0,0,1,.056.068.055.055,0,0,1,0,.026l.022.068A.032.032,0,0,1,1,3.164c.009,0,.014,0,.015.013.046.015.048.081.1.087h0a.018.018,0,0,1,.025.017c.016.012.01.023,0,.034a.158.158,0,0,0,.068.094c.052-.048.059-.052.081.018a.064.064,0,0,1,.01.033l.007,0,0,.01.014.02h.008l0,.008c.029,0,.052-.037.085-.015a.014.014,0,0,1,.018,0c.027-.017.037,0,.049.021a.059.059,0,0,1,.048.031.044.044,0,0,1,.046.03.019.019,0,0,1,.016.014.026.026,0,0,1,.034.013h.009l0,.008h0l.037.021h0a.218.218,0,0,1,.131.087l0-.006h.008c.007-.02.012-.042.041-.026h.011l.006.008a.066.066,0,0,1,.052.038h0a.049.049,0,0,1,.019.01A.3.3,0,0,1,2,3.79H2a.055.055,0,0,1,.022.014.339.339,0,0,1,.07.076l.012,0a.118.118,0,0,1,.049.045c.018,0,.023.018.028.033a.031.031,0,0,1,.037.014h0l.011,0a.09.09,0,0,1,.05.046l.016.019c.019,0,.04,0,.05.026a.368.368,0,0,1,.129.092c.036,0,.036.04.061.052.014-.006.025,0,.032.011s.022.022.029.036c.047,0,.049.051.081.068.037,0,.035.04.056.057a.018.018,0,0,1,.018.019l.03.038h0c.088.06.119.165.188.24h0A.194.194,0,0,1,3,4.692h0c.029-.015.037.008.047.027a.019.019,0,0,1,.015.018c.039.009.057.053.1.057s.043.018.036.048h0a.01.01,0,0,1,0,.016.051.051,0,0,1,.012.057.02.02,0,0,1,.009.02l.087.122a.065.065,0,0,1,.05.022.026.026,0,0,1,.033.015h0a.068.068,0,0,1,.05.024c.039,0,.046.028.062.051h.008l0,.008a.082.082,0,0,1,.05.041.018.018,0,0,1,.017.015.055.055,0,0,1,.049.032h0c.014,0,.033,0,.039.017s-.014.028-.026.04l.011.064h0a.054.054,0,0,1,.031.054l.044.061c.04,0,.055.038.08.061a.034.034,0,0,1,.032.015.027.027,0,0,1,.034.009h0c.032,0,.049.006.029.04a.026.026,0,0,1-.007.035A.028.028,0,0,1,3.9,5.7h0a.028.028,0,0,1-.007.035h0c.006.013,0,.024-.009.031a.014.014,0,0,1-.011.016.043.043,0,0,1,0,.038c.007.025.037.045.018.076a.029.029,0,0,1-.008.035.026.026,0,0,1-.009.035.07.07,0,0,1-.02.051.033.033,0,0,1-.007.034.03.03,0,0,1-.015.034.1.1,0,0,1-.029.085.033.033,0,0,1-.012.034c.006.013.008.025,0,.035,0,.047-.026.073-.059.1h0a.075.075,0,0,1,.011.056.025.025,0,0,1,0,.036.03.03,0,0,1,0,.036.044.044,0,0,1-.006.041l.006.006,0,.008a.022.022,0,0,1,0,.034.032.032,0,0,1,0,.035c.015.017.033.033.012.057a.029.029,0,0,1-.008.035A.036.036,0,0,1,3.7,6.71h0c.006.024,0,.029-.026.022h0l-.027.018a.042.042,0,0,1-.01.037c.017.036.058.069.008.11v0c.006.012.01.024,0,.035,0,.036-.034.041-.05.062h0a.026.026,0,0,1-.009.034v0a.058.058,0,0,1-.015.05.086.086,0,0,1-.016.123.012.012,0,0,1-.012.013c0,.019.016.039,0,.057h0a.025.025,0,0,1,0,.015l-.012.041h0l.007.007,0,.008c.015.026-.007.046-.013.068h0l-.037.209a.028.028,0,0,1-.005.036.058.058,0,0,1-.012.07.042.042,0,0,1,0,.039.012.012,0,0,1,0,.018c.011.012.009.023-.006.031a.044.044,0,0,1-.031.028l0,.041a.022.022,0,0,1,0,.016h0c.015.022.045.044-.007.061a.142.142,0,0,0-.044.038.155.155,0,0,0,.041.071l-.02.063h0l.032.04h0c.008.013.011.025,0,.034l.011.021h.009l0,.009.044-.018a.3.3,0,0,1,.026-.094h0l.019-.061c-.015-.079-.015-.079.06-.082A.142.142,0,0,1,3.55,8.1h0a.071.071,0,0,1-.023.06l-.021.091c.033.072.052.009.076-.006A.065.065,0,0,1,3.609,8.2a.024.024,0,0,1,.014-.031V8.156l.008,0a.173.173,0,0,1,.06-.1c0-.027.012-.028.033-.019h0l.008-.005.028-.052A1.119,1.119,0,0,0,3.773,7.9a.064.064,0,0,1,.039-.081l.006-.037a.016.016,0,0,1-.006-.02h0c-.012-.029.016-.031.029-.043l.015-.02,0-.037a.21.21,0,0,1,.046-.106c.036.044,0,.079-.007.115a.073.073,0,0,1-.022.052.02.02,0,0,1,0,.02.047.047,0,0,1-.012.051l-.03.136a.052.052,0,0,1,.005.056c.006.037.05.059.038.1l.007.009-.005.011c.005.02-.012.031-.021.045a.077.077,0,0,1,.01.057h0c.016.05-.047.072-.043.118.034.043-.01.111.046.147l0-.007h.007l0-.007.02-.044a.035.035,0,0,1,.011-.035.028.028,0,0,1,.008-.034.032.032,0,0,1,.008-.035.027.027,0,0,1,0-.036.032.032,0,0,1,.012-.034.029.029,0,0,1,.008-.035c-.009-.024.006-.038.021-.052a1.535,1.535,0,0,0,.067-.306c0-.032.025-.026.041-.034h0c-.012-.015-.007-.025.007-.033h0c-.011-.016-.036-.03-.007-.051h0l.019-.008c.013.01,0,.019,0,.028.007.014.006.025-.009.031h0a.058.058,0,0,1,.01.055c.049.033.066-.015.094-.037,0-.033-.015-.078.048-.07,0-.063.021-.1.095-.09a.264.264,0,0,0,.073-.006l.018-.024a.024.024,0,0,1,.011-.033h0v0A1.524,1.524,0,0,1,4.5,7.3a.017.017,0,0,1,.012-.019.038.038,0,0,1,.007-.037c-.01-.025.011-.038.024-.054-.007-.006-.008-.012,0-.018-.009-.021.006-.033.016-.047A.028.028,0,0,1,4.567,7.1l0-.037a.04.04,0,0,1,0-.019c-.016-.03.013-.036.027-.049a.032.032,0,0,1,0-.035A.027.027,0,0,1,4.6,6.92a.027.027,0,0,1,.008-.034h0a.027.027,0,0,1,.006-.034h0c-.007-.014-.007-.026.006-.035,0-.023.009-.037.023-.051,0-.014,0-.025.013-.031a.014.014,0,0,1,.012-.015l.006-.043-.006-.007,0-.009a.023.023,0,0,1,0-.034.025.025,0,0,1,.006-.035.068.068,0,0,1,.024-.05.029.029,0,0,1,.01-.035l.026-.1h0c-.008-.026.013-.035.026-.049,0-.013-.009-.026.006-.035A.07.07,0,0,1,4.8,6.268a.024.024,0,0,1,.013-.033h0l.005-.015.013-.036a.027.027,0,0,1,.013-.034l.007-.034c-.013-.027.009-.038.024-.051a.033.033,0,0,1,.006-.033L4.855,6c-.031.01-.072.036-.055-.033h0a.027.027,0,0,1,.014-.035h0a.249.249,0,0,1,.075-.148c-.009.067-.062.119,0,.155l.032-.019a.033.033,0,0,1,.011-.037.048.048,0,0,1,.023-.052c.017-.054.039-.031.062,0h0a1.742,1.742,0,0,1,.1.052.055.055,0,0,1,.051.024c.023,0,.031.006.02.028a.028.028,0,0,1-.008.036A.032.032,0,0,1,5.162,6h0V6.03l.063.106a.015.015,0,0,1,.015.015.055.055,0,0,1,.05.032h0a.053.053,0,0,1,.048.028h.009l0,.008a.038.038,0,0,1,.038.02h0a.059.059,0,0,1,.05.022.025.025,0,0,1,.033.011.05.05,0,0,1,.049.029h0a.049.049,0,0,1,.048.026h0a.056.056,0,0,1,.048.028h0a.061.061,0,0,1,.05.021.032.032,0,0,1,.034.009.025.025,0,0,1,.033.011h0a.066.066,0,0,1,.05.019.026.026,0,0,1,.033.012.048.048,0,0,1,.049.029h.008l0,.009a.033.033,0,0,1,.037.019h0a.059.059,0,0,1,.049.024A.028.028,0,0,1,6,6.522h0a.061.061,0,0,1,.05.017.106.106,0,0,1,.087.01h0A.051.051,0,0,1,6.2,6.542h0a.034.034,0,0,1,.017-.011c.03-.03,0-.075.026-.107h0a.075.075,0,0,1,.014-.017.073.073,0,0,1-.007-.058l-.008-.006,0-.009c-.023,0-.024-.014-.008-.027s.051-.036.077-.054a.058.058,0,0,1,.025-.05.035.035,0,0,1,.007-.034c-.008-.017-.015-.034,0-.051,0-.02.013-.026.029-.03a.029.029,0,0,1,.018-.034A.015.015,0,0,1,6.4,6.037.044.044,0,0,1,6.408,6c0-.035-.051-.054-.032-.1h0a.053.053,0,0,1,.026-.05l.01-.034L6.287,5.63l-.011,0,0-.012h0q-.029,0-.018-.027h0l-.009-.008V5.567L6.2,5.512a.049.049,0,0,1-.044-.035l-.011,0,0-.011a.047.047,0,0,1-.049-.032l-.01,0,0-.009c-.026,0-.038-.015-.051-.032-.024,0-.037-.011-.05-.026a.051.051,0,0,1-.049-.023.039.039,0,0,1-.033-.015h0c-.013.007-.025.007-.032-.008H5.85l0-.009a.033.033,0,0,1-.038-.011.029.029,0,0,1-.035-.009.028.028,0,0,1-.034-.01l.034.009h0a.178.178,0,0,0-.033-.009h0A.026.026,0,0,1,5.7,5.264h0a.092.092,0,0,1-.085-.024.031.031,0,0,1-.034-.011.027.027,0,0,1-.034-.009.026.026,0,0,1-.034-.009h0a.119.119,0,0,1-.086-.024,5.551,5.551,0,0,1-.069-.016.031.031,0,0,1-.035-.008.029.029,0,0,1-.034-.007.026.026,0,0,1-.035-.011c-.034,0-.046-.027-.063-.048a.078.078,0,0,1-.063-.049.016.016,0,0,1-.012-.022c-.01-.023,0-.036.018-.05a.024.024,0,0,1,.016-.029.014.014,0,0,1,.011-.016.059.059,0,0,1,0-.056v0a.029.029,0,0,1,0-.035L5.141,4.8c-.041.006-.05-.009-.031-.044a.034.034,0,0,1,0-.036.061.061,0,0,1,.009-.071.031.031,0,0,1,.015-.033c0-.029.008-.05.043-.026h0c.032,0,.044.028.066.042a.016.016,0,0,1,.02-.006l.038-.032a.056.056,0,0,1,.006-.071.068.068,0,0,1,0-.054A.083.083,0,0,1,5.3,4.405h0L5.294,4.4c-.025-.017-.069-.022-.048-.07a.024.024,0,0,1,.011-.034h0a.059.059,0,0,1,.019-.05.037.037,0,0,1,.01-.035A.023.023,0,0,1,5.3,4.173V4.165l.008,0a.075.075,0,0,1,.04-.05h0V4.1l.008,0A.043.043,0,0,1,5.37,4.06a.032.032,0,0,1,.006-.035.03.03,0,0,1,0-.036.05.05,0,0,1,0-.054h0a.031.031,0,0,1,0-.035.056.056,0,0,1,0-.071A.078.078,0,0,1,5.4,3.759a.062.062,0,0,1,0-.056.027.027,0,0,1,.006-.035.064.064,0,0,1,.01-.07.047.047,0,0,1,.018-.069.034.034,0,0,1,.006-.035h0c-.031-.056.025-.091.033-.138h0V3.347l.009,0A.04.04,0,0,1,5.5,3.306h0a.023.023,0,0,1,.008-.031L5.5,3.265c.007-.073,0-.148.075-.2.016-.01.015-.044.021-.068l-.015-.023h0l-.015-.019h0c-.046-.014-.046-.014-.011-.056,0-.026.013-.037.032-.048V2.844l.008,0a.032.032,0,0,1,.021-.035s0-.014.012-.016a.027.027,0,0,1,.015-.034.01.01,0,0,1,.01-.014A.038.038,0,0,1,5.667,2.7a.027.027,0,0,1,.011-.034l-.01.033h0a.122.122,0,0,0,.01-.034h0V2.634c-.009-.025-.041-.044-.017-.076a.051.051,0,0,1,.028-.05.063.063,0,0,1,.025-.05c0-.023.009-.036.024-.049a.034.034,0,0,1,.012-.034l-.014-.062h0l-.008,0V2.3c-.025-.027-.013-.052,0-.075a.034.034,0,0,1,.014-.034.034.034,0,0,1,0-.036.031.031,0,0,1,0-.035.066.066,0,0,1,.017-.069.032.032,0,0,1,0-.036.033.033,0,0,1,.014-.033A.028.028,0,0,1,5.8,1.949a.03.03,0,0,1,.009-.034L5.8,1.949h0c0-.011,0-.023.009-.034h0a.025.025,0,0,1,.007-.034l-.007.034a.205.205,0,0,1,.007-.034h0a.029.029,0,0,1,0-.035.019.019,0,0,1,.01-.031A.015.015,0,0,1,5.842,1.8a.054.054,0,0,1,.031-.051A.053.053,0,0,1,5.9,1.7l0-.012c-.021-.014-.034-.055-.07-.02-.072.067-.107.075-.135.035a.149.149,0,0,1,.042-.174.778.778,0,0,1,.084-.053.213.213,0,0,0,.136-.216c0-.049,0-.1.07-.1l.024-.044h0V1.07A.219.219,0,0,1,6.011.954.194.194,0,0,0,5.952.848a.108.108,0,0,1,.01-.181C5.975.657,6,.656,6,.638c.027-.111.106-.082.18-.068h0A.091.091,0,0,1,6.2.559v0A.023.023,0,0,1,6.2.526h0V.521a.022.022,0,0,1,.006-.03V.486a.025.025,0,0,1,0-.031v0A.024.024,0,0,1,6.222.418h0a.2.2,0,0,0-.06-.077A.023.023,0,0,1,6.129.33L6.1.318,6.129.33h0A.175.175,0,0,1,6.1.318h0C6.056.322,6.057.3,6.056.27h0A.063.063,0,0,1,6.031.247L5.973.2A.03.03,0,0,1,5.941.181h0c-.012,0-.022,0-.029-.009A.016.016,0,0,1,5.892.161a.035.035,0,0,1-.037-.01A.022.022,0,0,1,5.824.14l-.01,0,0-.01A.071.071,0,0,1,5.755.1a.028.028,0,0,1-.033-.01A.03.03,0,0,1,5.689.078L5.721.09h0a.019.019,0,0,1,.013,0,.029.029,0,0,0-.013,0A.175.175,0,0,0,5.689.078h0A.026.026,0,0,1,5.655.07h0a.083.083,0,0,1-.083-.03A.078.078,0,0,1,5.512.021.019.019,0,0,1,5.486.007.1.1,0,0,0,5.448,0a.018.018,0,0,1-.021.008.021.021,0,0,1-.033,0,.057.057,0,0,1-.054,0h0a.03.03,0,0,1-.039,0,.012.012,0,0,1-.018.005.047.047,0,0,1-.054.01h0a.055.055,0,0,1-.056.011.082.082,0,0,1-.077.018h0a.057.057,0,0,1-.056.013L4.954.117h0L4.935.134h0C4.92.154,4.91.14,4.9.13L4.862.124h0L4.8.159l-.16.118c-.012.068-.038.016-.06.007-.024.009-.037-.008-.05-.023a.068.068,0,0,1-.054,0h0a.067.067,0,0,1-.058.012A.014.014,0,0,1,4.4.281a.051.051,0,0,1-.054.01L4.32.3h0a.072.072,0,0,1-.075.026A.42.42,0,0,1,4.06.424L4,.459H4c-.04.022-.073.06-.124.061h0l0,.007-.008,0a.062.062,0,0,1-.076.021.059.059,0,0,1-.081.027.013.013,0,0,1-.019.006.023.023,0,0,1-.033,0,.063.063,0,0,1-.055,0h0a.052.052,0,0,1-.056.01c-.018.013-.036.025-.06.011A.012.012,0,0,1,3.464.61a.042.042,0,0,1-.058.013c-.011.012-.021.026-.04.023a.077.077,0,0,1-.061.016h0L3.3.67l-.01,0a.345.345,0,0,1-.1.051.1.1,0,0,1-.025.007L3.13.745C3.094.77,3.067.815,3.012.8h0a.251.251,0,0,1-.06.021.022.022,0,0,1-.016,0h0A.051.051,0,0,1,2.88.826a.191.191,0,0,1-.1.041c-.009.013-.019.024-.037.021-.026.016-.048.041-.083.03h0a.041.041,0,0,1-.037.018.094.094,0,0,1-.075.03c-.033.018-.063.046-.1.039h0l0,.007-.008,0a.034.034,0,0,1-.051,0L2.359,1,2.324.988,2.359,1C2.347.994,2.335.992,2.324.988h0L2.157,1.1c-.01.053-.038.025-.062.014h0l-.039.018c-.058.049-.132.074-.186.129,0,.012-.008.017-.02.016a.045.045,0,0,1-.056.012.2.2,0,0,1-.1,0,.01.01,0,0,1-.017,0c-.024.014-.038-.005-.054-.016,0,.007-.009.008-.016,0a.028.028,0,0,1-.038,0,.012.012,0,0,1-.017.006.148.148,0,0,1-.1.043h0l-.134.09c0,.029-.025.035-.051.033h0a.017.017,0,0,1-.019.011c-.036.022-.067.057-.116.047h0c-.021.007-.035-.006-.049-.018a.072.072,0,0,1-.059.007l-.04.02c-.022.015-.042.037-.073.022h0c-.022.009-.036-.005-.05-.017a.064.064,0,0,1-.054,0,.069.069,0,0,1-.06.013c-.005.01-.012.019-.025.017l-.033.057h0c-.008.054-.051.053-.09.058-.065.025-.112.087-.186.093h0c0,.008-.009.011-.017.007A.1.1,0,0,1,.315,1.8l-.06.038ZM3.952,7.361a.016.016,0,0,1,0,.028c-.005,0-.016.01-.02.008a.017.017,0,0,1,0-.027Q3.939,7.354,3.952,7.361Zm-.308.148-.005.048h0c.069.054.069.056,0,.138a.02.02,0,0,1-.007.034h0l0,.019-.015,0,.012-.015h0c-.013-.014-.009-.025.006-.034h0c0-.058-.051-.11-.024-.172a.34.34,0,0,1,.041-.163A.253.253,0,0,1,3.644,7.509Zm1.944-2.2a.19.19,0,0,1-.011.156c-.023.031-.065.026-.125.029a.229.229,0,0,0,.006-.211C5.512,5.276,5.572,5.235,5.588,5.305Zm-1.2-.191.02.01s-.009.014-.014.015a.025.025,0,0,1-.019-.011C4.369,5.119,4.375,5.113,4.386,5.114ZM1.781,3.1l0-.011.012,0,0,.011Zm2.36-1.459c-.074.036-.074.036-.1-.065a.519.519,0,0,1,.17-.006c.021,0,.043.01.04.037s-.022.022-.039.018A.1.1,0,0,0,4.141,1.642Zm-1.079.794c-.01,0-.011-.012,0-.021l.018,0a.051.051,0,0,1,0,.022A.1.1,0,0,1,3.062,2.436ZM2.136,3.514a.961.961,0,0,1-.112-.127h0c-.034,0-.041-.035-.064-.048s-.051-.035-.066-.064c.087-.026.087-.026.118.028l.008.011c.022,0,.042,0,.049.025a.124.124,0,0,0,.1.1c.047.008.05.058.085.082C2.21,3.551,2.172,3.559,2.136,3.514Zm.708-.188c-.1,0-.2.041-.291-.046A.224.224,0,0,0,2.318,3.2c-.037.014-.055-.041-.091-.023-.019.016-.039.014-.05,0S2.19,3.15,2.2,3.14s.036-.012.055-.011a.429.429,0,0,1,.185-.059.137.137,0,0,0,.088-.036.2.2,0,0,1,.227-.012.05.05,0,0,1,.025.063c-.007.022-.006.049.02.05.092,0,.041.1.091.134C2.91,3.284,2.876,3.326,2.844,3.326ZM3.256,4.5c0-.009.006-.022.009-.032a.066.066,0,0,1,.069.045c0,.006-.007.027-.014.028C3.285,4.547,3.266,4.525,3.256,4.5Zm1.205.336a.384.384,0,0,1-.025.15c-.033-.038-.117-.03-.095-.1C4.358,4.822,4.425,4.873,4.461,4.833Zm-.974-.777a.062.062,0,0,1,.082.029.418.418,0,0,0,.05,0c.113,0,.113,0,.172-.113.039.042.025.095.036.14.025.1.024.11.123.113.046,0,.07.043.115.039a.106.106,0,0,1-.006.037c-.023.037-.046.076,0,.109a.127.127,0,0,0,.147-.047c.041-.091.08-.182.118-.275.013-.034.023-.065.068-.038h0c.037-.018.085-.02.084-.1.053.088-.028.112-.036.16.041.08,0,.154-.024.225a.059.059,0,0,0,.027.081c.03.018.056,0,.066-.033s.03-.047.064-.028l.018-.017c.024-.023-.007-.1.051-.076.042.015,0,.064-.008.1a.065.065,0,0,1-.011.022l-.141.4c-.13-.077-.239-.173-.363-.25a2.182,2.182,0,0,1-.4-.329.657.657,0,0,0-.13-.093A.105.105,0,0,1,3.5,4.087c-.017,0-.032,0-.035-.019S3.474,4.05,3.487,4.056Zm-.047.022c-.049.059-.132.039-.163.1.011.034.04.029.063.028a.1.1,0,0,1,.1.047.871.871,0,0,0,.32.286c.047,0,.059.036.069.075-.035.005-.051-.024-.074-.037-.036.018-.062.077-.114.012-.026-.034-.075.006-.116-.009a.983.983,0,0,0,.165.237.033.033,0,1,1-.044.048.588.588,0,0,0-.164-.15.044.044,0,0,1-.01-.065c.012-.02,0-.02-.021-.022-.056,0-.057-.008-.041-.068,0-.013,0-.024,0-.032-.074-.06-.1-.156-.168-.221a.08.08,0,0,0-.088-.022c-.028.011,0,.045,0,.068l.022.011c.031.014.057.032.054.071,0,0-.01.013-.016.014-.044.005-.049-.035-.067-.06L3.12,4.372h0C3.028,4.338,3,4.3,3.027,4.226c.01-.029.01-.049-.009-.066-.049-.043-.1-.086-.15-.13C2.844,4.008,2.816,4,2.8,3.961s-.071,0-.079-.058c-.007-.045-.1-.011-.1-.08a.133.133,0,0,1-.119-.1c0-.006-.018-.013-.019-.012-.039.044-.052.034-.043-.02s.039-.039.066-.024.061.043.093.063.057.062.1.066h0a.019.019,0,0,1,.014-.011c-.007-.022-.034-.045-.005-.066s.036.011.049.024a.775.775,0,0,0,.069.071.539.539,0,0,0,.195.126.324.324,0,0,1,.172.165C3.277,4.1,3.347,4.015,3.44,4.078Zm-.265-.406c.028,0,.027.01.052.107-.118-.013-.228-.054-.345-.064-.044,0-.029-.075-.056-.117A1.921,1.921,0,0,1,3.175,3.672ZM3.129,3.46l.009,0,0,.009-.009,0Zm.631-.14c.005-.006.012,0,.016.006l0,.009-.01,0ZM3.626,3.7h.008l0,.006ZM4.56,2.427c.01.019,0,.041-.02.053s-.046,0-.061-.018a.027.027,0,0,1,.007-.042C4.511,2.417,4.541,2.392,4.56,2.427Zm-.136.114c.054.056.091.125.192.072a1.14,1.14,0,0,1-.181.68A3.041,3.041,0,0,1,4.156,2.9c-.029-.042,0-.077.027-.1a.281.281,0,0,0,.071-.143c.03-.107,0-.155-.113-.169l-.047,0V2.219a.1.1,0,0,1-.009-.034c0-.027.016-.053.043-.041s.016.04,0,.059a.051.051,0,0,0,.043.039c.031.006.073,0,.052.058a.026.026,0,0,0,.013.032C4.317,2.382,4.359,2.472,4.424,2.541Zm.208-1.083a.666.666,0,0,0,.288-.112.3.3,0,0,1,.218-.06c-.089.264-.238.5-.342.769-.089-.093-.14-.2-.219-.279A.146.146,0,0,0,4.5,1.717c-.016,0,0-.067-.051-.071s-.033-.034-.044-.053c-.036-.061-.031-.078.036-.095A1.6,1.6,0,0,1,4.632,1.458Zm.184-.268.023,0h0a.1.1,0,0,1,.073-.02h0c.012,0,.031,0,.033,0s0,.021-.018.024l-.1.033h0c-.037-.008-.086.058-.1.008S4.789,1.217,4.816,1.19Zm.115-.131s.012.006.018.01,0,.016-.007.018-.023,0-.024-.012S4.925,1.06,4.931,1.059Zm-.064.019,0,.011-.01,0,0-.01ZM4.8,1.1l0,.017-.01,0a.012.012,0,0,1,0-.02C4.786,1.1,4.794,1.1,4.8,1.1Zm-.281,0a.2.2,0,0,1-.016.014l-.011,0L4.5,1.1Zm.154.027a.022.022,0,0,1,.02-.01c.017-.013.033-.008.037.011s-.008.019-.021.01c-.028.01-.047.049-.085.026h0c-.016.029-.066.06.007.082a.029.029,0,0,1,.048,0s0,.016,0,.019-.021,0-.03,0a2.706,2.706,0,0,1-.374.118c-.067.02-.072-.031-.1-.073Zm-1.114.6h0A.064.064,0,0,1,3.6,1.712c.038-.009.076-.032.124,0-.038.033-.077.02-.115.013L3.6,1.712l0,.006,0,.005c-.014.017-.029.037-.052.011v0h0l0,0-.039.017V1.733A.026.026,0,0,1,3.556,1.734Zm.736-.547c.007,0,0,.012-.006.016l-.008,0c0-.005,0-.009,0-.013Zm-.071.022a.167.167,0,0,1-.012.016l-.01,0a.167.167,0,0,1,.012-.016Zm-.075.023-.006,0V1.228Zm-.354.239,0,0V1.467Zm-.339-.029c.024,0,.026.015.025.029,0,.04-.01.08-.016.12.007.014,0,.026-.011.032A.117.117,0,0,1,3.309,1.6l.112-.022.015-.022h0c0-.027,0-.055-.007-.083A.029.029,0,0,1,3.453,1.442Zm-.089-.115c0,.008-.008.023-.016.028a.03.03,0,0,1-.024,0c0-.026-.007-.037.006-.045A.021.021,0,0,1,3.364,1.327Zm-.322.239c.038-.01.05.044.087.033a.24.24,0,0,1,.156.005.155.155,0,0,1-.14.016c-.048.015-.035.065-.053.1,0,.046.038.047.073.046.079,0,.158-.008.237-.009.045,0,.09.008.067.069-.016.045.034.067.026.106a.233.233,0,0,1-.108.009c-.02-.026.007-.047,0-.069,0-.037-.014-.065-.062-.049a.23.23,0,0,1-.074.006c-.116,0-.131.027-.091.145.034,0,.067,0,.1-.006s.048,0,.071.005c.027.041,0,.083.006.123a.321.321,0,0,1,.019.031c0,.007.006.02,0,.022s-.018,0-.024-.012-.013-.021-.019-.031c-.049-.041-.119-.045-.161-.1-.1-.054-.1-.055-.071-.154.015-.048.019-.085-.024-.118a.268.268,0,0,1-.16-.052c-.05-.026-.11.034-.173-.009A1.059,1.059,0,0,1,3.042,1.566ZM2.657,1.3c.11-.035.22-.068.33-.1A5.444,5.444,0,0,0,3.54,1a.156.156,0,0,1,.049,0,.116.116,0,0,1-.093.132,5.1,5.1,0,0,0-.637.22.338.338,0,0,1-.2.025.05.05,0,0,1-.045-.038C2.611,1.3,2.64,1.309,2.657,1.3ZM2.3,1.855c0-.02,0-.041.023-.041s.012.013,0,.023.022.053-.018.057c-.015,0-.016-.023-.009-.039Zm.131-.045a.088.088,0,0,1,.017,0l.005.01c0,.012-.005.016-.013.008A.061.061,0,0,1,2.432,1.81Zm-.34.094c-.023.012-.046.011-.051-.016s.018-.021.033-.009a.08.08,0,0,1,.059,0l.022-.013h0l.009-.007c.018,0,.042-.043.053,0,.006.025-.014.045-.047.032L2.146,1.9C2.131,1.916,2.109,1.9,2.092,1.9Zm-.212.083,0-.011a.038.038,0,0,1,.054.007l.022,0c-.006.023-.014.011-.022,0C1.915,2,1.9,2.009,1.88,1.987Zm-.558.263c.032,0,.037.022.053.041.059.07.082.16.139.231a2.354,2.354,0,0,1,.142.224c.015.013.034.042.026.047-.025.017-.047,0-.065-.022a.592.592,0,0,1-.228-.145c-.107-.1-.219-.19-.335-.29A.515.515,0,0,1,1.322,2.25Z"/></g></g></g></g></g></svg>