<svg xmlns="http://www.w3.org/2000/svg" width="47.68" height="27.599" viewBox="0 0 47.68 27.599"><defs><style>.cls-1{fill:#fff;}</style></defs><title>flecha-mex</title><g id="Layer_2" data-name="Layer 2"><g id="CONTACTO"><g id="MAPA_BACKGROUND" data-name="MAPA BACKGROUND"><g id="MEX"><g id="FLECHA"><path class="cls-1" d="M5.892,24.958l.093.005.007-.006.019,0a.089.089,0,0,1,.077,0,.182.182,0,0,1,.083,0,.2.2,0,0,1,.122,0,.128.128,0,0,1,.136.022.222.222,0,0,1,.084.006.238.238,0,0,1,.121-.014.253.253,0,0,1,.129-.006.309.309,0,0,1,.125-.013.384.384,0,0,1,.169-.022.235.235,0,0,1,.133-.017l.01-.008h.025a.17.17,0,0,1,.123-.016.26.26,0,0,1,.129-.012.234.234,0,0,1,.129-.013.814.814,0,0,1,.214-.018.268.268,0,0,1,.136-.01.283.283,0,0,1,.132-.013.235.235,0,0,1,.131-.015,1.116,1.116,0,0,1,.259-.032.25.25,0,0,1,.13-.016.335.335,0,0,1,.168-.031h0a.147.147,0,0,1,.085-.01.324.324,0,0,1,.173-.023h.006l.268-.013a.271.271,0,0,1,.136-.015.268.268,0,0,1,.131-.018.244.244,0,0,1,.128-.02.328.328,0,0,1,.164-.036.732.732,0,0,1,.211-.03.252.252,0,0,1,.134-.015.188.188,0,0,1,.087-.01.321.321,0,0,1,.132-.014.15.15,0,0,1,.083-.012.263.263,0,0,1,.129-.017.694.694,0,0,1,.211-.027.269.269,0,0,1,.125-.022l.072-.026c.023-.067.026-.067.2-.039l.083-.009a.358.358,0,0,1,.156-.039.211.211,0,0,1,.126-.034l.007-.007h.021a.168.168,0,0,1,.112-.028.232.232,0,0,1,.116-.025.234.234,0,0,1,.118-.027L12,24.2l.024,0a.224.224,0,0,1,.117-.037l.012-.007h.021a.1.1,0,0,1,.068-.014.242.242,0,0,1,.112-.024,1.1,1.1,0,0,1,.208-.085.309.309,0,0,1,.15-.053l.008-.008.021,0a.307.307,0,0,1,.137-.051c.13-.048.18-.124.335-.163a.281.281,0,0,1,.137-.053.27.27,0,0,1,.105-.028.4.4,0,0,1,.14-.048l.012-.01.021-.006a.163.163,0,0,1,.1-.035l.012-.01.02,0a.238.238,0,0,1,.127-.055.418.418,0,0,1,.132-.051.649.649,0,0,1,.136-.059l.029-.007h0a.206.206,0,0,1,.1-.032.22.22,0,0,1,.1-.034.236.236,0,0,1,.092-.033.326.326,0,0,1,.125-.048.2.2,0,0,1,.091-.033.2.2,0,0,1,.089-.037.252.252,0,0,1,.087-.028,3.774,3.774,0,0,0,.171-.066.633.633,0,0,1,.127-.065L15.184,23a.212.212,0,0,1,.084-.041.285.285,0,0,1,.115-.041.585.585,0,0,1,.154-.072.127.127,0,0,1,.028-.006c.039-.02.072-.055.12-.05a.134.134,0,0,1,.084-.013.114.114,0,0,1,.086-.021.112.112,0,0,1,.087-.026.147.147,0,0,1,.1-.024l.009-.008h.013a.117.117,0,0,1,.088-.029c.029-.016.057-.037.089-.016l.079.022c.11-.028.16-.136.289-.141a.137.137,0,0,1,.091-.023.377.377,0,0,1,.127-.049.073.073,0,0,1,.03,0h0a.114.114,0,0,1,.093-.023c.056-.021.1-.055.161-.076a.161.161,0,0,1,.039-.012.189.189,0,0,1,.083-.051c0-.025,0-.038.041-.028.029-.026.093-.027.1-.071-.043-.039-.115-.017-.165-.035a.209.209,0,0,1-.123.007c-.023.019-.052.042-.071.011s.023-.028.045-.036a.1.1,0,0,1,.071,0c.027,0,.053-.027.081-.011a1.111,1.111,0,0,0,.26.012.223.223,0,0,1,.127-.034.124.124,0,0,1,.092-.023.488.488,0,0,1,.2-.08L17.9,22l.018-.005a.8.8,0,0,1,.276-.137l.008-.007.012,0a.149.149,0,0,1,.123-.044c.039-.027.073-.062.136-.049l.012-.006h0c0-.023.014-.031.045-.023h0c.041-.016.073-.048.126-.043.042-.015.073-.048.126-.043.04-.017.073-.049.128-.036a.062.062,0,0,1,.059,0,.943.943,0,0,1,.26-.115.194.194,0,0,1,.127-.041.089.089,0,0,1,.093-.024c.073-.034.149-.065.217-.1.1-.055.236-.062.316-.131s.134-.039.208-.03l.009-.006h0c-.005-.027.006-.043.047-.037l.123-.047a.132.132,0,0,1,.074-.029l.009-.012.019,0a.382.382,0,0,1,.224-.1.179.179,0,0,1,.126-.041.1.1,0,0,1,.1-.021l.013-.01.018,0a.438.438,0,0,1,.161-.082l.031-.008.006-.01.015,0c0-.022.013-.031.043-.028l.009-.012.019,0c.047-.036.1-.014.152-.014h0a.123.123,0,0,1,.091-.023.156.156,0,0,1,.1-.03l.006-.009H21.6a.262.262,0,0,1,.162-.067l.011-.012h.018a.339.339,0,0,1,.194-.094h0l.059-.03h0a.255.255,0,0,1,.152-.068.6.6,0,0,1,.226-.109l.009-.011h.016l.1-.063h0c.08-.133.081-.133.219-.1l.056,0h0l.013-.013.02,0a.223.223,0,0,1,.15-.067.144.144,0,0,1,.121-.039.151.151,0,0,1,.1-.028l.009-.011h.015a.477.477,0,0,1,.189-.092l.011-.01h.017a.421.421,0,0,1,.186-.094.159.159,0,0,1,.091-.054.491.491,0,0,1,.215-.111l.012-.011.018,0a.288.288,0,0,1,.151-.069l.011-.012.018,0c.045-.028.08-.075.147-.067a.424.424,0,0,1,.181-.083,2.3,2.3,0,0,0,.309-.211c-.006-.029.014-.049.046-.063l.032-.022a.374.374,0,0,1,.192-.1l0-.008h.01a.264.264,0,0,1,.152-.067l.012-.011.017,0c.047-.022.086-.056.135-.074a.1.1,0,0,1,.04-.01h0c.036-.02.068-.051.114-.045a1.577,1.577,0,0,1,.241-.143.325.325,0,0,1,.043-.018.07.07,0,0,1,.05-.028.562.562,0,0,1,.166-.1.212.212,0,0,1,.038-.013c.05-.029.089-.078.155-.074a.053.053,0,0,1,.051-.03c.139-.073.236-.2.393-.247h0c.059-.028.114-.068.176-.091a.133.133,0,0,1,.028-.01h0a.721.721,0,0,1,.141-.072.1.1,0,0,1,.033-.009l.032-.018.032-.022a.12.12,0,0,1,.111-.048l.014-.012.017,0a.393.393,0,0,1,.146-.076l.01-.011h.014a.128.128,0,0,1,.091-.036l.008-.009.01,0a.243.243,0,0,1,.114-.05l.011-.011.016,0a.2.2,0,0,1,.109-.048c.081-.034.136-.121.231-.127.057-.027.1-.091.169-.084a.651.651,0,0,1,.23-.13c.108-.071.214-.144.322-.213.049-.032.089-.085.152-.088a.436.436,0,0,1,.141-.078.077.077,0,0,1,.027-.008,1.682,1.682,0,0,1,.35-.219h0a.646.646,0,0,1,.144-.077l.024-.007a.29.29,0,0,1,.169-.088h0a.287.287,0,0,1,.118-.051.054.054,0,0,1,.048-.03.141.141,0,0,1,.088-.034l.008-.009h.011a.146.146,0,0,1,.106-.046.27.27,0,0,1,.137-.064.288.288,0,0,1,.137-.069,1.622,1.622,0,0,0,.253-.17.254.254,0,0,1,.164-.091l.006-.008.01,0h0c.015-.027.021-.067.067-.046.088-.051.155-.107.234-.145l.036-.015a.033.033,0,0,1,.032-.023h0c0-.024.017-.032.038-.024l.049-.035c0-.023.009-.029.029-.018.06-.023.1-.1.171-.09a.05.05,0,0,1,.022-.016c.005-.034.019-.055.056-.04.047-.014.064-.079.114-.087a.047.047,0,0,1,.017,0c.064-.038.117-.1.2-.11h0l.068-.05c.008-.041.046-.052.075-.072l0-.011.011,0h0q.009-.036.039-.024c.063-.043.125-.088.19-.129.033-.021.071-.045.1-.008a.466.466,0,0,0,.174-.123.053.053,0,0,1,.021-.072c.2-.138.4-.274.606-.4l.087-.051c0-.015.012-.021.024-.016h0a.087.087,0,0,1,.074-.051.051.051,0,0,1,.037-.025h0a.158.158,0,0,1,.114-.076.245.245,0,0,1,.058-.034c.033-.02.066-.042.1-.066l.011-.014a.5.5,0,0,1,.165-.149,1,1,0,0,0,.216-.163.1.1,0,0,1,.08-.033l.011-.011h.012a1.969,1.969,0,0,1,.193-.119.29.29,0,0,1,.064-.031.153.153,0,0,1,.069-.044c.234-.141.461-.307.691-.472a.076.076,0,0,1,.025-.028l.047-.054h0a.17.17,0,0,1,.144-.094h0l.011-.01.012,0,.542-.366.011-.013L36,12.332a.231.231,0,0,1,.018-.023.438.438,0,0,1,.089-.074l.009-.014.012-.005a.213.213,0,0,1,.084-.082.068.068,0,0,1,.04-.032h0a.4.4,0,0,1,.148-.123l.052-.039a4.309,4.309,0,0,1,.5-.363L37,11.54h0a.374.374,0,0,1,.116-.1l0-.011.01,0h0a2.831,2.831,0,0,1,.311-.236c.042-.031.089-.079.131-.069h0c.039-.013.082-.05.118-.043l.012-.011h.011l.05-.045c.028-.058.076-.067.114-.1a.092.092,0,0,1,.058-.063.156.156,0,0,1,.07-.051h0a.535.535,0,0,1,.2-.136h0l0,0h0c.017-.028.035-.041.055-.037h0a.429.429,0,0,1,.122-.082.217.217,0,0,1,.058-.052l.114-.1a.15.15,0,0,1,.071-.09,1.08,1.08,0,0,0,.191-.143.1.1,0,0,1,.027-.048.05.05,0,0,1,.026-.05.1.1,0,0,1,.074-.05.084.084,0,0,1,.062-.041.218.218,0,0,1,.034-.034.713.713,0,0,0,.152-.149.2.2,0,0,1,.089-.061c.165-.129.336-.208.5-.353a.138.138,0,0,1,.062-.068h0c.01-.028.023-.039.04-.032l.008-.005h0c.016-.029.033-.041.053-.036l.005,0h0a.4.4,0,0,1,.179-.123.784.784,0,0,1,.225-.182l.121-.085h0a.757.757,0,0,1,.211-.175l.053-.044a.43.43,0,0,1,.121-.123h0c.065-.089.147-.109.217-.177h0c.009-.028.022-.04.04-.031l.011-.013.011,0,.092-.063.112-.086h0c.053-.067.108-.121.169-.116l.061-.041.007-.013.011,0h0a.2.2,0,0,1,.069-.082.134.134,0,0,1,.06-.075c.029-.066.082-.075.121-.117l.028-.027h0c.02-.04.042-.067.071-.051l.076-.055h0a.417.417,0,0,1,.133-.129l.006-.012h.009a.326.326,0,0,1,.137-.128l.012-.017.016-.008c.05-.084.126-.126.179-.205h0c.03-.054.061-.1.1-.079l.01-.012.012,0c.051-.05.111-.05.16-.112h0a.193.193,0,0,1,.054-.082.056.056,0,0,1,.028-.053h0a.041.041,0,0,1,.03-.029l.128-.087.012-.017.015-.008a2.118,2.118,0,0,1,.413-.339l.028-.028c.07-.1.173-.126.245-.225a.063.063,0,0,1,.03-.054l0-.015L43.8,5.9h0a.185.185,0,0,1,.068-.09.116.116,0,0,1,.058-.085l.005-.012h.009a.71.71,0,0,1,.167-.166.117.117,0,0,1,.014-.025.345.345,0,0,1,.107-.105l.012-.018.016-.009a.258.258,0,0,1,.029-.04.667.667,0,0,1,.157-.141l.059-.052a.174.174,0,0,1,.09-.111l0-.015.011,0c.029-.048.079-.062.1-.12l0-.013.01,0a.238.238,0,0,0,.067-.1l0,0c.022-.049.073-.058.09-.113h0c.088-.13.22-.16.309-.288l0-.017.012-.006a.387.387,0,0,0,.065-.093h0c.014-.055.066-.061.083-.111l.008-.018.014-.008a.192.192,0,0,0,.027-.066h0a.461.461,0,0,1,.2-.17l.01-.007c.022-.051.075-.063.091-.121h0c.026-.064.078-.079.116-.121a.055.055,0,0,0,.017-.05c.027-.031,0-.065.014-.1.05-.1.141-.122.2-.2.017-.075.089-.093.109-.165v0c.015-.053.068-.063.081-.118h0c.021-.066.074-.081.11-.123a.078.078,0,0,0,.025-.052l0,0c.021-.068.1-.072.108-.149.042-.088.135-.1.171-.2h0c.008-.056.062-.064.075-.115l.01-.02.016-.01c.01-.056.066-.065.076-.12l0-.017.014-.006c.023-.067.1-.078.111-.157l0,0c.02-.068.091-.078.106-.149h0c.014-.071.088-.078.1-.149h0c.011-.072.089-.078.1-.151v0c.009-.035.036-.056.046-.09l0,0c0-.062.065-.075.074-.132.022-.091.126-.1.136-.2v0a.1.1,0,0,0,.011-.063.46.46,0,0,0,.025-.065.194.194,0,0,0,0-.048c0-.015-.006-.03-.008-.045V.958c0-.032.017-.051.019-.076h0c.009-.048.045-.068.071-.1a.188.188,0,0,0,.029-.039c0-.017.008-.034.011-.051l.006-.025a.167.167,0,0,0,.005-.05V.594a.19.19,0,0,0-.007-.072.289.289,0,0,1-.048-.1c-.011,0-.014-.01-.009-.023s0-.021-.009-.024-.01,0-.012,0a.031.031,0,0,1-.023-.033v0c.006-.071-.053-.091-.056-.151V.2c-.037-.029-.074-.054-.076-.114-.008,0-.012,0-.011-.014a.192.192,0,0,0-.1,0h0c-.02,0-.031-.025-.055-.022h0c-.023.007-.02-.018-.027-.031v0C47.231,0,47.2,0,47.167.005s-.049.041-.075.052L47.044.1c-.032.01-.053.042-.077.07-.051.143-.1.278-.26.282-.035,0-.068.043-.091.086l-.035.041-.013.023a.244.244,0,0,0-.008.051c-.045.3-.022.27-.246.362a.257.257,0,0,0-.035.039l-.013.024a.213.213,0,0,0-.01.049v.023c0,.032,0,.063-.006.094h0c0,.027-.032.05-.025.079a.1.1,0,0,0-.015.053c-.013.027-.039.049-.045.078l0,0c-.016.04-.063.06-.07.107-.044.074-.118.1-.156.188l0,0c-.036.067-.1.091-.133.161a.093.093,0,0,1-.041.046c-.023.042-.07.063-.082.116s-.064.057-.076.106l0,0c-.019.043-.066.059-.077.111l0,0c-.021.043-.066.059-.079.111l0,0c-.016.028-.04.048-.054.078l0,.014-.011.008c-.038.07-.109.088-.141.169a.117.117,0,0,1-.067.059c-.007.012-.014.017-.023.016a.1.1,0,0,0-.039.006h0a.143.143,0,0,0-.106.1c-.023.039-.067.054-.08.106a.454.454,0,0,0-.054.076l-.005.014-.011.007a.4.4,0,0,0-.061.088.884.884,0,0,0-.1.162v0c-.011.031-.04.05-.048.082-.047.082-.124.1-.17.184h0c-.024.062-.086.068-.108.134l0,0c-.014.03-.042.049-.051.082h0c-.04.128-.136.132-.2.211A.368.368,0,0,1,44,4.13a.2.2,0,0,1-.018.029.554.554,0,0,1-.122.128.7.7,0,0,1-.173.179.253.253,0,0,1-.083.1l0,.014-.011,0h0a.157.157,0,0,1-.063.091c-.035.082-.1.109-.147.151l0,.013-.01,0h0a.468.468,0,0,1-.13.138L43.224,5l-.011,0h0a.214.214,0,0,1-.1.11c0,.014-.011.022-.021.023a.15.15,0,0,1-.062.083l0,.015-.011,0h0a.283.283,0,0,1-.089.115.078.078,0,0,1-.006.036c.066-.009.066-.009.036.1-.022-.028-.055-.035-.055-.085h0l-.066.047a.136.136,0,0,1-.055.081.423.423,0,0,1-.146.153h0a3.445,3.445,0,0,1-.357.314l-.008.014a.449.449,0,0,1-.075.091.091.091,0,0,1-.022.058.075.075,0,0,1-.021.059.065.065,0,0,1-.029.059c-.027.067-.063.094-.106.078-.008.013-.015.016-.021.008l-.24.186a.338.338,0,0,1-.082.106.165.165,0,0,1-.052.08.072.072,0,0,1-.034.053.919.919,0,0,1-.236.217.25.25,0,0,1-.018.024.806.806,0,0,1-.131.119.423.423,0,0,1-.282.205.165.165,0,0,1-.086.056l-.013.016-.015.009c-.033.086-.1.094-.146.143a.122.122,0,0,1-.056.078.185.185,0,0,1-.086.1l-.007.014H40.5c-.016.03-.035.044-.056.04h0a.2.2,0,0,1-.023.027.931.931,0,0,1-.138.124.881.881,0,0,1-.43.342l-.051.028c-.054.036-.109.072-.162.11-.074.052-.16.068-.2.208a.107.107,0,0,1-.117.069h0l-.085.047a.113.113,0,0,1-.055.075l-.008.016a.215.215,0,0,1-.071.083.117.117,0,0,1-.059.069l0,.014-.011.005h0a.328.328,0,0,1-.235.159.149.149,0,0,1-.092.064h0c-.023.059-.057.055-.089.059a.146.146,0,0,1-.092.062h0a.585.585,0,0,1-.269.182.136.136,0,0,1-.1.063.26.26,0,0,1-.161.077l-.054.029h0l-.177.122c0,.013-.007.019-.017.019h0a.2.2,0,0,1-.09.1c-.016.037-.034.067-.065.048l-.075.055a.272.272,0,0,1-.046.132.05.05,0,0,1-.025.05l0,0a.093.093,0,0,1-.008.02.051.051,0,0,1-.057.03l-.007.005h0a.393.393,0,0,1-.194.129l-.006.011h-.009c-.016.015-.032.028-.048.042-.07.067-.138.143-.225.142h0l-.083.053a.106.106,0,0,1-.052.07.1.1,0,0,1-.051.072l-.005.012h-.011a.1.1,0,0,1-.064.071.031.031,0,0,1-.024.022.235.235,0,0,1-.112.107c0,.013-.011.02-.022.02a.182.182,0,0,1-.085.088.029.029,0,0,1-.023.02.092.092,0,0,1-.055.068l-.029.021c-.044.043-.07.006-.1,0h0l-.058.033h0a.066.066,0,0,1-.069.017q-.008.015-.018.012a.37.37,0,0,1-.024.029.587.587,0,0,1-.146.116.133.133,0,0,1-.071.055h0a.246.246,0,0,1-.186.123l-.086.049h0a.032.032,0,0,1-.025.022,1.538,1.538,0,0,1-.333.258c-.029.046-.07.054-.108.074a.054.054,0,0,1-.025.045c-.01.032-.02.064-.055.046l-.077.026a.1.1,0,0,1-.031.011l-.008.009-.008-.005-.11.079h0a.352.352,0,0,1-.049.046c-.08.071-.17.121-.252.188-.045.034-.085.083-.14.092-.052.039-.1.087-.165.081l0,.008h-.008c-.086.091-.178.055-.268.071-.006.012-.013.015-.022.009l-.055.038,0,.012-.01,0h0c-.039.078-.11.1-.17.146q0,.019-.021.018a.079.079,0,0,1-.02.027.35.35,0,0,1-.084.079.088.088,0,0,1-.042.066c-.041.084-.119.112-.182.161l-.005.01h-.009c-.035.044-.065.1-.126.089-.02.012-.032,0-.043-.01l-.072.011a.064.064,0,0,1-.05.03c-.058.039-.107.1-.181.089h0a.1.1,0,0,0-.042-.009l-.084.051a1.265,1.265,0,0,1-.246.177c-.038.025-.058-.009-.087-.016l-.055.035a2.242,2.242,0,0,1-.469.329l-.295.215c0,.031-.023.045-.046.06a.113.113,0,0,1-.064.084.226.226,0,0,1-.1.1h0a.3.3,0,0,1-.056.056c-.072.066-.153.122-.23.181l-.026.02a.209.209,0,0,1-.1.038.93.93,0,0,1-.171.1.139.139,0,0,1-.036.012.094.094,0,0,1-.053.039.043.043,0,0,1-.04.029h0a.24.24,0,0,1-.146.106l-.007.005h0a.131.131,0,0,1-.1.076.52.52,0,0,1-.158.09.106.106,0,0,1-.042.015,1.868,1.868,0,0,1-.33.2l-.007.012h-.014a.508.508,0,0,1-.185.1l-.005.01h-.01a.738.738,0,0,1-.238.134.028.028,0,0,1-.028.015.191.191,0,0,1-.09.042.037.037,0,0,1-.018,0,.2.2,0,0,1-.119.053l-.009.011h-.013c-.044.033-.083.08-.144.068a.037.037,0,0,1-.031.015.176.176,0,0,1-.091.044l-.017,0a.149.149,0,0,1-.111.043.276.276,0,0,1-.142.065.285.285,0,0,1-.122.06.069.069,0,0,1-.02,0,.333.333,0,0,1-.15.072.019.019,0,0,1-.025.012.488.488,0,0,1-.213.118.017.017,0,0,1-.024.011.143.143,0,0,1-.112.045.164.164,0,0,1-.112.041.214.214,0,0,1-.121.051.019.019,0,0,1-.025.012.221.221,0,0,1-.125.057l-.007.009h-.012a.418.418,0,0,1-.176.091.647.647,0,0,1-.161.083l-.025.008-.011.007h0a.056.056,0,0,1-.056.038.279.279,0,0,1-.127.087h0c-.052.052-.085.127-.184.125l-.059.033a.049.049,0,0,1-.06.014l-.01.009h-.012a.281.281,0,0,1-.15.069.03.03,0,0,1-.03.015.185.185,0,0,1-.12.052.023.023,0,0,1-.027.013.292.292,0,0,1-.127.063.078.078,0,0,1-.022,0,.043.043,0,0,1-.032.017.465.465,0,0,1-.219.119.063.063,0,0,1-.058.03.058.058,0,0,1-.058.012.02.02,0,0,1-.025.01.093.093,0,0,1-.084.029.187.187,0,0,1-.117.037c-.131.068-.247.155-.372.231-.057.035-.1.1-.177.1l-.01.009H24.9a1.2,1.2,0,0,1-.224.127.226.226,0,0,1-.039.015.179.179,0,0,1-.083.049l-.121.073a.047.047,0,0,1,0,.019c.019.02.054.035.025.077-.044-.012-.056-.056-.1-.059l-.1.021a.374.374,0,0,1-.164.072l-.008.01h-.013a2.506,2.506,0,0,1-.53.31l0,.008h-.011a.211.211,0,0,1-.132.054l-.008.009h-.014c-.047.03-.082.083-.153.067a.217.217,0,0,1-.123.042.037.037,0,0,1-.032.015.123.123,0,0,1-.095.034.02.02,0,0,1-.026.008.048.048,0,0,1-.053.008c-.083.024-.141.091-.228.109l-.009.01h-.015a.219.219,0,0,1-.134.056l-.008.008h-.011a1,1,0,0,1-.223.121.224.224,0,0,1-.039.014l-.061.031c-.1.069-.212.129-.31.2a.49.49,0,0,1-.242.113h0a.061.061,0,0,1-.055.005c-.053.034-.112.06-.164.1a.587.587,0,0,1-.279.115h0c-.064.023-.111.087-.189.076l-.061.045c0,.025-.013.031-.039.022-.074.044-.1,0-.127-.022a.063.063,0,0,1-.053,0,.527.527,0,0,1-.185.077l-.164.1c-.013.048-.053.063-.106.063-.038.023-.072.063-.119.041a.057.057,0,0,1-.051,0c-.068.015-.1.111-.187.087-.063.025-.1.116-.187.087-.058.01-.061.091-.134.083a.079.079,0,0,1-.063.006l-.008.009h-.01l-.015.012-.017.008c-.013.029-.027.056-.072.049a.156.156,0,0,1-.082.016l-.014.011-.017.009c-.013.028-.027.055-.072.047a.384.384,0,0,1-.084.033l-.014.01-.017.01c-.007.017-.03.032-.071.042a1.407,1.407,0,0,1-.155.081.627.627,0,0,1-.155.079.335.335,0,0,1-.089.039.252.252,0,0,1-.09.037.313.313,0,0,1-.09.038.274.274,0,0,1-.092.037.559.559,0,0,1-.126.056.233.233,0,0,1-.093.041.6.6,0,0,1-.138.061.043.043,0,0,1-.027.012,1.1,1.1,0,0,1-.161.086.3.3,0,0,1-.036.014.076.076,0,0,1-.035.018l-.232.142c0,.017-.022.032-.068.045a.692.692,0,0,1-.164.072h0c-.045.018-.066.049-.13.058l-.1.058c.009.018-.045.051-.066.051a1.007,1.007,0,0,0-.27.081h0l-.088.053c.009.007,0,.016-.015.027.01.017-.014.046-.059.039a.326.326,0,0,0-.229.057.576.576,0,0,1-.189.086l-.015.009-.02.009c0,.008-.011.015-.034.02a.31.31,0,0,1-.13.049.055.055,0,0,1-.039,0h0l-.123.04-.008.007-.018,0a.109.109,0,0,1-.072.016.151.151,0,0,1-.072.011h-.005l-.184.051a.06.06,0,0,1-.037.017.329.329,0,0,1-.139.051h0c-.05.016-.064.046-.143.052h0a.761.761,0,0,1-.262.089c0,.005,0,.009-.019.011h0c.007.016,0,.031-.069.035a.071.071,0,0,1-.045,0,2.951,2.951,0,0,1-.408.158h.006a.347.347,0,0,0-.131.053.122.122,0,0,1-.1.029h0L13.9,22.8l-.01.006h0c.007.02,0,.037-.086.043s-.083.058-.185.07c-.079.017-.077.058-.18.067s-.095.071-.23.079h0a.334.334,0,0,1-.193.072v0l-.015,0h0c.014.013.009.023-.045.026a.3.3,0,0,1-.132.034l-.01.007h-.022a.131.131,0,0,1-.08.012.2.2,0,0,1-.082.013.791.791,0,0,1-.258.06l-.006.006h-.021a.184.184,0,0,1-.117.029.386.386,0,0,1-.158.043.319.319,0,0,1-.163.044c0,.008-.016.012-.039.014a.246.246,0,0,1-.117.026h0a.212.212,0,0,1-.117.028h0a.232.232,0,0,1-.122.025.283.283,0,0,1-.134.027c0,.006-.012.01-.033.01a.219.219,0,0,1-.13.034l-.008.006h-.021a1.488,1.488,0,0,1-.375.077c0,.007-.016.01-.037.008a.123.123,0,0,1-.08.009.2.2,0,0,1-.084.008.287.287,0,0,1-.125.021.965.965,0,0,1-.332.047h0a.271.271,0,0,1-.122.013h-.008a.18.18,0,0,1-.08.008.85.85,0,0,1-.2.027l-.107.035h0c.047.023.156.035.142.071A1.753,1.753,0,0,1,9.122,24a1.636,1.636,0,0,0-.495.108h0c0,.011.072.019.016.032a.226.226,0,0,1-.13.015l-.072.028h0c0,.015-.006.032-.041.035-.261.024-.486.075-.739.084a.052.052,0,0,1-.04.007.129.129,0,0,1-.075.007c-.006.007-.017.009-.034.006a.114.114,0,0,1-.079.007.03.03,0,0,1-.032,0,.1.1,0,0,1-.068.006.218.218,0,0,1-.109.007.238.238,0,0,1-.107.007h0a.216.216,0,0,1-.106.012.091.091,0,0,1-.067,0,.168.168,0,0,1-.1.008.131.131,0,0,1-.1.009.128.128,0,0,1-.1.009.223.223,0,0,1-.136.018.142.142,0,0,1-.1.01.272.272,0,0,1-.112.016.055.055,0,0,1-.018,0h0a.058.058,0,0,1-.056,0l-.08.019v0c.024.048.165.03.2.088l.137,0h0a.192.192,0,0,1,.108-.009.191.191,0,0,1,.108-.008.225.225,0,0,1,.109-.011.223.223,0,0,1,.113-.005.205.205,0,0,1,.113-.009A.2.2,0,0,1,7.14,24.5a.146.146,0,0,1,.076,0,.27.27,0,0,1,.118,0c.08-.022.2-.01.272-.039h0a.1.1,0,0,1,.082,0h0a.509.509,0,0,1,.077.006h.009c.291-.035.591-.073.888-.117a.455.455,0,0,1,.277.02c.019.037.1.06.2.08a.171.171,0,0,1,.086-.008l.225-.016c.19-.03.387-.055.626-.072-.124.107-.274.132-.6.1l-.391.056a.105.105,0,0,1-.049.007.141.141,0,0,1-.08.009,8.276,8.276,0,0,1-.976.149h0l-.009.007H7.949a.212.212,0,0,1-.122.016.214.214,0,0,1-.125.016.327.327,0,0,1-.136.019l-.009.007H7.533a.234.234,0,0,1-.127.019c0,.008-.014.011-.037.008a.228.228,0,0,1-.118.018.312.312,0,0,1-.16.028.267.267,0,0,1-.138.016l-.009.007-.021,0a.2.2,0,0,1-.12.014.216.216,0,0,1-.123.009.16.16,0,0,1-.094,0l-.012.006-.021,0a.114.114,0,0,1-.075,0,.218.218,0,0,1-.121,0,.258.258,0,0,1-.12.007.222.222,0,0,1-.117.006h0a.141.141,0,0,1-.088,0l-.015,0-.02,0H6a.1.1,0,0,1-.069,0C5.857,24.9,5.767,24.911,5.892,24.958ZM8.5,24.277c.009,0,.012.011.007.015a.076.076,0,0,1-.066,0c0-.006-.018-.014-.012-.017A.106.106,0,0,1,8.5,24.277Zm.357-.113v.006l-.014,0Zm.048-.04.026.013-.025,0-.025-.015Zm.121-.018c.023,0,.028.01.012.014a.149.149,0,0,1-.025,0L9,24.108A.1.1,0,0,1,9.024,24.106ZM33.13,14.144c.013-.017.02-.034.031-.041A.1.1,0,0,1,33.2,14.1a.15.15,0,0,1-.025.037A.123.123,0,0,1,33.13,14.144Zm-9.409,4.874v.012H23.7l0-.012Zm2.127-1.03c.031.029-.015.052-.043.069a.2.2,0,0,1-.051.012.2.2,0,0,1-.107.026l-.007,0h0a.1.1,0,0,1-.062.03s0-.017,0-.022a.048.048,0,0,1,.061-.008l0,0v0h.007c.033-.016.025-.072.084-.063a.062.062,0,0,1,.032-.014C25.791,18.005,25.814,17.956,25.848,17.988Zm.487-.214c-.132.06-.212.152-.342.151l-.029.028c-.025.026-.066.051-.084.022s.036-.035.062-.047l.036-.016.035-.024c0-.013.012-.018.027-.017A.467.467,0,0,1,26.335,17.774Zm.831-.451c.013.024-.026.042-.051.055a.194.194,0,0,1-.049.01h0l-.1.046c-.046.027-.086.067-.145.064a.388.388,0,0,1-.15.11,1.1,1.1,0,0,1-.277.147.057.057,0,0,1-.047-.008c-.019-.02,0-.036.026-.048l.291-.154c.056,0,.076-.093.145-.059.023-.032.042-.068.095-.068.046-.05.118-.052.173-.085C27.111,17.31,27.148,17.292,27.166,17.323Zm3.085-1.82a.039.039,0,0,1-.052.019h0c-.046.034-.074.093-.147.1a.118.118,0,0,1,.147-.1h0c.015-.014.019-.039.045-.039C30.248,15.483,30.254,15.5,30.251,15.5Zm.366-.228c-.007,0-.018,0-.027,0s0-.02,0-.024a.038.038,0,0,1,.029-.008C30.636,15.25,30.635,15.264,30.617,15.275Zm2.308-.921,0-.023a.026.026,0,0,1,.036,0c0,.006.007.02,0,.024A.027.027,0,0,1,32.925,14.354Zm-1.457.863.006-.01h.014c0,.014,0,.021-.015.018Zm-.106.033c.022-.012.044-.006.043.012,0,.035-.031.028-.053.022S31.344,15.26,31.362,15.25Zm-.2.226c0-.01,0-.019.013-.024s.013,0,.014,0,0,.018-.013.023Zm-.245.132c0-.009.005-.023.011-.026a.7.7,0,0,1,.067-.027c-.017.023-.023.038-.034.044A.128.128,0,0,1,30.912,15.608Zm-.573.273.012,0-.006.01Zm-2.034,1a.132.132,0,0,1,.044-.008l.006,0,0,0,.025-.011,0,.018-.022-.007h0v0h0a.338.338,0,0,1-.041.024C28.3,16.9,28.294,16.883,28.305,16.878Zm-.286.043a.051.051,0,0,1-.063.01c-.024-.02.01-.035.026-.048a.106.106,0,0,1,.083-.028.362.362,0,0,1,.121-.079.189.189,0,0,1,.083-.092c.237-.156.444-.351.7-.489.031-.013.057-.012.07.014h0a.046.046,0,0,1,.023-.015h0c-.009-.028-.052-.061.029-.077.027-.005.059.012.082-.014.1-.11.239-.12.357-.179.092-.036.155-.151.3-.129l-.283.158h0c-.073.092-.235.078-.282.208.059.01.1.046.175-.011a3.65,3.65,0,0,1,.629-.348c.039-.021.076-.04.107-.011s.071,0,.109-.02c.229-.115.454-.274.662-.357a.418.418,0,0,0,.146-.13c-.1-.009-.163.088-.245.081a.036.036,0,0,1,.022-.041,1.85,1.85,0,0,1,.318-.166c.172-.079.341-.175.509-.266.256-.139.522-.243.773-.384a.527.527,0,0,0,.142-.091c.022-.016.043-.027.064-.01a.239.239,0,0,1,.158-.109h0a.494.494,0,0,1,.152-.094c.024-.014.044-.045.087-.025a.22.22,0,0,1-.143.094l-.03.038.03-.038h0l0,0a.165.165,0,0,0-.033.041l-.023.026-.03.021h0c.009.017.036.035.01.052s-.026-.018-.033-.036h0a.1.1,0,0,1-.07.022h0a.609.609,0,0,1-.351.206.322.322,0,0,1-.114.083c-.171.074-.337.168-.506.256-.145.076-.278.175-.416.263-.089.057-.107.191-.236.215-.017,0-.02.033-.022.053s.017.055-.03.067c-.039-.012.018-.1-.044-.077a.369.369,0,0,0-.2.141c-.014.021.017.06-.043.081a.39.39,0,0,1-.059.041c-.022.011-.046.011-.05-.011s.025-.034.043-.048h0c-.05-.085-.122-.014-.179.033a1.01,1.01,0,0,1-.435.212h0a.491.491,0,0,1-.079.046,4.116,4.116,0,0,0-.7.361.524.524,0,0,0-.18.125.53.53,0,0,1-.237.174c-.11.056-.222.106-.333.159a.328.328,0,0,1-.18.068.254.254,0,0,1,.168-.083h0c.129-.095.261-.187.386-.286.041-.032.149-.046.109-.107-.028-.041-.1.028-.155.053a.337.337,0,0,0-.031.021c-.194.139-.426.215-.612.368a.25.25,0,0,1-.069.028h0A.58.58,0,0,1,28.019,16.921Zm-3.393,1.993c0-.005,0-.01,0-.013a.025.025,0,0,1,.016-.008c.015,0,.016.007,0,.017Zm-.516.282a.146.146,0,0,1,.164-.088C24.212,19.13,24.2,19.2,24.11,19.2Zm-.817.569,0-.012a.186.186,0,0,1,.031-.01l0,.013A.1.1,0,0,1,23.293,19.765Zm-.19.045c-.008-.011,0-.019.016-.023l.029,0c-.006.008-.01.019-.019.024A.034.034,0,0,1,23.1,19.81Zm-.061.042,0-.013h.017l0,.013Zm-.128-.033,0-.014a.18.18,0,0,1,.033-.01v.014A.275.275,0,0,1,22.914,19.819Zm-.723.056c-.026-.028-.006-.057.037-.077.108-.05.232-.079.335-.122a4.256,4.256,0,0,0,.711-.328c.041-.028.095-.108.187-.074l.057-.037c-.009-.012-.02-.03,0-.038a.121.121,0,0,1,.1.014c0-.019.009-.054.016-.055.167-.026.284-.147.447-.175-.024-.11-.024-.112.113-.186.113-.061.228-.119.343-.177.3-.149.606-.283.909-.418.024-.011.049-.029.069-.017.067.04.161-.007.228.023l0,0h0a.8.8,0,0,1,.19-.114c.168-.074.331-.157.5-.237.021-.022.043-.043.077-.03.341-.228.716-.4,1.061-.622a.314.314,0,0,1,.155-.032c.086-.026.154-.1.246-.107l.006,0h0a.366.366,0,0,1,.17-.1c-.06.053-.1.1-.17.1l0,0v0h0c-.07.049-.128.12-.223.13h0a.979.979,0,0,0-.273.147,1.076,1.076,0,0,1-.295.2c-.045.026-.107.039-.13.091-.029.027.029.055-.018.078a.074.074,0,0,1-.1-.026c-.14.042-.258.137-.4.176a.269.269,0,0,1-.029.016c0,.033-.025.047-.063.041h0l-.033.021c-.081.045-.16.092-.243.133-.112.055-.226.107-.341.157-.031.013-.074.027-.074-.02l0,0h0c-.026.069-.109.071-.167.1a1.374,1.374,0,0,0-.343.137l-.076.044h0l.032.019h0l.032-.013h0a.046.046,0,0,1,.054,0h0c.013.012.022.023,0,.038h0c-.012.047-.05.063-.1.062h0l-.06.045c-.026.048-.086-.025-.105.029-.029.081-.088.052-.14.043-.037-.007-.073-.023-.08.03.02.02.06.03.044.066,0,0-.02.01-.031.01-.041,0-.041-.024-.044-.048h0a1.093,1.093,0,0,0-.3.141.5.5,0,0,1-.322.1c-.006,0-.028.032-.042.05.013.015.012.028-.012.039h0l-.029.022h0l-.011.014-.018.007-.035.024h0c-.039.033-.1.1-.113.1-.093-.03-.1.052-.151.072-.095.037-.172.046-.236-.019l-.008.008-.013,0c-.012.035.07.049.023.092-.028.03.035.067-.027.1a.445.445,0,0,1-.229.077h0l-.2.113c-.006-.074,0-.074-.073-.075,0,0-.251.066-.257.069a4.164,4.164,0,0,0-.413.187A.083.083,0,0,1,22.191,19.875Zm-4.812,1.839.006-.009,0,.005Zm-.443.506a.1.1,0,0,1,0-.022l.017,0a.08.08,0,0,1,.009.026Zm-.068.027.007-.01c.006,0,.018,0,.018,0s0,.019-.017.017ZM10.037,24.02c-.073-.065.1-.043.192-.047a.175.175,0,0,1,.027-.016c-.027-.006-.059-.011-.038-.023a.22.22,0,0,1,.054,0c.039.008.06.019.035.034a.236.236,0,0,1-.151.043C10.116,24.018,10.087,24.063,10.037,24.02Zm-.789.059c-.014-.008-.009-.014.018-.015l.057,0c-.007.006-.008.014-.02.016A.279.279,0,0,1,9.248,24.079Zm-.112.021c-.006,0-.009-.005-.014-.008a.1.1,0,0,1,.017,0,.089.089,0,0,1,.023,0C9.172,24.1,9.161,24.1,9.136,24.1Zm.32.416c-.018-.007-.016-.013.007-.016l.027,0s.015.012.009.015A.224.224,0,0,1,9.456,24.516Zm-1.292.22s-.025-.013-.021-.016a.157.157,0,0,1,.1,0l0,0h.006a.127.127,0,0,1,.081-.019l.011.01a.113.113,0,0,1-.092.009l0,0H8.245A.114.114,0,0,1,8.164,24.736Zm-.212.023-.046.007s-.007-.012,0-.014a.068.068,0,0,1,.046.007h0l0,0,0,0h0a.109.109,0,0,1,.073-.022s.02.008.018.01-.049.015-.091.012l0,0Z"/><path class="cls-1" d="M.153,24.01l.042.057a.1.1,0,0,1,.064.053c.009,0,.013,0,.014.012h0c.067.033.088.107.14.154.035.018.076.033.063.086h0l.011.065c.013,0,.016.013.017.025a.066.066,0,0,1,.052.033.063.063,0,0,1,.05.02c.018-.007.036-.015.053,0h0c.034,0,.045.025.06.047l.031.032a.079.079,0,0,1,.052.028c.018-.006.035-.013.053,0h0c.05.008.066.052.092.085a.018.018,0,0,1,.014.018h0c.025.007.042.019.036.048l.093.132h0a.149.149,0,0,1,.079.077A.011.011,0,0,1,1.187,25a.03.03,0,0,1,.035.016c.008,0,.012,0,.013.009.019,0,.039-.018.057,0,.008,0,.013,0,.014.009a.188.188,0,0,1,.088.038c.025,0,.039.011.049.032a.016.016,0,0,1,.013.021c.03.071.091.12.127.187l.031.031h0c.026,0,.062-.018.052.035l.115.165h0c.013,0,.025,0,.037,0l-.037,0,.037,0,.022-.006a.034.034,0,0,1,.047.021H1.9l0,.008h0c.042.008.06.045.084.074a.1.1,0,0,1,.06.054.042.042,0,0,1,.028.031h0c.037,0,.048.033.066.057.018,0,.024.017.028.033.038.012.057.046.081.074a.051.051,0,0,1,.049.028h0a.034.034,0,0,1,.015.006.321.321,0,0,1,.049.042h0c.058,0,.067.053.091.09l.027.03a.078.078,0,0,1,.02.016.3.3,0,0,1,.076.083H2.58l0,.009h0a.083.083,0,0,1,.051.037c.018,0,.023.021.029.035.026,0,.04.011.049.033a.013.013,0,0,1,.014.013c.027,0,.04.013.052.032a.053.053,0,0,1,.049.029h0a.06.06,0,0,1,.05.023c.014,0,.025,0,.032.011a.013.013,0,0,1,.015.013.058.058,0,0,1,.066.053.064.064,0,0,1,.064.048h.008l0,.008h0c.048.019.065.066.095.1h0l.044.054c.067.032.1.1.138.155a.07.07,0,0,1,.061.05h0l.017.019a.052.052,0,0,1,.047.029.014.014,0,0,1,.016.015.069.069,0,0,1,.05.031h0a.067.067,0,0,1,.05.019c.018-.009.035-.02.055,0,.023,0,.067-.04.053.027L3.8,27.2l.046.055h0l.036.008c.014-.006.029-.015.036.009h0l.012.022h0l.061.076a.056.056,0,0,1,.048.031h0a.082.082,0,0,1,.065.044.058.058,0,0,1,.049.031h0a.047.047,0,0,1,.048.028.011.011,0,0,1,.014.011.032.032,0,0,1,.036.016h0a.057.057,0,0,1,.05.021.021.021,0,0,1,.031.011.019.019,0,0,1,.017.016.116.116,0,0,0,.037.007.019.019,0,0,1,.03,0,.076.076,0,0,1,.059,0,.086.086,0,0,1,.089,0h0a.026.026,0,0,1,.033.005h0a.193.193,0,0,0,.034,0l.011,0-.011,0H4.6a.029.029,0,0,1,.035,0,.03.03,0,0,1,.035,0,.076.076,0,0,1,.059-.006l.008-.007.011,0a.021.021,0,0,1,.033,0,.035.035,0,0,1,.038,0,.017.017,0,0,1,.022,0c.01-.01.02-.007.029,0h0a.029.029,0,0,1,.035,0l.072-.027a.059.059,0,0,1,.034-.013h0c.01-.024.018-.048.052-.031h0a.193.193,0,0,1,.034,0h0a.025.025,0,0,1,.036,0,.184.184,0,0,0,.082-.05h0a.023.023,0,0,1,.008-.032v0a.024.024,0,0,1,.007-.03v-.005a.023.023,0,0,1,.006-.031v0h0a.022.022,0,0,1,0-.031v0a.044.044,0,0,1-.012-.015h0c-.074-.013-.157-.015-.144-.127,0-.019-.016-.028-.025-.041a.109.109,0,0,1,.056-.174.187.187,0,0,0,.093-.078c.023-.033.04-.074.081-.092l.014-.037v0h0L5.3,26.709c-.068-.028-.043-.077-.027-.124a.214.214,0,0,0-.052-.25c-.024-.021-.035-.054-.058-.079a.148.148,0,0,1,.022-.178c.04-.028.07-.007.114.081.022.045.047.012.072.006l.006-.01a.054.054,0,0,1-.012-.054.056.056,0,0,1-.011-.059.014.014,0,0,1-.007-.02.02.02,0,0,1,0-.033.028.028,0,0,1,.008-.034h0a.186.186,0,0,1,0-.034l0,.034a.025.025,0,0,1,0-.034h0c0-.012,0-.023,0-.035h0l0,.035a.03.03,0,0,1,0-.035.026.026,0,0,1,.006-.035.034.034,0,0,1,0-.036.031.031,0,0,1,.008-.035.066.066,0,0,1,.009-.071.031.031,0,0,1,.008-.035.034.034,0,0,1,.011-.034.032.032,0,0,1,0-.036c-.009-.029-.012-.056.021-.072l0-.008h.008l.036-.054a.032.032,0,0,1,0-.035c-.009-.018-.018-.036,0-.055a.062.062,0,0,1,0-.056.049.049,0,0,1-.009-.056c-.011-.038.026-.045.043-.065l.012-.033h0a.135.135,0,0,0,0-.035h0l0,.034a.026.026,0,0,1,0-.035.038.038,0,0,1,0-.04.011.011,0,0,1,0-.017.027.027,0,0,1,0-.037.015.015,0,0,1-.006-.019.035.035,0,0,1-.007-.041l-.006,0,0-.008c-.014-.017-.026-.033-.013-.056-.018-.052-.018-.052.03-.048h0l.02-.013h0l.022-.017c0-.024.016-.055,0-.07-.05-.074-.019-.143,0-.213l.01,0a.022.022,0,0,1,0-.032v0h0a.038.038,0,0,1,0-.041l-.007-.006,0-.009h0c.009-.046-.031-.1.018-.14h0a.034.034,0,0,1,.007-.035.047.047,0,0,1,.008-.071.063.063,0,0,1,.016-.069.029.029,0,0,1,.006-.036.06.06,0,0,1,.022-.05.077.077,0,0,1,.013-.07.055.055,0,0,1,.02-.068.031.031,0,0,1,.009-.035h0c-.008-.022,0-.037.018-.052a.03.03,0,0,1,.009-.034.031.031,0,0,1,.008-.034.045.045,0,0,1,0-.042l-.006-.007,0-.008h0a.075.075,0,0,1-.019-.061l-.007-.006,0-.008a.022.022,0,0,1,0-.035.036.036,0,0,1,0-.036.06.06,0,0,1,0-.054h0a.025.025,0,0,1,0-.036c0-.052.041-.041.07-.048l.008-.006h0a.082.082,0,0,1,.035-.052.065.065,0,0,1,.019-.051c-.014-.028,0-.049.019-.069L5.828,23.2a.015.015,0,0,1-.016-.012c-.026,0-.048.027-.077.015h0c-.041.01-.039-.012-.03-.04a.03.03,0,0,1,0-.036.06.06,0,0,1,.016-.07.033.033,0,0,1,.01-.035c-.006-.039.008-.05.044-.03l.036-.028a.031.031,0,0,1,.013-.033h0a.06.06,0,0,1,.018-.054.013.013,0,0,1,0-.018.025.025,0,0,1,0-.034c-.008-.017-.016-.035,0-.052,0-.013.007-.018.019-.017a.077.077,0,0,1,.076-.023c.024-.013.045-.036.076-.023a.027.027,0,0,1,.036,0,.032.032,0,0,1,.035.006.03.03,0,0,1,.035.006.032.032,0,0,1,.036,0,.031.031,0,0,1,.035,0,.117.117,0,0,1,.088.008h0a.025.025,0,0,1,.035,0,.029.029,0,0,1,.035,0,.032.032,0,0,1,.036,0,.1.1,0,0,1,.088.007h0a.025.025,0,0,1,.034,0h0a.207.207,0,0,0,.035,0h0l-.035,0a.029.029,0,0,1,.036,0,.028.028,0,0,1,.035,0,.035.035,0,0,1,.04,0l.008-.006.009,0c.012-.011.023-.007.033,0h0a.038.038,0,0,1,.036,0,.052.052,0,0,1,.055,0,.05.05,0,0,1,.055-.007c.019-.011.037-.023.059-.011l.008-.008h.01a.048.048,0,0,1,.058-.013l.008-.008H6.96a.05.05,0,0,1,.054-.016l.063-.035,0-.011.011-.005h0c0-.02.009-.026.027-.019h0l.008-.009h.012l.183-.132,0-.035a.054.054,0,0,1-.006-.056h0c0-.046.051-.046.065-.079a.04.04,0,0,1,0-.038.015.015,0,0,1-.006-.019.029.029,0,0,1,0-.038c-.014-.01-.025-.02-.017-.039-.009-.022,0-.035.017-.048a.035.035,0,0,1,.006-.034.059.059,0,0,1-.006-.056c-.018-.025-.036-.051-.052-.078s-.006-.028.017-.022l.008-.007.01,0a.073.073,0,0,1,.026-.051.083.083,0,0,1-.006-.021h0c-.012-.039.031-.07.013-.109a.041.041,0,0,1-.012-.017h0c-.022,0-.034-.013-.046-.027h0a.105.105,0,0,1-.084-.022.062.062,0,0,1-.053,0h0a.026.026,0,0,1-.034,0,.063.063,0,0,1-.055,0h0a.033.033,0,0,1-.041,0l-.006.007-.009,0a.047.047,0,0,1-.055.009.026.026,0,0,1-.036,0,.058.058,0,0,1-.053,0h0a.025.025,0,0,1-.035,0,.03.03,0,0,1-.035,0,.063.063,0,0,1-.055,0h0a.055.055,0,0,1-.055.009h0a.052.052,0,0,1-.055.007h0a.047.047,0,0,1-.055.01.027.027,0,0,1-.036,0,.062.062,0,0,1-.055,0h0a.038.038,0,0,1-.043,0l-.006.006-.008,0a.051.051,0,0,1-.054.009h0a.054.054,0,0,1-.058.012.016.016,0,0,1-.019.009l-.1.077-.012.032h0a.034.034,0,0,1,0,.036.027.027,0,0,1,0,.036c0,.025-.009.029-.029.018a.054.054,0,0,1-.056,0,1.03,1.03,0,0,1-.11.013h0c-.031.018-.06.031-.057-.025a.05.05,0,0,1,0-.057.033.033,0,0,1,0-.038l-.023-.03c-.073.011-.041.078-.057.145a.25.25,0,0,1-.017-.165h0a.029.029,0,0,1,0-.038h0c.009-.071.038-.032.063-.013l.035-.024a.035.035,0,0,1,.006-.034c-.01-.018-.027-.035,0-.055l0-.035a.028.028,0,0,1,0-.037v-.038a.029.029,0,0,1,0-.016h0a.023.023,0,0,1,0-.035.069.069,0,0,1,0-.056c-.011-.014,0-.024.006-.035s-.023-.034-.006-.055h0l.013-.1a.029.029,0,0,1,0-.037.066.066,0,0,1,0-.055c-.009-.014,0-.025.007-.035A.023.023,0,0,1,6,21.082v-.009l.008,0,.011-.042a.012.012,0,0,1-.006-.018.022.022,0,0,1,0-.034c-.008-.018-.017-.036,0-.055a.024.024,0,0,1,.006-.035h0a.029.029,0,0,1,.006-.035h0a.026.026,0,0,1,0-.035.026.026,0,0,1,0-.036.033.033,0,0,1,.008-.035c-.009-.017-.034-.033-.008-.055a.035.035,0,0,1,.009-.017l.016-.033a.027.027,0,0,1,0-.035c0-.017-.015-.034,0-.05a.011.011,0,0,1,.007-.017c0-.019-.02-.038,0-.059a.039.039,0,0,1,.007-.037.017.017,0,0,1,0-.022,1.593,1.593,0,0,1,.045-.275v0h0a.024.024,0,0,1,0-.035L6.1,20.077a.263.263,0,0,0-.066-.031c-.074-.015-.079-.059-.057-.118-.061-.015-.03-.051-.02-.083-.018-.03-.017-.081-.074-.068,0,.019-.009.039-.029.048h0c.011.011.008.022,0,.032s.008.023-.007.027l-.015-.014h0c-.019-.03.009-.034.024-.045h0a.019.019,0,0,1,0-.033h0c-.012-.014-.037-.017-.027-.047a1.614,1.614,0,0,0,.048-.31c-.01-.018-.019-.037,0-.056a.027.027,0,0,1,0-.035.032.032,0,0,1,0-.036.029.029,0,0,1,.01-.035.032.032,0,0,1,0-.035.027.027,0,0,1,0-.035.033.033,0,0,1,0-.037l0-.048V19.11l-.006,0V19.1c-.065.014-.049.093-.1.121-.019.041.031.084,0,.125h0a.084.084,0,0,1-.03.05c0,.016.015.032,0,.05l0,.011-.01.006c0,.045-.054.05-.072.082a.051.051,0,0,1-.025.05l-.021.138a.049.049,0,0,1-.006.053.023.023,0,0,1-.009.018.065.065,0,0,1,0,.056c-.008.036.015.082-.034.111a.211.211,0,0,1,0-.116l.009-.037L5.6,19.794c-.007-.016-.033-.027-.012-.05h0a.017.017,0,0,1,.013-.016l.007-.037A.064.064,0,0,1,5.6,19.6a3.729,3.729,0,0,1,.012-.07l-.007-.059L5.6,19.465h0c-.023,0-.036-.006-.024-.03a.176.176,0,0,1-.019-.119L5.55,19.31l0-.009a.025.025,0,0,1,0-.034.063.063,0,0,1-.007-.055c-.018-.022-.013-.089-.069-.033l-.014.093a.069.069,0,0,1,0,.064h0a.149.149,0,0,1-.006.117c-.069-.03-.069-.03-.027-.1l0-.064h0a.289.289,0,0,1,.01-.1l-.035-.032-.006.007-.008,0-.018.016c.01.014,0,.024-.008.033h0l-.044.027h0l0,.066a.152.152,0,0,0-.064.051c.009.018.014.04.028.051.042.035.006.045-.016.06h0l0,.016-.013.039a.041.041,0,0,1,.019.037c.012.013.01.024,0,.032a.011.011,0,0,1-.011.014.04.04,0,0,1-.009.038.059.059,0,0,1-.014.07.027.027,0,0,1-.008.035l-.04.209h0c0,.023.012.049-.012.068v.009l-.008,0h0l0,.042a.029.029,0,0,1,0,.016h0c.012.024-.007.038-.017.055.007,0,.009.008.006.016a.087.087,0,0,1-.029.121.059.059,0,0,1,0,.052v0a.025.025,0,0,1,0,.034h0c.007.025.04.043.024.076.009.014,0,.024-.009.034h0c.032.056-.019.073-.047.1a.04.04,0,0,1,0,.038l.02.027h0c.022,0,.03.009.016.03h0a.032.032,0,0,1,0,.036.029.029,0,0,1,0,.036c.011.03-.012.039-.032.049a.033.033,0,0,1-.009.034.022.022,0,0,1-.01.032v.009l-.008,0a.046.046,0,0,1-.008.041.031.031,0,0,1-.01.034.025.025,0,0,1-.01.035c0,.022-.016.034-.03.048h0a.105.105,0,0,1,.021.111c.009.014,0,.025-.008.035a.036.036,0,0,1,0,.036.1.1,0,0,1,0,.09.029.029,0,0,1,0,.036A.034.034,0,0,1,5,21.391a.066.066,0,0,1,0,.055.025.025,0,0,1,0,.035.032.032,0,0,1,0,.036c.006.036-.029.044-.045.065a.039.039,0,0,1-.009.037.013.013,0,0,1,0,.019.02.02,0,0,1,0,.032h0a.027.027,0,0,1,0,.035h0a.029.029,0,0,1-.006.035.028.028,0,0,1-.006.036c.006.039-.013.04-.041.027h0a.026.026,0,0,1-.035-.005.034.034,0,0,1-.036,0c-.031.013-.058.04-.1.029l-.063.041a.055.055,0,0,1-.048.04h0l-.034.055c.007.015.026.029.01.047s-.028,0-.042,0h0a.059.059,0,0,1-.058.012.018.018,0,0,1-.021.008.08.08,0,0,1-.061.02l0,.007-.008,0c-.023.016-.042.045-.076.026a.066.066,0,0,1-.055,0h0a.024.024,0,0,1-.035,0,.065.065,0,0,1-.056,0l-.124.084a.019.019,0,0,1-.016.015.051.051,0,0,1-.031.049c0,.008,0,.012-.01.013h0c0,.031-.011.058-.051.032-.041-.011-.074.023-.113.018a.018.018,0,0,1-.02.011c-.016.015-.032.034-.054.009h0a.127.127,0,0,1-.034,0h0c-.092.045-.158.132-.261.157h0L3.4,22.5a.019.019,0,0,1-.024.011c-.025.009-.037.047-.072.034-.036,0-.057.053-.1.033-.011.012-.021.025-.04.024s-.023.01-.034,0c-.027,0-.043.041-.075.027a.359.359,0,0,1-.154.04c-.017.016-.037.01-.056.007l-.022.011a.087.087,0,0,1-.062.026H2.748a.03.03,0,0,1-.04,0c-.01.012-.02.024-.038.021a.109.109,0,0,1-.061.025.033.033,0,0,1-.014,0,.4.4,0,0,1-.092.046.051.051,0,0,1-.025,0h0a.275.275,0,0,1-.076.035.036.036,0,0,1-.021,0h0a.068.068,0,0,1-.062.018l-.009.005L2.3,22.865c-.033.005-.03-.018-.03-.039l-.007,0v-.008a.214.214,0,0,1-.153.035h0l-.041.006h0l-.007.007-.008,0a.026.026,0,0,1-.037,0,.019.019,0,0,1-.02.008.043.043,0,0,1-.053.011.057.057,0,0,1-.056.012c-.017.011-.034.028-.053,0a.014.014,0,0,1-.015-.012c-.039.009-.046-.036-.075-.044l0,.006-.008,0-.021.014v.01l-.009,0a.064.064,0,0,1-.021.028c-.045.058-.05.051-.082-.012a.156.156,0,0,0-.1.063c.006.014.008.026-.011.032s-.017.015-.03.007h0c-.052-.013-.076.048-.125.046a.013.013,0,0,1-.019.007.032.032,0,0,1-.04,0l-.044.056a.071.071,0,0,1-.012.023.105.105,0,0,1-.077.044l0,.006-.007,0a.084.084,0,0,1-.077.028.075.075,0,0,1-.063.013l-.006.006-.008,0a.055.055,0,0,1-.055.011L.9,23.234a.046.046,0,0,1-.051.012h0a.026.026,0,0,1-.035,0l-.093.042a.1.1,0,0,1-.051.023l-.005,0h0c-.025.03-.032.086-.092.067a.029.029,0,0,1-.036,0,.054.054,0,0,1-.055,0,.083.083,0,0,1-.056.009c-.04.017-.07.057-.119.051l-.07.052a.026.026,0,0,1-.018.034L.2,23.546l-.122.087a.018.018,0,0,1-.021.015L0,23.694a.066.066,0,0,1,.006.058l.022.039a.043.043,0,0,1,.011.054Zm5.405-3.856c0-.01,0-.022.012-.024s.013.008.016.014a.016.016,0,0,1-.012.025C5.564,20.171,5.558,20.166,5.558,20.154Zm-.26-.089a.325.325,0,0,1,.019-.167c0-.068.061-.1.084-.152h0c-.011-.014-.01-.025.006-.034h0L5.4,19.691l.016,0-.01.017h0c.012.013.011.025-.006.034.035.1.034.1-.05.129h0l-.012.045A.252.252,0,0,1,5.3,20.065Zm.941,2.586a.225.225,0,0,0,.07-.2c.055.023.095.034.106.071a.191.191,0,0,1-.045.15C6.33,22.734,6.288,22.674,6.239,22.651Zm-1.067-.245a.023.023,0,0,1,.021,0s.005.012.008.018l-.022,0C5.168,22.421,5.165,22.413,5.172,22.406Zm-3.132.972v.012l-.012,0v-.012ZM3.773,25.62c.016,0,.034.009.029.031s-.03.026-.05.02a.489.489,0,0,1-.157-.066c.061-.084.061-.085.117-.025A.1.1,0,0,0,3.773,25.62Zm-.768-1.162c0,.006-.006.015-.012.018l-.018,0c0-.01,0-.017.012-.018A.116.116,0,0,1,3.005,24.458Zm-.388-1.3c-.042.01-.062.055-.109.046a.123.123,0,0,0-.127.057c-.014.02-.035.017-.055.006l-.01.008c-.049.039-.049.039-.121-.016a.1.1,0,0,1,.084-.036c.027,0,.046-.035.077-.023h0a.928.928,0,0,1,.15-.078C2.557,23.087,2.588,23.109,2.617,23.153Zm.506.461c-.059.016-.045.124-.132.093-.025-.008-.036.017-.037.039a.05.05,0,0,1-.046.051.2.2,0,0,1-.207-.092.138.138,0,0,0-.07-.065.427.427,0,0,1-.152-.121c-.018-.006-.04-.008-.047-.03s-.024-.027-.009-.04a.031.031,0,0,1,.049.013c.027.03.063-.015.093.012a.226.226,0,0,0,.248.01c.118-.047.2.025.288.061C3.13,23.556,3.148,23.608,3.123,23.614Zm.854-1.032c.006,0,.009.027,0,.031a.066.066,0,0,1-.081.018c0-.011,0-.026,0-.033C3.923,22.575,3.948,22.561,3.977,22.582Zm1.076.046c.006-.077.081-.04.126-.064a.374.374,0,0,1-.03.15C5.129,22.663,5.049,22.687,5.053,22.628Zm-1.106.446c.009-.016.025-.015.04-.006a.1.1,0,0,1,.088.006.6.6,0,0,0,.155-.04,2.233,2.233,0,0,1,.493-.165c.143-.027.28-.078.428-.1l-.01.421a.113.113,0,0,1,0,.025c-.007.034.017.095-.028.095-.061,0-.006-.06-.021-.09L5.084,23.2c-.038.006-.053-.012-.049-.049s-.015-.06-.05-.054a.058.058,0,0,0-.054.065c0,.075.009.159-.058.219-.01.048.057.1-.023.163.029-.072-.016-.091-.044-.12h0c-.052.008-.05-.024-.05-.061,0-.1-.007-.2-.012-.3,0-.046-.078-.108-.121-.1s-.047.058-.039.1a.1.1,0,0,1-.008.037c-.04-.02-.077.01-.12,0-.094-.032-.1-.024-.156.062-.026.038-.032.093-.084.118-.016-.123-.016-.123-.12-.167a.371.371,0,0,0-.047-.016.062.062,0,0,1-.087,0C3.948,23.093,3.939,23.087,3.947,23.074Zm-.236-.132a.326.326,0,0,1-.22.094.541.541,0,0,0-.226.048.726.726,0,0,0-.09.042c-.017.008-.039.029-.055,0s.015-.042.029-.06a.019.019,0,0,1-.009-.015h0c-.044-.013-.08.015-.12.024s-.072.022-.109.027-.062,0-.054-.047.027-.058.048,0c0,0,.018,0,.022,0A.134.134,0,0,1,3.073,23c.026-.063.1,0,.122-.039s.078,0,.1-.025.054-.03.084-.042c.062-.024.125-.045.187-.069.023-.008.03-.028.032-.058,0-.08.041-.1.138-.1h0l.021-.013c.025-.017.044-.053.083-.032.006,0,.012.014.01.019-.011.037-.042.045-.076.046l-.024,0c0,.026-.041.046-.02.066a.085.085,0,0,0,.091.011c.086-.037.144-.118.235-.147.013,0,.015-.015.016-.029.007-.061.009-.065.063-.048.021.006.032.009.027-.013a.045.045,0,0,1,.033-.058A.577.577,0,0,0,4.4,22.39a.033.033,0,1,1,.025.06.984.984,0,0,0-.239.163c.043,0,.075.055.112.033.071-.043.075.022.1.052.026,0,.051-.025.082-.009-.023.033-.046.061-.091.046a.872.872,0,0,0-.4.153.1.1,0,0,1-.107.01c-.021-.009-.047-.024-.069,0,.006.07.091.081.116.153C3.816,23.08,3.78,22.979,3.711,22.942Zm-.53.343c.04-.031.052-.1.094-.09.113.032.231.034.345.063-.058.082-.059.087-.087.082A1.986,1.986,0,0,1,3.181,23.285Zm.235.227h.01v.01h-.01Zm.544.355h.011v.01c-.008.008-.015.008-.017,0Zm.012-.4v.008l-.007,0Zm.34,1.51a.028.028,0,0,1,.009-.042c.021-.013.046-.021.063.005s.016.043,0,.056C4.353,25.022,4.334,24.988,4.312,24.977Zm-.269-.009a.026.026,0,0,0-.023.026c0,.057-.038.041-.069.035a.055.055,0,0,0-.055.021c.013.025.014.054-.017.056s-.035-.027-.026-.053a.117.117,0,0,1,.022-.029l.094-.246.045.012c.109.026.156-.007.166-.118a.278.278,0,0,0-.015-.158c-.014-.028-.033-.073.009-.1a3.158,3.158,0,0,1,.4-.269,1.148,1.148,0,0,1-.073.7c-.076-.085-.136-.034-.205,0A.978.978,0,0,1,4.043,24.968Zm-.106.852c-.055-.04-.054-.057,0-.1.018-.014.028-.043.06-.034s.056-.05.073-.048a.152.152,0,0,0,.1-.026c.1-.049.187-.128.3-.183,0,.29.056.562.045.841a.3.3,0,0,1-.182-.134.666.666,0,0,0-.23-.208A1.644,1.644,0,0,1,3.937,25.82Zm.179.344c.034-.04.057.039.094.044h0l.08.065c.011.008.016.02.007.029l-.031-.01h0a.1.1,0,0,1-.061-.044h0c-.008,0-.021,0-.023-.005C4.166,26.209,4.089,26.2,4.116,26.164Zm.12.224a.015.015,0,0,1,.027,0s0,.013,0,.02-.016.006-.02,0A.021.021,0,0,1,4.236,26.388Zm-.057-.022,0-.011h.01v.007A.018.018,0,0,1,4.179,26.366Zm-.064-.049c0-.01,0-.016.011-.017h.011l0,.017C4.129,26.32,4.122,26.317,4.115,26.317Zm-.26-.1,0-.021h.011a.069.069,0,0,1,.01.019ZM3.619,25.9c.043-.029.065-.075.121-.032a2.752,2.752,0,0,1,.307.243.022.022,0,0,1,.03.007s0,.018,0,.02a.03.03,0,0,1-.047-.013c-.076-.006-.04.041-.035.073h0c.043-.007.047.036.069.055.016,0,.026,0,.017.017s-.027.015-.039,0a.022.022,0,0,1-.015-.016Zm-.457-.622,0-.017.031.029h0v0c.031-.016.037.008.045.028l-.007,0-.006,0,.013-.006c.037.007.078.008.1.052-.055.012-.082-.023-.115-.046a.055.055,0,0,1-.032-.035h0A.026.026,0,0,1,3.162,25.273Zm.52.781v-.011h.01c.008.008.008.015,0,.018Zm-.06-.041a.117.117,0,0,1,0-.02h.01a.117.117,0,0,1,.006.02Zm-.058-.046,0-.006.005.005Zm-.245-.349,0-.007,0,0Zm-.33-.137c.013-.025.024-.05.036-.076h0l-.006-.025-.1-.06a.118.118,0,0,1,.139.032c.013.012.01.023,0,.034-.009.04-.017.079-.028.118,0,.013-.013.032-.033.018A.028.028,0,0,1,2.989,25.481Zm-.152.119c-.01-.012,0-.022.011-.044,0,0,.015,0,.021.01a.035.035,0,0,1,.006.032A.022.022,0,0,1,2.837,25.6Zm-.43-.55c.075-.017.11.061.165.054a.278.278,0,0,1,.169.008c.051-.015.061-.051.064-.1.006-.1.01-.1.121-.119.058-.034.125-.012.185-.033l.029-.022c.008,0,.018-.015.027,0s-.006.014-.011.019a.325.325,0,0,1-.029.023c-.021.035-.009.084-.049.112-.022-.006-.046-.012-.069-.02l-.091-.041c-.08.095-.074.123.033.167a.259.259,0,0,1,.067.032c.039.032.059.01.075-.024s-.008-.048.02-.065c.033.014.072.016.1.046-.007.04-.061.042-.062.09,0,.066-.046.057-.088.041-.073-.03-.145-.062-.217-.093-.033-.014-.064-.025-.086.016.007.036-.023.078.016.109a.154.154,0,0,1,.126.065.24.24,0,0,1-.148-.051c-.031-.023-.061.023-.094,0A1.075,1.075,0,0,1,2.407,25.05Zm-.227.273a.051.051,0,0,1,.056-.019.339.339,0,0,1,.174.094,5.077,5.077,0,0,0,.517.432.116.116,0,0,1,.04.157.156.156,0,0,1-.045-.02,5.82,5.82,0,0,0-.446-.384l-.271-.215C2.192,25.357,2.162,25.352,2.18,25.323Zm-.11-.6h0c0-.017.008-.041.022-.034.036.018.007.041,0,.06,0,.013,0,.025-.012.021s-.016-.03-.006-.047Zm.121.073c.011,0,.015,0,.009.012l-.008.007c-.005,0-.01,0-.016,0A.058.058,0,0,1,2.191,24.8Zm-.252-.166.02.017c.034,0,.047.025.032.046-.026.037-.033-.012-.05-.018l-.006-.01h0l-.016-.02a.073.073,0,0,1-.053-.026c-.019.006-.035-.008-.028-.019s.036-.017.053,0S1.932,24.609,1.939,24.633Zm-.169-.158c.011-.006.023-.014.02.009l-.02-.009a.04.04,0,0,1-.053-.013l.006-.01C1.748,24.438,1.759,24.457,1.77,24.475Zm-.695-.643c.145-.052.282-.1.417-.152a.605.605,0,0,1,.265-.054c.024-.012.051-.022.069,0,0,.007-.023.028-.042.035a2.159,2.159,0,0,1-.212.158c-.079.046-.133.122-.213.167-.021.011-.035.034-.064.019A.528.528,0,0,1,1.075,23.832Z"/></g></g></g></g></g></svg>