<svg xmlns="http://www.w3.org/2000/svg" width="51.684" height="15.16" viewBox="0 0 51.684 15.16"><defs><style>.cls-1{fill:#fff;}</style></defs><title>flecha-arg</title><g id="Layer_2" data-name="Layer 2"><g id="CONTACTO"><g id="MAPA_BACKGROUND" data-name="MAPA BACKGROUND"><g id="ARG"><g id="FLECHA"><path class="cls-1" d="M47.784,4.737a.1.1,0,0,1-.053.043h0l-.013.016L47.7,4.8a.139.139,0,0,1-.07.053h0a.233.233,0,0,1-.094.07.254.254,0,0,1-.1.071.225.225,0,0,1-.1.074.107.107,0,0,1-.061.044l-.015.016-.013,0a.17.17,0,0,1-.074.057.214.214,0,0,1-.1.071.2.2,0,0,1-.1.066l-.015.015h-.01a.274.274,0,0,1-.117.076.318.318,0,0,1-.141.08.226.226,0,0,1-.1.062c-.016.016-.027.022-.034.018a.246.246,0,0,1-.11.066l-.017.016h-.012a.345.345,0,0,1-.116.073A.23.23,0,0,1,46.2,5.8a.216.216,0,0,1-.1.065l-.018.017h-.012a8.268,8.268,0,0,1-.846.508.138.138,0,0,1-.067.044.108.108,0,0,1-.043.026l-.336.207c-.23.228-.361.3-.525.3.194-.139.362-.246.527-.345l.183-.131a.184.184,0,0,1,.072-.049c.059-.076.11-.147.1-.188a.456.456,0,0,1,.2-.192c.257-.156.511-.318.757-.477l.007-.006a.569.569,0,0,1,.056-.054h0a.094.094,0,0,1,.061-.055h0a2.58,2.58,0,0,0,.234-.143.266.266,0,0,1,.094-.072.133.133,0,0,1,.061-.045.2.2,0,0,1,.093-.068.209.209,0,0,1,.093-.065.22.22,0,0,1,.09-.068.219.219,0,0,1,.09-.061.193.193,0,0,1,.089-.063.186.186,0,0,1,.089-.062h0l.1-.09c-.008-.067.112-.144.1-.2h0l-.073.036a.059.059,0,0,1-.043.037h0l-.012.013a.277.277,0,0,1-.1.059.148.148,0,0,1-.081.055.241.241,0,0,1-.116.073.136.136,0,0,1-.083.056c-.018.037-.053.046-.085.059a.169.169,0,0,1-.084.059.085.085,0,0,1-.053.041.214.214,0,0,1-.088.059h0a.245.245,0,0,1-.087.062.215.215,0,0,1-.089.064.1.1,0,0,1-.056.039c-.009.013-.018.018-.027.017a.123.123,0,0,1-.066.045c-.011.014-.021.019-.03.018a.12.12,0,0,1-.062.041q-.02.022-.036.021c-.2.155-.406.259-.622.407-.029.02-.046.013-.054,0h0l-.073.024a.234.234,0,0,1-.109.072c-.052.025,0-.028-.009-.036h0a1.624,1.624,0,0,0-.45.234,1.737,1.737,0,0,1-.553.352c-.034-.02.042-.1.063-.145h0l-.1.041a.826.826,0,0,1-.172.107.172.172,0,0,1-.067.045l-.006,0a.282.282,0,0,1-.1.068h0a.981.981,0,0,1-.285.175.283.283,0,0,1-.109.064.19.19,0,0,1-.071.047.124.124,0,0,1-.067.045c-.015.015-.026.02-.033.017a1.441,1.441,0,0,1-.338.18l-.016.014h-.01a.209.209,0,0,1-.122.056c-.016.014-.027.018-.032.014a.287.287,0,0,1-.12.065.217.217,0,0,1-.11.058h0a.218.218,0,0,1-.108.054h0a.249.249,0,0,1-.106.055c-.019.013-.032.018-.039.014a.324.324,0,0,1-.153.07.392.392,0,0,1-.15.069.194.194,0,0,1-.109.052l-.016.012H41.81a.77.77,0,0,1-.237.119.2.2,0,0,1-.071.043.134.134,0,0,1-.069.041l-.017.014H41.4a.291.291,0,0,1-.124.058c-.043.032-.054.028-.051.009h0l-.014.006,0,0a.334.334,0,0,1-.194.067h0c-.109.08-.144.047-.227.086-.086.059-.11.027-.181.064-.087.055-.113.026-.188.064s-.086.042-.093.022h0l-.012,0-.08.041h0a.119.119,0,0,1-.093.04.349.349,0,0,0-.135.043l.005,0a2.887,2.887,0,0,1-.415.139.073.073,0,0,1-.038.025c-.054.039-.07.034-.075.017h0c-.014.008-.021.009-.022,0a.768.768,0,0,1-.258.1h0c-.065.045-.094.031-.143.05h0l0,0a.31.31,0,0,1-.139.049.06.06,0,0,1-.039.011l-.175.078,0,0h0a.148.148,0,0,1-.063.038.1.1,0,0,1-.064.034l-.017.009h-.01l-.121.049h0a.058.058,0,0,1-.032.022.3.3,0,0,1-.131.045c-.021.011-.033.013-.039.007l-.021.006-.017,0a.583.583,0,0,1-.2.055.329.329,0,0,0-.213.1c-.03.034-.067.027-.07.008-.019,0-.032,0-.029-.012l-.1.016h0a1.016,1.016,0,0,0-.26.11c-.016.014-.079.022-.083,0l-.112.018a.4.4,0,0,1-.137.038h0a.664.664,0,0,1-.172.049c-.044.02-.068.02-.081.009l-.269.039a.082.082,0,0,1-.039.009l-.036.012a1.1,1.1,0,0,1-.179.037.039.039,0,0,1-.029.007.585.585,0,0,1-.145.042.252.252,0,0,1-.1.028.551.551,0,0,1-.134.037.259.259,0,0,1-.094.03.32.32,0,0,1-.094.029.224.224,0,0,1-.092.028.31.31,0,0,1-.093.027.665.665,0,0,1-.171.039,1.244,1.244,0,0,1-.171.036c-.038.019-.064.022-.081.013l-.019,0h-.017a.493.493,0,0,1-.087.029c-.029.033-.057.022-.085.009l-.019,0h-.017a.15.15,0,0,1-.074.039c-.03.034-.058.023-.086.009-.007,0-.018.221-.018.221h-.02l-.007-.209h-.012a.079.079,0,0,1-.052.035c-.051.052-.1-.008-.156.022-.048.077-.135.031-.2.052-.049.072-.137.02-.2.052a.057.057,0,0,1-.04.033c-.022.046-.074.038-.118.043-.04.034-.081.049-.122.02l-.192.025a.551.551,0,0,1-.192.059.06.06,0,0,1-.043.029c-.008.039,0,.085-.084.1-.015.024-.029.028-.045.009l-.075,0c-.053.058-.13.039-.194.062h0a.575.575,0,0,1-.287.089c-.064.005-.126.022-.189.03a.057.057,0,0,1-.045.031h0a.486.486,0,0,1-.258.067c-.122.006-.245.03-.368.042l-.067.016a.3.3,0,0,1-.039.014,1.068,1.068,0,0,1-.248.049l-.008.008-.011,0a.231.231,0,0,1-.14.044l-.011.009-.013,0c-.079.041-.166.027-.245.062a.049.049,0,0,1-.047.027.02.02,0,0,1-.025.011.116.116,0,0,1-.094.034.038.038,0,0,1-.035.009.214.214,0,0,1-.121.047c-.044.057-.105.038-.16.046l-.01.009-.012,0a.208.208,0,0,1-.136.043l-.008.007-.01,0a2.556,2.556,0,0,1-.606.1l-.009.009-.013,0a.388.388,0,0,1-.172.049l-.088.045c-.036.034-.017.075-.042.113-.05-.014-.033-.047-.03-.075a.044.044,0,0,1-.015-.013l-.14.021a.178.178,0,0,1-.095.016.31.31,0,0,1-.04.013,1.167,1.167,0,0,1-.254.045l-.009.01h-.013c-.064.047-.134.026-.2.036-.145.021-.289.029-.434.06a.187.187,0,0,1-.113.046.092.092,0,0,1-.083.031.02.02,0,0,1-.026.009.056.056,0,0,1-.052.027.062.062,0,0,1-.064.014.47.47,0,0,1-.245.049.042.042,0,0,1-.036.007.052.052,0,0,1-.019.011.287.287,0,0,1-.138.033.022.022,0,0,1-.029.007.182.182,0,0,1-.125.037.029.029,0,0,1-.033.007.274.274,0,0,1-.16.043l-.008.009h-.013a.052.052,0,0,1-.056.028l-.066.012c-.075.064-.148.028-.222.021h0a.278.278,0,0,1-.153.015.055.055,0,0,1-.067,0h0l-.013,0a.13.13,0,0,1-.025.01.59.59,0,0,1-.177.039.4.4,0,0,1-.193.042l-.008.009-.012,0a.214.214,0,0,1-.132.037.019.019,0,0,1-.027.006.214.214,0,0,1-.125.038.166.166,0,0,1-.114.04.141.141,0,0,1-.114.037.018.018,0,0,1-.026.007.492.492,0,0,1-.239.046.02.02,0,0,1-.027.006.331.331,0,0,1-.161.04.067.067,0,0,1-.018.011.292.292,0,0,1-.132.032.268.268,0,0,1-.15.04.15.15,0,0,1-.114.038l-.014.01a.188.188,0,0,1-.1.024.04.04,0,0,1-.033.008c-.04.048-.1.037-.155.039l-.01.009-.013,0a.2.2,0,0,1-.126.035.053.053,0,0,1-.015.011.183.183,0,0,1-.1.024.028.028,0,0,1-.031.007.725.725,0,0,1-.269.049l-.008.006-.01,0a.526.526,0,0,1-.2.043l-.011.007-.014,0a1.891,1.891,0,0,1-.383.054.132.132,0,0,1-.042.015.511.511,0,0,1-.179.032.132.132,0,0,1-.129.008h-.009a.241.241,0,0,1-.18.012h0a.042.042,0,0,1-.049,0,.091.091,0,0,1-.065,0,.128.128,0,0,1-.037.014.878.878,0,0,1-.192.034.191.191,0,0,1-.1.034l-.033,0c-.1,0-.2.012-.293.008a.343.343,0,0,1-.078-.007h0a.22.22,0,0,1-.138-.018.113.113,0,0,1-.1-.024c-.027,0-.055.007-.074-.017l-.364.023a2.265,2.265,0,0,1-.571.047l-.065.008c-.018.023-.011.063-.056.067a1.224,1.224,0,0,1-.3.022l-.1.014a.11.11,0,0,0-.027.034h0v0c-.049.059-.127.041-.2.047a.062.062,0,0,1-.058.009l-.062.038c0,.017,0,.031-.026.034-.042.047-.1.025-.154.013h0l-.007.006-.009-.005a.479.479,0,0,1-.243-.008.087.087,0,0,1-.075-.024.321.321,0,0,1-.115-.007.066.066,0,0,1-.032-.008.019.019,0,0,1-.028,0,.417.417,0,0,1-.224,0h0l-.01,0-.01-.008-.067.007c0,.009-.011.012-.022.007-.081.044-.128.131-.252.116l-.006.006-.009,0a.252.252,0,0,1-.178.043.389.389,0,0,1-.168.019c-.105,0-.206.019-.313.016a.305.305,0,0,1-.067,0h0l-.135.01,0,.008-.011,0a.105.105,0,0,1-.031.012l-.076.029c-.015.036-.044.018-.072,0a.053.053,0,0,1-.048-.018.213.213,0,0,1-.129.012,1.555,1.555,0,0,1-.422.014.032.032,0,0,1-.033,0h0l-.1.017a.248.248,0,0,1-.221.024h0a.138.138,0,0,1-.09,0,.551.551,0,0,1-.186,0,.168.168,0,0,1-.037-.006c0,.006-.012.007-.022,0a.066.066,0,0,1-.064.031h0l-.066.012h0c-.019.027-.015.073-.078.068l-.035,0a.093.093,0,0,1-.086-.017.029.029,0,0,1-.03,0,.182.182,0,0,1-.122-.013c-.008.007-.018.006-.029,0a.227.227,0,0,1-.155-.011.031.031,0,0,1-.032,0,.1.1,0,0,1-.1-.013h0l-.008,0-.013-.006a.092.092,0,0,1-.085-.023.1.1,0,0,1-.084-.02l-.1.012h0c-.066.057-.167.041-.264.034-.021,0-.042,0-.063,0l-.007.007-.011-.005a.392.392,0,0,1-.232.025h-.008a.05.05,0,0,1-.064.012.065.065,0,0,1-.019-.009h0a.049.049,0,0,1-.052-.022.273.273,0,0,1-.119-.072l-.094.005c-.011.035-.044.023-.08.005a.2.2,0,0,1-.132-.018h0c-.007.006-.016,0-.025,0l-.214.019h0l-.06.012a.258.258,0,0,1-.173.043.139.139,0,0,1-.12.018.6.6,0,0,1-.323.032h0a.153.153,0,0,1-.11.011.085.085,0,0,1-.106.011h0a.15.15,0,0,1-.111.01.331.331,0,0,1-.282.027h0l-.012,0-.012-.007a.12.12,0,0,1-.09-.016.209.209,0,0,1-.108-.018l-.016-.008a.113.113,0,0,1-.091-.022l-.1.018h0a.106.106,0,0,1-.134.022c-.121-.081-.2-.038-.288-.031l-.2.018-.056.012a.879.879,0,0,1-.55.011.9.9,0,0,1-.186-.007l-.034-.006h0q-.021.025-.069.006h0l-.008.007-.015-.007a.182.182,0,0,1-.131-.023.127.127,0,0,1-.093-.024c-.068-.007-.123.028-.2-.017l-.017,0-.02,0a.168.168,0,0,1-.1.011.427.427,0,0,1-.348.023.765.765,0,0,1-.177-.009l-.029-.006a.9.9,0,0,1-.32-.017.073.073,0,0,1-.06-.018.174.174,0,0,1-.091-.029.353.353,0,0,1-.131-.029l-.3.01c0,.01-.008.012-.021.007-.024.041-.068.042-.132.008a.067.067,0,0,1-.06-.026.081.081,0,0,1-.054-.032.1.1,0,0,1-.054-.031.55.55,0,0,1-.116-.022l-.015-.006a3.469,3.469,0,0,1-.475-.013h0a.421.421,0,0,1-.209-.025.129.129,0,0,1-.095-.027l-.081.006h0c.033.039.012.066.013.1-.1-.069-.1-.069-.039-.1a.07.07,0,0,1-.029-.024.276.276,0,0,1-.141-.032h0l-.012,0L6.672,13.3a.143.143,0,0,1-.1-.024.025.025,0,0,1-.031,0,.223.223,0,0,1-.146-.022h0l-.011,0-.013-.008a.448.448,0,0,1-.188-.023h0l-.009,0-.012-.007a.383.383,0,0,1-.21-.022.164.164,0,0,1-.106-.03h0l-.012,0-.013-.008a.246.246,0,0,1-.131-.027.745.745,0,0,1-.247-.028.52.52,0,0,1-.176-.021.146.146,0,0,1-.032-.01.377.377,0,0,1-.21-.026c-.1-.021-.175.037-.287-.036h0c-.029-.02-.062-.017-.092-.031h0c-.059-.037-.11,0-.169-.034h0c-.09-.037-.16,0-.249-.033-.027-.02-.061-.016-.089-.032h0a.846.846,0,0,0-.18-.06.394.394,0,0,0-.1-.029l-.012,0-.012-.007a.437.437,0,0,0-.091-.024c-.043-.032-.086-.016-.129-.031a.146.146,0,0,0-.146-.009l0,0a.1.1,0,0,0-.033.02c-.006.007-.015.007-.029,0a.117.117,0,0,1-.088,0c-.077-.042-.142-.01-.217-.04H3.092L3.08,12.7c-.03-.013-.062-.014-.092-.025h0c-.043-.032-.088-.015-.131-.034h0c-.041-.033-.087-.015-.129-.036l0,0c-.041-.031-.085-.018-.127-.033-.043-.034-.092-.019-.137-.037a.086.086,0,0,1-.061-.01c-.07-.031-.134-.01-.2-.038h0c-.083-.042-.159-.017-.24-.045-.035-.032-.084-.017-.122-.038h0a.363.363,0,0,0-.085-.032c-.013-.011-.024-.028-.045-.031-.013-.027-.052-.025-.07-.045h0c-.022-.023-.042-.047-.065-.069l-.014-.018a.182.182,0,0,0-.04-.032l-.024-.01a.232.232,0,0,0-.052-.007c-.231.071-.192.083-.421-.121A.182.182,0,0,0,1,12.01L.977,12l-.052-.008c-.045-.019-.1-.031-.125-.009-.122.1-.25.027-.381-.051a.191.191,0,0,0-.1,0L.25,11.923c-.028.009-.063,0-.091.007S.1,11.964.1,12v0c0,.014.021.032,0,.041h0c-.02.013-.016.036-.028.052v0A.183.183,0,0,0,0,12.151c.007.007.008.013,0,.018a.14.14,0,0,1,.014.135l0,0c.036.048,0,.1.054.152l0,0a.032.032,0,0,1,0,.04.014.014,0,0,0-.01.008q-.006.011.009.024c.012.007.014.015.008.023a.288.288,0,0,1,.025.106.183.183,0,0,0,.041.06l.015.02a.2.2,0,0,0,.037.035l.021.016c.013.011.026.022.04.032a.208.208,0,0,0,.048.011c.04.007.08,0,.117.031h0c.017.017.041.023.059.039l.014.019.022.041a.247.247,0,0,0,.028.038.621.621,0,0,0,.061.034.1.1,0,0,0,.051.043l-.005,0c.073.072.158.01.233.067.043.037.1.009.141.054l0,0c.029.019.064.018.093.04h0c.053.051.117.006.172.054h0c.056.046.118,0,.173.05h0c.057.046.118.008.177.047l0,0c.06.053.125.013.186.05l.014,0,.014.011c.043.035.092.007.135.043l.019,0,.02.009c.043.031.09,0,.132.04h0c.089.05.169,0,.258.043.059.052.119.007.178.046h0a.086.086,0,0,0,.053.024c.054.009.105-.013.163.024h0c.045.034.092.008.137.038h0c.062.042.129.01.19.057.1.025.183-.017.285.028.031.018.032.06.074.067a.055.055,0,0,0,.044.028c.056.007.106-.015.167.019h0c.05.034.1.01.147.035h.013a.462.462,0,0,1,.263,0h0a.2.2,0,0,0,.063.033l.016,0,.017.009c.046.027.09,0,.135.031h0a.4.4,0,0,0,.11.031l.013,0,.014.01c.15.042.271-.019.422.025h0c.048.032.093.007.141.03h0a.237.237,0,0,0,.113.033l.01,0,.011.008c.054.03.1.009.155.028l.011,0,.013.009a.169.169,0,0,1,.139.028l.079,0a.631.631,0,0,1,.211.009.171.171,0,0,1,.047.012l.019,0,.021.006a.349.349,0,0,1,.149.013.139.139,0,0,1,.026.01.719.719,0,0,1,.236.021h0l.007-.006.012.006a.113.113,0,0,1,.1.029.179.179,0,0,1,.11.026h0l.014,0,.012.01a.061.061,0,0,1,.058.021c.119.03.212-.019.333.018l.039,0a2.115,2.115,0,0,1,.534,0l.017,0,.02.006.154-.015a.04.04,0,0,1,.042,0h0a.059.059,0,0,1,.056.023.2.2,0,0,1,.093.028h0c.077.017.123-.021.194-.016l.011,0,.016,0c.021-.044.074-.029.131-.007h0c.092.027.177.01.27.043l.016,0,.021.006a.328.328,0,0,1,.187.01h0l.008-.005.012.006a.407.407,0,0,1,.184.014h0l.094-.006c.012-.031.046-.024.087-.006h0l.039,0c.057.007.1-.02.168.012a.141.141,0,0,1,.094.02.2.2,0,0,1,.106.019h0l.01-.005.014.007.073-.008c.044-.043.121-.036.2-.018h0l.141,0,.111-.012.007-.008.017,0c.008-.018.025-.017.05,0h0a1.374,1.374,0,0,1,.28,0h0a3.358,3.358,0,0,1,.172.721h.068s.171-.73.275-.7h0l.148-.011a.773.773,0,0,1,.289,0,.4.4,0,0,1,.216-.02H11.6c.012-.016.034-.018.064-.006h.009c.009-.016.027-.016.052,0h0a.138.138,0,0,1,.092.013c.219.007.4-.043.611-.048a.185.185,0,0,1,.107-.011.708.708,0,0,0,.212.018.267.267,0,0,1,.048,0,.085.085,0,0,1,.074-.007.1.1,0,0,1,.089-.01.053.053,0,0,1,.052.022.109.109,0,0,1,.052.02A1.143,1.143,0,0,0,13.3,14.4a.146.146,0,0,1,.113.023l.152,0a.251.251,0,0,1,.077,0,.489.489,0,0,1,.147-.015h0a2.658,2.658,0,0,0,.066-.258h-.741a.552.552,0,0,1,.252-.024h0a.17.17,0,0,1,.091-.006.092.092,0,0,1,.088.013c.054,0,.1-.023.16,0l.07,0,.009-.007H13.8c.023-.029.083-.028.123-.044h0c.028-.036.1-.028.152-.032a2.866,2.866,0,0,1,.407-.017h0l.009,0,.011,0a.389.389,0,0,1,.162.006h0l.064,0a4.489,4.489,0,0,1,.642-.041l.068,0a.413.413,0,0,1,.2,0h0a.077.077,0,0,1,.054,0,.221.221,0,0,1,.121.009l.014,0,.016.005a.447.447,0,0,1,.121,0,.159.159,0,0,1,.03.006l.015,0,.018,0,.679-.067.011-.007h.015a.18.18,0,0,1,.179-.02h0l.074.012a.076.076,0,0,1,.039.006c.294-.021.587-.04.87-.082a.164.164,0,0,1,.084-.011.345.345,0,0,1,.072-.018,1.984,1.984,0,0,1,.235-.032l.01-.008.016,0a.1.1,0,0,1,.087-.027,1.086,1.086,0,0,0,.281-.013.528.528,0,0,1,.233.009l.018,0c.041,0,.082-.007.122-.013a.269.269,0,0,1,.069-.011.165.165,0,0,1,.142-.015h0a.053.053,0,0,1,.048,0,.086.086,0,0,1,.092-.009h0c.008-.012.018-.013.031,0l.1-.017c.245-.038.5-.064.751-.086a.054.054,0,0,1,.065.044.487.487,0,0,0,.222-.018c0-.046.042-.053.082-.058.079-.01.16-.015.239-.022.011-.02.027-.023.047-.007h0l.011,0,.01.007c.037,0,.075-.02.109.007l.088,0h0c.067-.046.153-.029.23-.041a.067.067,0,0,1,.014-.011c.046-.027.1.015.15,0,.019-.038.044-.03.071-.007a.071.071,0,0,1,.029,0c.052-.056.133-.02.2-.042.009-.022.02-.023.036,0l.062,0c.012-.02.028-.022.046-.006h0a.035.035,0,0,1,.041,0,.3.3,0,0,1,.04-.012c.088-.022.18-.022.284-.039.023-.048.055-.02.085-.008h0l.009,0,.011,0a.267.267,0,0,1,.191-.037,1.67,1.67,0,0,0,.317-.031.3.3,0,0,1,.156-.036.274.274,0,0,1,.153-.04A.15.15,0,0,1,23.4,13.2l.009-.008.013,0a.139.139,0,0,1,.093-.031.055.055,0,0,1,.058-.008.3.3,0,0,1,.13-.038h0a.29.29,0,0,1,.193-.041.08.08,0,0,1,.025-.011.653.653,0,0,1,.167-.035h0a1.666,1.666,0,0,1,.428-.057.1.1,0,0,1,.027-.013.474.474,0,0,1,.165-.031c.053-.04.12-.024.181-.031.133-.016.266-.029.4-.043a.672.672,0,0,1,.271-.049c.052-.052.129-.029.193-.046.08-.058.182-.025.27-.051a.214.214,0,0,1,.12-.035l.014-.008.016,0a.246.246,0,0,1,.125-.036l.007-.009.013,0a.142.142,0,0,1,.1-.032l.011-.009.015,0a.388.388,0,0,1,.168-.036l.016-.009h.019a.127.127,0,0,1,.121-.035l.04,0,.038-.006a.082.082,0,0,1,.033-.015.785.785,0,0,1,.161-.037h0a.115.115,0,0,1,.029-.011c.066-.023.136-.027.2-.044h0l0,0a2.367,2.367,0,0,1,.48-.064.06.06,0,0,1,.061-.01c.05-.047.115-.034.174-.043a.149.149,0,0,1,.04-.015.557.557,0,0,1,.2-.033.073.073,0,0,1,.059-.011.259.259,0,0,1,.045-.014,1.688,1.688,0,0,1,.289-.046c.034-.036.08-.032.122-.041h0a.113.113,0,0,1,.04-.019c.051-.018.105-.017.157-.03l.016-.009.018,0a.264.264,0,0,1,.166-.048L29.142,12l.009,0a.387.387,0,0,1,.221-.048l.04,0c.036-.01.064-.008.079.02a2.338,2.338,0,0,0,.389-.037.438.438,0,0,1,.2-.054c.048-.05.107-.037.163-.044l.016-.009.017,0a.286.286,0,0,1,.168-.045l.016-.01h.018a.51.51,0,0,1,.247-.054.161.161,0,0,1,.108-.017.44.44,0,0,1,.213-.049l.013-.01h.016a.475.475,0,0,1,.214-.052l.012-.011.014,0a.156.156,0,0,1,.1-.041.147.147,0,0,1,.123-.05.235.235,0,0,1,.166-.046l.018-.009h.019l.047-.036c.091-.116.092-.116.245-.063h0l.12-.014.014-.011.014,0a.622.622,0,0,1,.254-.063.273.273,0,0,1,.168-.047h0l.067-.015h0a.35.35,0,0,1,.219-.054l.015-.011.016,0a.281.281,0,0,1,.176-.054l.009-.009.01,0a.163.163,0,0,1,.1-.045.128.128,0,0,1,.088-.043h0c.041-.034.07-.087.132-.089l.018-.009.016,0c.021-.023.039-.025.053-.006l.014-.008.012,0a.111.111,0,0,1,.029-.014.438.438,0,0,1,.184-.041l.017-.01H33.8a.1.1,0,0,1,.092-.047.182.182,0,0,1,.128-.051.394.394,0,0,1,.25-.066l.017-.009.016,0a.137.137,0,0,1,.078-.026l.131-.044c.028-.033.048-.027.062,0h.011c.053-.056.093-.116.187-.114.11,0,.225-.084.341-.106.08-.015.162-.041.243-.062a.094.094,0,0,1,.091-.043.2.2,0,0,1,.129-.052,1.023,1.023,0,0,1,.286-.08.069.069,0,0,1,.051-.036c.035-.046.083-.042.126-.056.04-.039.087-.034.13-.049.04-.04.086-.036.13-.05h0c.019-.027.036-.03.052-.011h0l.013,0a.171.171,0,0,1,.141-.052.158.158,0,0,1,.129-.046l.008-.01h.012a.818.818,0,0,1,.312-.075l.018-.008.017,0a.483.483,0,0,1,.211-.067.13.13,0,0,1,.089-.043.248.248,0,0,1,.125-.058,1.143,1.143,0,0,0,.2-.182c.012-.031.049-.03.073-.046a.1.1,0,0,1,.059-.044c.023-.008.057-.026.06,0s-.033.038-.064.038a.229.229,0,0,1-.1.076c-.028.048-.1.079-.109.138.035.03.087-.012.128-.01.023-.033.039-.028.052,0a.312.312,0,0,0,.14-.031c.059-.021.12-.025.18-.046a.114.114,0,0,1,.089-.044h0a.087.087,0,0,1,.027-.017.416.416,0,0,1,.134-.045.148.148,0,0,1,.09-.042c.106-.082.218-.028.326-.08l.048-.07c.012-.038.049-.04.083-.046a.125.125,0,0,1,.09-.036l.009-.009h.013a.158.158,0,0,1,.095-.048.119.119,0,0,1,.087-.036.121.121,0,0,1,.083-.041.136.136,0,0,1,.077-.045c.035-.037.085-.03.129-.04a.174.174,0,0,1,.027-.014.632.632,0,0,1,.172-.045.288.288,0,0,1,.119-.044.218.218,0,0,1,.1-.023l.023-.009a.723.723,0,0,1,.145-.032.218.218,0,0,1,.09-.03.223.223,0,0,1,.091-.031.245.245,0,0,1,.089-.036.224.224,0,0,1,.1-.03.208.208,0,0,1,.095-.033.335.335,0,0,1,.132-.045.256.256,0,0,1,.1-.036.232.232,0,0,1,.1-.035.218.218,0,0,1,.1-.038h0a.111.111,0,0,1,.027-.013.686.686,0,0,1,.148-.044.42.42,0,0,1,.14-.047.252.252,0,0,1,.139-.04l.02-.009h.015a.168.168,0,0,1,.106-.039l.021-.01h.016a.433.433,0,0,1,.145-.054.266.266,0,0,1,.1-.048.29.29,0,0,1,.144-.049,2.563,2.563,0,0,1,.379-.092.3.3,0,0,1,.145-.05l.018-.012h.012a.312.312,0,0,1,.155-.057,1.169,1.169,0,0,1,.224-.071.251.251,0,0,1,.106-.055.118.118,0,0,1,.064-.035l.017-.014.014,0a.228.228,0,0,1,.119-.048l.023-.012h.016a.25.25,0,0,1,.113-.057.239.239,0,0,1,.109-.057.177.177,0,0,1,.109-.053l.018-.013h.01a.209.209,0,0,1,.124-.056.372.372,0,0,1,.151-.074l.073-.047c.122-.14.124-.141.187-.1l.076-.027a.283.283,0,0,1,.115-.066.771.771,0,0,1,.187-.119.27.27,0,0,1,.116-.072.154.154,0,0,1,.074-.046.36.36,0,0,1,.115-.077.193.193,0,0,1,.076-.049.277.277,0,0,1,.119-.078.742.742,0,0,1,.189-.116.322.322,0,0,1,.156-.081.248.248,0,0,1,.116-.069.284.284,0,0,1,.117-.073.3.3,0,0,1,.119-.079l.224-.168,0,0a.331.331,0,0,1,.154-.1.156.156,0,0,1,.075-.05h0a.344.344,0,0,1,.155-.087.258.258,0,0,1,.116-.074,1.174,1.174,0,0,1,.229-.147.264.264,0,0,1,.115-.076.294.294,0,0,1,.115-.077.284.284,0,0,1,.116-.083.865.865,0,0,1,.183-.128.255.255,0,0,1,.113-.075.267.267,0,0,1,.112-.077.178.178,0,0,1,.109-.069l.021-.016h.013a.241.241,0,0,1,.118-.075.415.415,0,0,1,.15-.095.318.318,0,0,1,.109-.072.26.26,0,0,1,.108-.082.248.248,0,0,1,.107-.069.238.238,0,0,1,.062-.061.135.135,0,0,1,.095-.108.219.219,0,0,1,.1-.079.194.194,0,0,1,.064-.058.1.1,0,0,1,.062-.051l.013-.015h-.734a5.2,5.2,0,0,0,.067.61C47.922,4.653,47.846,4.7,47.784,4.737ZM45.471,5.865c.006,0,0,.014,0,.021-.017.024-.036.04-.052.04s-.01-.009-.005-.016A.116.116,0,0,1,45.471,5.865Zm-.39.179-.009.011,0,0Zm-.056-.008-.011.027-.02.015a.214.214,0,0,1,.012-.028Zm-.1.065,0,.013a.177.177,0,0,1-.018.019c-.015.007-.015,0,0-.019A.116.116,0,0,1,44.921,6.1ZM19.948,13.865a.156.156,0,0,1-.043-.012c.012-.007.022-.018.035-.019a.169.169,0,0,1,.05.011A.122.122,0,0,1,19.948,13.865Zm10.407-2.288.009.008-.013.009-.008-.008Zm-2.222.544a.064.064,0,0,1,.033-.01c.04-.044.07,0,.105-.005l0,0,0-.941,0,1h0c.007-.081.025-.093.052-.091.006,0,.015.016.014.016a.1.1,0,0,1-.066.017v0l-.008,0a.2.2,0,0,1-.1.048.18.18,0,0,1-.046.023c-.033.005-.083.017-.078-.025S28.1,12.129,28.133,12.121Zm-.307.063a.024.024,0,0,1,.032,0l.042,0,.037-.011c.028-.008.071-.052.078,0s-.042.041-.078.037l-.041,0c-.1.084-.219.064-.359.1A.461.461,0,0,1,27.826,12.184Zm-1.144.251c.063-.01.12-.054.188-.045.04-.035.078-.019.116-.008.031-.07.106-.012.15-.048l.321-.067c.025,0,.053-.007.05.02a.053.053,0,0,1-.029.036,1.064,1.064,0,0,1-.308.064.38.38,0,0,1-.186.011.265.265,0,0,1-.152.044l-.1.026h0a.239.239,0,0,1-.044.024c-.028.006-.07.017-.075-.01S26.643,12.437,26.682,12.435Zm-3.616.6c.02-.017.039,0,.059,0h0a.12.12,0,0,1,.18-.014c-.063.038-.122.011-.179.014h0a.039.039,0,0,1-.052.019C23.067,13.049,23.062,13.035,23.066,13.032Zm-.445.056c0-.006.018-.012.027-.012s.012.01.019.016-.013.017-.021.018S22.615,13.1,22.621,13.088Zm-2.374.814s-.012-.014-.012-.021.012-.02.029-.021.018.011.018.015A.027.027,0,0,1,20.247,13.9Zm1.708-.284c-.006.008-.015.007-.023,0l.011-.008.011,0Zm.131-.031c-.013.019-.029.041-.054.016s0-.032.025-.036S22.091,13.565,22.086,13.587Zm.263.032c-.013.005-.022,0-.025-.009s.006-.009.01-.01.022,0,.025.01Zm.243-.043a.176.176,0,0,1-.054-.012c.031-.01.049-.018.069-.022s.017.008.024.013A.123.123,0,0,1,22.592,13.576Zm.654-.169-.011,0,.012,0Zm2.211-.526a.253.253,0,0,1-.048.008l0,0,0,0,0,0h0l-.012.019-.014-.011.026-.008,0,0h.006a.169.169,0,0,1,.039-.022C25.46,12.864,25.466,12.877,25.457,12.881Zm.055-.116h0a.34.34,0,0,1-.071.022c-.241,0-.469.09-.706.108-.013,0-.026,0-.037,0-.057.015-.159.009-.153.058.008.073.1.014.151.013.16,0,.32-.017.481-.027h0a.257.257,0,0,1,.181-.043.309.309,0,0,1-.181.062c-.12.031-.238.064-.358.091a.541.541,0,0,1-.294.018.523.523,0,0,0-.218.018,4.094,4.094,0,0,0-.767.168.494.494,0,0,1-.091.015h0a1,1,0,0,1-.47.113c-.074,0-.174-.007-.159.089h0c.023,0,.051-.012.064.01s-.008.035-.031.041a.567.567,0,0,1-.072.006c-.059.022-.06-.028-.085-.035a.366.366,0,0,0-.244.02c-.061.024.037.052.015.087-.044.021-.049-.015-.066-.033s-.035-.035-.05-.026c-.115.064-.215-.028-.32-.015-.163.021-.328.029-.488.064-.186.039-.374.073-.552.126a.337.337,0,0,1-.141.009.611.611,0,0,1-.4.065h0a.1.1,0,0,1-.068.029h0c.006.018.026.046,0,.049s-.021-.028-.025-.046h0l-.036,0-.035,0a.151.151,0,0,0-.052-.011h0l.047.011-.047-.011a.223.223,0,0,1-.17.019c.019-.043.055-.032.083-.037a.514.514,0,0,1,.176-.024h0a.24.24,0,0,1,.192-.017c0-.026.028-.031.056-.033a.547.547,0,0,0,.167-.021c.283-.052.554-.141.84-.2.187-.037.378-.072.562-.121a1.732,1.732,0,0,1,.35-.075.037.037,0,0,1,.043.018c-.058.057-.166.021-.24.093a.41.41,0,0,0,.2.008c.213-.07.488-.091.737-.149.042-.009.091-.01.1-.054s.046-.05.09-.06a3.715,3.715,0,0,1,.706-.134c.092,0,.1-.058.141-.1-.119-.07-.234.044-.349.02h0L23.589,13c.1-.107.217-.06.31-.09a.991.991,0,0,1,.391-.09c.033,0,.047-.029.071-.042.072-.039.061.013.072.04h0a.05.05,0,0,1,.027,0h0c-.007-.029.012-.045.045-.056.281-.054.564-.036.847-.067a.192.192,0,0,1,.122.017.337.337,0,0,1,.144-.015.1.1,0,0,1,.081-.033c.021,0,.057-.01.051.021s-.027.032-.055.033A.647.647,0,0,1,25.512,12.765Zm4.052-.672c-.017,0-.021-.006-.01-.015a.023.023,0,0,1,.018,0s.005.006.008.01A.089.089,0,0,1,29.564,12.093Zm.41-.085a.147.147,0,0,1,.183-.036C30.091,12.028,30.037,11.985,29.974,12.008ZM31.12,11.9l-.01-.008a.185.185,0,0,1,.029-.013l.01.009A.252.252,0,0,1,31.12,11.9Zm.187-.079a.08.08,0,0,1-.03-.006l.02-.022c.015-.007.027-.006.027.007S31.313,11.821,31.307,11.821Zm.077-.016-.011-.009s.01-.01.014-.01.008.005.011.008Zm.059-.105-.01-.009a.137.137,0,0,1,.031-.013l.011.009A.215.215,0,0,1,31.443,11.7Zm.547,0a4,4,0,0,0-.438.119c-.006,0-.239.11-.241.112-.052.044-.052.043-.008.1l-.223.038,0,0,0,0h0a.445.445,0,0,1-.225.087c-.067.017-.042-.051-.083-.057-.063,0-.008-.065-.04-.085l-.011.006h-.012c-.007.091-.073.133-.169.165-.053.017-.11-.042-.163.041-.008.013-.1,0-.148,0h0l-.042,0-.018.006-.017,0h0l-.037,0h0c-.025.006-.035,0-.035-.023-.021,0-.059-.017-.063-.012a.5.5,0,0,1-.309.132,1.079,1.079,0,0,0-.322.084h0c.013.02.029.04,0,.065-.008.006-.025.014-.03.012-.035-.018-.01-.051-.008-.078-.039-.037-.057,0-.08.027s-.061.1-.135.057c-.05-.03-.05.064-.1.045l-.075,0h0c-.039.033-.079.046-.117.017h0c-.028,0-.028-.012-.026-.028h0a.046.046,0,0,1,.039-.038h0l.033-.011h0l.013-.035h0l-.087.015a1.4,1.4,0,0,0-.351.114c-.06.018-.125.07-.19.034h0c.03.036-.012.053-.044.062-.12.035-.241.068-.362.1-.09.022-.182.036-.272.053l-.039.005h0c-.025.028-.05.031-.075.008a.123.123,0,0,1-.032.007c-.135.062-.288.064-.422.121a.073.073,0,0,1-.06.083c-.05.013-.024-.046-.063-.048-.052-.026-.107,0-.158.013a1.07,1.07,0,0,1-.354.036.988.988,0,0,0-.3.061h0a.5.5,0,0,1-.255.043l0,0,0,0,0,0h0c-.051.054-.113.038-.193.036a.375.375,0,0,1,.193-.036l0,0h.006c.074-.057.175-.04.258-.075a.3.3,0,0,1,.14-.074c.4-.053.8-.157,1.214-.2.018-.031.047-.03.078-.026.177-.043.356-.084.532-.134a.8.8,0,0,1,.219-.033l0,0,0,0c.034-.066.136-.091.161-.164.008-.022.039-.024.064-.031.32-.09.641-.182.967-.258.125-.03.251-.058.377-.084.153-.03.153-.029.205.071.144-.083.311-.064.456-.15.007,0,.032.02.048.031a.116.116,0,0,1,.071-.076c.021-.008.024.013.025.028l.067-.008c.049-.085.142-.058.192-.062a4.188,4.188,0,0,0,.756-.2c.107-.032.221-.089.336-.119.046-.012.079,0,.078.036A.084.084,0,0,1,31.99,11.7Zm4.943-2.085V9.607l.01,0Zm.653.123a.184.184,0,0,1-.009-.025l.015-.01a.083.083,0,0,1,.017.015Zm.091-.033c-.009.01-.019.01-.025,0l.014-.01.012,0Zm6.294-2.938a.235.235,0,0,1-.143.064c-.029,0-.02-.017,0-.049a.244.244,0,0,1,.039-.037c.024,0,0,.021-.014.043l.031-.006c.075-.057.192-.183.178-.086C44.056,6.76,44.005,6.744,43.971,6.766Zm.7-.491c-.01.006-.017,0-.025,0a.511.511,0,0,1,.042-.039c.021-.016.028-.014.022,0A.342.342,0,0,1,44.672,6.275Zm.115-.083a.054.054,0,0,1,.015-.018l.015-.008a.047.047,0,0,1-.006.015C44.794,6.2,44.784,6.205,44.787,6.192Zm.008.538c-.006,0,0-.011,0-.017l.023-.015c.019-.012.025-.01.016.007A.217.217,0,0,1,44.8,6.73Zm1.095-.645,0,0h0a.119.119,0,0,1-.077.052l0-.015a.121.121,0,0,1,.075-.037l0,0h0a.157.157,0,0,1,.081-.061c.005,0,0,.022,0,.026A.116.116,0,0,1,45.89,6.085Zm.25-.148h0c-.03.028-.059.051-.078.049l.009-.02a.1.1,0,0,1,.069-.029l0,0v0l0,0a.069.069,0,0,1,.031-.036c.007,0,.006.007.009.011l-.04.025Z"/><path class="cls-1" d="M51.649.175a.044.044,0,0,1-.027-.049L51.614.083a.072.072,0,0,1-.032-.049l-.07,0a.019.019,0,0,1-.026,0l-.15.011h-.025a.026.026,0,0,1-.036-.015l-.087,0c-.035.036-.083.024-.125.037A.079.079,0,0,1,51.014.1c-.006.022-.024.029-.043.034a.029.029,0,0,1-.026.025c-.034.053-.075.015-.114.007h-.006a.1.1,0,0,1-.054.015l-.1.026a.026.026,0,0,1-.029.021h0A.046.046,0,0,1,50.6.254l-.024.008a.055.055,0,0,1-.049.027L50.518.3H50.51a.076.076,0,0,1-.057.03.089.089,0,0,1-.077.028l0,.005-.007,0a.1.1,0,0,1-.086.015.05.05,0,0,1-.024-.01l-.07-.015a.033.033,0,0,1-.034.022.014.014,0,0,1-.02.006c-.035.033-.093,0-.125.045h0c0,.015-.013.02-.027.014s-.025,0-.029-.018a.164.164,0,0,0-.115.013c.015.069.016.078-.056.062a.057.057,0,0,1-.033-.008l-.009,0L49.73.481l-.025,0,0,.007-.008,0c-.016.025.007.064-.029.082a.012.012,0,0,1,0,.018c0,.032-.022.03-.042.032a.058.058,0,0,1-.051.027.042.042,0,0,1-.048.025.018.018,0,0,1-.02.007A.028.028,0,0,1,49.471.7l0,.008-.009,0h0l-.036.022h0l0,0a.213.213,0,0,1-.14.071l0,.006,0,.006c.013.016.03.032,0,.049l0,.01h-.01A.068.068,0,0,1,49.209.9h0a.052.052,0,0,1-.018.012.315.315,0,0,1-.08.021h0a.049.049,0,0,1-.023.013.373.373,0,0,1-.1.023l-.011.009a.124.124,0,0,1-.063.02c-.012.014-.027.011-.042.008a.031.031,0,0,1-.031.025h0l-.009.008a.1.1,0,0,1-.064.021l-.024,0c-.013.015-.025.032-.048.031a.378.378,0,0,1-.143.068c-.017.031-.053.011-.075.027,0,.015-.009.024-.026.023a.053.053,0,0,1-.046.006c-.021.043-.068.019-.1.038s-.052.011-.078.021a.018.018,0,0,1-.025.006l-.049.008h0a1.339,1.339,0,0,1-.3.047h0a.143.143,0,0,1-.023.026h0c0,.033-.025.029-.047.028a.018.018,0,0,1-.023,0c-.027.029-.074.025-.1.058s-.037.029-.06.008h0c-.007.005-.012,0-.016,0a.052.052,0,0,1-.056-.018.018.018,0,0,1-.021,0l-.149.015a.065.065,0,0,1-.044.033.026.026,0,0,1-.029.021h0a.065.065,0,0,1-.045.032c-.014.037-.047.026-.075.029l-.005.007-.008,0a.081.081,0,0,1-.06.024.018.018,0,0,1-.021.007.057.057,0,0,1-.053.027h0c-.008.013-.017.029-.033.026s-.018-.026-.022-.042L46.9,1.6h0a.054.054,0,0,1-.062,0l-.075.008c-.022.033-.06.029-.092.039a.033.033,0,0,1-.03.021.027.027,0,0,1-.023.026h0c-.014.028-.029.039-.05.005a.027.027,0,0,1-.026-.023.027.027,0,0,1-.027-.023h0a.025.025,0,0,1-.027-.023h0c-.014,0-.024-.007-.023-.023a.013.013,0,0,1-.008-.018.041.041,0,0,1-.031-.023c-.025,0-.057.01-.075-.021a.031.031,0,0,1-.027-.024A.025.025,0,0,1,46.3,1.5a.063.063,0,0,1-.035-.043.031.031,0,0,1-.027-.023.03.03,0,0,1-.022-.029.1.1,0,0,1-.06-.067.034.034,0,0,1-.023-.027c-.014,0-.026-.005-.029-.022-.043-.019-.05-.058-.055-.1h0c-.02,0-.04,0-.054-.018-.017,0-.025-.007-.03-.02a.033.033,0,0,1-.029-.021.046.046,0,0,1-.033-.026l-.008,0L45.891,1.1a.023.023,0,0,1-.028-.019.032.032,0,0,1-.028-.02c-.022,0-.045.013-.056-.018a.03.03,0,0,1-.027-.024.034.034,0,0,1-.02-.03h0c-.024-.007-.023-.019-.006-.034h0l0-.032A.042.042,0,0,1,45.7.89c-.039,0-.089.017-.1-.047h0c-.013,0-.026,0-.029-.02-.033-.015-.019-.05-.03-.074h0A.025.025,0,0,1,45.51.724v0a.057.057,0,0,1-.036-.038.086.086,0,0,1-.1-.075.01.01,0,0,1,0-.016c-.019-.006-.042-.005-.048-.031h0A.023.023,0,0,1,45.308.55l-.03-.03h0l-.009,0,0-.007c-.031,0-.037-.028-.053-.045h0L45.046.335a.027.027,0,0,1-.029-.022.058.058,0,0,1-.055-.045A.041.041,0,0,1,44.93.245.011.011,0,0,1,44.913.24c-.017,0-.025,0-.024-.02A.039.039,0,0,1,44.88.179L44.844.157a.03.03,0,0,1-.013-.009h0c-.027,0-.06.018-.05-.036a.134.134,0,0,0-.011-.057.152.152,0,0,0-.082,0L44.642.008h0l-.051.008h0c-.015,0-.028.144-.028.144H44.54L44.535,0l-.009,0L44.52.047c.031.015.045.046.069.069h0l.043.046c.077.026.077.026.043.093A.143.143,0,0,1,44.6.169h0a.071.071,0,0,1-.041-.05l-.07-.063c-.078-.007-.032.041-.031.069a.066.066,0,0,1,.029.048A.023.023,0,0,1,44.5.2l.008,0V.214a.165.165,0,0,1,.061.1c.026.011.019.024,0,.038h0v.01L44.6.414a.031.031,0,0,1,.027.023.032.032,0,0,1,.028.024.063.063,0,0,1,.052.073l.029.024a.018.018,0,0,1,.021,0h0c.031,0,.018.029.023.046l.01.023.03.022a.218.218,0,0,1,.07.093c-.056.009-.068-.041-.1-.063a.068.068,0,0,1-.034-.045A.018.018,0,0,1,44.745.63a.048.048,0,0,1-.039-.036L44.6.5a.049.049,0,0,1-.051-.022c-.035-.014-.076.014-.108-.017h-.011L44.425.453C44.405.447,44.4.427,44.4.412a.08.08,0,0,1-.055-.019h0C44.29.382,44.3.317,44.26.3c-.054.009-.091-.062-.15-.031l0,.006,0,.006.005.006.029.04a.035.035,0,0,1,.025.027A.027.027,0,0,1,44.2.374.035.035,0,0,1,44.221.4a.028.028,0,0,1,.029.02.032.032,0,0,1,.024.028A.028.028,0,0,1,44.3.469c.025,0,.03.024.034.045a1.6,1.6,0,0,0,.235.208c.026.017.009.035.009.053h0c.018,0,.026.006.025.022h0c.019,0,.043-.016.047.02h0l0,.02c-.015.006-.019-.006-.023-.017S44.6.815,44.606.8h0A.059.059,0,0,1,44.551.78c-.053.026-.019.065-.014.1.028.018.075.026.037.077.055.031.079.068.032.127a.268.268,0,0,0-.031.066l.012.028a.024.024,0,0,1,.024.025h0v0a1.522,1.522,0,0,1,.21.183.017.017,0,0,1,.011.02.039.039,0,0,1,.029.024c.026,0,.027.029.035.047a.011.011,0,0,1,.016.008c.023,0,.026.022.033.038a.026.026,0,0,1,.025.025l.034.015a.04.04,0,0,1,.018.007c.034,0,.024.029.029.048a.033.033,0,0,1,.028.021.027.027,0,0,1,.026.025.029.029,0,0,1,.026.025h0a.029.029,0,0,1,.027.023h0a.025.025,0,0,1,.028.022c.022.007.027.026.032.045a.023.023,0,0,1,.021.027.014.014,0,0,1,.007.018l.035.026.009,0,.006.007a.021.021,0,0,1,.029.017c.015,0,.026.006.028.023a.062.062,0,0,1,.032.045.028.028,0,0,1,.025.026l.077.073h0c.026,0,.023.029.03.046s.027.005.027.023a.069.069,0,0,1,.033.045.023.023,0,0,1,.022.028h0a.023.023,0,0,1,.01.012l.025.029a.028.028,0,0,1,.024.028l.026.024c.03,0,.028.025.032.045a.031.031,0,0,1,.026.022l.043,0c.007-.031,0-.08.056-.031h0a.028.028,0,0,1,.024.029l0,0a.247.247,0,0,1,.092.138c-.054-.041-.073-.113-.136-.075v.038a.033.033,0,0,1,.027.027.051.051,0,0,1,.034.046c.038.041.008.049-.027.056h0a.051.051,0,0,1-.046.031.053.053,0,0,1-.048.03.053.053,0,0,1-.045.032c-.009.021-.02.025-.034,0a.027.027,0,0,1-.027-.025.032.032,0,0,1-.022-.028h0l-.029-.017-.123,0a.017.017,0,0,1-.021,0,.055.055,0,0,1-.053.028h0a.053.053,0,0,1-.048.028l0,.008-.008,0a.038.038,0,0,1-.036.024h0a.056.056,0,0,1-.043.033.026.026,0,0,1-.027.024.048.048,0,0,1-.049.028h0a.05.05,0,0,1-.046.029h0a.054.054,0,0,1-.048.028h0a.063.063,0,0,1-.043.033.03.03,0,0,1-.025.025A.025.025,0,0,1,45,2.91h0a.059.059,0,0,1-.041.034.025.025,0,0,1-.027.023A.045.045,0,0,1,44.885,3l0,.008-.009,0a.034.034,0,0,1-.035.023h0a.057.057,0,0,1-.045.031c0,.013-.01.023-.025.023l0,0a.061.061,0,0,1-.04.035.1.1,0,0,1-.051.07l0,0c0,.019,0,.038-.018.05h0v0h0a.038.038,0,0,1,0,.021c.012.041.064.039.08.075h0a.067.067,0,0,1,.009.021.067.067,0,0,1,.053.022l.01,0h.01c.014-.019.024-.014.027.007s.007.062.01.093a.057.057,0,0,1,.03.047.034.034,0,0,1,.027.022c.019,0,.037,0,.044.026s.016.024.012.04a.029.029,0,0,1,.021.032.015.015,0,0,1,.007.019.042.042,0,0,1,.029.026c.031.016.072-.017.1.019h0a.055.055,0,0,1,.031.047l.025.025.225-.015.01-.007h.012c.009-.017.02-.018.032,0h0l.012,0,.01.006.071-.013a.048.048,0,0,1,.052-.022l.009-.007h.011a.048.048,0,0,1,.053-.027l.009-.006h.01c.01-.024.031-.026.053-.029.007-.023.027-.027.047-.03a.05.05,0,0,1,.044-.032c0-.014.017-.018.029-.022h0c0-.015.007-.025.023-.024l.006.61h.01c0-.633.013-.642.028-.646a.03.03,0,0,1,.025-.025.029.029,0,0,1,.026-.025l-.025.024h0a.142.142,0,0,0,.025-.024h0a.026.026,0,0,1,.024-.025h0a.091.091,0,0,1,.063-.062A.033.033,0,0,1,46.1,3.35a.028.028,0,0,1,.025-.025.026.026,0,0,1,.025-.025h0a.118.118,0,0,1,.063-.063,230573611620.924,230573611620.924,0,0,1,.048-.052.031.031,0,0,1,.024-.026.03.03,0,0,1,.023-.027.026.026,0,0,1,.026-.025c.016-.029.047-.026.073-.031a.078.078,0,0,1,.074-.03.015.015,0,0,1,.025,0c.024,0,.029.021.034.04a.023.023,0,0,1,.018.028c.008,0,.011.009.008.017a.06.06,0,0,1,.048.031h0a.028.028,0,0,1,.03.017l.046,0c.015-.038.032-.039.053,0a.034.034,0,0,1,.03.021.059.059,0,0,1,.057.043.029.029,0,0,1,.021.029c.025.016.04.032,0,.05h0c-.014.028-.046.024-.068.038a.016.016,0,0,1,0,.02l.009.048a.056.056,0,0,1,.059.041.069.069,0,0,1,.047.027.082.082,0,0,1,.06.018h.01c.027-.013.053-.048.084-.007a.025.025,0,0,1,.025.026h0a.06.06,0,0,1,.035.041.037.037,0,0,1,.025.025.023.023,0,0,1,.023.027l.007,0,0,.009a.078.078,0,0,1,.025.059h0l.007,0v.008a.046.046,0,0,1,.026.033.032.032,0,0,1,.028.022.03.03,0,0,1,.029.02c.019,0,.038.007.047.028h0c.014,0,.022.008.028.021a.058.058,0,0,1,.06.039.081.081,0,0,1,.054.045.065.065,0,0,1,.049.026.027.027,0,0,1,.027.023.066.066,0,0,1,.057.043.048.048,0,0,1,.051.05.034.034,0,0,1,.028.022h0c.064,0,.067.066.1.1h0l.008,0v.01a.037.037,0,0,1,.023.034h0a.023.023,0,0,1,.023.023l.011,0c.061.041.129.074.137.163,0,.018.031.034.049.051h.027l.024,0h0c.034-.033.034-.034.054.018.024.009.026.029.026.051l.007,0v.008a.034.034,0,0,1,.02.036.016.016,0,0,1,.008.019.027.027,0,0,1,.022.029c.008,0,.011.008.008.016a.038.038,0,0,1,.027.029.027.027,0,0,1,.024.026l-.024-.025h0a.142.142,0,0,0,.024.025h0l.03.019c.026,0,.059-.014.075.023a.048.048,0,0,1,.029.048.061.061,0,0,1,.032.046c.022.007.027.026.031.046A.032.032,0,0,1,48.5,4.9l.062.019h0l.006-.006.007,0c.036-.008.051.014.063.042.014,0,.019.015.023.028a.033.033,0,0,1,.03.019.03.03,0,0,1,.028.021.067.067,0,0,1,.052.049A.031.031,0,0,1,48.8,5.1a.034.034,0,0,1,.022.029.025.025,0,0,1,.027.023.029.029,0,0,1,.025.025l-.025-.025h0l.025.025h0A.025.025,0,0,1,48.9,5.2l-.026-.023A.186.186,0,0,1,48.9,5.2h0a.029.029,0,0,1,.028.021c.016,0,.023.007.022.023a.017.017,0,0,1,.008.021.053.053,0,0,1,.028.052.053.053,0,0,1,.026.05l.011,0c.022-.012.064,0,.052-.051-.023-.1-.013-.131.036-.135a.146.146,0,0,1,.13.122.847.847,0,0,1,.006.1.212.212,0,0,0,.12.225c.042.026.092.047.057.112l.027.042h0v0l.034.02a.222.222,0,0,1,.122.019.193.193,0,0,0,.121,0,.109.109,0,0,1,.154.1c0,.015-.007.034.007.047.082.078.019.133-.03.19h0a.041.041,0,0,1,0,.019l0,0a.024.024,0,0,1,.023.021h0l0,0a.023.023,0,0,1,.024.02l0,0a.025.025,0,0,1,.025.02l0,0a.025.025,0,0,1,.028.02h0a.187.187,0,0,0,.1-.014.023.023,0,0,1,.026-.023l.026-.022-.026.022h0a.178.178,0,0,1,.026-.022l0,0c.015-.035.038-.022.06-.01h0l0,0h0a.062.062,0,0,1,.035-.012l.072-.025a.03.03,0,0,1,.029-.021h0c0-.013.007-.021.021-.021a.018.018,0,0,1,.019-.011.037.037,0,0,1,.027-.027c0-.014.01-.023.026-.022l.007-.008h.01a.076.076,0,0,1,.05-.034A.028.028,0,0,1,50.5,6a.03.03,0,0,1,.028-.023L50.506,6h0l-.006.011L50.506,6c.01,0,.016-.015.026-.022h0a.026.026,0,0,1,.022-.024h0l0,0a.082.082,0,0,1,.067-.057.075.075,0,0,1,.043-.041.02.02,0,0,1,.026-.016.1.1,0,0,0,.024-.029.02.02,0,0,1,0-.023.021.021,0,0,1,.017-.028.06.06,0,0,1,.025-.049h0a.032.032,0,0,1,.018-.035c0-.008,0-.014,0-.018A.047.047,0,0,1,50.8,5.6h0a.06.06,0,0,1,.018-.055.084.084,0,0,1,.022-.075h0c0-.021,0-.04-.5-.055v-.1h0s.509-.017.508-.025h0c-.01-.023.007-.025.021-.03s.472-.029.472-.029h0V5.158c-.456-.066-.465-.132-.473-.2-.053-.043,0-.041.024-.055,0-.025.024-.028.044-.032a.07.07,0,0,1,.026-.047h0a.068.068,0,0,1,.018-.056.016.016,0,0,1,0-.022.052.052,0,0,1,.018-.052V4.67h0a.068.068,0,0,1,.014-.078c0-.07-.024-.14.324-.208V4.315h0c-.316-.047-.333-.094-.308-.139h0l0-.008.006-.006a.063.063,0,0,1,.019-.077A.058.058,0,0,1,51.075,4a.014.014,0,0,1,0-.02c0-.015,0-.023.017-.029A.062.062,0,0,1,51.12,3.9h0a.052.052,0,0,1,.019-.053c0-.022,0-.044.02-.058a.012.012,0,0,1,0-.018.044.044,0,0,1,.017-.057c0-.016-.011-.031,0-.046a.083.083,0,0,1,.016-.061h0l0-.009.006-.007a.35.35,0,0,1,.005-.112.129.129,0,0,1,.006-.025l0-.041c-.006-.043-.031-.088.012-.127h0a.332.332,0,0,1,.011-.063.039.039,0,0,1,.008-.014h0a.051.051,0,0,1,.02-.053.186.186,0,0,1,.015-.109.038.038,0,0,1,0-.043c0-.03-.012-.061.014-.086h0a.042.042,0,0,1,0-.042.1.1,0,0,1,.01-.08c0-.038-.009-.077.019-.11h0l0-.008.006-.006a.034.034,0,0,1,.023-.046l.02-.009.027-.025-.027.025c.01-.008.018-.017.027-.025h0l-.018-.2c-.042-.034,0-.044.018-.06h0l0-.043c-.015-.075,0-.152-.022-.225a.017.017,0,0,1,0-.025c-.005-.022-.005-.042.017-.055a.186.186,0,0,1,.044-.086c0-.007,0-.013.005-.016,0-.028.023-.03.041-.039a.01.01,0,0,1,.005-.016.027.027,0,0,1,.016-.034.013.013,0,0,1,0-.018.147.147,0,0,1,.013-.109h0L51.5,1.506c-.023-.019-.018-.039,0-.06h0a.02.02,0,0,1,0-.023c0-.042-.017-.086.016-.124l0,0c0-.022.022-.028.04-.034a.073.073,0,0,1,.023-.055l0-.044c0-.027-.012-.055.016-.075h0c0-.024.022-.029.039-.036A.064.064,0,0,1,51.666,1a.065.065,0,0,1,.018-.058.024.024,0,0,1,0-.031L51.648.859h0c-.043-.032-.021-.07-.006-.106.01-.069-.021-.14.01-.208h0c-.005-.007-.005-.013,0-.018A.1.1,0,0,1,51.67.445l0-.071ZM45.042.881A.016.016,0,0,1,45.016.87a.026.026,0,0,1,0-.022c.012-.006.02,0,.024.012S45.051.877,45.042.881Zm.022-.34L45.025.513h0c-.081.033-.083.033-.121-.067-.018,0-.026-.005-.026-.023h0L44.858.415s.008-.008.014-.006l.005.013h0c.018,0,.026,0,.027.022h0c.051.027.12.009.161.064a.313.313,0,0,1,.121.116A.255.255,0,0,1,45.064.541Zm.965,2.776a.188.188,0,0,1-.13-.086c-.016-.036.008-.07.035-.123a.228.228,0,0,0,.181.108C46.092,3.265,46.1,3.337,46.029,3.317Zm.757-.953-.019.012c0-.007-.008-.015-.006-.019a.023.023,0,0,1,.018-.011C46.79,2.347,46.792,2.355,46.786,2.364Zm3.032-1.28.009.009-.008.009-.008-.008Zm.112,2.772c.005-.082.006-.082.106-.056a.489.489,0,0,1-.078.151c-.012.018-.029.033-.051.017s-.009-.03,0-.043A.1.1,0,0,0,49.93,3.856Zm-.161-1.33c.008-.006.015,0,.02.007s-.006.013-.011.014-.014,0-.021-.006A.088.088,0,0,1,49.769,2.526ZM49.285,1.19a1.02,1.02,0,0,1,.166-.035h0c.016-.03.05-.018.073-.032a.1.1,0,0,1,.088-.026c-.02.089-.02.089-.083.09h-.013c-.008.021-.022.037-.046.031a.122.122,0,0,0-.134.036c-.031.037-.075.016-.114.035C49.216,1.236,49.227,1.2,49.285,1.19ZM49.1,1.9c.048-.085.062-.192.183-.23.077-.025.168-.063.184-.167.006-.039.063-.027.065-.068,0-.024.007-.041.029-.041s.014.023.019.036-.008.037-.018.054a.425.425,0,0,1-.039.189.134.134,0,0,0-.012.095.2.2,0,0,1-.1.2.051.051,0,0,1-.068-.009c-.015-.017-.04-.029-.053-.007-.047.079-.106-.013-.161.013C49.105,1.978,49.085,1.927,49.1,1.9Zm-1.221-.216c.009,0,.016.016.023.023a.067.067,0,0,1-.074.039c-.006,0-.019-.02-.017-.027C47.82,1.684,47.849,1.678,47.879,1.683Zm-.885.885c-.061-.022-.081-.066-.119-.1.05-.01.084-.087.138-.031S46.977,2.516,46.994,2.568ZM48.148,2.1a.061.061,0,0,1-.065.057c-.009.014-.018.028-.026.042-.052.1-.052.1.014.206-.055.013-.095-.025-.139-.038-.1-.028-.109-.033-.16.052-.023.039-.071.04-.09.081-.01-.008-.023-.013-.029-.023-.021-.039-.043-.078-.095-.054a.128.128,0,0,0-.032.151c.06.08.12.16.182.238.023.029.045.052,0,.078h0c0,.041-.025.084.043.121-.1,0-.084-.08-.122-.11-.09,0-.134-.076-.184-.132a.059.059,0,0,0-.083-.016c-.031.018-.03.048,0,.073s.026.05-.007.07l.006.024c.007.033.088.042.041.082s-.055-.033-.082-.055a.11.11,0,0,1-.014-.021l-.277-.318c.131-.075.268-.123.4-.193a2.191,2.191,0,0,1,.484-.189.583.583,0,0,0,.145-.068.107.107,0,0,1,.064-.061c.006-.017.017-.027.035-.021S48.16,2.093,48.148,2.1Zm0-.052c-.027-.071.032-.134-.009-.192-.034-.007-.044.021-.054.041A.1.1,0,0,1,48,1.959a.876.876,0,0,0-.406.139c-.026.04-.061.033-.1.023.014-.033.046-.033.069-.047,0-.04-.037-.092.046-.1.042-.007.032-.069.065-.1a.976.976,0,0,0-.288.027.033.033,0,1,1-.02-.062.6.6,0,0,0,.211-.069.044.044,0,0,1,.062.023c.011.02.017.011.029-.007.031-.047.035-.046.079,0,.01.009.018.016.031.011.088-.035.184-.01.275-.037a.079.079,0,0,0,.062-.066c0-.029-.042-.017-.057-.038l-.02.014a.069.069,0,0,1-.088.012.021.021,0,0,1-.005-.02c.017-.041.055-.026.085-.029l.024,0h0c.075-.063.119-.069.172-.01.021.023.039.033.062.025.063-.022.125-.045.188-.066.03-.011.05-.032.091-.022s.033-.064.089-.041.059-.08.119-.048a.135.135,0,0,1,.145-.054c.006,0,.019-.012.019-.012-.018-.054,0-.062.039-.027s.015.053-.011.07-.068.032-.1.049-.082.02-.108.058h0a.019.019,0,0,1,0,.018c.022,0,.056-.008.06.027s-.027.026-.045.032a.587.587,0,0,0-.1.025.539.539,0,0,0-.2.107.327.327,0,0,1-.229.069C48.216,1.9,48.254,2,48.152,2.049Zm.485-.031c-.018.022-.022.019-.119-.008.069-.1.159-.172.225-.268.025-.037.08.01.13.008A2.007,2.007,0,0,1,48.637,2.018Zm.207.064-.007.007-.007-.007.007-.007Zm-.188.618c0,.008,0,.012-.013.011L48.637,2.7l.008-.007Zm-.268-.3,0,.007,0-.008Zm.653,1.439c-.022,0-.034-.023-.036-.043s.021-.04.045-.044a.027.027,0,0,1,.033.026C49.073,3.8,49.08,3.836,49.041,3.835Zm-.033-.173c-.075.019-.153.017-.157.131a1.15,1.15,0,0,1-.5-.491,3.083,3.083,0,0,1,.482-.05c.05,0,.064.043.072.072a.278.278,0,0,0,.089.132c.079.079.136.075.2-.015L49.22,3.4l.23.129a.18.18,0,0,1,.035.008c.024.014.038.041.014.058s-.043,0-.049-.032a.055.055,0,0,0-.056.018c-.02.024-.039.062-.075.017a.028.028,0,0,0-.035,0A1,1,0,0,1,49.008,3.662Zm.841.712a.653.653,0,0,0-.044.306.3.3,0,0,1-.054.219c-.186-.207-.318-.452-.5-.675.125-.032.24-.025.35-.053a.154.154,0,0,0,.091-.042c.012-.012.061.03.087-.009s.046-.013.068-.013c.071,0,.083.011.065.078A1.6,1.6,0,0,1,49.849,4.374Zm.143.292s-.009.012-.015.018h0a.09.09,0,0,1-.019.074h0c0,.01-.012.028-.017.027s-.017-.014-.013-.027l.02-.1h0c.025-.028-.008-.1.044-.094S49.982,4.63,49.992,4.666Zm.058.165s-.011.007-.018.011-.012-.011-.012-.016a.015.015,0,0,1,.022-.014A.02.02,0,0,1,50.05,4.831Zm.014-.065-.007-.007.007-.007.008.007Zm.012-.074s-.009-.007-.013-.011l.008-.007c.009-.005.015,0,.019.006S50.081,4.691,50.076,4.692Zm.138-.246a.065.065,0,0,1,0-.02l.007-.008.01.019Zm-.1.122a.022.022,0,0,1,0,.022c0,.021-.01.033-.029.027s-.012-.017,0-.023c0-.03-.02-.065.019-.087h0c-.017-.028-.019-.088-.074-.035A.03.03,0,0,1,50,4.513S49.991,4.5,49.99,4.5a.021.021,0,0,1,.018-.024,2.651,2.651,0,0,1,.082-.384c.015-.069.061-.048.113-.053ZM50.137,3.3h0a.059.059,0,0,1,0,.047c-.011.038-.009.083-.059.109-.01-.049.021-.076.045-.106l.014,0h-.007l-.007,0c-.007-.021-.018-.043.016-.05v0h0l.005-.043s.014.006.015.01A.026.026,0,0,1,50.137,3.3Zm.115.91c-.008,0-.013,0-.011-.013l.008-.006.007.008Zm.016-.073a.093.093,0,0,1-.009-.02l.008-.006a.071.071,0,0,1,.008.018Zm.017-.077V4.056l.006,0Zm-.035-.425V3.63l.005,0Zm.192-.281c-.007.023-.026.015-.038.007-.033-.023-.064-.048-.1-.073-.016,0-.025-.008-.023-.025,0-.051.024-.085.087-.114l-.036.108.011.023h0l.076.036A.028.028,0,0,1,50.442,3.356Zm.144-.022c-.008,0-.016-.018-.016-.027a.032.032,0,0,1,.01-.022c.025.008.036.012.036.027A.021.021,0,0,1,50.586,3.334Zm-.05-.4c-.01.038-.063.023-.072.06a.24.24,0,0,1-.081.134A.157.157,0,0,1,50.439,3c.01-.049-.04-.061-.058-.093-.043-.018-.06.01-.076.042-.036.07-.071.141-.108.21-.022.04-.051.075-.094.025s-.074,0-.105-.03c0-.039.029-.066.046-.1.032-.005.037.029.057.038s.063.02.073-.03A.3.3,0,0,1,50.205,3c.055-.1.041-.127-.081-.149-.015.03-.028.06-.044.09s-.027.04-.04.059c-.049,0-.071-.041-.11-.055a.217.217,0,0,1-.036,0c-.008,0-.021,0-.021-.007s.013-.014.023-.015.024,0,.036,0c.059-.022.1-.082.164-.092.1-.06.1-.063.168.013.035.038.065.059.115.038a.266.266,0,0,1,.124-.115c.047-.03.024-.112.093-.146A1.056,1.056,0,0,1,50.536,2.936Zm.418-.206c-.023.113-.048.226-.071.339a5.4,5.4,0,0,0-.1.58.18.18,0,0,1-.022.044.116.116,0,0,1-.069-.147,4.941,4.941,0,0,0,.121-.662A.342.342,0,0,1,50.89,2.7a.049.049,0,0,1,.055-.021C50.977,2.69,50.958,2.713,50.954,2.73Zm-.3-.58c.018.007.037.016.024.039s-.017,0-.021-.008c-.022-.008-.058-.006-.042-.043.006-.014.028,0,.039.012Zm-.026.136a.045.045,0,0,1-.01.013H50.6c-.011,0-.011-.012,0-.016S50.615,2.285,50.623,2.286Zm-.283-.343c0-.026.013-.046.04-.036.012,0,.009.025-.009.033a.075.075,0,0,1-.024.053v.026h0l0,.012c-.01.015.017.057-.027.045-.025-.007-.032-.034-.005-.056l0-.026C50.311,1.971,50.337,1.961,50.34,1.943Zm.4-.226.011,0a.04.04,0,0,1-.032.044l-.009.02c-.018-.016,0-.018.009-.02C50.716,1.744,50.712,1.723,50.74,1.717Zm.046-.615c-.013.031-.038.022-.062.026-.09.017-.179-.007-.27.008a2.31,2.31,0,0,1-.264.014c-.019.006-.054.008-.055,0,0-.03.026-.039.052-.046a.61.61,0,0,1,.238-.127c.138-.045.273-.1.418-.149A.527.527,0,0,1,50.786,1.1Z"/></g></g></g></g></g></svg>