<svg xmlns="http://www.w3.org/2000/svg" width="118.479" height="50.349" viewBox="0 0 118.479 50.349"><defs><style>.cls-1{fill:#fff;}</style></defs><title>disney-client</title><g id="Layer_2" data-name="Layer 2"><g id="NOSOTROS"><g id="CLIENTES"><g id="LOGOS_CLIENTES" data-name="LOGOS CLIENTES"><path id="DISNEY" class="cls-1" d="M48.2,11.64s.458-.687.841-1.206a21.643,21.643,0,0,1,2.912-3.079c.291-.246.635-.529.635-.529s-.537.055-.842.116a6.43,6.43,0,0,0-2.309,1.3c-.873.744-1.832,1.96-1.4,3.039.064.151.161.357.161.357m4.85,1.3a9.172,9.172,0,0,0,3.873-1.161c1.18-.657,2.912-1.942,2.734-3.456a1.278,1.278,0,0,0-.781-1.033A1.778,1.778,0,0,0,57.4,7.3a4.43,4.43,0,0,0-1.167.5A17.727,17.727,0,0,0,51.926,11.6c-.243.315-.485.672-.676.914-.121.148-.213.283-.2.322a6.148,6.148,0,0,0,2,.1M49.539,15.3a6.026,6.026,0,0,0-.447.762,1.508,1.508,0,0,1-.341.387.712.712,0,0,1-1.009-.026,2.412,2.412,0,0,1-.788-1.711,5.348,5.348,0,0,0-.013-.818,5.394,5.394,0,0,0-.707-1.176A4.547,4.547,0,0,1,45.748,11a5.7,5.7,0,0,1,1.836-4.13A12.179,12.179,0,0,1,51.67,4.127a8.126,8.126,0,0,1,5.243-.478,4.074,4.074,0,0,1,1.629,1.078,1.031,1.031,0,0,0,.222.253,1.676,1.676,0,0,0,.409.089,4.113,4.113,0,0,1,1.563.73,2.917,2.917,0,0,1,1.1,1.722,4.7,4.7,0,0,1-1.5,3.988,14.933,14.933,0,0,1-5.385,3.632,8.705,8.705,0,0,1-3.416.594c-.326-.028-.663-.112-.98-.135a4.219,4.219,0,0,1-.817-.205c-.079-.056-.179-.113-.2-.091m1.883,3.464a1.936,1.936,0,0,1,.248.072A2.181,2.181,0,0,1,52.9,20.557a51.489,51.489,0,0,1,.672,7.113c.051,1.131.08,2.251.128,3.37a13.529,13.529,0,0,1-.082,3.1,1.472,1.472,0,0,1-.592.885,2.713,2.713,0,0,1-1.589.148c-1.082-.225-1.434-.918-1.586-1.987A53.442,53.442,0,0,1,49.87,23.5a21.1,21.1,0,0,1,.7-3.871c.125-.318.389-.952.852-.865M18.086,22.6s-1.6.115-2.7.236a29.631,29.631,0,0,0-5.559,1.15c-.456.163-1.382.551-1.462,1.019a1.565,1.565,0,0,0,.552,1.26c.2.227,1.292,1.285,1.6,1.543a27.682,27.682,0,0,0,5.838,3.545c.661.276,1.756.669,1.756.669s-.08-3.123-.067-6.2c.01-1.619.044-3.226.044-3.226m29.361,1.24a13.422,13.422,0,0,1-.161,2.636A12.7,12.7,0,0,1,46.8,28.2c-.3.676-.583,1.23-.889,1.78a14.666,14.666,0,0,1-2.516,3.083c-2.756,2.387-7.02,3.743-10.682,4.187a27.233,27.233,0,0,1-7.971-.232c-.906-.165-2.252-.475-2.252-.475s0,.541-.041.919a3.749,3.749,0,0,1-.223.776,1.235,1.235,0,0,1-.961.688,2.894,2.894,0,0,1-1.647-.08,2.37,2.37,0,0,1-1.283-2.036c-.119-.726-.241-1.982-.241-1.982s-.626-.3-1.147-.553a29.714,29.714,0,0,1-4.458-2.733c-.369-.273-1.953-1.6-2.3-1.935a12.885,12.885,0,0,1-2.535-3.046,2.91,2.91,0,0,1-.276-2.736c.549-1.37,2.514-2.4,3.861-2.994a32.128,32.128,0,0,1,5.335-1.624,16.028,16.028,0,0,0,1.6-.293.262.262,0,0,0,.056-.054c.031-.038.081-1.4.071-1.894s.36-3.7.481-4.376a7.991,7.991,0,0,1,.626-2.15.566.566,0,0,1,.781-.064c1.462.908,1.908,4.067,2.016,5.674.064.976.1,2.451.1,2.451s1.679-.051,2.712-.024a24.894,24.894,0,0,1,3.152.352,22.083,22.083,0,0,1,5.424,1.536,5.516,5.516,0,0,1,2.749,2.78,2.834,2.834,0,0,1-.233,2.642,3.7,3.7,0,0,1-2.848,1.87,4.668,4.668,0,0,1-2-.453.344.344,0,0,1-.035-.484,10.116,10.116,0,0,1,.987-.556,2.14,2.14,0,0,0,.458-.324c.293-.259.555-.539.526-.871-.041-.431-.5-.694-.93-.868a33.988,33.988,0,0,0-8.065-1.6c-.769-.046-1.862-.081-1.862-.081l.23,10.843s.9.174,1.618.29c.407.062,2.14.216,2.6.229,3.5.092,7.417-.219,10.633-1.74A11.047,11.047,0,0,0,41.1,29.437a7.582,7.582,0,0,0,1.792-5.631c-.2-2.313-1.825-5.058-3.125-6.733-3.436-4.42-9.326-8.054-14.509-10.185A46.237,46.237,0,0,0,9.12,3.256a26.756,26.756,0,0,0-6.2.458c-.229.064-.458.144-.67.192a1.7,1.7,0,0,0-.5.208c-.04.035-.08.074-.08.074s.1.054.191.1c.17.071.882.118,1.251.183a1.193,1.193,0,0,1,.8.48.475.475,0,0,1-.007.6c-.362.441-1.722.367-2.321.269-.623-.1-1.4-.289-1.542-.832A2.533,2.533,0,0,1,.513,3.145,4.436,4.436,0,0,1,3.5,1.007,30.425,30.425,0,0,1,9.785.022,36.6,36.6,0,0,1,22,1.828a58.42,58.42,0,0,1,7.6,2.953A59.571,59.571,0,0,1,35.131,7.9c.448.294,3.06,2.214,3.463,2.549.847.7,1.954,1.688,2.755,2.482a25.716,25.716,0,0,1,4.418,5.759c.224.447.4.888.689,1.41a12.5,12.5,0,0,1,.6,1.545c.07.306.174.75.187.77A11.067,11.067,0,0,1,47.447,23.84Zm18.06.789c.079.009.1.013.171.024a13.356,13.356,0,0,1,3.5.837,3.6,3.6,0,0,1,1.895,1.78,5.516,5.516,0,0,1,.119,4.668,5.538,5.538,0,0,1-2.553,2.433,9.4,9.4,0,0,1-3.179.859,11.3,11.3,0,0,1-6.012-1.073A7.246,7.246,0,0,1,56.4,31.568a2.58,2.58,0,0,1,.121-2.773c.944-1.293,2.964-1.576,4.485-1.521a18.352,18.352,0,0,1,4.354.793,8.226,8.226,0,0,1,1.628.75.543.543,0,0,1,.167.533c-.252.771-2.124,1.178-2.662,1.257-1.45.22-2.2-.327-3.844-.975a5.6,5.6,0,0,0-1.37-.376c-.745-.071-1.645.137-1.788.952-.072.421.422.811.8.978a6.025,6.025,0,0,0,2.469.528A12.929,12.929,0,0,0,68.3,29.847a1.167,1.167,0,0,0,.571-.881c0-.054-.067-.458-.2-.5-.019-.007-.037,0-.058,0-.046-.01-.124-.144-.195-.229a3.346,3.346,0,0,0-.874-.5,21.852,21.852,0,0,0-5.374-.988c-1.411-.121-3.632-.307-4.164-.382a6.52,6.52,0,0,1-1.623-.4,2.025,2.025,0,0,1-1.082-1.232,3.822,3.822,0,0,1,.6-2.914c1.4-2.017,4.682-2.784,7.136-3.087,2.375-.293,6.215-.29,8.545.949.359.189.545.371.467.754a1.87,1.87,0,0,1-1.351,1.4,15.128,15.128,0,0,1-2.747.339c-2.811.161-6.211.078-8.886.808a1.917,1.917,0,0,0-.69.288c-.419.456.777.586,1.035.641a1.368,1.368,0,0,0,.17.027l5.918.7m8.772,10.516c-1.137-.413-1.391-2.248-1.443-3.173a28.943,28.943,0,0,1,1.628-10.047c.29-.81.711-2.123,1.61-2.049A2.062,2.062,0,0,1,77.483,20.9c.893,1.254,2.06,2.959,2.836,4.139.87,1.329,1.7,2.663,2.519,3.875a1.754,1.754,0,0,0,.306.377c.145.121.283.126.341.017.028-.047-.024-1.569-.065-1.878-.061-.482-.092-.878-.144-1.3a37.447,37.447,0,0,0-.845-4.1c-.337-1.3-.75-2.653-1.055-3.91a5.262,5.262,0,0,1-.184-1.208.642.642,0,0,1,.95-.663c1.15.407,2.682,2.911,3.129,3.782.148.294.751,1.788.889,2.208a18.405,18.405,0,0,1,.9,4.359,12.179,12.179,0,0,1-.622,5.237,5.632,5.632,0,0,1-1.124,1.668,2.6,2.6,0,0,1-2.76.55c-.949-.54-2.509-3.241-2.775-3.706-.906-1.582-2.462-4.673-2.7-5.018a.448.448,0,0,0-.242-.189c-.091-.026-.13.163-.153.29-.154.9-.263,5.113-.265,5.227a21.544,21.544,0,0,1-.265,3.3c-.135.56-.267,1.019-.783,1.255a1.277,1.277,0,0,1-1.086-.071m15.651-.267a4.987,4.987,0,0,1-.469-.456,9.577,9.577,0,0,1-.511-.826c-.071-.161-.124-.28-.175-.413a5.088,5.088,0,0,1-.158-2.936,12.981,12.981,0,0,1,.866-2.324.815.815,0,0,0,.059-.216c.021-.179-.276-1.4-.289-1.789-.02-.6.441-1.019,1.217-1.1a1.248,1.248,0,0,0,.175-.017c.311-.077.507-.669.676-1.147.235-.666.6-1.685.6-1.685s-.981-.226-1.5-.422A2.157,2.157,0,0,1,89.127,20.5c-.315-.63-.107-.98.547-1.185.242-.075,2.147-.441,2.746-.527.751-.107,1.454-.2,2.168-.291.622-.077,3.464-.4,4.372-.38a3.572,3.572,0,0,1,3.082,1.773c.434.626.73,1.371.076,1.771-1.008.612-4.264.654-4.864.661-.95.012-2.266-.005-2.266-.005l-.663,2.215s2.336-.02,3.646-.027a4.5,4.5,0,0,1,.817.053c.672.152.9.663.93,1.406.035.868-.128,1.271-.819,1.382-.357.06-4.368.08-4.914.144-.338.04-.7.094-.7.094S93,28.34,92.75,29.1c-.259.8-.475,1.606-.475,1.606s.2.009.372.009a4.666,4.666,0,0,0,.793-.077c1.225-.222,3.042-.493,4.535-.73.8-.125,1.207-.185,1.627.35a2.305,2.305,0,0,1,.582,1.43c.022.535-.383.892-.885,1.272a14.763,14.763,0,0,1-6.283,2.74,4,4,0,0,1-1.966-.212,3.533,3.533,0,0,1-.713-.33S90.032,34.957,89.93,34.878Zm25.356-11.146a21.556,21.556,0,0,0-3.009,3.548c-.848,1.215-1.651,2.608-2.416,3.689a9.924,9.924,0,0,0-.647,1.136,2.576,2.576,0,0,0,1.044-.046,8.73,8.73,0,0,0,3.362-1.578,7.1,7.1,0,0,0,2.44-3.848,4.089,4.089,0,0,0-.236-2.838.379.379,0,0,0-.538-.063M107.074,36.41s-.328.963-.566,1.715c-.417,1.3-1.326,4.805-1.541,5.9-.317,1.616-1.219,5.846-1.269,5.94a.521.521,0,0,1-.259.256c-.37.222-.519.148-.971-.091a4.352,4.352,0,0,1-1.543-1.2c-.88-1.148-.67-3.306-.495-4.575a39.749,39.749,0,0,1,2.9-10.789.15.15,0,0,0,0-.158,8.845,8.845,0,0,1-.81-3.561c0-3.458,1.991-6.877,4.216-9.622.169-.212,1.262-1.52,1.76-1.494s.578.606.5,1.088c-.252,1.6-1.376,3.223-2.143,4.569a13.513,13.513,0,0,0-1.473,3.5,11.01,11.01,0,0,0-.23,1.355c.019.367.1.835.1.835s1.406-1.966,2.332-3.181c.508-.663.871-1.1,1.292-1.582s2.074-2.194,2.55-2.645a9.213,9.213,0,0,1,2.516-1.905,2.2,2.2,0,0,1,2.453,0c1.319.868,1.893,2.7,2.043,4.187a9.976,9.976,0,0,1-.973,5.3,11,11,0,0,1-3.927,4.264,10.461,10.461,0,0,1-5.866,1.918c-.273-.006-.6-.024-.6-.024"/></g></g></g></g></svg>