<svg xmlns="http://www.w3.org/2000/svg" width="141.984" height="27.721" viewBox="0 0 141.984 27.721"><defs><style>.cls-1{fill:#fff;}</style></defs><title>claro-client</title><g id="Layer_2" data-name="Layer 2"><g id="NOSOTROS"><g id="CLIENTES"><g id="LOGOS_CLIENTES" data-name="LOGOS CLIENTES"><g id="CLARO_VIDEO" data-name="CLARO VIDEO"><path class="cls-1" d="M55.182,0c1.015.01,2.03,0,3.044,0q.006,4.665,0,9.328-1.521,0-3.045,0,0-4.665,0-9.332"/><path class="cls-1" d="M62.414,10.528C65.2,7.65,67.959,4.737,70.745,1.856c.714.754,1.451,1.488,2.151,2.258-2.757,2.9-5.541,5.779-8.3,8.68-.74-.743-1.456-1.511-2.183-2.266"/><path class="cls-1" d="M6.848,8.9a9.159,9.159,0,0,1,2.423-.256,8.886,8.886,0,0,1,7.008,3.428,9.222,9.222,0,0,1,1.7,3.414c-1.239.005-2.479,0-3.718,0a5.9,5.9,0,0,0-2.473-2.642,5.465,5.465,0,0,0-1.943-.635,6.992,6.992,0,0,0-1.906.1,5.424,5.424,0,0,0-2.757,1.561,5.3,5.3,0,0,0-1.67,3.55,5.686,5.686,0,0,0,.843,3.7A6.132,6.132,0,0,0,7.2,23.459a5.619,5.619,0,0,0,5.817-1.2A6.753,6.753,0,0,0,14.277,20.5q1.85-.009,3.7,0a9.061,9.061,0,0,1-1.812,3.58,10.353,10.353,0,0,1-1.853,1.7A9.147,9.147,0,0,1,3.5,25.367,10,10,0,0,1,1.13,22.554a9.766,9.766,0,0,1-.966-6.417,9.03,9.03,0,0,1,2.592-4.816A8.442,8.442,0,0,1,6.848,8.9"/><path class="cls-1" d="M19.792,8.562h3.624q0,9.393,0,18.784c-1.208,0-2.415,0-3.622,0V8.562"/><path class="cls-1" d="M37.862,16.553A3.2,3.2,0,0,0,36.8,13.83a5.826,5.826,0,0,0-1.976-1.216,9.729,9.729,0,0,0-2.389-.39,10.827,10.827,0,0,0-1.964.077,4.882,4.882,0,0,0-3.424,1.626,5.863,5.863,0,0,0-1.184,3.316c1.143.021,2.288-.006,3.432.019a2.38,2.38,0,0,1,.974-1.71,2.948,2.948,0,0,1,1.513-.306,3.06,3.06,0,0,1,1.678.428,1.5,1.5,0,0,1,.432,1.538,1.278,1.278,0,0,1-1.174.808,29.185,29.185,0,0,0-4.317.89,3.948,3.948,0,0,0-2.484,2.316,5.98,5.98,0,0,0-.122,3.506,3.441,3.441,0,0,0,2.14,2.3,4.9,4.9,0,0,0,2.459.26,6.128,6.128,0,0,0,3.639-1.426c.016.489,0,.979.007,1.468,1.154.041,2.662.01,3.817.015Q37.868,21.95,37.862,16.553Zm-4.625,7.2a3.409,3.409,0,0,1-3.066.945,1.511,1.511,0,0,1-.879-.628,2.242,2.242,0,0,1,.161-2.434,2.656,2.656,0,0,1,1.511-.737c.687-.109,1.352-.319,2.028-.482A7.5,7.5,0,0,0,33.9,20C33.905,21.265,34.048,22.7,33.237,23.758Z"/><path class="cls-1" d="M46.266,12.729a6.928,6.928,0,0,1,2.256-.41c.008,1.215.075,2.433.049,3.65A4.749,4.749,0,0,0,46.56,16a3.752,3.752,0,0,0-2.748,3.065c-.01.321-.1.634-.1.955q0,3.665,0,7.327c-1.2,0-2.4.008-3.6-.007-.013-4.809,0-9.619.007-14.429,1.163-.011,2.324.033,3.485.075,0,.594-.014,1.188.008,1.783a5.781,5.781,0,0,1,2.655-2.042"/><path class="cls-1" d="M63.617,17.876a7.41,7.41,0,0,0-6.828-5.58,8.768,8.768,0,0,0-1.587.06,7.525,7.525,0,0,0-5.378,3.94,7.786,7.786,0,0,0,.028,7.16,7.664,7.664,0,0,0,5.409,3.893c.767,0,1.533,0,2.3,0a7.211,7.211,0,0,0,4.184-2.235A7.562,7.562,0,0,0,63.617,17.876Zm-3.533,3.438a4.155,4.155,0,0,1-2.041,2.19,3.863,3.863,0,0,1-4.725-1.221,4.028,4.028,0,0,1,2.169-6.365,6.941,6.941,0,0,1,1.686-.03,3.9,3.9,0,0,1,2.743,2.052A4.118,4.118,0,0,1,60.084,21.314Z"/><path class="cls-1" d="M65.959,16.46q4.561,0,9.125,0c0,1.054,0,2.108,0,3.163-3.042,0-6.082.007-9.123,0,0-1.057,0-2.112,0-3.169Z"/><path class="cls-1" d="M105.036,27.688a4.935,4.935,0,0,1-5.228-4.734,31.4,31.4,0,0,1,.062-6.1c.539-3.988,4.923-5.608,8.283-3.188a3.582,3.582,0,0,0,.39.2V7.571h3.73V27.358h-3.868l.007-.929A5.28,5.28,0,0,1,105.036,27.688Zm3.346-9.619a3.148,3.148,0,0,0-.184-.694,2.14,2.14,0,0,0-2.292-1.488c-1.15.025-2.066.538-2.168,1.608a26.6,26.6,0,0,0,0,5.079c.107,1.088,1,1.584,2.159,1.6a2.05,2.05,0,0,0,2.309-1.562A22.8,22.8,0,0,0,108.382,18.069Z"/><path class="cls-1" d="M115.134,22.492a11.386,11.386,0,0,1,.148-5.265,6.186,6.186,0,0,1,11.99.207,26.433,26.433,0,0,1,.271,3.8h-9.022a2.815,2.815,0,0,0,1.557,2.848,4.166,4.166,0,0,0,4.872-1l2.006,2.322a7.4,7.4,0,0,1-5.186,2.29A6.5,6.5,0,0,1,115.134,22.492Zm3.406-3.821H123.9c-.064-1.846-1.053-2.943-2.612-2.973C119.693,15.667,118.7,16.708,118.54,18.671Z"/><path class="cls-1" d="M93.4,12.939h3.506V27.358H93.4Z"/><path class="cls-1" d="M95.2,6.607a2.276,2.276,0,0,1-.04,4.552,2.294,2.294,0,0,1-2.278-2.3A2.267,2.267,0,0,1,95.2,6.607Z"/><polygon class="cls-1" points="91.793 12.939 87.889 12.939 85.126 21.593 82.123 12.939 78.22 12.939 83.565 27.358 86.568 27.358 91.793 12.939"/><path class="cls-1" d="M141.843,17.665a4.938,4.938,0,0,0-2.47-3.906,6.366,6.366,0,0,0-3.98-1.124c-2.917.089-5.177,1.764-5.6,4.511,0,.021,0,.043-.009.064q-.086.581-.134,1.171-.053.657-.068,1.32v.064c0,.137,0,.275,0,.412s0,.275,0,.412v.065c.01.441.033.882.068,1.319.033.4.078.8.137,1.191l.006.045c.419,2.746,2.679,4.421,5.6,4.51.132,0,.26,0,.389,0s.257,0,.389,0c2.917-.089,5.177-1.764,5.6-4.51A21.7,21.7,0,0,0,141.843,17.665Zm-3.658,2.664c-.017.136-.032.287-.048.447a12.542,12.542,0,0,1-.246,1.723,2.116,2.116,0,0,1-2.227,1.713,2.869,2.869,0,0,1-1.159-.218,2.371,2.371,0,0,1-.831-1.238,3.46,3.46,0,0,1-.155-.7c-.055-.6-.085-1.2-.14-2.029a18.842,18.842,0,0,1,.293-2.17,2.157,2.157,0,0,1,4.219,0,12.507,12.507,0,0,1,.246,1.722c.016.161.031.311.048.448l-.01.151Z"/></g></g></g></g></g></svg>