<svg xmlns="http://www.w3.org/2000/svg" width="53.91" height="85.077" viewBox="0 0 53.91 85.077"><defs><style>.cls-1{fill:#fff;}</style></defs><title>once-client</title><g id="Layer_2" data-name="Layer 2"><g id="NOSOTROS"><g id="CLIENTES"><g id="LOGOS_CLIENTES" data-name="LOGOS CLIENTES"><g id="ONCE"><path class="cls-1" d="M28.3,0c.428.051.856.109,1.285.15A25.9,25.9,0,0,1,41.338,4.179,26.911,26.911,0,0,1,53.77,29.684,26.955,26.955,0,1,1,17.907,1.568,27.276,27.276,0,0,1,25.2.072,3.6,3.6,0,0,0,25.608,0ZM39.783,26.978A12.832,12.832,0,1,0,26.939,39.792,12.848,12.848,0,0,0,39.783,26.978Z"/><path class="cls-1" d="M8.932,71.882a6.958,6.958,0,0,1,2.966.586,6.163,6.163,0,0,1,3.86,5.547,6.264,6.264,0,0,1-2.49,5.67,6.7,6.7,0,0,1-3.107,1.292A7.567,7.567,0,0,1,6.4,84.64a6.585,6.585,0,0,1-.537-12.12A7.075,7.075,0,0,1,8.932,71.882ZM5.26,78.442a3.659,3.659,0,0,0,4.871,3.614,3.6,3.6,0,0,0,2.491-3.346,3.677,3.677,0,0,0-4.585-3.9A3.627,3.627,0,0,0,5.26,78.442Z"/><path class="cls-1" d="M27.9,84.668c-.145.015-.24.033-.334.033-.644,0-1.288.007-1.931,0-.611-.007-.858-.26-.859-.879,0-1.861.011-3.722-.009-5.583-.007-.57-.1-1.14-.162-1.708a1.757,1.757,0,0,0-.114-.4,2.011,2.011,0,0,0-2.166-1.43,2.771,2.771,0,0,0-2.759,2.681c-.022.25-.024.5-.024.755q0,3.022,0,6.045v.477a3.425,3.425,0,0,1-.361.045c-.713,0-1.427.006-2.141,0-.465,0-.557-.1-.557-.578q0-5.773,0-11.546c0-.395.03-.42.438-.422q.943,0,1.889,0c.445,0,.548.1.556.537.007.392,0,.784,0,1.175,0,.066.015.131.032.276.077-.11.117-.158.147-.211a3.961,3.961,0,0,1,3.2-2.019,5.6,5.6,0,0,1,1.878.1,3.889,3.889,0,0,1,2.984,2.772A6.813,6.813,0,0,1,27.9,76.94q-.006,3.632,0,7.263Z"/><path class="cls-1" d="M41.969,79.008a2.53,2.53,0,0,0,.039.4,4,4,0,0,0,3.1,3.033,4.255,4.255,0,0,0,3.206-.676c.571-.358.8-.349,1.27.147.355.373.707.747,1.068,1.129a1.409,1.409,0,0,1-.128.156,7.043,7.043,0,0,1-7.6,1.224,6.442,6.442,0,0,1-3.745-6.393A6.548,6.548,0,0,1,41.142,73.6a5.93,5.93,0,0,1,5.081-1.658,6.762,6.762,0,0,1,1.188.249,5.076,5.076,0,0,1,3.317,3.152,8,8,0,0,1,.546,2.785c.017.609-.216.846-.824.846q-3.947,0-7.894,0C42.378,78.981,42.2,79,41.969,79.008Zm6.586-2.164A2.722,2.722,0,0,0,47.062,74.6a3.477,3.477,0,0,0-3.077-.006,2.73,2.73,0,0,0-1.506,2.247Z"/><path class="cls-1" d="M21.214,63.346a2.248,2.248,0,0,0-2.146-2.53,2.56,2.56,0,0,0-1.617.324c-.42.251-.825.528-1.221.815-.566.41-.75.4-1.259-.1-.288-.283-.583-.56-.892-.856a2.811,2.811,0,0,1,.217-.252,6.958,6.958,0,0,1,6.475-1.672,3.618,3.618,0,0,1,2.9,3.428c.045.473.068.95.07,1.425.008,1.876,0,3.752,0,5.628,0,.111,0,.224,0,.335a.335.335,0,0,1-.329.367c-.71.014-1.42,0-2.164,0V68.825a1.149,1.149,0,0,0-.2.153A3.718,3.718,0,0,1,18.5,70.512a5.3,5.3,0,0,1-3.159-.4,2.989,2.989,0,0,1-1.781-2.1,3.263,3.263,0,0,1,1.576-3.7,6.694,6.694,0,0,1,2.715-.81c.96-.09,1.927-.112,2.891-.16C20.889,63.339,21.04,63.346,21.214,63.346ZM21.2,65.351a1.013,1.013,0,0,0-.205-.057c-.906.052-1.814.078-2.716.17a2.961,2.961,0,0,0-1.514.569,1.258,1.258,0,0,0,0,2.049,2.324,2.324,0,0,0,.789.367,3.481,3.481,0,0,0,2.219-.177,2.039,2.039,0,0,0,1.294-1.539A13.045,13.045,0,0,0,21.2,65.351Z"/><path class="cls-1" d="M43.681,70.213V68.8c-.1.112-.139.147-.169.188a3.7,3.7,0,0,1-2.557,1.528,5.3,5.3,0,0,1-3.156-.4,2.992,2.992,0,0,1-1.824-2.348,3.222,3.222,0,0,1,1.554-3.406,6.533,6.533,0,0,1,2.785-.852c.959-.091,1.925-.111,2.888-.16.15-.008.3,0,.473,0a2.068,2.068,0,0,0-.965-2.121,2.584,2.584,0,0,0-2.564-.187,12.822,12.822,0,0,0-1.35.839c-.117.075-.219.175-.337.249a.59.59,0,0,1-.774-.041c-.374-.353-.724-.732-1.1-1.117a1.065,1.065,0,0,1,.122-.166,6.936,6.936,0,0,1,6.612-1.7,3.523,3.523,0,0,1,2.776,3.11,7.8,7.8,0,0,1,.1,1.211c.011,2.1.008,4.2.007,6.294,0,.479-.076.554-.564.557-.587,0-1.175,0-1.762,0A1,1,0,0,1,43.681,70.213Zm-.059-4.924a12.443,12.443,0,0,0-3.385.3,3.278,3.278,0,0,0-1.016.473,1.231,1.231,0,0,0-.007,2.012,2.26,2.26,0,0,0,.785.375,3.5,3.5,0,0,0,2.259-.18,2.055,2.055,0,0,0,1.1-1.04A3.8,3.8,0,0,0,43.622,65.289Z"/><path class="cls-1" d="M39.953,83.023a6.621,6.621,0,0,1-11.4-4.687,6.621,6.621,0,0,1,11.318-4.5c-.327.557-.649,1.128-.994,1.686a.636.636,0,0,1-.881.225c-.087-.044-.161-.113-.247-.158-.394-.21-.78-.438-1.188-.617a3.515,3.515,0,0,0-4.812,2.847,3.918,3.918,0,0,0,.745,3.052,3.452,3.452,0,0,0,3.947,1.14,10.4,10.4,0,0,0,1.4-.744c.533-.33.864-.285,1.186.236C39.335,82,39.638,82.506,39.953,83.023Z"/><path class="cls-1" d="M35.264,70.24c-.13.014-.225.032-.32.033-.546,0-1.091.006-1.637,0-.593-.007-.811-.225-.812-.814,0-1.651.011-3.3-.009-4.954a13.855,13.855,0,0,0-.159-1.581,1.924,1.924,0,0,0-.156-.476,1.676,1.676,0,0,0-1.543-1.112A2.537,2.537,0,0,0,27.792,63.6a5.555,5.555,0,0,0-.053.836c0,1.777,0,3.554,0,5.332v.46a2.231,2.231,0,0,1-.288.045c-.644,0-1.288.007-1.931,0-.409,0-.5-.092-.5-.5q0-5.186,0-10.369c0-.095.019-.19.03-.294a.6.6,0,0,1,.162-.059c.658,0,1.316-.013,1.973,0,.3,0,.391.1.4.417.013.418,0,.837,0,1.325.088-.076.133-.1.155-.137A3.729,3.729,0,0,1,31,58.82a5.243,5.243,0,0,1,1.292.1,3.546,3.546,0,0,1,2.886,3.056,5.972,5.972,0,0,1,.1,1.041c.01,2.309.006,4.618.006,6.927C35.282,70.029,35.272,70.112,35.264,70.24Z"/><path class="cls-1" d="M13.118,60.569c-.444.487-.865.97-1.312,1.428-.222.228-.482.206-.812.039-.4-.2-.8-.406-1.213-.567A3.366,3.366,0,1,0,8.185,68a3.941,3.941,0,0,0,2.934-.752c.1-.071.2-.157.3-.223a.638.638,0,0,1,1.015.386c.157.535.3,1.074.452,1.611a.617.617,0,0,1-.081.1,6.492,6.492,0,0,1-8.532-.269,6.008,6.008,0,0,1-.2-8.176,6.191,6.191,0,0,1,3.833-1.9,6.468,6.468,0,0,1,5.012,1.58A1.949,1.949,0,0,1,13.118,60.569Z"/><path class="cls-1" d="M47.475,53.933h2.582v.506q0,6.78,0,13.558a3.647,3.647,0,0,0,.06.708,1.827,1.827,0,0,0,.99,1.283l.413.221c-.485.624-1.065,1.1-1.592,1.663-.151-.068-.294-.12-.424-.194a3.814,3.814,0,0,1-2.025-3.313c-.014-.265-.006-.532-.006-.8V53.933Z"/></g></g></g></g></g></svg>