<svg xmlns="http://www.w3.org/2000/svg" width="112.809" height="30.308" viewBox="0 0 112.809 30.308"><defs><style>.cls-1{fill:#fff;}</style></defs><title>netflix-client</title><g id="Layer_2" data-name="Layer 2"><g id="NOSOTROS"><g id="CLIENTES"><g id="LOGOS_CLIENTES" data-name="LOGOS CLIENTES"><g id="NETFLIX"><path class="cls-1" d="M87.121,27.5q2.379.181,4.75.392V0h-4.75ZM10.7,17.153,4.515,0H0V30.308q2.372-.338,4.75-.647V13.181l5.5,15.8q2.595-.3,5.2-.57V0H10.7Zm9.319,10.821q6.566-.6,13.2-.981V22.312q-4.235.246-8.445.577V15.8c1.841-.018,4.267-.074,6.415-.048V11.074c-1.717,0-4.475.024-6.415.049v-6.4h8.445V0H20.021ZM36.261,4.725h4.972V26.613q2.37-.089,4.75-.15V4.725h4.972V0H36.261ZM54,26.335h4.751V15.527H65.19V10.846H58.751V4.726h8.511V0H54ZM112.809,0h-5.218l-3.44,7.972L101.061,0h-5.14l5.523,14.246L95.415,28.224q2.5.244,4.993.52l3.506-8.126,3.473,8.958q2.713.348,5.414.732l.008,0-6.189-15.96ZM75.057,0h-4.75V26.567q6.475.224,12.9.652V22.538q-4.064-.27-8.148-.46Z"/></g></g></g></g></g></svg>