<svg xmlns="http://www.w3.org/2000/svg" width="80.445" height="62.711" viewBox="0 0 80.445 62.711"><defs><style>.cls-1{fill:#fff;}</style></defs><title>telemundo-client</title><g id="Layer_2" data-name="Layer 2"><g id="NOSOTROS"><g id="CLIENTES"><g id="LOGOS_CLIENTES" data-name="LOGOS CLIENTES"><g id="TELEMUNDO"><polygon class="cls-1" points="0 54.05 0 55.81 2.45 55.81 2.45 62.569 4.432 62.569 4.432 55.81 6.878 55.81 6.878 54.05 0 54.05"/><polygon class="cls-1" points="8.847 62.569 8.847 54.055 14.922 54.055 14.922 55.786 10.817 55.786 10.817 57.34 13.783 57.34 13.783 59.059 10.817 59.059 10.817 60.837 14.982 60.837 14.982 62.569 8.847 62.569"/><polygon class="cls-1" points="17.344 62.569 17.344 54.05 19.343 54.05 19.343 60.789 23.193 60.789 23.193 62.569 17.344 62.569"/><polygon class="cls-1" points="25.002 62.569 25.002 54.055 31.077 54.055 31.077 55.786 26.972 55.786 26.972 57.34 29.938 57.34 29.938 59.059 26.972 59.059 26.972 60.837 31.138 60.837 31.138 62.569 25.002 62.569"/><path class="cls-1" d="M44.186,54.055h2.019V59.3a1.521,1.521,0,1,0,3.038,0V54.055h2.019V59.3c0,2.376-1.637,3.389-3.552,3.389s-3.524-1.013-3.524-3.393Z"/><path class="cls-1" d="M53.745,62.569V54.05h1.7s3.365,4.753,3.486,4.988l-.016-4.988H60.83v8.519h-1.6s-3.434-4.907-3.579-5.157l.017,5.157Z"/><path class="cls-1" d="M66.383,54.055H63.377v8.514h2.86c2.941,0,4.461-1.444,4.461-4.288s-1.6-4.226-4.315-4.226m-.057,6.758h-.95v-5h1c1.639,0,2.3.946,2.3,2.495,0,1.631-.713,2.508-2.353,2.508"/><path class="cls-1" d="M79.374,55.193a4.175,4.175,0,0,0-6.029.005,5.037,5.037,0,0,0-.007,6.232,4.174,4.174,0,0,0,6.029-.012,5.045,5.045,0,0,0,.007-6.225m-1.457,4.876a1.846,1.846,0,0,1-3.112,0,3.41,3.41,0,0,1-.007-3.527,1.806,1.806,0,0,1,1.547-.846,1.833,1.833,0,0,1,1.564.86,3.429,3.429,0,0,1,.008,3.513"/><path class="cls-1" d="M33.478,62.569V54.05h1.776s2.26,4.229,2.349,4.544c.1-.324,2.349-4.544,2.349-4.544H41.7v8.519H39.822V57.7c-.123.309-1.54,2.9-1.9,3.681h-.669c-.354-.78-1.771-3.372-1.9-3.681v4.866Z"/><path class="cls-1" d="M63.868,0H55.547a23.321,23.321,0,0,0-15.2,5.02v0l-.113.1c-.013.011-1.243,1.131-2.124,2.131-.422.478-.825.979-1.2,1.491-3.014,4.119-4.509,9.305-4.443,15.415a27.922,27.922,0,0,0,1.3,8.338c.259.8.533,1.52.837,2.215.048.108.1.216.145.324a22.2,22.2,0,0,0,1.483,2.72c.188.314.3.484.5.773l-.215.151q-.173-.242-.339-.488c-.289-.428-.569-.876-.833-1.33A31.356,31.356,0,0,1,33.9,33.908c-.036-.091-.071-.182-.106-.273A27,27,0,0,1,32,24.167a26.468,26.468,0,0,1,2.679-12.438A22.038,22.038,0,0,1,36.621,8.6,22.5,22.5,0,0,1,39.085,5.8c.1-.1.2-.2.3-.3.21-.208.428-.424.64-.607l.023-.019A23.377,23.377,0,0,0,25.03,0H16.708a.143.143,0,0,0-.142.143V18.478a.143.143,0,0,0,.142.143H30.864a.121.121,0,0,1,.137.123c-.829,28.242-.868,29.6-.87,29.612,0,.048.007.073.072.073a24.012,24.012,0,0,0,10.085-5.073,24.012,24.012,0,0,0,10.085,5.073c.067,0,.072-.026.072-.077,0,.024-.869-29.608-.869-29.608a.121.121,0,0,1,.137-.123H63.868a.143.143,0,0,0,.143-.143V.143A.143.143,0,0,0,63.868,0Z"/></g></g></g></g></g></svg>