<svg xmlns="http://www.w3.org/2000/svg" width="103.442" height="51.414" viewBox="0 0 103.442 51.414"><defs><style>.cls-1{fill:#fff;}</style></defs><title>chile-client</title><g id="Layer_2" data-name="Layer 2"><g id="NOSOTROS"><g id="CLIENTES"><g id="LOGOS_CLIENTES" data-name="LOGOS CLIENTES"><g id="CHILE_VISIÓN" data-name="CHILE VISIÓN"><path class="cls-1" d="M103.442,50.592h-2.988V44.479c0-.459,0-.918,0-1.378-.019-2.321-.89-3.476-2.628-3.493a3.63,3.63,0,0,0-3.681,3.55c-.056,2.065-.011,4.133-.021,6.2,0,.333-.057.665-.1,1.095H91.474v-12.9h2.513l.285,1.93c.395-.349.636-.562.876-.776,3.2-2.845,7.294-1.952,8.294,2.7Z"/><polygon class="cls-1" points="10.591 5.521 10.591 0 26.244 11.917 26.244 17.155 0.007 17.155 0 12.329 19.727 12.446 10.591 5.521"/><path class="cls-1" d="M.194,35.967H4.932c0,1-.036,1.906.007,2.805a8.328,8.328,0,0,0,7.769,8.021,8.106,8.106,0,0,0,8.506-6.554A26.355,26.355,0,0,0,21.466,36h4.581c.469,4.768-.994,9.775-5.082,12.836a13,13,0,0,1-14.55.667C1.935,46.759-.077,42.661.194,35.967Z"/><path class="cls-1" d="M54.985,8.343l-2.266,2.021c-1.849-2.309-4.13-3.69-7.152-3.313a7.157,7.157,0,0,0-4.806,2.764,8.635,8.635,0,0,0,.927,11.7c3.377,2.984,7.331,2.374,11.326-1.829L55.1,21.628c-1.883,3.436-6.608,5.277-11,4.364A11.1,11.1,0,0,1,42.488,4.871,10.666,10.666,0,0,1,54.985,8.343Z"/><path class="cls-1" d="M51.137,29.135H54.6c-3.112,7.144-6.124,14.058-9.29,21.328-3.163-7.249-6.179-14.159-9.29-21.287h3.464l5.823,14.81Z"/><path class="cls-1" d="M68.821,25.694H65.9V19.508c0-.4,0-.806,0-1.209-.025-2.27-.818-3.308-2.566-3.361a3.511,3.511,0,0,0-3.742,3.451c-.055,2.012-.009,4.027-.021,6.041,0,.39-.067.779-.114,1.272H56.9V4.2h2.62V14.869c.8-.669,1.241-1.1,1.739-1.438a4.985,4.985,0,0,1,5.36-.649c1.759.9,2.19,2.554,2.2,4.371C68.827,19.96,68.821,22.766,68.821,25.694Z"/><path class="cls-1" d="M68.251,39.1l-1.34,1.445c-2.952-1.619-4.247-1.081-4.765.087-.464,1.046.913,1.517,1.624,1.807,1,.408,2.113.553,3.1.978,1.667.715,2.238,1.938,2.027,3.941A3.525,3.525,0,0,1,66.157,50.7a7.292,7.292,0,0,1-7.339-2.367l1.292-1.379A9.866,9.866,0,0,0,62.587,48.6a4.194,4.194,0,0,0,2.962,0,1.877,1.877,0,0,0,1.069-1.676c0-.8-.53-1.115-1.512-1.5a28.022,28.022,0,0,1-4.632-1.778c-1.947-1.214-1.294-4.538.607-5.634A6.481,6.481,0,0,1,68.251,39.1Z"/><path class="cls-1" d="M79.532,25.693h-2.57V4.169h2.57Z"/><rect class="cls-1" x="16.344" y="24.281" width="9.888" height="4.661"/><rect class="cls-1" x="0.154" y="24.265" width="9.836" height="4.689"/><path class="cls-1" d="M56.72,38.744V50.432H54.025V37.324Z"/><path class="cls-1" d="M73.6,38.762V50.426H70.835V37.285Z"/><path class="cls-1" d="M74.24,14.075V25.652H71.483V12.516Z"/><path class="cls-1" d="M83.962,34.972H81.225V32.6h2.737Z"/><path class="cls-1" d="M74.321,10.159l-.089,1.894H71.471V10.159Z"/><path class="cls-1" d="M56.791,36.75H54.043V34.845H56.7Z"/><path class="cls-1" d="M73.577,34.866V36.7H70.838V34.866Z"/><path class="cls-1" d="M93.67,14.615A7.13,7.13,0,0,0,83.6,14.549a6.6,6.6,0,0,0,.194,9.546c2.892,2.669,8.148,2.589,10.737-.343L93,22.293c-3.632,2.484-7.37,1.613-8.156-1.986h10.53A6.157,6.157,0,0,0,93.67,14.615ZM84.9,18.076a3.75,3.75,0,0,1,3.548-3.348c1.836-.1,3.367,1.134,3.961,3.348Z"/><path class="cls-1" d="M82.571,37.181a6.937,6.937,0,0,0-6.988,6.661,6.988,6.988,0,1,0,6.988-6.661Zm-.01,11.228a4.493,4.493,0,1,1,4.095-4.425A4.281,4.281,0,0,1,82.561,48.409Z"/></g></g></g></g></g></svg>