<svg xmlns="http://www.w3.org/2000/svg" width="97.867" height="54.573" viewBox="0 0 97.867 54.573"><defs><style>.cls-1{fill:#fff;}</style></defs><title>telefe-client</title><g id="Layer_2" data-name="Layer 2"><g id="NOSOTROS"><g id="CLIENTES"><g id="LOGOS_CLIENTES" data-name="LOGOS CLIENTES"><g id="TELEFE"><path class="cls-1" d="M85.316,45.95a5.813,5.813,0,0,0-.155.846c-.013.333-.149.413-.465.412-3.235-.013-6.47-.011-9.7-.013h-.47c.247,2.718.815,4.425,3.558,5.085a6.169,6.169,0,0,0,4.223-.718c.189-.092.372-.2.6-.323L84,53.092c-.658.3-1.276.617-1.925.856a8.536,8.536,0,0,1-5.037.4,6.245,6.245,0,0,1-4.625-4.138,8.451,8.451,0,0,1,.94-7.967,6.477,6.477,0,0,1,6.071-2.769,6.577,6.577,0,0,1,3.151.99,5.725,5.725,0,0,1,2.654,4.4,2.268,2.268,0,0,0,.084.3Zm-2.522-.565c-.018-2.252-1.789-3.79-4.283-3.758-1.9.024-4,2-3.958,3.758Z"/><path class="cls-1" d="M36.059,47.2H25.428c-.076,3.421,1.85,5.421,5.137,5.169A6.6,6.6,0,0,0,33.708,51.2c.274.47.542.91.791,1.361a.49.49,0,0,1-.236.77,8.37,8.37,0,0,1-7.632.576,6.333,6.333,0,0,1-3.7-4.73,8.061,8.061,0,0,1,2.044-7.834,6.862,6.862,0,0,1,9.84.354,5.7,5.7,0,0,1,1.238,3.373C36.091,45.761,36.059,46.461,36.059,47.2Zm-2.383-1.81c-.457-2.578-1.712-3.831-4.176-3.759a4.044,4.044,0,0,0-4.07,3.759Z"/><path class="cls-1" d="M59.539,47.2H48.913c.034,3.633,2.119,5.636,5.7,5.085a6.432,6.432,0,0,0,1.365-.409c.439-.174.85-.417,1.3-.642l1.053,1.793a8.417,8.417,0,0,1-2.807,1.22,8.036,8.036,0,0,1-5.038-.185,6.606,6.606,0,0,1-4.132-5.51,8.977,8.977,0,0,1,.693-5.163,6.709,6.709,0,0,1,6.964-3.9,6.19,6.19,0,0,1,4.676,2.655,4.855,4.855,0,0,1,.853,2.648C59.559,45.573,59.539,46.354,59.539,47.2Zm-2.393-1.818a3.826,3.826,0,0,0-3.517-3.762A4.4,4.4,0,0,0,48.9,45.381Z"/><path class="cls-1" d="M69.125,39.748V41.8h-3V54.278h-2.5V41.832H61.489c0-.669-.009-1.3.015-1.93,0-.064.206-.169.319-.173.581-.017,1.163-.008,1.751-.008.121-.725.208-1.421.357-2.1a4.93,4.93,0,0,1,1.614-2.847,4.827,4.827,0,0,1,3.816-.955c.536.056,1.066.167,1.645.26-.195.547-.36,1.045-.556,1.53a.393.393,0,0,1-.3.151c-.41.014-.822.008-1.232,0a2.622,2.622,0,0,0-2.69,2.315c-.071.43-.08.869-.131,1.3-.034.283.078.369.355.363.8-.016,1.59-.01,2.385-.01C68.924,39.722,69.015,39.738,69.125,39.748Z"/><path class="cls-1" d="M16.019,41.694c-.01.153-.025.268-.025.384.005,2.358,0,4.717.027,7.075a7.866,7.866,0,0,0,.173,1.457,2.071,2.071,0,0,0,2.159,1.781,14.985,14.985,0,0,0,1.92-.255c.129-.019.255-.061.417-.1.064.369.125.719.184,1.068s.118.7.184,1.095a13.852,13.852,0,0,1-4.207.24,4,4,0,0,1-3.272-3.626,31.671,31.671,0,0,1-.117-3.292c-.014-1.8-.006-3.6.013-5.406,0-.335-.1-.446-.427-.421a6.2,6.2,0,0,1-.992-.005c-.1-.009-.274-.136-.278-.215-.024-.566-.013-1.134-.013-1.746h1.188c.509,0,.51,0,.511-.527,0-.755-.005-1.511.011-2.266,0-.121.072-.311.161-.348.752-.316,1.516-.6,2.344-.927,0,.2,0,.338,0,.477-.007,1.06-.005,2.121-.028,3.181-.007.309.08.416.4.409,1.046-.021,2.093-.014,3.14-.015.155,0,.31.013.485.021v1.961Z"/><path class="cls-1" d="M39.106,33.717h2.53v.512q0,7.179,0,14.359c0,.476.033.953.068,1.428a2.2,2.2,0,0,0,1.719,2.16c.813.231.647.053.666.9.01.451,0,.9,0,1.352a.548.548,0,0,1-.043.123c-1.431-.141-2.866-.283-3.954-1.407a3.85,3.85,0,0,1-.905-2.568c-.056-.819-.074-1.642-.076-2.463q-.011-6.941,0-13.881Z"/><path class="cls-1" d="M97.866,15.685a15.631,15.631,0,0,1-15.812,15.67A16.005,16.005,0,0,1,66.3,15.669C66.266,8.847,71.664-.046,82.125,0A15.379,15.379,0,0,1,97.866,15.685Z"/><path class="cls-1" d="M64.7,15.685a15.631,15.631,0,0,1-15.812,15.67A16.005,16.005,0,0,1,33.13,15.669C33.1,8.847,38.495-.046,48.956,0A15.38,15.38,0,0,1,64.7,15.685Z"/><path class="cls-1" d="M15.886,31.247A15.815,15.815,0,0,1,3.992,26.153,15.587,15.587,0,0,1,.184,18.036C-.939,11.622,3.15,3.391,10.356.927A16.82,16.82,0,0,1,18.029.238a15.129,15.129,0,0,1,7.534,3.019,14.682,14.682,0,0,1,5.747,9.906,15.342,15.342,0,0,1-3.246,12.256,15.178,15.178,0,0,1-10.116,5.736,5.729,5.729,0,0,1-.591.087C16.867,31.255,16.376,31.247,15.886,31.247Z"/></g></g></g></g></g></svg>