<svg xmlns="http://www.w3.org/2000/svg" width="225.833" height="169" viewBox="0 0 225.833 169"><defs><style>.cls-1{fill:#fff;}.cls-1,.cls-2{fill-rule:evenodd;}.cls-2{fill:#0e0e0e;}.cls-3{fill:none;}</style></defs><title>amazon</title><g id="Layer_2" data-name="Layer 2"><g id="NOSOTROS"><g id="AMAZON"><g id="AMAMZON_PRIME_VIDEO" data-name="AMAMZON PRIME VIDEO"><path class="cls-1" d="M35.778,67.148A11.281,11.281,0,0,1,39.3,66.5a10.922,10.922,0,0,1,3.235.357,7.226,7.226,0,0,1,2.141.944,4.772,4.772,0,0,1,1.858,2.335,9.934,9.934,0,0,1,.409,3.375c-.005,2.013,0,4.026,0,6.039a9.585,9.585,0,0,0,.068,1.571,3.962,3.962,0,0,0,.5,1.372c.238.4.524.762.8,1.133a.887.887,0,0,1,.2.707.662.662,0,0,1-.262.352c-.837.693-1.655,1.406-2.478,2.115a1.6,1.6,0,0,1-.607.4.732.732,0,0,1-.607-.12,8.487,8.487,0,0,1-1.217-1.2c-.307-.38-.569-.792-.849-1.192a9.3,9.3,0,0,1-2.887,2.12,7.885,7.885,0,0,1-3.011.533A5.828,5.828,0,0,1,32.8,86.2a5.085,5.085,0,0,1-1.785-3.12A7.1,7.1,0,0,1,31.6,78.57a6.245,6.245,0,0,1,2.756-2.656,11.1,11.1,0,0,1,3.007-.94c1.454-.265,2.929-.383,4.4-.539a19.294,19.294,0,0,0-.043-1.939,2.441,2.441,0,0,0-.6-1.425,2.554,2.554,0,0,0-1.722-.7,3.261,3.261,0,0,0-2.281.715,2.632,2.632,0,0,0-.84,1.474c-.067.327-.326.683-.694.661-1.158-.122-2.317-.25-3.475-.377a.643.643,0,0,1-.61-.681,6.517,6.517,0,0,1,1.043-2.608,6.65,6.65,0,0,1,3.24-2.409Zm3.285,10.494a4.262,4.262,0,0,0-1.8.893,2.982,2.982,0,0,0-.945,1.819,3.748,3.748,0,0,0,.263,2.159,2.018,2.018,0,0,0,1.208,1.055A2.579,2.579,0,0,0,40,83.205a4.1,4.1,0,0,0,1.533-2.289,14.346,14.346,0,0,0,.231-3.556,11.2,11.2,0,0,0-2.7.282Z"/><path class="cls-1" d="M86,66.662a11.392,11.392,0,0,1,5.421.361,6.083,6.083,0,0,1,2.369,1.406A4.584,4.584,0,0,1,95,70.492a11.2,11.2,0,0,1,.3,3.071c-.006,1.963,0,3.927,0,5.891a7.461,7.461,0,0,0,.159,2.077,5.921,5.921,0,0,0,1.162,2.029.961.961,0,0,1,.252.771c-.046.215-.245.337-.4.473q-1.249,1.048-2.478,2.119a.948.948,0,0,1-.708.3c-.348-.013-.563-.323-.815-.52a9.639,9.639,0,0,1-1.619-2,10.652,10.652,0,0,1-2.311,1.84,6.511,6.511,0,0,1-2.592.762,8.524,8.524,0,0,1-2.787-.133,5.039,5.039,0,0,1-2.425-1.336,5.459,5.459,0,0,1-1.463-3.387,7.207,7.207,0,0,1,.385-3.21,6.04,6.04,0,0,1,2.461-2.981,9.758,9.758,0,0,1,3.44-1.246c1.5-.29,3.036-.407,4.558-.572a15.974,15.974,0,0,0-.062-2.076,2.244,2.244,0,0,0-.741-1.432,2.819,2.819,0,0,0-1.964-.55,3.058,3.058,0,0,0-2.039.861,2.679,2.679,0,0,0-.688,1.345c-.072.324-.337.673-.7.64q-1.719-.183-3.436-.372a.656.656,0,0,1-.637-.685,6.231,6.231,0,0,1,2.046-3.726A8.282,8.282,0,0,1,86,66.662Zm1,11.1a3.518,3.518,0,0,0-1.822,1.264,3.692,3.692,0,0,0-.522,2.558,2.4,2.4,0,0,0,1.044,1.783,2.5,2.5,0,0,0,2.616-.142,4.124,4.124,0,0,0,1.609-2.474,15.971,15.971,0,0,0,.186-3.393,10.117,10.117,0,0,0-3.111.4Z"/><path class="cls-1" d="M59.676,66.808A6.363,6.363,0,0,1,62.2,66.8a4.243,4.243,0,0,1,2.229,1.245,7.265,7.265,0,0,1,1.327,2.091,5.667,5.667,0,0,1,1.015-1.7,5.062,5.062,0,0,1,2.4-1.518,5.7,5.7,0,0,1,5.226,1.01A4.324,4.324,0,0,1,75.766,70a12.3,12.3,0,0,1,.308,3.76c-.019,1.933,0,3.866-.009,5.8q0,3.4,0,6.807a.694.694,0,0,1-.693.685c-1.142.008-2.283,0-3.425,0a1.1,1.1,0,0,1-.629-.112.675.675,0,0,1-.323-.625c.007-3.879-.012-7.759.013-11.638a12,12,0,0,0-.085-1.54,2.143,2.143,0,0,0-.684-1.344,2.328,2.328,0,0,0-1.48-.433A2.432,2.432,0,0,0,66.7,72.521a3.362,3.362,0,0,0-.421,1.292,19.718,19.718,0,0,0-.117,2.792q0,4.876,0,9.753a.669.669,0,0,1-.346.593,1.336,1.336,0,0,1-.689.1H61.852a.736.736,0,0,1-.67-.353,1.1,1.1,0,0,1-.085-.576q0-4.854,0-9.708a15.647,15.647,0,0,0-.147-3.26,2.088,2.088,0,0,0-2.666-1.786,2.017,2.017,0,0,0-1.418.979,5.5,5.5,0,0,0-.574,2.476c-.043,1.094-.014,2.189-.023,3.283q0,4.129,0,8.259a.7.7,0,0,1-.7.683c-1.221.007-2.442,0-3.662,0a.685.685,0,0,1-.707-.687q0-9.3,0-18.594a.693.693,0,0,1,.705-.692c1.143,0,2.286,0,3.429,0a.687.687,0,0,1,.691.646c.008.8-.006,1.6.007,2.4l.058.007a6.516,6.516,0,0,1,1.046-1.81,4.531,4.531,0,0,1,2.541-1.513Z"/><path class="cls-1" d="M145.172,67.111a5.783,5.783,0,0,1,2.779-.414,4.93,4.93,0,0,1,2.962,1.2,4.615,4.615,0,0,1,1.277,1.915,13.612,13.612,0,0,1,.52,4.234q.007,6.157,0,12.315a.664.664,0,0,1-.511.66,2.746,2.746,0,0,1-.58.029c-1.092,0-2.183,0-3.275,0a.685.685,0,0,1-.7-.639q0-4.926,0-9.853c0-.819.03-1.639-.033-2.456a4.372,4.372,0,0,0-.5-1.908,1.8,1.8,0,0,0-1.074-.823,2.336,2.336,0,0,0-1.469.058,2.579,2.579,0,0,0-1.347,1.3,7.11,7.11,0,0,0-.593,2.816c-.025.805-.009,1.61-.013,2.416v8.064a1.641,1.641,0,0,1-.05.585.73.73,0,0,1-.69.439c-1.206,0-2.412,0-3.618,0a.692.692,0,0,1-.712-.684q0-9.3,0-18.6a.653.653,0,0,1,.327-.588.889.889,0,0,1,.484-.107c1.095,0,2.19,0,3.285,0a.705.705,0,0,1,.634.357.982.982,0,0,1,.061.482c0,.854-.007,1.708,0,2.562a.191.191,0,0,0,.106-.1,8.227,8.227,0,0,1,1.077-1.93,4.409,4.409,0,0,1,1.66-1.333Z"/><path class="cls-1" d="M99.73,67.715a.662.662,0,0,1,.655-.649q6.039-.006,12.078,0a.7.7,0,0,1,.649.347,1.067,1.067,0,0,1,.083.551q0,.99,0,1.981a2.216,2.216,0,0,1-.5,1.2q-3.336,4.721-6.669,9.442a13.912,13.912,0,0,1,6.406,1.217,2.251,2.251,0,0,1,.915.635,1.519,1.519,0,0,1,.216.932c0,.855,0,1.71,0,2.565a.7.7,0,0,1-.615.7,1.485,1.485,0,0,1-.578-.22,14.038,14.038,0,0,0-12.217.053c-.181.086-.365.225-.576.175a.723.723,0,0,1-.535-.7c0-.806,0-1.611,0-2.416a3.416,3.416,0,0,1,.5-2.16q3.6-5.131,7.206-10.265-3.153,0-6.305,0a.7.7,0,0,1-.6-.3.783.783,0,0,1-.108-.454c0-.871,0-1.743,0-2.614Z"/><path class="cls-1" d="M105.63,87.992a14.174,14.174,0,0,1,3.549.245,3.98,3.98,0,0,1,1.28.463.817.817,0,0,1,.326.564,5.585,5.585,0,0,1,.025,1.592,14.89,14.89,0,0,1-1.448,4.909,10.7,10.7,0,0,1-2.648,3.494.774.774,0,0,1-.758.222c-.209-.1-.209-.378-.131-.567a38.963,38.963,0,0,0,1.85-5.36,5.843,5.843,0,0,0,.19-1.937.989.989,0,0,0-.438-.755,3.845,3.845,0,0,0-1.587-.409,34.7,34.7,0,0,0-6.318.346c-.2.021-.456-.037-.512-.254a.689.689,0,0,1,.342-.635,9.5,9.5,0,0,1,2.519-1.244,14.293,14.293,0,0,1,3.759-.674Z"/><path class="cls-1" d="M47.912,89.234a.8.8,0,0,1,.729.1,62.572,62.572,0,0,0,21.806,7.513,61.787,61.787,0,0,0,15.454.4,62.968,62.968,0,0,0,17.379-4.329,2.793,2.793,0,0,1,1.069-.324.968.968,0,0,1,.932.659.947.947,0,0,1-.341.945c-.236.2-.5.368-.752.552A39.7,39.7,0,0,1,93.605,99.8a49.109,49.109,0,0,1-12.823,2.247,47.538,47.538,0,0,1-17.33-2.623,46.15,46.15,0,0,1-15.3-8.973c-.2-.177-.443-.341-.509-.617a.5.5,0,0,1,.27-.6Z"/><path class="cls-1" d="M132.234,90.355a1.688,1.688,0,0,1,1.329.259,1.117,1.117,0,0,1,.005,1.69,1.62,1.62,0,0,1-1.166.284,1.308,1.308,0,0,1-.911-.435,1.166,1.166,0,0,1-.167-1.088,1.144,1.144,0,0,1,.91-.71Z"/><path class="cls-1" d="M168.552,90.3H171.3c0,.775,0,1.55,0,2.325q-1.377,0-2.754,0c0-.774,0-1.549,0-2.323Z"/><path class="cls-1" d="M178.074,90.758a.45.45,0,0,1,.449-.447c.5,0,1-.007,1.5,0a.461.461,0,0,1,.433.493v10.674a.462.462,0,0,1-.385.492c-.289.025-.58,0-.869.011a1.115,1.115,0,0,1-.716-.128.924.924,0,0,1-.3-.582,3.52,3.52,0,0,1-2.22.876,3.283,3.283,0,0,1-2.365-.774,4.02,4.02,0,0,1-1.219-2.531,6.406,6.406,0,0,1,.2-2.642,3.665,3.665,0,0,1,1.6-2.106,3.739,3.739,0,0,1,3.892.3c0-1.211,0-2.423,0-3.634Zm-2.868,5.234a2.834,2.834,0,0,0-.447,1.477,5.212,5.212,0,0,0,.117,1.638,1.808,1.808,0,0,0,.564.96,1.676,1.676,0,0,0,1.007.349,2.809,2.809,0,0,0,1.628-.442c-.008-1.387,0-2.775,0-4.162a3.288,3.288,0,0,0-1.866-.376,1.4,1.4,0,0,0-1,.556Z"/><path class="cls-1" d="M117.8,94.669a3.825,3.825,0,0,1,2.774-.992,3.012,3.012,0,0,1,1.921.761,3.985,3.985,0,0,1,1.187,2.458,6.4,6.4,0,0,1-.245,2.9,3.624,3.624,0,0,1-1.518,1.965,3.222,3.222,0,0,1-2.09.405,3.4,3.4,0,0,1-1.8-.747c0,1.131,0,2.263,0,3.394a.459.459,0,0,1-.441.473c-.486,0-.971,0-1.456,0a.46.46,0,0,1-.453-.477q0-5.189,0-10.379a.467.467,0,0,1,.383-.508c.25-.02.5,0,.752-.008a1.055,1.055,0,0,1,.682.12.97.97,0,0,1,.309.638Zm.2,1.165c0,1.409,0,2.818,0,4.228a3.031,3.031,0,0,0,2.03.388,1.418,1.418,0,0,0,.954-.636,3.169,3.169,0,0,0,.379-1.476,6.031,6.031,0,0,0-.1-1.553,1.883,1.883,0,0,0-.511-1,1.563,1.563,0,0,0-.951-.377,3.154,3.154,0,0,0-1.8.425Z"/><path class="cls-1" d="M139.509,93.753a3.508,3.508,0,0,1,1.911.106,1.941,1.941,0,0,1,.947.817,5.745,5.745,0,0,1,2.3-.952,3,3,0,0,1,2.278.414,2.233,2.233,0,0,1,.78,1.788q.006,2.775,0,5.55a.457.457,0,0,1-.443.462c-.47,0-.94,0-1.409,0a.458.458,0,0,1-.466-.371,4.224,4.224,0,0,1-.009-.477V96.5a1.246,1.246,0,0,0-.209-.762.872.872,0,0,0-.662-.3,4.08,4.08,0,0,0-1.842.4c0,1.88,0,3.76,0,5.641a.459.459,0,0,1-.469.459c-.467,0-.935,0-1.4,0a.457.457,0,0,1-.454-.465c0-1.658,0-3.315,0-4.972a1.224,1.224,0,0,0-.219-.774.89.89,0,0,0-.682-.293,4.007,4.007,0,0,0-1.824.416c-.009,1.875,0,3.75,0,5.624a.456.456,0,0,1-.435.462q-.729.007-1.456,0a.454.454,0,0,1-.436-.462q0-3.549,0-7.1a.453.453,0,0,1,.439-.466c.323-.007.646,0,.969,0a.629.629,0,0,1,.592.358c.053.133.083.275.125.413a5.869,5.869,0,0,1,2.087-.925Z"/><path class="cls-1" d="M150.282,94.584a3.884,3.884,0,0,1,2.259-.88,4.563,4.563,0,0,1,2.242.312,2.669,2.669,0,0,1,1.326,1.331,4.406,4.406,0,0,1,.28,2.222,4.1,4.1,0,0,1-.064.493.565.565,0,0,1-.544.416c-1.532,0-3.065,0-4.6,0a2.156,2.156,0,0,0,.5,1.349,2.2,2.2,0,0,0,1.392.579,9.154,9.154,0,0,0,2.75-.269.35.35,0,0,1,.411.294c.017.219.006.44.007.66a.7.7,0,0,1-.442.643,7.4,7.4,0,0,1-4.169.229,3.453,3.453,0,0,1-1.76-1.1,4.046,4.046,0,0,1-.852-2.2,6.35,6.35,0,0,1,.136-2.228,3.615,3.615,0,0,1,1.13-1.86Zm1.383,1.183a2.088,2.088,0,0,0-.5,1.3c1.068,0,2.137,0,3.206,0a2.349,2.349,0,0,0-.211-1.223,1.145,1.145,0,0,0-.845-.551,1.856,1.856,0,0,0-1.654.472Z"/><path class="cls-1" d="M184.175,93.9a5.357,5.357,0,0,1,2.466-.129,2.827,2.827,0,0,1,1.983,1.329,4.534,4.534,0,0,1,.36,2.9.57.57,0,0,1-.558.481c-1.533,0-3.066,0-4.6,0a1.821,1.821,0,0,0,1.819,1.92,8.974,8.974,0,0,0,2.824-.261.349.349,0,0,1,.405.294c.018.221.006.442.007.663a.708.708,0,0,1-.442.641,6.017,6.017,0,0,1-1.559.37,6.625,6.625,0,0,1-2.849-.216,3.339,3.339,0,0,1-1.709-1.271,4.579,4.579,0,0,1-.7-2.475,5.023,5.023,0,0,1,.562-2.667,3.461,3.461,0,0,1,1.988-1.581Zm.181,1.823a2.071,2.071,0,0,0-.546,1.348c1.069,0,2.139,0,3.209,0a2.182,2.182,0,0,0-.268-1.312,1.218,1.218,0,0,0-.938-.481,1.828,1.828,0,0,0-1.457.444Z"/><path class="cls-1" d="M193.5,93.712a4.931,4.931,0,0,1,2.63.4,3.47,3.47,0,0,1,1.636,1.734,5.553,5.553,0,0,1,.362,2.637,4.148,4.148,0,0,1-.962,2.464,3.63,3.63,0,0,1-2.223,1.157,5.28,5.28,0,0,1-2.574-.224,3.438,3.438,0,0,1-1.81-1.575,5.066,5.066,0,0,1-.531-2.549,4.642,4.642,0,0,1,.637-2.39,3.44,3.44,0,0,1,1.689-1.39,4.418,4.418,0,0,1,1.146-.263Zm.21,1.763a1.394,1.394,0,0,0-1,.777,3.561,3.561,0,0,0-.306,1.505,4.585,4.585,0,0,0,.193,1.567,1.6,1.6,0,0,0,.636.862,1.74,1.74,0,0,0,1.269.178,1.366,1.366,0,0,0,.878-.624,3.174,3.174,0,0,0,.385-1.5,4.939,4.939,0,0,0-.16-1.638,1.68,1.68,0,0,0-.623-.914,1.738,1.738,0,0,0-1.273-.211Z"/><path class="cls-1" d="M128.221,94.2a2.611,2.611,0,0,1,1.429-.373.639.639,0,0,1,.439.111.415.415,0,0,1,.123.339c0,.465,0,.93,0,1.395a.293.293,0,0,1-.363.273,5.106,5.106,0,0,0-2.556.317c0,1.738,0,3.475,0,5.212a.455.455,0,0,1-.433.46q-.729.007-1.458,0a.453.453,0,0,1-.435-.461q0-3.549,0-7.1a.454.454,0,0,1,.436-.468c.341,0,.682,0,1.024,0a.6.6,0,0,1,.565.464c.062.242.115.486.176.729a4.983,4.983,0,0,1,1.056-.9Z"/><path class="cls-1" d="M131.654,93.923a4.763,4.763,0,0,1,.9-.035c.259.006.519-.013.779.009a.458.458,0,0,1,.375.48q0,3.477,0,6.955a.6.6,0,0,1-.137.482.558.558,0,0,1-.439.137c-.435,0-.87,0-1.3,0a.459.459,0,0,1-.452-.472q0-3.549,0-7.1a.465.465,0,0,1,.282-.453Z"/><path class="cls-1" d="M159.607,94.315a.285.285,0,0,1,.226-.42c.532-.016,1.064,0,1.6-.007a.646.646,0,0,1,.651.46q.818,2.765,1.631,5.532.789-2.631,1.577-5.262a1.291,1.291,0,0,1,.213-.509.652.652,0,0,1,.515-.221c.467,0,.933,0,1.4,0a.411.411,0,0,1,.336.1.354.354,0,0,1,.019.364q-1.383,3.564-2.765,7.13a.723.723,0,0,1-.635.462c-.354.008-.708,0-1.061,0a1.285,1.285,0,0,1-.517-.057.739.739,0,0,1-.415-.453q-1.383-3.564-2.772-7.125Z"/><path class="cls-1" d="M169.018,93.909a1.94,1.94,0,0,1,.425-.021c.388,0,.777-.007,1.165,0a.458.458,0,0,1,.418.486q0,3.551,0,7.1a.46.46,0,0,1-.432.467c-.464.009-.928,0-1.392,0a.482.482,0,0,1-.421-.2.744.744,0,0,1-.086-.471q0-3.456,0-6.91a.462.462,0,0,1,.323-.465Z"/><path class="cls-1" d="M124.564,66.485a10.439,10.439,0,1,1-10.438,10.439,10.439,10.439,0,0,1,10.438-10.439Z"/><path class="cls-2" d="M121.839,72.655l7.962,3.662c.308.148.567.267.567.643s-.291.51-.567.642l-7.962,3.663c-.279,0-.549-.112-.549-.47V73.124c0-.357.27-.469.549-.469Z"/></g><rect class="cls-3" width="225.833" height="169"/></g></g></g></svg>