<svg xmlns="http://www.w3.org/2000/svg" width="104.152" height="33.424" viewBox="0 0 104.152 33.424">
  <g id="EMMY" transform="translate(-1298.081 -3118.576)">
    <path id="Path_367" data-name="Path 367" d="M1316.437,3150.637v-.623c0-.045-.221-.087-.609-.126V3148.1c-.26.024-.554.045-.862.066l-.027-.017a3.8,3.8,0,0,0,.947-.088,6.056,6.056,0,0,0-1.281-.1,12.324,12.324,0,0,0-4.731-.852.656.656,0,0,0,.416-.387,2.422,2.422,0,0,1,.251-.989c.119-.2.13-.562-.107-.654-.331-.128-.252-.305-.224-.517s.231-.294.412-.334c.5-.109.942-.737,1.286-1.114.26-.285.474-.612.729-.9.147-.167.113-.269-.05-.376a10.688,10.688,0,0,1-1.623-1.243,12.8,12.8,0,0,1-2.751-3.689,5.6,5.6,0,0,0-1.131-1.593c-.728-.7-.724-.9-.1-1.681.116-.146.21-.424.464-.126a.207.207,0,0,0,.2,0c.186-.252.387-.13.579-.033a.46.46,0,0,0,.69-.238c.153-.289.289-.588.431-.882a5.982,5.982,0,0,1,.665-1.209c.127-.157.258-.253.456-.1s.283.01.356-.144a18.681,18.681,0,0,0,1.725-5.064,18.994,18.994,0,0,0,.226-3.85,5.865,5.865,0,0,0-.339-1.778c-.065.133-.222,1.912-.305,2.746a6.607,6.607,0,0,0-.081-1.259c-.035-.273-.115-.9-.206-.894a30.574,30.574,0,0,1-1.811,7.646c-.195-.206-.34-.4-.456-.055l-.436.755c-.264-.665-.533-1.263-1.381-1.038l-.443.068c-.128-.057-.26-.131-.333.07,0,0-.109.106-.192.178-.019.017-.029.015-.041.025s-.009.028-.008.04c-.008-.024-.02-.021-.027-.016a.157.157,0,0,0-.03.032.263.263,0,0,0-.188.412,1.969,1.969,0,0,1,.137.411.157.157,0,0,1-.06.191.132.132,0,0,1-.159-.057,8.173,8.173,0,0,1-1.1-1.281c-.252-.468-.782-1.509-.939-1.857a3.08,3.08,0,0,0,.355-.278,3.55,3.55,0,0,0,.7-.872c.069.022.138.043.212.06a1.336,1.336,0,0,0,.155.027.554.554,0,0,0,.1,0,.222.222,0,0,0,.074-.018.191.191,0,0,0,.048-.027.183.183,0,0,0,.072-.136.147.147,0,0,0-.005-.055.243.243,0,0,0-.026-.071.452.452,0,0,0-.056-.082,1.159,1.159,0,0,0-.108-.113c-.065-.06-.131-.114-.2-.166a4.49,4.49,0,0,0,.246-2.016c.039-.056.08-.111.116-.17a1.973,1.973,0,0,0,.154-.287,1.9,1.9,0,0,0,.11-.312,1.021,1.021,0,0,0-.483-1.179,1.743,1.743,0,0,0-.3-.141,1.908,1.908,0,0,0-.309-.092c-.041-.01-.082-.014-.122-.022a4.267,4.267,0,0,0-.952-.981,3.644,3.644,0,0,0-1.372-.627,3.171,3.171,0,0,0-1.509.036,3.013,3.013,0,0,0-.512.194l0,0a.213.213,0,0,0-.065-.027.187.187,0,0,0-.111,0,.19.19,0,0,0-.084.074.183.183,0,0,0-.028.064.2.2,0,0,0-.007.036,1.676,1.676,0,0,0-.224.1,2.357,2.357,0,0,0-.939,1.058,4.263,4.263,0,0,0-.267.686h0c-.066-.024-.132-.049-.2-.071-.09-.03-.182-.058-.279-.081a1.142,1.142,0,0,0-.158-.028.513.513,0,0,0-.1,0,.266.266,0,0,0-.079.02.165.165,0,0,0-.053.03.241.241,0,0,0-.057.066.269.269,0,0,0-.024.085.239.239,0,0,0,.005.06.229.229,0,0,0,.029.077.48.48,0,0,0,.058.086,1.1,1.1,0,0,0,.111.115c.074.068.148.129.223.187.106.082.215.159.323.235a4.505,4.505,0,0,0-.046.97,3.34,3.34,0,0,0-.271.355,1.887,1.887,0,0,0-.16.282,1.694,1.694,0,0,0-.116.308,1.164,1.164,0,0,0,.025.678,1.067,1.067,0,0,0,.05.1c0,.014.008.029.013.044a.9.9,0,0,0,.441.465,2,2,0,0,0,.58.186c.081.014.162.023.243.031h.005a4.652,4.652,0,0,0,.3.385,4.218,4.218,0,0,0,1.088.883,3.408,3.408,0,0,0,1.339.429,2.664,2.664,0,0,0,.862-.056c.085.329.176.692.209.813a5.492,5.492,0,0,0,1.155,2.152,12.556,12.556,0,0,0,1.1,1.085c.12.112-.735.5-1.021.811a.646.646,0,0,0-.108.622c.023.033.064.925.12,1.331a19.068,19.068,0,0,0,.709,2.945,12.232,12.232,0,0,0,1.848,3.6,11.781,11.781,0,0,1,1.693,3.705c.08.317.18.628.267.944a6.336,6.336,0,0,1,.329,1.959c-.1.171-.231.154-.21.291a.078.078,0,0,0,.007.02,12.691,12.691,0,0,0-4.986.855,6.056,6.056,0,0,0-1.281.1c0,.008.024.015.058.022v1.8c-.388.039-.608.081-.608.126v.623c-.367.04-.572.083-.572.128v.9c0,.185,3.383.335,7.555.335s7.555-.15,7.555-.335v-.9C1317.008,3150.72,1316.8,3150.677,1316.437,3150.637Zm-11.49-25.263c.048-.1.092-.2.13-.309l.056.02C1305.075,3125.185,1305.013,3125.281,1304.947,3125.374Zm-2.9-2.1c-.049-.118-.1-.236-.147-.355-.038-.094-.073-.188-.11-.282.137.071.276.14.412.213.1.052.2.106.294.159.082.209.165.418.243.629C1302.507,3123.518,1302.276,3123.4,1302.046,3123.274Zm.836.813c-.066.072-.1.2-.179.263l-.091.035a.261.261,0,0,1-.1-.02c-.089-.2-.179-.4-.264-.6C1302.46,3123.875,1302.67,3123.983,1302.882,3124.087Zm-2.118-1.963c.216.1.432.21.647.318.074.2.147.389.224.583l.015.035q-.651-.353-1.289-.726C1300.494,3122.261,1300.627,3122.19,1300.764,3122.124Zm-.646.069-.04-.023-.173-.106c.1-.07.206-.139.312-.2l.02.009c.084.039.166.081.249.121C1300.362,3122.055,1300.239,3122.122,1300.118,3122.193Zm.442-.535c.156-.087.314-.168.475-.246l.1.271c-.091.039-.181.08-.27.122Zm.591.288.063-.028c.008.023.016.047.025.07Zm.135-.65c.114-.051.228-.1.344-.148l.06-.023c.045.1.088.193.132.29l-.182.063c-.085.032-.169.065-.253.1C1301.353,3121.483,1301.319,3121.39,1301.286,3121.3Zm.322.88q-.069-.18-.135-.36c.084-.033.168-.069.254-.1.066-.025.133-.048.2-.071q.2.444.38.893Q1301.959,3122.354,1301.608,3122.176Zm.315-1.14a9.246,9.246,0,0,1,.987-.3.266.266,0,0,0,.044.19.273.273,0,0,0-.207.16.276.276,0,0,0-.018.066c-.226.055-.45.119-.672.189C1302.013,3121.237,1301.968,3121.136,1301.923,3121.036Zm.716,1.684c-.012-.028-.022-.057-.034-.086-.143-.357-.292-.713-.445-1.066.214-.068.429-.13.647-.184a.248.248,0,0,0,.082.056.272.272,0,0,0,.357-.141l0-.01c.23-.043.462-.078.695-.1.087-.008.174-.015.262-.019a4.453,4.453,0,0,1,.328.6,4.942,4.942,0,0,1,.422,1.384,7.206,7.206,0,0,1-.728.48C1303.706,3123.313,1303.174,3123.013,1302.639,3122.72Zm.768-2.094c.111-.02.222-.036.333-.051a4.63,4.63,0,0,1,.307.366c-.042,0-.083,0-.125.008-.234.021-.466.054-.7.1l-.005-.006a.271.271,0,0,0,.187-.413Zm1.59,2.926a4.134,4.134,0,0,1-.007.557c-.132-.087-.265-.173-.4-.256C1304.729,3123.757,1304.865,3123.657,1305,3123.552Zm.329,1.153c-.016.037-.036.072-.053.109-.036-.013-.072-.026-.107-.04.014-.054.026-.108.038-.163l.124.088Zm.236.207.012-.024.052.043Zm-.125-.5c-.058-.042-.116-.082-.175-.122a4.441,4.441,0,0,0,.025-.984c.124-.112.244-.228.357-.352A4.116,4.116,0,0,1,1305.437,3124.411Zm.476-2.244-.029.044c-.021-.116-.046-.231-.076-.345-.041-.152-.093-.3-.149-.449a.651.651,0,0,1,.268.3A.669.669,0,0,1,1305.913,3122.167Zm-.448-1.479a1.492,1.492,0,0,1,.26.125.937.937,0,0,1,.362.406.88.88,0,0,1,.034.418.907.907,0,0,0-.432-.458,1.457,1.457,0,0,0-.162-.075,4.629,4.629,0,0,0-.261-.48A1.248,1.248,0,0,1,1305.465,3120.688Zm-.222.56a4.392,4.392,0,0,1,.369,1.312,4.064,4.064,0,0,1-.374.365,5.272,5.272,0,0,0-.4-1.3,4.446,4.446,0,0,0-.253-.458,3.471,3.471,0,0,1,.479.044C1305.127,3121.22,1305.185,3121.233,1305.243,3121.248Zm-.128-.26-.007,0a4.05,4.05,0,0,0-.676-.057,4.619,4.619,0,0,0-.31-.39,4.181,4.181,0,0,1,.719.009A4.3,4.3,0,0,1,1305.115,3120.988Zm-2.394-1.939a3.38,3.38,0,0,1,1.253.6,3.884,3.884,0,0,1,.7.679,4.965,4.965,0,0,0-.708,0l-.04,0a4.652,4.652,0,0,0-.968-.748,4.085,4.085,0,0,0-1.312-.492c-.093-.017-.189-.029-.286-.037A2.873,2.873,0,0,1,1302.721,3119.049Zm-1.119.279a3.739,3.739,0,0,1,1.218.488,4.291,4.291,0,0,1,.72.556,7.968,7.968,0,0,0-.814.151c-.308.077-.61.172-.908.278l-.021-.045c-.144-.309-.294-.616-.457-.919-.081-.151-.165-.3-.259-.449-.022-.035-.045-.071-.069-.106A2.552,2.552,0,0,1,1301.6,3119.328Zm-.74.2c.089.139.172.285.253.432.16.295.311.6.456.9l.011.026-.049.018c-.112.047-.224.1-.334.146l-.013-.035c-.108-.32-.211-.641-.3-.965-.044-.161-.087-.324-.119-.485a2.256,2.256,0,0,1-.038-.233C1300.773,3119.4,1300.819,3119.46,1300.862,3119.528Zm-1.4,1.025a3.31,3.31,0,0,1,.66-.832,2.977,2.977,0,0,1,.355-.275c.008.059.015.118.027.174.034.172.077.339.122.5.09.331.193.657.3.981.007.021.015.042.022.063q-.276.134-.545.285l-.119.073c-.305-.141-.611-.278-.924-.405-.029-.011-.058-.022-.086-.034A3.975,3.975,0,0,1,1299.462,3120.553Zm-.265.863.039.015c.24.1.478.2.715.309-.09.061-.179.124-.267.188-.175-.109-.349-.219-.519-.333C1299.175,3121.535,1299.186,3121.476,1299.2,3121.416Zm.593.979c-.078.051-.156.1-.232.157a5.712,5.712,0,0,0-.461.362c0-.058-.007-.116-.009-.174a5.117,5.117,0,0,1,.431-.39c.029-.023.059-.045.089-.068Zm-.676-.428c.094.062.188.124.283.184l-.025.02c-.1.081-.193.167-.286.255C1299.09,3122.273,1299.1,3122.12,1299.114,3121.967Zm-.4-.693-.069-.055c.028.008.056.015.084.024.068.022.135.047.2.072-.009.033-.02.066-.028.1C1298.84,3121.368,1298.776,3121.321,1298.714,3121.274Zm.1,1.788.005.033,0,.038a.244.244,0,0,0-.056-.006C1298.78,3123.1,1298.8,3123.083,1298.811,3123.062Zm-.286.476,0,.008-.018.025Zm.851,1.335a1.654,1.654,0,0,1-.28-.079,1.5,1.5,0,0,1-.259-.117.978.978,0,0,1-.333-.335.744.744,0,0,1,.055-.4,1.507,1.507,0,0,1,.151-.274.3.3,0,0,0,.052,0,.273.273,0,0,0,.128-.033,3.382,3.382,0,0,0,.234.762,3.485,3.485,0,0,0,.257.468Zm.366.047c-.011-.018-.024-.034-.036-.052a5.24,5.24,0,0,1-.294-.591,3.493,3.493,0,0,1-.287-1.077,5.023,5.023,0,0,1,.567-.457c.107-.075.218-.142.329-.21q.891.532,1.807,1.02l.038.019c.08.19.161.379.245.568a.271.271,0,0,0-.221.484,7.624,7.624,0,0,1-1.327.276A4.594,4.594,0,0,1,1299.742,3124.92Zm2.208,1.642a3.18,3.18,0,0,1-.321-.089,3.269,3.269,0,0,1-.518-.237,3.953,3.953,0,0,1-1.011-.838c-.046-.053-.088-.108-.131-.163a5.379,5.379,0,0,0,.621,0,7.67,7.67,0,0,0,1.255-.178q.181-.044.36-.1c.073.019.128.043.133.078s.094.36.112.431a1.6,1.6,0,0,0,.482.642,3.4,3.4,0,0,1,.185.462A2.918,2.918,0,0,1,1301.95,3126.562Zm1.1-2.762q-.114-.309-.233-.616.552.3,1.1.618c-.141.074-.283.145-.427.213C1303.344,3123.944,1303.2,3123.874,1303.053,3123.8Zm.738,2.495c0-.014,0-.026-.006-.04l.025.052-.018.011Zm0,.35c.038-.016.076-.032.113-.05.035.183.1.55.1.55A4.924,4.924,0,0,1,1303.794,3126.645Zm.277-2.463.114-.064c.043-.026.085-.054.127-.081.215.131.428.264.637.4-.014.077-.027.154-.045.229-.262-.109-.521-.225-.78-.346A.623.623,0,0,0,1304.071,3124.182Zm.1.512c.213.094.426.185.643.272a2.944,2.944,0,0,1-.276.589,2.331,2.331,0,0,1-.3.389A7.985,7.985,0,0,1,1304.176,3124.694Z" fill="#fafafa"/>
    <g id="Group_91" data-name="Group 91">
      <path id="Path_368" data-name="Path 368" d="M1321.794,3146.163v-5.05l3.449,3.608v-3.287h.714v5.017l-3.449-3.6v3.311Z" fill="#fafafa"/>
      <path id="Path_369" data-name="Path 369" d="M1326.9,3143.777a2.317,2.317,0,0,1,.732-1.715,2.409,2.409,0,0,1,1.752-.717,2.474,2.474,0,0,1,2.46,2.46,2.326,2.326,0,0,1-.729,1.731,2.5,2.5,0,0,1-3.412.079A2.324,2.324,0,0,1,1326.9,3143.777Zm.72.01a1.71,1.71,0,0,0,.527,1.289,1.743,1.743,0,0,0,2.465-.009,1.835,1.835,0,0,0,.007-2.536,1.764,1.764,0,0,0-2.491,0A1.705,1.705,0,0,0,1327.617,3143.787Z" fill="#fafafa"/>
      <path id="Path_370" data-name="Path 370" d="M1332.573,3146.163l.995-5.084,1.624,3.676,1.681-3.676.894,5.084h-.732l-.456-2.854-1.4,3.072-1.36-3.075-.508,2.857Z" fill="#fafafa"/>
      <path id="Path_371" data-name="Path 371" d="M1339.483,3141.434v4.729h-.714v-4.729Z" fill="#fafafa"/>
      <path id="Path_372" data-name="Path 372" d="M1340.619,3146.163v-5.05l3.449,3.608v-3.287h.714v5.017l-3.449-3.6v3.311Z" fill="#fafafa"/>
      <path id="Path_373" data-name="Path 373" d="M1348.73,3145.015H1346.7l-.527,1.148h-.768l2.34-5.026,2.257,5.026h-.781Zm-.291-.671-.7-1.608-.735,1.608Z" fill="#fafafa"/>
      <path id="Path_374" data-name="Path 374" d="M1351.64,3142.1v4.058h-.714V3142.1h-1.087v-.671h2.885v.671Z" fill="#fafafa"/>
      <path id="Path_375" data-name="Path 375" d="M1355.971,3142.1h-1.9v1.136h1.84v.671h-1.84v1.581h1.9v.67h-2.61v-4.729h2.61Z" fill="#fafafa"/>
      <path id="Path_376" data-name="Path 376" d="M1356.908,3146.163v-4.729h.992a3.6,3.6,0,0,1,1.127.141,2.11,2.11,0,0,1,.806.469,2.263,2.263,0,0,1,.732,1.755,2.3,2.3,0,0,1-1.565,2.233,3.648,3.648,0,0,1-1.112.131Zm.713-.67h.322a2.693,2.693,0,0,0,.8-.1,1.735,1.735,0,0,0,.582-2.855,1.97,1.97,0,0,0-1.381-.432h-.322Z" fill="#fafafa"/>
    </g>
    <g id="Group_94" data-name="Group 94">
      <g id="Group_92" data-name="Group 92">
        <path id="Path_377" data-name="Path 377" d="M1323.965,3126.161c0-3.892,0-4.591-.05-5.389-.05-.849-.249-1.248-1.073-1.423a4.651,4.651,0,0,0-.848-.074c-.1,0-.2-.05-.2-.15,0-.15.125-.2.4-.2.573,0,1.247,0,1.8.025l1.023.05c.175,0,5.141,0,5.714-.025a6.677,6.677,0,0,0,1.073-.125c.125-.025.225-.124.35-.124.075,0,.1.1.1.224,0,.175-.125.474-.2,1.173-.025.249-.075,1.347-.125,1.647-.025.125-.075.274-.174.274-.15,0-.2-.124-.2-.324a2.669,2.669,0,0,0-.15-.9c-.175-.4-.424-.7-1.772-.849-.424-.05-3.144-.075-3.418-.075-.1,0-.15.075-.15.25v6.887c0,.175.025.249.15.249.324,0,3.393,0,3.968-.049.6-.05.948-.1,1.172-.35.175-.2.275-.324.375-.324.074,0,.124.05.124.2s-.124.573-.2,1.4c-.05.5-.1,1.422-.1,1.6,0,.2,0,.474-.175.474-.125,0-.175-.1-.175-.225a2.565,2.565,0,0,0-.1-.823c-.1-.349-.325-.774-1.3-.873-.674-.075-3.144-.125-3.568-.125a.158.158,0,0,0-.175.175v2.2c0,.849-.025,3.743,0,4.267.075,1.722.449,2.046,2.9,2.046a7.17,7.17,0,0,0,2.395-.274c.649-.275.948-.773,1.123-1.8.05-.274.1-.374.225-.374.149,0,.149.2.149.374a24.328,24.328,0,0,1-.324,2.421c-.175.649-.374.649-1.347.649-1.872,0-3.244-.05-4.217-.075-.974-.05-1.572-.075-1.947-.075-.05,0-.474,0-1,.025-.5,0-1.073.05-1.447.05-.275,0-.4-.05-.4-.2,0-.075.049-.15.2-.15a3.863,3.863,0,0,0,.749-.1c.5-.1.624-.648.723-1.372.125-1.048.125-3.019.125-5.415Z" fill="#fafafa"/>
        <path id="Path_378" data-name="Path 378" d="M1355.754,3134.6c.1.9.275,2.3,1.348,2.645a5.4,5.4,0,0,0,1.622.225c.124,0,.2.024.2.124,0,.15-.224.225-.524.225-.549,0-3.244-.025-4.167-.1-.574-.05-.7-.125-.7-.249,0-.1.05-.15.175-.175s.15-.449.1-.9l-1.2-12.95h-.075l-6.113,12.975c-.524,1.1-.6,1.323-.824,1.323-.174,0-.3-.25-.773-1.148-.649-1.223-2.795-5.54-2.92-5.789-.224-.449-3.019-6.438-3.294-7.112h-.1l-1,11.578c-.025.4-.025.849-.025,1.273a.8.8,0,0,0,.649.774,4.566,4.566,0,0,0,.948.124c.1,0,.2.05.2.125,0,.175-.15.225-.449.225-.923,0-2.121-.075-2.321-.075-.224,0-1.422.075-2.1.075-.249,0-.424-.05-.424-.225,0-.075.125-.125.25-.125a3.242,3.242,0,0,0,.748-.074c.824-.15.9-1.123,1-2.071l1.8-16.27c.025-.275.125-.449.274-.449s.25.1.375.374l7.635,15.7,7.337-15.671c.1-.225.2-.4.374-.4s.249.2.3.674Z" fill="#fafafa"/>
        <path id="Path_379" data-name="Path 379" d="M1379.957,3134.6c.1.9.274,2.3,1.347,2.645a5.4,5.4,0,0,0,1.622.225c.125,0,.2.024.2.124,0,.15-.225.225-.525.225-.548,0-3.243-.025-4.167-.1-.574-.05-.7-.125-.7-.249,0-.1.05-.15.174-.175s.15-.449.1-.9l-1.2-12.95h-.075l-6.114,12.975c-.524,1.1-.6,1.323-.823,1.323-.175,0-.3-.25-.774-1.148-.649-1.223-2.795-5.54-2.919-5.789-.225-.449-3.02-6.438-3.294-7.112h-.1l-1,11.578c-.025.4-.025.849-.025,1.273a.8.8,0,0,0,.649.774,4.558,4.558,0,0,0,.948.124c.1,0,.2.05.2.125,0,.175-.149.225-.449.225-.923,0-2.121-.075-2.32-.075-.225,0-1.423.075-2.1.075-.25,0-.425-.05-.425-.225,0-.075.125-.125.25-.125a3.254,3.254,0,0,0,.749-.074c.823-.15.9-1.123,1-2.071l1.8-16.27c.025-.275.125-.449.275-.449s.249.1.374.374l7.636,15.7,7.336-15.671c.1-.225.2-.4.374-.4s.25.2.3.674Z" fill="#fafafa"/>
        <path id="Path_380" data-name="Path 380" d="M1388.065,3131.327a5.3,5.3,0,0,0-.574-2.62c-.175-.4-3.519-5.889-4.392-7.187a6.983,6.983,0,0,0-1.7-1.846,2.379,2.379,0,0,0-1.073-.4c-.125,0-.249-.05-.249-.175,0-.1.1-.175.324-.175.474,0,2.346.075,2.47.075.175,0,1.123-.075,2.1-.075.275,0,.325.075.325.175s-.15.125-.374.225a.5.5,0,0,0-.325.448,2.128,2.128,0,0,0,.325.974c.4.723,4.142,7.161,4.591,7.885.474-1.048,3.643-6.513,4.142-7.336a2.44,2.44,0,0,0,.424-1.273c0-.349-.1-.624-.4-.7-.225-.075-.374-.125-.374-.25,0-.1.149-.15.4-.15.649,0,1.447.075,1.647.075.15,0,1.946-.075,2.42-.075.175,0,.325.05.325.15,0,.125-.125.2-.325.2a2.368,2.368,0,0,0-1.147.349,4.74,4.74,0,0,0-1.323,1.272,79.576,79.576,0,0,0-4.766,7.936,5.972,5.972,0,0,0-.374,2.495v2.146c0,.4,0,1.447.075,2.5.049.724.274,1.273,1.023,1.372a10.9,10.9,0,0,0,1.122.1c.15,0,.2.075.2.15,0,.125-.125.2-.4.2-1.373,0-2.945-.075-3.069-.075s-1.7.075-2.446.075c-.274,0-.4-.05-.4-.2,0-.075.05-.15.2-.15a3.854,3.854,0,0,0,.748-.1c.5-.1.724-.648.774-1.372.075-1.048.075-2.1.075-2.5Z" fill="#fafafa"/>
      </g>
      <g id="Group_93" data-name="Group 93">
        <path id="Path_381" data-name="Path 381" d="M1399.214,3120.368a1.512,1.512,0,1,1,1.51,1.427A1.432,1.432,0,0,1,1399.214,3120.368Zm2.74-.017a1.231,1.231,0,0,0-2.461,0,1.231,1.231,0,0,0,2.461,0Zm-1.788-.229c0-.246-.016-.361-.016-.443,0-.1-.05-.115-.181-.115-.016,0-.049-.017-.049-.033,0-.033.033-.049.082-.049h.082c.033,0,.164.016.213.016.148,0,.214-.016.345-.016.279,0,.689.049.689.443,0,.164-.049.295-.3.492l.279.345c.213.262.278.279.311.279s.05.016.05.032c0,.033-.017.05-.115.05-.214,0-.328.016-.575-.312l-.229-.312h-.3v.148c0,.328.017.344.033.361a.5.5,0,0,0,.164.033c.033,0,.05,0,.05.032s-.033.05-.066.05h-.066c-.033,0-.18-.017-.262-.017-.049,0-.214.017-.246.017h-.082c-.033,0-.066,0-.066-.033s.033-.049.066-.049c.147,0,.147,0,.164-.1,0-.082.016-.2.016-.459Zm.3.2a.516.516,0,0,0,.247.049.326.326,0,0,0,.164-.049.311.311,0,0,0,.147-.3.374.374,0,0,0-.41-.393c-.016,0-.115,0-.148.032Z" fill="#fafafa"/>
      </g>
    </g>
    <g id="Group_96" data-name="Group 96">
      <g id="Group_95" data-name="Group 95">
        <path id="Path_382" data-name="Path 382" d="M1321.794,3151.769v-2.5l1.71,1.788v-1.629h.354v2.488l-1.71-1.785v1.642Z" fill="#fafafa"/>
        <path id="Path_383" data-name="Path 383" d="M1324.729,3150.586a1.149,1.149,0,0,1,.363-.851,1.2,1.2,0,0,1,.869-.355,1.226,1.226,0,0,1,1.219,1.219,1.153,1.153,0,0,1-.361.859,1.241,1.241,0,0,1-1.692.039A1.153,1.153,0,0,1,1324.729,3150.586Zm.357,0a.847.847,0,0,0,.261.64.867.867,0,0,0,1.223,0,.911.911,0,0,0,0-1.257.872.872,0,0,0-1.235,0A.845.845,0,0,0,1325.086,3150.59Z" fill="#fafafa"/>
        <path id="Path_384" data-name="Path 384" d="M1328.03,3151.769v-2.5l1.71,1.788v-1.629h.354v2.488l-1.711-1.785v1.642Z" fill="#fafafa"/>
        <path id="Path_385" data-name="Path 385" d="M1330.779,3150.868h.677v.3h-.677Z" fill="#fafafa"/>
        <path id="Path_386" data-name="Path 386" d="M1333.436,3149.757h-.94v.563h.912v.333h-.912v.783h.94v.333h-1.294v-2.345h1.294Z" fill="#fafafa"/>
        <path id="Path_387" data-name="Path 387" d="M1334.305,3151.769v-2.5l1.71,1.788v-1.629h.354v2.488l-1.71-1.785v1.642Z" fill="#fafafa"/>
        <path id="Path_388" data-name="Path 388" d="M1338.565,3150.548h.969v.077a1.589,1.589,0,0,1-.062.468.983.983,0,0,1-.205.352,1.064,1.064,0,0,1-.831.368,1.142,1.142,0,0,1-.843-.355,1.224,1.224,0,0,1,1.389-1.967,1.494,1.494,0,0,1,.448.364l-.253.242a.856.856,0,0,0-.7-.385.841.841,0,0,0-.624.257.858.858,0,0,0-.252.632.882.882,0,0,0,.851.881.708.708,0,0,0,.469-.176.627.627,0,0,0,.232-.426h-.585Z" fill="#fafafa"/>
        <path id="Path_389" data-name="Path 389" d="M1340.738,3149.424v2.012h.689v.333h-1.043v-2.345Z" fill="#fafafa"/>
        <path id="Path_390" data-name="Path 390" d="M1342.521,3149.424v2.345h-.354v-2.345Z" fill="#fafafa"/>
        <path id="Path_391" data-name="Path 391" d="M1344.815,3149.773l-.287.17a.5.5,0,0,0-.153-.182.406.406,0,0,0-.441.035.26.26,0,0,0-.1.207q0,.171.255.276l.234.1a1,1,0,0,1,.418.282.632.632,0,0,1,.132.407.717.717,0,0,1-.216.535.739.739,0,0,1-.539.212.721.721,0,0,1-.5-.18.836.836,0,0,1-.245-.509l.358-.079a.6.6,0,0,0,.086.285.365.365,0,0,0,.318.152.369.369,0,0,0,.275-.111.381.381,0,0,0,.11-.281.417.417,0,0,0-.019-.125.342.342,0,0,0-.059-.1.506.506,0,0,0-.1-.089,1.061,1.061,0,0,0-.151-.08l-.227-.094a.651.651,0,0,1-.481-.6.561.561,0,0,1,.2-.441.728.728,0,0,1,.5-.18A.7.7,0,0,1,1344.815,3149.773Z" fill="#fafafa"/>
        <path id="Path_392" data-name="Path 392" d="M1346.061,3150.341h1.011v-.917h.354v2.345h-.354v-1.095h-1.011v1.095h-.354v-2.345h.354Z" fill="#fafafa"/>
        <path id="Path_393" data-name="Path 393" d="M1350.111,3149.424v1.412a.775.775,0,0,0,.1.442.529.529,0,0,0,.831,0,.763.763,0,0,0,.1-.442v-1.412h.354v1.51a.843.843,0,0,1-.231.61.893.893,0,0,1-1.274,0,.843.843,0,0,1-.231-.61v-1.51Z" fill="#fafafa"/>
        <path id="Path_394" data-name="Path 394" d="M1352.412,3151.6a.21.21,0,0,1,.36-.147.2.2,0,0,1,.062.148.208.208,0,0,1-.062.151.211.211,0,0,1-.36-.152Z" fill="#fafafa"/>
        <path id="Path_395" data-name="Path 395" d="M1355.114,3149.773l-.287.17a.5.5,0,0,0-.153-.182.406.406,0,0,0-.441.035.263.263,0,0,0-.1.207q0,.171.255.276l.234.1a1,1,0,0,1,.418.282.632.632,0,0,1,.132.407.717.717,0,0,1-.216.535.739.739,0,0,1-.539.212.723.723,0,0,1-.5-.18.835.835,0,0,1-.245-.509l.359-.079a.6.6,0,0,0,.085.285.366.366,0,0,0,.319.152.37.37,0,0,0,.275-.111.381.381,0,0,0,.109-.281.385.385,0,0,0-.019-.125.306.306,0,0,0-.059-.1.522.522,0,0,0-.1-.089,1.069,1.069,0,0,0-.152-.08l-.226-.094c-.321-.136-.482-.334-.482-.6a.561.561,0,0,1,.2-.441.728.728,0,0,1,.5-.18A.7.7,0,0,1,1355.114,3149.773Z" fill="#fafafa"/>
        <path id="Path_396" data-name="Path 396" d="M1355.994,3151.6a.2.2,0,0,1,.062-.147.208.208,0,0,1,.3,0,.2.2,0,0,1,.062.148.211.211,0,1,1-.422,0Z" fill="#fafafa"/>
        <path id="Path_397" data-name="Path 397" d="M1359.088,3150.817v.952h-.353v-2.345h.4a1.811,1.811,0,0,1,.444.041.589.589,0,0,1,.268.155.663.663,0,0,1,.2.5.64.64,0,0,1-.216.51.851.851,0,0,1-.582.189Zm0-.328h.132c.326,0,.488-.125.488-.376s-.167-.362-.5-.362h-.118Z" fill="#fafafa"/>
        <path id="Path_398" data-name="Path 398" d="M1361.613,3150.77l.726,1h-.433l-.669-.96h-.064v.96h-.354v-2.345h.414a1.034,1.034,0,0,1,.672.175.638.638,0,0,1,.227.513.665.665,0,0,1-.142.428A.638.638,0,0,1,1361.613,3150.77Zm-.44-.269h.112q.5,0,.5-.385c0-.24-.163-.359-.489-.359h-.126Z" fill="#fafafa"/>
        <path id="Path_399" data-name="Path 399" d="M1363.45,3149.424v2.345h-.354v-2.345Z" fill="#fafafa"/>
        <path id="Path_400" data-name="Path 400" d="M1364.336,3151.769l.493-2.521.805,1.822.834-1.822.443,2.521h-.362l-.227-1.416-.694,1.524-.674-1.525-.253,1.417Z" fill="#fafafa"/>
        <path id="Path_401" data-name="Path 401" d="M1369.106,3149.757h-.94v.563h.913v.333h-.913v.783h.94v.333h-1.293v-2.345h1.293Z" fill="#fafafa"/>
        <path id="Path_402" data-name="Path 402" d="M1370.623,3149.757v2.012h-.354v-2.012h-.539v-.333h1.43v.333Z" fill="#fafafa"/>
        <path id="Path_403" data-name="Path 403" d="M1372.235,3149.424v2.345h-.355v-2.345Z" fill="#fafafa"/>
        <path id="Path_404" data-name="Path 404" d="M1373.12,3151.769l.494-2.521.8,1.822.833-1.822.444,2.521h-.363l-.226-1.416-.694,1.524-.675-1.525-.252,1.417Z" fill="#fafafa"/>
        <path id="Path_405" data-name="Path 405" d="M1377.891,3149.757h-.94v.563h.913v.333h-.913v.783h.94v.333H1376.6v-2.345h1.294Z" fill="#fafafa"/>
        <path id="Path_406" data-name="Path 406" d="M1380.478,3150.817v.952h-.353v-2.345h.4a1.811,1.811,0,0,1,.444.041.589.589,0,0,1,.268.155.667.667,0,0,1,.2.5.64.64,0,0,1-.216.51.853.853,0,0,1-.582.189Zm0-.328h.132c.326,0,.488-.125.488-.376s-.167-.362-.5-.362h-.118Z" fill="#fafafa"/>
        <path id="Path_407" data-name="Path 407" d="M1383,3150.77l.726,1h-.433l-.67-.96h-.064v.96h-.353v-2.345h.414a1.034,1.034,0,0,1,.672.175.641.641,0,0,1,.227.513.661.661,0,0,1-.143.428A.635.635,0,0,1,1383,3150.77Zm-.441-.269h.113q.5,0,.5-.385c0-.24-.162-.359-.488-.359h-.127Z" fill="#fafafa"/>
        <path id="Path_408" data-name="Path 408" d="M1384.315,3150.586a1.147,1.147,0,0,1,.364-.851,1.193,1.193,0,0,1,.868-.355,1.226,1.226,0,0,1,1.22,1.219,1.154,1.154,0,0,1-.362.859,1.241,1.241,0,0,1-1.692.039A1.153,1.153,0,0,1,1384.315,3150.586Zm.357,0a.869.869,0,0,0,1.484.635.864.864,0,0,0,.254-.629.854.854,0,0,0-.251-.628.828.828,0,0,0-.616-.256.836.836,0,0,0-.618.256A.845.845,0,0,0,1384.672,3150.59Z" fill="#fafafa"/>
        <path id="Path_409" data-name="Path 409" d="M1388.822,3150.548h.969v.077a1.622,1.622,0,0,1-.062.468,1,1,0,0,1-.2.352,1.064,1.064,0,0,1-.831.368,1.142,1.142,0,0,1-.843-.355,1.224,1.224,0,0,1,1.388-1.967,1.469,1.469,0,0,1,.448.364l-.252.242a.857.857,0,0,0-.7-.385.841.841,0,0,0-.624.257.858.858,0,0,0-.253.632.829.829,0,0,0,.282.645.838.838,0,0,0,.569.236.706.706,0,0,0,.469-.176.628.628,0,0,0,.233-.426h-.585Z" fill="#fafafa"/>
        <path id="Path_410" data-name="Path 410" d="M1391.435,3150.77l.726,1h-.433l-.67-.96h-.063v.96h-.355v-2.345h.415a1.028,1.028,0,0,1,.671.175.639.639,0,0,1,.228.513.665.665,0,0,1-.142.428A.641.641,0,0,1,1391.435,3150.77Zm-.44-.269h.112q.5,0,.5-.385c0-.24-.164-.359-.49-.359h-.125Z" fill="#fafafa"/>
        <path id="Path_411" data-name="Path 411" d="M1394.3,3151.2h-1l-.261.57h-.381l1.16-2.492,1.12,2.492h-.388Zm-.144-.332-.348-.8-.364.8Z" fill="#fafafa"/>
        <path id="Path_412" data-name="Path 412" d="M1395.544,3151.769l.493-2.521.805,1.822.834-1.822.444,2.521h-.363l-.227-1.416-.694,1.524-.674-1.525-.252,1.417Z" fill="#fafafa"/>
      </g>
    </g>
  </g>
</svg>
