<svg xmlns="http://www.w3.org/2000/svg" width="225.833" height="169" viewBox="0 0 225.833 169"><defs><style>.cls-1{fill:#fff;}.cls-2{fill:none;}</style></defs><title>CLARO VIDEO</title><g id="Layer_2" data-name="Layer 2"><g id="NOSOTROS"><g id="CLARO_VIDEO" data-name="CLARO VIDEO"><g id="CLARO_VIDEO-2" data-name="CLARO VIDEO"><path class="cls-1" d="M86.686,70.712c1.015.01,2.029,0,3.044,0q.006,4.665,0,9.328-1.522,0-3.045,0,0-4.665,0-9.332"/><path class="cls-1" d="M93.918,81.239c2.788-2.877,5.545-5.79,8.331-8.672.714.755,1.45,1.489,2.15,2.259-2.756,2.9-5.54,5.778-8.3,8.679-.74-.742-1.456-1.51-2.183-2.266"/><path class="cls-1" d="M38.352,79.613a9.158,9.158,0,0,1,2.423-.255,8.885,8.885,0,0,1,7.008,3.427,9.234,9.234,0,0,1,1.7,3.415c-1.239,0-2.479,0-3.718,0a5.9,5.9,0,0,0-2.473-2.642,5.472,5.472,0,0,0-1.943-.635,6.992,6.992,0,0,0-1.906.094,5.433,5.433,0,0,0-2.757,1.562,5.3,5.3,0,0,0-1.67,3.55,5.686,5.686,0,0,0,.843,3.7,6.138,6.138,0,0,0,2.845,2.337,5.619,5.619,0,0,0,5.817-1.2,6.77,6.77,0,0,0,1.258-1.756q1.85-.009,3.7,0A9.068,9.068,0,0,1,47.67,94.8a10.353,10.353,0,0,1-1.853,1.7A9.148,9.148,0,0,1,35,96.079a10.012,10.012,0,0,1-2.369-2.813,9.766,9.766,0,0,1-.966-6.417,9.026,9.026,0,0,1,2.592-4.816,8.452,8.452,0,0,1,4.092-2.42"/><path class="cls-1" d="M51.3,79.274H54.92q0,9.391,0,18.784c-1.208,0-2.415,0-3.622,0V79.274"/><path class="cls-1" d="M69.366,87.265a3.2,3.2,0,0,0-1.059-2.724,5.839,5.839,0,0,0-1.976-1.215,9.69,9.69,0,0,0-2.389-.39,10.827,10.827,0,0,0-1.964.077,4.878,4.878,0,0,0-3.424,1.626,5.86,5.86,0,0,0-1.184,3.316c1.143.021,2.288-.006,3.432.019a2.378,2.378,0,0,1,.974-1.71,2.938,2.938,0,0,1,1.513-.306,3.059,3.059,0,0,1,1.678.427,1.5,1.5,0,0,1,.432,1.539,1.28,1.28,0,0,1-1.174.808,29.185,29.185,0,0,0-4.317.89,3.948,3.948,0,0,0-2.484,2.316,5.98,5.98,0,0,0-.122,3.506,3.437,3.437,0,0,0,2.14,2.3A4.879,4.879,0,0,0,61.9,98a6.122,6.122,0,0,0,3.639-1.426c.016.489,0,.98.007,1.469,1.154.04,2.662.01,3.817.015Q69.372,92.661,69.366,87.265Zm-4.625,7.2a3.407,3.407,0,0,1-3.066.946,1.512,1.512,0,0,1-.879-.629,2.241,2.241,0,0,1,.161-2.433,2.65,2.65,0,0,1,1.511-.737c.687-.109,1.352-.319,2.028-.482a7.5,7.5,0,0,0,.91-.425C65.409,91.977,65.552,93.411,64.741,94.469Z"/><path class="cls-1" d="M77.77,83.441a6.9,6.9,0,0,1,2.256-.411c.008,1.216.075,2.434.049,3.651a4.733,4.733,0,0,0-2.011.033,3.751,3.751,0,0,0-2.748,3.064c-.011.321-.1.634-.1.956q0,3.665,0,7.326c-1.2,0-2.4.009-3.6-.007-.013-4.808,0-9.619.007-14.428,1.163-.011,2.324.033,3.485.075,0,.594-.014,1.188.008,1.783a5.781,5.781,0,0,1,2.655-2.042"/><path class="cls-1" d="M95.121,88.588a7.41,7.41,0,0,0-6.828-5.58,8.768,8.768,0,0,0-1.587.06,7.523,7.523,0,0,0-5.378,3.94,7.786,7.786,0,0,0,.028,7.16,7.662,7.662,0,0,0,5.409,3.892c.767,0,1.533,0,2.3,0a7.218,7.218,0,0,0,4.184-2.236A7.56,7.56,0,0,0,95.121,88.588Zm-3.533,3.438a4.159,4.159,0,0,1-2.041,2.19,3.863,3.863,0,0,1-4.725-1.222,4.027,4.027,0,0,1,2.169-6.364,6.891,6.891,0,0,1,1.686-.03,3.9,3.9,0,0,1,2.743,2.051A4.121,4.121,0,0,1,91.588,92.026Z"/><path class="cls-1" d="M97.463,87.172q4.562,0,9.125,0c0,1.054,0,2.109,0,3.164-3.041,0-6.081.007-9.122,0-.005-1.056,0-2.112,0-3.168Z"/><path class="cls-1" d="M136.54,98.4a4.936,4.936,0,0,1-5.228-4.735,31.4,31.4,0,0,1,.062-6.1c.539-3.987,4.923-5.608,8.283-3.187a3.582,3.582,0,0,0,.39.195V78.283h3.73V98.07h-3.868l.007-.929A5.28,5.28,0,0,1,136.54,98.4Zm3.346-9.619a3.157,3.157,0,0,0-.184-.7A2.14,2.14,0,0,0,137.41,86.6c-1.15.024-2.067.538-2.168,1.608a26.6,26.6,0,0,0,0,5.079c.107,1.088,1,1.584,2.159,1.6a2.05,2.05,0,0,0,2.309-1.562A22.806,22.806,0,0,0,139.886,88.781Z"/><path class="cls-1" d="M146.638,93.2a11.391,11.391,0,0,1,.148-5.266,6.186,6.186,0,0,1,11.99.208,26.414,26.414,0,0,1,.271,3.8h-9.022a2.813,2.813,0,0,0,1.557,2.848,4.166,4.166,0,0,0,4.872-1l2.006,2.323a7.405,7.405,0,0,1-5.186,2.29A6.5,6.5,0,0,1,146.638,93.2Zm3.406-3.821H155.4c-.064-1.846-1.053-2.943-2.612-2.973C151.2,86.378,150.206,87.42,150.044,89.383Z"/><path class="cls-1" d="M124.905,83.651h3.506V98.07h-3.506Z"/><path class="cls-1" d="M126.707,77.319a2.276,2.276,0,0,1-.04,4.552,2.3,2.3,0,0,1-2.278-2.3A2.267,2.267,0,0,1,126.707,77.319Z"/><polygon class="cls-1" points="123.297 83.651 119.393 83.651 116.63 92.304 113.627 83.651 109.724 83.651 115.069 98.07 118.072 98.07 123.297 83.651"/><path class="cls-1" d="M173.347,88.376a4.94,4.94,0,0,0-2.47-3.906,6.372,6.372,0,0,0-3.98-1.123c-2.917.089-5.177,1.764-5.6,4.511,0,.021,0,.043-.009.064q-.085.581-.134,1.171-.052.657-.068,1.32v.064c0,.137,0,.275,0,.412s0,.275,0,.412v.065q.015.662.068,1.319.05.6.137,1.191l.006.044c.419,2.747,2.679,4.422,5.6,4.511.132,0,.26,0,.389,0s.257,0,.389,0c2.917-.089,5.177-1.764,5.6-4.511A21.7,21.7,0,0,0,173.347,88.376Zm-3.658,2.664c-.017.137-.032.288-.048.448a12.7,12.7,0,0,1-.246,1.723,2.114,2.114,0,0,1-2.227,1.712,2.852,2.852,0,0,1-1.159-.217,2.375,2.375,0,0,1-.831-1.238,3.475,3.475,0,0,1-.155-.7c-.055-.6-.085-1.2-.14-2.029a18.856,18.856,0,0,1,.293-2.171,2.157,2.157,0,0,1,4.219,0,12.7,12.7,0,0,1,.246,1.723c.016.16.031.311.048.448l-.01.151Z"/></g><rect class="cls-2" width="225.833" height="169"/></g></g></g></svg>