<svg xmlns="http://www.w3.org/2000/svg" width="119.836" height="50.696" viewBox="0 0 119.836 50.696"><defs><style>.cls-1{fill:#fff;}</style></defs><title>oficina-mexico</title><g id="Layer_2" data-name="Layer 2"><g id="CONTACTO"><g id="TITULO"><path id="SUBRAYADAO" class="cls-1" d="M119.2,34.824a7.736,7.736,0,0,1-1.731-.135q-.57-.052-1.141-.1c-.074-.006-.148,0-.2-.069l-.008,0h0l0-.005,0,0,.03.012h-.012a.225.225,0,0,0-.024-.008.545.545,0,0,1-.286.025.158.158,0,0,1-.036.009c-.1,0-.214.078-.309-.021a.066.066,0,0,1,.011-.063.35.35,0,0,1,.318.013c.106-.014.222-.1.311.031l.009-.005h0l.007.007a2.579,2.579,0,0,1,1.335.095c.337-.1.709.083,1.126-.128-.211-.042-.332-.075-.456-.091a16.363,16.363,0,0,0-2.627-.1c-1.241.036-2.479-.006-3.719-.038-1.148-.03-2.3-.115-3.444-.093a17.552,17.552,0,0,1-3.083-.121h0a22.047,22.047,0,0,1-2.328-.012,8.937,8.937,0,0,1-1.574-.082c.234-.186.442-.044.641-.053a4.75,4.75,0,0,1,.7-.014,6.213,6.213,0,0,1,.654.033,6.524,6.524,0,0,1,2.073.029,4.926,4.926,0,0,1,1.312,0,14.319,14.319,0,0,0,1.818.071.892.892,0,0,1,.188.032h0a10.149,10.149,0,0,1,1.313-.117c.954,0,1.9.122,2.859.086.284-.011.568.009.852.021a18.836,18.836,0,0,0,2.087.069,8.106,8.106,0,0,1,1.891.086.983.983,0,0,0,.672-.076c-.02-.041-.066-.09-.056-.12.017-.046.077-.039.124-.022.148-.048.327.015.452-.122-.436-.053-.879,0-1.31-.044-.783-.082-1.568-.072-2.35-.141-.115.021-.231.066-.342-.015a2.482,2.482,0,0,1-.55-.051h0l-.237.026-.153.016a.462.462,0,0,1-.335-.016,15.528,15.528,0,0,1-2.012.017c-.7,0-1.389-.079-2.087-.035a5.821,5.821,0,0,1-.732-.044,6.185,6.185,0,0,1-.733-.055,5.2,5.2,0,0,1-1.619.042,2.4,2.4,0,0,0-.581.006,3.814,3.814,0,0,1-1.618-.22,13.253,13.253,0,0,1,2.016.033c.655.028,1.311.026,1.966.038.321.066.65-.052.97.039h0a1.337,1.337,0,0,1,.305-.033c.72.086,1.441-.026,2.16.023.255-.072.539.006.776-.157a2.665,2.665,0,0,0-.767-.039c-.7-.062-1.392-.1-2.088-.137-.993-.053-1.987-.1-2.977-.2a12.574,12.574,0,0,0-2.514-.1c-.4.04-.8,0-1.2.013a9.023,9.023,0,0,0-2.01.143,3.028,3.028,0,0,1-1.155.08c-.321-.044-.641-.072-.964-.088a6.666,6.666,0,0,0-2.351.115.915.915,0,0,1-.309.026c-1.1-.058-2.194-.115-3.293-.13q-1.4-.02-2.794.028c-.343.012-.647.172-.985.191-.492.027-.984.007-1.475.019a8.209,8.209,0,0,0-2.008.158c-.46.126-.941.108-1.406.26a3.767,3.767,0,0,1-.923.046c-.777.034-1.551-.027-2.327-.031-.854-.005-1.707.005-2.561.005a13.21,13.21,0,0,0-2.357.229c-.649.117-1.3.254-1.951.336-1.35.168-2.709.261-4.05.5a16.358,16.358,0,0,1-2.423.332,18.541,18.541,0,0,0-2.048.2c-.629.088-1.253.2-1.882.286-2.519.329-5.05.538-7.575.807a2.99,2.99,0,0,0-.9.166h0l-1.228.147c-.76.086-1.522.149-2.277.263-1.178.178-2.346.415-3.525.587-1.782.259-3.553.582-5.341.8a14.708,14.708,0,0,0-1.985.363,2.891,2.891,0,0,1-.8.149,9.621,9.621,0,0,0-1.735.175c-1.292.208-2.587.389-3.879.6-.677.109-1.348.251-2.022.381-.737.143-1.468.316-2.21.427-1.191.178-2.389.3-3.57.549a4.063,4.063,0,0,1-.541.054,14.077,14.077,0,0,0-1.431.116c-.97.164-1.931.375-2.89.589a6.952,6.952,0,0,0-2.252.668.567.567,0,0,1-.11.036,8.793,8.793,0,0,1-1.573.411c-.715.111-1.358.481-2.086.566a7.376,7.376,0,0,0-1.546.363,6.562,6.562,0,0,1-2.013.373,7.707,7.707,0,0,0-1.78.374c-.429.112-.841.315-1.273.45-.936.292-1.857.633-2.792.928a4.427,4.427,0,0,0-1.832.963.977.977,0,0,1-.492.219c-.583.126-1.125.382-1.7.519-.092.022-.2.055-.226.134-.067.236-.28.3-.449.4a17.647,17.647,0,0,1-1.5.954c-.148.067-.145.17-.011.264a.648.648,0,0,0,.656.109c.311-.125.634-.219.945-.345a.26.26,0,0,1,.381.129c-.069.132-.21.151-.321.206a4.391,4.391,0,0,0-.611.331c-.05.036-.111.084-.093.158s.1.107.179.117a.871.871,0,0,0,.512-.155,2.45,2.45,0,0,1,.686-.351c.511-.089,1-.247,1.513-.342.134-.04.287-.024.4-.135a.983.983,0,0,0,.241-.083.229.229,0,0,1,.028-.009,1.47,1.47,0,0,1-.264.1c-.079.092-.24.064-.29.2a1.234,1.234,0,0,1-.445.226c-.347.1-.688.224-1.033.329-.1.032-.21.065-.254.161a.5.5,0,0,1-.4.258,1.714,1.714,0,0,0-.319.137c-.068.033-.154.06-.138.16a.175.175,0,0,0,.165.143,1.656,1.656,0,0,0,.69-.012,6.715,6.715,0,0,1,1.042-.3c.092-.017.21-.048.226-.129.058-.295.3-.311.515-.385.779-.275,1.528-.625,2.313-.885.328-.109.716-.111.941-.451.029-.044.113-.056.175-.072a4.657,4.657,0,0,0,1.347-.463.876.876,0,0,1,.33-.105,8.983,8.983,0,0,0,1.611-.412c.474-.168.961-.3,1.443-.446.256-.077.558-.081.731-.306.211-.272.487.02.726-.141a2.359,2.359,0,0,1,.766-.259c.348-.086.669-.245,1.009-.346.2-.06.443,0,.6-.206.047-.062.147-.03.223-.018a.611.611,0,0,0,.269-.009c.387-.1.773-.207,1.162-.3.528-.127,1.035-.328,1.571-.424a12.509,12.509,0,0,0,1.837-.474,2.515,2.515,0,0,1,.865-.2,3.665,3.665,0,0,0,1.022-.171A1.835,1.835,0,0,1,24.167,44a.773.773,0,0,0,.418-.058,33.053,33.053,0,0,1,3.856-.869,8.555,8.555,0,0,0,1.26-.225,11.868,11.868,0,0,1,1.213-.385,15.98,15.98,0,0,1,3.191-.776.76.76,0,0,0,.187-.049A16.062,16.062,0,0,1,37.8,41a.984.984,0,0,1,.386-.007.957.957,0,0,0,.536-.022,18.464,18.464,0,0,1,3.42-.474,24.274,24.274,0,0,0,3.575-.51,34.161,34.161,0,0,1,4.058-.646l.08-.008c.056-.087.147-.08.232-.086a.955.955,0,0,0,.6-.032,1.778,1.778,0,0,1,.641-.108,1.539,1.539,0,0,0,1.034-.164.31.31,0,0,1,.187-.028,2.034,2.034,0,0,0,.918-.2c.758-.087,1.518-.16,2.274-.282A22.253,22.253,0,0,1,58,38.1c1.214-.069,2.43-.123,3.641-.253.373-.04.746-.087,1.12-.116.928-.073,1.866-.11,2.782-.24a36.6,36.6,0,0,1,3.677-.247,19.5,19.5,0,0,0,2.242-.206,12.727,12.727,0,0,1,2.5-.339.383.383,0,0,0,.152-.028,2.657,2.657,0,0,1,.8-.133,2.5,2.5,0,0,0,.836-.155c.08-.034.195-.087.26-.026.184.173.352.066.537.017a3.676,3.676,0,0,1,.641-.155c.9-.079,1.791-.262,2.683-.423,1.8-.324,3.619-.49,5.433-.7,1.366-.155,2.74-.158,4.11-.237.324-.019.651-.01.976-.014l.007.077c-.454-.014-.858.226-1.321.189a9.1,9.1,0,0,0-2.2.1,2.116,2.116,0,0,1-.771.057,1.948,1.948,0,0,0-.931.063,2.241,2.241,0,0,1-.607.1c-1.08,0-2.135.256-3.211.29a.39.39,0,0,0-.382.2,1.415,1.415,0,0,0,.625.018,9.271,9.271,0,0,1,1.2-.125c2.161-.1,4.309-.379,6.473-.415.958-.016,1.914-.092,2.871-.111.441-.009.878-.06,1.319-.056a12.208,12.208,0,0,0,1.667-.047,2.579,2.579,0,0,1,.5-.039c1.463.09,2.92-.11,4.38-.087a10.331,10.331,0,0,1,1.275-.039c.88.127,1.747-.135,2.628-.013.464.064.951,0,1.425.048a4.016,4.016,0,0,0,.813-.005h0c.23-.087.5.005.714-.162-.192-.109-.429.031-.7-.133a8.9,8.9,0,0,1,1.658-.063,10.62,10.62,0,0,1,1.625,0c.539.017,1.078.045,1.617.069h0a1.8,1.8,0,0,1,.563.091h0c.136-.043.272-.089.394.029a.767.767,0,0,1,.392-.021.262.262,0,0,1,.227-.037h0l.552.017c.157,0,.319-.1.469.025l.006,0c.18,0,.361-.092.541,0a2.175,2.175,0,0,0,.624.03,2.86,2.86,0,0,1,.886-.035,8.184,8.184,0,0,0,.963.076c.553.005,1.1.062,1.656.068a10.443,10.443,0,0,0,1.312,0c.068-.008.16.014.19-.117A4.211,4.211,0,0,0,119.2,34.824ZM104.068,33.3s.022.032.033.048c-.023.054-.061.034-.1.023a.126.126,0,0,1-.031-.022A.766.766,0,0,1,104.068,33.3ZM30.945,41.025c.042-.025.065.006.086.037-.013.018-.03.053-.039.051a.471.471,0,0,1-.1-.039A.305.305,0,0,1,30.945,41.025ZM43.7,39.593h0a.165.165,0,0,1,.162.064C43.809,39.634,43.7,39.756,43.7,39.593Zm19.258-2.878a3.5,3.5,0,0,1-1.032.032c-.155-.044-.248.1-.4.111-.314.015-.625.089-.939.107-.152.009-.166.181-.317.186a3.663,3.663,0,0,1-1.266.04c-.059-.019-.139-.071-.181-.02-.191.233-.451.109-.678.157-.526.112-1.062.119-1.592.188-.388.049-.779.076-1.165.154-.369.074-.741.133-1.109.215a5.413,5.413,0,0,0-.809.2l.012.087c.039.013.085.018.079.076l-.143.008-.19-.065c-.141-.127-.224.091-.365.059a1.111,1.111,0,0,0-.374.052h0a.637.637,0,0,1-.47.1c-.148-.005-.312-.045-.333.25-.063-.17-.037-.236.028-.29-.14-.133-.307-.044-.433-.008-.173.049-.346.077-.519.111-.149.029-.338-.027-.373.217-.005.033-.135.05-.206.074h0a.219.219,0,0,1-.119-.217,13.357,13.357,0,0,1-1.367.155c-.18.2-.488-.026-.664.2-.031.041-.1.01-.144-.012s-.146-.062-.183-.018c-.216.263-.533.173-.8.225a1.646,1.646,0,0,1-.84.051c-.114-.037-.222.06-.323.1-.274.1-.555-.005-.823.073a.3.3,0,0,0-.328-.121c-.384.05-.771.078-1.156.115l-.227.034c.01.077.026.161-.082.178-.089.013-.18.008-.269.019a2.472,2.472,0,0,0-.86.137,1.486,1.486,0,0,1-.589.19c-.346.035-.692.059-1.038.088h0a4.118,4.118,0,0,0-.967-.051c-.4.048-.8.091-1.192.137-.063.007-.155-.007-.185.029-.216.261-.548.174-.817.257-.188.057-.4.079-.6.132-.25.067-.5.148-.757.216-.521.14-1.056.207-1.58.327-.318.072-.634.156-.946.253a13.784,13.784,0,0,1-1.852.263c-.7.119-1.409.175-2.1.327a12.341,12.341,0,0,0-1.506.4,1.3,1.3,0,0,1-.777.066,1.913,1.913,0,0,0-1.15.148c-.511.192-1.055.274-1.553.5a.426.426,0,0,1-.262.051c-.478-.146-.887.174-1.341.185-.072,0-.141.042-.223.02-.253-.069-.257-.13-.13-.363A.441.441,0,0,1,22.9,42.6c.311.019.6-.113.907-.122h0c.049-.126.153-.088.245-.083,0-.057.026-.089.086-.089a.223.223,0,0,1,.045,0l.162.04.035-.1c.2.118.314-.139.518-.1a1.9,1.9,0,0,0,.57-.064c.2-.025.408-.046.612-.073a.793.793,0,0,0,.407-.1h0l.255-.042c.052-.127.171-.16.284-.2a.144.144,0,0,1,.157-.071c.5-.052.97-.232,1.474-.248a1.305,1.305,0,0,1,.341.018,2.573,2.573,0,0,0,1.111.067,3.811,3.811,0,0,0,.972-.269c.123-.065.082-.138.075-.221-.035.024-.069.024-.089-.017,0-.009.017-.042.033-.049.039-.016.07,0,.076.043a6.717,6.717,0,0,0,2.018-.451,5.164,5.164,0,0,1,1.507-.266A5.157,5.157,0,0,0,36,39.915a2.672,2.672,0,0,1,1.062-.1,1.344,1.344,0,0,0,.536-.056,15.556,15.556,0,0,1,2.147-.3c.419-.052.841-.076,1.259-.137.964-.14,1.923-.326,2.89-.436,1.136-.129,2.24-.427,3.378-.551.995-.108,1.973-.361,2.973-.471.367-.04.736-.134,1.108-.153.2-.011.308-.167.484-.188.063.182.208.118.325.1.381-.062.759-.139,1.139-.2.864-.144,1.732-.256,2.6-.4.755-.122,1.527-.146,2.291-.213l.08-.069,0-.009.01,0a.78.78,0,0,1,.886-.129c.132.041.239.129.381.011a.309.309,0,0,1,.225-.028,2.66,2.66,0,0,0,.984-.1,2.144,2.144,0,0,1,.764.046c.062.012.157.061.179.038.191-.2.449-.121.673-.168a1.106,1.106,0,0,1,.837.081C63.173,36.616,63.116,36.715,62.959,36.715Zm9.366-.554-.037-.02c.008-.008.015-.022.023-.022s.016.012.025.019Zm.6-.06-.024-.02c.008-.007.015-.021.023-.021s.016.013.024.02C72.944,36.088,72.937,36.1,72.929,36.1Zm7.155-.477c-.021.013-.036,0-.034-.03,0-.008.013-.016.021-.025l.022.025C80.09,35.6,80.091,35.62,80.084,35.624Zm11.538-.711a1.255,1.255,0,0,1-.644.017.461.461,0,0,1-.27-.048,1.222,1.222,0,0,1,.5-.061c.181.005.365-.095.542.017C91.759,34.951,91.676,34.907,91.622,34.913Zm.651.025c-.037,0-.1.015-.091-.057,0-.019.058-.039.089-.039s.061.023.106.042C92.333,34.908,92.3,34.936,92.273,34.938Zm12.639-.488c.059-.006.125-.029.162.041a.074.074,0,0,1-.066.081c-.063.008-.134.012-.162-.059C104.828,34.468,104.877,34.453,104.912,34.45Zm-1.824.282a1.824,1.824,0,0,1-.725.009,3.436,3.436,0,0,1-.828.073h0L100.9,34.8h0l-.311-.041a.364.364,0,0,1-.315-.017c.113-.165.245-.132.383-.07l.236.057a.976.976,0,0,1,.627.016,4.991,4.991,0,0,1,.929-.082l.629.012a1.516,1.516,0,0,1,.577.064A.748.748,0,0,1,103.088,34.732Zm2.6.1a10.26,10.26,0,0,1-1.568,0h0l-.318-.037a1.071,1.071,0,0,1,.665-.056,4.119,4.119,0,0,1,1.3.018.639.639,0,0,1,.392.015A.818.818,0,0,1,105.683,34.833Zm4.85-.3a.31.31,0,0,1-.028-.058s.015-.016.023-.024a.343.343,0,0,1,.028.058S110.541,34.53,110.533,34.538Z"/><g id="ACENTO"><path class="cls-1" d="M42.053,6.334a.091.091,0,0,1,.1-.062,1.154,1.154,0,0,1,.2-.026,1.62,1.62,0,0,0,.248-.05c.11-.008.227-.086.192-.107-.056-.058-.131-.029-.193-.017a2.534,2.534,0,0,1-.775-.067.169.169,0,0,1-.154-.19.718.718,0,0,1,.072-.4,1.128,1.128,0,0,0,.106-.726c-.071-.165.048-.341.154-.5a4.388,4.388,0,0,1,.826-.937,13.558,13.558,0,0,1,1.749-1.3,7.965,7.965,0,0,1,.923-.583,1.167,1.167,0,0,1,.268-.136.435.435,0,0,1,.523.089c.15.164.362.315.289.592-.023.06.033.118.075.193-.055.066-.123.148-.019.21a.329.329,0,0,1,.149.385.623.623,0,0,1-.219.485c-.027.033-.086.072-.113.106-.158.127-.158.127-.011.264a.12.12,0,0,1-.008.168l-.028.033c-.178.09-.183.285-.38.365l-.495.222c-.072.056-.113.106.015.108.049,0,.052.031.039.047a.37.37,0,0,1-.13.095q-.512.288-.968.606a2.094,2.094,0,0,1-.694.4.509.509,0,0,0-.257.216,1.9,1.9,0,0,1-.352.333.981.981,0,0,1-.885.285l-.2-.043C42.061,6.387,42.026,6.367,42.053,6.334Z"/></g><path class="cls-1" d="M15.537,32.839c.03-.084.06-.167.089-.25s.034-.163-.044-.178c-.077-.042-.158.022-.214.109a1.376,1.376,0,0,1-.2.319c-.195.291-.432.325-.6.112a.381.381,0,0,1-.143-.322l-.061-.386c-.023-.076-.074-.095-.156-.03-.324.257-.455.249-.652-.013a1.062,1.062,0,0,1-.175-.765c.112-.781.067-1.539.232-2.327.1-.462.144-.916.269-1.383a.766.766,0,0,0,.037-.242c.1-1.042.327-2.1.477-3.152.033-.163.066-.3.1-.463a1.54,1.54,0,0,0,.03-.689.844.844,0,0,0-.465.488,3.011,3.011,0,0,1-.372.738,4.057,4.057,0,0,1,.411-1.033,8.759,8.759,0,0,0,.589-1.508v0a1.9,1.9,0,0,0-.417.56c-.173.368-.344.709-.491,1.072-.813,1.857-1.6,3.682-2.358,5.531-.435,1.011-.819,2.015-1.2,3.019-.175.421-.3.807-.446,1.224a.965.965,0,0,1-.36.473l-.131.019c-.026-.023-.048-.1-.021-.129.006-.133.063-.246.068-.352,0-.027-.022-.076-.049-.072s-.079.011-.08.037a3.947,3.947,0,0,0-.278.383c-.141.231-.3.254-.475.121a.528.528,0,0,1-.192-.394c-.023-.076-.018-.182-.041-.258,0-.053-.049-.072-.1-.011s-.086.17-.19.159c-.155-.031-.338-.031-.435-.2a1.157,1.157,0,0,1-.141-.955c.128-.545.231-1.114.386-1.663.213-.689.453-1.383.717-2.053.3-.86.623-1.7.868-2.55.122-.386.3-.78.443-1.144.264-.67.528-1.341.818-1.988a22.3,22.3,0,0,0,.8-2.145c.059-.14.144-.284.2-.451.144-.31.29-.647.408-.981a16.871,16.871,0,0,1,.811-1.8c.343-.682.66-1.36.976-2.038a7.2,7.2,0,0,1,.764-1.322c.249-.325.421-.666.645-1.014a1.333,1.333,0,0,1,.222-.3,7.262,7.262,0,0,0,.964-1.14,1.825,1.825,0,0,1,.544-.5.9.9,0,0,1,.814-.09c.127.061.231.1.275.25a.415.415,0,0,0,.353.293.843.843,0,0,1,.607.466c.025.023.051.046.049.072.458.277.514.77.6,1.259a2.009,2.009,0,0,0,.114.379.725.725,0,0,1,.157.583c0,.713-.062,1.433-.12,2.153-.03.083-.033.163-.062.22a.9.9,0,0,0-.028.636.66.66,0,0,1,.01.394c-.25.932-.292,1.887-.57,2.849a.033.033,0,0,0-.026.031c-.039.269-.019.424.06.413.157-.023.242-.167.326-.284a8.48,8.48,0,0,0,1-1.436c.282-.462.614-.905.921-1.344l.333-.443a37.809,37.809,0,0,1,2.56-3.61q.126-.175.251-.352a3.642,3.642,0,0,1,.743-.87,1.9,1.9,0,0,1,.882-.47,1.808,1.808,0,0,0,1.05-.7c.056-.087.11-.147.166-.234a.693.693,0,0,1,1.072-.022.394.394,0,0,1,.042.257,1.039,1.039,0,0,0-.04.3c-.034.189.016.235.2.182a.627.627,0,0,0,.212-.057.434.434,0,0,1,.41.179,1.306,1.306,0,0,1,.159.557c-.007.159.013.288.006.447.018.182.147.216.331.19v-.027a1.468,1.468,0,0,1-.085.751,3.007,3.007,0,0,0-.249.932,1.083,1.083,0,0,1-.148.39,3.357,3.357,0,0,0-.237.64l-.028.03.028-.03a.135.135,0,0,1,.122.193,2.975,2.975,0,0,1-.263.644c-.182-.027-.208-.023-.295.174-.027.031-.031.11.022.1.1.012.135-.1.19-.158.028-.057.055-.087.084-.144a8.3,8.3,0,0,1-.6,1.72c-.061.193-.172.367-.234.587-.413,1.087-.879,2.181-1.319,3.273-.206.557-.362,1.132-.544,1.686-.239.719-.453,1.409-.693,2.129a1.771,1.771,0,0,0-.087.2l-.053.007-.025-.022a.8.8,0,0,1,.068-.353c.125-.466.275-.909.426-1.379.357-1,.688-2,1.045-3,.472-1.228.916-2.451,1.466-3.664.029-.056.086-.17.008-.186-.077-.041-.107.069-.136.126-.175.42-.349.814-.524,1.235-.379.9-.759,1.822-1.138,2.719a3.365,3.365,0,0,0-.15.444c-.363,1.159-.754,2.322-1.092,3.477-.18.527-.308,1.072-.463,1.622a1.1,1.1,0,0,0-.065.3.021.021,0,0,0,.026.022c.024.023.051.019.079-.038a2.358,2.358,0,0,1,.291-.674c.078.015.048.1.019.155-.246.853-.441,1.724-.609,2.592a1.772,1.772,0,0,1-.538.947c-.136.125-.242.166-.37.105-.125-.113-.259-.068-.418.008a.369.369,0,0,1-.443-.042,1.594,1.594,0,0,1-.273-.33.71.71,0,0,0-.479-.379.587.587,0,0,1-.35-.346,1.74,1.74,0,0,1-.166-.978,22.065,22.065,0,0,1,.308-2.284c0-.053,0-.08,0-.106.394-1.243.579-2.509.9-3.766a7.313,7.313,0,0,1,.391-1.19,2.576,2.576,0,0,0,.123-.413c.032-.136-.095-.223-.255-.148-.054.034-.109.095-.162.129.113-.2.2-.424.314-.625a.7.7,0,0,0,.085-.144c.03-.083.112-.174.009-.212-.1-.012-.161.1-.19.159-.2.291-.365.579-.561.9-1.209,1.966-2.42,3.985-3.554,6.019-.6,1.114-1.168,2.223-1.766,3.363-.086.171-.172.341-.258.538,0,.054-.059.14-.009.186.1.038.161-.1.215-.136-.257.511-.514,1-.771,1.507.026,0,.027-.03.028-.056-.023-.076.009-.186-.069-.2-.1-.038-.134.071-.19.159a2.812,2.812,0,0,1-.2.371,1.931,1.931,0,0,1-.194.265.174.174,0,0,1-.212.057A.155.155,0,0,1,15.537,32.839Zm-5.414.2,0,.027Zm.236-.64-.026,0a1.209,1.209,0,0,1-.21.636A1.543,1.543,0,0,1,10.359,32.4Zm.535-3.266c0-.053.03-.11-.048-.1-.026,0-.054.034-.056.088l-.525,1.261a.341.341,0,0,0-.014.318A14.167,14.167,0,0,0,10.894,29.129ZM10.359,32.4a6.282,6.282,0,0,1,.51-1.5c.468-1.175.937-2.323,1.431-3.474a2.928,2.928,0,0,1,.4-.769c-.029.083-.06.193-.091.3-.321.784-.642,1.542-.964,2.326-.291.7-.584,1.428-.85,2.125a5.227,5.227,0,0,1-.461.989Zm.946-4.3c.349-.814.7-1.628,1.048-2.469a2.809,2.809,0,0,0,.1-.436l.026-.03-.026.03a22.842,22.842,0,0,0-1.013,2.228c-.087.223-.149.443-.236.64,0,.026.023.076.022.1C11.25,28.129,11.3,28.121,11.305,28.094Zm1.057-6.266a.314.314,0,0,0,.032-.136l.028-.031v.027c-.028.03-.082.064-.084.117a.114.114,0,0,0-.029.083C12.335,21.858,12.361,21.854,12.362,21.828Zm.426,4.6c-.03.084-.059.14-.089.224l-.026,0A.991.991,0,0,0,12.788,26.432Zm.114-.227a.655.655,0,0,1-.114.227A2.073,2.073,0,0,0,12.9,26.205Zm-.048-1.891c.028-.03,0-.053.03-.083a.073.073,0,0,0-.055.06.264.264,0,0,0-.032.137C12.8,24.4,12.853,24.341,12.854,24.314Zm.832.091a7.248,7.248,0,0,1-.784,1.8A11.786,11.786,0,0,1,13.686,24.405Zm.411-2.826a.983.983,0,0,0-.358.42,4.137,4.137,0,0,0-.454,1.41A17.19,17.19,0,0,0,14.1,21.579Zm-.041-3.842c.193-.239.252-.379.171-.341-.108.094-.114.227-.171.341v0Zm.482,2.724c.163-.155.246-.272.167-.234-.107.041-.112.148-.167.234-.032.111-.062.22-.093.33C14.476,20.681,14.506,20.572,14.538,20.461Zm.061-3.8a2.206,2.206,0,0,0,.513-.97,2.022,2.022,0,0,0-.486.966l-.028.031Zm.85-1.519a2.14,2.14,0,0,1,.145-.337.886.886,0,0,0-.221.295c0,.027.025.023.024.05Zm.942,17.288.026,0-.027.031Zm.885-1.734v.026a.823.823,0,0,1-.113.2C17.192,30.835,17.247,30.775,17.276,30.692Zm.11-.121V30.6c-.028.03-.081.064-.109.095Zm.177-.474c.713-1.368,1.4-2.758,2.165-4.106.139-.2.28-.436.447-.67a2.838,2.838,0,0,1-.2.477c-.483.886-.965,1.746-1.395,2.625a23.3,23.3,0,0,1-1.191,2.148A1.8,1.8,0,0,1,17.563,30.1Zm.012-1.451c.028-.057.058-.141.087-.2a.929.929,0,0,0,.114-.227.521.521,0,0,1-.113.2.666.666,0,0,1-.115.227v.027Zm1.066-7.059c.03-.084.06-.167.087-.224a.246.246,0,0,0-.048-.072c-.025-.023-.078.011-.08.038-.03.083-.034.163-.063.246l.024.023Zm-.089,2.622v0Zm.536-.894a.994.994,0,0,0,.223-.322.665.665,0,0,0-.224.349.762.762,0,0,0-.224.321A.677.677,0,0,0,19.088,23.315Zm.118-3.891c0-.027,0-.08-.023-.076-.025-.023-.079.011-.08.037a.813.813,0,0,0-.129.546A1.062,1.062,0,0,0,19.206,19.424Zm.189-1.346c.029-.057.03-.083.059-.14-.026-.022-.024-.049-.05-.072,0,.027-.053.034-.055.061a.231.231,0,0,0-.032.136l.051.046Zm.892,7.068.026,0a.606.606,0,0,1-.135.124A.267.267,0,0,0,20.287,25.146Zm.114-.2c-.029.056-.059.14-.088.2l-.026,0A.859.859,0,0,0,20.4,24.946Zm.534-.868a2.951,2.951,0,0,1-.534.868A3.064,3.064,0,0,1,20.935,24.078Zm0-.026a3.881,3.881,0,0,0,.223-.322c-.084.117-.141.231-.224.348Zm.337-.55a1.912,1.912,0,0,0-.114.228A.971.971,0,0,1,21.273,23.5Zm.2-.318a3.484,3.484,0,0,1-.2.318C21.33,23.389,21.413,23.3,21.47,23.184Zm.114-.227a.647.647,0,0,1-.114.227C21.5,23.1,21.555,23.04,21.584,22.957Zm.083-.117,0,.053c-.027.03-.053.034-.081.064A.436.436,0,0,0,21.667,22.84Zm.391-4.142a.073.073,0,0,1-.055.061l0,.053C22.028,18.781,22.03,18.728,22.058,18.7Zm.091,3.282c.055-.061.085-.144.14-.2.074.094-.059.139-.088.223l-.083.091C22.12,22.063,22.147,22.033,22.149,21.98Zm.553-4.27c.027-.031.055-.061.082-.091l0-.053c-.028.057-.056.087-.084.144,0,.026-.028.03-.055.06,0,.027,0,.027-.029.057A.46.46,0,0,1,22.7,17.71ZM22.654,21.2v0Zm.223-.322c-.083.117-.14.2-.2.292A.78.78,0,0,1,22.877,20.874Zm1.75,7.762c.133-.072.2-.318.121-.386a.021.021,0,0,0-.025-.023c-.109.095-.2.345-.122.413Zm1.694-16.058a.487.487,0,0,1,.084-.118l-.11.122Zm3.143,1-.025-.023c-.026,0-.026,0-.053.035a.558.558,0,0,0-.172.314.021.021,0,0,1,.026.023c0,.026.025.022.051.019A.733.733,0,0,0,29.464,13.577Zm.3-.413v0Z"/><path class="cls-1" d="M31.611,30.9a1.5,1.5,0,0,1-.885-.664,2.567,2.567,0,0,0-.594-.758,1.725,1.725,0,0,1-.435-.807,1.57,1.57,0,0,1,0-.607,8.741,8.741,0,0,1,.54-1.606c.2-.424.377-.845.551-1.265.3-.834.75-1.61,1.124-2.4.461-.988.922-1.977,1.306-2.981a4.48,4.48,0,0,1,.287-.595c.2-.291.314-.6.484-.913a10.2,10.2,0,0,1,.88-1.6,7.376,7.376,0,0,0,.512-.97c.256-.484.488-.992.8-1.484a2.108,2.108,0,0,0,.233-.534,1.023,1.023,0,0,1,.257-.512c.11-.121.062-.22-.068-.227-.078-.016-.131-.008-.208-.023-.234-.019-.307-.167-.324-.376a.6.6,0,0,1,.311-.545,1.077,1.077,0,0,1,.292-.1c.212-.056.449-.116.686-.177a.63.63,0,0,0,.346-.128c.026,0,.055-.061.056-.088s-.051-.045-.076-.042a1,1,0,0,0-.474.068c-.264.064-.5.125-.764.163-.026,0-.078-.015-.077-.042a.108.108,0,0,1,.083-.091.645.645,0,0,1,.211-.057c.29-.068.607-.139.9-.207.1-.015.237-.061.342-.076a.262.262,0,0,0,.163-.155c.029-.057-.021-.1-.178-.08-.29.042-.58.109-.9.155-.159.022-.317.072-.5.1s-.284-.065-.249-.281a1.044,1.044,0,0,1,.633-.749,2.459,2.459,0,0,1,.449-.091c.343-.075.684-.125,1.054-.231.079-.011.159-.049.238-.06q1.338-.151,2.681-.384c.263-.038.5-.045.762-.109a9.348,9.348,0,0,1,2.3-.04,1.027,1.027,0,0,1,.857.694c.048.1-.061.22-.166.235a3.156,3.156,0,0,1-.5-.008,8.372,8.372,0,0,0-2.589.081l-2.05.294c-.264.064-.425.14-.375.212.072.148.231.072.336.057l3-.43q.827-.078,1.648-.078a3.4,3.4,0,0,1,.519.084c.052.019.1.038.048.1-.056.088-.086.171.017.209.231.1.274.3.316.535.014.287-.069.4-.331.416a6.888,6.888,0,0,1-.784.007,12.789,12.789,0,0,0-2.83.221c-.369.053-.737.132-1.106.212a1.054,1.054,0,0,0-.292.094c-.054.034-.107.068-.11.121-.03.084.074.095.127.088l.5-.072c.709-.1,1.419-.2,2.153-.283a14.08,14.08,0,0,1,1.469-.131,3.276,3.276,0,0,1,.91.08c.052.019.1.038.1.092.025.049-.029.083-.057.113a1.462,1.462,0,0,1-.876.337c-.889.022-1.783.15-2.675.252.031-.111.135-.1.188-.107a6.323,6.323,0,0,1,.708-.075,3.486,3.486,0,0,0,.736-.106.188.188,0,0,0,.056-.086.045.045,0,0,0-.05-.046.084.084,0,0,0-.078-.015,15.981,15.981,0,0,0-2.707.388,1.745,1.745,0,0,0-.344.1c-.026,0-.029.057-.056.087.025.023.05.046.076.042l.394-.057a2.024,2.024,0,0,1,.394-.03,1.365,1.365,0,0,1-.61.219.94.94,0,0,0-.814.7c-.271.8-.568,1.637-.814,2.463,0,.053-.03.11-.033.162a.2.2,0,0,0,.25.255,10.707,10.707,0,0,1,1.285-.105,5.679,5.679,0,0,1,.678.008,1.406,1.406,0,0,1,.847.353.557.557,0,0,1,.223.284,1.543,1.543,0,0,0,.49.721c.051.045.074.095.124.14a.576.576,0,0,1,.105.591c-.029.084-.032.163-.063.246a.213.213,0,0,0,.068.255c.076.041.153.083.122.193a.718.718,0,0,1-.644.382l-.39-.023a3.574,3.574,0,0,0-1.287.158,5.053,5.053,0,0,1-1.058.283,4.959,4.959,0,0,0-.581.163,4.68,4.68,0,0,1-1.294.317.846.846,0,0,0-.834.568.719.719,0,0,1-.111.174c-.027,0-.023-.1-.079-.015.027,0,.052.019.079.015a.884.884,0,0,1-.234.534c0-.053.005-.106-.02-.128-.024-.05-.1-.012-.133.045-.057.113-.14.231-.2.371-.206.53-.386,1.057-.592,1.587-.146.337-.318.7-.463,1.042A6.414,6.414,0,0,0,34.59,26.1c-.031.083.047.1.127.06.054-.034.107-.041.131-.018.1.2.255.148.415.072.372-.133.715-.234,1.089-.393a6.169,6.169,0,0,1,1.48-.424,2.407,2.407,0,0,1,.887.031.713.713,0,0,1,.584.391.692.692,0,0,0,.405.285,1,1,0,0,1,.8.808,1.609,1.609,0,0,0,.24.492c.126.114.065.307-.1.436a.893.893,0,0,1-.478.2,6.551,6.551,0,0,0-1.776.6,6.625,6.625,0,0,1-.639.276c-.108.068-.24.114-.374.186a1.73,1.73,0,0,1-.48.226.628.628,0,0,0-.292.121,3.413,3.413,0,0,1-.911.526c-.214.11-.428.22-.616.326-.239.113-.453.223-.691.31a3.16,3.16,0,0,0-.586.242,2.011,2.011,0,0,1-1.081.234A4.866,4.866,0,0,1,31.611,30.9Zm4.312-7.84a1.177,1.177,0,0,1-.126.492,1.805,1.805,0,0,0-.138.178A1.549,1.549,0,0,1,35.923,23.063Zm.465-1.069-.027,0a3.018,3.018,0,0,1-.438,1.065A2.467,2.467,0,0,1,36.388,21.994Zm2.72-7.849.027-.031-.053.035Zm4.59-3.426a.073.073,0,0,0,.055-.06c0-.027-.024-.076-.049-.072a2.737,2.737,0,0,0-.47-.012c-1.075.1-2.128.279-3.18.456a.366.366,0,0,0-.159.049.073.073,0,0,0-.055.06.066.066,0,0,0,.075.095,2,2,0,0,0,.394-.056c.525-.076,1.025-.174,1.552-.276l1.127-.082Zm.264,1.728v-.026l-.028.03Z"/><path class="cls-1" d="M53.806,28.7a.489.489,0,0,1-.545-.081c-.351-.318-.757-.6-1.136-.891a1.637,1.637,0,0,1-.6-1.126,9.027,9.027,0,0,1-.222-1.5c-.053-.572-.107-1.144-.161-1.69-.023-.076-.02-.129-.044-.2-.042-.2-.173-.212-.362-.08a2.367,2.367,0,0,0-.244.22c.112-.174.225-.375.337-.549a.673.673,0,0,0,.118-.307c0-.027-.024-.05-.049-.072l-.052.007c-.107.042-.164.156-.245.22-.36.473-.72.92-1.08,1.394-.3.386-.635.8-.94,1.215a8.457,8.457,0,0,0-.778,1.061,4.178,4.178,0,0,1-.742.844,1.33,1.33,0,0,1-.243.166.246.246,0,0,1-.235.008.2.2,0,0,1,.01-.239,5.338,5.338,0,0,1,.308-.466l.913-1.159c.5-.624.969-1.272,1.466-1.9.442-.537.856-1.045,1.271-1.579.139-.178.381-.344.261-.591-.237.034-.325.257-.461.409-.719.894-1.411,1.81-2.13,2.7a7.9,7.9,0,0,0-.893,1.314,1.246,1.246,0,0,1-.387.477,4.089,4.089,0,0,0-.736.712c-.165.182-.269.2-.447.064a.876.876,0,0,1-.34-.584c-.02-.155.014-.318-.193-.367-.13-.008.012-.266-.117-.327-.075-.067-.234.008-.31-.06l-.075-.069a1.249,1.249,0,0,1,.027-1.216c.111-.148.223-.322.335-.5.362-.527.726-1.08,1.115-1.61.306-.439.638-.855.943-1.268a8.408,8.408,0,0,1,.691-.864,1.047,1.047,0,0,0,.194-.265c.307-.439.638-.829.969-1.246a14.431,14.431,0,0,0,1.445-2,1.91,1.91,0,0,0,.27-.8,4.109,4.109,0,0,0,.062-.8q-.008-1.62-.094-3.229a10.092,10.092,0,0,0-.115-1.538c-.077-.648-.048-1.312-.071-1.967a5.662,5.662,0,0,1-.064-.94c-.031-.5.215-.716.682-.677a.8.8,0,0,1,.49.166,2.345,2.345,0,0,0,.739.422.6.6,0,0,1,.353.291c.243.414.62.755.862,1.2a7.626,7.626,0,0,1,.708,1.717c.065.307.131.588.2.9.024.049.021.1.046.125.121.246.328.269.547.053.3-.306.574-.583.822-.882a6.193,6.193,0,0,1,.546-.553l.734-.659a3.553,3.553,0,0,1,.326-.284c.54-.393,1.052-.756,1.591-1.15a1.569,1.569,0,0,1,1.4-.333.878.878,0,0,1,.358.186c.176.133.17.292-.047.455-.215.136-.456.276-.7.416a2.808,2.808,0,0,0-.842.754l-.027,0c.455-.25.937-.5,1.39-.727.134-.072.268-.144.428-.219a.021.021,0,0,1,.025.023c.025.022.024.049,0,.079-.135.1-.3.2-.43.3s-.271.2-.379.291a.082.082,0,0,0,0,.107l.026,0c.24-.114.454-.223.667-.333.455-.25.609-.193.774.232a.685.685,0,0,1-.161.682,6.138,6.138,0,0,1-.681.651,4.78,4.78,0,0,0-.924.818,1.554,1.554,0,0,0,.724-.421,3.067,3.067,0,0,1,.542-.446,1.945,1.945,0,0,1,.561-.291.106.106,0,0,1,.13.007c.025.023.022.076.02.129a.973.973,0,0,1-.112.174,4.534,4.534,0,0,1-.575.61c-.707.628-1.364,1.329-2.046,2.007-1.01.988-2.023,2.056-3.034,3.07-.192.213-.385.451-.577.663a2.473,2.473,0,0,0-.222.295.172.172,0,0,0-.007.16c.025.023.078.015.132-.019.082-.091.19-.159.272-.25.3-.307.574-.61.876-.943,1.071-1.181,2.218-2.321,3.338-3.457l1.879-1.772a1.62,1.62,0,0,1-.445.618,16.579,16.579,0,0,0-1.584,1.6c-.11.122-.246.247-.383.4-.82.829-1.667,1.689-2.488,2.544l-1.067,1.1a2.708,2.708,0,0,0-.738,1.372.388.388,0,0,0,.01.341,1.328,1.328,0,0,1,.031,1.1.73.73,0,0,0-.173.368c0,.053.022.075.021.1.029-.03.08-.038.081-.064a2.19,2.19,0,0,0,.071-.406,2.208,2.208,0,0,1-.057,1.3c-.031.11-.062.22.039.311.1.064.122.193.115.352-.014.318-.029.663-.071,1.012a2.984,2.984,0,0,1-.184.633c-.059.14-.089.25.066.28.1.012.127.087.123.167a2.269,2.269,0,0,1-.044.428c-.009.212-.1.409.052.6.073.121.011.341-.05.534a.428.428,0,0,0-.037.243c.158.584.077,1.228.262,1.781a.478.478,0,0,1-.232.534,2.467,2.467,0,0,0-.324.231.489.489,0,0,1-.5.178A.883.883,0,0,0,53.806,28.7Zm-7.458-4.44,0-.053-.08.011a.537.537,0,0,0-.11.121c0,.053,0,.08.049.072A.288.288,0,0,0,46.348,24.257Zm1.279-1.792a1.087,1.087,0,0,0,.225-.348l.11-.121A3.612,3.612,0,0,0,48.9,20.86a5.194,5.194,0,0,0,1.051-1.337.263.263,0,0,1,.11-.121,1.855,1.855,0,0,0,.525-.682v0a1.075,1.075,0,0,0-.525.682l-.11.121a4.127,4.127,0,0,0-.99,1.143c-.029.057-.032.137-.061.194A3.065,3.065,0,0,0,47.962,22a.555.555,0,0,1-.11.121.874.874,0,0,0-.225.348,1.777,1.777,0,0,0-.525.656A1.4,1.4,0,0,0,47.627,22.465Zm.271,3.968a1.579,1.579,0,0,0,.192-.212c.53-.761,1.185-1.435,1.714-2.17a3.333,3.333,0,0,1,.574-.583,1.842,1.842,0,0,1-.141.231c-.386.477-.7,1-1.135,1.481a14.312,14.312,0,0,0-1.137,1.507,1.112,1.112,0,0,1-.544.5A1.922,1.922,0,0,1,47.9,26.433Zm1.716-5.781c.028-.057.057-.141.086-.2l.11-.121.11-.122.11-.12L50.112,20l.11-.12a.876.876,0,0,0,.224-.349.483.483,0,0,1,.108-.095.552.552,0,0,0-.109.121,1.5,1.5,0,0,0-.223.323c-.028.03-.057.087-.083.117a.265.265,0,0,0-.111.121c-.027.03-.081.064-.108.094a.271.271,0,0,1-.11.122.514.514,0,0,1-.11.121c-.03.083-.058.14-.088.223a.516.516,0,0,0-.109.095Zm.874,2.7a.537.537,0,0,0-.11.121A.269.269,0,0,1,50.488,23.347Zm4.2.189a.021.021,0,0,0-.026-.023c-.025-.023-.051-.019-.053.008-.027.056,0,.079.023.076Zm.4-.822,0-.08-.052.008a.086.086,0,0,0,.023.076Zm.064-6.257a.825.825,0,0,0,.378-.264l1.839-2.03c.055-.061.109-.121.087-.2-.131-.008-.214.11-.3.174-.6.587-1.176,1.2-1.751,1.806a1.042,1.042,0,0,0-.258.511.5.5,0,0,1-.11.122C55.068,16.549,55.123,16.488,55.15,16.457Zm.091-3.254-.025-.023c-.052-.019-.08.038-.109.1a.02.02,0,0,0,.025.022C55.185,13.29,55.212,13.259,55.241,13.2Zm4.063-.952a1.525,1.525,0,0,0-.408.375A1.2,1.2,0,0,0,59.3,12.251ZM61.95,10.87a.49.49,0,0,1-.11.121Z"/><path class="cls-1" d="M64.31,23.9a3.189,3.189,0,0,1,.074-.511c0-.08-.1-.118-.179-.08a1.2,1.2,0,0,0-.275.33c-.247.272-.433.325-.661.174a.576.576,0,0,1-.291-.512,1.325,1.325,0,0,0-.012-.315.123.123,0,0,0-.151-.136c-.053.007-.131.019-.156-.031-.022-.075-.044-.178-.149-.163-.079.011-.135.1-.216.163-.135.1-.214.11-.26-.042-.049-.072-.095-.2-.144-.269a1.044,1.044,0,0,1,0-1.107,8.148,8.148,0,0,0,.529-1.341c.154-.549.414-1.113.622-1.7.089-.25.177-.473.268-.75a7.376,7.376,0,0,1,.7-1.709,4.591,4.591,0,0,0,.408-.954,6.744,6.744,0,0,1,.659-1.333,3.065,3.065,0,0,0,.321-.784,4.312,4.312,0,0,1,.206-.5c.2-.478.432-.932.662-1.413.086-.171.173-.368.258-.538a13.916,13.916,0,0,0,.737-1.318,2.327,2.327,0,0,1,.614-.9,1.657,1.657,0,0,0,.334-.47,14.055,14.055,0,0,1,1.559-2.2,1.015,1.015,0,0,1,1.342-.246c.154.084.149.19-.016.372-.027.03-.081.064-.083.117-.055.061-.031.11.021.1.13.035.263-.037.395-.056-.031.11-.036.216.095.224.391.023.429.333.415.652a7.519,7.519,0,0,1-.007.765c0,.106.044.178.175.16.158-.023.181.053.175.185A3.959,3.959,0,0,1,72.1,8.7a8.764,8.764,0,0,1-.451,1.356,1.286,1.286,0,0,1-.227.4c-.023-.076-.072-.148-.18-.053a.75.75,0,0,0-.21.637c.139-.205.277-.383.39-.584a2.534,2.534,0,0,1-.214.716c-.2.425-.376.845-.577,1.269a9.618,9.618,0,0,1-.775,1.587,5.263,5.263,0,0,0-.258.539,29.2,29.2,0,0,1-1.381,2.912,5.262,5.262,0,0,0-.259.538c-.467,1.122-1.038,2.231-1.556,3.334-.259.538-.492,1.1-.726,1.659-.058.14-.066.326-.252.379-.072-.148.039-.269.07-.406.264-.644.554-1.318.87-1.97q.779-1.653,1.555-3.307c.578-1.269,1.156-2.538,1.786-3.814.343-.682.61-1.406,1-2.068a.519.519,0,0,0,.058-.141c.029-.056.031-.109-.02-.128-.026,0-.08.038-.082.064a5.816,5.816,0,0,0-.455.856c-.144.311-.288.621-.458.909a14.558,14.558,0,0,0-.8,1.644c-.343.655-.66,1.333-.976,1.985a1.432,1.432,0,0,1-.112.2c-.379.9-.811,1.8-1.241,2.682-.461.988-.923,2-1.333,3.011a4.953,4.953,0,0,1-.426.8.64.64,0,0,1-.38.319C64.408,24.04,64.28,23.979,64.31,23.9Zm-.473-3.516a2.1,2.1,0,0,0,.114-.228,2.544,2.544,0,0,1,.118-.307l.093-.329a2.111,2.111,0,0,0,.463-1.042v0a2.056,2.056,0,0,0-.438,1.065,1.574,1.574,0,0,0-.118.306c-.031.111-.088.224-.118.307a2.1,2.1,0,0,1-.114.228c-.056.087-.165.181-.09.276C63.829,20.564,63.806,20.489,63.837,20.379Zm1.775-4.156A.965.965,0,0,1,65.726,16a1.41,1.41,0,0,0,.206-.53,1.978,1.978,0,0,0-.206.53c-.03.083-.085.144-.114.227v0Zm1.123-2.4c.03-.084.061-.194.091-.277a5.751,5.751,0,0,0,.662-1.413.167.167,0,0,0,.057-.114.11.11,0,0,0,.03-.083c-.027.03-.055.061-.056.087a.224.224,0,0,0-.032.136,1.309,1.309,0,0,0-.334.47,4.039,4.039,0,0,0-.327.917l-.169.261c-.057.114-.06.193-.007.16A.284.284,0,0,0,66.735,13.822Zm1.187-2.648a.805.805,0,0,1,.113-.2c.029-.084.059-.14.088-.224a2.147,2.147,0,0,0-.088.224.805.805,0,0,0-.113.2.991.991,0,0,0-.115.227C67.837,11.318,67.892,11.257,67.922,11.174Zm3.036-4.943a.128.128,0,0,1,.029-.057c-.025-.022-.077-.015-.1-.011a.532.532,0,0,0-.11.121V6.31a.083.083,0,0,0,.078.015A.461.461,0,0,0,70.958,6.231Zm.684,3.487,0-.053c-.025-.023-.025-.023-.054.034,0,.053-.03.11-.033.163A.719.719,0,0,1,71.642,9.718Z"/><path class="cls-1" d="M76.261,24.792a2.166,2.166,0,0,1-.56-.315,9.409,9.409,0,0,1-1.373-1.464,3.7,3.7,0,0,1-.713-2.217l-.03-1.1a.486.486,0,0,1,.035-.19c.075-.538.152-1.1.254-1.644a13.848,13.848,0,0,1,.377-1.451,6.5,6.5,0,0,1,.651-1.754,1.464,1.464,0,0,0,.087-.2c.243-.773.719-1.5,1.04-2.284a3.642,3.642,0,0,1,.228-.428c.45-.724.846-1.44,1.243-2.155a4.948,4.948,0,0,1,.615-.906c.579-.716,1.108-1.45,1.687-2.166a.434.434,0,0,1,.113-.174c.653-.6,1.1-1.344,1.729-1.935.027,0,.054-.034.081-.064.57-.477,1.114-.977,1.709-1.432A5.5,5.5,0,0,1,85.2,2.055a1.553,1.553,0,0,1,1.223.088,2.54,2.54,0,0,1,1.084.9A6.278,6.278,0,0,1,88.3,4.615,3.72,3.72,0,0,1,88.378,6.9,3.82,3.82,0,0,1,87.8,8.271a2.842,2.842,0,0,0-.371.713c-.084.144-.143.284-.228.454,0-.026,0-.026-.025-.049l-.026,0a.076.076,0,0,1,.052.019.841.841,0,0,1-.38.318.876.876,0,0,0-.331.39.53.53,0,0,0-.109.121,2.987,2.987,0,0,0-.591.374,1.547,1.547,0,0,0-.187.107c-.053.007-.1.015-.131-.008a.09.09,0,0,1,.006-.133c.056-.087.137-.151.165-.208.028-.03-.022-.076-.022-.076a.794.794,0,0,0-.4.163c-.212.083-.367.026-.384-.182a1.727,1.727,0,0,0-.15-.743.428.428,0,0,1,.017-.4,4.459,4.459,0,0,1,.23-.481c.257-.485.539-.974.821-1.462.229-.455.355-.947.559-1.425a6.3,6.3,0,0,0,.236-.613c.09-.277-.01-.368-.249-.281s-.477.174-.69.257c.107-.068.216-.163.35-.235.027-.03.082-.09.032-.136,0,0-.052-.019-.079.011a4.112,4.112,0,0,0-1.842,1.5V6.249a1.439,1.439,0,0,0-.489.439c-.275.329-.551.659-.853.992a7.751,7.751,0,0,0-.749,1c-.2.291-.418.587-.613.878a3.041,3.041,0,0,0-.565.977.563.563,0,0,0-.11.122l-.027.03c.025.023.051.019.052-.007a.818.818,0,0,1,.085-.145c.109-.094.216-.162.271-.223a6.926,6.926,0,0,1-.819,1.409l.009-.212a.858.858,0,0,1,.113-.2c-.028.057-.085.144-.113.2a1.587,1.587,0,0,0-.442.538c-.028.056-.031.136.022.1.187-.08.237-.034.152.137a2.767,2.767,0,0,1-.39.53l-.105.015a.864.864,0,0,0-.2.424,1.66,1.66,0,0,0,.2-.424l.105-.015a4.276,4.276,0,0,1-.661,1.386,1.283,1.283,0,0,0,.032-.136c0-.027,0-.08-.023-.076-.025-.023-.079.011-.079.011a.3.3,0,0,0-.114.228c0,.079.049.072.1.037.026,0,.053-.033.081-.064a.966.966,0,0,1-.311.546l-.106.015c-.089.25-.2.5-.294.754-.056.113-.14.231.041.257.026,0,.051.046.023.076,0,.08-.032.136-.035.216-.014.318-.44.485-.376.818a2.662,2.662,0,0,1-.195.871c-.065.3-.156.6-.222.9a14.367,14.367,0,0,0-.352,2.08,11.633,11.633,0,0,0-.007,1.346c0,.053.022.1.02.155.09.33.218.391.588.285a6.965,6.965,0,0,0,1.393-.78,16.053,16.053,0,0,0,1.793-1.6c.735-.685,1.42-1.416,2.106-2.174.329-.363.634-.776.94-1.189a.753.753,0,0,1,.589-.321.087.087,0,0,1,.1.117c-.062.22-.1.436-.159.656a4.129,4.129,0,0,1,.353-.315c.27-.2.5-.1.514.19a1.554,1.554,0,0,1-.041.349.883.883,0,0,1-.063.246,2.4,2.4,0,0,1-.088.224,3.944,3.944,0,0,0-.717.841c-.274.329-.524.655-.8.984a30.589,30.589,0,0,1-2.984,3.116l-.329.364,0,.079c.025.023.077.016.1.012a2.331,2.331,0,0,0,.541-.42A22.643,22.643,0,0,0,83.9,19.769a11.167,11.167,0,0,0,1.257-1.84,2.4,2.4,0,0,0,.088-.224.248.248,0,0,0,.133-.071c.133-.046.209,0,.154.083a2.535,2.535,0,0,1-.2.451c-.279.408-.557.791-.836,1.2a24.054,24.054,0,0,1-2.012,2.4q-.165.222-.332.443c-.055.061-.031.11.019.156a3.5,3.5,0,0,0-.3.253.32.32,0,0,0-.319.125c-.11.121-.221.269-.332.416-.109.122-.194.266-.3.387l.026,0a3.82,3.82,0,0,1-.784.614,5.641,5.641,0,0,1-1.311.714,3.861,3.861,0,0,1-1.078.182A4.5,4.5,0,0,1,76.261,24.792Zm2.372-10.04c-.029.057-.081.064-.106.015Zm.891,7.674a5.385,5.385,0,0,0,.485-.333c.27-.2.541-.42.812-.644-.139.2-.278.383-.417.587a.519.519,0,0,0-.109.095.97.97,0,0,1-.215.136.97.97,0,0,0,.215-.136l.11-.121a2.127,2.127,0,0,0,.565-.4,26.693,26.693,0,0,0,2.135-2.231,1.7,1.7,0,0,0,.309-.492.51.51,0,0,1,.109-.121.524.524,0,0,1,.111-.121l-.111.121c-.026.03-.082.091-.109.121a1.406,1.406,0,0,0-.382.371c-.328.337-.63.67-.931,1a2.577,2.577,0,0,1-.461.383c.494-.572,1.016-1.148,1.511-1.72a1.9,1.9,0,0,0,.39-.556,3.357,3.357,0,0,0-.6.56,32.939,32.939,0,0,1-3.193,3.146c-.083.091-.191.186-.273.277,0,0,0,.053,0,.08C79.472,22.434,79.523,22.452,79.524,22.426ZM80.517,7.5c.03-.083.085-.17.116-.254a1.556,1.556,0,0,1-.166.209l0,.053Zm.931,13.363a3.081,3.081,0,0,1-.628.617A2.54,2.54,0,0,1,81.448,20.859Zm-.2-10.91c.057-.087.164-.155.162-.1a.255.255,0,0,1-.058.141,3.178,3.178,0,0,1-.249.3C81.156,10.2,81.188,10.062,81.245,9.949Zm.21,13.123a.54.54,0,0,0-.11.121A.54.54,0,0,1,81.455,23.072Zm.1-2.308a.269.269,0,0,0-.11.121A.269.269,0,0,1,81.556,20.764Zm-.017,2.19a.516.516,0,0,1-.084.118C81.482,23.041,81.511,22.985,81.539,22.954Zm.1-2.307c-.028.03-.056.06-.11.121C81.584,20.707,81.612,20.677,81.64,20.647Zm.008,2.186v.027a.482.482,0,0,1-.108.094A.267.267,0,0,0,81.648,22.833Zm.109-.094a.491.491,0,0,1-.109.094C81.676,22.8,81.729,22.769,81.757,22.739Zm.11-.122a.517.517,0,0,0-.11.122A.271.271,0,0,1,81.867,22.617Zm.407-.348c-.028.03-.082.064-.109.1C82.192,22.333,82.246,22.3,82.274,22.269Zm.109-.121c-.027.03-.08.064-.108.094A.506.506,0,0,1,82.383,22.148Zm.111-.121a.271.271,0,0,0-.111.121A.271.271,0,0,1,82.494,22.027Zm.083-.118c-.028.03-.057.087-.083.118l-.027,0A.562.562,0,0,0,82.577,21.909Zm.058-16.851a1.2,1.2,0,0,0,.516-.47c.027,0,.054-.034.08-.037.028-.031.055-.062,0-.054a.032.032,0,0,0-.027.031.072.072,0,0,0-.056.06,1.231,1.231,0,0,0-.516.47.579.579,0,0,1-.11.121A.5.5,0,0,1,82.635,5.058Zm.051,16.73a.267.267,0,0,1-.109.121A.51.51,0,0,0,82.686,21.788Zm0-13.733c-.027.031-.028.057-.056.087A.1.1,0,0,1,82.6,8.2C82.63,8.142,82.658,8.112,82.686,8.055ZM82.8,7.96a.447.447,0,0,1-.109.095C82.714,8.025,82.768,7.991,82.8,7.96Zm.11-.121a.529.529,0,0,0-.11.121A.529.529,0,0,1,82.905,7.839Zm.11-.121-.11.121A.268.268,0,0,1,83.015,7.718ZM83.1,7.6l.026,0-.109.121C83.042,7.688,83.071,7.631,83.1,7.6Zm.11-.121a.506.506,0,0,1-.084.117l-.026,0A.28.28,0,0,0,83.208,7.48Zm0,13.733a.269.269,0,0,1-.11.121A.514.514,0,0,0,83.208,21.213Zm.083-13.851,0,.053c-.028.031-.054.034-.081.065A.516.516,0,0,0,83.291,7.362Zm.026,13.729a.263.263,0,0,1-.109.122A.514.514,0,0,0,83.317,21.091ZM83.426,21c-.027.03-.081.064-.109.094A.515.515,0,0,1,83.426,21Zm.11-.121a.264.264,0,0,0-.11.121A.264.264,0,0,1,83.536,20.876Zm.084-.118.026,0a.5.5,0,0,0-.11.122A.468.468,0,0,1,83.62,20.758Zm.109-.121a.267.267,0,0,1-.109.121A.53.53,0,0,0,83.729,20.637Zm.342-14.388v.026A1.828,1.828,0,0,0,84.5,5.95a3.332,3.332,0,0,1,.594-.428A11.6,11.6,0,0,1,84,6.6a2.383,2.383,0,0,1-.379.318C83.713,6.669,83.956,6.5,84.071,6.249Zm-.1-2.57a14.065,14.065,0,0,0,1.386-.646c.053-.008.082-.091.083-.118,0-.053-.049-.072-.1-.038a2.694,2.694,0,0,0-1.367.8l-.027,0Zm.6-.007a2.219,2.219,0,0,0,.4-.109c.345-.129.588-.322.458-.329a.8.8,0,0,0-.5.2,1.84,1.84,0,0,0-.351.261l-.026,0Zm.205,1.289c.346-.155.667-.333.988-.511a.18.18,0,0,0,.135-.1c.027,0,.029-.057.03-.083-.023-.076-.075-.069-.154-.058a2.814,2.814,0,0,0-1.073.629c-.055.06-.108.094-.058.14A.123.123,0,0,0,84.781,4.961Zm.109,14.218-.11.121A.532.532,0,0,1,84.89,19.179ZM85.205,5.4a.261.261,0,0,0-.109.121A.261.261,0,0,1,85.205,5.4Zm.189-.133c-.054.034-.135.1-.189.133l-.026,0A1.839,1.839,0,0,1,85.394,5.268Zm.215-.136a.97.97,0,0,1-.215.136C85.474,5.23,85.529,5.17,85.609,5.132Zm.878,4.988.184-.027c-.082.091-.167.235-.293.148A.53.53,0,0,1,86.487,10.12Zm.3-.148a.271.271,0,0,1-.111.121A.534.534,0,0,0,86.782,9.972Zm.953-2.087a.325.325,0,0,0,.031-.136l-.109.121c-.056.087-.06.166-.006.132C87.678,7.972,87.707,7.915,87.735,7.885Z"/><path class="cls-1" d="M93.892,21.262a3.84,3.84,0,0,1-1.966-1.036,14.9,14.9,0,0,1-1.378-1.937,4.951,4.951,0,0,1-.468-3.623c.1-.463.171-.948.271-1.41.032-.136.063-.273.095-.409a13.424,13.424,0,0,1,.928-2.11,4.136,4.136,0,0,0,.287-.568,6.829,6.829,0,0,1,.908-1.659c.056-.087.113-.2.169-.288a13.069,13.069,0,0,1,.906-1.606c.141-.231.334-.47.5-.7.248-.3.445-.618.668-.94.138-.178.3-.359.468-.541a3.982,3.982,0,0,0,.521-.576,10.788,10.788,0,0,1,2.021-2.029,3.172,3.172,0,0,0,.409-.4A7.518,7.518,0,0,1,99.985.172a2.509,2.509,0,0,1,.451-.144.494.494,0,0,1,.339,0c.076.042.2.076.225.205-.006.159-.139.2-.245.246a1.9,1.9,0,0,0-.839.674l-.025-.023c.318-.125.639-.276.932-.424a.838.838,0,0,1-.137.152c-.027.03-.03.083,0,.079.051.019.079-.011.106-.041.055-.061.032-.137.034-.19.11-.121.219-.216.345-.128.052.019.129.06.18.079.181.054.386.129.579-.109a.378.378,0,0,1,.395-.083,1.271,1.271,0,0,1,.638.357,2.959,2.959,0,0,1,.326.3.408.408,0,0,0,.334.137.582.582,0,0,1,.568.155,3.915,3.915,0,0,1,1.227,1.8,1.825,1.825,0,0,1,.1.671,5.043,5.043,0,0,1-.125,1.072,2.528,2.528,0,0,1-.523,1.209c-.082.09-.033.163.1.117a.045.045,0,0,1,.05.046c-.031.11-.062.246-.093.356a7.544,7.544,0,0,1-.569,1.636,2.017,2.017,0,0,0-.353.921.245.245,0,0,1-.058.14,3.017,3.017,0,0,0-.461.989.7.7,0,0,1-.2.371c-.164.182-.3.307-.232.534a.347.347,0,0,1-.087.2,1.683,1.683,0,0,0-.375.818l-.105.015.026,0c-.162.129-.163.156-.034.19a7.114,7.114,0,0,1-.712,1.341.743.743,0,0,0-.117.28,11.446,11.446,0,0,1-.91,1.712,1.862,1.862,0,0,1-.195.265c-.076-.041-.154-.057-.21.031-.137.151-.275.329-.414.507-.723,1-1.419,2-2.217,2.927-.029.058-.11.122-.036.216.083-.09.19-.159.272-.25a9.828,9.828,0,0,0,1.045-1.2c.334-.469.643-.962.977-1.432.2-.291.39-.556.584-.821a5.1,5.1,0,0,1-.678,1.178,17.7,17.7,0,0,1-1.582,2.151,5.115,5.115,0,0,1-3.3,1.9A4.734,4.734,0,0,1,93.892,21.262ZM96.033,16.5a7.253,7.253,0,0,0,1.109-1.477,1.731,1.731,0,0,1,.141-.231,9.97,9.97,0,0,0,1.152-1.852.636.636,0,0,1,.084-.144,5.056,5.056,0,0,0,.515-1.023q.3-.715.69-1.443a3.493,3.493,0,0,0,.406-.928,13.391,13.391,0,0,1,.624-1.75c.059-.141.117-.254.175-.394.274-.883.572-1.743.819-2.622.183-.58.26-1.144.39-1.743a3.565,3.565,0,0,0,.049-.534.57.57,0,0,0-.442-.622.187.187,0,0,0-.239.087,2.689,2.689,0,0,0-.583.8V2.594c-.166.208-.356.367-.522.575a.759.759,0,0,0-.231.508c.021.129-.088.223-.222.295a1.579,1.579,0,0,0-.573.557c-.221.295-.417.587-.639.882a4.221,4.221,0,0,0-.337.549c.217-.189.408-.374.625-.564a20.315,20.315,0,0,1-1.173,1.75l.008-.186-.243.194c0,.026-.029.056,0,.079,0,.026.052.019.077.015l.162-.1a4.459,4.459,0,0,1-.23.481c-.457.883-.991,1.75-1.4,2.652a1.276,1.276,0,0,1-.445.617c-.161.1-.324.257-.1.436.05.045.02.129-.035.189-.057.114-.139.205-.2.318a.3.3,0,0,0-.09.277c-.094.33-.188.686-.306,1.019-.092.3-.211.636-.329.943a16.615,16.615,0,0,1-.629,1.856,3.153,3.153,0,0,0-.247,1.459c.053.573.231.679.742.342A7.806,7.806,0,0,0,96.033,16.5Zm-.373,1.951a6.176,6.176,0,0,0,1.42-1.416.184.184,0,0,0,.031-.11c0-.026-.05-.045-.077-.042a.546.546,0,0,0-.133.072,17.271,17.271,0,0,1-1.337,1.3c-.055.06-.084.117-.138.178a.113.113,0,0,0,.022.076.081.081,0,0,0,.052.019A.465.465,0,0,0,95.66,18.452Zm.411.152a5.533,5.533,0,0,0,1.175-1.2.081.081,0,0,0,.005-.106c-.025-.023-.078-.015-.132.046-.356.367-.738.738-1.12,1.109a.721.721,0,0,0-.084.144l.025.023a.02.02,0,0,0,.024.023A.153.153,0,0,0,96.071,18.6Zm1.192.8a12.438,12.438,0,0,0,1.467-1.9c.028-.03.029-.057.031-.11a.021.021,0,0,0-.025-.023l-.052.008a.9.9,0,0,0-.164.155,18.386,18.386,0,0,1-1.727,1.882,1.488,1.488,0,0,0-.249.3.125.125,0,0,0,0,.133c.025.023.077.015.13.008A3.459,3.459,0,0,0,97.263,19.408ZM97.015,8.373c-.163.156-.275.3-.2.292C96.977,8.616,96.983,8.483,97.015,8.373Zm.244,11.748a.076.076,0,0,0-.052-.019.39.39,0,0,0-.19.159c0,.026,0,.08.023.076C97.09,20.382,97.254,20.227,97.259,20.121Zm.024-16.083c-.027.031-.056.061-.082.091l0,.027A.487.487,0,0,1,97.283,4.038Zm.522-.6a.487.487,0,0,1-.083.118A.487.487,0,0,0,97.805,3.436ZM99.14,5.169a1.98,1.98,0,0,0-.115.227A.675.675,0,0,1,99.14,5.169Zm.529-.761a.122.122,0,0,1,.054-.034l0,.053-.053.007Zm1.468-1.924c-.055.087-.086.2-.213.11V2.62A1,1,0,0,1,101.137,2.484Zm.111-.121a.512.512,0,0,0-.111.121A.265.265,0,0,1,101.248,2.363Zm.3-.94a.032.032,0,0,0,.028-.03c-.024-.049-.05-.045-.13-.008-.027,0-.108.068-.187.106-.028.031-.083.091-.032.11,0,.027.052.019.078.015A.317.317,0,0,0,101.549,1.423Zm-.218.822.026,0a.489.489,0,0,0-.109.121A.461.461,0,0,1,101.331,2.245Zm.109-.121a.461.461,0,0,1-.083.118l-.026,0A.489.489,0,0,0,101.44,2.124ZM101.55,2a.269.269,0,0,1-.11.121A.269.269,0,0,0,101.55,2Zm.96,10.3-.026,0,.105-.015a.823.823,0,0,1-.113.2l.024.023C102.5,12.436,102.508,12.357,102.51,12.3Z"/></g></g></g></svg>