<svg xmlns="http://www.w3.org/2000/svg" width="225.833" height="169" viewBox="0 0 225.833 169"><defs><style>.cls-1{fill:#fff;}.cls-2{fill:none;}</style></defs><title>RCN TELEVISION</title><g id="Layer_2" data-name="Layer 2"><g id="NOSOTROS"><g id="RCN_TELEVISION" data-name="RCN TELEVISION"><g id="RCN"><path class="cls-1" d="M102.359,64.737c.471-.169.939-.349,1.415-.5.357-.114.725-.189,1.086-.29a2.2,2.2,0,0,1,.525-.166c.245,0,.411-.169.622-.213.4-.084.8-.125,1.2-.2a3.241,3.241,0,0,1,.654-.15,11.77,11.77,0,0,0,1.558-.284c.42-.036.84-.1,1.261-.119.9-.046,1.809-.078,2.714-.107a1.576,1.576,0,0,1,1.085.223.464.464,0,0,0,.65-.076l-.219-.035,0-.043.812.066,0,.035-.152.032,0,.03h1.258V63h-.41v.02l1.948.175-.106.1.017-.067,1.663.312c.008,0,.021,0,.025.005.329.364.818.122,1.193.314a1.759,1.759,0,0,0,.326.154c.11.031.257-.019.342.037.336.218.8.153,1.08.4.356.306.793.284,1.173.458.067.031.108.115.169.164a.417.417,0,0,0,.158.081c.2.047.4.085.6.127l-.009.067h-.15l-.026.073a2.66,2.66,0,0,0,.4.108,2.671,2.671,0,0,1,1.021.428c.389.227.741.516,1.122.76.234.15.5.247.736.4.323.211.628.449.936.682.021.016-.01.092.011.12.055.073.117.18.192.195a1.99,1.99,0,0,1,1,.754c.3.306.622.585.913.895.332.354.647.724.956,1.1.224.271.192.355-.116.507a13.877,13.877,0,0,1-1.84.869c-.215.069-.413.348-.657.471s-.538.215-.8.331a1.2,1.2,0,0,0-.245.174,2.893,2.893,0,0,1-.236.194.327.327,0,0,1-.466-.132c-.169-.229-.3-.488-.472-.712a4.87,4.87,0,0,0-.488-.5c-.137-.132-.294-.245-.418-.388a1.271,1.271,0,0,1-.14-.347c-.112-.054-.326-.065-.383-.318-.019-.085-.192-.135-.3-.2-.358-.229-.717-.457-1.07-.693-.032-.021-.025-.1-.021-.081-.169-.1-.3-.182-.43-.256s-.3-.148-.448-.235c-.183-.111-.352-.249-.539-.352-.172-.093-.361-.151-.541-.23a7.433,7.433,0,0,1-.952-.432,3.9,3.9,0,0,0-1.114-.422c-.029-.008-.05-.059-.071-.092-.056-.093-.084-.1-.2-.041a.179.179,0,0,1-.112,0c-.406-.122-.811-.247-1.221-.372l.147-.047a.416.416,0,0,0-.1-.051,10.415,10.415,0,0,1-1.035-.132,3.526,3.526,0,0,1-.766-.15c-.4-.207-.831-.065-1.212-.241a.076.076,0,0,0-.025-.006c-.285,0-.569.012-.853.011-.1,0-.191-.034-.287-.033q-1.66.014-3.321.035c-.359,0-.718.02-1.076.039-.112.007-.222.052-.334.066-.371.045-.745.069-1.113.131-.173.029-.332.137-.5.185-.131.036-.275.023-.41.048a2.269,2.269,0,0,0-.305.1c-.016.006-.03.023-.045.022-.517-.013-.927.332-1.426.417a10.546,10.546,0,0,0-1.291.5,7.41,7.41,0,0,0-1.062.51c-.367.184-.721.4-1.084.589-.067.036-.154.035-.223.069a2.021,2.021,0,0,0-.293.183,2.925,2.925,0,0,1-.562.423c-.41.166-.633.542-.976.776a3.539,3.539,0,0,0-.469.3c-.145.135-.231.331-.37.474-.252.261-.535.493-.783.757a3.148,3.148,0,0,0-.267.439c-.317.472-.655.931-.952,1.416a4.83,4.83,0,0,0-.308.785l-.192-.227a1.89,1.89,0,0,1-.2,1.27l-.064-.014.063-.266-.065-.024c-.041.163-.145.342-.11.486a4.87,4.87,0,0,1-.078,1.36c-.008.3-.068.608-.048.909.038.576.116,1.149.177,1.723,0,.026,0,.062.009.077s.085.031.085.042c-.023.312.187.546.279.818.145.424.336.833.523,1.241.148.324.318.637.484.966l.112-.071-.024.3c.352.038.469.355.622.594.126.2.4.3.38.593.3.036.421.307.565.5.21.277.615.286.76.661.063.163.359.236.595.377h-.2a5.487,5.487,0,0,1,1.685,1.045c.107.042.273.1.432.17.558.254,1.115.509,1.668.773.121.057.342.061.26.24.338.076.683.152,1.026.237.023.006.028.081.028.081a4.538,4.538,0,0,1,.6.134,3.258,3.258,0,0,0,.745.29,5.14,5.14,0,0,1,.711.069c.651.141,1.3.3,1.952.422.245.045.523-.057.757.009.422.12.852-.043,1.25.064a5.165,5.165,0,0,0,1.466.062c.355-.006.709-.072,1.065-.1.1-.007.2.052.3.044.3-.024.611-.049.911-.1.594-.106,1.183-.233,1.775-.349a.224.224,0,0,1,.127.019c.325.153.324.154.557-.141.013-.018.039-.046.049-.042.319.108.511-.2.786-.235.12-.012.242,0,.349-.023.447-.332,1.069-.266,1.518-.655l-.01.113,2.408-1.187c.119-.091.214-.157.3-.232.219-.188.5-.266.717-.48a7.777,7.777,0,0,1,.927-.691l.275-.2c.178-.187.354-.383.542-.568.239-.235.5-.447.727-.694a6.411,6.411,0,0,0,.453-.636,6.152,6.152,0,0,1,.433-.589.312.312,0,0,1,.29-.016c.274.144.525.333.8.476.465.243.946.455,1.411.7.19.1.347.261.535.363.158.085.351.1.509.189.207.11.394.258.594.383a2.232,2.232,0,0,0,.25.113c-.2.2-.24.585-.682.508.141.193.081.3-.084.422-.143.107-.218.3-.344.434-.332.357-.663.717-1.02,1.049-.244.227-.538.4-.8.614s-.467.454-.723.654c-.331.258-.682.491-1.031.725a.991.991,0,0,1-.3.062c.183.251.338.5.53.721a13.293,13.293,0,0,0,3.146,2.509,32.172,32.172,0,0,0,4.96,2.456,24.42,24.42,0,0,0,6.023,1.6,31.425,31.425,0,0,0,4.034.131c1.471-.008,2.943,0,4.414,0q1.162,0,2.326.017c.151,0,.208-.06.193-.2,0-.052,0-.105,0-.158q0-18.544,0-37.088v-.415H142.263V71.615a.706.706,0,0,1,0,.184,1.955,1.955,0,0,1-.1.235.912.912,0,0,1-.192-.178c-.294-.51-.565-1.034-.87-1.538a27.437,27.437,0,0,0-7.912-8.353,31.537,31.537,0,0,0-8.249-4.078,35.21,35.21,0,0,0-5.5-1.333,38.266,38.266,0,0,0-6.333-.5c-.043,0-.086-.007-.13-.01-.071-.214.094-.2.2-.214.586-.061,1.172-.14,1.759-.163,1.337-.053,2.675-.1,4.012-.107a35.1,35.1,0,0,1,11.3,1.993,29.894,29.894,0,0,1,7.37,3.845c.064.046.133.087.2.127.012.007.033,0,.094,0v-.276c0-1.612.005-3.225-.007-4.837,0-.253.083-.308.316-.308q9.436.008,18.874,0c.233,0,.314.054.314.308q-.011,22.35-.007,44.7v.391c-.118.006-.212.016-.306.016-4.45,0-8.9.029-13.349-.011a23.344,23.344,0,0,1-5.969-.808,34.883,34.883,0,0,1-8.955-4,19.607,19.607,0,0,1-4.41-3.5c-.224-.247-.429-.513-.631-.778a1.815,1.815,0,0,1-.156-.3c-.427.074-.808.391-1.318.386-.017.015-.059.088-.117.105-.341.095-.69.163-1.027.267-.314.1-.613.242-.927.337a5.123,5.123,0,0,1-.682.106c-.079.111-.078.109-.28.013a.149.149,0,0,0-.1.007,8.117,8.117,0,0,1-.79.262,5.971,5.971,0,0,1-.7.053,2.669,2.669,0,0,0-.582.081,9.807,9.807,0,0,1-2.683.315c-.852.037-1.708,0-2.561-.029-.962-.036-1.923-.1-2.925-.159l.107-.152a.767.767,0,0,0-.261-.071c-.2.02-.39.07-.585.107l-.013-.076.211-.045c-.237-.018-.42-.021-.6-.049-.234-.037-.464-.1-.7-.141a1.915,1.915,0,0,0-.24-.027c-.025,0-.061.022-.076.012-.447-.317-1.019-.112-1.494-.395l-.034-.22c-.439.268-.8-.081-1.195-.158a7.532,7.532,0,0,1-1.2-.395,1.254,1.254,0,0,1-.286-.222c-.026-.021-.066-.057-.084-.049-.3.129-.478-.171-.733-.2-.054-.006-.1-.082-.151-.128s-.073-.1-.1-.095c-.406.053-.691-.226-1.014-.38-.42-.2-.812-.456-1.229-.7l.17-.127c-.58,0-.878-.428-1.317-.618a5.711,5.711,0,0,1-1.238-.89c-.375-.305-.724-.643-1.1-.984l.213-.022c-.113-.072-.178-.143-.251-.153-.3-.043-.423-.282-.583-.487-.083-.107-.175-.208-.264-.311-.356-.412-.728-.812-1.066-1.239a8.591,8.591,0,0,1-.71-1.043c-.185-.32-.312-.674-.472-1.009s-.343-.631-.468-.964a5.01,5.01,0,0,1-.124-.715c-.018-.08-.117-.141-.141-.222-.058-.2-.094-.409-.141-.625l-.048.155a.708.708,0,0,1-.019-.078c-.023-.259-.039-.519-.071-.776-.009-.073-.077-.136-.095-.209a11.047,11.047,0,0,1-.131-2.888c0-.1.077-.2.1-.3a3.758,3.758,0,0,0,.114-.688l-.048.084c-.008-.012-.024-.026-.022-.035q.158-.544.317-1.088c.117-.4.207-.816.361-1.2a14.892,14.892,0,0,1,.668-1.418c.078-.146.247-.243.37-.368.041-.041.106-.117.093-.143-.117-.238.063-.392.166-.546a6.329,6.329,0,0,1,.715-.946A16.347,16.347,0,0,1,95.606,69.1a3.2,3.2,0,0,1,.876-.677c.111-.038.192-.161.286-.246l.271-.245a1.975,1.975,0,0,1,1.153-.74.489.489,0,0,1,.017-.2c.018-.03.108-.017.17-.024l.519-.392-.037-.057-.386.217c-.321-.349-.62-.7-.949-1.028A14.16,14.16,0,0,0,94.4,63.459c-1.075-.6-2.18-1.147-3.3-1.655a25.661,25.661,0,0,0-6.38-1.976,23.59,23.59,0,0,0-4-.233c-2.475.01-4.951.005-7.427.006h-.273a.958.958,0,0,0-.019.14q0,18.675,0,37.351c0,.454-.031.39.4.39q5.035,0,10.072.006c.254,0,.329-.071.329-.326q-.011-5.909,0-11.816v-.255c.16-.139.217-.008.285.124a24.469,24.469,0,0,0,3.393,5.016,36.087,36.087,0,0,0,2.763,2.8A29.708,29.708,0,0,0,99.724,98.7a34.849,34.849,0,0,0,6.69,1.784,40.826,40.826,0,0,0,6.513.541c.063,0,.125.059.188.09-.059.035-.115.092-.177.1a42.277,42.277,0,0,1-5.452.309,38.438,38.438,0,0,1-4.839-.351,33.87,33.87,0,0,1-6.521-1.547,29.778,29.778,0,0,1-7.188-3.616c-.244-.168-.491-.333-.788-.535v5.478h-.374q-9.436,0-18.874.006c-.216,0-.263-.067-.263-.271q.008-22.284.005-44.568v-.553c.11-.006.2-.016.3-.016,4.45,0,8.9-.029,13.349.01a23.934,23.934,0,0,1,8.38,1.568,38.289,38.289,0,0,1,7.483,3.819,16.83,16.83,0,0,1,3.913,3.4c.105.13.2.267.3.4l-.783.309.051.106Zm24.051,26.09-.054-.081-.94.527.036.064Zm-15.7-27.836-.689.067.01.1C110.273,63.262,110.49,63.135,110.71,62.991Zm-9.651,2.418-.034-.08-.512.255.04.081Z"/><path class="cls-1" d="M70.373,112.292v3.931H68.392v-8.8c.068-.006.127-.014.187-.014,1.153,0,2.307-.011,3.461,0a2,2,0,0,1,1.808.787,1.378,1.378,0,0,1,.261.567,6.11,6.11,0,0,1,.035,1.39,1.545,1.545,0,0,1-1.38,1.326l-.324.066c1.373.559,1.727,1.728,1.892,3,.07.547.08,1.1.119,1.672H72.463c-.025-.452-.024-.9-.083-1.342a8.645,8.645,0,0,0-.3-1.546C71.79,112.451,71.347,112.2,70.373,112.292Zm.018-3.627v2.36c.393-.036.768-.049,1.135-.11a.8.8,0,0,0,.679-.769,2.507,2.507,0,0,0,0-.63.818.818,0,0,0-.773-.8C71.092,108.669,70.749,108.681,70.391,108.665Z"/><path class="cls-1" d="M150.921,107.2c.341,0,.658-.009.973.007a.372.372,0,0,1,.226.144q1.843,2.278,3.679,4.564l.426.527v-5.229h1.422v8.906c-.259,0-.513.015-.764-.009-.084-.008-.173-.106-.234-.183q-2.059-2.578-4.112-5.161c-.037-.047-.077-.09-.157-.182V116.1h-1.459Z"/><path class="cls-1" d="M142.529,111.716a5.694,5.694,0,0,1,.5-2.749,3.3,3.3,0,0,1,3.316-1.9,3.2,3.2,0,0,1,3.2,2.5,7.323,7.323,0,0,1,.018,4.222,3.335,3.335,0,0,1-3.458,2.467,3.479,3.479,0,0,1-3.516-3.23c-.026-.219-.051-.438-.062-.657S142.529,111.936,142.529,111.716Zm5.333.026c-.089-.81-.131-1.533-.255-2.24a1.212,1.212,0,0,0-1.359-1.155,1.281,1.281,0,0,0-1.506,1.083,7.832,7.832,0,0,0-.163,1.2,13.3,13.3,0,0,0,.128,3.238,1.141,1.141,0,0,0,.622.952,1.49,1.49,0,0,0,2.211-.922A19.73,19.73,0,0,0,147.862,111.742Z"/><path class="cls-1" d="M82.546,107.409c.325,0,.633-.013.939.009a.448.448,0,0,1,.263.175q1.587,1.961,3.165,3.928c.275.341.551.681.872,1.077v-5.177H89.2v8.817c-.247,0-.5.014-.752-.009a.424.424,0,0,1-.239-.171q-2.081-2.6-4.152-5.2l-.093-.105v5.471H82.546Z"/><path class="cls-1" d="M99.527,116.107v-8.886h5.4v1.3h-3.373V110.9h2.629v1.36h-2.626v2.5h3.627v1.349Z"/><path class="cls-1" d="M115.084,108.524v2.37h2.631v1.367h-2.63v2.493H118.7v1.355h-5.632v-8.9h5.4v1.311Z"/><path class="cls-1" d="M131.024,114.374a13.169,13.169,0,0,0,1.663.4,8.876,8.876,0,0,0,1.732-.023.819.819,0,0,0,.766-.726.99.99,0,0,0-.434-1.129c-.4-.234-.837-.406-1.249-.621a11.365,11.365,0,0,1-1.215-.683,2.439,2.439,0,0,1,.555-4.18,5.22,5.22,0,0,1,2.7-.287c.373.04.74.148,1.111.217.161.029.213.11.209.272-.011.377,0,.754,0,1.146-.5-.09-.983-.208-1.468-.251a5.6,5.6,0,0,0-1.287.028.847.847,0,0,0-.708,1.292,1.008,1.008,0,0,0,.42.377c.469.22.953.407,1.434.6a3.438,3.438,0,0,1,1.554,1.051,2.622,2.622,0,0,1-1.447,4.173,7.616,7.616,0,0,1-4.142-.13.291.291,0,0,1-.179-.2C131.016,115.249,131.024,114.8,131.024,114.374Z"/><path class="cls-1" d="M123.023,113.312c.142-.447.262-.819.377-1.192.478-1.545.959-3.089,1.427-4.636a.339.339,0,0,1,.4-.293c.439.022.879.007,1.355.007-.182.543-.355,1.064-.531,1.584-.8,2.347-1.6,4.692-2.384,7.042-.077.232-.174.321-.423.305a10.761,10.761,0,0,0-1.136,0c-.185.008-.258-.059-.313-.229q-.908-2.784-1.828-5.562-.469-1.428-.938-2.856c-.027-.082-.049-.165-.079-.268h2.174Z"/><path class="cls-1" d="M81.318,108.912a14.012,14.012,0,0,0-1.574-.232,1.957,1.957,0,0,0-2.112,1.408,5.331,5.331,0,0,0,0,3.65,1.814,1.814,0,0,0,2.031,1.252c.545-.056,1.083-.186,1.652-.288,0,.373.005.79-.007,1.208a.238.238,0,0,1-.14.163,4.707,4.707,0,0,1-4.694-.719,3.68,3.68,0,0,1-1.093-2.175,7.122,7.122,0,0,1,.12-3.088,3.84,3.84,0,0,1,3.971-2.793c.541.035,1.078.132,1.617.2.179.024.238.13.231.313C81.308,108.2,81.318,108.583,81.318,108.912Z"/><path class="cls-1" d="M94.659,108.536H92.7v-1.32h5.888v1.3h-1.9V116.1H94.659Z"/><path class="cls-1" d="M108.438,114.776h3.273V116.1h-5.289V107.21h2.016Z"/><path class="cls-1" d="M129.647,116.1h-1.995v-8.884h1.995Z"/><path class="cls-1" d="M138.907,107.21h1.986v8.9h-1.986Z"/></g><rect class="cls-2" width="225.833" height="169"/></g></g></g></svg>