<svg xmlns="http://www.w3.org/2000/svg" width="225.833" height="169" viewBox="0 0 225.833 169"><defs><style>.cls-1{fill:#fff;}.cls-2{fill:none;}</style></defs><title>CANAL ONCE</title><g id="Layer_2" data-name="Layer 2"><g id="NOSOTROS"><g id="CANAL_ONCE" data-name="CANAL ONCE"><g id="ONCE"><path class="cls-1" d="M114.963,42.443c.428.05.856.109,1.285.15a25.9,25.9,0,0,1,11.758,4.028,26.915,26.915,0,0,1,12.431,25.506A26.955,26.955,0,1,1,104.574,44.01a27.313,27.313,0,0,1,7.294-1.495,3.858,3.858,0,0,0,.407-.072ZM126.451,69.42a12.832,12.832,0,1,0-12.845,12.814A12.848,12.848,0,0,0,126.451,69.42Z"/><path class="cls-1" d="M95.6,114.325a6.94,6.94,0,0,1,2.966.586,6.162,6.162,0,0,1,3.86,5.547,6.259,6.259,0,0,1-2.49,5.669,6.689,6.689,0,0,1-3.106,1.293,7.57,7.57,0,0,1-3.766-.337,6.585,6.585,0,0,1-.537-12.12A7.061,7.061,0,0,1,95.6,114.325Zm-3.671,6.559A3.657,3.657,0,0,0,96.8,124.5a3.6,3.6,0,0,0,2.492-3.345,3.677,3.677,0,0,0-4.586-3.9A3.624,3.624,0,0,0,91.928,120.884Z"/><path class="cls-1" d="M114.565,127.11c-.146.016-.24.033-.335.034-.643,0-1.287.007-1.931,0-.611-.007-.858-.26-.859-.878,0-1.861.011-3.723-.009-5.584a16.976,16.976,0,0,0-.162-1.708,1.822,1.822,0,0,0-.113-.4,2.012,2.012,0,0,0-2.167-1.429,2.771,2.771,0,0,0-2.759,2.68c-.022.251-.023.5-.023.755q0,3.023,0,6.046v.476a3.013,3.013,0,0,1-.361.045c-.714,0-1.428.006-2.141,0-.465,0-.557-.1-.558-.579q0-5.772,0-11.545c0-.4.03-.42.438-.422q.945,0,1.889,0c.446,0,.548.1.556.537.007.392,0,.784,0,1.176,0,.065.015.131.032.275.077-.109.117-.158.147-.211a3.967,3.967,0,0,1,3.2-2.019,5.63,5.63,0,0,1,1.879.1,3.891,3.891,0,0,1,2.984,2.772,6.822,6.822,0,0,1,.287,2.154q-.006,3.632,0,7.263Z"/><path class="cls-1" d="M128.636,121.45a2.382,2.382,0,0,0,.04.4,3.99,3.99,0,0,0,3.1,3.033,4.244,4.244,0,0,0,3.2-.676c.572-.357.8-.349,1.271.147.354.373.707.748,1.067,1.13a1.409,1.409,0,0,1-.128.156,7.042,7.042,0,0,1-7.6,1.223,6.442,6.442,0,0,1-3.746-6.393,6.55,6.55,0,0,1,1.965-4.42,5.931,5.931,0,0,1,5.082-1.659,6.784,6.784,0,0,1,1.188.25,5.074,5.074,0,0,1,3.316,3.152,7.978,7.978,0,0,1,.547,2.785c.016.608-.216.845-.825.846q-3.946,0-7.894,0C129.045,121.423,128.867,121.439,128.636,121.45Zm6.586-2.164a2.723,2.723,0,0,0-1.492-2.241,3.483,3.483,0,0,0-3.078,0,2.731,2.731,0,0,0-1.506,2.246Z"/><path class="cls-1" d="M107.881,105.788a2.247,2.247,0,0,0-2.146-2.529,2.547,2.547,0,0,0-1.617.324c-.419.25-.825.527-1.22.814-.567.411-.75.4-1.26-.1-.288-.284-.583-.56-.892-.856a2.539,2.539,0,0,1,.218-.252,6.955,6.955,0,0,1,6.474-1.672,3.616,3.616,0,0,1,2.9,3.428c.046.473.069.949.071,1.425.008,1.875,0,3.751,0,5.627,0,.112,0,.224,0,.336a.336.336,0,0,1-.329.367c-.71.013-1.421,0-2.165,0v-1.439a1.139,1.139,0,0,0-.195.152,3.718,3.718,0,0,1-2.557,1.535,5.306,5.306,0,0,1-3.159-.4,2.99,2.99,0,0,1-1.781-2.1,3.264,3.264,0,0,1,1.577-3.7,6.7,6.7,0,0,1,2.715-.81c.96-.09,1.926-.111,2.89-.16C107.556,105.782,107.707,105.788,107.881,105.788Zm-.016,2.006a.9.9,0,0,0-.2-.057c-.906.051-1.815.077-2.717.17a2.937,2.937,0,0,0-1.513.569,1.258,1.258,0,0,0,0,2.049,2.337,2.337,0,0,0,.79.366,3.471,3.471,0,0,0,2.218-.176,2.041,2.041,0,0,0,1.294-1.539A12.787,12.787,0,0,0,107.865,107.794Z"/><path class="cls-1" d="M130.348,112.656v-1.415c-.1.112-.139.147-.169.188a3.7,3.7,0,0,1-2.556,1.527,5.28,5.28,0,0,1-3.156-.4,2.992,2.992,0,0,1-1.825-2.348,3.221,3.221,0,0,1,1.555-3.4,6.525,6.525,0,0,1,2.785-.852c.959-.092,1.925-.112,2.888-.161.149-.007.3,0,.472,0a2.065,2.065,0,0,0-.965-2.12,2.584,2.584,0,0,0-2.564-.188,12.872,12.872,0,0,0-1.349.839c-.118.075-.219.175-.337.25a.589.589,0,0,1-.774-.042c-.375-.353-.725-.732-1.1-1.116a1,1,0,0,1,.122-.166,6.931,6.931,0,0,1,6.611-1.7,3.525,3.525,0,0,1,2.777,3.11,7.774,7.774,0,0,1,.1,1.21c.01,2.1.007,4.2.007,6.3,0,.479-.077.554-.564.557-.588,0-1.175,0-1.763,0A1.2,1.2,0,0,1,130.348,112.656Zm-.059-4.924a12.365,12.365,0,0,0-3.385.3,3.263,3.263,0,0,0-1.016.472,1.233,1.233,0,0,0-.007,2.013,2.265,2.265,0,0,0,.786.375,3.5,3.5,0,0,0,2.258-.181,2.048,2.048,0,0,0,1.1-1.04A3.788,3.788,0,0,0,130.289,107.732Z"/><path class="cls-1" d="M126.62,125.466a6.62,6.62,0,0,1-11.4-4.688,6.62,6.62,0,0,1,11.317-4.5c-.326.556-.649,1.128-.994,1.685a.637.637,0,0,1-.881.226c-.086-.044-.16-.113-.246-.159-.395-.209-.781-.437-1.189-.617a3.517,3.517,0,0,0-4.812,2.847,3.92,3.92,0,0,0,.745,3.053,3.452,3.452,0,0,0,3.947,1.139,10.466,10.466,0,0,0,1.4-.743c.532-.33.864-.286,1.186.236C126,124.445,126.305,124.948,126.62,125.466Z"/><path class="cls-1" d="M121.931,112.682c-.129.014-.224.033-.32.033-.545,0-1.091.007-1.637,0-.593-.006-.811-.225-.812-.814,0-1.651.012-3.3-.009-4.953a13.588,13.588,0,0,0-.159-1.581,1.9,1.9,0,0,0-.156-.477,1.675,1.675,0,0,0-1.542-1.111,2.536,2.536,0,0,0-2.836,2.262,5.577,5.577,0,0,0-.054.837c-.005,1.777,0,3.554,0,5.331v.46a2.078,2.078,0,0,1-.289.045c-.644,0-1.287.008-1.931,0-.408-.005-.5-.092-.5-.5q0-5.184,0-10.368a2.892,2.892,0,0,1,.03-.3.54.54,0,0,1,.162-.058c.657-.006,1.315-.013,1.972,0,.3,0,.392.1.4.417.012.418,0,.836,0,1.325.088-.077.134-.1.156-.138a3.728,3.728,0,0,1,3.249-1.833,5.288,5.288,0,0,1,1.292.1,3.546,3.546,0,0,1,2.886,3.056,5.983,5.983,0,0,1,.1,1.042c.01,2.309.007,4.617.007,6.926C121.95,112.472,121.94,112.555,121.931,112.682Z"/><path class="cls-1" d="M99.786,103.012c-.444.486-.866.969-1.313,1.428-.222.228-.482.206-.812.039-.4-.2-.8-.407-1.212-.567a3.367,3.367,0,1,0-1.6,6.533,3.942,3.942,0,0,0,2.933-.752c.1-.072.2-.158.3-.223a.638.638,0,0,1,1.015.386c.157.535.3,1.073.453,1.61a.629.629,0,0,1-.082.1,6.492,6.492,0,0,1-8.532-.27,6.007,6.007,0,0,1-.2-8.176,6.186,6.186,0,0,1,3.832-1.9,6.478,6.478,0,0,1,5.013,1.58A2.215,2.215,0,0,1,99.786,103.012Z"/><path class="cls-1" d="M134.142,96.375h2.582v.507q0,6.778,0,13.558a3.481,3.481,0,0,0,.06.707,1.826,1.826,0,0,0,.99,1.284l.412.22c-.485.625-1.065,1.1-1.592,1.663-.151-.068-.294-.119-.424-.193a3.817,3.817,0,0,1-2.025-3.313c-.014-.266-.006-.532-.006-.8V96.375Z"/></g><rect class="cls-2" width="225.833" height="169"/></g></g></g></svg>