<svg xmlns="http://www.w3.org/2000/svg" width="225.833" height="169" viewBox="0 0 225.833 169"><defs><style>.cls-1{fill:#fff;}.cls-2{fill:none;}</style></defs><title>NETFLIX</title><g id="Layer_2" data-name="Layer 2"><g id="NOSOTROS"><g id="NETFLIX"><g id="NETFLIX-2" data-name="NETFLIX"><path class="cls-1" d="M143.957,96.732q2.377.183,4.75.393V69.234h-4.75ZM67.538,86.384l-6.187-17.15H56.836V99.54q2.37-.338,4.75-.647V82.412l5.5,15.8q2.595-.3,5.2-.569V69.234h-4.75Zm9.318,10.821q6.569-.6,13.2-.98V91.543q-4.235.246-8.445.578V85.034c1.842-.018,4.266-.074,6.415-.048V80.305c-1.716,0-4.475.024-6.415.049v-6.4h8.445V69.234h-13.2ZM93.1,73.957h4.972V95.844q2.372-.088,4.75-.15V73.957h4.972V69.234H93.1Zm17.739,21.609h4.751V84.758h6.439v-4.68h-6.439V73.957h8.51V69.234H110.836Zm58.808-26.332h-5.217l-3.44,7.973L157.9,69.234h-5.139L158.28,83.48l-6.03,13.976q2.5.243,4.993.519l3.507-8.126,3.473,8.958q2.714.35,5.414.732l.007,0-6.188-15.96Zm-37.751,0h-4.75V95.8q6.476.224,12.9.652V91.77q-4.062-.271-8.147-.461Z"/></g><rect class="cls-2" width="225.833" height="169"/></g></g></g></svg>