<svg xmlns="http://www.w3.org/2000/svg" width="225.833" height="169" viewBox="0 0 225.833 169"><defs><style>.cls-1{fill:#fff;}.cls-2{fill:none;}</style></defs><title>TELEFE</title><g id="Layer_2" data-name="Layer 2"><g id="NOSOTROS"><g id="TELEFE"><g id="TELEFE-2" data-name="TELEFE"><path class="cls-1" d="M149.113,103.52a5.682,5.682,0,0,0-.155.846c-.013.333-.149.413-.465.411-3.235-.012-6.47-.01-9.7-.012h-.471c.248,2.718.815,4.425,3.558,5.085a6.172,6.172,0,0,0,4.224-.718c.189-.093.371-.2.6-.323l1.1,1.853c-.658.3-1.276.617-1.925.856a8.537,8.537,0,0,1-5.037.4,6.245,6.245,0,0,1-4.625-4.138,8.445,8.445,0,0,1,.94-7.967,6.475,6.475,0,0,1,6.07-2.769,6.577,6.577,0,0,1,3.151.99,5.726,5.726,0,0,1,2.655,4.4,2.123,2.123,0,0,0,.084.3Zm-2.522-.565c-.018-2.252-1.789-3.79-4.284-3.758-1.9.024-4,2-3.958,3.758Z"/><path class="cls-1" d="M99.856,104.765H89.225c-.077,3.421,1.849,5.421,5.137,5.169a6.6,6.6,0,0,0,3.142-1.168c.275.47.543.91.791,1.361a.489.489,0,0,1-.235.77,8.373,8.373,0,0,1-7.633.576,6.332,6.332,0,0,1-3.7-4.73,8.059,8.059,0,0,1,2.044-7.834,6.86,6.86,0,0,1,9.839.354,5.686,5.686,0,0,1,1.238,3.373C99.888,103.331,99.856,104.031,99.856,104.765Zm-2.383-1.81c-.458-2.578-1.712-3.831-4.176-3.759a4.044,4.044,0,0,0-4.071,3.759Z"/><path class="cls-1" d="M123.336,104.769H112.71c.033,3.633,2.119,5.636,5.7,5.085a6.4,6.4,0,0,0,1.365-.409c.439-.174.851-.417,1.3-.642l1.052,1.793a8.409,8.409,0,0,1-2.807,1.22,8.036,8.036,0,0,1-5.038-.185,6.606,6.606,0,0,1-4.132-5.51,8.977,8.977,0,0,1,.693-5.163,6.71,6.71,0,0,1,6.965-3.9,6.19,6.19,0,0,1,4.676,2.655,4.855,4.855,0,0,1,.853,2.648C123.356,103.143,123.336,103.924,123.336,104.769Zm-2.393-1.818a3.826,3.826,0,0,0-3.517-3.762,4.4,4.4,0,0,0-4.734,3.762Z"/><path class="cls-1" d="M132.922,97.318v2.054h-3v12.476h-2.5V99.4h-2.134c0-.669-.01-1.3.015-1.93,0-.064.206-.169.319-.173.581-.017,1.162-.008,1.75-.008.121-.725.208-1.421.357-2.1a4.927,4.927,0,0,1,1.614-2.847,4.829,4.829,0,0,1,3.817-.955c.535.056,1.065.167,1.645.26-.195.547-.36,1.045-.557,1.53-.032.081-.2.148-.3.151-.411.014-.822.008-1.233,0a2.624,2.624,0,0,0-2.69,2.315c-.071.43-.08.869-.131,1.3-.033.283.079.369.355.363.795-.016,1.591-.01,2.386-.011C132.721,97.292,132.812,97.308,132.922,97.318Z"/><path class="cls-1" d="M79.815,99.264c-.01.153-.025.268-.025.384.006,2.358,0,4.717.028,7.075a7.875,7.875,0,0,0,.172,1.457,2.073,2.073,0,0,0,2.16,1.781,15.009,15.009,0,0,0,1.92-.255c.129-.019.255-.061.416-.1.064.369.125.718.185,1.068s.117.7.183,1.095a13.85,13.85,0,0,1-4.207.24,4,4,0,0,1-3.272-3.626,31.67,31.67,0,0,1-.116-3.292c-.015-1.8-.006-3.6.012-5.406,0-.335-.1-.446-.426-.421a6.211,6.211,0,0,1-.993,0c-.1-.009-.274-.136-.277-.215-.024-.566-.013-1.134-.013-1.746H76.75c.509,0,.509,0,.51-.527,0-.755,0-1.511.011-2.266,0-.121.072-.311.162-.349.752-.316,1.516-.6,2.344-.926,0,.2,0,.338,0,.477-.007,1.06,0,2.121-.029,3.18-.007.31.081.417.4.41,1.047-.021,2.094-.014,3.141-.015.155,0,.309.013.485.021v1.961Z"/><path class="cls-1" d="M102.9,91.287h2.53V91.8q0,7.179,0,14.358c0,.477.032.954.068,1.429a2.2,2.2,0,0,0,1.718,2.159c.814.232.647.054.666.9.01.451,0,.9,0,1.352a.6.6,0,0,1-.042.123c-1.431-.141-2.867-.283-3.955-1.407a3.861,3.861,0,0,1-.905-2.568c-.056-.819-.074-1.642-.075-2.463q-.011-6.94,0-13.881Z"/><path class="cls-1" d="M161.662,73.255a15.631,15.631,0,0,1-15.812,15.67A16.005,16.005,0,0,1,130.1,73.239c-.032-6.822,5.365-15.715,15.826-15.669A15.379,15.379,0,0,1,161.662,73.255Z"/><path class="cls-1" d="M128.494,73.255a15.632,15.632,0,0,1-15.812,15.67A16.006,16.006,0,0,1,96.926,73.239c-.032-6.822,5.366-15.715,15.827-15.669A15.379,15.379,0,0,1,128.494,73.255Z"/><path class="cls-1" d="M79.682,88.817a15.816,15.816,0,0,1-11.894-5.094,15.6,15.6,0,0,1-3.807-8.117C62.857,69.192,66.947,60.961,74.152,58.5a16.823,16.823,0,0,1,7.673-.689,15.125,15.125,0,0,1,7.534,3.019,14.683,14.683,0,0,1,5.748,9.906,15.346,15.346,0,0,1-3.246,12.256,15.182,15.182,0,0,1-10.116,5.736,5.769,5.769,0,0,1-.591.087C80.664,88.825,80.173,88.817,79.682,88.817Z"/></g><rect class="cls-2" width="225.833" height="169"/></g></g></g></svg>