<svg xmlns="http://www.w3.org/2000/svg" width="225.833" height="169" viewBox="0 0 225.833 169"><defs><style>.cls-1{fill:#fff;}.cls-2{fill:none;}</style></defs><title>DISNEY</title><g id="Layer_2" data-name="Layer 2"><g id="NOSOTROS"><g id="DISNEY"><path id="DISNEY-2" data-name="DISNEY" class="cls-1" d="M102.568,72.351s.458-.687.841-1.206a21.587,21.587,0,0,1,2.912-3.079c.291-.246.634-.529.634-.529s-.536.055-.841.116a6.422,6.422,0,0,0-2.309,1.3c-.873.744-1.833,1.96-1.4,3.039.063.151.161.357.161.357m4.85,1.3a9.159,9.159,0,0,0,3.873-1.162c1.179-.656,2.912-1.941,2.734-3.455A1.278,1.278,0,0,0,113.244,68a1.778,1.778,0,0,0-1.471.006,4.43,4.43,0,0,0-1.167.5,17.731,17.731,0,0,0-4.312,3.808c-.242.315-.484.672-.675.914-.121.148-.213.283-.2.322a6.148,6.148,0,0,0,2,.1m-3.51,2.365a6.026,6.026,0,0,0-.447.762,1.508,1.508,0,0,1-.341.387.712.712,0,0,1-1.009-.026,2.408,2.408,0,0,1-.788-1.711,5.348,5.348,0,0,0-.013-.818,5.433,5.433,0,0,0-.707-1.176,4.567,4.567,0,0,1-.487-1.722,5.7,5.7,0,0,1,1.837-4.131,12.2,12.2,0,0,1,4.085-2.742,8.13,8.13,0,0,1,5.244-.478,4.071,4.071,0,0,1,1.628,1.078,1.054,1.054,0,0,0,.223.253,1.665,1.665,0,0,0,.409.089,4.12,4.12,0,0,1,1.563.73,2.911,2.911,0,0,1,1.094,1.722,4.7,4.7,0,0,1-1.494,3.988,14.933,14.933,0,0,1-5.385,3.632,8.705,8.705,0,0,1-3.416.594c-.327-.028-.663-.112-.98-.135a4.25,4.25,0,0,1-.818-.205c-.078-.056-.178-.113-.2-.091m1.883,3.464a1.881,1.881,0,0,1,.247.072,2.18,2.18,0,0,1,1.226,1.717,51.489,51.489,0,0,1,.672,7.113c.051,1.131.08,2.251.128,3.37a13.529,13.529,0,0,1-.082,3.1,1.479,1.479,0,0,1-.592.885,2.713,2.713,0,0,1-1.589.148c-1.082-.225-1.434-.918-1.587-1.987a53.438,53.438,0,0,1,.025-9.681,21.1,21.1,0,0,1,.7-3.871c.125-.318.389-.952.852-.865M72.454,83.311s-1.6.114-2.7.236a29.638,29.638,0,0,0-5.558,1.15c-.456.163-1.382.551-1.463,1.019a1.572,1.572,0,0,0,.552,1.26c.2.227,1.293,1.284,1.6,1.543a27.682,27.682,0,0,0,5.838,3.545c.661.276,1.756.669,1.756.669s-.081-3.123-.067-6.2c.01-1.619.043-3.226.043-3.226m29.362,1.24a13.428,13.428,0,0,1-.161,2.636,12.533,12.533,0,0,1-.492,1.726,19.671,19.671,0,0,1-.888,1.78,14.7,14.7,0,0,1-2.516,3.083c-2.756,2.387-7.02,3.743-10.682,4.187a27.24,27.24,0,0,1-7.972-.232c-.905-.165-2.251-.475-2.251-.475s0,.541-.041.919a3.814,3.814,0,0,1-.224.776,1.232,1.232,0,0,1-.96.688,2.9,2.9,0,0,1-1.648-.08A2.371,2.371,0,0,1,72.7,97.523c-.119-.726-.241-1.982-.241-1.982s-.626-.3-1.147-.554a29.71,29.71,0,0,1-4.458-2.732c-.369-.273-1.954-1.6-2.3-1.936a12.928,12.928,0,0,1-2.535-3.045,2.915,2.915,0,0,1-.276-2.736c.55-1.37,2.515-2.4,3.861-2.994a32.169,32.169,0,0,1,5.336-1.624,16.149,16.149,0,0,0,1.595-.293.262.262,0,0,0,.056-.054c.031-.038.081-1.4.07-1.894s.361-3.7.482-4.376a7.991,7.991,0,0,1,.626-2.15.565.565,0,0,1,.781-.064c1.462.908,1.908,4.067,2.016,5.674.064.976.1,2.451.1,2.451s1.679-.051,2.712-.024a24.894,24.894,0,0,1,3.152.352,22.039,22.039,0,0,1,5.424,1.536,5.516,5.516,0,0,1,2.749,2.78,2.834,2.834,0,0,1-.233,2.642,3.7,3.7,0,0,1-2.848,1.87,4.675,4.675,0,0,1-2-.453.347.347,0,0,1-.035-.485,10.588,10.588,0,0,1,.988-.555,2.14,2.14,0,0,0,.458-.324c.293-.259.555-.539.526-.871-.042-.431-.5-.7-.93-.868a33.988,33.988,0,0,0-8.065-1.595c-.77-.046-1.862-.081-1.862-.081l.229,10.843s.9.174,1.618.29c.408.062,2.141.216,2.6.229,3.505.092,7.417-.219,10.633-1.74a11.057,11.057,0,0,0,3.689-2.612,7.586,7.586,0,0,0,1.792-5.631c-.2-2.313-1.826-5.058-3.125-6.733C90.7,73.364,84.8,69.73,79.621,67.6a46.227,46.227,0,0,0-16.132-3.632,26.768,26.768,0,0,0-6.2.458c-.228.064-.458.144-.669.192a1.688,1.688,0,0,0-.5.208c-.041.035-.08.074-.08.074s.1.054.191.1c.17.071.882.118,1.251.183a1.193,1.193,0,0,1,.8.48.473.473,0,0,1-.007.6c-.363.441-1.723.367-2.321.27-.623-.1-1.4-.289-1.542-.832a2.537,2.537,0,0,1,.466-1.841,4.443,4.443,0,0,1,2.984-2.139,30.49,30.49,0,0,1,6.289-.984,36.6,36.6,0,0,1,12.218,1.806,58.277,58.277,0,0,1,7.6,2.953A59.571,59.571,0,0,1,89.5,68.609c.448.294,3.06,2.214,3.463,2.549.847.695,1.953,1.688,2.755,2.482a25.741,25.741,0,0,1,4.417,5.759c.225.447.4.888.69,1.41a12.441,12.441,0,0,1,.6,1.545c.071.306.175.75.188.77A11.067,11.067,0,0,1,101.816,84.551Zm18.059.789c.08.009.1.013.172.024a13.366,13.366,0,0,1,3.5.837,3.6,3.6,0,0,1,1.894,1.78,5.062,5.062,0,0,1-2.433,7.1,9.434,9.434,0,0,1-3.179.859,11.3,11.3,0,0,1-6.012-1.073,7.24,7.24,0,0,1-3.048-2.589,2.578,2.578,0,0,1,.121-2.773c.944-1.293,2.964-1.576,4.485-1.522a18.386,18.386,0,0,1,4.353.794,8.291,8.291,0,0,1,1.629.749.545.545,0,0,1,.167.534c-.253.771-2.124,1.177-2.663,1.257-1.449.22-2.2-.327-3.843-.975a5.57,5.57,0,0,0-1.37-.376c-.745-.071-1.645.137-1.789.952-.072.421.422.811.8.978a6.025,6.025,0,0,0,2.469.528,12.919,12.919,0,0,0,7.542-1.868,1.165,1.165,0,0,0,.572-.88c0-.054-.067-.458-.2-.5-.019-.007-.037,0-.058,0-.046-.01-.124-.144-.195-.229a3.335,3.335,0,0,0-.875-.5,21.853,21.853,0,0,0-5.373-.988c-1.412-.121-3.632-.307-4.165-.382a6.523,6.523,0,0,1-1.622-.4,2.027,2.027,0,0,1-1.083-1.232,3.83,3.83,0,0,1,.6-2.915c1.4-2.016,4.682-2.783,7.136-3.086,2.375-.293,6.215-.29,8.545.949.359.189.545.371.467.754a1.87,1.87,0,0,1-1.351,1.4,15.128,15.128,0,0,1-2.747.339c-2.811.161-6.211.078-8.887.808a1.92,1.92,0,0,0-.689.288c-.419.456.777.586,1.035.641a1.382,1.382,0,0,0,.169.027l5.918.7m8.773,10.516c-1.137-.413-1.391-2.248-1.443-3.173a28.92,28.92,0,0,1,1.628-10.047c.289-.81.71-2.123,1.61-2.049a2.062,2.062,0,0,1,1.409,1.022c.892,1.254,2.06,2.959,2.836,4.139.87,1.329,1.7,2.663,2.519,3.875a1.779,1.779,0,0,0,.306.377c.145.121.283.126.34.017.029-.048-.023-1.569-.064-1.878-.061-.482-.092-.878-.144-1.3a37.4,37.4,0,0,0-.845-4.1c-.337-1.3-.75-2.653-1.055-3.91a5.208,5.208,0,0,1-.184-1.208.642.642,0,0,1,.949-.663c1.151.407,2.682,2.911,3.13,3.782.148.293.75,1.788.889,2.208a18.405,18.405,0,0,1,.9,4.359,12.179,12.179,0,0,1-.622,5.237,5.614,5.614,0,0,1-1.124,1.667,2.6,2.6,0,0,1-2.76.551c-.949-.54-2.509-3.241-2.775-3.706-.907-1.582-2.462-4.673-2.7-5.018a.451.451,0,0,0-.243-.189c-.091-.026-.13.163-.152.29-.154.9-.263,5.112-.265,5.227a21.678,21.678,0,0,1-.266,3.3c-.134.56-.266,1.019-.782,1.255a1.281,1.281,0,0,1-1.086-.071m15.651-.267a4.869,4.869,0,0,1-.469-.456,9.466,9.466,0,0,1-.511-.827c-.071-.16-.124-.279-.175-.412a5.088,5.088,0,0,1-.158-2.936,12.981,12.981,0,0,1,.866-2.324.9.9,0,0,0,.059-.216c.021-.179-.276-1.4-.289-1.789-.02-.6.441-1.019,1.216-1.1a1.264,1.264,0,0,0,.176-.017c.311-.077.506-.669.676-1.147.234-.666.6-1.685.6-1.685s-.981-.226-1.5-.422a2.161,2.161,0,0,1-1.295-1.043c-.314-.63-.106-.98.548-1.185.241-.076,2.147-.441,2.746-.527.75-.107,1.454-.2,2.167-.291.623-.077,3.465-.4,4.372-.38a3.571,3.571,0,0,1,3.083,1.773c.434.626.73,1.37.076,1.771-1.008.612-4.264.654-4.864.661-.95.012-2.266,0-2.266,0l-.663,2.215s2.336-.02,3.646-.027a4.5,4.5,0,0,1,.817.053c.671.152.9.663.93,1.406.035.868-.128,1.27-.819,1.382-.357.06-4.369.08-4.914.144-.338.04-.7.094-.7.094s-.289.754-.539,1.518c-.259.8-.474,1.606-.474,1.606s.2.009.372.009a4.666,4.666,0,0,0,.793-.077c1.225-.222,3.042-.493,4.535-.73.8-.125,1.206-.185,1.627.35a2.305,2.305,0,0,1,.582,1.43c.022.535-.383.892-.885,1.272a14.763,14.763,0,0,1-6.283,2.74,4,4,0,0,1-1.966-.212,3.533,3.533,0,0,1-.713-.33S144.4,95.667,144.3,95.589Zm25.355-11.146a21.6,21.6,0,0,0-3.008,3.548c-.848,1.215-1.651,2.608-2.417,3.688a9.88,9.88,0,0,0-.646,1.137,2.6,2.6,0,0,0,1.044-.046,8.73,8.73,0,0,0,3.362-1.578,7.107,7.107,0,0,0,2.44-3.848,4.1,4.1,0,0,0-.236-2.838.38.38,0,0,0-.539-.063m-8.211,12.678s-.328.963-.566,1.715c-.417,1.3-1.326,4.805-1.541,5.895-.317,1.615-1.219,5.846-1.269,5.94a.521.521,0,0,1-.259.256c-.37.222-.519.148-.971-.091a4.335,4.335,0,0,1-1.543-1.2c-.881-1.148-.67-3.306-.5-4.576a39.716,39.716,0,0,1,2.9-10.788.15.15,0,0,0,0-.158,8.848,8.848,0,0,1-.81-3.561c0-3.458,1.991-6.877,4.216-9.622.168-.212,1.262-1.52,1.76-1.494s.578.606.5,1.088c-.251,1.6-1.375,3.223-2.142,4.569a13.513,13.513,0,0,0-1.473,3.5,11.01,11.01,0,0,0-.23,1.355c.019.366.1.835.1.835s1.407-1.966,2.332-3.181c.509-.663.872-1.1,1.293-1.582s2.073-2.194,2.549-2.645a9.243,9.243,0,0,1,2.516-1.905,2.206,2.206,0,0,1,2.454,0c1.319.868,1.893,2.7,2.043,4.187a9.98,9.98,0,0,1-.973,5.3,10.987,10.987,0,0,1-3.928,4.264,10.449,10.449,0,0,1-5.865,1.919c-.274-.007-.6-.024-.6-.024"/><rect class="cls-2" width="225.833" height="169"/></g></g></g></svg>