<svg xmlns="http://www.w3.org/2000/svg" viewBox="0 0 328 213.78"><defs><style>.cls-1,.cls-2{fill:#fff;}.cls-2{fill-rule:evenodd;}</style></defs><title>dolores_logo</title><g id="Layer_2" data-name="Layer 2"><g id="PROYECTOS"><g id="DOLORES"><g id="DOLORES_LOGO" data-name="DOLORES LOGO"><path class="cls-1" d="M78,.32h3.8V8.59h5.78V.32h3.8V20.77h-3.8V11.86H81.84v8.91H78Z"/><path class="cls-1" d="M94.26.32h11.39V3.56H98.08V8.79h6.31V12H98.08v5.58h7.77v3.22H94.26Z"/><path class="cls-1" d="M114.4,13.14h-2.19v7.63h-3.83V.32h7c3.91,0,6.31,2.19,6.31,5.58V7.62a5.1,5.1,0,0,1-3.45,5.06l3.89,8.09h-4.3ZM112.18,10h3.24C117.05,10,118,8.76,118,7V6.4c0-1.81-.91-2.84-2.54-2.84h-3.24Z"/><path class="cls-1" d="M130.17.32h3.27l6.63,11.89V.32h3.77V20.77h-3.27L134,9V20.77h-3.8Z"/><path class="cls-1" d="M157.79,20.77l-1.2-4.27h-6.07l-1.2,4.27h-3.91L151.89.32h3.36l6.45,20.45Zm-6.42-7.28h4.38l-1.46-5.25a20.07,20.07,0,0,1-.73-3.6c-.06.35-.33,2.17-.71,3.6Z"/><path class="cls-1" d="M167,8.09V20.77h-3.8V.32h3.27l7.16,11.57L180.74.32H184V20.77h-3.77V7.94L175,16.41h-2.71Z"/><path class="cls-1" d="M186.59.32H198V3.56h-7.56V8.79h6.31V12h-6.31v5.58h7.77v3.22h-11.6Z"/><path class="cls-1" d="M230.44.32l-5.61,20.45H221L218.38,9.11a17,17,0,0,1-.53-3,22.94,22.94,0,0,1-.49,3L214.7,20.77h-3.8L205.27.32h3.94L212,12.82c.27,1.46.62,3.71.65,4.09.05-.44.38-2.63.7-4.06L215.93.32h3.88l2.6,12.5c.29,1.52.67,3.89.67,4.12.06-.23.38-2.6.7-4.09L226.56.32Z"/><path class="cls-1" d="M240.63,20.77l-1.2-4.27h-6.08l-1.19,4.27h-3.92L234.73.32h3.36l6.45,20.45Zm-6.43-7.28h4.38l-1.46-5.25a21.05,21.05,0,0,1-.73-3.6c-.06.35-.32,2.17-.7,3.6Z"/><path class="cls-1" d="M252.1,21.09A16,16,0,0,1,245.94,20V16.62a16.75,16.75,0,0,0,6,1.25c2,0,3.38-.93,3.38-2.74,0-2-.87-2.8-2.62-3-3.31-.38-6.52-1.52-6.52-6,0-3.82,2-6.1,6.34-6.1a15.09,15.09,0,0,1,5.84,1.11V4.26a15.58,15.58,0,0,0-5.58-1A2.45,2.45,0,0,0,250,5.78c0,2.11,1.43,2.66,3.18,2.89,3.33.38,6,1.67,6,6.17C259.2,19,256.57,21.09,252.1,21.09Z"/><path class="cls-2" d="M328,91.36c0-13.68-8.18-17.59-18.31-18.75-5.33-.71-9.68-2.39-9.68-8.79,0-4.62,2.84-7.82,8.44-7.82a47.29,47.29,0,0,1,17,3.2V49.6a45.91,45.91,0,0,0-17.77-3.38c-13.15,0-19.28,6.93-19.28,18.57,0,13.6,9.77,17.07,19.81,18.22,5.34.71,8,2.22,8,8.26,0,5.51-4.09,8.36-10.31,8.36-5.95,0-12.79-2.72-18.21-4.94v4.92H256.39v-17h19.2V73h-19.2V57.06h23V47.2H244.75V99.61H232.41l-7.12-14.82c6.58-2.49,10.49-7.82,10.49-15.37V64.17c0-10.3-7.29-17-19.2-17H195.17V99.61H184.73A19.57,19.57,0,0,0,186.17,92V64.53c0-12.44-9.33-18.31-21-18.31s-21.15,5.87-21.15,18.31V92a19.38,19.38,0,0,0,1.47,7.62H135.08V94.69c-5.4,2.13-12.16,4.7-18.17,4.92h-4.58V47.2H100.69V99.61H90.27A19.57,19.57,0,0,0,91.72,92V64.53c0-12.44-9.33-18.31-21-18.31S49.6,52.09,49.6,64.53V92a19.21,19.21,0,0,0,1.47,7.62H38.91a22.23,22.23,0,0,0,1.7-9V66c0-12.26-7.29-18.75-19.19-18.75H0v97.71H80.32c2,0,.72,1.58.54,1.8-4.46,5-5.84,6.14-6.25,6.34A45.06,45.06,0,0,1,64.06,157l-.16,0-.14.1-.95.66c-1.58.36-4.69,1.85-10.29,4.92s-8.31,5-9.27,6.29c-3.15,1.64-7.71,5.42-13.94,11.54-6.23,5.93-9.66,10.29-10.42,13.27a5.63,5.63,0,0,0-.53,2.52v1.07l.13.2a8,8,0,0,0,.79,1v.47l.13.2c1.07,1.64,2.3,2.44,3.75,2.44h.07a6.33,6.33,0,0,0,2-.49,6.31,6.31,0,0,1,.94-.29l1,.1.18,0,.18-.06a8.05,8.05,0,0,0,1.25-.7l1.08-.64,0,0,0,0a4.94,4.94,0,0,1,2.15-.76c1.13-.05,3.1-1,6.57-3.06,3.05-1.92,4.74-3.22,5.52-4.27,2.27-.52,4.76-2.16,7.61-5a16.86,16.86,0,0,0,5.22-3.8,37.35,37.35,0,0,1,4.49-4.19,51.08,51.08,0,0,0,9.34-8.71l8.31-9.53a6.49,6.49,0,0,1,3.3-1.9,16.44,16.44,0,0,0,4-1.16c8.9-.16,14.9-1.23,18.24-3.28.29.06.55.1.71.12.67.18.95.79,1.38,1.84a7.1,7.1,0,0,0,1.33,2.34c1,2.25,3.42,3.35,7.28,3.35h.35a28.72,28.72,0,0,0,13.34-3.15c3.76-1.84,8.36-4.32,11.06-6.59.6-.31,1.22-.65,1.87-1.07A33.49,33.49,0,0,1,145.2,149a16,16,0,0,1-1,2.33,12.16,12.16,0,0,0-1.5,4.89,4.65,4.65,0,0,0,.06.68,4.91,4.91,0,0,0-.06.74,4.76,4.76,0,0,0,.77,2.52l.15.24.26.1,1.85.71.26.1.26-.07a14.78,14.78,0,0,0,2.63-1.23,14.05,14.05,0,0,1,4-1.7h.18l.16-.09a43.53,43.53,0,0,1,6.67-3.14,5.28,5.28,0,0,0,1.3-.79c.24-.17.6-.43.89-.61.15.37.3.73.44,1.1.35.87.68,1.7,1.06,2.51.86,2.08,2.26,3.15,4.16,3.15h.08c3.34-.05,4.1-.07,4.39-.35l5.55-2.09a24.32,24.32,0,0,0,5.53-2.81l1.16-.23.15,0,.12-.08,3.89-2.41c.35-.25.66-.48,1-.71a18.54,18.54,0,0,0,3.31-1.72c1.44-.87,2.29-1.34,2.81-1.6H196a18.88,18.88,0,0,1-1,2.13,12.06,12.06,0,0,0-1.51,4.89,4.59,4.59,0,0,0,.07.67,5.1,5.1,0,0,0-.07.74,4.7,4.7,0,0,0,.77,2.52l.15.24.26.1,1.86.72.25.1.26-.07a15.18,15.18,0,0,0,2.63-1.23,14.17,14.17,0,0,1,4-1.7l.18,0,.16-.08a44.36,44.36,0,0,1,6.68-3.15,4.84,4.84,0,0,0,1.29-.78c.24-.17.6-.43.9-.62.15.37.29.74.44,1.1.33.84.67,1.7,1,2.51.86,2.08,2.27,3.15,4.17,3.15h.17c3.26,0,4-.06,4.29-.35l5.55-2.08a24.73,24.73,0,0,0,5.53-2.81l1.16-.23.15,0,.13-.08,3.89-2.42a9.44,9.44,0,0,0,2.78-2.59h0l0-.06a2.32,2.32,0,0,0,.26-.59,5.75,5.75,0,0,1,4.74-3.48H328V99.61h-1.42A22.37,22.37,0,0,0,328,91.36ZM25,194.64c.36-.67.66-1.22.83-1.62l10.33-11c3.82-2.78,7.38-5.58,10.29-8.09,7.91-6,14.39-9.95,19.23-11.64.78-.14,1.43-.24,2-.31q-1,1.16-1.8,2c-13,14.11-26.37,24.49-39.86,30.85l-1.19.11ZM206.72,57.06h9.86c5,0,7.73,3.11,7.73,8.62v2c0,5.24-2.75,8.88-7.73,8.88h-9.86Zm.09,29.15h6.66l6.11,13.4H206.81ZM155.61,66c0-7.55,4.35-10,9.59-10s9.51,2.4,9.51,10v24.7c0,7.56-4.35,10-9.51,10s-9.59-2.4-9.59-10ZM61.15,66c0-7.55,4.35-10,9.6-10s9.5,2.4,9.5,10v24.7c0,7.56-4.35,10-9.5,10s-9.6-2.4-9.6-10ZM11.64,57.06h9.78c5,0,7.81,2.85,7.81,10.31V89.23c0,7.19-2.64,10.16-7.27,10.38H11.64Z"/><path class="cls-2" d="M256.32,160.81a2.09,2.09,0,0,0-.37-.36,5.37,5.37,0,0,0-.84-.53,13.47,13.47,0,0,0-1.77-.73,34,34,0,0,0-3.61-1c-.71-.16-.68-.12-1.1-.21-1.75-.37-1.79-.35-3.47-.67a2.66,2.66,0,0,1-.36-.06l-2.2-.38,1.46.26-1.09-.2-.92-.16,2.19.42-1.09-.21.36.07c.82.16,2.24.45,3.63.77,1.59.37,3.22.77,4.66,1.21a16.45,16.45,0,0,1,3.32,1.36c.5.31,1,.68,1,1.18s-.52.9-1,1.17a14.81,14.81,0,0,1-3.52,1.07c-1.22.23-2.44.42-3.64.58-3.15.42-6.26.69-9.22.89s-5.93.31-8.7.47c-.21,0-.59,0-1,0l-1.24,0c-.32,0-.74,0-1,0-6.08.07-14.4.38-20.21.81-2,.13-3.95.41-5.92.49-3.95.16-8.88,0-12.07,0-.49,0-1.28-.1-1.68-.07,0,0-1.11,0-1.17,0a5,5,0,0,1-.55,0c-1.4,0-1.73,0-3.1,0-2.43-.08-4.61.18-7.12.28-1,0-2.14,0-3.07,0-1.1,0-2.3.08-3.58.14s-2.22.07-3.42.14c-.76.05-2.14.12-2.91.19-2.06.23-4.31.2-6.12.56-.71.12-1.63.24-2.32.35-1.27.19-2.46.29-3.78.47-2.87.37-6,.69-9.15.87-4.36.41-8.49.74-13,.93a28.64,28.64,0,0,0-3.47.44c-1.17.22-2.35.55-3.54.75-2.44.45-4.89,1-7.24,1.6l-6.65,1.57c-2.59.55-3.28.47-6,1-.66.13-3.67,1.25-4.33,1.4a51.79,51.79,0,0,0-7.6,2.93c-1.33.55-2.89,1.17-4.28,1.63-1.24.47-3.18,1.52-4.37,2.07-1.71.78-2.95,1.22-4.82,1.88a42.44,42.44,0,0,1-4.94,1.85c-1.54.36-4,1.21-6.15,1.74-2.21.83-3.7,1.8-6.31,2.51a31,31,0,0,0-5.63,2.37,21.67,21.67,0,0,0-4.37,3c-1,.85-2,1.16-2.7,2a20.94,20.94,0,0,0-2.92,2c-1.21.91-1.81,1.21-3.13,2.15a9.81,9.81,0,0,0-3.53,2.46A15.88,15.88,0,0,0,33.49,209c-.62,1.1-1.42,2.37-.32,3.55.56.78.35.36,1.19,1a7.2,7.2,0,0,0,2.32.26,3.35,3.35,0,0,0,2.11-.64c.93-1,4-4.34,4.93-4.71a30.82,30.82,0,0,0,3.55-3.07c1.32-1.22,2.1-1.7,2.95-2.54.53-.51,1.33-.92,1.94-1.46a24.93,24.93,0,0,1,6.4-3.14c.77-.16,1.42-.65,2.29-.88,3.55-1,6.43-3.34,10.09-4.57,1.24-.46,2.43-.75,3.68-1.19,1-.38,2.2-.94,3.43-1.34a32.25,32.25,0,0,0,4.78-1.86c3.52-2.07,8.19-3.1,11.32-4.81a26.62,26.62,0,0,1,4.58-2c3.06-1.06,4.54-1.25,6.74-1.91a43.28,43.28,0,0,1,5.64-.92c1.65-.17,9.19-2.17,11.66-2.64l3.53-.52a30.78,30.78,0,0,0,3.38-.46c.91-.14,7.28-.45,10-.64,2.87-.16,5.65-.78,8.39-1.14a67,67,0,0,0,9.86-1.86,62.28,62.28,0,0,1,6.58-1.07c2.05-.17,4.61-.08,6.81-.11,1.8,0,3.65-.31,5.54-.45,5.79-.31,12.06-.07,17.84-.28,1.14,0,1.94-.17,3-.17.46,0,1.34,0,1.8,0,1.42,0,2.89-.25,4.27-.23.84,0,3.36-.21,3.8-.23a83.83,83.83,0,0,0,8.83-.94c5.19-.47,10.09-.74,15-1,3.31-.19,7.31-.58,10-.81,1.37-.13,1.86-.26,2.77-.39.6-.08,1.18-.12,1.85-.22,1.28-.21,2.52-.47,3.85-.74a33,33,0,0,0,3.8-1,8.36,8.36,0,0,0,1.82-.79,2.54,2.54,0,0,0,.79-.68,1.35,1.35,0,0,0,.27-1.09A1.11,1.11,0,0,0,256.32,160.81Zm-11-3.45.73.13Z"/><rect class="cls-1" y="29.74" width="328" height="5.82"/><path d="M16.52,114.72H11.43v-3.45H25.69v3.45H20.6v18.53H16.52Z"/><path d="M131,114.72h-5.09v-3.45H140.2v3.45h-5.09v18.53H131Z"/><path d="M187.55,114.72h-5.09v-3.45h14.26v3.45h-5.09v18.53h-4.08Z"/><path d="M30.37,111.27h4.08v8.89h6.22v-8.89h4.08v22H40.67v-9.58H34.45v9.58H30.37Z"/><path d="M145.43,111.27h4.08v8.89h6.22v-8.89h4.08v22h-4.08v-9.58h-6.22v9.58h-4.08Z"/><path d="M51.37,111.27H63.62v3.49H55.49v5.62h6.78v3.42H55.49v6h8.35v3.45H51.37Z"/><path d="M211.29,111.27h4.11v22h-4.11Z"/><path d="M235.51,122.45v10.8h-4.12v-22h4.12v10.58l6.72-10.58h4.55l-7,10.71,7.38,11.27h-4.74Z"/><path d="M251.88,111.27h3.52l7.13,12.78V111.27h4.05v22h-3.52L256,120.6v12.65h-4.09Z"/><path d="M272.93,111.27h12.24v3.49H277v5.62h6.78v3.42H277v6h8.35v3.45H272.93Z"/><path d="M316.37,111.27l-6,22h-4.11l-2.83-12.53a18,18,0,0,1-.56-3.23,27.2,27.2,0,0,1-.54,3.23l-2.86,12.53h-4.08l-6.06-22h4.24l3,13.44c.29,1.57.66,4,.7,4.4.06-.47.4-2.83.75-4.37l2.79-13.47h4.18l2.8,13.44c.31,1.63.72,4.18.72,4.43.06-.25.41-2.8.75-4.4l3-13.47Z"/><path d="M177.74,133.25l-1.28-4.56H170l-1.28,4.56h-4.19l6.94-21.88H175l6.91,21.88Zm-6.87-7.78h4.69L174,119.84a22.67,22.67,0,0,1-.78-3.84c-.06.37-.34,2.31-.75,3.84Z"/><path d="M114.33,114.87c-1.68,2.47-1.29,2.84-2.41,4.65-.45.73-2.69,4.36-10.5,13.3S89.15,146.84,87.7,148s-2,1.87-1.92,2.48l.37.36h1a42.37,42.37,0,0,0,15.87-2.7,5,5,0,0,0,1.46-.88c.84-.62,1.84-1.24,5.29-5.13.63-.72,1.65.77-1.13,4.94a23.87,23.87,0,0,1-2.29,2.61c-2.77,2.49-9.24,3.82-19.15,4a14.33,14.33,0,0,1-3.9,1.17,7.24,7.24,0,0,0-3.76,2.14l-8.3,9.43a50,50,0,0,1-9.17,8.47A38.38,38.38,0,0,0,57.46,179a15.45,15.45,0,0,1-5.08,3.63Q48,187,44.74,187.56c-.6,1-2.41,2.37-5.44,4.25s-5.22,2.9-6.2,2.91a5.84,5.84,0,0,0-2.55.9c-1.1.63-1.82,1.13-2.19,1.26l-1.1-.11c-.61,0-2.07.77-2.93.78-1.22,0-2.21-.7-3.09-2v-.86c-.17-2.56,3.31-7.27,10.31-13.87,6.27-6.09,10.86-9.84,13.9-11.35.71-1.12,3.74-3.12,9.08-6.14s8.74-4.55,10.21-4.81l1.09-.76a45.91,45.91,0,0,0,10.71-4c1.58-.76,8.32-8.21,20.09-22.35s15.78-19.91,15.06-21.28c-.19-.37-1.24-.09-1.61-.08-1.34,0-4,3.06-6,2.6l-4.92,2.58c-3.51,2.14-5.55,4-6.86,5.85.14,1.22-1,3.44-3.45,6.66s-4.2,5.33-5.53,6.21l-3.39,2.25a14.47,14.47,0,0,1-5,3.85c-.77.34-1.09.07-2.37.5-1,.33-.9.43-1.64.44-1.83,0-2.83-.81-2.73-2.4l.71-1.36c1.55-3.08,6.37-7.57,14.23-13.69A124,124,0,0,1,100.23,112c3.28-1.65,3.51-1.28,7.51-3.55a31.78,31.78,0,0,0,3.53-1.4,11.39,11.39,0,0,1,3.41-1c1.71,0,2.59.94,2.61,2.77C117.31,109.92,116.37,112,114.33,114.87ZM72.42,157c-.86,0-2.19,1-2.56,1.14a21.29,21.29,0,0,0-3.42.42c-4.87,1.67-11.42,5.57-19.52,11.69-2.78,2.37-6.29,5.12-10.28,8l-10.48,11c-.35,1-2.38,4.08-2.36,5.18,0,0,.5,1.1,1.11,1s1.59-.14,2.94-.29Q48.27,185.68,68,164.43a64.08,64.08,0,0,0,5.77-7.19A6.37,6.37,0,0,0,72.42,157Z"/><path d="M142,146.87c-1.32,1.86-5.44,4.61-12.48,8a28.23,28.23,0,0,1-12.93,3c-3.79.06-6-.89-6.9-3-1.49-1.44-1.29-4-3.25-4.47a4.07,4.07,0,0,1-1.73-.47c-.14-1.1,2.79-2.12,3.14-2.74a31.66,31.66,0,0,1,3.19-7.88c2-2.61,5.69-3.89,10.83-4a16.16,16.16,0,0,1,8.84,2.07l.51.85.13.36a8.34,8.34,0,0,1-.46,2,44.24,44.24,0,0,1-6.82,2.8,27.28,27.28,0,0,0-7,3.17,6.69,6.69,0,0,0-3.21,5.8,3.37,3.37,0,0,0,.52,1.71,5.52,5.52,0,0,0,4.31,1.64c5.75-.09,12.19-3.25,19.56-9.36a20.29,20.29,0,0,0,2.67-1.14c.36-.87,1.69-1.5,4-1.78,0,.12-.86.26-.86.38Zm-21.69-9.21c-2.08,0-4,1.78-5.55,5.35,0,1.22.4,1.83,1,1.82a31.84,31.84,0,0,0,6.09-1.81,41.2,41.2,0,0,0,6.08-2.66C127.7,138.52,125.11,137.59,120.34,137.66Z"/><path d="M191.71,145.85c0,.85-1,1.85-2.76,3.1l-3.88,2.39-1.35.26a22.93,22.93,0,0,1-5.46,2.78l-5.84,2.17c.12.12-1.1.14-3.8.18-1.59,0-2.7-.81-3.46-2.63-.64-1.34-1.15-2.8-1.79-4.26h-.12c-.61,0-2.3,1.51-2.79,1.64a44.92,44.92,0,0,0-6.8,3.16c-2,.16-5.35,2.54-6.81,2.92l-1.85-.7a3.73,3.73,0,0,1-.64-2.07,11.15,11.15,0,0,1,1.4-4.43,10.09,10.09,0,0,0,1.52-4.55v-.25l-1-.23c-.37,0-1.58.64-3.89,2a13,13,0,0,1-5.1,2.16,2.83,2.83,0,0,1-.26-.85c0-.86.59-1.48,1.8-2.11a20.94,20.94,0,0,1,2.92-1.27c.48-.37,2.18-1.5,5.21-3.26a31.44,31.44,0,0,1,4.86-2.77c2.08,0,3.07.93,3.1,2.76s-2.48,6.17-2.45,8.12c0,1,.39,1.46,1.25,1.45,1.1,0,3.78-1.16,8-3.31s6.92-3.41,7.78-3.42a8.82,8.82,0,0,0,1.23.22,2.43,2.43,0,0,1,.13,1c0,1-.55,3.31-.54,4.29,0,1.59.89,2.31,2.61,2.29s4.75-1.06,9-3l7-3.54,2.92-1.27Z"/><path d="M242.5,145.05c0,.86-.95,1.85-2.77,3.1l-3.88,2.39-1.34.27a23.2,23.2,0,0,1-5.47,2.78l-5.84,2.17c.13.12-1.1.14-3.79.18-1.59,0-2.7-.82-3.47-2.64-.63-1.34-1.14-2.8-1.78-4.26H214c-.61,0-2.3,1.5-2.79,1.63a45.67,45.67,0,0,0-6.81,3.17c-1.95.15-5.34,2.53-6.81,2.92l-1.84-.71a3.79,3.79,0,0,1-.65-2.07,11.37,11.37,0,0,1,1.4-4.43,9.93,9.93,0,0,0,1.52-4.55v-.24l-1-.23c-.37,0-1.59.63-3.89,2a13,13,0,0,1-5.11,2.16,3.29,3.29,0,0,1-.25-.85c0-.86.58-1.48,1.8-2.11a19,19,0,0,1,2.92-1.27,59.18,59.18,0,0,1,5.21-3.27,34.61,34.61,0,0,1,4.85-2.77c2.08,0,3.08.93,3.1,2.77s-2.47,6.16-2.44,8.12c0,1,.39,1.46,1.25,1.45,1.1,0,3.77-1.16,8-3.31s6.92-3.42,7.78-3.43a7.64,7.64,0,0,0,1.22.23,2.21,2.21,0,0,1,.14,1c0,1-.56,3.32-.54,4.3,0,1.59.89,2.31,2.6,2.28s4.76-1.05,9-3l7.05-3.53,2.92-1.27Z"/></g></g></g></g></svg>