<svg xmlns="http://www.w3.org/2000/svg" width="49.659" height="57.495" viewBox="0 0 49.659 57.495">
  <g id="LOGOTIPO" transform="translate(-1356.639 -2000.505)">
    <g id="BLOQUE_COLOR" data-name="BLOQUE COLOR">
      <g id="Group_158" data-name="Group 158">
        <path id="Path_576" data-name="Path 576" d="M1406.157,2020.518l-3.532-2.367.117-.374a.3.3,0,0,0,.013-.074,1.837,1.837,0,0,0-.039-.479,2.737,2.737,0,0,0-.15-.394,1.967,1.967,0,0,0-.446-.589l0-.07.019-6.493-3.544-1.613-3.241-4.264v2.788l-3.938.231-.074-.1v2.755l-2.03-1.16-1.867,1.382-.051,3.35-1.1-.429-2.007-.785.422-3.926-3.538-1.33-3.041-4.684v3.578l0,0-5.006.1L1373,2007l-.791-.854L1366,2011h0v2l-.8,5.407-3.158-4.733v3.177l-2.553-1.257-2.755,2h-.1l.1,18.723,24.88,21.682,24.679-17.652Zm-16.328,10.5c-.1.016-.213.013-.329.02a2.891,2.891,0,0,1-1.518-.613,8.432,8.432,0,0,1-1.666-1.456c-.513-.595-.616-1.037-.33-1.458a1.556,1.556,0,0,1,1.7-.55,5.552,5.552,0,0,1,2,1.258,4.9,4.9,0,0,1,.967.988A1.1,1.1,0,0,1,1389.829,2031.02Z" fill="#333"/>
        <path id="Path_577" data-name="Path 577" d="M1389.686,2028.221a5.552,5.552,0,0,0-2-1.258,1.556,1.556,0,0,0-1.7.55c-.286.421-.183.863.33,1.458a8.432,8.432,0,0,0,1.666,1.456,2.891,2.891,0,0,0,1.518.613c.116-.007.224,0,.329-.02a1.1,1.1,0,0,0,.824-1.811A4.9,4.9,0,0,0,1389.686,2028.221Z" fill="#333"/>
      </g>
    </g>
    <g id="Group_159" data-name="Group 159">
      <path id="Path_578" data-name="Path 578" d="M1385.293,2014.312l1.435,2.472,1.582-1.19Z" fill="none"/>
      <path id="Path_579" data-name="Path 579" d="M1386.729,2016.784l.87,1.5.073.125,2.635-1.965-2-.848Z" fill="#faf4f7"/>
      <path id="Path_580" data-name="Path 580" d="M1384.287,2011.836l-1.934,1.47,4.139,7.853,1.934-1.451-.829-1.427-1.106-1.32.236-.178-1.435-2.472,3.017,1.282.365.155,1.84.536-.21.157,1.68.714,1.992-1.528Z" fill="#faf4f7" opacity="0.61"/>
      <path id="Path_581" data-name="Path 581" d="M1386.492,2016.962l1.106,1.32-.87-1.5Z" fill="#faf4f7"/>
      <path id="Path_582" data-name="Path 582" d="M1386.729,2016.784l.942,1.623-.942-1.623Z" fill="#faf4f7" opacity="0.61"/>
      <path id="Path_583" data-name="Path 583" d="M1388.327,2015.61l-.017-.017,2,.848-.117-.05Z" fill="#faf4f7"/>
      <path id="Path_584" data-name="Path 584" d="M1388.418,2015.639l-.107-.046,2,.848-.306-.13Z" fill="#faf4f7" opacity="0.61"/>
    </g>
    <path id="Path_585" data-name="Path 585" d="M1392.65,2028.594a6.388,6.388,0,0,0-4.114-3.135,4.05,4.05,0,0,0-4.342,1.373,2.029,2.029,0,0,0-.348,2.074,5.171,5.171,0,0,0,1.845,2.286,6.064,6.064,0,0,0,3.709,1.464,3.908,3.908,0,0,0,2.651-1.025A2.334,2.334,0,0,0,1392.65,2028.594Zm-2.821,2.426c-.1.016-.213.013-.329.02a2.891,2.891,0,0,1-1.518-.613,8.432,8.432,0,0,1-1.666-1.456c-.513-.595-.616-1.037-.33-1.458a1.556,1.556,0,0,1,1.7-.55,5.552,5.552,0,0,1,2,1.258,4.925,4.925,0,0,1,.967.988A1.1,1.1,0,0,1,1389.829,2031.02Z" fill="#faf4f7"/>
    <path id="Path_586" data-name="Path 586" d="M1356.639,2017.6l6.922,5.857,1.817-1.341-4.975-4.24,6.576,3.072,1.471-1.038-3.591-5.408,5.062,4.2,1.86-1.341-6.879-5.754-2.855,2.077,3.158,4.733-5.711-2.813-.284.2Z" fill="#faf4f7"/>
    <path id="Path_587" data-name="Path 587" d="M1365.972,2010.867l1.565,1.342,2.162-1.64,5.218,4.423,2.038-1.491-5.173-4.324,2.067-1.64-1.64-1.392Z" fill="#faf4f7"/>
    <path id="Path_588" data-name="Path 588" d="M1373.128,2005.574l2.026-1.541,6.365,3.081-3.388-5.218,1.951-1.391,4.527,7.4-2.2,1.69Z" fill="#faf4f7"/>
    <path id="Path_589" data-name="Path 589" d="M1365.972,2025.369l6.922,5.856,1.817-1.341-4.975-4.24,6.576,3.072,1.471-1.038-3.591-5.408,5.062,4.2,1.86-1.341-6.879-5.754-2.855,2.077,3.158,4.733-5.711-2.813Z" fill="#faf4f7"/>
    <path id="Path_590" data-name="Path 590" d="M1376.177,2017.852l2.006-1.567,6.848,5.87-1.927,1.433Z" fill="#faf4f7"/>
    <path id="Path_591" data-name="Path 591" d="M1402.135,2009.678l-4.887-7.264-1.9,1.387,3.715,4.887-5.844-3.3-1.882,1.337,3.731,4.887-5.761-3.292-1.883,1.393,8.69,4.309,2.008-1.469-3.483-4.494,5.465,3.041Z" fill="#faf4f7"/>
    <g id="Group_160" data-name="Group 160">
      <path id="Path_592" data-name="Path 592" d="M1384.287,2011.836l-1.934,1.47,4.139,7.853,1.935-1.451-.753-1.276,2.657-1.989,1.655.712,1.907-1.561Zm2.467,5.036-1.556-2.638,3.225,1.388Z" fill="#faf4f7"/>
    </g>
    <path id="Path_593" data-name="Path 593" d="M1391.2,2021.608l1.484-1.175,6.8,5.75-1.958,1.4-4.163-3.575-1.71,1.289-1.143-.954S1392.81,2023.215,1391.2,2021.608Z" fill="#faf4f7"/>
    <path id="Path_594" data-name="Path 594" d="M1380.734,2030.317a3.052,3.052,0,0,1,2.575,1.4,2.267,2.267,0,0,1,.074,1.969,9.214,9.214,0,0,0-.646,2.328.084.084,0,0,0,.034.073c.124.082.241-.059.34-.13.865-.631,1.734-1.257,2.58-1.912.278-.215.466-.293.734,0a5.528,5.528,0,0,0,.756.641c.218.167.252.267-.038.464-.846.573-1.68,1.164-2.482,1.8-.834.661-1.719,1.255-2.556,1.912a.428.428,0,0,1-.694-.065,3.05,3.05,0,0,1-.614-3.1c.207-.687.465-1.361.645-2.054a1.1,1.1,0,0,0-.808-1.458,1.508,1.508,0,0,0-1.736.925,1.017,1.017,0,0,0,.258.882,2.491,2.491,0,0,0,.24.265c.175.184.157.17-.2.471-.316.268-.168.144-.869.748-.318.273-.329.22-.712-.09-1.409-1.235-1.3-2.88.294-4.082A4.617,4.617,0,0,1,1380.734,2030.317Z" fill="#faf4f7"/>
    <path id="Path_595" data-name="Path 595" d="M1406.145,2020.584a1.084,1.084,0,0,1-.067.17,5.432,5.432,0,0,1-3.9,2.827,2.936,2.936,0,0,1-2.43-.468,1.613,1.613,0,0,1-.57-2.274c.01-.02,0-.05-.009-.1-.3.013-.6.047-.905.036a2.179,2.179,0,0,1-1.653-.848,1.665,1.665,0,0,1,.081-2.115,4.722,4.722,0,0,1,4.125-2.013,2.037,2.037,0,0,1,1.146.344c.017.01.033.014.05.026a1.5,1.5,0,0,1,.411.384,1.739,1.739,0,0,1,.261,1.457.109.109,0,0,0,.128.147,2.7,2.7,0,0,1,2.958.813A1.736,1.736,0,0,1,1406.145,2020.584Zm-4.064,1.363.015,0a2.032,2.032,0,0,0,1.6-.749.851.851,0,0,0-.162-1.372,1.809,1.809,0,0,0-2.417.42c-.589.782-.127,1.333.5,1.615A1.835,1.835,0,0,0,1402.081,2021.947Zm-2.064-4.552h-.011a1.949,1.949,0,0,0-1.427.679c-.487.462-.367.98.221,1.293a1.8,1.8,0,0,0,2.061-.676.865.865,0,0,0-.183-1.138A.964.964,0,0,0,1400.017,2017.4Z" fill="#faf4f7"/>
  </g>
</svg>
