<svg xmlns="http://www.w3.org/2000/svg" width="225.833" height="169" viewBox="0 0 225.833 169"><defs><style>.cls-1{fill:#fff;}.cls-2{fill:none;}</style></defs><title>SPACE</title><g id="Layer_2" data-name="Layer 2"><g id="NOSOTROS"><g id="SPACE"><g id="SPACE-2" data-name="SPACE"><path class="cls-1" d="M98.719,102.542H93.446v16.886h3.672v-5.2h1.6a5.858,5.858,0,1,0,0-11.687Zm-.423,8.367H97.118v-5.047H98.3c3.025,0,3.025,1.908,3.025,2.532S101.321,110.909,98.3,110.909Z"/><path class="cls-1" d="M87.387,109.478l-2.248-.722c-2-.641-2-1.3-2-1.611,0-.482.229-1.609,2.351-1.609a7.467,7.467,0,0,1,4.981,1.909,18,18,0,0,1,1.6-2.756,8.63,8.63,0,0,0-6.555-2.555c-3.676,0-6.339,2.133-6.339,5.072,0,2.336,1.487,3.968,4.544,4.987l2.271.763c1.444.483,2.177,1.048,2.177,1.674,0,.871-1.093,1.549-2.49,1.549-2.284,0-2.71-1.043-2.824-2.067H78.883l.011.175c.306,3.317,2.8,5.294,6.664,5.294s6.572-2.1,6.572-5.111C92.13,112.161,90.536,110.481,87.387,109.478Z"/><path class="cls-1" d="M135.247,119.428h11.328v-3.443h-7.486v-3.361h7.486v-3.439h-7.486v-3.2h7.486v-3.441H135.247Z"/><path class="cls-1" d="M112.6,102.542h-2.86l-5.415,12.6-1.718,3.991-.129.3h4.018l1.464-3.552h6.419c.31.743,1.467,3.552,1.467,3.552h4.015Zm-3.269,10.014c.469-1.155,1.152-2.828,1.84-4.506l1.839,4.506Z"/><polygon class="cls-1" points="151.929 117.27 151.442 118.224 150.957 117.27 150.437 117.27 150.437 119.428 150.966 119.428 150.966 118.395 151.272 118.926 151.614 118.926 151.915 118.395 151.915 119.428 152.448 119.428 152.448 117.27 151.929 117.27"/><polygon class="cls-1" points="148.536 117.744 149.065 117.744 149.065 119.428 149.594 119.428 149.594 117.744 150.128 117.744 150.128 117.27 148.536 117.27 148.536 117.744"/><path class="cls-1" d="M122.461,110.44a5.1,5.1,0,0,1,1.532-3.085c.05-.048.1-.1.148-.14s.1-.088.153-.131a5.972,5.972,0,0,1,2.7-1.251l.054-.007c.138-.024.28-.043.42-.057.177-.017.357-.026.538-.026.043,0,.086.005.128.006.147,0,.3.015.454.028a5.644,5.644,0,0,1,3.048,1.333l.581.5,2.515-2.6-.651-.566A9.623,9.623,0,0,0,128,102.3c-5.865,0-9.371,4.413-9.371,8.683h0c0,4.269,3.506,8.682,9.371,8.682a9.622,9.622,0,0,0,6.075-2.147l.651-.565-2.515-2.6-.581.5a5.627,5.627,0,0,1-3.048,1.332c-.154.014-.307.027-.454.029-.042,0-.085.007-.128.007-.181,0-.361-.011-.538-.026-.14-.014-.282-.034-.42-.058l-.054-.008a5.958,5.958,0,0,1-2.7-1.249c-.051-.043-.1-.087-.153-.132s-.1-.092-.148-.139a5.107,5.107,0,0,1-1.532-3.085c-.017-.162-.026-.328-.028-.494,0-.018,0-.034,0-.051s0-.032,0-.049C122.435,110.766,122.444,110.6,122.461,110.44Z"/><path class="cls-1" d="M112.984,68.693a5.487,5.487,0,1,0,5.528,5.486A5.509,5.509,0,0,0,112.984,68.693Z"/><path class="cls-1" d="M112.984,49.273a24.221,24.221,0,1,0,24.223,24.221A24.218,24.218,0,0,0,112.984,49.273Zm0,37.383a12.462,12.462,0,0,1-5.333-23.777V60.185a5.333,5.333,0,0,1,10.666,0l-.093,2.65a12.462,12.462,0,0,1-5.24,23.821Z"/></g><rect class="cls-2" width="225.833" height="169"/></g></g></g></svg>