<svg xmlns="http://www.w3.org/2000/svg" width="225.833" height="169" viewBox="0 0 225.833 169"><defs><style>.cls-1,.cls-2{fill:#fff;}.cls-1{fill-rule:evenodd;}.cls-3{fill:none;}</style></defs><title>22</title><g id="Layer_2" data-name="Layer 2"><g id="NOSOTROS"><g id="_22" data-name="22"><g id="CANAL_22" data-name="CANAL 22"><path class="cls-1" d="M88.572,121.52a2.823,2.823,0,1,1,0-5.645v5.645Z"/><polygon class="cls-1" points="88.629 121.526 94.248 121.526 91.439 115.868 88.629 121.526 88.629 121.526"/><path class="cls-1" d="M99.239,118.135a1.441,1.441,0,0,0-1.165-.562,1.345,1.345,0,0,0-1.361,1.415,1.324,1.324,0,0,0,1.381,1.387,1.531,1.531,0,0,0,1.145-.541v1.59a3.753,3.753,0,0,1-1.172.238,2.838,2.838,0,0,1-1.915-.752,2.5,2.5,0,0,1-.82-1.929,2.673,2.673,0,0,1,.752-1.868,2.764,2.764,0,0,1,1.943-.826,3.108,3.108,0,0,1,1.212.257v1.591Z"/><path class="cls-1" d="M105.446,118.88a2.83,2.83,0,1,1-2.823-2.627,2.714,2.714,0,0,1,2.823,2.627Zm-4.265.006a1.444,1.444,0,1,0,2.884,0,1.445,1.445,0,0,0-2.884,0Z"/><polygon class="cls-1" points="106.062 116.422 107.39 116.422 109.819 119.543 109.833 119.543 109.833 116.422 111.16 116.422 111.16 121.526 109.833 121.526 107.403 118.399 107.39 118.399 107.39 121.526 106.062 121.526 106.062 116.422 106.062 116.422"/><path class="cls-1" d="M113.326,120.639l-.352.887h-1.408l1.963-5.1h1.449l1.922,5.1h-1.415l-.331-.887Zm.928-2.64h-.014l-.549,1.625h1.1L114.254,118Z"/><path class="cls-1" d="M120.961,118.135a1.439,1.439,0,0,0-1.164-.562,1.345,1.345,0,0,0-1.361,1.415,1.323,1.323,0,0,0,1.38,1.387,1.53,1.53,0,0,0,1.145-.541v1.59a3.741,3.741,0,0,1-1.171.238,2.841,2.841,0,0,1-1.916-.752,2.5,2.5,0,0,1-.819-1.929,2.672,2.672,0,0,1,.751-1.868,2.764,2.764,0,0,1,1.943-.826,3.1,3.1,0,0,1,1.212.257v1.591Z"/><path class="cls-1" d="M126.207,116.422v2.871a2.3,2.3,0,0,1-.535,1.8,2.8,2.8,0,0,1-3.384,0,2.3,2.3,0,0,1-.535-1.8v-2.871h1.327v2.688c0,.663.047,1.387.9,1.387s.9-.724.9-1.387v-2.688Z"/><polygon class="cls-1" points="128.373 120.402 129.964 120.402 129.964 121.526 127.046 121.526 127.046 116.422 128.373 116.422 128.373 120.402 128.373 120.402"/><polygon class="cls-1" points="132.427 121.526 131.101 121.526 131.101 117.546 130.004 117.546 130.004 116.422 133.524 116.422 133.524 117.546 132.427 117.546 132.427 121.526 132.427 121.526"/><path class="cls-1" d="M135.3,120.639l-.352.887h-1.408l1.964-5.1h1.448l1.923,5.1h-1.415l-.332-.887Zm.928-2.64h-.013l-.549,1.625h1.1L136.232,118Z"/><path class="cls-2" d="M98.912,93.515h13.221v-23.8c0,5.534-3.829,10.533-5.026,12.224Z"/><path class="cls-2" d="M112.075,63.715l.021,6.037.006,1.683c3.355-3.362,8.528-8.367,11.769-5.165s.355,7.721-1.473,10.425-10.224,14.853-10.224,14.853l.007,2,.022,6.088,19.594-.07-.021-5.916-12.6.045,8.153-11.662a28.343,28.343,0,0,0,4.377-8.266l-.027-7.676a9.662,9.662,0,0,0-5.366-5.719l-9.925.035A9.532,9.532,0,0,0,112.075,63.715Z"/><path class="cls-2" d="M92.514,62.918A10.3,10.3,0,0,1,96.23,60.39H92.514Z"/><path class="cls-2" d="M112.133,69.717V60.39h-5.954A9.893,9.893,0,0,1,112.133,69.717Z"/><path class="cls-2" d="M102.2,76.61c1.838-2.684,4.74-7.17,1.511-10.367-3.046-3.016-7.834,1.223-11.193,4.511V90.5C94.447,87.738,100.648,78.868,102.2,76.61Z"/><path class="cls-2" d="M144.044,48.249s-23.074-.962-31.816-.962-31.509.962-31.509.962-.192,26.663-.192,31.214.192,31.983.192,31.983,25.125.192,31.919.192,31.406-.192,31.406-.192.7-26.022.7-31.723S144.044,48.249,144.044,48.249Zm-11.052,52.619H91.249V59.125h41.743Z"/></g><rect class="cls-3" width="225.833" height="169"/></g></g></g></svg>