<svg xmlns="http://www.w3.org/2000/svg" width="225.833" height="169" viewBox="0 0 225.833 169"><defs><style>.cls-1{fill:#fff;}.cls-2{fill:none;}</style></defs><title>UNIVISION</title><g id="Layer_2" data-name="Layer 2"><g id="NOSOTROS"><g id="UNIVISION"><g id="UNIVISION-2" data-name="UNIVISION"><polygon class="cls-1" points="97.537 116.911 94.848 116.911 94.848 108.282 94.848 106.889 97.537 106.889 97.537 116.911"/><polygon class="cls-1" points="114.788 116.911 112.099 116.911 112.099 108.282 112.099 106.889 114.788 106.889 114.788 116.911"/><polygon class="cls-1" points="129.815 116.911 127.126 116.911 127.126 108.282 127.126 106.889 129.815 106.889 129.815 116.911"/><path class="cls-1" d="M85.308,116.911v-5.543a2.129,2.129,0,0,1,2.2-2.2,2.18,2.18,0,0,1,2.216,2.2v5.543h2.686V111.47a4.9,4.9,0,0,0-9.8,0v5.441Z"/><path class="cls-1" d="M147.033,116.911v-5.543a2.131,2.131,0,0,1,2.2-2.2,2.18,2.18,0,0,1,2.216,2.2v5.543h2.685V111.47a4.9,4.9,0,0,0-9.8,0v5.441Z"/><polygon class="cls-1" points="104.814 113.008 107.563 106.889 110.358 106.889 105.748 116.911 103.89 116.911 99.278 106.889 102.066 106.889 104.814 113.008"/><path class="cls-1" d="M118.249,113.856a4.23,4.23,0,0,0,2.746.99c.725,0,1.282-.352,1.282-.845,0-1.507-4.855-.97-4.855-4.2,0-1.922,1.86-3.12,3.842-3.12a6.224,6.224,0,0,1,3.392,1.011l-1.257,1.944a3.392,3.392,0,0,0-1.926-.679c-.741,0-1.364.286-1.364.8,0,1.3,4.858.785,4.858,4.262,0,1.919-1.879,3.1-3.988,3.1a6.93,6.93,0,0,1-4.029-1.346Z"/><path class="cls-1" d="M137.084,106.682a5.221,5.221,0,1,1-5.34,5.231,5.216,5.216,0,0,1,5.34-5.231m0,7.955a2.738,2.738,0,1,0-2.649-2.724,2.616,2.616,0,0,0,2.649,2.724"/><path class="cls-1" d="M77.727,106.889v5.546a2.142,2.142,0,0,1-2.216,2.2,2.185,2.185,0,0,1-2.214-2.2v-5.546H70.611v5.443a4.9,4.9,0,0,0,9.8,0v-5.443Z"/><path class="cls-1" d="M153.655,123.051a1.516,1.516,0,0,1-1.259.664,1.448,1.448,0,0,1-.037-2.9,1.439,1.439,0,0,1,1.09.5l.687-.726a2.408,2.408,0,0,0-1.773-.731,2.4,2.4,0,1,0,.015,4.8,2.451,2.451,0,0,0,2.011-.963Z"/><polygon class="cls-1" points="142.145 124.603 143.194 124.603 143.194 119.929 142.145 119.929 142.145 120.627 142.145 124.603"/><polygon class="cls-1" points="147.754 122.698 145.387 119.929 144.644 119.929 144.644 124.603 145.693 124.603 145.693 121.835 148.033 124.572 148.061 124.603 148.804 124.603 148.804 119.929 147.754 119.929 147.754 122.698"/><path class="cls-1" d="M74.359,123.051a1.514,1.514,0,0,1-1.257.664,1.448,1.448,0,0,1-.039-2.9,1.443,1.443,0,0,1,1.091.5l.687-.726a2.412,2.412,0,0,0-1.773-.731,2.4,2.4,0,1,0,.014,4.8,2.451,2.451,0,0,0,2.011-.963Z"/><path class="cls-1" d="M110.9,123.051a1.521,1.521,0,0,1-1.259.664,1.448,1.448,0,0,1-.037-2.9,1.437,1.437,0,0,1,1.089.5l.687-.726a2.408,2.408,0,0,0-1.772-.731,2.4,2.4,0,1,0,.014,4.8,2.457,2.457,0,0,0,2.012-.963Z"/><path class="cls-1" d="M78.123,119.866a2.4,2.4,0,1,0,2.433,2.4A2.365,2.365,0,0,0,78.123,119.866Zm0,3.849a1.449,1.449,0,1,1,1.385-1.448A1.4,1.4,0,0,1,78.123,123.715Z"/><polygon class="cls-1" points="83.995 122.532 82.411 119.929 81.658 119.929 81.658 124.603 82.707 124.603 82.707 122.338 83.642 123.867 84.349 123.867 85.282 122.338 85.282 124.603 86.331 124.603 86.331 119.929 85.58 119.929 83.995 122.532"/><polygon class="cls-1" points="90.12 122.532 88.537 119.929 87.782 119.929 87.782 124.603 88.832 124.603 88.832 122.338 89.766 123.867 90.472 123.867 91.407 122.338 91.407 124.603 92.456 124.603 92.456 119.929 91.704 119.929 90.12 122.532"/><polygon class="cls-1" points="102.5 122.698 100.133 119.929 99.389 119.929 99.389 124.603 100.438 124.603 100.438 121.835 102.779 124.572 102.806 124.603 103.549 124.603 103.549 119.929 102.5 119.929 102.5 122.698"/><polygon class="cls-1" points="104.999 124.603 106.048 124.603 106.048 119.929 104.999 119.929 104.999 120.627 104.999 124.603"/><polygon class="cls-1" points="121.547 124.603 122.597 124.603 122.597 119.929 121.547 119.929 121.547 120.627 121.547 124.603"/><path class="cls-1" d="M114.891,119.929h-.733l-2,4.674h1.1l.424-.994h1.68l.425.994h1.1Zm-.824,2.728.453-1.054.453,1.054Z"/><polygon class="cls-1" points="116.992 120.883 118.178 120.883 118.178 124.603 119.23 124.603 119.23 120.883 120.413 120.883 120.413 119.929 116.992 119.929 116.992 120.883"/><path class="cls-1" d="M126.134,119.866a2.4,2.4,0,1,0,2.431,2.4A2.366,2.366,0,0,0,126.134,119.866Zm0,3.849a1.45,1.45,0,1,1,1.382-1.448A1.4,1.4,0,0,1,126.134,123.715Z"/><polygon class="cls-1" points="132.777 122.698 130.41 119.929 129.667 119.929 129.667 124.603 130.716 124.603 130.716 121.835 133.057 124.572 133.085 124.603 133.827 124.603 133.827 119.929 132.777 119.929 132.777 122.698"/><path class="cls-1" d="M134.941,123.905a2.5,2.5,0,0,0,1.754.764,1.517,1.517,0,0,0,1.613-1.439c0-.958-.762-1.259-1.374-1.5-.433-.174-.7-.29-.7-.514,0-.311.378-.395.6-.395a1.09,1.09,0,0,1,.791.345l.56-.8a2.169,2.169,0,0,0-1.429-.5,1.452,1.452,0,0,0-1.573,1.355,1.215,1.215,0,0,0,.681,1.1,4.218,4.218,0,0,0,.607.274c.421.168.784.31.784.646a.5.5,0,0,1-.562.473,1.393,1.393,0,0,1-1.057-.537Z"/><path class="cls-1" d="M95.923,124.669a1.883,1.883,0,0,1-2.017-2.048v-2.692h1.051v2.692c0,.888.5,1.094.966,1.094s.965-.206.965-1.094v-2.692h1.051v2.692A1.883,1.883,0,0,1,95.923,124.669Z"/><g id="layer1"><g id="g23394"><path id="path23309" class="cls-1" d="M110.38,96.84C97.415,95.469,88.352,83.96,88.352,73.358c0,0,5.722,2.63,18.927,2.63-.157,12.891.858,17.119,3.1,20.852Z"/><path id="path23311" class="cls-1" d="M88.352,72.048v-17.9c1.895,5.011,6.113,9.868,6.113,19.326a17.312,17.312,0,0,1-6.113-1.423Z"/><path id="path23313" class="cls-1" d="M98.111,73.667c3.327,0,8.1-1.286,9.163-1.972V57.373c-3.3-4.058-10.623-8.572-16.746-8.572-1.753,0-2.185.41-2.185,1.266a11.437,11.437,0,0,0,1.614,4.578c3.453,6.306,5.847,12,5.76,18.889C95.717,73.534,97.542,73.667,98.111,73.667Z"/><path id="path23333" class="cls-1" d="M108.584,74.522V44.976c23.716,0,27.411,2.071,28.236,3.056V71.9C134.868,72.831,131.213,74.631,108.584,74.522Z"/><path id="path23335" class="cls-1" d="M108.584,75.978c18.032.145,26-1.454,28.236-2.627,0,3.637-2.844,23.589-24.933,23.589C108.726,92.513,108.584,84.117,108.584,75.978Z"/></g></g></g><rect class="cls-2" width="225.833" height="169"/></g></g></g></svg>