<svg xmlns="http://www.w3.org/2000/svg" width="225.833" height="169" viewBox="0 0 225.833 169"><defs><style>.cls-1{fill:#fff;}.cls-2{fill:none;}</style></defs><title>L</title><g id="Layer_2" data-name="Layer 2"><g id="NOSOTROS"><g id="L"><g id="L-2" data-name="L"><polygon class="cls-1" points="147.786 120.148 118.778 120.148 118.778 114.867 144.372 90.233 147.786 90.233 147.786 120.148"/><polygon class="cls-1" points="114.762 73.914 114.762 80.61 84.956 110.045 84.942 103.329 114.762 73.914"/><polygon class="cls-1" points="114.772 60.857 114.772 67.552 84.962 97.132 84.954 90.3 114.772 60.857"/><polygon class="cls-1" points="85.03 83.996 85.03 77.278 111.516 51.055 114.74 51.055 114.74 54.593 85.03 83.996"/><polygon class="cls-1" points="84.967 119.973 85.002 116.355 114.771 86.956 114.771 93.452 88.139 119.974 84.967 119.973"/><polygon class="cls-1" points="114.792 100.028 114.792 106.708 101.126 120.062 94.463 120.062 114.792 100.028"/><polygon class="cls-1" points="85.003 70.921 85.003 64.838 98.874 51.039 104.877 51.039 85.003 70.921"/><path class="cls-1" d="M85.061,51.014h7.2l-7.2,6.994Z"/><polygon class="cls-1" points="107.667 120.034 114.733 113.132 114.79 120.034 107.667 120.034"/></g><rect class="cls-2" width="225.833" height="169"/></g></g></g></svg>