<svg xmlns="http://www.w3.org/2000/svg" width="225.833" height="169" viewBox="0 0 225.833 169"><defs><style>.cls-1{fill:#fff;}.cls-2{fill:none;}</style></defs><title>EL TRECE</title><g id="Layer_2" data-name="Layer 2"><g id="NOSOTROS"><g id="EL_TRECE" data-name="EL TRECE"><g id="EL_TRECE-2" data-name="EL TRECE"><path class="cls-1" d="M129.148,82.442,138.8,76.7l-9.19-5.32c1.8-3.137,3.522-6.126,5.358-9.322H124.236V51.466l-9.3,5.322c-1.809-3.107-3.515-6.034-5.315-9.125l-5.333,9.175-9.261-5.315V62.18H84.4l5.186,8.949-9.1,5.325,9.151,5.386c-1.826,3.123-3.566,6.1-5.425,9.283l10.736.077c-.026,3.538-.05,6.95-.076,10.588l9.336-5.254,5.25,9.162,5.4-9.136,9.223,5.381c.026-3.638.051-7.046.077-10.656l10.624.076L129.568,82.2Zm-19.5,8.892A14.655,14.655,0,1,1,124.3,76.68,14.655,14.655,0,0,1,109.648,91.334Z"/><path class="cls-1" d="M139.754,117.11h-6.462a2.7,2.7,0,0,0,1.28,2.185,2.9,2.9,0,0,0,3.186-.582l1.318,1.427a4.427,4.427,0,0,1-2.332,1.32,4.279,4.279,0,0,1-4.183-1.085,4.952,4.952,0,0,1-1.368-2.825,7.272,7.272,0,0,1,.377-3.958,4.123,4.123,0,0,1,4.356-2.605,4.026,4.026,0,0,1,3.608,3.023A7.415,7.415,0,0,1,139.754,117.11Zm-6.388-1.894h4.17a2.03,2.03,0,0,0-2.045-2.192A2.086,2.086,0,0,0,133.366,115.216Z"/><path class="cls-1" d="M119.066,118.71l1.316,1.433a4.668,4.668,0,0,1-6.731,0,5.015,5.015,0,0,1-1.183-2.809,7.1,7.1,0,0,1,.512-3.971,4.11,4.11,0,0,1,4.24-2.375,3.952,3.952,0,0,1,3.527,2.763,6.806,6.806,0,0,1,.311,3.347H114.6a2.644,2.644,0,0,0,1.175,2.128C116.963,119.9,118.036,119.465,119.066,118.71Zm-.2-3.493c-.146-1.49-.926-2.23-2.268-2.186a2.07,2.07,0,0,0-1.936,2.186Z"/><path class="cls-1" d="M87.21,117.11H80.752a2.64,2.64,0,0,0,1.175,2.118c1.195.67,2.266.231,3.294-.515l1.315,1.429a4.488,4.488,0,0,1-2.321,1.317,4.351,4.351,0,0,1-3.84-.764,4.783,4.783,0,0,1-1.688-2.973,6.888,6.888,0,0,1,.484-4.418A4,4,0,0,1,83.41,111a3.841,3.841,0,0,1,3.489,2.754A6.738,6.738,0,0,1,87.21,117.11Zm-2.186-1.893a2.1,2.1,0,1,0-4.2,0Z"/><path class="cls-1" d="M103.929,119.08c-.08.62-.153,1.235-.245,1.847a.371.371,0,0,1-.18.241,3.689,3.689,0,0,1-2.646.314,2.077,2.077,0,0,1-1.481-1.757,4.563,4.563,0,0,1-.076-.858c-.007-1.754,0-3.508,0-5.262v-.352H97.919v-2.061H99.3v-.88c0-.555,0-1.11,0-1.665,0-.1.033-.244.1-.282.664-.375,1.337-.731,2.061-1.121v3.927h2.412v2.069H101.5c-.009.14-.021.247-.021.354,0,1.61.009,3.219,0,4.829-.007.981.257,1.23,1.331,1.045A7.321,7.321,0,0,0,103.929,119.08Z"/><path class="cls-1" d="M130.2,112.769l-1.332,1.6a5.6,5.6,0,0,0-.683-.591,4.4,4.4,0,0,0-1.174-.593,1.923,1.923,0,0,0-2.427,1.316,4.89,4.89,0,0,0,.027,3.578,2.028,2.028,0,0,0,3.272.879c.3-.23.559-.5.85-.771l1.369,1.454a4.441,4.441,0,0,1-2.735,1.862,4.208,4.208,0,0,1-4.863-2.735,6.544,6.544,0,0,1,.214-5.455,4.32,4.32,0,0,1,6.64-1.342C129.648,112.217,129.908,112.49,130.2,112.769Z"/><path class="cls-1" d="M111.487,113.542a9.61,9.61,0,0,0-1-.311,1.753,1.753,0,0,0-2.319,1.788c-.059,1.6-.051,3.2-.044,4.795a.594.594,0,0,1-.393.63c-.6.284-1.179.606-1.8.931V111.211H108.1v.612c.1-.069.165-.1.22-.147a3.231,3.231,0,0,1,3.356-.43c.291.109.408.26.292.6C111.772,112.409,111.639,112.992,111.487,113.542Z"/><path class="cls-1" d="M89.159,121.386V120.8q0-6.024-.006-12.049a.477.477,0,0,1,.3-.511c.624-.305,1.232-.644,1.885-.989.008.141.02.234.02.328q0,6.124.008,12.249a.59.59,0,0,1-.395.648C90.377,120.741,89.805,121.058,89.159,121.386Z"/></g><rect class="cls-2" width="225.833" height="169"/></g></g></g></svg>