<svg xmlns="http://www.w3.org/2000/svg" width="120.155" height="56.854" viewBox="0 0 120.155 56.854"><defs><style>.cls-1{fill:#fff;}</style></defs><title>oficina-espana</title><g id="Layer_2" data-name="Layer 2"><g id="CONTACTO"><g id="TITUO"><path id="TILDE_LETRA_Ñ" data-name="TILDE LETRA Ñ" class="cls-1" d="M78.2,3.49a1.975,1.975,0,0,1,.325-.136c.048-.025.033-.1-.017-.132a.825.825,0,0,0-.289-.047c-.245-.05-.341-.139-.332-.325a.393.393,0,0,1,.2-.35.8.8,0,0,0,.179-.117.084.084,0,0,0,.028-.136c-.023-.028-.057-.07-.036-.1s.088-.088.043-.144-.105-.044-.171-.07c-.1-.044-.139-.087-.066-.166.025-.054.081-.126.106-.18a.714.714,0,0,1,.647-.388,5.512,5.512,0,0,0,.97-.159c.376-.1.8-.148,1.211-.23.178-.034.34-.061.533-.105A5,5,0,0,1,82.774.517a3.228,3.228,0,0,0,.7-.1A4.655,4.655,0,0,1,84.486.34a2.059,2.059,0,0,0,.571-.086A3.2,3.2,0,0,1,85.424.2c.351-.048.7-.073,1.059-.107.13-.009.276-.027.405-.036a9.275,9.275,0,0,0,1.03-.03,1.572,1.572,0,0,1,.744.044A1.168,1.168,0,0,0,89.055.1a9.626,9.626,0,0,1,1.832.142.693.693,0,0,1,.613.7c0,.118-.059.153-.223.12-.028-.006-.066-.025-.1-.009-.056-.011-.076.021-.053.049.025.087.114.141.171.211-.075.021-.139.055-.1.134.124.237-.046.368-.237.471a4.9,4.9,0,0,1-.45.263.093.093,0,0,0-.032.159c.068.084.032.124-.047.167a2.688,2.688,0,0,1-.615.231,5.912,5.912,0,0,1-.952.21.948.948,0,0,1-.315.008c.036-.04.062-.094-.031-.124a.509.509,0,0,0-.446.1c.168.011.32.03.477.026a1.765,1.765,0,0,1-.493.125c-.319.03-.628.074-.946.1a6.463,6.463,0,0,1-1.2.1,3.9,3.9,0,0,0-.405.037,19.639,19.639,0,0,1-2.189.21,3.691,3.691,0,0,0-.4.037c-.82.118-1.67.173-2.5.254-.405.037-.816.1-1.225.156-.1.015-.214.075-.31-.015.062-.094.17-.072.262-.1.469-.073.965-.137,1.457-.18l2.48-.246c.945-.106,1.889-.211,2.857-.289.52-.037,1.037-.133,1.562-.135a.351.351,0,0,0,.1-.015c.043,0,.075-.02.069-.056-.012-.015-.051-.034-.066-.026a4.142,4.142,0,0,0-.661.034c-.232.024-.464.048-.692.049a10.1,10.1,0,0,0-1.243.1c-.5.03-1.011.082-1.5.124a.941.941,0,0,1-.156,0c-.659.092-1.339.156-2.005.211-.739.076-1.5.161-2.228.273a3.422,3.422,0,0,1-.617.03.436.436,0,0,1-.32-.111C78.148,3.6,78.139,3.5,78.2,3.49Zm1.893-1.507a1.439,1.439,0,0,0,.173-.012,1.7,1.7,0,0,1,.221-.039l.225-.061a1.447,1.447,0,0,0,.773-.093l.015-.009-.015.009a1.407,1.407,0,0,0-.778.116,1.063,1.063,0,0,0-.22.038c-.076.021-.162.027-.221.039a1.439,1.439,0,0,1-.173.012c-.071,0-.164-.033-.193.044C79.98,2.042,80.017,2,80.092,1.983Zm3.057-.393a.715.715,0,0,1,.172-.026A.944.944,0,0,0,83.7,1.47a1.348,1.348,0,0,0-.376.094c-.059.016-.115.01-.172.026l-.015.009Zm1.8-.2c.059-.012.135-.032.194-.043A3.975,3.975,0,0,0,86.2,1.238a.119.119,0,0,0,.086-.007.071.071,0,0,0,.06-.012.124.124,0,0,0-.071,0,.152.152,0,0,0-.092.029.887.887,0,0,0-.392-.031,2.765,2.765,0,0,0-.65.129l-.211-.008c-.088.007-.135.033-.1.052A.19.19,0,0,0,84.944,1.387Zm1.966-.231a.534.534,0,0,1,.156,0c.06-.012.1-.015.162-.028-.043,0-.1.016-.162.028a.534.534,0,0,0-.156,0,.642.642,0,0,0-.174.013C86.8,1.156,86.851,1.168,86.91,1.156Zm3.955.049a.08.08,0,0,1,.043,0c0-.023-.018-.051-.029-.065a.378.378,0,0,0-.109-.023l-.016.009a.057.057,0,0,0,.018.051A.3.3,0,0,0,90.865,1.205Zm-1.8,1.62.032-.017c0-.022,0-.022-.039-.02-.032.017-.075.02-.107.037A.538.538,0,0,1,89.063,2.825Z"/><path id="SUBRAYADO" class="cls-1" d="M119.523,43.9a7.724,7.724,0,0,1-1.728-.178c-.379-.044-.758-.089-1.138-.131-.074-.007-.148-.005-.195-.074l-.008,0h0l0,0,0,0a.212.212,0,0,1,.031.014l-.013,0a.157.157,0,0,0-.023-.009.548.548,0,0,1-.287.018.117.117,0,0,1-.036.008c-.1,0-.215.073-.308-.028a.066.066,0,0,1,.012-.063.348.348,0,0,1,.317.021c.107-.012.225-.1.311.039l.009-.005h0l.007.007a2.574,2.574,0,0,1,1.332.128c.34-.089.707.1,1.129-.1-.21-.048-.33-.084-.453-.1a16.377,16.377,0,0,0-2.625-.165c-1.241,0-2.478-.068-3.716-.131-1.147-.058-2.292-.172-3.441-.179a17.431,17.431,0,0,1-3.079-.2h0a22.041,22.041,0,0,1-2.327-.07,8.83,8.83,0,0,1-1.571-.121c.238-.181.443-.033.641-.037a4.771,4.771,0,0,1,.7,0,5.96,5.96,0,0,1,.653.05,6.493,6.493,0,0,1,2.072.08,4.881,4.881,0,0,1,1.311.035,14.292,14.292,0,0,0,1.815.116.845.845,0,0,1,.188.037h0a9.978,9.978,0,0,1,1.315-.085c.954.027,1.9.17,2.857.157.283,0,.567.023.85.042a18.549,18.549,0,0,0,2.085.121,8.151,8.151,0,0,1,1.888.133.982.982,0,0,0,.674-.059c-.019-.041-.064-.091-.053-.121.018-.046.078-.038.124-.019.15-.045.328.023.456-.111-.435-.063-.879-.021-1.309-.077-.78-.1-1.566-.111-2.346-.2-.116.018-.233.06-.341-.024a2.416,2.416,0,0,1-.549-.064h0l-.237.02-.153.012a.467.467,0,0,1-.335-.024A15.707,15.707,0,0,1,112,42.532c-.7-.023-1.387-.113-2.085-.087a5.814,5.814,0,0,1-.731-.062,6.193,6.193,0,0,1-.732-.073,5.232,5.232,0,0,1-1.619,0,2.353,2.353,0,0,0-.581-.009,3.8,3.8,0,0,1-1.612-.26,13.247,13.247,0,0,1,2.014.082c.654.045,1.31.06,1.965.087.319.075.65-.035.968.064h0a1.282,1.282,0,0,1,.306-.025c.717.1,1.441.009,2.159.076.257-.065.539.02.779-.137a2.654,2.654,0,0,0-.765-.059c-.693-.079-1.389-.134-2.084-.189-.992-.078-1.984-.145-2.972-.269a12.547,12.547,0,0,0-2.51-.162c-.4.03-.8-.017-1.2-.017a8.981,8.981,0,0,0-2.013.094,3.03,3.03,0,0,1-1.157.05c-.319-.051-.639-.087-.961-.111a6.652,6.652,0,0,0-2.354.056.913.913,0,0,1-.309.018c-1.095-.085-2.19-.169-3.289-.212q-1.4-.054-2.793-.041c-.344,0-.651.156-.99.167-.492.015-.983-.018-1.474-.018a8.223,8.223,0,0,0-2.012.107c-.463.115-.944.085-1.413.225a3.705,3.705,0,0,1-.923.023c-.777.016-1.55-.065-2.325-.089-.854-.025-1.708-.036-2.561-.058a13.238,13.238,0,0,0-2.362.171c-.652.1-1.3.222-1.958.287-1.354.135-2.716.193-4.062.4a16.267,16.267,0,0,1-2.43.272,18.092,18.092,0,0,0-2.053.154c-.63.072-1.257.173-1.888.239-2.526.267-5.062.412-7.593.618a3.032,3.032,0,0,0-.906.144h0l-1.232.117c-.762.067-1.526.11-2.283.206-1.182.148-2.355.357-3.539.5-1.787.214-3.566.493-5.359.669a14.914,14.914,0,0,0-1.993.314,2.86,2.86,0,0,1-.8.129,9.547,9.547,0,0,0-1.738.133c-1.3.175-2.6.324-3.893.5-.679.093-1.354.218-2.031.331-.74.124-1.476.279-2.22.372-1.2.148-2.4.245-3.583.46a3.908,3.908,0,0,1-.542.04,14.08,14.08,0,0,0-1.433.082c-.974.139-1.94.326-2.9.516a6.945,6.945,0,0,0-2.267.612.581.581,0,0,1-.112.033,8.83,8.83,0,0,1-1.582.372c-.718.093-1.37.447-2.1.514a7.407,7.407,0,0,0-1.554.324,6.553,6.553,0,0,1-2.021.323,7.751,7.751,0,0,0-1.79.329c-.431.1-.848.3-1.283.419-.944.269-1.872.586-2.815.858a4.433,4.433,0,0,0-1.856.918.978.978,0,0,1-.5.206c-.586.111-1.134.354-1.715.477-.093.019-.205.05-.23.128-.072.235-.287.288-.459.383a17.316,17.316,0,0,1-1.526.917c-.149.063-.149.167-.017.264a.651.651,0,0,0,.653.125c.313-.118.639-.2.953-.321a.26.26,0,0,1,.378.138c-.073.13-.214.145-.326.2a4.468,4.468,0,0,0-.62.317c-.05.034-.113.081-.1.155s.1.11.176.121a.854.854,0,0,0,.515-.142,2.471,2.471,0,0,1,.695-.334c.513-.075,1.01-.222,1.521-.3.135-.037.287-.016.4-.124a1.029,1.029,0,0,0,.243-.078c.009,0,.019,0,.028-.008a1.392,1.392,0,0,1-.266.091c-.081.09-.242.058-.295.192a1.239,1.239,0,0,1-.45.214c-.349.094-.693.207-1.042.3a.365.365,0,0,0-.257.155.5.5,0,0,1-.41.248,1.641,1.641,0,0,0-.322.129c-.07.031-.156.055-.143.156a.175.175,0,0,0,.162.147,1.637,1.637,0,0,0,.69.005,6.89,6.89,0,0,1,1.049-.276c.093-.014.211-.042.229-.123.066-.293.312-.3.525-.372.785-.256,1.543-.586,2.334-.827.331-.1.718-.093.951-.428.03-.043.115-.053.177-.068a4.614,4.614,0,0,0,1.358-.429.911.911,0,0,1,.333-.1,9.041,9.041,0,0,0,1.621-.371c.478-.157.968-.277,1.453-.41.258-.071.56-.068.739-.288.217-.267.486.032.729-.123a2.393,2.393,0,0,1,.772-.24c.35-.077.675-.228,1.018-.32.205-.055.443.015.607-.191.048-.061.147-.027.223-.013a.611.611,0,0,0,.269,0c.389-.093.778-.188,1.169-.272.531-.114,1.043-.3,1.581-.386a12.315,12.315,0,0,0,1.848-.427,2.531,2.531,0,0,1,.87-.179,3.6,3.6,0,0,0,1.026-.146,1.849,1.849,0,0,1,1.123-.117.771.771,0,0,0,.42-.047,32.987,32.987,0,0,1,3.877-.773,8.359,8.359,0,0,0,1.264-.194,11.768,11.768,0,0,1,1.222-.354,16.005,16.005,0,0,1,3.209-.7.751.751,0,0,0,.189-.044,16.125,16.125,0,0,1,3.52-.558,1,1,0,0,1,.386,0,.949.949,0,0,0,.536-.009,18.356,18.356,0,0,1,3.432-.388,24.338,24.338,0,0,0,3.585-.422A34.3,34.3,0,0,1,50,46.684l.08-.007c.058-.085.148-.076.234-.08a.947.947,0,0,0,.6-.016,1.784,1.784,0,0,1,.644-.093A1.54,1.54,0,0,0,52.6,46.35a.3.3,0,0,1,.187-.023,2.026,2.026,0,0,0,.922-.175c.761-.068,1.523-.122,2.281-.225a22.089,22.089,0,0,1,2.272-.279c1.215-.039,2.432-.063,3.646-.163.374-.031.748-.068,1.123-.088.93-.05,1.868-.063,2.787-.17a36,36,0,0,1,3.682-.156,19.6,19.6,0,0,0,2.247-.15,12.74,12.74,0,0,1,2.5-.277.379.379,0,0,0,.152-.024,2.672,2.672,0,0,1,.8-.114,2.483,2.483,0,0,0,.84-.133c.081-.033.2-.082.26-.02.18.178.351.074.537.03a3.787,3.787,0,0,1,.644-.139c.906-.057,1.8-.218,2.693-.356,1.806-.28,3.63-.4,5.449-.56,1.369-.121,2.743-.089,4.114-.134.325-.011.651.006.976.01l.006.077c-.453-.025-.864.2-1.326.156a9,9,0,0,0-2.206.042,2.117,2.117,0,0,1-.772.037,1.946,1.946,0,0,0-.933.04,2.277,2.277,0,0,1-.609.089c-1.079-.029-2.141.2-3.217.21a.389.389,0,0,0-.387.187,1.422,1.422,0,0,0,.624.033,9.285,9.285,0,0,1,1.2-.1c2.162-.045,4.317-.273,6.482-.254.957.008,1.915-.045,2.872-.04.441,0,.88-.038,1.32-.023a12.2,12.2,0,0,0,1.667-.006,2.671,2.671,0,0,1,.5-.026c1.461.127,2.922-.038,4.382.022a10.059,10.059,0,0,1,1.275-.007c.876.148,1.75-.092,2.627.052.463.075.951.021,1.424.083a3.938,3.938,0,0,0,.812.015h0c.233-.081.5.018.719-.143-.19-.115-.431.02-.693-.151a8.83,8.83,0,0,1,1.659-.021,10.482,10.482,0,0,1,1.624.041c.539.03,1.077.072,1.616.109h0a1.785,1.785,0,0,1,.56.1h0c.136-.039.274-.082.393.038a.766.766,0,0,1,.392-.01.257.257,0,0,1,.228-.031h0l.552.03c.157,0,.321-.088.468.038l.006,0c.18,0,.363-.084.54.014a2.214,2.214,0,0,0,.623.046,2.867,2.867,0,0,1,.887-.014,8.168,8.168,0,0,0,.962.1c.552.019,1.1.089,1.653.109a10.065,10.065,0,0,0,1.311.029c.069-.006.16.018.194-.112A4.342,4.342,0,0,0,119.523,43.9ZM104.431,42s.021.033.032.049c-.024.054-.062.033-.1.021a.134.134,0,0,1-.031-.022A.7.7,0,0,1,104.431,42ZM31.139,47.9c.042-.024.064.008.084.039-.013.018-.031.053-.04.051a.565.565,0,0,1-.1-.042A.275.275,0,0,1,31.139,47.9Zm12.787-1.115h0a.166.166,0,0,1,.16.068C44.033,46.833,43.92,46.953,43.926,46.789Zm19.324-2.4a3.541,3.541,0,0,1-1.033.006c-.154-.049-.251.1-.4.1-.314.007-.627.073-.941.084-.152.005-.171.176-.322.177a3.637,3.637,0,0,1-1.266.009c-.059-.021-.137-.075-.18-.024-.2.227-.454.1-.682.14-.529.1-1.065.093-1.6.148-.39.04-.781.057-1.168.125-.372.064-.745.115-1.115.188a5.425,5.425,0,0,0-.813.174l.01.088c.038.013.084.019.077.077l-.144,0-.188-.07c-.138-.13-.226.086-.367.05a1.094,1.094,0,0,0-.374.043h0a.636.636,0,0,1-.473.092c-.148-.008-.311-.053-.339.242-.059-.172-.031-.237.035-.29-.136-.136-.3-.051-.433-.018-.173.044-.347.068-.522.1-.149.026-.337-.034-.378.208-.006.034-.135.046-.208.069h0a.22.22,0,0,1-.113-.22,13.4,13.4,0,0,1-1.371.121c-.184.2-.487-.038-.668.186-.032.04-.1.008-.144-.016s-.144-.066-.182-.022c-.223.257-.537.16-.807.2a1.647,1.647,0,0,1-.84.03c-.114-.04-.224.054-.326.089-.276.093-.554-.019-.824.052a.3.3,0,0,0-.325-.129c-.385.04-.773.059-1.159.087l-.227.028c.008.077.022.162-.087.175-.089.012-.18,0-.269.013a2.452,2.452,0,0,0-.863.116,1.493,1.493,0,0,1-.594.174c-.346.027-.693.042-1.039.063h0a4.161,4.161,0,0,0-.965-.076c-.4.039-.8.072-1.2.108-.064.006-.155-.01-.186.025-.223.255-.552.16-.823.236-.189.053-.4.069-.6.117-.252.061-.508.135-.762.2-.525.127-1.061.181-1.588.288-.32.064-.638.14-.952.229a13.823,13.823,0,0,1-1.858.217c-.7.1-1.413.14-2.106.275a12.186,12.186,0,0,0-1.516.362,1.3,1.3,0,0,1-.778.047,1.921,1.921,0,0,0-1.154.119c-.515.18-1.061.248-1.564.463a.421.421,0,0,1-.264.045c-.474-.158-.891.152-1.345.152-.072,0-.142.038-.224.014-.251-.076-.253-.136-.12-.366a.44.44,0,0,1,.468-.243c.311.027.6-.1.91-.1h0c.052-.125.154-.084.247-.076,0-.058.028-.089.087-.088a.226.226,0,0,1,.045,0l.162.044.037-.1c.193.123.318-.131.521-.084a1.881,1.881,0,0,0,.571-.049c.2-.021.409-.036.614-.058a.809.809,0,0,0,.409-.09h0l.256-.036c.055-.125.175-.155.288-.2a.145.145,0,0,1,.159-.066c.5-.041.976-.209,1.48-.212a1.271,1.271,0,0,1,.341.027,2.571,2.571,0,0,0,1.109.094,3.743,3.743,0,0,0,.978-.245c.124-.061.086-.135.08-.219-.035.024-.069.023-.088-.018,0-.01.018-.042.034-.049.039-.015.07,0,.075.045a6.723,6.723,0,0,0,2.029-.4,5.154,5.154,0,0,1,1.513-.228,5.156,5.156,0,0,0,1.3-.246,2.68,2.68,0,0,1,1.065-.078,1.349,1.349,0,0,0,.537-.042,15.43,15.43,0,0,1,2.153-.248c.421-.041.844-.055,1.262-.106.968-.116,1.931-.277,2.9-.363,1.138-.1,2.25-.372,3.39-.467,1-.084,1.981-.312,2.984-.4.368-.031.739-.115,1.111-.126.2-.005.313-.159.489-.175.058.183.2.123.322.106.382-.052.763-.12,1.145-.173.866-.122,1.737-.213,2.6-.332.758-.1,1.53-.107,2.3-.155l.081-.067v-.009l.009,0a.781.781,0,0,1,.889-.107c.132.044.237.135.381.02a.308.308,0,0,1,.226-.022,2.644,2.644,0,0,0,.986-.076,2.146,2.146,0,0,1,.763.066c.061.013.155.064.177.042.2-.2.453-.11.678-.152a1.108,1.108,0,0,1,.834.1C63.466,44.3,63.406,44.4,63.25,44.392Zm9.376-.322-.036-.021c.008-.007.016-.021.024-.021s.016.013.024.02Zm.606-.044-.024-.021c.008-.007.016-.021.024-.02s.015.013.023.02C73.247,44.012,73.24,44.026,73.232,44.026Zm7.165-.3c-.022.012-.036,0-.034-.031,0-.009.014-.016.021-.025l.022.026C80.4,43.707,80.4,43.723,80.4,43.727ZM91.949,43.3a1.27,1.27,0,0,1-.645,0,.453.453,0,0,1-.268-.055,1.191,1.191,0,0,1,.5-.048c.18.009.367-.086.542.03C92.085,43.343,92,43.3,91.949,43.3Zm.649.04c-.036,0-.1.013-.089-.058,0-.019.059-.038.09-.038a.349.349,0,0,1,.1.045C92.66,43.315,92.629,43.343,92.6,43.343Zm12.648-.173c.059-.005.126-.026.161.045a.075.075,0,0,1-.069.08c-.062.006-.134.008-.16-.063C105.161,43.186,105.211,43.172,105.246,43.17Zm-1.831.237a1.819,1.819,0,0,1-.724-.009,3.45,3.45,0,0,1-.83.052h0l-.63-.034h0l-.31-.048a.367.367,0,0,1-.315-.025c.117-.162.248-.126.385-.061l.234.063a.983.983,0,0,1,.627.032,5,5,0,0,1,.931-.059l.628.028a1.48,1.48,0,0,1,.575.078A.752.752,0,0,1,103.415,43.407Zm2.593.165a10.389,10.389,0,0,1-1.568-.041h0l-.316-.046a1.068,1.068,0,0,1,.666-.039,4.116,4.116,0,0,1,1.3.05.638.638,0,0,1,.392.025A.813.813,0,0,1,106.008,43.572Zm4.855-.174a.338.338,0,0,1-.027-.058c0-.006.016-.016.024-.024a.315.315,0,0,1,.027.059C110.888,43.38,110.871,43.39,110.863,43.4Z"/><path class="cls-1" d="M7.805,42.426a1.494,1.494,0,0,1-.891-.656,2.594,2.594,0,0,0-.6-.752,1.735,1.735,0,0,1-.443-.8,1.557,1.557,0,0,1,0-.6A8.778,8.778,0,0,1,6.39,38c.2-.426.368-.848.54-1.271.289-.836.733-1.616,1.1-2.412.452-.993.9-1.986,1.277-2.993a4.5,4.5,0,0,1,.282-.6c.193-.293.307-.6.475-.917a10.233,10.233,0,0,1,.865-1.611,7.559,7.559,0,0,0,.5-.975c.251-.487.477-1,.781-1.492a2.067,2.067,0,0,0,.227-.536,1.033,1.033,0,0,1,.252-.514c.11-.122.06-.221-.07-.227-.078-.014-.13-.006-.208-.021-.234-.017-.307-.164-.327-.372a.6.6,0,0,1,.307-.548,1,1,0,0,1,.29-.1c.211-.059.448-.122.685-.185a.62.62,0,0,0,.343-.132c.027,0,.055-.061.056-.087s-.051-.045-.077-.041a.993.993,0,0,0-.472.072,7.81,7.81,0,0,1-.764.169c-.025,0-.077-.014-.076-.04a.106.106,0,0,1,.081-.092.643.643,0,0,1,.211-.059c.289-.07.606-.145.895-.216.105-.016.237-.063.343-.079a.264.264,0,0,0,.161-.157c.029-.057-.022-.1-.18-.077-.289.044-.579.114-.893.163-.157.024-.316.074-.5.1s-.286-.061-.252-.278a1.043,1.043,0,0,1,.626-.755,2.606,2.606,0,0,1,.447-.1c.342-.078.684-.13,1.052-.24.079-.012.159-.051.237-.062q1.338-.166,2.677-.41a7.7,7.7,0,0,0,.761-.118,9.369,9.369,0,0,1,2.3-.061,1.029,1.029,0,0,1,.865.685c.048.1-.06.221-.165.237a3.042,3.042,0,0,1-.5,0,8.382,8.382,0,0,0-2.588.106l-2.048.314c-.263.066-.422.143-.372.215.073.147.232.07.337.054l2.992-.458q.825-.087,1.648-.095a3.538,3.538,0,0,1,.519.079c.052.019.1.037.049.1-.055.088-.084.172.019.209.232.1.278.3.322.531.016.288-.066.406-.328.42a6.95,6.95,0,0,1-.784.015,12.741,12.741,0,0,0-2.828.248c-.368.056-.736.139-1.1.222a1.048,1.048,0,0,0-.291.1c-.054.035-.107.069-.109.122-.029.084.075.094.128.086l.5-.076c.709-.109,1.417-.217,2.152-.3a13.5,13.5,0,0,1,1.466-.146,3.3,3.3,0,0,1,.912.072c.051.018.1.037.1.09.024.049-.029.083-.056.114a1.456,1.456,0,0,1-.873.345c-.889.03-1.781.167-2.673.277.03-.11.134-.1.187-.107a6.093,6.093,0,0,1,.708-.082,3.55,3.55,0,0,0,.734-.113c.027-.031.055-.061.056-.088a.046.046,0,0,0-.052-.045.084.084,0,0,0-.077-.014,15.967,15.967,0,0,0-2.7.414,1.729,1.729,0,0,0-.343.105c-.026,0-.028.057-.055.088.025.022.05.045.076.041l.394-.06a2.014,2.014,0,0,1,.393-.034,1.359,1.359,0,0,1-.608.225.941.941,0,0,0-.808.705c-.262.8-.552,1.642-.788,2.47,0,.053-.03.11-.032.163-.032.164.068.28.252.251a11.074,11.074,0,0,1,1.284-.117,5.68,5.68,0,0,1,.678,0,1.4,1.4,0,0,1,.85.345.548.548,0,0,1,.226.282,1.537,1.537,0,0,0,.5.715c.051.045.075.1.126.14a.575.575,0,0,1,.11.589c-.028.084-.031.164-.06.248a.211.211,0,0,0,.069.253c.077.041.155.082.124.192a.7.7,0,0,1-.163.21.727.727,0,0,1-.476.179l-.391-.02a3.606,3.606,0,0,0-1.286.171,5.007,5.007,0,0,1-1.054.293,4.982,4.982,0,0,0-.58.168,4.644,4.644,0,0,1-1.29.33.844.844,0,0,0-.829.576.749.749,0,0,1-.11.175c-.027,0-.023-.1-.079-.014.027,0,.052.018.079.014a.885.885,0,0,1-.227.537c0-.054,0-.107-.022-.129-.025-.049-.1-.011-.133.046-.056.115-.138.233-.2.374-.2.532-.376,1.06-.577,1.593-.142.338-.311.707-.453,1.046a6.424,6.424,0,0,0-.353,1.189c-.03.083.048.1.128.059.053-.034.106-.042.131-.02.1.2.256.146.415.069.371-.137.713-.242,1.085-.4a6.1,6.1,0,0,1,1.477-.438,2.385,2.385,0,0,1,.886.023.711.711,0,0,1,.588.385.7.7,0,0,0,.408.281,1.006,1.006,0,0,1,.808.8,1.565,1.565,0,0,0,.245.49c.126.113.067.307-.094.437a.893.893,0,0,1-.477.2,6.621,6.621,0,0,0-1.77.614,6.54,6.54,0,0,1-.636.282c-.107.07-.239.117-.372.19a1.746,1.746,0,0,1-.478.231.618.618,0,0,0-.291.124,3.393,3.393,0,0,1-.906.534c-.213.113-.426.224-.612.331-.239.117-.451.229-.689.318a3.193,3.193,0,0,0-.583.248,2.015,2.015,0,0,1-1.079.244A4.885,4.885,0,0,1,7.805,42.426Zm4.237-7.882a1.16,1.16,0,0,1-.121.494,1.574,1.574,0,0,0-.136.179A1.537,1.537,0,0,1,12.042,34.544Zm.454-1.073-.025.005a3.05,3.05,0,0,1-.429,1.068A2.472,2.472,0,0,1,12.5,33.471ZM15.141,25.6l.027-.03-.053.034Zm4.556-3.47a.072.072,0,0,0,.054-.061c0-.026-.023-.075-.049-.071a2.732,2.732,0,0,0-.47-.007c-1.074.111-2.125.3-3.176.486a.37.37,0,0,0-.158.051.073.073,0,0,0-.054.061.066.066,0,0,0,.075.094,2.054,2.054,0,0,0,.393-.06c.526-.081,1.025-.184,1.551-.29l1.126-.094Zm.281,1.726v-.026l-.027.03Z"/><path class="cls-1" d="M24.729,39.279a5.529,5.529,0,0,1-1.572-1.37,4.742,4.742,0,0,1-.665-1.165,9.557,9.557,0,0,1-.607-2.1,3.72,3.72,0,0,1-.011-1.212,1.643,1.643,0,0,1,.422-.91,5.152,5.152,0,0,1,.729-.693.935.935,0,0,1,1.073-.084c.154.082.149.241-.011.344-.188.135-.349.265-.536.4a.113.113,0,0,0-.029.083c0,.053.05.072.1.064.266-.12.5-.21.742-.325a5.455,5.455,0,0,0-.725.586c-.211.085-.319.181-.241.2.105-.015.161-.13.242-.222a1.264,1.264,0,0,0,.581-.194,1.619,1.619,0,0,1,.187-.108c.16-.1.344-.158.469.007a.485.485,0,0,1-.021.637,2.681,2.681,0,0,1-.244.275c-.029.057-.083.118-.111.175a.082.082,0,0,0,0,.106.06.06,0,0,0,.1.011,1.961,1.961,0,0,0,.32-.181.524.524,0,0,1,.133-.073c.052-.008.078-.012.1.011,0,0,.024.048,0,.079a4.433,4.433,0,0,1-.3.389.913.913,0,0,0-.28.544c0,.053,0,.133-.007.213a2.436,2.436,0,0,0-.172.448c-.087.251-.039.376.194.446a1.716,1.716,0,0,0,.855.185,3.47,3.47,0,0,0,1.154-.177,3.81,3.81,0,0,1,.741-.271,4.627,4.627,0,0,0,1.332-.812,3.606,3.606,0,0,1,.563-.4A7.385,7.385,0,0,0,31.3,31.937l.027-.03c.2-.373.176-.582-.105-.777a5.913,5.913,0,0,0-1.023-.608,17.863,17.863,0,0,1-3.2-1.7,3.981,3.981,0,0,1-1.636-1.808,1.856,1.856,0,0,1-.176-.95,6.969,6.969,0,0,0-.112-1.3,2.813,2.813,0,0,1,.839-2.4,3.974,3.974,0,0,1,.913-.774c.161-.1.295-.2.428-.3.4-.327.8-.573,1.2-.845a14.549,14.549,0,0,1,1.916-1.059,14.78,14.78,0,0,1,2.173-.94,13.412,13.412,0,0,1,3.131-.717,3.224,3.224,0,0,1,1.173.058,1.59,1.59,0,0,1,1.166,1.008c.144.374.262.752.379,1.13a2.068,2.068,0,0,1,.112.564,4.1,4.1,0,0,0,.031.6,1.777,1.777,0,0,1-.331,1.318.813.813,0,0,1-.352.344,2.454,2.454,0,0,1-.773.461,8.014,8.014,0,0,0,.7-.582c-.049-.1-.13-.032-.183,0-.4.246-.827.523-1.227.769a1.7,1.7,0,0,1-.583.248c-.053.008-.1-.011-.1-.064,0-.027.029-.084.055-.087.134-.1.267-.173.4-.273.026,0,.028-.057.029-.084s-.051-.018-.078-.014l-.4.14c-.291.124-.42.064-.41-.228a4.743,4.743,0,0,0-.074-.886c-.02-.208-.1-.249-.28-.221-.079.012-.132.046-.211.059a21.178,21.178,0,0,0-1.986.832c-.292.15-.585.327-.879.477a14.677,14.677,0,0,0-1.628,1.069c-.347.237-.7.528-1.044.767a1.944,1.944,0,0,0-.216.191q-.322.286-.016.477c.435.251.872.474,1.308.7a8.039,8.039,0,0,1,1.558,1,5.558,5.558,0,0,1,1.329,1.619,9.377,9.377,0,0,1,.9,1.947,7.8,7.8,0,0,1,.347,2.085c.02.181-.089.3-.145.445-.086.2-.061.22.172.263-.061.273-.121.52-.183.794a3.274,3.274,0,0,1-.934,1.383c-.567.536-1.159,1.023-1.723,1.532a7.177,7.177,0,0,1-1.207.924,10.88,10.88,0,0,1-1.384.766,2.168,2.168,0,0,0-.4.219A2.434,2.434,0,0,1,27,39.933,4.348,4.348,0,0,1,24.729,39.279Zm-.152-4.729c.107-.095.215-.191.349-.291a1.554,1.554,0,0,1-.356.5C24.573,34.683,24.576,34.6,24.577,34.55ZM27.85,22.778c.055-.061.107-.1.11-.176a1.6,1.6,0,0,0-.725.613A4.218,4.218,0,0,0,27.85,22.778Zm-.168,14.094a5.079,5.079,0,0,0,.983-.493,8.836,8.836,0,0,0,1.529-1.185,1.916,1.916,0,0,0-.663.313,21.545,21.545,0,0,1-1.919,1.139c-.106.069-.29.1-.323.313A.7.7,0,0,0,27.682,36.872Zm2.3-.907c-.05-.071-.13-.006-.183,0-.453.281-.933.566-1.385.82a1.2,1.2,0,0,0-.351.343A4.29,4.29,0,0,0,29.985,35.965Zm-1.456,2.89a7.627,7.627,0,0,0,2.561-1.607.176.176,0,0,0,.055-.087.082.082,0,0,0,0-.107c0-.026-.051-.045-.077-.041a1.333,1.333,0,0,0-.266.147c-.746.458-1.467.911-2.212,1.315a.752.752,0,0,0-.349.265c-.025,0-.027.057-.028.083s.024.049.05.072c.026,0,.079-.012.1.011A.374.374,0,0,1,28.529,38.855Zm.819-14.089a18.468,18.468,0,0,1,3.282-2.061,15.331,15.331,0,0,1,2.278-.956,1.057,1.057,0,0,0,.372-.189l0-.053a.021.021,0,0,0-.026-.022.375.375,0,0,0-.288.044A16.989,16.989,0,0,0,32.4,22.582a18.416,18.416,0,0,0-3.257,2.083,1.7,1.7,0,0,0-.487.523A2.026,2.026,0,0,0,29.348,24.766Zm.131,14.55c-.161.13-.3.283-.506.289C28.87,39.594,29.136,39.422,29.479,39.316Zm1.3-.7a2.9,2.9,0,0,1-1.3.7A3.753,3.753,0,0,1,30.783,38.615ZM30.505,23c.586-.327,1.2-.658,1.834-.94a17.522,17.522,0,0,1,3.3-1.14.671.671,0,0,0,.371-.136.5.5,0,0,0,.107-.122c-.022-.076-.074-.121-.126-.113a2.65,2.65,0,0,0-.893.164,12.885,12.885,0,0,0-2.83,1.067,14.171,14.171,0,0,0-1.945,1.143c-.081.065-.135.126-.215.191a.067.067,0,0,0,.025.049l.025.022C30.291,23.169,30.372,23.078,30.505,23Zm.344-2.428a27,27,0,0,1,2.936-1.11l1.5-.388c.185-.055.395-.114.581-.168.025,0,.053-.035.08-.065,0-.08-.05-.072-.1-.064A9.17,9.17,0,0,0,34.4,19a17.371,17.371,0,0,0-2.643.959,11.533,11.533,0,0,0-1.223.637c-.027.03-.028.057,0,.079a.022.022,0,0,0,.026.023C30.663,20.657,30.77,20.615,30.849,20.576ZM31.8,37.852a2.057,2.057,0,0,1-1.018.763A4.489,4.489,0,0,1,31.8,37.852Zm.093-17.277c.979-.388,1.982-.7,2.984-1.012.158-.051.314-.022.424-.171-.124-.192-.287-.009-.417-.015a3.635,3.635,0,0,0-.526.107,17.691,17.691,0,0,0-2.434.928.979.979,0,0,0-.238.115c-.028.031-.055.061-.056.088,0,.052.077.041.1.037C31.787,20.617,31.84,20.609,31.894,20.575Zm1.016,16.13a1.142,1.142,0,0,1,.427-.276,7.364,7.364,0,0,1-1.11,1.173,1.824,1.824,0,0,1-.426.25C32.154,37.455,32.506,37.084,32.91,36.705Zm.756-.723a.484.484,0,0,0-.108.1A.484.484,0,0,1,33.666,35.982Zm-.026-.022.026.022Zm3.225-12.636a1.854,1.854,0,0,1-.3.2C36.68,23.378,36.784,23.389,36.865,23.324Zm.212-.113c-.08.039-.133.074-.212.113A2.086,2.086,0,0,1,37.077,23.211Z"/><path class="cls-1" d="M38.832,36.959c-.072-.173-.151-.161-.309-.111-.343.106-.393.061-.515-.211a1.362,1.362,0,0,1-.1-.3.787.787,0,0,0-.222-.361,1.011,1.011,0,0,1-.328-1.085,2.543,2.543,0,0,1,.208-.745c.172-.448.37-.9.542-1.35.633-1.733,1.4-3.407,2.183-5.086.31-.681.673-1.343.983-2.024.14-.286.255-.594.422-.883.253-.54.559-1.089.839-1.633a8.7,8.7,0,0,0,.419-.83,7.5,7.5,0,0,1,.665-1.105c.137-.179.062-.3-.147-.294-.079.012-.158.051-.237.062.16-.1.294-.2.455-.307.026,0,.053-.061.054-.087,0-.054-.076-.041-.1-.037-.292.15-.583.274-.875.424-.186.082-.373.189-.558.27-.212.086-.238.09-.308-.163-.023-.076-.076-.068-.127-.086-.311-.085-.336-.107-.273-.434a.89.89,0,0,0-.039-.39.479.479,0,0,1,.042-.455,1.989,1.989,0,0,1,.576-.827c.295-.231.617-.464.911-.7.108-.1.242-.169.349-.264a3.468,3.468,0,0,1,.907-.561,4.966,4.966,0,0,1,.531-.266,10.782,10.782,0,0,1,2.2-1,9.381,9.381,0,0,1,3.233-.627c.235-.009.444-.042.681-.051.129.006.234.016.337.027a3.577,3.577,0,0,1,2.973,2.4,7.9,7.9,0,0,1,.477,2.856,4.63,4.63,0,0,1-.742,2.622c-.054.061-.056.114-.083.145-.46.465-.741,1.063-1.225,1.48-.322.261-.57.616-.917.854a1.583,1.583,0,0,0-.932.539.182.182,0,0,0-.03.11c.026,0,.078.014.1-.017a3.452,3.452,0,0,0,.294-.2,2.38,2.38,0,0,1,.455-.307,3.338,3.338,0,0,1-.756.7.451.451,0,0,1-.318.154.846.846,0,0,0-.53.214.7.7,0,0,1-.16.13c-.755.7-1.582,1.219-2.362,1.866a.231.231,0,0,1-.132.073A22.409,22.409,0,0,1,42.96,31.5c-.317.127-.636.282-.954.436-.212.085-.324.287-.46.466a.045.045,0,0,0-.051-.045c0-.026-.026,0-.026,0,0,.054.052.018.1.037a5.408,5.408,0,0,1-.564,1.2c0-.026,0-.106-.049-.072-.027,0-.029.058-.055.088-.029.057-.057.141-.086.2a.515.515,0,0,1-.108.122.5.5,0,0,1-.109.122l0,.08s.054-.034.055-.061c.027-.03.029-.084.057-.141a.546.546,0,0,1,.108-.122,2.258,2.258,0,0,0,.087-.224c.052-.008.077.014.1.01a3.323,3.323,0,0,1-.7,1.294,1.144,1.144,0,0,0-.249.408c0,.08.022.129.1.144v-.027a1.337,1.337,0,0,1-.334.605c-.107.1-.058.194.018.262l-.027,0a1.836,1.836,0,0,1-.2.506v.026c-.207-.047-.342.079-.528.186C38.931,37.1,38.88,37.084,38.832,36.959Zm.788-.147-.026,0Zm.228-.563v.027l-.027,0Zm.316-.84a.894.894,0,0,1,.112-.2,1.959,1.959,0,0,0-.113.229Zm.113-.228v0Zm2.29-14.368c.24-.142.506-.262.746-.4.292-.151.584-.3.9-.482a.612.612,0,0,0,.241-.2l0-.054c-.026,0-.025-.022-.051-.018a.773.773,0,0,0-.237.063,15.757,15.757,0,0,0-1.758,1.008c-.026,0-.053.035-.081.065l0,.053.052.045C42.436,20.86,42.488,20.852,42.567,20.813Zm.354,10.32a8.5,8.5,0,0,0,2.42-1.295,2.9,2.9,0,0,0,.27-.279.949.949,0,0,0,.214-.139,1.255,1.255,0,0,0,.291-.1c.159-.077.241-.2.189-.188a.26.26,0,0,0-.238.063,2.4,2.4,0,0,0-.243.248,1.938,1.938,0,0,1-.213.112c-.133.073-.291.124-.424.2A16.084,16.084,0,0,1,42.694,30.9a.346.346,0,0,0-.187.107.256.256,0,0,0-.056.114c-.028.058.023.076.076.095A1.091,1.091,0,0,0,42.921,31.133Zm-.1.6c.026-.031.052-.035.1-.043.026,0,.025.022.052.019-.028.057-.081.064-.133.073C42.821,31.782,42.8,31.759,42.823,31.729Zm.1-10.574.026,0a.113.113,0,0,0-.079.038A.1.1,0,0,1,42.922,21.155ZM43.24,21a1.722,1.722,0,0,0-.318.155A1.722,1.722,0,0,1,43.24,21Zm.181,8.5.027-.031V29.5c-.079.012-.132.046-.185.055-.026,0-.027.03-.053.034,0,.053.023.076.076.041A.774.774,0,0,0,43.421,29.5Zm.171-.449c.027-.031.028-.057.055-.061-.027,0-.052-.018-.079.012s-.081.065-.108.1A.219.219,0,0,1,43.592,29.05Zm.392,2.289a.236.236,0,0,0,.106-.042l-.026,0c-.028.03-.054.034-.081.065l-.026,0C43.931,31.348,43.931,31.348,43.984,31.339Zm.145-4.245c-.026,0-.1.016-.055.088C44.1,27.151,44.1,27.124,44.129,27.094Zm.228,4.03c.9-.428,1.732-1.031,2.611-1.535.24-.142.455-.334.7-.5a3.913,3.913,0,0,1,.667-.445,4.158,4.158,0,0,1-1.128.938c-.667.419-1.334.838-2.026,1.234a3.554,3.554,0,0,1-1.087.484C44.17,31.258,44.25,31.193,44.357,31.124Zm.367-13.07a4.939,4.939,0,0,0,1.164-.415,13.066,13.066,0,0,1,1.346-.444c.765-.223,1.554-.423,2.317-.567a.743.743,0,0,0,.395-.113,4.225,4.225,0,0,0-1.412.058,14.759,14.759,0,0,0-3.329,1.17,1.462,1.462,0,0,0-.481.311,1.479,1.479,0,0,0-.5.289A1.472,1.472,0,0,0,44.724,18.054Zm.591,8.7c.35-.291.724-.559,1.1-.828A18.3,18.3,0,0,0,49.1,23.639c.3-.283.569-.615.891-.9a18.631,18.631,0,0,0,2.2-2.368,2.84,2.84,0,0,0,.3-.443c.112-.228.09-.357-.088-.488a1.7,1.7,0,0,0-.565-.283,4.528,4.528,0,0,0-1.22-.209,8.189,8.189,0,0,0-2.277.19,2.043,2.043,0,0,0-.717.321c-.107.1-.138.233-.036.3.076.068.18.078.15.215a2.964,2.964,0,0,1-.318.893c-.246.328-.312.734-.585,1.067a.36.36,0,0,0-.031.163,1.8,1.8,0,0,1-.233.7c-.251.487-.5.947-.78,1.439-.049-.072-.127-.113-.184.028a.7.7,0,0,0,.211-.059c-.255.593-.614,1.177-.921,1.751a.743.743,0,0,1-.3.31c-.079.038-.16.1-.137.206a1.494,1.494,0,0,1-.127.653c-.031.163.1.249.229.176A5.223,5.223,0,0,0,45.315,26.753Zm-.709-8.285a8.373,8.373,0,0,0,1.827-.781,1.206,1.206,0,0,0,.525-.081c.554-.137,1.108-.3,1.634-.435a1.59,1.59,0,0,0,.609-.252c-.1-.01-.156,0-.182-.024a11.035,11.035,0,0,0-2.187.572.921.921,0,0,0-.4.22,4.682,4.682,0,0,0-1.827.781v0Zm.25,7.2.028-.031-.028.031c-.055.087-.187.134-.139.258C44.824,25.852,44.827,25.747,44.856,25.663Zm.334-.606v-.026l-.027.03Zm.689,2.772a1.023,1.023,0,0,1,.214-.139,1.023,1.023,0,0,0-.214.139,2.141,2.141,0,0,1-.213.111A2.141,2.141,0,0,0,45.879,27.829Zm2.091-9.243.708-.108c.368-.083.71-.162,1.078-.218.026,0,.08-.039.081-.065.029-.084-.024-.075-.076-.094a6.559,6.559,0,0,0-2.125.3c-.157.024-.238.116-.215.191.05.072.129.06.207.048A1.553,1.553,0,0,0,47.97,18.586Zm.09.409a.205.205,0,0,0-.078-.014c-.027.03-.053.034-.081.065.027,0,.051.045.077.04A.106.106,0,0,0,48.06,19Zm.434,9.462a15.659,15.659,0,0,1,1.259-.932,4.017,4.017,0,0,1-1.422,1.116A1.277,1.277,0,0,1,48.494,28.457Zm1.34-1c.026,0,.026,0,.027-.03a.461.461,0,0,1-.108.095C49.78,27.5,49.807,27.491,49.834,27.46Zm1.776-1.539a.475.475,0,0,1,.107-.095.267.267,0,0,0-.108.122Zm.409-.537a.546.546,0,0,1,.109-.123.536.536,0,0,0-.108.1l-.027.031Z"/><path class="cls-1" d="M64.676,33.343c.138-.232.276-.465.415-.7.054-.062.11-.149.059-.194-.076-.068-.157.024-.212.085-.163.184-.326.367-.462.546a2.266,2.266,0,0,1-.217.245.407.407,0,0,1-.579.115.51.51,0,0,1-.134-.666c.03-.084.085-.2.114-.282,0-.026-.024-.048-.05-.071l-.052.008c-.082.091-.189.187-.351.344.058-.194.116-.335.172-.475,0-.027,0-.08-.023-.076a.086.086,0,0,0-.078-.015c-.08.066-.161.158-.242.223-.134.1-.265.093-.339-.027a1.088,1.088,0,0,1-.075-.86c.286-.73.416-1.489.754-2.2a8.078,8.078,0,0,0,.385-1.326,3.608,3.608,0,0,0,.149-.551c0-.106.008-.239.012-.345-.023-.1-.1-.143-.179-.1a2.285,2.285,0,0,0-.4.14q-.836.324-1.668.651c-.023-.076-.073-.147-.154-.082a3.717,3.717,0,0,0-.785.833,1.236,1.236,0,0,0-.139.232c-.366.8-.732,1.564-1.1,2.36-.226.483-.452.993-.678,1.5a7.257,7.257,0,0,0-.431,1.148.315.315,0,0,1-.3.283c-.158.024-.267.172-.375.268-.19.214-.294.2-.417-.015,0-.027,0-.027-.025-.049-.1-.169-.125-.166-.287-.009a.506.506,0,0,1-.108.122.216.216,0,0,1-.264.067.717.717,0,0,1-.476-.587c0-.106-.019-.208-.016-.287-.022-.1-.073-.148-.179-.105-.422.117-.6-.094-.717-.418a1.886,1.886,0,0,1,.034-1.008,5.515,5.515,0,0,1,.2-.586,1.812,1.812,0,0,0,.1-.729,1.052,1.052,0,0,1,.091-.383c.057-.141.032-.19-.126-.139l-.236.036a.348.348,0,0,1-.332-.213.454.454,0,0,1,.119-.44c.161-.131.349-.292.51-.422a2.057,2.057,0,0,0,.215-.165c.162-.156.476-.178.511-.474-.259-.013-.425.223-.611.358a3.812,3.812,0,0,1-.721.453,1.666,1.666,0,0,1,.486-.47c.268-.2.562-.4.856-.606a1.5,1.5,0,0,0,.241-.169c.027-.031.082-.119.057-.141,0-.053-.077-.068-.1-.037a6.336,6.336,0,0,0-.56.349l-.964.7a.733.733,0,0,1-.162.13c-.08.039-.157.024-.154-.056a1.011,1.011,0,0,1,.346-.95c.3-.257.592-.539.889-.823a4.1,4.1,0,0,1,.534-.345c.186-.108.4-.22.612-.332a1.558,1.558,0,0,0,.626-.729,10.6,10.6,0,0,0,.561-1.168,3.3,3.3,0,0,1,.2-.427,9.187,9.187,0,0,0,.595-1.332,8.908,8.908,0,0,1,.757-1.541,13.457,13.457,0,0,0,.62-1.336c.085-.2.169-.368.28-.57.358-.557.718-1.14,1.076-1.7a2.292,2.292,0,0,0,.168-.342,3.712,3.712,0,0,1,.528-.953c.493-.656.909-1.353,1.452-1.991a9.428,9.428,0,0,1,.652-.733c.377-.348.73-.745,1.16-1.1a8.2,8.2,0,0,1,.962-.65.949.949,0,0,1,1.069.048c.127.112.094.276-.092.383l-.48.311c-.054.035-.108.1-.058.142.027.022.078.014.131.006l.239-.116c.08-.039.186-.081.265-.12.052.019.077.041.024.076a3.056,3.056,0,0,1-.27.252c.128.086.262-.04.368-.082l.239-.116a.35.35,0,0,1,.412.174.32.32,0,0,1-.013.371,1.118,1.118,0,0,0-.225.484.537.537,0,0,0-.109.122.475.475,0,0,1-.107.1.268.268,0,0,1-.109.122.268.268,0,0,0,.109-.122.272.272,0,0,0,.108-.122c.027-.031.081-.065.108-.1a.722.722,0,0,1,.237-.036c.131-.02.179.078.125.165-.084.145-.166.237-.248.355-.109.149-.191.267-.3.416a.091.091,0,0,0,.022.129l.131-.02a.88.88,0,0,0-.059.246.549.549,0,0,0,.344.607,1.294,1.294,0,0,1,.656.692c.169.37.366.709.51,1.083a3.981,3.981,0,0,1,.192,1.264c0,.632.009,1.292.013,1.925,0,.133-.035.27-.04.4a.7.7,0,0,0-.059.221,6.517,6.517,0,0,1-.415,2.2c-.2.638-.408,1.25-.612,1.862a13.9,13.9,0,0,1-.58,1.7,1.623,1.623,0,0,0-.143.365,18.681,18.681,0,0,1-.865,2.4c-.086.224-.2.452-.258.673a15.788,15.788,0,0,1-.987,2.157,2.264,2.264,0,0,1-.384.534,3.826,3.826,0,0,1,.2-.453c.254-.54.533-1.085.787-1.651a3.066,3.066,0,0,0,.2-.506,22.062,22.062,0,0,1,.8-2.129,3.206,3.206,0,0,0,.323-1.053c-.054.035-.105.043-.106.069-.372.955-.746,1.962-1.144,2.921a16.593,16.593,0,0,1-1.1,2.3c-.111.2-.248.382-.386.588a1.377,1.377,0,0,1-.269.253c-.081.065-.16.1-.237.062C64.564,33.545,64.62,33.431,64.676,33.343Zm-7.532-2.7a.033.033,0,0,0,.027-.031c-.025-.022-.051-.018-.052.008-.027.031,0,.027,0,.053A.032.032,0,0,0,57.144,30.643Zm1.24,2.687c.142-.338.258-.673.427-1.015.45-.941.9-1.907,1.351-2.874q.126-.256.255-.593c.027-.031,0-.08,0-.133-.025-.022-.05-.045-.077-.014a.36.36,0,0,0-.164.21c-.225.457-.45.94-.675,1.423-.367.8-.759,1.568-1.074,2.382-.059.194-.117.387-.176.555,0,.053,0,.132.023.128C58.327,33.444,58.357,33.361,58.384,33.33ZM60.338,23.5c-.03.111-.163.184-.088.278C60.331,23.688,60.308,23.612,60.338,23.5Zm.418-.776c.028-.057.083-.145.112-.2a.422.422,0,0,1,.082-.118l0-.079c-.026,0-.027.03-.054.061,0,.052-.029.083-.03.136a2.236,2.236,0,0,1-.113.228c-.028.058-.057.141-.085.2A2.182,2.182,0,0,0,60.756,22.725Zm1.065-2.143.027-.03-.027.03c-.245.3-.386.614-.28.544A.9.9,0,0,0,61.821,20.582Zm1.521,5.944a.073.073,0,0,0,.054-.061c-.024-.076-.076-.068-.13-.033-.475.151-.977.335-1.453.513-.079.011-.16.1-.239.142a.113.113,0,0,0-.03.084c0,.079.05.072.128.086A12.619,12.619,0,0,0,63.342,26.526ZM61.679,27.81v.026l-.026,0Zm.478-7.887-.027,0Zm.529-.978v-.027a2.011,2.011,0,0,0-.112.229C62.6,19.09,62.659,19,62.686,18.945Zm2.288,4.876a6.65,6.65,0,0,0,.2-.639,6.861,6.861,0,0,0,.48-1.842c.032-.163.09-.357.123-.547.206-.691.387-1.379.593-2.07a2.382,2.382,0,0,1,.062-.273l0-.08a.49.49,0,0,0-.074-.121c-.052-.018-.079.012-.133.074-.081.091-.087.251-.243.248a.531.531,0,0,0-.428.277c-.136.179-.248.381-.358.556-.334.605-.669,1.237-1.054,1.824-.606.912-1,1.87-1.505,2.765-.027.057-.03.136-.058.194,0,.026,0,.053.025.049s.051.018.077.014a.478.478,0,0,0,.189-.187c.14-.259.279-.518.392-.773a7.708,7.708,0,0,1,.724-1.325,4.863,4.863,0,0,0,.389-.667c.278-.517.53-1.031.808-1.522a5.261,5.261,0,0,1,.387-.614c.054-.061.083-.145.159-.078.027,0,0,.08-.031.137-.167.317-.361.663-.556.983-.22.351-.416.724-.611,1.1a1.407,1.407,0,0,1-.251.461,17.8,17.8,0,0,0-1.117,2.124,1.158,1.158,0,0,0-.03.137c-.03.11.02.155.1.2.1.01.183,0,.287.009a2.833,2.833,0,0,1,.941-.013C64.751,24.251,64.858,24.155,64.974,23.821Zm.327-8.814.081-.092.109-.122a.506.506,0,0,0,.108-.122l.109-.122.109-.122a.454.454,0,0,1,.107-.1.461.461,0,0,1,.083-.118c.053-.061.081-.092.108-.122a1.086,1.086,0,0,0,.322-.261v.027a.985.985,0,0,0-.321.234c-.027.03-.056.087-.082.117a.276.276,0,0,0-.109.123.454.454,0,0,0-.107.1.561.561,0,0,1-.109.122.516.516,0,0,1-.109.122.506.506,0,0,1-.108.122c-.027.031-.055.088-.083.119a.261.261,0,0,0-.108.122c-.027.03-.081.065-.108.095Zm.971,2.887c.029-.057,0-.08-.023-.076a.115.115,0,0,0-.053.035l0,.08C66.22,17.929,66.246,17.9,66.272,17.894Zm1.81,8.935a4.179,4.179,0,0,0,.459-1.206.044.044,0,0,0-.05-.044c-.027,0-.054.034-.08.064-.144.392-.315.788-.457,1.153,0,.026.023.076.049.072C68,26.894,68.056,26.859,68.082,26.829Zm.7-2.087v-.026l-.026,0c-.026,0-.026,0-.027.03S68.753,24.773,68.78,24.742Zm.174-.5-.026,0,.025.022Zm.294-.97a.211.211,0,0,0,.031-.136c.137-.18.194-.347.114-.282s-.085.2-.114.282c-.028.057-.055.088-.083.144l0,.08A.177.177,0,0,0,69.248,23.271Z"/><path class="cls-1" d="M83.1,32.05a.931.931,0,0,0-.149-.214.319.319,0,0,0-.419.037c-.135.127-.243.223-.4.193a.431.431,0,0,1-.357-.261,1.971,1.971,0,0,1-.2-.419.54.54,0,0,0-.453-.459.552.552,0,0,1-.457-.405,8.426,8.426,0,0,0-.7-1.635,3.1,3.1,0,0,1-.28-.986c-.174-1.029-.3-2.067-.39-3.108-.05-.811-.022-1.633-.1-2.44a2.378,2.378,0,0,0-.062-.465.147.147,0,0,0-.261.013,2.41,2.41,0,0,0-.17.369,2.019,2.019,0,0,1-.443.728,10.418,10.418,0,0,1,.431-1.122c.114-.281.2-.558.316-.866,0-.027,0-.106-.075-.1a.12.12,0,0,0-.08.039,4.468,4.468,0,0,0-.25.46c-.115.309-.255.594-.4.906-.428,1.095-.885,2.221-1.417,3.306-.31.655-.594,1.331-.905,2.013-.45.966-.8,1.97-1.326,2.922a.43.43,0,0,0-.065.352c0,.027,0,.027.026.023,0,.026.025.022.051.019.029-.058.083-.119.111-.175q.42-.818.76-1.621c.366-.769.706-1.56,1.046-2.352.339-.765.7-1.48.991-2.264A6.194,6.194,0,0,1,78.268,23a2.529,2.529,0,0,1-.2.612c-.2.506-.4.985-.6,1.491-.565,1.248-1.13,2.522-1.669,3.793-.339.738-.677,1.449-1.015,2.187a6.357,6.357,0,0,0-.255.594.922.922,0,0,1-.223.43.247.247,0,0,1-.134.073c-.051-.018-.05-.071-.021-.128,0-.08.057-.167.06-.247.028-.031,0-.08-.024-.076a.181.181,0,0,0-.105.043c-.109.122-.218.271-.353.4a.79.79,0,0,1-.428.3c-.131.021-.234-.043-.2-.18a1.1,1.1,0,0,1,.112-.254c.03-.111.06-.221-.042-.285-.078-.041-.183,0-.293.151a1.909,1.909,0,0,0-.191.267c-.165.21-.323.26-.475.125a.892.892,0,0,1-.449-.617c-.02-.155-.043-.258-.2-.286-.051-.019-.075-.095-.072-.174-.021-.129-.125-.166-.229-.177-.366,0-.408-.28-.531-.5a.72.72,0,0,1,.023-.69,12.93,12.93,0,0,0,.6-1.623c.09-.33.231-.643.345-.95.455-1.073.934-2.1,1.361-3.165.427-1.016.9-1.987,1.278-3.02.173-.475.347-.977.546-1.457.229-.589.535-1.164.817-1.735a16.147,16.147,0,0,0,.573-1.513c.2-.479.372-.955.545-1.43a.789.789,0,0,1,.113-.255,18.807,18.807,0,0,0,.93-2.017c.028-.057.032-.163.086-.224a10.446,10.446,0,0,0,.814-1.655,2.392,2.392,0,0,0,.258-.7.485.485,0,0,1,.639-.361.41.41,0,0,1,.154.081,3.921,3.921,0,0,1,1.414,1.42,3.5,3.5,0,0,1,.537,1.845,2.6,2.6,0,0,0,.1.776,21.517,21.517,0,0,1,.325,3.487c.024.841-.005,1.69.018,2.558a12.049,12.049,0,0,1,0,1.4c0,.08.021.155.018.235.046.2.121.3.2.259.159-.05.137-.179.193-.293a8.308,8.308,0,0,0,.434-1.254,7.279,7.279,0,0,1,.262-.78,5.877,5.877,0,0,0,.293-.942,5.568,5.568,0,0,1,.344-.9,5.6,5.6,0,0,0,.517-1.4,14.3,14.3,0,0,1,.83-2.134c.114-.255.228-.536.341-.791a21.168,21.168,0,0,1,1.667-2.974c.057-.115.113-.229.168-.343a6.666,6.666,0,0,1,.746-1.2,5.951,5.951,0,0,1,.491-.6c.514-.528.984-.547,1.306-.016a3.106,3.106,0,0,0,.53.553.866.866,0,0,1,.255.911c-.029.11-.034.243-.064.352a2.927,2.927,0,0,1-.269,1.019,2.23,2.23,0,0,0-.092.41l-.027,0,.405-.379c.054-.061.108-.122.185-.081s.047.151-.007.212c-.14.259-.2.532-.341.792a5.617,5.617,0,0,1-.481,1.1c-.042.481-.422.882-.489,1.341a.087.087,0,0,0,.023.077c.026,0,.053-.036.08-.04.027-.03.081-.091.106-.068s.024.075.024.1c-.113.228-.225.457-.311.68-.024-.075-.02-.181-.153-.134,0,.026-.027.03-.027.057-.005.132.1.063.181.051a6.168,6.168,0,0,1-.525,1.612c-.316.84-.684,1.688-1.027,2.532a1.2,1.2,0,0,1-.138.233l-.052.008-.026-.023a.622.622,0,0,1,.089-.3,4.515,4.515,0,0,0,.454-1.073,2.446,2.446,0,0,1,.172-.449,6.174,6.174,0,0,0,.342-.844,7.435,7.435,0,0,1,.315-.788.084.084,0,0,0-.049-.124c-.026,0-.053.034-.08.065C89,16,89,16.022,89,16.048a20.185,20.185,0,0,0-.826,2,1.871,1.871,0,0,1-.226.51,4.2,4.2,0,0,0-.538,1.217,2.2,2.2,0,0,1-.167.343,2.8,2.8,0,0,0-.206.638,3.8,3.8,0,0,1-.437,1.361,1.983,1.983,0,0,0-.231.642,13.679,13.679,0,0,1-.553,1.695c-.059.194-.118.388-.177.555a6.823,6.823,0,0,1-.354,1.216,2.174,2.174,0,0,0-.2.559c-.03.136-.14.285.013.393.133-.1.112-.228.169-.369a3.057,3.057,0,0,0,.226-.483,5.244,5.244,0,0,1-.442,1.467c-.025-.049-.048-.125-.127-.113a.219.219,0,0,0-.111.2c0,.08.049.1.1.037.054-.035.082-.092.136-.126a1.064,1.064,0,0,1-.256.62c-.138.206-.223.4-.047.587.049.1-.006.186-.113.282a.781.781,0,0,0-.329.446.225.225,0,0,0,0,.133.088.088,0,0,0,.13-.02.91.91,0,0,1,.163-.157c-.03.083-.033.189-.062.3a.416.416,0,0,1-.168.316.477.477,0,0,0-.279.518A1.625,1.625,0,0,1,83.44,32.1C83.279,32.261,83.175,32.25,83.1,32.05ZM71.923,30.7a.187.187,0,0,1,.03-.111l-.082.092s-.026.03,0,.026C71.869,30.736,71.9,30.732,71.923,30.7Zm1.359-3.085c0-.027-.025-.023-.025-.05l-.027.031,0,.053A.1.1,0,0,1,73.282,27.617ZM74.533,24.6c.026,0,0-.027,0-.053-.026,0-.052.008-.028.057Zm9.224,6.638-.052.008.025.022Zm.838-1.58v0Zm1-3.454c-.026.03-.081.091-.107.122A.513.513,0,0,1,85.6,26.2Zm.124-.52a3.877,3.877,0,0,0-.124.52A1.294,1.294,0,0,1,85.723,25.684Zm.092-.437.025.023a2.553,2.553,0,0,0-.117.414C85.753,25.547,85.784,25.41,85.815,25.247Zm.262-.779a1.283,1.283,0,0,1-.262.779l.025.023A1.276,1.276,0,0,1,86.077,24.468Zm.176-.555c.09-.357.181-.741.272-1.1a2.193,2.193,0,0,1,.31-.681c.027,0,.054-.034.08-.038a.084.084,0,0,1,.023.075c.026.023,0,.027,0,.054q-.3.837-.605,1.676a.115.115,0,0,1-.053.035A.021.021,0,0,1,86.253,23.913Zm.864-2.376c0-.027.026-.031.026,0v.026l-.026,0Zm.18-.687.087-.251c.027-.058.083-.145.111-.2a2.8,2.8,0,0,1-.177.607C87.214,20.967,87.3,20.9,87.3,20.85Zm.227-.537c0-.053.028-.057.053-.034a.114.114,0,0,0-.028.056c-.026,0-.053.036-.08.066C87.5,20.371,87.5,20.344,87.524,20.313Zm2.294-7.558a.347.347,0,0,0-.088.278C89.842,12.805,89.872,12.694,89.818,12.755Zm-.027-3.823-.026,0,.025.049Zm1.2,1.531.025.023-.027.031Z"/><path class="cls-1" d="M99.8,27.961c.138-.232.277-.464.415-.7.054-.061.11-.148.059-.193-.076-.069-.157.024-.212.085-.163.183-.325.366-.462.546a2.25,2.25,0,0,1-.217.244.406.406,0,0,1-.579.115.51.51,0,0,1-.134-.666c.029-.083.085-.2.115-.281,0-.027-.025-.049-.051-.072l-.053.008c-.081.092-.188.187-.35.344.059-.193.116-.334.173-.475,0-.027,0-.08-.024-.076a.086.086,0,0,0-.078-.014c-.08.065-.161.157-.242.222-.134.1-.265.093-.339-.027a1.087,1.087,0,0,1-.075-.86c.286-.73.417-1.489.754-2.2a8.067,8.067,0,0,0,.385-1.325,3.621,3.621,0,0,0,.149-.552c0-.1.008-.238.012-.344-.023-.1-.1-.143-.18-.105a2.436,2.436,0,0,0-.4.14l-1.667.651c-.024-.075-.073-.147-.154-.081a3.7,3.7,0,0,0-.785.833,1.205,1.205,0,0,0-.139.232c-.366.8-.731,1.564-1.1,2.359-.226.483-.452.993-.678,1.5a7.16,7.16,0,0,0-.431,1.148.315.315,0,0,1-.3.283c-.157.024-.266.173-.374.269-.19.213-.294.2-.417-.016,0-.026,0-.026-.025-.048-.1-.17-.125-.166-.286-.009a.581.581,0,0,1-.109.122.216.216,0,0,1-.264.066.715.715,0,0,1-.476-.587c0-.106-.019-.208-.016-.287-.022-.1-.073-.147-.179-.105-.422.117-.6-.093-.717-.418a1.9,1.9,0,0,1,.034-1.008,5.65,5.65,0,0,1,.2-.585,1.815,1.815,0,0,0,.1-.729,1.052,1.052,0,0,1,.091-.384c.056-.14.032-.189-.126-.139-.079.012-.157.025-.237.036a.348.348,0,0,1-.331-.213.455.455,0,0,1,.119-.44c.161-.13.349-.292.51-.422a1.931,1.931,0,0,0,.215-.164c.162-.157.476-.179.512-.475-.26-.013-.426.224-.612.358a3.812,3.812,0,0,1-.721.453,1.679,1.679,0,0,1,.486-.47c.268-.2.562-.4.856-.606a1.4,1.4,0,0,0,.241-.169c.027-.03.083-.118.056-.141,0-.053-.076-.067-.1-.037a6.6,6.6,0,0,0-.56.35l-.964.7a.7.7,0,0,1-.162.13c-.08.039-.157.024-.154-.055a1.013,1.013,0,0,1,.346-.951c.3-.256.592-.539.889-.822a4.215,4.215,0,0,1,.534-.346c.186-.108.4-.219.612-.331a1.56,1.56,0,0,0,.626-.73,10.51,10.51,0,0,0,.561-1.168,3.29,3.29,0,0,1,.2-.426,9.121,9.121,0,0,0,.594-1.332,8.986,8.986,0,0,1,.758-1.541,13.671,13.671,0,0,0,.62-1.336,6.248,6.248,0,0,1,.28-.571c.358-.556.718-1.139,1.076-1.7a2.245,2.245,0,0,0,.168-.342,3.69,3.69,0,0,1,.528-.952c.493-.656.909-1.353,1.452-1.991a9.442,9.442,0,0,1,.652-.734c.377-.347.73-.745,1.16-1.1a8.454,8.454,0,0,1,.962-.65.952.952,0,0,1,1.069.048c.127.113.094.276-.092.384l-.48.311c-.054.035-.108.1-.058.141.026.022.078.014.131.006l.239-.116c.08-.038.186-.081.265-.119.052.018.077.041.024.075a3.216,3.216,0,0,1-.27.253c.128.086.263-.04.368-.083l.239-.116a.35.35,0,0,1,.412.174.319.319,0,0,1-.013.372,1.119,1.119,0,0,0-.225.483.523.523,0,0,0-.109.123.441.441,0,0,1-.108.1.263.263,0,0,1-.108.123.263.263,0,0,0,.108-.123.258.258,0,0,0,.109-.122c.027-.031.081-.065.108-.1a.722.722,0,0,1,.237-.036c.131-.02.179.078.125.166-.084.144-.166.236-.248.354-.109.149-.191.267-.3.416a.091.091,0,0,0,.023.129l.13-.02a.88.88,0,0,0-.059.246.55.55,0,0,0,.344.608,1.288,1.288,0,0,1,.656.691c.169.37.366.709.51,1.083a3.99,3.99,0,0,1,.192,1.264c0,.633.009,1.292.013,1.925-.005.133-.035.27-.04.4a.7.7,0,0,0-.059.22,6.508,6.508,0,0,1-.415,2.2c-.2.639-.408,1.25-.612,1.863a13.714,13.714,0,0,1-.58,1.7,1.65,1.65,0,0,0-.143.366,18.866,18.866,0,0,1-.864,2.4c-.087.225-.2.453-.259.673a15.746,15.746,0,0,1-.987,2.158,2.306,2.306,0,0,1-.384.534,3.669,3.669,0,0,1,.2-.453c.254-.54.534-1.085.787-1.652a3.031,3.031,0,0,0,.2-.506,22.263,22.263,0,0,1,.8-2.129,3.2,3.2,0,0,0,.323-1.052c-.054.034-.105.042-.106.069-.372.954-.746,1.962-1.144,2.92a16.6,16.6,0,0,1-1.1,2.306c-.111.2-.248.381-.386.588a1.345,1.345,0,0,1-.269.252c-.081.065-.16.1-.237.062C99.688,28.163,99.744,28.049,99.8,27.961Zm-7.532-2.7a.033.033,0,0,0,.028-.031c-.026-.022-.052-.018-.052.009-.028.03,0,.026,0,.053A.032.032,0,0,0,92.268,25.261Zm1.24,2.688c.142-.339.258-.673.427-1.016.45-.94.9-1.906,1.35-2.873q.128-.256.256-.594c.027-.03,0-.079,0-.132-.025-.023-.051-.046-.077-.014a.355.355,0,0,0-.164.209c-.225.457-.45.94-.675,1.424-.367.794-.759,1.567-1.074,2.381-.059.194-.117.388-.176.555,0,.053,0,.132.022.128C93.452,28.063,93.481,27.979,93.508,27.949Zm1.954-9.829c-.03.11-.163.184-.088.278C95.456,18.306,95.432,18.23,95.462,18.12Zm.418-.777c.028-.057.083-.144.112-.2a.429.429,0,0,1,.082-.119l0-.079c-.027,0-.028.03-.055.061,0,.053-.029.083-.03.137a2.236,2.236,0,0,1-.113.228c-.028.057-.057.141-.085.2A2.209,2.209,0,0,0,95.88,17.343ZM96.945,15.2l.027-.031-.027.031c-.245.3-.386.613-.28.544A.9.9,0,0,0,96.945,15.2Zm1.521,5.943a.072.072,0,0,0,.054-.061c-.024-.075-.076-.067-.13-.033-.475.152-.977.335-1.453.513-.079.012-.16.1-.239.142a.115.115,0,0,0-.03.084c0,.08.05.072.128.086A12.545,12.545,0,0,0,98.466,21.144ZM96.8,22.428v.027l-.026,0Zm.478-7.887-.026,0Zm.529-.978v-.026a1.931,1.931,0,0,0-.112.228C97.727,13.708,97.783,13.621,97.81,13.563Zm2.288,4.876a6.284,6.284,0,0,0,.2-.638,6.905,6.905,0,0,0,.48-1.843c.031-.163.09-.357.123-.546.206-.692.386-1.379.593-2.071a2.382,2.382,0,0,1,.062-.273l0-.08a.438.438,0,0,0-.074-.12c-.052-.019-.079.012-.133.073-.082.092-.087.251-.244.248a.529.529,0,0,0-.427.277c-.136.179-.248.381-.358.556-.334.606-.669,1.238-1.055,1.825-.605.911-1,1.869-1.5,2.764-.027.057-.03.137-.058.194,0,.026,0,.053.024.049s.052.019.078.015A.48.48,0,0,0,98,18.681c.14-.259.279-.518.392-.772a7.68,7.68,0,0,1,.724-1.326,4.744,4.744,0,0,0,.388-.666c.279-.518.531-1.032.809-1.523a5.166,5.166,0,0,1,.387-.613c.054-.062.083-.145.159-.078.026,0,0,.08-.031.137-.168.316-.361.662-.556.983-.22.35-.416.723-.611,1.1a1.4,1.4,0,0,1-.251.461A17.955,17.955,0,0,0,98.294,18.5a1.158,1.158,0,0,0-.03.137c-.03.11.021.155.1.2.1.011.182,0,.286.009a2.8,2.8,0,0,1,.94-.012C99.875,18.87,99.982,18.774,100.1,18.439Zm.327-8.814.081-.091.109-.122a.527.527,0,0,0,.108-.123l.108-.122c.028-.03.055-.061.11-.122a.434.434,0,0,1,.107-.1.476.476,0,0,1,.083-.119c.053-.061.081-.091.108-.122a1.083,1.083,0,0,0,.322-.26v.026a1,1,0,0,0-.321.234c-.027.031-.056.087-.082.118a.271.271,0,0,0-.109.123.434.434,0,0,0-.107.1.517.517,0,0,1-.11.122.494.494,0,0,1-.108.122.527.527,0,0,1-.108.123c-.027.03-.056.087-.083.118a.272.272,0,0,0-.108.122c-.027.031-.08.065-.108.1Zm.971,2.887c.029-.057,0-.079-.023-.075a.116.116,0,0,0-.053.034l0,.08C101.343,12.547,101.37,12.516,101.4,12.512Zm1.81,8.935a4.185,4.185,0,0,0,.459-1.2.044.044,0,0,0-.05-.045c-.027,0-.054.035-.08.065-.144.392-.315.787-.458,1.152,0,.027.024.076.05.072C103.126,21.512,103.18,21.478,103.206,21.447Zm.7-2.086v-.027l-.026,0c-.026,0-.026,0-.027.031S103.877,19.391,103.9,19.361Zm.174-.5-.026,0,.025.022Zm.294-.969a.214.214,0,0,0,.031-.137c.137-.179.194-.346.114-.281s-.085.2-.114.281c-.028.057-.055.088-.083.145l0,.079A.179.179,0,0,0,104.372,17.89Z"/></g></g></g></svg>