<svg xmlns="http://www.w3.org/2000/svg" width="151.186" height="54.96" viewBox="0 0 151.186 54.96"><defs><style>.cls-1{fill:#fff;}</style></defs><title>oficina-argentina</title><g id="Layer_2" data-name="Layer 2"><g id="CONTACTO"><g id="TÃTULO"><path class="cls-1" d="M9.8,36.389q.22-.341.444-.679c.056-.06.115-.145.066-.192-.073-.07-.158.018-.215.077-.17.176-.34.353-.485.526a1.971,1.971,0,0,1-.226.235.405.405,0,0,1-.583.091.508.508,0,0,1-.107-.67c.033-.082.094-.2.126-.277,0-.026-.023-.05-.047-.073l-.053.005c-.085.089-.2.18-.365.33.067-.191.13-.33.193-.468,0-.026.006-.079-.021-.076a.082.082,0,0,0-.077-.018c-.083.062-.168.15-.251.212-.138.094-.268.082-.337-.041a1.088,1.088,0,0,1-.04-.862c.316-.718.478-1.471.844-2.168a8.118,8.118,0,0,0,.439-1.309,3.643,3.643,0,0,0,.172-.544l.026-.344c-.019-.1-.094-.148-.175-.112a2.339,2.339,0,0,0-.4.123l-1.692.582c-.02-.076-.067-.15-.15-.088a3.713,3.713,0,0,0-.82.8,1.2,1.2,0,0,0-.147.226c-.4.78-.8,1.533-1.2,2.312-.246.474-.493.974-.74,1.474a7.238,7.238,0,0,0-.477,1.129.316.316,0,0,1-.309.271c-.158.018-.273.162-.385.253-.2.205-.3.191-.417-.033,0-.026,0-.026-.021-.05-.092-.173-.119-.171-.287-.021a.511.511,0,0,1-.113.118.216.216,0,0,1-.266.056.715.715,0,0,1-.452-.606c.008-.106-.01-.209,0-.288-.018-.1-.067-.15-.175-.112-.427.1-.593-.118-.7-.447a1.9,1.9,0,0,1,.076-1.007,5.323,5.323,0,0,1,.227-.576,1.8,1.8,0,0,0,.133-.724,1.055,1.055,0,0,1,.107-.379c.062-.138.041-.188-.12-.145l-.238.027A.349.349,0,0,1,.244,32.7a.455.455,0,0,1,.137-.435c.166-.123.361-.276.527-.4a1.922,1.922,0,0,0,.222-.156c.168-.15.483-.159.531-.453-.26-.023-.434.206-.627.333a3.8,3.8,0,0,1-.738.423,1.657,1.657,0,0,1,.5-.45c.277-.188.578-.379.881-.57a1.444,1.444,0,0,0,.247-.159c.029-.03.088-.115.063-.138,0-.053-.073-.071-.1-.042a6.49,6.49,0,0,0-.575.327l-.991.661a.705.705,0,0,1-.167.124C.076,31.8,0,31.782.005,31.7a1.013,1.013,0,0,1,.385-.935c.306-.244.614-.515.923-.785a4.041,4.041,0,0,1,.547-.324c.191-.1.408-.2.625-.306a1.55,1.55,0,0,0,.655-.7,10.211,10.211,0,0,0,.609-1.144,3.461,3.461,0,0,1,.215-.418,9.154,9.154,0,0,0,.648-1.3,9.062,9.062,0,0,1,.821-1.509,13.489,13.489,0,0,0,.674-1.309,6.307,6.307,0,0,1,.3-.559c.381-.541.764-1.109,1.145-1.65a2.176,2.176,0,0,0,.182-.335,3.7,3.7,0,0,1,.568-.93c.519-.635.962-1.314,1.532-1.929a9.464,9.464,0,0,1,.682-.706c.391-.332.76-.715,1.2-1.053a8.221,8.221,0,0,1,.988-.608.948.948,0,0,1,1.066.091c.122.118.083.28-.107.38l-.493.291c-.055.032-.112.091-.063.138.024.024.077.018.13.012L13.488,16c.081-.035.189-.074.27-.109.051.02.076.044.021.077a3.238,3.238,0,0,1-.28.241c.124.091.264-.029.371-.068l.243-.106a.35.35,0,0,1,.405.192.32.32,0,0,1-.028.37,1.1,1.1,0,0,0-.245.474.5.5,0,0,0-.114.118.485.485,0,0,1-.111.091.263.263,0,0,1-.114.117.263.263,0,0,0,.114-.117.268.268,0,0,0,.113-.118c.029-.03.083-.062.112-.091a.717.717,0,0,1,.237-.026c.132-.015.177.085.119.17-.09.141-.175.229-.262.344-.116.144-.2.259-.318.4a.089.089,0,0,0,.016.13l.132-.015a.9.9,0,0,0-.071.244.552.552,0,0,0,.32.621,1.286,1.286,0,0,1,.626.718c.154.376.337.723.466,1.1a3.983,3.983,0,0,1,.139,1.271c-.021.632-.044,1.292-.066,1.924-.01.132-.047.268-.057.4a.73.73,0,0,0-.068.218,6.54,6.54,0,0,1-.505,2.182c-.231.63-.46,1.233-.689,1.836a13.787,13.787,0,0,1-.649,1.673,1.6,1.6,0,0,0-.158.359,18.806,18.806,0,0,1-.963,2.365c-.1.221-.217.444-.286.662a15.657,15.657,0,0,1-1.076,2.114,2.258,2.258,0,0,1-.4.518,3.7,3.7,0,0,1,.217-.444c.276-.53.578-1.062.854-1.618a3,3,0,0,0,.222-.5,22.015,22.015,0,0,1,.89-2.094,3.212,3.212,0,0,0,.366-1.038c-.054.032-.107.038-.109.064-.411.939-.826,1.93-1.263,2.871a16.573,16.573,0,0,1-1.192,2.259c-.119.2-.263.371-.409.571a1.355,1.355,0,0,1-.28.241c-.083.061-.164.1-.239.053C9.684,36.586,9.745,36.474,9.8,36.389ZM2.39,33.381a.033.033,0,0,0,.029-.03c-.025-.024-.051-.021-.053.006-.029.03,0,.026,0,.053A.032.032,0,0,0,2.39,33.381Zm1.128,2.736c.156-.333.286-.662.468-1,.488-.92.978-1.867,1.469-2.814.09-.168.184-.362.279-.583.029-.029.006-.079.01-.132-.025-.023-.049-.047-.077-.018a.36.36,0,0,0-.172.2c-.243.447-.489.921-.734,1.394-.4.78-.822,1.536-1.17,2.336-.068.191-.134.382-.2.547,0,.053-.01.132.017.129C3.458,36.228,3.49,36.146,3.518,36.117Zm2.358-9.74c-.035.109-.171.177-.1.274C5.862,26.563,5.841,26.486,5.876,26.377Zm.449-.758c.031-.057.09-.142.12-.2a.488.488,0,0,1,.087-.115l.006-.079c-.027,0-.029.03-.057.059,0,.053-.032.082-.036.135a1.925,1.925,0,0,1-.122.224c-.029.056-.062.138-.093.194A1.849,1.849,0,0,0,6.325,25.619Zm2.427,3.9a.074.074,0,0,0,.057-.059c-.021-.076-.073-.071-.128-.038-.481.132-.991.294-1.473.452-.08.009-.165.1-.246.133a.115.115,0,0,0-.032.082c-.006.079.047.073.124.091A12.458,12.458,0,0,0,8.752,29.523ZM7.038,30.737l0,.027-.026,0Zm.44-7.216.028-.029-.028.029c-.257.291-.412.6-.3.533A.91.91,0,0,0,7.478,23.521Zm.363-.644-.027,0ZM10.5,26.888c.093-.2.163-.439.231-.63a6.863,6.863,0,0,0,.555-1.821c.039-.162.106-.353.146-.541.235-.683.443-1.362.678-2.045a2.4,2.4,0,0,1,.073-.27l.006-.08a.5.5,0,0,0-.069-.123c-.051-.021-.08.009-.136.068-.086.088-.1.247-.254.238a.527.527,0,0,0-.438.258c-.144.174-.264.371-.382.542-.358.591-.719,1.208-1.128,1.779-.642.886-1.08,1.827-1.616,2.7-.032.056-.037.135-.068.191,0,.027,0,.053.023.05s.051.021.077.018a.488.488,0,0,0,.2-.179c.15-.253.3-.506.424-.756a7.638,7.638,0,0,1,.777-1.294,4.751,4.751,0,0,0,.415-.65c.3-.506.574-1.009.871-1.489a5.488,5.488,0,0,1,.412-.6c.057-.059.089-.141.162-.07.027,0-.006.079-.036.135-.18.309-.389.647-.6.959-.234.341-.446.706-.656,1.071a1.425,1.425,0,0,1-.269.45,17.446,17.446,0,0,0-1.2,2.076,1.3,1.3,0,0,0-.037.135.151.151,0,0,0,.09.2c.1.015.183.006.286.021a2.8,2.8,0,0,1,.94.027C10.254,27.308,10.365,27.217,10.5,26.888ZM8.41,21.921l0-.026a1.818,1.818,0,0,0-.121.223C8.321,22.062,8.38,21.977,8.41,21.921ZM11.185,18.1l.085-.089c.056-.058.086-.088.113-.117a.516.516,0,0,0,.114-.118l.113-.118c.029-.029.058-.058.114-.117a.481.481,0,0,1,.111-.091.517.517,0,0,1,.087-.115l.115-.117a1.11,1.11,0,0,0,.332-.247l0,.026a.954.954,0,0,0-.33.221c-.029.029-.06.085-.088.114a.276.276,0,0,0-.114.118.481.481,0,0,0-.111.091.49.49,0,0,1-.114.117.5.5,0,0,1-.113.118.516.516,0,0,1-.114.118c-.027.029-.059.085-.087.115a.261.261,0,0,0-.113.117c-.029.03-.083.062-.112.092Zm.852,2.924c.03-.056.006-.079-.02-.077a.119.119,0,0,0-.056.033l-.005.08C11.982,21.052,12.01,21.022,12.037,21.019Zm1.44,9a4.219,4.219,0,0,0,.508-1.185.045.045,0,0,0-.049-.047c-.026,0-.055.032-.083.061-.16.386-.347.774-.5,1.133,0,.026.02.076.047.073C13.393,30.083,13.448,30.05,13.477,30.021Zm.783-2.056,0-.026-.027,0c-.025,0-.025,0-.027.029S14.231,27.994,14.26,27.965Zm.194-.494-.027,0,.025.023Zm.334-.956a.229.229,0,0,0,.036-.135c.145-.174.209-.339.126-.277s-.094.194-.126.277c-.03.055-.058.085-.089.141l-.006.079C14.757,26.571,14.786,26.541,14.788,26.515Z"/><path class="cls-1" d="M30.388,34.467a4.62,4.62,0,0,1-1.058-.538c-.048-.048-.129-.012-.184.02-.1-.015-.207-.029-.254-.1-.189-.268-.476-.289-.787-.332A7.721,7.721,0,0,1,25.85,32.9a.117.117,0,0,0,.081-.035c.028-.03.032-.083.006-.08,0-.026-.049-.047-.077-.018a.118.118,0,0,0-.031.057c0,.026-.006.079.019.1-.155-.035-.311-.044-.465-.079-.051-.021-.129-.038-.127-.065.051-.32-.239-.288-.394-.324-.306-.1-.617-.141-.925-.212-.181-.032-.384-.114-.579.039a.258.258,0,0,1-.237.026,3.1,3.1,0,0,1-.886-.4.688.688,0,0,0-.365.329,3.8,3.8,0,0,0-.342.721,7.607,7.607,0,0,1-.8,1.9c-.029.029,0,.053-.006.079a.081.081,0,0,0,.106-.012c.056-.058.14-.12.2-.179a1.561,1.561,0,0,1-.357.565c-.086.115-.2.232-.378.173-.128-.038-.245.106-.378.147-.216.077-.4.124-.518-.073a.259.259,0,0,0-.333-.095.353.353,0,0,1-.406-.164.913.913,0,0,1-.263-.68c-.015-.156-.033-.259-.187-.294a.811.811,0,0,1-.44-.765,2.1,2.1,0,0,1,.079-.692,12.676,12.676,0,0,1,1.1-2.72c.275-.53.5-1.08.828-1.615a.569.569,0,0,0,.067-.191,13.914,13.914,0,0,1,1.045-2.4c.253-.58.481-1.183.761-1.765.245-.474.488-.921.734-1.394.528-1.11,1.207-2.13,1.811-3.195.121-.223.3-.453.443-.679a1.99,1.99,0,0,0,.175-.23c.089-.141.044-.241-.109-.3a1.413,1.413,0,0,0-.18-.033,1.612,1.612,0,0,1,.269-.109.175.175,0,0,0,.059-.085.045.045,0,0,0-.049-.047.305.305,0,0,0-.156-.009c-.954.159-1.914.4-2.847.632-.24.053-.453.1-.666.152l-.238.027c-.051-.021-.1-.041-.1-.094,0-.027.031-.083.058-.086a.894.894,0,0,1,.241-.079c.69-.129,1.36-.335,2.026-.488.639-.15,1.3-.3,1.94-.4a1.187,1.187,0,0,0,.508-.135.115.115,0,0,0,.062-.139c0-.026-.048-.047-.075-.044a.446.446,0,0,0-.182-.006,21.685,21.685,0,0,0-3.971.941,1.84,1.84,0,0,1-.637.123c-.288.006-.457-.186-.25-.5.029-.03.031-.056.059-.086a.179.179,0,0,0,.02-.264c-.141-.221-.046-.442.153-.648a1.3,1.3,0,0,1,.414-.282A11.373,11.373,0,0,1,23.5,15.78c.053-.006.134-.042.187-.047a4.368,4.368,0,0,0,1.255-.324,4.076,4.076,0,0,1,1.094-.279c.688-.1,1.378-.232,2.066-.334a5.842,5.842,0,0,1,.684-.051,16.167,16.167,0,0,1,2.008.092A4.034,4.034,0,0,1,33.7,16.3a3.528,3.528,0,0,1,.765,1.648,13.109,13.109,0,0,1,.184,2.079,7.992,7.992,0,0,1-.171,1.568,1.279,1.279,0,0,1-.136.409,8.551,8.551,0,0,1-1.065,1.641,4.827,4.827,0,0,0-.81,1.009c-.092.194-.31.3-.5.424a.291.291,0,0,0-.179.282c-.253.238-.507.476-.784.691a6.545,6.545,0,0,0-1.016.98,2.523,2.523,0,0,1-.639.491c-.106.011-.134.041-.113.117a5.151,5.151,0,0,1-.418.335l0,.027-.211.023,0-.026c-.11.065-.244.106-.353.17-.108.039-.087.115.039.18l-.027,0a1.234,1.234,0,0,1-.816.406c-.156-.01-.213.049-.255.264-.011.133-.177.256-.11.406.069.124.226.132.353.2a17.963,17.963,0,0,0,2.193.754,1.205,1.205,0,0,1,.581.277,1.352,1.352,0,0,0,.55.332,3.549,3.549,0,0,1,.8.436.962.962,0,0,1,.41.794c.019.1-.04.188-.174.23a.24.24,0,0,0-.2.258,1.71,1.71,0,0,0,.13.353,1,1,0,0,1,.092.515.319.319,0,0,1-.365.329,1.833,1.833,0,0,1-.337-.041c-.077-.017-.176-.112-.236,0-.059.085.094.147.141.22.05.021.075.044.126.065.1.067.28.1.243.235-.04.188-.245.133-.379.174A.8.8,0,0,1,30.388,34.467Zm-9.24.057,0,.026c-.031.056-.089.141-.12.2A2,2,0,0,1,21.148,34.524Zm0,0,0,.026Zm1.193-17.539c.481-.132.935-.261,1.414-.367a25.42,25.42,0,0,1,4.16-.673,8.737,8.737,0,0,1,1.183-.078c.286.02.55-.009.865-.018-.042-.153-.175-.112-.253-.129a11.278,11.278,0,0,0-2.119,0,26.07,26.07,0,0,0-4.408.858c-.347.091-.67.2-1.019.323a.478.478,0,0,1-.058.085c.026,0,.05.021.077.018C22.233,17.024,22.288,16.991,22.341,16.985Zm3.065-.393c.956-.185,1.93-.267,2.916-.508-.079.009-.13-.012-.209,0a21.621,21.621,0,0,0-2.586.288,22.745,22.745,0,0,0-2.557.6c-.134.041-.268.082-.375.12-.029.03-.055.033-.057.059a.067.067,0,0,0,.023.05C23.492,16.989,24.45,16.777,25.406,16.592ZM30,33.434c0-.026-.023-.05-.021-.076a1.837,1.837,0,0,1-.252-.129,33.587,33.587,0,0,0-3.367-1.149c-.463-.106-.922-.264-1.358-.374-.693-.185-1.385-.371-2.079-.529a.256.256,0,0,0-.238.026c-.027,0-.031.056-.033.082.045.1.175.112.25.156a15.635,15.635,0,0,0,1.945.571c1.31.327,2.592.683,3.869,1.093.28.1.559.226.841.3a1.311,1.311,0,0,0,.359.091C29.939,33.493,29.967,33.464,30,33.434Zm-6.6-3.44-.028.029.024.024Zm.366,2.427.025.023Zm.051.021-.026,0Zm.513.126a.021.021,0,0,1,.025.024A.021.021,0,0,0,24.33,32.568Zm.051.021-.026,0Zm1.081-6.342a8.643,8.643,0,0,0,1.6-1.044c.252-.212.5-.423.755-.636.529-.426,1.085-.855,1.592-1.332a17.088,17.088,0,0,0,1.843-1.885c.318-.4.661-.782.979-1.185a1.8,1.8,0,0,0,.2-.259c.18-.308.188-.415-.056-.65a3.6,3.6,0,0,0-1.251-.753c-.333-.094-.668-.162-1-.257a2.918,2.918,0,0,0-1.3-.144c-.079.009-.211.024-.207-.03-.069-.123-.175-.111-.308-.07-.535.138-.591.2-.5.738a1.137,1.137,0,0,1-.07.586c-.132.355-.237.709-.393,1.041-.031.055-.036.135-.01.132.049.047.079-.009.109-.065.088-.114.151-.253.238-.367a.226.226,0,0,1,.166-.124c.1.042.1.121.063.2a2.045,2.045,0,0,1-.2.547,1.127,1.127,0,0,0-.19.442c-.045.241-.242.42-.255.606-.022.291-.244.447-.339.667a.728.728,0,0,1-.086.456c-.122.224-.217.444-.312.665-.152.279-.256.606-.607.75l-.028.029c-.03.056-.089.141-.014.186.126.064.092.173.031.285-.182.335-.363.644-.543.953a2.44,2.44,0,0,0-.16.385.13.13,0,0,0,.171.165C25.407,26.279,25.435,26.25,25.462,26.247Zm1.623,4.833-.026,0a.718.718,0,0,0-.485-.156.591.591,0,0,0-.487-.129,1.258,1.258,0,0,0-.659-.295c-.026,0-.054.033-.081.036,0,.026-.006.079.021.076a1.641,1.641,0,0,0,.719.183.761.761,0,0,0,.487.129.779.779,0,0,0,.485.156Zm-1.5-6.054a.455.455,0,0,0,.066-.191c-.03.055-.087.114-.118.17,0,0-.027.03,0,.053S25.576,25.079,25.581,25.026Zm4.343,6.579a1.208,1.208,0,0,0-.428-.215c-.636-.244-1.3-.459-1.937-.677-.537-.177-1.073-.353-1.611-.5a.711.711,0,0,0-.234-.026c-.026,0-.081.035-.083.061-.028.03,0,.08.021.077a2.453,2.453,0,0,0,.406.165c1.021.332,2.043.665,3.04.974a4.039,4.039,0,0,0,.639.192C29.789,31.672,29.839,31.693,29.924,31.605Zm-2.99,1.488c-.1-.016-.205-.056-.308-.071l-.027,0,.027,0a1.249,1.249,0,0,1,.308.071,1.336,1.336,0,0,0,.615.167A.851.851,0,0,0,26.934,33.093Zm.023-11.738-.025-.024a.07.07,0,0,0-.056.059l.023.024C26.928,21.384,26.93,21.358,26.957,21.355Zm2.336-3.909.027-.029c0-.027.006-.08-.02-.077a.462.462,0,0,0-.256-.076c-.442-.03-.86-.036-1.25-.071-.134.041-.213.05-.321.088-.026,0-.056.058-.058.085a.086.086,0,0,0,.02.077c.051.02.1.014.128.038l1.571-.017ZM27.573,31.21l-.026,0,.024.023c.051.021.128.039.179.059A.514.514,0,0,1,27.573,31.21Zm.8-2.977a.517.517,0,0,1-.087.115l-.027,0A.539.539,0,0,0,28.374,28.233Zm.216-.1c-.081.036-.135.068-.216.1C28.455,28.2,28.509,28.166,28.59,28.13Zm-.125,3.4-.027,0Zm.134-3.507L28.81,28c-.081.035-.162.071-.218.1C28.6,28.077,28.6,28.051,28.6,28.024Zm.744-.5-.113.117Zm1.187,4.383-.025-.024c-.077-.017-.128-.038-.2-.055a1.193,1.193,0,0,1,.2.082Z"/><path class="cls-1" d="M39.772,32.584a2.123,2.123,0,0,1-.947-.63c-.439-.424-.851-.851-1.261-1.33a3.936,3.936,0,0,1-.877-2.239,7.068,7.068,0,0,1,.03-.739,13.454,13.454,0,0,1,.328-2.267,6.011,6.011,0,0,1,.449-1.1,6.386,6.386,0,0,0,.316-.718,2.965,2.965,0,0,1,.458-.865,1.372,1.372,0,0,0,.156-.332,2.954,2.954,0,0,1,.465-.971,9.8,9.8,0,0,0,.728-1.315,2.627,2.627,0,0,1,.33-.562c.266-.4.5-.791.77-1.188a9.3,9.3,0,0,1,1.3-1.614,12.071,12.071,0,0,0,1.546-1.774,7.621,7.621,0,0,1,1.185-1.129c.42-.362.888-.677,1.312-1.091a2.5,2.5,0,0,1,.359-.25c.276-.188.58-.406.884-.623a4.124,4.124,0,0,1,.879-.545,1.316,1.316,0,0,0,.271-.135,5.2,5.2,0,0,1,1.4-.576,2.192,2.192,0,0,1,2.8,1.08,6.94,6.94,0,0,1,.567,1.513,4.157,4.157,0,0,1-.541,3,4.272,4.272,0,0,1-1.146,1.309,3.018,3.018,0,0,1-.442.312c-.109.064-.16.044-.2-.109-.02-.077-.042-.127-.148-.115-.262,0-.286-.021-.324-.227a2.364,2.364,0,0,0-.084-.62,1.241,1.241,0,0,1,.117-.853c.126-.277.276-.53.428-.81.123-.249.249-.526.373-.776.032-.082.068-.218-.031-.285a.259.259,0,0,0-.266.056,2.526,2.526,0,0,0-.438.259,8.715,8.715,0,0,0-1.763,1.508c-.541.585-1.107,1.147-1.6,1.753a3.994,3.994,0,0,1-.905.888,1.155,1.155,0,0,1,.266-.4c.742-.818,1.435-1.682,2.2-2.45a10.308,10.308,0,0,1,2.224-1.744.85.85,0,0,0,.194-.126c.028-.03.03-.056.006-.08a.077.077,0,0,0-.052-.02,1.365,1.365,0,0,0-.568.247,10.621,10.621,0,0,0-1.837,1.464c-.2.206-.426.441-.626.674a5.071,5.071,0,0,0-.771.847,2.139,2.139,0,0,1-.227.235,22.258,22.258,0,0,0-1.626,1.782,8.657,8.657,0,0,0-.58.747c-.436.574-.847,1.171-1.259,1.768a1.174,1.174,0,0,0-.315.718,2.959,2.959,0,0,0-.582.773A19.6,19.6,0,0,0,41.8,24.85c-.1.274-.2.521-.3.794a.335.335,0,0,0-.036.136l-.008.106c.077.017.081-.036.111-.091a21.943,21.943,0,0,1,1.521-3.162,2.018,2.018,0,0,0,.195-.494,15.263,15.263,0,0,0,1.311-1.774,5.58,5.58,0,0,1,1.2-1.394,1.879,1.879,0,0,1-.355.538c-.437.6-.875,1.2-1.289,1.824a19.068,19.068,0,0,0-2.677,5.312,14.546,14.546,0,0,0-.454,1.862,2.492,2.492,0,0,0-.061.453c.011.209.189.268.408.138a15.615,15.615,0,0,0,1.457-.923,21.339,21.339,0,0,0,2.056-1.594,4.757,4.757,0,0,0,.658-.73.734.734,0,0,0,.163-.438,1.174,1.174,0,0,1,.261-.685.5.5,0,0,0,.114-.118l0,.027c-.028.029-.083.062-.112.091a.925.925,0,0,0-.527.058A.368.368,0,0,1,45,24.7a.535.535,0,0,1-.168-.191.579.579,0,0,1-.028-.68c.059-.085.094-.194.152-.279.054-.032.133-.041.189-.074.026,0,.03-.055,0-.052,0-.027-.024-.024-.026,0a.661.661,0,0,0-.167.123c-.079.009-.16.044-.24.053-.052.006-.131.014-.129-.012-.049-.047.034-.109.089-.141a7.584,7.584,0,0,1,1.182-.762,1.075,1.075,0,0,0,.441-.285c.028-.03.03-.056.058-.085a.175.175,0,0,0-.1-.015,3.018,3.018,0,0,0-.432.179c-.352.144-.68.339-1.007.506-.107.038-.19.1-.3.138s-.185.021-.23-.079a1.706,1.706,0,0,1-.075-.727.649.649,0,0,1,.182-.335,2.923,2.923,0,0,1,.442-.312c.489-.238,1-.479,1.494-.717a1.17,1.17,0,0,1,.482-.159,4.8,4.8,0,0,0,.609-.094,9.477,9.477,0,0,1,2.56-.285,3.031,3.031,0,0,1,1.291.224.909.909,0,0,1,.564.515,1.565,1.565,0,0,0,.573.724.045.045,0,0,1,.048.047c.419.347.419.347.166.927a.345.345,0,0,1-.063.138c-.034.109.012.183.142.194.1.015.183.006.286.021.106-.012.149.115.061.229a1.406,1.406,0,0,1-.8.509,3.242,3.242,0,0,1-.5.03,5.476,5.476,0,0,0-1.891.446.681.681,0,0,0-.456.5c-.037.135.036.206.144.168a.538.538,0,0,1,.136-.068c.136-.068.185-.02.15.088-.03.056-.062.139-.093.2a21.5,21.5,0,0,1-1.349,2.276c-.236.341-.473.709-.706,1.024a16.929,16.929,0,0,1-1.646,2.047,2.759,2.759,0,0,0-.578.72c-.109.065-.218.13-.3.191A5.879,5.879,0,0,1,42.5,32.779,5.174,5.174,0,0,1,39.772,32.584Zm.959-11.317c0-.026.028-.029.03-.056-.028.03-.03.056-.059.086A.033.033,0,0,1,40.731,21.267ZM41.1,27.08a.032.032,0,0,0,.028-.029.021.021,0,0,1-.024-.024c-.028.029-.028.029-.03.056Zm.669-7.478a3.537,3.537,0,0,0,.234-.315,1.113,1.113,0,0,0,.32-.429,1.118,1.118,0,0,0-.32.429c-.087.115-.149.227-.236.342a1.37,1.37,0,0,0-.56.85A2.6,2.6,0,0,0,41.772,19.6Zm1.609,9.876A10.68,10.68,0,0,0,46,27.087c0-.026.031-.056.033-.082s0-.053-.023-.05c0,0-.024-.024-.025,0a3.045,3.045,0,0,0-.36.25c-.734.711-1.492,1.4-2.273,2.038a.643.643,0,0,0-.172.2c-.029.03,0,.054-.006.08A.321.321,0,0,0,43.381,29.478Zm.845-.094a8.3,8.3,0,0,0,1.634-1.547.805.805,0,0,0,.181-.309,20.518,20.518,0,0,0-1.854,1.677.678.678,0,0,1-.089.141l0,.053a.076.076,0,0,0,.051.02C44.171,29.416,44.2,29.387,44.226,29.384Zm.834,1.43a9.129,9.129,0,0,0,1.645-1.679c.089-.141.18-.309.269-.45,0-.027.006-.08-.02-.077a.083.083,0,0,0-.106.012c-.055.032-.112.091-.166.124a20.474,20.474,0,0,1-1.754,1.744,1.187,1.187,0,0,0-.332.588A1.244,1.244,0,0,0,45.06,30.814Zm.395.665a.537.537,0,0,1-.114.118C45.37,31.567,45.426,31.508,45.455,31.479Zm.007-.106.211-.023h0a1,1,0,0,1-.218.129Zm.743-.476a1.29,1.29,0,0,1-.5.45A1.476,1.476,0,0,1,46.205,30.9Zm-.323-12.014s.029-.03.026,0c.027,0,.025.023-.03.056a.116.116,0,0,0-.081.035Zm.5,11.705c.458-.524.889-1.044,1.345-1.541a4.942,4.942,0,0,1-1.526,1.85A3.579,3.579,0,0,1,46.386,30.588Zm1.347-1.568a.544.544,0,0,1,.112-.091.538.538,0,0,0-.114.118Zm.337-.641c.493-.632.861-1.356,1.3-2.009.059-.085.115-.144.174-.229a1.875,1.875,0,0,1-.16.385A15.582,15.582,0,0,1,47.9,28.844a.175.175,0,0,1-.059.085A1.529,1.529,0,0,1,48.07,28.379Zm2.656-16.808c0-.027.028-.03.03-.056a.032.032,0,0,0,.028-.029.076.076,0,0,0-.022-.051c-.053.006-.13-.011-.183-.005a4.607,4.607,0,0,0-1.507.561c-.028.029-.058.059-.06.086-.006.079.048.073.074.07C49.65,11.953,50.188,11.762,50.726,11.571Zm-1.185.788a4.815,4.815,0,0,0,1-.373c.028-.03.028-.03.03-.056l0-.027c-.024-.023-.048-.047-.074-.044a3.362,3.362,0,0,0-.972.4c-.029.029-.031.056-.035.109A.037.037,0,0,0,49.541,12.359Zm.278,13.305a1.012,1.012,0,0,1-.272.477A.859.859,0,0,1,49.819,25.664Zm1.223-12.4a.186.186,0,0,0,.139-.094c.026,0,.054-.032.058-.085a.085.085,0,0,0-.021-.077.481.481,0,0,0-.286-.02,4.227,4.227,0,0,0-1.256.691c-.026,0-.056.059-.058.085a.083.083,0,0,0,.128.038A12.148,12.148,0,0,1,51.042,13.268Zm.527,4.457-.026,0Z"/><path class="cls-1" d="M55.835,31.637a1.5,1.5,0,0,1-.863-.691,2.589,2.589,0,0,0-.57-.777,1.735,1.735,0,0,1-.409-.821,1.572,1.572,0,0,1,.02-.606,8.8,8.8,0,0,1,.591-1.588c.214-.418.4-.833.591-1.247.324-.824.8-1.586,1.2-2.365.492-.974.984-1.947,1.4-2.939a4.317,4.317,0,0,1,.306-.585c.2-.285.332-.588.512-.9a10.32,10.32,0,0,1,.93-1.574,7.4,7.4,0,0,0,.543-.952c.271-.477.518-.977.843-1.459a2.117,2.117,0,0,0,.249-.527,1.02,1.02,0,0,1,.273-.5c.114-.118.069-.218-.061-.229-.077-.018-.13-.012-.207-.03-.234-.027-.3-.176-.311-.385a.6.6,0,0,1,.328-.536,1.086,1.086,0,0,1,.3-.085c.213-.05.452-.1.691-.156a.62.62,0,0,0,.349-.117c.027,0,.057-.059.059-.085s-.049-.048-.075-.045a.992.992,0,0,0-.475.053,7.764,7.764,0,0,1-.769.138c-.026,0-.077-.017-.075-.044a.106.106,0,0,1,.085-.088.646.646,0,0,1,.213-.05c.292-.059.61-.12.9-.179.105-.012.24-.053.345-.065a.262.262,0,0,0,.168-.15c.031-.056-.018-.1-.177-.085-.29.032-.582.091-.9.126-.158.018-.318.062-.5.082s-.282-.073-.24-.288a1.041,1.041,0,0,1,.658-.729,2.586,2.586,0,0,1,.45-.077c.345-.064.688-.1,1.061-.2.079-.009.16-.045.239-.054q1.344-.11,2.692-.3a7.4,7.4,0,0,0,.765-.085,9.337,9.337,0,0,1,2.3.033,1.029,1.029,0,0,1,.836.721c.045.1-.07.218-.175.229a3.035,3.035,0,0,1-.5-.023,8.423,8.423,0,0,0-2.59,0l-2.059.229c-.265.056-.428.126-.381.2.067.15.23.079.335.068l3.008-.335q.829-.053,1.65-.026a3.573,3.573,0,0,1,.517.1c.051.021.1.041.044.1-.058.084-.091.167.011.208.227.106.264.312.3.544,0,.289-.083.4-.345.406a6.687,6.687,0,0,1-.784-.018,12.831,12.831,0,0,0-2.836.132c-.369.041-.74.109-1.112.176a1.089,1.089,0,0,0-.294.085c-.054.033-.11.065-.114.118-.032.082.071.1.124.091l.5-.055c.713-.08,1.425-.159,2.163-.215a14.012,14.012,0,0,1,1.471-.085,3.286,3.286,0,0,1,.908.11c.051.02.1.041.1.094.022.05-.033.082-.061.111a1.456,1.456,0,0,1-.887.309c-.889-.006-1.786.094-2.682.167.035-.109.138-.094.191-.1a6.559,6.559,0,0,1,.711-.053,3.463,3.463,0,0,0,.738-.082c.029-.029.057-.058.059-.085a.045.045,0,0,0-.049-.047.082.082,0,0,0-.077-.018,16.028,16.028,0,0,0-2.717.3,1.692,1.692,0,0,0-.348.092c-.026,0-.03.055-.059.085.025.023.049.047.076.044l.4-.044A2,2,0,0,1,65.724,14a1.365,1.365,0,0,1-.618.2.94.94,0,0,0-.835.671c-.3.794-.62,1.617-.891,2.435,0,.053-.034.109-.038.162a.2.2,0,0,0,.242.262,10.844,10.844,0,0,1,1.287-.064,5.687,5.687,0,0,1,.678.029,1.406,1.406,0,0,1,.834.38.551.551,0,0,1,.214.291,1.558,1.558,0,0,0,.468.736c.049.047.071.1.12.144a.577.577,0,0,1,.086.594c-.032.083-.038.162-.071.244a.211.211,0,0,0,.059.256c.076.044.151.089.116.2a.7.7,0,0,1-.172.2.717.717,0,0,1-.483.159l-.39-.035a3.57,3.57,0,0,0-1.291.117,5.031,5.031,0,0,1-1.065.25,4.734,4.734,0,0,0-.587.144,4.712,4.712,0,0,1-1.3.276.846.846,0,0,0-.853.541.68.68,0,0,1-.118.17c-.026,0-.018-.1-.077-.017.027,0,.051.02.077.017a.878.878,0,0,1-.248.527c0-.053.008-.106-.017-.129-.022-.05-.1-.015-.134.041-.061.111-.148.226-.211.364-.222.524-.418,1.044-.641,1.568-.156.333-.34.694-.5,1.027a6.533,6.533,0,0,0-.4,1.173c-.032.083.045.1.126.065.055-.032.107-.038.132-.015.09.2.25.156.412.086.376-.121.722-.212,1.1-.359a6.156,6.156,0,0,1,1.494-.376,2.4,2.4,0,0,1,.885.059.711.711,0,0,1,.571.409.7.7,0,0,0,.4.3,1,1,0,0,1,.775.832,1.561,1.561,0,0,0,.224.5c.121.118.055.309-.112.433a.9.9,0,0,1-.485.185,6.608,6.608,0,0,0-1.793.54,6.755,6.755,0,0,1-.648.257c-.109.064-.244.105-.379.173a1.774,1.774,0,0,1-.487.212.607.607,0,0,0-.3.111,3.4,3.4,0,0,1-.928.5c-.217.1-.434.206-.624.306-.244.106-.461.209-.7.288a3.2,3.2,0,0,0-.593.224,2.012,2.012,0,0,1-1.088.2A4.876,4.876,0,0,1,55.835,31.637Zm4.559-7.7a1.166,1.166,0,0,1-.142.488,1.882,1.882,0,0,0-.144.174A1.555,1.555,0,0,1,60.394,23.937Zm.5-1.053-.026,0a3.05,3.05,0,0,1-.472,1.05A2.453,2.453,0,0,1,60.892,22.884Zm2.967-7.759.028-.03-.054.033Zm4.7-3.279a.071.071,0,0,0,.056-.059c0-.026-.02-.077-.046-.074a2.722,2.722,0,0,0-.469-.026c-1.078.067-2.136.211-3.193.355a.382.382,0,0,0-.161.044.073.073,0,0,0-.056.059.066.066,0,0,0,.071.1,2.07,2.07,0,0,0,.4-.044c.528-.058,1.031-.141,1.561-.226l1.129-.047Zm.209,1.735,0-.026-.029.029Z"/><path class="cls-1" d="M81.215,29.97a.938.938,0,0,0-.14-.221.32.32,0,0,0-.421.021c-.139.12-.251.211-.406.176a.432.432,0,0,1-.345-.276,1.932,1.932,0,0,1-.177-.427.54.54,0,0,0-.434-.477.551.551,0,0,1-.439-.424,8.548,8.548,0,0,0-.634-1.662,3.1,3.1,0,0,1-.239-1c-.131-1.035-.209-2.077-.261-3.121-.017-.812.045-1.633,0-2.442a2.409,2.409,0,0,0-.044-.468.147.147,0,0,0-.261,0,2.531,2.531,0,0,0-.185.362,2.022,2.022,0,0,1-.472.709,10.518,10.518,0,0,1,.476-1.1c.125-.277.225-.55.352-.853,0-.027.008-.106-.071-.1a.116.116,0,0,0-.081.035,4.236,4.236,0,0,0-.269.45c-.128.3-.28.582-.434.888-.474,1.077-.976,2.183-1.553,3.244-.337.642-.648,1.307-.986,1.974-.491.947-.879,1.935-1.446,2.865a.43.43,0,0,0-.079.35c0,.026,0,.026.024.024,0,.026.025.023.051.02.031-.056.087-.114.117-.171q.455-.8.827-1.588c.4-.753.77-1.529,1.142-2.306.371-.75.763-1.45,1.084-2.221a6.133,6.133,0,0,1,.846-1.511,2.516,2.516,0,0,1-.228.6c-.221.5-.44.968-.66,1.465-.616,1.224-1.234,2.474-1.825,3.722-.369.723-.735,1.42-1.1,2.144a6.027,6.027,0,0,0-.279.582.92.92,0,0,1-.242.421.244.244,0,0,1-.136.067c-.05-.021-.046-.073-.016-.129.006-.08.065-.165.071-.245.028-.029.006-.079-.021-.076a.184.184,0,0,0-.107.038c-.113.118-.229.262-.369.383a.789.789,0,0,1-.44.285c-.132.015-.232-.053-.2-.188a1.185,1.185,0,0,1,.123-.251c.035-.108.069-.217-.03-.285-.076-.044-.183-.006-.3.139a1.934,1.934,0,0,0-.2.258c-.172.2-.332.247-.479.106a.884.884,0,0,1-.422-.636c-.015-.155-.034-.259-.187-.294-.051-.021-.072-.1-.066-.176-.016-.13-.118-.171-.221-.186-.366-.012-.4-.3-.51-.52a.716.716,0,0,1,.052-.689,13.147,13.147,0,0,0,.67-1.6c.1-.327.257-.633.384-.935.5-1.053,1.019-2.056,1.491-3.107.468-1,.984-1.947,1.4-2.964.192-.468.387-.962.605-1.433.253-.579.583-1.141.887-1.7a16.106,16.106,0,0,0,.636-1.488c.219-.471.411-.939.6-1.406a.769.769,0,0,1,.123-.25,18.765,18.765,0,0,0,1.012-1.977c.031-.056.039-.162.1-.221a10.485,10.485,0,0,0,.881-1.62,2.432,2.432,0,0,0,.288-.688.485.485,0,0,1,.653-.335.43.43,0,0,1,.15.087A3.929,3.929,0,0,1,80.2,9.107a3.511,3.511,0,0,1,.461,1.865,2.578,2.578,0,0,0,.072.779,21.658,21.658,0,0,1,.18,3.5c-.011.842-.075,1.689-.088,2.557a12.135,12.135,0,0,1-.053,1.4c-.006.08.015.156.009.235.036.206.108.3.189.268.16-.044.143-.173.2-.285a8.382,8.382,0,0,0,.486-1.236,7.342,7.342,0,0,1,.293-.767,5.91,5.91,0,0,0,.332-.93,5.59,5.59,0,0,1,.381-.882,5.574,5.574,0,0,0,.574-1.377,14.118,14.118,0,0,1,.918-2.1c.123-.25.249-.526.373-.777a21.226,21.226,0,0,1,1.788-2.9l.183-.334A6.614,6.614,0,0,1,87.3,6.952a6.336,6.336,0,0,1,.515-.582c.535-.506,1.006-.5,1.306.039a3.171,3.171,0,0,0,.506.574.864.864,0,0,1,.218.92c-.034.109-.044.242-.079.351a2.911,2.911,0,0,1-.311,1.005,2.356,2.356,0,0,0-.109.406l-.027,0,.42-.362c.057-.058.114-.117.189-.073s.041.153-.016.212c-.15.253-.223.524-.373.776a5.59,5.59,0,0,1-.526,1.083c-.062.479-.458.864-.545,1.32a.084.084,0,0,0,.021.077c.026,0,.055-.033.081-.036.028-.029.085-.088.109-.064s.021.076.018.1c-.121.224-.242.447-.337.667-.021-.076-.013-.181-.147-.141,0,.027-.028.03-.03.056-.01.133.1.068.178.059a6.11,6.11,0,0,1-.59,1.589c-.35.826-.754,1.658-1.13,2.488a1.306,1.306,0,0,1-.148.227l-.053,0-.024-.023a.617.617,0,0,1,.1-.3,4.561,4.561,0,0,0,.5-1.053,2.345,2.345,0,0,1,.19-.441,5.992,5.992,0,0,0,.377-.83,7.351,7.351,0,0,1,.346-.774.083.083,0,0,0-.043-.126c-.026,0-.054.032-.083.062-.026,0-.028.029-.03.055a20.29,20.29,0,0,0-.908,1.965,1.87,1.87,0,0,1-.247.5,4.21,4.21,0,0,0-.587,1.193,2.184,2.184,0,0,1-.182.336,2.773,2.773,0,0,0-.231.629,3.806,3.806,0,0,1-.493,1.341,2.018,2.018,0,0,0-.258.633,13.53,13.53,0,0,1-.623,1.671c-.067.191-.133.382-.2.547a6.727,6.727,0,0,1-.405,1.2,2.156,2.156,0,0,0-.224.55c-.037.135-.152.279,0,.394.137-.094.121-.224.184-.361a2.825,2.825,0,0,0,.245-.474,5.163,5.163,0,0,1-.5,1.447c-.022-.05-.042-.127-.121-.118a.22.22,0,0,0-.12.2c-.006.08.045.1.1.042.055-.033.085-.089.139-.121a1.048,1.048,0,0,1-.281.609c-.146.2-.239.394-.071.585.046.1-.014.186-.125.277a.78.78,0,0,0-.346.432.21.21,0,0,0-.01.132.088.088,0,0,0,.131-.014.9.9,0,0,1,.169-.15c-.033.082-.041.188-.074.3a.419.419,0,0,1-.181.309.476.476,0,0,0-.3.506,1.629,1.629,0,0,1-.7,1.258C81.382,30.188,81.278,30.173,81.215,29.97ZM70.1,28.161a.178.178,0,0,1,.035-.109l-.086.088s-.028.029,0,.026C70.045,28.193,70.072,28.19,70.1,28.161Zm1.485-3.027c0-.026-.024-.024-.022-.05l-.029.029,0,.053A.1.1,0,0,1,71.585,25.134Zm1.375-2.962c.026,0,0-.027,0-.053-.027,0-.053.006-.031.056ZM81.9,29.185l-.052.005.024.024Zm.9-1.545,0,.027Zm1.147-3.409c-.029.03-.085.089-.114.118A.538.538,0,0,1,83.951,24.231Zm.143-.515a3.931,3.931,0,0,0-.143.515A1.3,1.3,0,0,1,84.094,23.716Zm.112-.432.024.024a2.711,2.711,0,0,0-.136.408C84.131,23.581,84.168,23.446,84.206,23.284Zm.293-.768a1.293,1.293,0,0,1-.293.768l.024.024A1.278,1.278,0,0,1,84.5,22.516Zm.2-.547c.105-.353.213-.732.318-1.085a2.169,2.169,0,0,1,.338-.668c.026,0,.055-.032.081-.035a.082.082,0,0,1,.021.076c.024.024,0,.027,0,.053l-.675,1.651a.115.115,0,0,1-.054.032A.021.021,0,0,1,84.7,21.969Zm.962-2.338c0-.027.028-.03.026,0l0,.026-.026,0Zm.208-.68c.033-.082.065-.164.1-.247.031-.056.089-.141.12-.2a2.809,2.809,0,0,1-.2.6C85.78,19.066,85.863,19,85.867,18.951Zm.249-.526c0-.053.03-.056.055-.033a.118.118,0,0,0-.031.057c-.026,0-.054.032-.083.061C86.086,18.481,86.088,18.454,86.116,18.425Zm2.6-7.457a.346.346,0,0,0-.1.274C88.742,11.018,88.777,10.91,88.72,10.968Zm.132-3.821-.027,0,.023.05Zm1.136,1.58.025.024-.029.029Z"/><path class="cls-1" d="M93.435,27.954c-.063-.2-.088-.226-.3-.176a1.926,1.926,0,0,0-.188.073.336.336,0,0,1-.361-.091.87.87,0,0,1-.253-.444,1.166,1.166,0,0,0-.4-.639.858.858,0,0,1-.3-.57,2.362,2.362,0,0,1,.072-.954,8.963,8.963,0,0,1,.653-2.067,4.458,4.458,0,0,0,.271-.818c.3-.821.672-1.624.994-2.421.16-.385.32-.77.454-1.153a14.631,14.631,0,0,1,.731-1.709c.313-.691.629-1.409.943-2.1.223-.524.522-1.029.719-1.55a7.932,7.932,0,0,1,.452-.785,15.72,15.72,0,0,0,.846-1.512c.122-.224.266-.4.387-.621.092-.167.024-.318-.16-.3a4.173,4.173,0,0,0-.559.115c-.805.273-1.635.523-2.44.8a2.091,2.091,0,0,1-.691.13,3.676,3.676,0,0,1,.485-.186c1.047-.353,2.1-.732,3.166-1.034.027,0,.029-.03.055-.033.294-.085.46-.208.414-.282-.151-.088-.291.032-.451.076-1.23.347-2.494.8-3.73,1.229a1.585,1.585,0,0,1-.479.106c-.1-.015-.18-.033-.2-.109-.045-.1.038-.162.122-.224.028-.029.055-.032.083-.062a.326.326,0,0,1,.032-.082.158.158,0,0,0-.1-.094.948.948,0,0,1-.289.006c-.209,0-.309-.071-.293-.282a.561.561,0,0,1,.022-.292A2.849,2.849,0,0,0,93.28,8.86a1.582,1.582,0,0,1,.726-1.289,5.188,5.188,0,0,1,1.121-.649,25.392,25.392,0,0,1,2.74-.935,3.927,3.927,0,0,0,.885-.282,1.663,1.663,0,0,1,.347-.091,3.177,3.177,0,0,0,.958-.212c.3-.112.588-.17.882-.255.907-.233,1.782-.382,2.659-.559,1.035-.194,2.044-.385,3.071-.473a3.7,3.7,0,0,1,1.226.048,1.227,1.227,0,0,1,.839.668.267.267,0,0,1,.032.285c-.1.3.065.518.151.771a3.555,3.555,0,0,1,.228.447c.111.25.075.386-.2.627-.028.029-.083.061-.111.091-.086.088-.092.168-.016.212.046.074.124.091.2.135.073.071.039.179-.072.244a1.186,1.186,0,0,1-.906.232,3.148,3.148,0,0,0-.993-.021A20.43,20.43,0,0,0,104.9,8.2c-.319.062-.642.176-.962.265-.374.094-.719.158-1.092.252-.347.091-.406.177-.457.5a4.7,4.7,0,0,1-.531,1.5.556.556,0,0,1-.063.139c-.03.056-.063.138.012.182.051.021.079-.009.134-.041s.083-.062.138-.094.128.038.124.091c0,.027,0,.053-.03.056a2.859,2.859,0,0,0-.328.876,3.488,3.488,0,0,1-.4.859.251.251,0,0,0-.061.112c.021.418-.291.742-.527,1.082l0-.026a.557.557,0,0,1-.143.515.394.394,0,0,0-.193.126l-.027,0a.656.656,0,0,0,.22-.129,4.372,4.372,0,0,1-.566.9,1.684,1.684,0,0,0-.334.614l.106-.011-.027,0a6.151,6.151,0,0,1-.8,1.665c-.262,0-.384.226-.53.426-.03.056-.063.138.014.156.025.023.08-.009.11-.065.144-.174.288-.347.406-.517a2.559,2.559,0,0,1-.377.829,6.11,6.11,0,0,0-.46.891c-.381.883-.81,1.718-1.24,2.553-.182.335-.313.691-.469,1.024-.411.938-.82,1.85-1.257,2.791-.033.082-.069.218-.2.153l0,.026a.359.359,0,0,0-.158.359.932.932,0,0,1-.1.588,4.3,4.3,0,0,0-.214.76c-.071.244-.128.3-.363.3a1.408,1.408,0,0,0-.536.164C93.551,28.152,93.5,28.131,93.435,27.954Zm.917-19.082c.029-.03.083-.062.112-.091l.026,0-.026,0a.229.229,0,0,1-.134.041c-.028.029-.03.056-.057.059C94.3,8.878,94.324,8.9,94.352,8.872Zm.227,1.5c1.4-.549,2.821-.97,4.213-1.387a1.6,1.6,0,0,0,.353-.171.253.253,0,0,0,.061-.111c.006-.08-.018-.1-.072-.1a1.407,1.407,0,0,0-.318.062c-.751.241-1.526.459-2.279.726-.59.2-1.183.42-1.775.644a.745.745,0,0,0-.36.25c-.026,0,0,.053,0,.079l.024.024Zm2.062-2.7c.722-.212,1.446-.449,2.194-.637a48.538,48.538,0,0,1,5.008-1.187c1.088-.2,2.179-.427,3.258-.521a.3.3,0,0,0,.211-.023c.053-.006.158-.018.164-.1,0-.053-.073-.071-.124-.091-.1-.015-.208,0-.339-.015-.315.009-.657.047-1,.059-.5.055-1.008.19-1.485.27-1.218.188-2.42.5-3.619.8-.907.232-1.816.491-2.7.72-.8.247-1.581.491-2.336.785-.081.035-.187.047-.169.176,0,.027.129.012.182.006C96.131,7.834,96.373,7.754,96.641,7.672Zm-.677,16.247a.454.454,0,0,0,.064-.165l0-.052c-.05-.021-.077-.018-.079.008a.293.293,0,0,0-.093.2c-.026,0,0,.052.02.076C95.909,23.952,95.935,23.949,95.964,23.919Zm.328-.876-.025-.024-.028.029a.021.021,0,0,0,.024.024A.032.032,0,0,0,96.292,23.043Zm5.553-16.37c1.865-.443,3.722-.781,5.575-1.066a6.263,6.263,0,0,0-1.571.017c-.954.159-1.882.314-2.815.55-.852.2-1.707.425-2.559.626-1.36.335-2.674.743-3.99,1.2-.081.036-.185.021-.2.18C98.16,7.661,100.008,7.088,101.845,6.673ZM97.073,21.354c0-.026.031-.056.033-.082l.084-.088,0-.027c0-.026-.024-.023-.054.033a.115.115,0,0,1-.032.082c0,.026-.029.029-.058.059,0,.026-.028.029-.03.056C97.043,21.41,97.044,21.384,97.073,21.354Zm.767-1.5c.029-.029,0-.053-.022-.05s-.026,0-.028.03a.175.175,0,0,0-.059.085c0,.053.022.05.051.021C97.808,19.933,97.838,19.878,97.84,19.851Zm1.477-2.92c.028-.03,0-.053-.023-.05a.113.113,0,0,0-.086.114c-.029.03,0,.053.022.05C99.285,17.013,99.313,16.984,99.317,16.931Zm3.427-8.992A30.024,30.024,0,0,1,106.7,7.21a2.835,2.835,0,0,0,.662-.1.228.228,0,0,0,.221-.156,2.564,2.564,0,0,0-1.277-.068c-1.3.2-2.6.473-3.879.773-.081.035-.16.044-.241.08-.107.037-.242.079-.223.182.017.129.148.115.228.106A1.386,1.386,0,0,0,102.744,7.939Zm1.469.282a8.152,8.152,0,0,1,1.592-.281l.264-.03a2.132,2.132,0,0,0,.69-.129c.026,0,.055-.033.083-.062.006-.079-.045-.1-.1-.094-.818.091-1.636.182-2.433.349-.373.094-.721.186-1.068.277a4.094,4.094,0,0,0-.535.164c-.027,0-.057.059-.059.085s.049.047.075.044a.26.26,0,0,0,.13.012A12.7,12.7,0,0,0,104.213,8.221Z"/><path class="cls-1" d="M108.509,23.469a3.223,3.223,0,0,1,.091-.509c.006-.079-.1-.121-.177-.085a1.206,1.206,0,0,0-.286.32c-.255.265-.442.312-.665.153a.576.576,0,0,1-.275-.521,1.222,1.222,0,0,0,0-.314.122.122,0,0,0-.146-.142c-.052.006-.131.015-.154-.035-.02-.076-.038-.179-.144-.168-.08.009-.139.1-.222.156-.137.094-.216.1-.258-.05-.046-.073-.089-.2-.136-.273a1.048,1.048,0,0,1,.031-1.107,8,8,0,0,0,.571-1.323c.172-.544.45-1.1.677-1.677.1-.247.192-.467.291-.741a7.374,7.374,0,0,1,.755-1.686,4.628,4.628,0,0,0,.438-.941,6.782,6.782,0,0,1,.7-1.311,3.064,3.064,0,0,0,.346-.774,4.218,4.218,0,0,1,.222-.5c.218-.471.462-.918.706-1.391.091-.168.185-.362.276-.53a13.935,13.935,0,0,0,.777-1.294,2.337,2.337,0,0,1,.643-.885,1.675,1.675,0,0,0,.349-.459,14.062,14.062,0,0,1,1.627-2.15,1.014,1.014,0,0,1,1.35-.2c.151.087.142.193-.028.37-.028.029-.084.062-.088.115-.056.059-.033.109.019.1.128.039.265-.029.4-.043-.034.108-.043.214.088.226.39.036.418.347.394.665a7.28,7.28,0,0,1-.031.765c-.008.106.039.179.17.165.159-.018.179.059.169.191a3.92,3.92,0,0,1-.2.941,8.593,8.593,0,0,1-.493,1.342,1.325,1.325,0,0,1-.24.394c-.02-.077-.067-.15-.178-.059a.75.75,0,0,0-.231.629c.146-.2.29-.373.409-.57a2.592,2.592,0,0,1-.236.709c-.215.417-.4.832-.618,1.25a9.524,9.524,0,0,1-.825,1.561,5.713,5.713,0,0,0-.275.53,29,29,0,0,1-1.472,2.868,5.366,5.366,0,0,0-.276.529c-.5,1.106-1.108,2.2-1.661,3.283-.275.529-.526,1.082-.777,1.635-.063.138-.077.324-.263.371-.068-.151.045-.268.082-.4.284-.635.595-1.3.932-1.94q.828-1.629,1.658-3.257c.618-1.25,1.236-2.5,1.906-3.756.365-.67.655-1.385,1.07-2.035a.57.57,0,0,0,.063-.138c.03-.056.034-.109-.017-.13-.026,0-.081.036-.083.062a5.737,5.737,0,0,0-.482.841c-.154.306-.308.612-.486.894a14.529,14.529,0,0,0-.855,1.618c-.363.644-.7,1.312-1.037,1.953a1.394,1.394,0,0,1-.12.2c-.407.886-.867,1.777-1.325,2.641-.491.974-.986,1.974-1.427,2.968a5.016,5.016,0,0,1-.451.786.635.635,0,0,1-.39.3C108.6,23.616,108.477,23.551,108.509,23.469Zm-.361-3.53a1.943,1.943,0,0,0,.121-.224,2.537,2.537,0,0,1,.128-.3c.034-.108.068-.217.1-.326a2.122,2.122,0,0,0,.5-1.027l0-.026,0,.026a2.068,2.068,0,0,0-.472,1.051,1.511,1.511,0,0,0-.127.3c-.035.109-.095.221-.128.3a1.943,1.943,0,0,1-.121.224c-.059.085-.171.176-.1.273C108.134,20.124,108.113,20.048,108.148,19.939Zm1.905-4.1a.97.97,0,0,1,.122-.223,1.4,1.4,0,0,0,.223-.524,1.984,1.984,0,0,0-.223.524c-.033.082-.09.141-.122.223l0,.027Zm1.2-2.364c.033-.083.067-.191.1-.274a5.715,5.715,0,0,0,.707-1.391.172.172,0,0,0,.061-.112.111.111,0,0,0,.032-.082c-.028.029-.057.059-.059.085a.229.229,0,0,0-.036.135,1.3,1.3,0,0,0-.348.459,4.073,4.073,0,0,0-.357.906l-.176.256c-.061.112-.067.191-.012.159A.286.286,0,0,0,111.252,13.477Zm1.271-2.609a.815.815,0,0,1,.118-.2c.033-.083.064-.138.095-.221-.029.056-.062.138-.095.221a.815.815,0,0,0-.118.2.976.976,0,0,0-.123.223C112.433,11.009,112.489,10.95,112.523,10.868Zm3.191-4.844a.114.114,0,0,1,.03-.056c-.024-.024-.077-.018-.1-.015a.538.538,0,0,0-.114.118l0,.026a.082.082,0,0,0,.077.018A.544.544,0,0,0,115.714,6.024Zm.572,3.506,0-.053c-.024-.023-.024-.023-.055.033,0,.053-.034.109-.038.162A.824.824,0,0,1,116.286,9.53Z"/><path class="cls-1" d="M128.487,24.713a.918.918,0,0,0-.14-.221.319.319,0,0,0-.42.021c-.14.12-.252.211-.405.176a.433.433,0,0,1-.346-.277,1.877,1.877,0,0,1-.177-.426.542.542,0,0,0-.435-.477.551.551,0,0,1-.439-.424,8.421,8.421,0,0,0-.634-1.662,3.151,3.151,0,0,1-.239-1c-.131-1.036-.209-2.077-.261-3.121-.017-.812.045-1.633,0-2.442a2.337,2.337,0,0,0-.043-.468.148.148,0,0,0-.262,0,2.522,2.522,0,0,0-.184.362,2.046,2.046,0,0,1-.472.708,10.388,10.388,0,0,1,.475-1.1c.126-.276.225-.549.352-.852,0-.027.009-.106-.07-.1a.111.111,0,0,0-.081.036,4.342,4.342,0,0,0-.27.449c-.128.3-.28.583-.434.889-.473,1.077-.975,2.183-1.553,3.244-.336.642-.648,1.306-.986,1.974-.49.947-.879,1.935-1.446,2.865a.428.428,0,0,0-.079.35c0,.026,0,.026.025.023,0,.027.024.024.05.021.031-.056.088-.115.118-.171q.453-.8.826-1.588c.4-.753.77-1.529,1.143-2.306.37-.75.763-1.45,1.083-2.221a6.194,6.194,0,0,1,.847-1.512,2.569,2.569,0,0,1-.229.6c-.221.5-.439.968-.66,1.465-.615,1.224-1.234,2.474-1.825,3.721-.368.724-.735,1.421-1.1,2.144a6.272,6.272,0,0,0-.279.582.913.913,0,0,1-.241.421.251.251,0,0,1-.136.068c-.051-.021-.047-.074-.016-.13.005-.079.065-.164.071-.244.028-.029.006-.079-.021-.076a.18.18,0,0,0-.108.038c-.113.118-.229.262-.368.382a.79.79,0,0,1-.441.286c-.131.014-.232-.054-.194-.189a1.148,1.148,0,0,1,.122-.25c.035-.108.069-.217-.031-.285-.074-.044-.182-.006-.3.138a1.928,1.928,0,0,0-.2.259c-.172.2-.333.247-.479.106a.887.887,0,0,1-.423-.636c-.015-.156-.033-.259-.187-.294-.051-.021-.071-.1-.065-.177-.017-.129-.119-.17-.222-.185-.365-.012-.4-.3-.51-.521a.717.717,0,0,1,.052-.688,12.9,12.9,0,0,0,.67-1.6c.1-.327.257-.633.385-.936.5-1.053,1.019-2.056,1.49-3.106.468-1,.984-1.947,1.4-2.965.192-.467.386-.962.6-1.432.254-.58.584-1.141.888-1.7.245-.474.441-.995.636-1.488.218-.471.41-.939.6-1.406a.8.8,0,0,1,.123-.25,19.064,19.064,0,0,0,1.013-1.977c.031-.056.038-.162.095-.221a10.318,10.318,0,0,0,.881-1.62,2.4,2.4,0,0,0,.288-.689.484.484,0,0,1,.653-.334.43.43,0,0,1,.15.087,3.918,3.918,0,0,1,1.354,1.477,3.508,3.508,0,0,1,.461,1.866,2.578,2.578,0,0,0,.072.779,21.652,21.652,0,0,1,.181,3.5c-.011.841-.076,1.689-.088,2.556a12.159,12.159,0,0,1-.054,1.4c-.006.079.015.156.009.235.036.206.108.3.189.268.16-.044.144-.174.205-.285a8.494,8.494,0,0,0,.486-1.236,7.125,7.125,0,0,1,.293-.767,6.013,6.013,0,0,0,.332-.93,5.641,5.641,0,0,1,.381-.883,5.606,5.606,0,0,0,.574-1.376,14.216,14.216,0,0,1,.917-2.1c.124-.25.249-.527.373-.777a21.173,21.173,0,0,1,1.789-2.9c.061-.111.121-.223.183-.335a6.517,6.517,0,0,1,.794-1.165,6.052,6.052,0,0,1,.515-.582c.535-.506,1.006-.506,1.305.038a3.105,3.105,0,0,0,.506.574.866.866,0,0,1,.218.921c-.033.109-.044.241-.078.35A2.918,2.918,0,0,1,136.723,4a2.425,2.425,0,0,0-.109.406l-.026,0,.419-.362c.057-.058.114-.117.189-.073s.041.153-.015.212c-.15.253-.223.523-.373.776a5.537,5.537,0,0,1-.527,1.083c-.062.479-.458.864-.545,1.32a.084.084,0,0,0,.021.077c.027,0,.055-.033.081-.036.029-.029.085-.088.11-.064s.02.076.018.1c-.121.223-.243.447-.338.667-.021-.076-.013-.182-.146-.141,0,.027-.029.03-.031.056-.01.132.1.068.179.059a6.129,6.129,0,0,1-.591,1.588c-.35.827-.753,1.659-1.13,2.489a1.2,1.2,0,0,1-.147.226l-.053.006-.025-.024a.622.622,0,0,1,.1-.3,4.529,4.529,0,0,0,.5-1.052,2.454,2.454,0,0,1,.191-.442,6.038,6.038,0,0,0,.376-.829,7.786,7.786,0,0,1,.346-.774.084.084,0,0,0-.042-.127c-.027,0-.055.033-.083.062-.027,0-.028.03-.031.056a20.281,20.281,0,0,0-.907,1.965,1.894,1.894,0,0,1-.247.5,4.231,4.231,0,0,0-.588,1.194,2.1,2.1,0,0,1-.182.336,2.723,2.723,0,0,0-.23.629,3.789,3.789,0,0,1-.494,1.341,2.006,2.006,0,0,0-.257.633,13.818,13.818,0,0,1-.623,1.671c-.067.191-.134.382-.2.547a6.89,6.89,0,0,1-.405,1.2,2.181,2.181,0,0,0-.225.55c-.036.135-.152.279,0,.394.137-.094.121-.224.184-.362a2.971,2.971,0,0,0,.245-.473,5.239,5.239,0,0,1-.5,1.447c-.023-.05-.043-.127-.122-.118a.219.219,0,0,0-.119.2c-.006.08.044.1.1.042.055-.033.085-.089.14-.121a1.054,1.054,0,0,1-.281.609c-.146.2-.239.394-.071.585.045.1-.014.185-.125.276a.782.782,0,0,0-.346.433.212.212,0,0,0-.011.132.089.089,0,0,0,.132-.015.9.9,0,0,1,.169-.149c-.033.082-.041.188-.075.3a.411.411,0,0,1-.18.308.476.476,0,0,0-.3.507,1.632,1.632,0,0,1-.7,1.258C128.654,24.93,128.55,24.915,128.487,24.713ZM117.373,22.9a.176.176,0,0,1,.034-.108c-.029.029-.056.058-.085.088,0,0-.028.029,0,.026C117.318,22.936,117.345,22.933,117.373,22.9Zm1.484-3.026c0-.027-.024-.024-.022-.05l-.029.029,0,.053A.1.1,0,0,1,118.857,19.877Zm1.375-2.962c.026,0,0-.027,0-.053-.026,0-.053.006-.03.056Zm8.943,7.012-.052.006.023.024Zm.9-1.544,0,.027Zm1.146-3.409-.113.118A.537.537,0,0,1,131.223,18.974Zm.144-.515a3.937,3.937,0,0,0-.144.515A1.306,1.306,0,0,1,131.367,18.459Zm.111-.432.024.024a2.563,2.563,0,0,0-.135.408C131.4,18.324,131.44,18.188,131.478,18.027Zm.293-.768a1.287,1.287,0,0,1-.293.768l.024.024A1.277,1.277,0,0,1,131.771,17.259Zm.2-.547c.1-.353.212-.733.317-1.085a2.139,2.139,0,0,1,.339-.668c.025,0,.054-.032.081-.035a.084.084,0,0,1,.02.076c.025.024,0,.027,0,.053-.224.55-.45,1.1-.674,1.65a.114.114,0,0,1-.055.033A.021.021,0,0,1,131.97,16.712Zm.961-2.339c0-.026.029-.029.027,0l0,.027-.027,0Zm.208-.679c.033-.082.066-.164.1-.247.031-.056.09-.141.12-.2a2.827,2.827,0,0,1-.2.6C133.052,13.809,133.135,13.747,133.139,13.694Zm.25-.526c0-.053.03-.056.054-.033a.12.12,0,0,0-.03.056c-.026,0-.055.032-.083.062C133.358,13.223,133.36,13.2,133.389,13.168Zm2.6-7.457a.34.34,0,0,0-.1.274C136.015,5.761,136.049,5.652,135.993,5.711Zm.131-3.821-.026,0,.022.05Zm1.137,1.58.024.024-.028.029Z"/><path class="cls-1" d="M145.338,21.316l.444-.679c.057-.06.116-.145.067-.192-.073-.07-.159.018-.215.077-.17.176-.341.353-.485.526a1.974,1.974,0,0,1-.227.235.405.405,0,0,1-.583.091.509.509,0,0,1-.106-.67c.033-.083.093-.2.126-.277,0-.026-.023-.05-.047-.073l-.053.005c-.085.089-.2.18-.365.33a5.022,5.022,0,0,1,.192-.467c0-.027.006-.08-.02-.077a.083.083,0,0,0-.077-.018c-.083.062-.168.15-.251.212-.138.094-.269.082-.338-.041a1.088,1.088,0,0,1-.039-.862c.315-.718.477-1.471.844-2.168a8.118,8.118,0,0,0,.439-1.309,3.643,3.643,0,0,0,.172-.544l.026-.344c-.019-.1-.094-.148-.175-.112a2.339,2.339,0,0,0-.4.123l-1.692.582c-.02-.076-.068-.15-.151-.088a3.73,3.73,0,0,0-.819.8,1.111,1.111,0,0,0-.147.226c-.4.78-.8,1.533-1.2,2.312-.245.474-.492.974-.739,1.474a7.238,7.238,0,0,0-.477,1.129.317.317,0,0,1-.309.271c-.159.018-.274.162-.385.253-.2.2-.3.191-.417-.033,0-.026,0-.026-.022-.05-.092-.173-.118-.171-.286-.021a.518.518,0,0,1-.114.118.216.216,0,0,1-.266.056.714.714,0,0,1-.451-.606c.008-.106-.01-.209,0-.288-.018-.1-.067-.15-.175-.112-.427.1-.593-.118-.7-.447a1.891,1.891,0,0,1,.076-1.007,5.526,5.526,0,0,1,.226-.576,1.805,1.805,0,0,0,.134-.724,1.055,1.055,0,0,1,.107-.379c.063-.139.04-.188-.12-.145l-.237.027a.352.352,0,0,1-.324-.227.456.456,0,0,1,.138-.435c.166-.123.361-.277.527-.4a1.939,1.939,0,0,0,.221-.156c.169-.15.484-.159.531-.453-.259-.023-.434.206-.626.332a3.747,3.747,0,0,1-.738.424,1.657,1.657,0,0,1,.5-.45c.276-.188.578-.379.88-.57a1.45,1.45,0,0,0,.248-.159c.028-.03.087-.115.063-.139,0-.052-.073-.07-.1-.041a6.476,6.476,0,0,0-.574.327l-.992.661a.682.682,0,0,1-.166.124c-.081.035-.158.017-.152-.062a1.012,1.012,0,0,1,.384-.935c.307-.244.615-.515.923-.785a4.053,4.053,0,0,1,.548-.324c.19-.1.407-.2.625-.306a1.55,1.55,0,0,0,.655-.7,10.377,10.377,0,0,0,.609-1.144,3.461,3.461,0,0,1,.215-.418,9.261,9.261,0,0,0,.648-1.3,9.13,9.13,0,0,1,.82-1.509,13.278,13.278,0,0,0,.675-1.309,6.058,6.058,0,0,1,.3-.559c.381-.541.764-1.109,1.144-1.65a2.184,2.184,0,0,0,.183-.335,3.65,3.65,0,0,1,.567-.93c.519-.635.963-1.314,1.533-1.929a9.45,9.45,0,0,1,.681-.706c.392-.332.76-.715,1.2-1.053a8.359,8.359,0,0,1,.988-.609.95.95,0,0,1,1.066.092c.122.118.083.28-.107.38l-.494.291c-.054.032-.111.091-.063.138.025.024.078.018.13.012l.244-.106c.082-.036.189-.074.27-.109.051.021.075.044.02.076a2.926,2.926,0,0,1-.279.242c.123.091.263-.03.371-.068l.243-.106a.349.349,0,0,1,.4.192.318.318,0,0,1-.028.37,1.126,1.126,0,0,0-.245.474.5.5,0,0,0-.113.118.518.518,0,0,1-.112.091.261.261,0,0,1-.113.117.261.261,0,0,0,.113-.117.276.276,0,0,0,.114-.118c.028-.03.083-.062.111-.091a.725.725,0,0,1,.238-.026c.132-.015.176.085.118.17-.09.141-.175.229-.261.344-.116.144-.2.259-.319.4a.091.091,0,0,0,.016.13l.133-.015a.862.862,0,0,0-.071.244.551.551,0,0,0,.32.621,1.286,1.286,0,0,1,.626.718c.154.376.337.723.465,1.1a3.955,3.955,0,0,1,.14,1.271c-.021.632-.045,1.291-.067,1.924-.01.132-.046.268-.056.4a.737.737,0,0,0-.069.217,6.492,6.492,0,0,1-.5,2.183c-.23.63-.459,1.233-.688,1.835a13.737,13.737,0,0,1-.649,1.674,1.6,1.6,0,0,0-.158.359,18.666,18.666,0,0,1-.964,2.365c-.095.221-.216.444-.285.662a15.657,15.657,0,0,1-1.076,2.114,2.286,2.286,0,0,1-.405.518,3.7,3.7,0,0,1,.217-.444c.275-.53.577-1.062.854-1.618a3.078,3.078,0,0,0,.221-.5,22.174,22.174,0,0,1,.891-2.094,3.236,3.236,0,0,0,.366-1.038c-.055.032-.107.038-.11.064-.41.939-.825,1.93-1.262,2.871a16.8,16.8,0,0,1-1.192,2.259c-.12.2-.263.371-.41.571a1.375,1.375,0,0,1-.279.241c-.083.061-.164.1-.239.052C145.219,21.513,145.279,21.4,145.338,21.316Zm-7.413-3.009a.031.031,0,0,0,.028-.029c-.024-.024-.051-.021-.053.006-.028.029,0,.026,0,.053A.032.032,0,0,0,137.925,18.307Zm1.128,2.737c.156-.333.285-.662.468-1,.488-.92.978-1.867,1.468-2.814q.137-.252.28-.583c.028-.029,0-.079.009-.132-.024-.023-.048-.047-.077-.018a.368.368,0,0,0-.172.2c-.243.447-.488.921-.733,1.394-.4.78-.822,1.536-1.17,2.336-.068.191-.134.382-.2.547,0,.053-.01.132.016.129C138.992,21.155,139.024,21.073,139.053,21.044Zm2.357-9.74c-.034.109-.17.177-.1.274C141.4,11.49,141.376,11.413,141.41,11.3Zm.45-.758c.03-.057.089-.142.12-.2a.437.437,0,0,1,.087-.114l.006-.08c-.027,0-.029.029-.057.059,0,.053-.032.082-.036.135a2.091,2.091,0,0,1-.122.224c-.03.056-.063.138-.093.194A2.248,2.248,0,0,0,141.86,10.546Zm2.427,3.9a.073.073,0,0,0,.056-.059c-.02-.077-.072-.071-.127-.039-.482.133-.991.295-1.474.453-.079.009-.164.1-.245.133a.112.112,0,0,0-.033.082c0,.079.047.073.125.091A12.508,12.508,0,0,0,144.287,14.45Zm-1.714,1.214,0,.027-.026,0Zm.44-7.216.028-.029-.028.029c-.258.291-.412.6-.3.533A.91.91,0,0,0,143.013,8.448Zm.363-.644-.027,0Zm2.653,4.01a6.16,6.16,0,0,0,.231-.629,6.866,6.866,0,0,0,.556-1.821c.039-.162.1-.353.145-.541.236-.683.444-1.362.678-2.045.035-.108.043-.214.073-.27l.006-.08a.455.455,0,0,0-.069-.123c-.051-.021-.079.009-.136.067-.085.089-.1.248-.254.239a.528.528,0,0,0-.438.258c-.144.174-.263.371-.381.542-.358.591-.719,1.208-1.128,1.779-.643.886-1.08,1.827-1.617,2.7-.03.056-.036.135-.067.191,0,.027,0,.053.023.05s.05.021.077.018a.478.478,0,0,0,.2-.179c.15-.253.3-.506.424-.756a7.617,7.617,0,0,1,.778-1.294,5.069,5.069,0,0,0,.416-.65c.3-.506.573-1.009.87-1.489a5.35,5.35,0,0,1,.412-.6c.056-.059.089-.141.162-.07.026,0-.006.079-.036.135-.18.309-.389.647-.6.959-.235.341-.446.706-.656,1.071a1.409,1.409,0,0,1-.27.45,17.575,17.575,0,0,0-1.2,2.076,1.3,1.3,0,0,0-.037.135c-.034.109.015.156.089.2.1.015.183.006.287.021a2.8,2.8,0,0,1,.94.027C145.789,12.235,145.9,12.144,146.029,11.814Zm-2.085-4.966,0-.026a2,2,0,0,0-.122.223C143.856,6.989,143.915,6.9,143.944,6.848Zm2.776-3.826.085-.089.113-.117a.539.539,0,0,0,.114-.118l.113-.118.114-.117a.481.481,0,0,1,.111-.091.517.517,0,0,1,.087-.115l.114-.117a1.073,1.073,0,0,0,.332-.248l0,.027a.973.973,0,0,0-.33.221c-.028.029-.059.085-.087.114a.276.276,0,0,0-.114.118.481.481,0,0,0-.111.091.51.51,0,0,1-.114.117.5.5,0,0,1-.113.118.539.539,0,0,1-.114.118c-.028.029-.059.085-.087.115a.261.261,0,0,0-.113.117c-.029.029-.084.062-.112.092C146.634,3.11,146.663,3.08,146.72,3.022Zm.851,2.924c.031-.056.006-.079-.02-.077a.114.114,0,0,0-.055.033l-.006.079C147.517,5.978,147.545,5.949,147.571,5.946Zm1.44,9a4.222,4.222,0,0,0,.509-1.185.045.045,0,0,0-.049-.047c-.027,0-.055.032-.083.061-.16.386-.347.774-.5,1.133,0,.026.02.076.046.073C148.928,15.01,148.983,14.977,149.011,14.948Zm.783-2.056,0-.026-.026,0c-.026,0-.026,0-.028.029S149.766,12.921,149.794,12.892Zm.195-.494-.027,0,.025.023Zm.334-.956a.229.229,0,0,0,.036-.135c.144-.174.208-.339.125-.277s-.093.194-.125.277c-.03.055-.059.085-.089.141l-.006.079A.19.19,0,0,0,150.323,11.442Z"/><path id="SUBRAYADAO" class="cls-1" d="M149.3,36.141a9.121,9.121,0,0,1-2.053-.16c-.451-.041-.9-.083-1.354-.121-.087-.007-.175,0-.232-.082l-.01,0h0l0,0,0,0,.036.015h-.014c-.01-.005-.019-.006-.028-.01a.654.654,0,0,1-.34.03.163.163,0,0,1-.042.011c-.123,0-.253.092-.366-.025a.079.079,0,0,1,.013-.075.419.419,0,0,1,.376.015c.127-.016.263-.12.369.038l.011-.007h0l.009.009a3.051,3.051,0,0,1,1.582.112c.4-.116.841.1,1.335-.151-.25-.051-.394-.089-.54-.109a19.549,19.549,0,0,0-3.115-.118c-1.472.042-2.94-.008-4.409-.046-1.362-.035-2.722-.136-4.085-.11a20.754,20.754,0,0,1-3.654-.142h0a26.2,26.2,0,0,1-2.76-.015,10.563,10.563,0,0,1-1.867-.1c.278-.221.525-.052.76-.063a5.816,5.816,0,0,1,.825-.017,7.2,7.2,0,0,1,.776.04,7.707,7.707,0,0,1,2.458.034,5.825,5.825,0,0,1,1.555,0,17.03,17.03,0,0,0,2.155.083,1.042,1.042,0,0,1,.224.039h0a11.931,11.931,0,0,1,1.556-.14c1.131,0,2.258.146,3.391.1.335-.014.673.01,1.009.024a21.921,21.921,0,0,0,2.474.082,9.643,9.643,0,0,1,2.243.1,1.163,1.163,0,0,0,.8-.09c-.025-.048-.079-.106-.066-.142.019-.055.09-.047.146-.026.176-.057.388.017.537-.145-.518-.062-1.043,0-1.554-.052-.928-.1-1.86-.086-2.787-.167-.136.024-.274.078-.405-.018a2.97,2.97,0,0,1-.652-.06h0l-.28.03-.182.019a.552.552,0,0,1-.4-.019,18.251,18.251,0,0,1-2.385.02c-.825-.006-1.648-.093-2.474-.041a6.869,6.869,0,0,1-.869-.052,7.406,7.406,0,0,1-.868-.065,6.183,6.183,0,0,1-1.92.05,2.829,2.829,0,0,0-.688.006,4.516,4.516,0,0,1-1.919-.26,15.685,15.685,0,0,1,2.39.038c.776.034,1.554.032,2.331.045.38.079.77-.061,1.15.047h0a1.611,1.611,0,0,1,.362-.039c.853.1,1.708-.031,2.561.027.3-.085.639.007.919-.185a3.146,3.146,0,0,0-.909-.048c-.824-.072-1.65-.118-2.476-.162-1.177-.063-2.355-.114-3.53-.232a14.764,14.764,0,0,0-2.98-.117c-.471.047-.95,0-1.426.015a10.685,10.685,0,0,0-2.383.17,3.587,3.587,0,0,1-1.37.094c-.38-.051-.76-.084-1.142-.1a7.93,7.93,0,0,0-2.789.136,1.087,1.087,0,0,1-.365.031c-1.3-.069-2.6-.136-3.9-.154q-1.657-.023-3.313.034c-.406.014-.766.2-1.168.226-.583.032-1.166.008-1.748.022a9.762,9.762,0,0,0-2.381.187c-.545.15-1.116.129-1.668.309a4.441,4.441,0,0,1-1.093.054c-.921.041-1.84-.032-2.759-.037-1.013-.005-2.025.007-3.037.006a15.755,15.755,0,0,0-2.794.272c-.771.139-1.535.3-2.313.4-1.6.2-3.213.309-4.8.593a19.425,19.425,0,0,1-2.872.393,21.745,21.745,0,0,0-2.428.243c-.746.1-1.486.243-2.232.34-2.986.39-5.988.637-8.982.956a3.562,3.562,0,0,0-1.07.2h0l-1.456.175c-.9.1-1.805.176-2.7.311-1.4.211-2.781.493-4.179.7-2.113.307-4.213.69-6.333.952a17.541,17.541,0,0,0-2.353.43,3.436,3.436,0,0,1-.946.177,11.372,11.372,0,0,0-2.058.208c-1.531.246-3.067.461-4.6.708-.8.13-1.6.3-2.4.452-.873.169-1.741.375-2.62.506-1.412.211-2.833.361-4.233.651a4.734,4.734,0,0,1-.641.064,16.445,16.445,0,0,0-1.7.139c-1.15.194-2.289.444-3.426.7a8.229,8.229,0,0,0-2.67.792.691.691,0,0,1-.131.042,10.359,10.359,0,0,1-1.865.487c-.848.132-1.61.571-2.474.672a8.751,8.751,0,0,0-1.833.43,7.745,7.745,0,0,1-2.386.442,9.151,9.151,0,0,0-2.111.443c-.508.133-1,.374-1.509.534-1.11.346-2.2.75-3.31,1.1a5.253,5.253,0,0,0-2.173,1.143,1.164,1.164,0,0,1-.583.259c-.691.149-1.334.453-2.02.615-.109.026-.241.066-.268.159-.079.28-.332.35-.533.468A20.765,20.765,0,0,1,8.1,53.02c-.175.08-.171.2-.013.314a.772.772,0,0,0,.778.129c.369-.149.752-.26,1.12-.409a.308.308,0,0,1,.452.152c-.081.157-.249.179-.38.244a5.236,5.236,0,0,0-.725.394c-.059.042-.132.1-.11.187.025.1.12.127.212.138a1.016,1.016,0,0,0,.607-.184,2.918,2.918,0,0,1,.814-.416c.606-.1,1.191-.293,1.793-.405.159-.048.34-.028.471-.16a1.209,1.209,0,0,0,.286-.1.319.319,0,0,1,.033-.011,1.588,1.588,0,0,1-.313.115c-.093.11-.285.077-.344.236a1.462,1.462,0,0,1-.527.268c-.411.122-.815.265-1.226.39a.434.434,0,0,0-.3.191.585.585,0,0,1-.478.3,1.993,1.993,0,0,0-.378.164c-.081.038-.183.07-.164.189a.206.206,0,0,0,.2.169,1.947,1.947,0,0,0,.818-.014,8.005,8.005,0,0,1,1.235-.358c.11-.02.249-.056.268-.153.069-.349.361-.368.611-.457.923-.325,1.811-.74,2.742-1.049.39-.129.849-.131,1.116-.535.034-.052.134-.066.207-.085a5.5,5.5,0,0,0,1.6-.549,1.043,1.043,0,0,1,.391-.124A10.716,10.716,0,0,0,20.8,51.11c.562-.2,1.139-.357,1.71-.529.3-.092.662-.1.868-.364.249-.322.577.024.86-.167a2.816,2.816,0,0,1,.908-.307c.412-.1.793-.29,1.2-.41.241-.071.525.005.714-.244.055-.074.174-.036.264-.021a.732.732,0,0,0,.319-.011c.459-.121.916-.246,1.378-.357.625-.15,1.227-.389,1.862-.5a14.751,14.751,0,0,0,2.178-.561,2.988,2.988,0,0,1,1.025-.238,4.334,4.334,0,0,0,1.212-.2,2.18,2.18,0,0,1,1.328-.172.907.907,0,0,0,.5-.068,39.121,39.121,0,0,1,4.572-1.03,10.024,10.024,0,0,0,1.493-.268,14.4,14.4,0,0,1,1.439-.456,18.92,18.92,0,0,1,3.783-.92.887.887,0,0,0,.222-.058,19.133,19.133,0,0,1,4.156-.765,1.173,1.173,0,0,1,.457-.009,1.135,1.135,0,0,0,.636-.025,21.785,21.785,0,0,1,4.056-.562,28.748,28.748,0,0,0,4.237-.605,40.572,40.572,0,0,1,4.813-.766l.094-.01c.067-.1.174-.094.275-.1a1.124,1.124,0,0,0,.711-.037,2.1,2.1,0,0,1,.761-.128,1.836,1.836,0,0,0,1.226-.194.358.358,0,0,1,.221-.034,2.4,2.4,0,0,0,1.088-.235c.9-.1,1.8-.189,2.7-.333a26.284,26.284,0,0,1,2.685-.4c1.44-.082,2.881-.146,4.316-.3.443-.048.885-.1,1.329-.138,1.1-.086,2.213-.13,3.3-.284a43.074,43.074,0,0,1,4.36-.293,23.355,23.355,0,0,0,2.658-.244,15.041,15.041,0,0,1,2.957-.4.463.463,0,0,0,.18-.033,3.127,3.127,0,0,1,.95-.158,2.957,2.957,0,0,0,.991-.184c.095-.041.232-.1.309-.03.218.2.417.077.637.019a4.445,4.445,0,0,1,.759-.184c1.072-.094,2.124-.31,3.181-.5,2.133-.384,4.291-.58,6.443-.824,1.619-.184,3.248-.187,4.872-.281.385-.022.772-.012,1.157-.017l.009.091c-.538-.016-1.018.268-1.567.225a10.751,10.751,0,0,0-2.614.114,2.522,2.522,0,0,1-.914.067,2.317,2.317,0,0,0-1.1.074,2.61,2.61,0,0,1-.721.124c-1.279,0-2.531.3-3.806.344a.459.459,0,0,0-.453.233,1.694,1.694,0,0,0,.74.021,10.938,10.938,0,0,1,1.42-.148c2.561-.117,5.108-.45,7.675-.492,1.135-.019,2.269-.109,3.4-.132.522-.01,1.041-.071,1.563-.067a14.187,14.187,0,0,0,1.977-.056,3.236,3.236,0,0,1,.6-.046c1.735.108,3.462-.13,5.194-.1a12.2,12.2,0,0,1,1.511-.047c1.043.151,2.071-.16,3.116-.015.55.075,1.128,0,1.69.056a4.626,4.626,0,0,0,.963-.006h0c.274-.1.595.006.847-.191-.227-.13-.509.037-.825-.158a10.523,10.523,0,0,1,1.965-.074,12.4,12.4,0,0,1,1.927,0c.64.019,1.279.053,1.918.081h0a2.1,2.1,0,0,1,.667.109h0c.161-.051.322-.106.467.033a.917.917,0,0,1,.465-.024.31.31,0,0,1,.269-.044h0l.655.02c.186,0,.378-.115.556.03l.007,0c.213,0,.427-.109.641,0a2.553,2.553,0,0,0,.74.036,3.391,3.391,0,0,1,1.05-.042,9.515,9.515,0,0,0,1.143.09c.655.006,1.307.073,1.963.081a12.225,12.225,0,0,0,1.555,0c.081-.01.19.016.226-.138A5,5,0,0,0,149.3,36.141Zm-17.944-1.809s.026.038.038.057c-.027.064-.072.04-.113.027a.127.127,0,0,1-.037-.025A.857.857,0,0,1,131.354,34.332Zm-86.7,9.161c.05-.029.077.008.1.044-.016.022-.035.064-.047.062a.626.626,0,0,1-.119-.047A.439.439,0,0,1,44.655,43.493Zm15.124-1.7h0a.2.2,0,0,1,.192.076C59.907,41.844,59.776,41.989,59.779,41.8Zm22.834-3.411a4.194,4.194,0,0,1-1.225.038c-.183-.053-.294.123-.47.132-.373.016-.741.1-1.114.126-.179.011-.2.214-.375.22a4.325,4.325,0,0,1-1.5.048c-.07-.023-.164-.085-.215-.023-.226.275-.535.129-.8.186-.624.133-1.26.141-1.888.222-.461.059-.924.091-1.381.183-.438.087-.879.158-1.316.255a6.643,6.643,0,0,0-.958.23c0,.035.009.07.014.1.046.015.1.021.094.09l-.171.01-.225-.077c-.167-.151-.265.108-.433.07a1.266,1.266,0,0,0-.442.062h0a.761.761,0,0,1-.558.123c-.176-.006-.37-.054-.395.3-.074-.2-.043-.281.034-.345-.166-.158-.364-.052-.514-.009-.2.058-.41.091-.616.131-.176.034-.4-.031-.442.257-.006.04-.159.059-.244.088h0a.259.259,0,0,1-.141-.257,15.8,15.8,0,0,1-1.621.184c-.213.236-.579-.031-.787.239-.037.049-.114.012-.171-.014s-.173-.074-.216-.021c-.257.311-.633.2-.951.267a1.947,1.947,0,0,1-.995.06c-.136-.043-.263.071-.384.115-.324.119-.657-.006-.975.086a.355.355,0,0,0-.389-.143c-.455.059-.914.093-1.371.137l-.269.04c.012.091.031.191-.1.211-.1.016-.213.009-.319.023a2.921,2.921,0,0,0-1.019.162,1.736,1.736,0,0,1-.7.224c-.41.042-.82.071-1.23.1h0a4.942,4.942,0,0,0-1.146-.061c-.471.058-.942.109-1.414.163-.075.009-.183-.008-.219.035-.257.309-.65.206-.969.3-.222.068-.468.094-.707.157-.3.079-.6.175-.9.256-.619.166-1.252.245-1.874.387-.377.087-.752.185-1.122.3a16.584,16.584,0,0,1-2.2.312c-.827.141-1.67.207-2.488.387a14.541,14.541,0,0,0-1.785.474,1.544,1.544,0,0,1-.922.079,2.272,2.272,0,0,0-1.364.175c-.605.228-1.25.326-1.841.595a.506.506,0,0,1-.311.061c-.567-.173-1.052.206-1.589.22-.086,0-.168.049-.265.023-.3-.082-.3-.154-.154-.43a.523.523,0,0,1,.548-.3c.369.022.712-.135,1.076-.146h0c.058-.149.181-.1.291-.1,0-.069.03-.107.1-.107a.235.235,0,0,1,.053,0l.193.047.041-.124c.232.14.373-.165.615-.115a2.243,2.243,0,0,0,.675-.075c.242-.031.484-.055.726-.087a.938.938,0,0,0,.483-.119h0l.3-.049c.062-.15.2-.19.336-.24a.171.171,0,0,1,.186-.084c.589-.062,1.151-.275,1.748-.3a1.535,1.535,0,0,1,.4.023,3.067,3.067,0,0,0,1.317.079,4.471,4.471,0,0,0,1.152-.32c.146-.076.1-.163.089-.262-.042.03-.082.029-.1-.019-.005-.011.02-.05.039-.059.046-.019.083,0,.091.051a7.955,7.955,0,0,0,2.392-.535,6.1,6.1,0,0,1,1.786-.314,6.147,6.147,0,0,0,1.536-.33,3.161,3.161,0,0,1,1.26-.124,1.6,1.6,0,0,0,.635-.066,18.358,18.358,0,0,1,2.545-.357c.5-.061,1-.091,1.492-.163,1.144-.166,2.281-.386,3.428-.516,1.346-.153,2.655-.507,4-.653,1.181-.129,2.339-.428,3.526-.558.435-.048.873-.159,1.313-.183.233-.012.366-.2.574-.222.074.216.246.139.385.117.452-.074.9-.165,1.351-.24,1.024-.17,2.054-.3,3.079-.469.895-.145,1.81-.173,2.717-.253l.094-.081,0-.01.011,0a.928.928,0,0,1,1.051-.154c.157.049.284.154.452.014a.363.363,0,0,1,.267-.033,3.145,3.145,0,0,0,1.166-.119,2.551,2.551,0,0,1,.907.055c.073.014.186.072.211.044.227-.239.533-.143.8-.2a1.312,1.312,0,0,1,.992.1C82.866,38.266,82.8,38.384,82.613,38.384Zm11.1-.657-.043-.024c.009-.009.017-.026.027-.026s.019.015.029.023Zm.716-.071s-.019-.015-.028-.024c.009-.009.017-.025.027-.025s.019.015.028.024C94.451,37.64,94.442,37.656,94.433,37.656Zm8.484-.566c-.025.016-.043,0-.041-.035,0-.01.016-.02.025-.03l.026.03C102.924,37.067,102.925,37.086,102.917,37.09Zm13.68-.843a1.488,1.488,0,0,1-.764.02.538.538,0,0,1-.32-.057,1.424,1.424,0,0,1,.595-.071c.214,0,.433-.113.643.02C116.76,36.292,116.661,36.239,116.6,36.247Zm.771.029c-.043,0-.123.019-.107-.066,0-.023.068-.047.105-.047a.378.378,0,0,1,.126.05C117.44,36.241,117.405,36.275,117.368,36.276Zm14.987-.578c.069-.007.147-.035.191.049a.088.088,0,0,1-.079.1c-.074.01-.158.014-.191-.07C132.254,35.719,132.312,35.7,132.355,35.7Zm-2.164.335a2.161,2.161,0,0,1-.859.011,4.155,4.155,0,0,1-.982.086h0l-.748-.022h0l-.368-.048a.438.438,0,0,1-.375-.02c.134-.2.291-.157.455-.083l.28.067a1.16,1.16,0,0,1,.743.019,5.989,5.989,0,0,1,1.1-.1l.745.015a1.78,1.78,0,0,1,.685.075A.893.893,0,0,1,130.191,36.033Zm3.078.119a12.286,12.286,0,0,1-1.86,0h0l-.377-.045a1.278,1.278,0,0,1,.788-.066,4.869,4.869,0,0,1,1.538.022.757.757,0,0,1,.466.017A.964.964,0,0,1,133.269,36.152Zm5.749-.349a.4.4,0,0,1-.033-.069c0-.006.018-.019.028-.029a.483.483,0,0,1,.033.069C139.048,35.78,139.028,35.793,139.018,35.8Z"/></g></g></g></svg>