<svg xmlns="http://www.w3.org/2000/svg" width="225.833" height="169" viewBox="0 0 225.833 169"><defs><style>.cls-1{fill:#fff;}.cls-2{fill:none;}</style></defs><title>IMAGEN</title><g id="Layer_2" data-name="Layer 2"><g id="NOSOTROS"><g id="IMAGEN"><g id="GRUPO_IMAGEN" data-name="GRUPO IMAGEN"><path class="cls-1" d="M108.384,76.107c3.787,0,7.574,0,11.362-.007.312,0,.392.077.392.391q-.013,11.4,0,22.8c0,.319-.085.389-.394.389q-11.381-.015-22.761,0c-.329,0-.415-.073-.414-.41q.016-11.381,0-22.761c0-.341.091-.41.417-.409C100.784,76.111,104.584,76.107,108.384,76.107Z"/><path class="cls-1" d="M121.251,61.147a12.905,12.905,0,1,1-12.89-12.926A12.947,12.947,0,0,1,121.251,61.147Z"/><path class="cls-1" d="M84.123,118.087l-3.334-5.094v.466c0,2.2,0,4.405.006,6.607,0,.272-.049.366-.345.359-.956-.021-1.913-.017-2.869,0-.255,0-.314-.076-.313-.318q.009-6.172,0-12.345c0-.276.089-.326.341-.323q1.585.021,3.171,0a.476.476,0,0,1,.469.277c.954,1.567,1.92,3.126,2.886,4.694.151-.071.192-.224.266-.343.893-1.443,1.786-2.885,2.663-4.337a.533.533,0,0,1,.536-.29q1.548.021,3.095,0c.266,0,.363.039.363.34q-.018,6.154,0,12.307c0,.26-.061.343-.33.339-.956-.017-1.913-.019-2.869,0-.3.005-.377-.072-.375-.372.014-2.253.008-4.5.008-6.758v-.216l-.07-.03Z"/><path class="cls-1" d="M137.382,113.422v.406c0,2.075-.007,4.151.008,6.227,0,.306-.088.375-.378.369-.956-.018-1.912-.015-2.868,0-.247,0-.319-.062-.319-.312q.012-6.191,0-12.379c0-.232.06-.3.294-.294.893.014,1.786.016,2.679,0a.682.682,0,0,1,.626.3c1.57,2.042,3.156,4.072,4.738,6.105.091.117.187.229.3.369a.638.638,0,0,0,.06-.408c0-2,.009-4-.006-6,0-.3.085-.371.374-.365.955.018,1.912.012,2.868,0,.225,0,.328.027.328.3q-.015,6.189,0,12.379c0,.263-.091.309-.326.3-.83-.012-1.661-.016-2.491,0a.62.62,0,0,1-.562-.278q-2.515-3.249-5.043-6.489c-.068-.086-.137-.171-.2-.256Z"/><path class="cls-1" d="M116.5,112.827c.893,0,1.786.007,2.68,0,.226,0,.3.05.3.289-.01,1.774-.007,3.548,0,5.322a.407.407,0,0,1-.156.358c-2.885,2.3-7.357,2.583-10.146.309a6.337,6.337,0,0,1-2.357-4.588,6.641,6.641,0,0,1,5.816-7.252,7.683,7.683,0,0,1,6.162,1.6c.183.149.222.237.05.434q-.876,1.011-1.712,2.059c-.16.2-.262.222-.468.055a4.249,4.249,0,0,0-3.294-1,3.322,3.322,0,0,0-2.816,2.719,3.573,3.573,0,0,0,1.826,4.075,3.958,3.958,0,0,0,3.423-.018.393.393,0,0,0,.269-.434,9.116,9.116,0,0,1,0-1.019c.01-.218-.066-.278-.278-.274-.667.012-1.334,0-2,.01-.233,0-.3-.063-.294-.3.015-.692.013-1.384,0-2.076,0-.218.068-.278.28-.275C114.687,112.833,115.593,112.827,116.5,112.827Z"/><path class="cls-1" d="M121.483,113.92c0-2.052.006-4.1-.006-6.154,0-.267.068-.329.331-.329q4.869.015,9.74,0c.27,0,.37.045.36.343q-.036,1.132,0,2.265c.01.328-.057.442-.419.438-2.026-.02-4.052,0-6.078-.018-.324,0-.4.09-.382.4a11.19,11.19,0,0,1,0,1.282c-.014.255.073.309.314.308,1.85-.01,3.7,0,5.55-.013.3,0,.379.08.37.374-.021.717-.019,1.435,0,2.152.007.271-.081.331-.339.329-1.85-.011-3.7,0-5.55-.013-.29,0-.36.078-.346.355a12.816,12.816,0,0,1,0,1.358c-.014.277.055.358.346.356,2.064-.014,4.128,0,6.191-.016.345,0,.442.083.43.429-.028.792-.016,1.586,0,2.378,0,.209-.049.28-.269.28q-4.985-.01-9.967,0c-.314,0-.271-.163-.271-.351Q121.485,117,121.483,113.92Z"/><path class="cls-1" d="M92.307,120.417c.3-.724.587-1.4.873-2.082q2.257-5.341,4.509-10.685a.421.421,0,0,1,.469-.31c.943.016,1.887.012,2.83,0a.374.374,0,0,1,.42.262q2.627,6.248,5.274,12.487c.108.254.1.338-.212.333q-1.6-.026-3.208,0a.392.392,0,0,1-.43-.308c-.229-.6-.485-1.184-.715-1.781a.321.321,0,0,0-.355-.245c-1.5.008-2.994.011-4.491,0a.344.344,0,0,0-.374.274c-.229.6-.469,1.192-.709,1.785-.049.121-.061.273-.257.272C94.74,120.415,93.55,120.417,92.307,120.417Zm5.769-5.147h2.89l-1.436-3.664Z"/><path class="cls-1" d="M74.9,113.921c0,2.049-.006,4.1.007,6.147,0,.281-.065.362-.352.357q-1.47-.028-2.941,0c-.3.006-.345-.09-.345-.361q.013-6.148,0-12.3c0-.266.068-.335.332-.331q1.488.024,2.979,0c.271,0,.327.078.326.336C74.9,109.822,74.9,111.871,74.9,113.921Z"/></g><rect class="cls-2" width="225.833" height="169"/></g></g></g></svg>