<svg xmlns="http://www.w3.org/2000/svg" width="225.833" height="169" viewBox="0 0 225.833 169"><defs><style>.cls-1{fill:#faf4f5;}.cls-2{fill:none;}</style></defs><title>TNT</title><g id="Layer_2" data-name="Layer 2"><g id="NOSOTROS"><g id="TNT"><g id="TNT-2" data-name="TNT"><path class="cls-1" d="M78.917,84.379c0,18.349,15.3,33.275,34.075,33.275s34.054-14.926,34.054-33.275S131.77,51.117,112.992,51.117,78.917,66.039,78.917,84.379Zm5.461,0c0-15.409,12.838-27.946,28.614-27.946S141.61,68.97,141.61,84.379s-12.84,27.957-28.618,27.957S84.378,99.8,84.378,84.379Z"/><path class="cls-1" d="M103.717,81.392H98.612V94.357H94.158V81.392H89.052V77.649h14.665Z"/><path class="cls-1" d="M105.634,77.649h4.577l5.944,10.293h.046V77.649h4.2V94.357h-4.58l-5.943-10.413h-.046V94.357h-4.195Z"/><path class="cls-1" d="M137,81.392h-5.1V94.357H127.44V81.392h-5.1V77.649H137Z"/></g><rect class="cls-2" width="225.833" height="169"/></g></g></g></svg>