<svg xmlns="http://www.w3.org/2000/svg" width="225.833" height="169" viewBox="0 0 225.833 169"><defs><style>.cls-1{fill:#fff;}.cls-2{fill:none;}</style></defs><title>TELEMUNDO</title><g id="Layer_2" data-name="Layer 2"><g id="NOSOTROS"><g id="TELEMUNDO"><g id="TELEMUNDO-2" data-name="TELEMUNDO"><polygon class="cls-1" points="72.884 106.58 72.884 108.34 75.334 108.34 75.334 115.099 77.316 115.099 77.316 108.34 79.763 108.34 79.763 106.58 72.884 106.58"/><polygon class="cls-1" points="81.731 115.099 81.731 106.585 87.807 106.585 87.807 108.316 83.702 108.316 83.702 109.87 86.668 109.87 86.668 111.59 83.702 111.59 83.702 113.368 87.867 113.368 87.867 115.099 81.731 115.099"/><polygon class="cls-1" points="90.229 115.099 90.229 106.58 92.227 106.58 92.227 113.319 96.077 113.319 96.077 115.099 90.229 115.099"/><polygon class="cls-1" points="97.886 115.099 97.886 106.585 103.961 106.585 103.961 108.316 99.857 108.316 99.857 109.87 102.822 109.87 102.822 111.59 99.857 111.59 99.857 113.368 104.022 113.368 104.022 115.099 97.886 115.099"/><path class="cls-1" d="M117.071,106.585h2.018v5.241a1.521,1.521,0,1,0,3.039,0v-5.237h2.019v5.241c0,2.376-1.638,3.389-3.553,3.389s-3.523-1.013-3.523-3.393Z"/><path class="cls-1" d="M126.629,115.1V106.58h1.7s3.364,4.753,3.486,4.988l-.016-4.988h1.912V115.1h-1.6s-3.433-4.907-3.579-5.157l.017,5.157Z"/><path class="cls-1" d="M139.268,106.585h-3.006V115.1h2.859c2.941,0,4.461-1.444,4.461-4.288s-1.6-4.226-4.314-4.226m-.057,6.758h-.951v-5h1c1.639,0,2.305.947,2.305,2.495,0,1.631-.714,2.508-2.353,2.508"/><path class="cls-1" d="M152.258,107.723a4.175,4.175,0,0,0-6.029,0,5.041,5.041,0,0,0-.007,6.232,4.174,4.174,0,0,0,6.029-.012,5.045,5.045,0,0,0,.007-6.225M150.8,112.6a1.847,1.847,0,0,1-3.113,0,3.412,3.412,0,0,1-.006-3.527,1.8,1.8,0,0,1,1.546-.846,1.832,1.832,0,0,1,1.564.86,3.428,3.428,0,0,1,.009,3.514"/><path class="cls-1" d="M106.362,115.1V106.58h1.776s2.261,4.229,2.349,4.544c.1-.324,2.349-4.544,2.349-4.544h1.752V115.1h-1.882v-4.866c-.124.309-1.54,2.9-1.9,3.681h-.668c-.354-.78-1.772-3.372-1.895-3.681V115.1Z"/><path class="cls-1" d="M136.753,52.53h-8.322a23.323,23.323,0,0,0-15.2,5.02l0,0-.114.1c-.012.011-1.243,1.132-2.124,2.131-.421.478-.825.98-1.2,1.491-3.014,4.119-4.509,9.306-4.442,15.415a27.89,27.89,0,0,0,1.3,8.338c.259.8.532,1.52.837,2.215.047.108.1.216.145.324a22.059,22.059,0,0,0,1.482,2.72c.188.314.3.484.5.773l-.215.152c-.115-.162-.228-.324-.339-.488-.289-.429-.569-.876-.832-1.331a30.863,30.863,0,0,1-1.448-2.957c-.036-.091-.072-.182-.107-.273a27.049,27.049,0,0,1-1.8-9.468,26.483,26.483,0,0,1,2.679-12.438,22.038,22.038,0,0,1,1.943-3.133,22.5,22.5,0,0,1,2.465-2.792c.1-.1.2-.2.3-.3.211-.208.428-.424.641-.607l.022-.019a23.376,23.376,0,0,0-15.021-4.88H89.593a.143.143,0,0,0-.143.143V71.009a.143.143,0,0,0,.143.142h14.155a.121.121,0,0,1,.137.124c-.829,28.241-.868,29.6-.87,29.611,0,.048.008.073.073.073a24,24,0,0,0,10.085-5.073,23.992,23.992,0,0,0,10.085,5.073c.067,0,.072-.026.072-.077,0,.024-.87-29.607-.87-29.607a.121.121,0,0,1,.138-.124h14.155a.142.142,0,0,0,.142-.142V52.673A.142.142,0,0,0,136.753,52.53Z"/></g><rect class="cls-2" width="225.833" height="169"/></g></g></g></svg>