<svg xmlns="http://www.w3.org/2000/svg" width="225.833" height="169" viewBox="0 0 225.833 169"><defs><style>.cls-1{fill:#fff;fill-rule:evenodd;}.cls-2{fill:none;}</style></defs><title>YOUTUBE</title><g id="Layer_2" data-name="Layer 2"><g id="NOSOTROS"><g id="YOUTUBE"><g id="YOUTUBE-2" data-name="YOUTUBE"><path class="cls-1" d="M124.8,95.91h3.069V78.852H124.8v13c-2.208,2.572-2.765.65-2.765-.316V78.852h-3.068V92.144c0,2.17.542,3.553,1.922,3.773.919.146,2.247,0,3.911-2.033V95.91Zm-24.8,0h3.459V86.755l4.115-13.644h-3.46l-2.388,8.574-2.388-8.574H95.88L100,86.776V95.91Zm12.023-17.251h0a4.6,4.6,0,0,1,4.591,4.591v8.07a4.6,4.6,0,0,1-4.591,4.59h0a4.6,4.6,0,0,1-4.59-4.59V83.25a4.6,4.6,0,0,1,4.59-4.591Zm-1.466,13.075a1.471,1.471,0,0,0,1.466,1.466h0a1.47,1.47,0,0,0,1.466-1.466V82.865a1.47,1.47,0,0,0-1.466-1.466h0a1.471,1.471,0,0,0-1.466,1.466Z"/><path class="cls-1" d="M151.262,95.91h3.069V94.1a3.69,3.69,0,0,0,3.4,1.813c3.1-.357,2.534-4.465,2.534-4.465V82.7c0-2.884-1.02-4.038-2.822-4.038a4.6,4.6,0,0,0-3.107,1.776V73.111h-3.069v22.8Zm3.069-3.527V82.207a1.934,1.934,0,0,1,1.544-.808c1.442.1,1.3,1.923,1.3,1.923s-.024,6.753-.024,8.051-.5,1.755-1.346,1.779A2.127,2.127,0,0,1,154.331,92.383Z"/><path class="cls-1" d="M145.461,95.91h3.068V78.852h-3.068v13c-2.209,2.572-2.765.65-2.765-.316V78.852h-3.069V92.144c0,2.17.543,3.553,1.922,3.773.92.146,2.247,0,3.912-2.033Z"/><polygon class="cls-1" points="132.104 95.91 135.564 95.91 135.564 76.365 139.189 76.365 139.189 73.111 128.479 73.111 128.479 76.365 132.104 76.365 132.104 95.91"/><path class="cls-1" d="M167.316,78.659h0a4.6,4.6,0,0,1,4.59,4.591v4.614h-6.057v3.87a1.471,1.471,0,0,0,1.467,1.466h0a1.471,1.471,0,0,0,1.466-1.466v-1.9h3.124V91.32a4.6,4.6,0,0,1-4.59,4.59h0a4.6,4.6,0,0,1-4.591-4.59V83.25a4.6,4.6,0,0,1,4.591-4.591Zm1.466,6.609v-2.4a1.471,1.471,0,0,0-1.466-1.466h0a1.471,1.471,0,0,0-1.467,1.466v2.4Z"/><path class="cls-1" d="M92.758,82.96c-.059-4.411-.462-8.845-2.269-10.483-.7-.632-1.36-1.028-4.01-1.275-3.316-.308-7.808-.351-11.2-.357q-2.1,0-4.2,0c-3.395.006-7.886.049-11.2.357-2.65.247-3.313.643-4.01,1.275-1.837,1.667-2.223,6.225-2.272,10.711q-.014,1.254,0,2.509c.055,4.449.449,8.945,2.271,10.6.7.632,1.36,1.028,4.01,1.275,3.317.308,7.808.351,11.2.357q2.1,0,4.2,0c3.4-.006,7.887-.049,11.2-.357,2.65-.247,3.313-.643,4.01-1.275,1.807-1.638,2.21-6.072,2.269-10.483C92.771,84.862,92.771,83.909,92.758,82.96ZM69.339,90.378V78.753l9.887,5.632Z"/></g><rect class="cls-2" width="225.833" height="169"/></g></g></g></svg>