<svg xmlns="http://www.w3.org/2000/svg" width="225.833" height="169" viewBox="0 0 225.833 169"><defs><style>.cls-1{fill:#fff;}.cls-2{fill:none;}</style></defs><title>TV AZTECA</title><g id="Layer_2" data-name="Layer 2"><g id="NOSOTROS"><g id="TV_AZTECA" data-name="TV AZTECA"><g id="TV_AZTECA-2" data-name="TV AZTECA"><path class="cls-1" d="M171.97,96.264H169.5c-.66,0-1.322-.034-1.979.01-.508.035-.679-.2-.741-.645-.056-.411-.158-.817-.272-1.385-.287.261-.469.416-.639.582a7.275,7.275,0,0,1-8.686.74,6.128,6.128,0,0,1,.954-10.248,13.824,13.824,0,0,1,5.241-1.468c.718-.071,1.441-.106,2.163-.124.362-.01.479-.154.478-.5A2.261,2.261,0,0,0,164.6,81.2a7.031,7.031,0,0,0-4.57-.068c-.92.234-1.805.609-2.8.953-.25-.856-.532-1.776-.786-2.7-.247-.905-.378-.8.581-1.182a15.479,15.479,0,0,1,9.613-.862,6.445,6.445,0,0,1,5.017,5.91c.129,1.607.114,3.227.139,4.842.02,1.362-.018,2.725.011,4.086C171.829,93.51,171.909,94.841,171.97,96.264Zm-5.724-7.432c0-.392-.019-.607,0-.817.066-.608-.18-.871-.8-.792a9.22,9.22,0,0,0-1.264.123,11.72,11.72,0,0,0-2.507.835,2.4,2.4,0,0,0-1.123,2.749,2.071,2.071,0,0,0,1.7,1.687,3.346,3.346,0,0,0,2.5-.467A3.387,3.387,0,0,0,166.246,88.832Z"/><path class="cls-1" d="M80.738,94.227a2.743,2.743,0,0,1-.363.606,7.233,7.233,0,0,1-8.463.857c-3.452-2.17-3.552-8.04.716-10.35a13.672,13.672,0,0,1,5.3-1.491c.719-.069,1.442-.107,2.164-.123.383-.009.455-.194.455-.522a2.448,2.448,0,0,0-2.219-2.263,10.053,10.053,0,0,0-5.946.947c-.174.077-.342.165-.6.289-.327-1.146-.658-2.254-.938-3.375-.029-.114.223-.4.392-.448a41.642,41.642,0,0,1,4.273-1.2,12.647,12.647,0,0,1,5.564.16,6.545,6.545,0,0,1,5.116,5.9c.082.78.112,1.566.131,2.351q.128,5.163.217,10.326a.519.519,0,0,1-.362.356c-1.446.026-2.894.037-4.34-.01-.178-.006-.422-.345-.5-.575a8.836,8.836,0,0,1-.245-1.277Zm.034-5.409c0-.414-.018-.67,0-.923.047-.547-.222-.723-.726-.673-.442.045-.89.05-1.329.116a4.957,4.957,0,0,0-3,1.223,2.568,2.568,0,0,0-.554,2.61,1.951,1.951,0,0,0,1.683,1.457,3.331,3.331,0,0,0,2.492-.511A3.394,3.394,0,0,0,80.772,88.818Z"/><path class="cls-1" d="M135.134,91.7c.235,1.219.471,2.359.656,3.508.021.127-.217.4-.377.436a35.705,35.705,0,0,1-3.533.8,15.142,15.142,0,0,1-6.512-.311,8.435,8.435,0,0,1-6.267-7.55,10.962,10.962,0,0,1,2.024-8.144c2.123-2.8,5.064-3.726,8.463-3.434,4.344.372,6.748,3.575,7.194,7.513.128,1.132.041,2.287.058,3.431.007.523-.246.66-.753.658-3.577-.021-7.154-.012-10.731-.011-.91,0-1.016.133-.695,1a4.294,4.294,0,0,0,3.689,2.663,14.856,14.856,0,0,0,6.19-.42C134.7,91.805,134.866,91.768,135.134,91.7Zm-10.629-6.972c2.291,0,4.54.006,6.788-.015.114,0,.307-.223.324-.359a3.567,3.567,0,0,0-2.475-3.542A3.778,3.778,0,0,0,124.505,84.732Z"/><path class="cls-1" d="M97.6,81.9c-.4-.025-.649-.055-.895-.055-2.256,0-4.512-.022-6.768.011-.606.009-.771-.2-.75-.77.038-1,.028-2,0-3-.012-.482.134-.687.649-.685q7.056.02,14.111,0c.45,0,.6.134.652.613a5.765,5.765,0,0,1-1.567,4.8c-2.457,2.736-4.721,5.643-7.065,8.481-.064.078-.113.169-.238.36.342.037.6.088.855.088,2.512.006,5.023.021,7.535-.008.6-.007.775.186.753.766-.039,1.042-.025,2.086-.005,3.128.009.446-.1.647-.6.646q-7.567-.024-15.134,0c-.441,0-.615-.148-.6-.589.019-.745-.028-1.492.02-2.234a1.69,1.69,0,0,1,.335-.916q4.143-5.062,8.322-10.094C97.311,82.31,97.4,82.172,97.6,81.9Z"/><path class="cls-1" d="M45.256,77.408h1.561c1.341,0,2.682.009,4.023,0a.6.6,0,0,1,.7.484q1.68,6.176,3.374,12.348a1.2,1.2,0,0,0,.314.562c.082-.232.182-.459.244-.7,1.064-4.044,2.119-8.091,3.2-12.131.057-.213.32-.527.492-.53,1.846-.039,3.693-.024,5.633-.024-.139.421-.24.76-.362,1.09q-3.18,8.544-6.354,17.09a.851.851,0,0,1-.958.682c-1.51-.042-3.022-.028-4.533-.006a.675.675,0,0,1-.752-.513Q48.585,86.8,45.319,77.847A2.427,2.427,0,0,1,45.256,77.408Z"/><path class="cls-1" d="M113.557,71.963c0,1.568,0,3.011,0,4.453,0,.988,0,.989.994.991.872,0,1.745.019,2.617-.006.5-.014.738.115.713.679-.043.956-.032,1.915,0,2.872.014.469-.134.642-.617.628-1.041-.029-2.085,0-3.127-.015-.412-.007-.582.147-.577.554.035,2.466-.014,4.936.114,7.4.1,1.987,1.148,2.728,3.111,2.461.875-.119.872-.119.89.774.019.956.041,1.913.072,2.87.01.33-.041.578-.429.658a11.207,11.207,0,0,1-5.483.046,4.855,4.855,0,0,1-3.669-4.625c-.185-2.2-.13-4.416-.169-6.626q-.025-1.435,0-2.872c.008-.453-.138-.669-.625-.637a7.963,7.963,0,0,1-1.465-.015.639.639,0,0,1-.438-.431c-.038-1.083-.038-2.17,0-3.254a.653.653,0,0,1,.45-.433,8.394,8.394,0,0,1,1.4-.023c.483.016.69-.175.677-.677-.025-.978-.028-1.958.01-2.936.009-.221.184-.586.348-.627C110.039,72.746,111.736,72.376,113.557,71.963Z"/><path class="cls-1" d="M40.221,71.962c0,1.573,0,3.016,0,4.46,0,.982,0,.983,1,.985.915,0,1.831.013,2.746,0,.419-.008.545.147.532.569-.033,1.021-.037,2.044,0,3.065.017.444-.139.548-.544.54-1.043-.02-2.087,0-3.13-.012-.387-.006-.608.1-.6.527.034,2.489-.01,4.981.113,7.465.1,1.953,1.174,2.7,3.152,2.411.82-.119.816-.119.834.7.023,1,.045,2,.085,3a.522.522,0,0,1-.482.618,11.225,11.225,0,0,1-5.364.057,4.873,4.873,0,0,1-3.735-4.577c-.184-1.856-.14-3.737-.173-5.607-.023-1.3-.019-2.6,0-3.9.008-.509-.144-.75-.692-.7a6.7,6.7,0,0,1-1.4-.014.643.643,0,0,1-.442-.43q-.057-1.626,0-3.256c.006-.156.281-.409.455-.432a10.234,10.234,0,0,1,1.466-.026c.427.007.615-.175.609-.613-.015-1-.025-2,.014-3,.009-.22.189-.584.355-.625C36.7,72.744,38.4,72.375,40.221,71.962Z"/><path class="cls-1" d="M153.622,95.893c-.923.2-1.8.437-2.691.566a13.04,13.04,0,0,1-7.141-.7,8.455,8.455,0,0,1-5.254-7.135,10.3,10.3,0,0,1,1.549-7.381,9.78,9.78,0,0,1,7.224-4.172,14.689,14.689,0,0,1,5.688.373c.455.117.7.242.546.814-.279,1.044-.456,2.115-.684,3.173a.9.9,0,0,1-.114.247c-1.129-.125-2.2-.331-3.269-.344a4.971,4.971,0,0,0-5.159,5.15,5.19,5.19,0,0,0,2.365,4.918,7.035,7.035,0,0,0,5.2.542c.347-.065.688-.161,1.077-.254Z"/></g><rect class="cls-2" width="225.833" height="169"/></g></g></g></svg>