<svg xmlns="http://www.w3.org/2000/svg" width="225.833" height="169" viewBox="0 0 225.833 169"><defs><style>.cls-1{fill:#fff;}.cls-2{fill:none;}</style></defs><title>CHILEVISION</title><g id="Layer_2" data-name="Layer 2"><g id="NOSOTROS"><g id="CHILEVISION"><g id="CHILE_VISIÓN" data-name="CHILE VISIÓN"><path class="cls-1" d="M164.526,109.282h-2.989v-6.114c0-.459,0-.918,0-1.377-.019-2.321-.89-3.477-2.629-3.494a3.63,3.63,0,0,0-3.68,3.551c-.056,2.064-.011,4.132-.021,6.2,0,.333-.057.666-.1,1.095h-2.553v-12.9h2.513l.285,1.93c.394-.349.636-.562.876-.776,3.195-2.845,7.294-1.952,8.294,2.695Z"/><polygon class="cls-1" points="71.675 64.21 71.675 58.689 87.328 70.606 87.328 75.844 61.091 75.844 61.084 71.018 80.81 71.135 71.675 64.21"/><path class="cls-1" d="M61.278,94.656h4.738c0,1-.037,1.907.006,2.8a8.331,8.331,0,0,0,7.77,8.022A8.107,8.107,0,0,0,82.3,98.928a26.471,26.471,0,0,0,.252-4.236h4.581c.469,4.769-.994,9.775-5.082,12.836a13,13,0,0,1-14.55.667C63.019,105.449,61.007,101.35,61.278,94.656Z"/><path class="cls-1" d="M116.068,67.032,113.8,69.053c-1.849-2.308-4.13-3.69-7.152-3.313a7.159,7.159,0,0,0-4.807,2.764,8.636,8.636,0,0,0,.927,11.7c3.378,2.984,7.332,2.375,11.327-1.829l2.089,1.941c-1.884,3.436-6.608,5.277-11,4.364a11.1,11.1,0,0,1-1.617-21.121A10.666,10.666,0,0,1,116.068,67.032Z"/><path class="cls-1" d="M112.221,87.824h3.461l-9.289,21.328L97.1,87.865h3.463c1.864,4.739,3.763,9.57,5.824,14.81Z"/><path class="cls-1" d="M129.905,84.383h-2.922V78.2c0-.4,0-.806,0-1.208-.024-2.271-.817-3.309-2.565-3.362a3.51,3.51,0,0,0-3.742,3.451c-.055,2.012-.009,4.027-.021,6.041,0,.39-.068.779-.114,1.272h-2.553v-21.5h2.621V73.558c.8-.668,1.241-1.1,1.739-1.438a4.987,4.987,0,0,1,5.36-.649c1.759.9,2.19,2.554,2.195,4.372C129.911,78.649,129.905,81.455,129.905,84.383Z"/><path class="cls-1" d="M129.334,97.8,128,99.239c-2.953-1.619-4.247-1.081-4.765.088-.464,1.045.913,1.516,1.624,1.806,1,.409,2.113.553,3.105.979,1.667.714,2.238,1.937,2.027,3.94a3.526,3.526,0,0,1-2.745,3.334,7.291,7.291,0,0,1-7.339-2.367l1.292-1.378a9.875,9.875,0,0,0,2.477,1.651,4.194,4.194,0,0,0,2.962,0,1.873,1.873,0,0,0,1.068-1.676c0-.8-.53-1.115-1.511-1.5a28.111,28.111,0,0,1-4.632-1.779c-1.947-1.214-1.3-4.538.607-5.634A6.478,6.478,0,0,1,129.334,97.8Z"/><path class="cls-1" d="M140.616,84.382h-2.57V62.858h2.57Z"/><rect class="cls-1" x="77.428" y="82.97" width="9.888" height="4.661"/><rect class="cls-1" x="61.238" y="82.954" width="9.836" height="4.689"/><path class="cls-1" d="M117.8,97.434v11.687h-2.7V96.013Z"/><path class="cls-1" d="M134.685,97.451v11.664h-2.766V95.974Z"/><path class="cls-1" d="M135.324,72.765V84.341h-2.757V71.206Z"/><path class="cls-1" d="M145.045,93.661h-2.736V91.29h2.736Z"/><path class="cls-1" d="M135.405,68.848l-.089,1.894h-2.761V68.848Z"/><path class="cls-1" d="M117.875,95.439h-2.748v-1.9h2.653Z"/><path class="cls-1" d="M134.661,93.555v1.836h-2.74V93.555Z"/><path class="cls-1" d="M154.754,73.3a7.13,7.13,0,0,0-10.072-.066,6.6,6.6,0,0,0,.194,9.546c2.892,2.669,8.148,2.589,10.737-.343l-1.528-1.459c-3.632,2.484-7.37,1.613-8.156-1.985h10.529A6.156,6.156,0,0,0,154.754,73.3Zm-8.772,3.461a3.748,3.748,0,0,1,3.548-3.347c1.836-.1,3.367,1.134,3.961,3.347Z"/><path class="cls-1" d="M143.654,95.87a6.937,6.937,0,0,0-6.987,6.661,6.988,6.988,0,1,0,6.987-6.661Zm-.009,11.228a4.493,4.493,0,1,1,4.095-4.425A4.281,4.281,0,0,1,143.645,107.1Z"/></g><rect class="cls-2" width="225.833" height="169"/></g></g></g></svg>