<svg xmlns="http://www.w3.org/2000/svg" viewBox="0 0 71.52 86.495"><defs><style>.cls-1{font-size:10px;fill:#efefef;font-family:Calibri, Calibri;}.cls-2{fill:#333;}.cls-3{fill:none;}.cls-4,.cls-5{fill:#faf4f7;}.cls-5{opacity:0.61;}</style></defs><title>cesar-premio</title><g id="Layer_2" data-name="Layer 2"><g id="PROYECTOS"><g id="EL_CESAR" data-name="EL CESAR"><g id="MTV_MIAW_2018" data-name="MTV MIAW 2018"><text class="cls-1" transform="translate(11.207 68.551)"><tspan xml:space="preserve">Nominación  </tspan><tspan x="-3.342" y="12" xml:space="preserve"> KILLER SERIE.</tspan></text><g id="LOGOTIPO"><g id="BLOQUE_COLOR" data-name="BLOQUE COLOR"><path class="cls-2" d="M59.677,20.014l-3.531-2.368.116-.374a.311.311,0,0,0,.013-.073,1.833,1.833,0,0,0-.039-.479,2.7,2.7,0,0,0-.15-.395,1.943,1.943,0,0,0-.446-.588l0-.07.019-6.493L52.111,7.56,48.87,3.3V6.084l-3.938.231-.074-.1V8.973l-2.03-1.16L40.962,9.2l-.052,3.35-1.1-.429-2.007-.785.422-3.926-3.538-1.33-3.04-4.683V4.97h0l-5.006.1L26.52,6.5l-.791-.854L19.52,10.5h0v2L18.725,17.9l-3.158-4.733v3.177l-2.552-1.257-2.756,2h-.1l.1,18.723L35.139,57.5,59.818,39.843Zm-16.328,10.5c-.1.016-.213.013-.329.02a2.891,2.891,0,0,1-1.518-.613,8.43,8.43,0,0,1-1.665-1.455c-.514-.6-.617-1.038-.331-1.459a1.556,1.556,0,0,1,1.7-.55,5.552,5.552,0,0,1,2,1.258,4.905,4.905,0,0,1,.968.989A1.1,1.1,0,0,1,43.349,30.515Z"/><path class="cls-2" d="M43.206,27.716a5.552,5.552,0,0,0-2-1.258,1.556,1.556,0,0,0-1.7.55c-.286.421-.183.863.331,1.459A8.43,8.43,0,0,0,41.5,29.922a2.891,2.891,0,0,0,1.518.613c.116-.007.224,0,.329-.02a1.1,1.1,0,0,0,.825-1.81A4.905,4.905,0,0,0,43.206,27.716Z"/></g><polygon class="cls-3" points="38.813 13.807 40.249 16.279 41.831 15.089 38.813 13.807"/><polygon class="cls-4" points="40.249 16.279 41.118 17.777 41.191 17.902 43.826 15.937 41.831 15.089 40.249 16.279"/><polygon class="cls-5" points="37.807 11.331 35.873 12.801 40.012 20.654 41.947 19.204 41.118 17.777 40.012 16.457 40.249 16.279 38.813 13.807 41.831 15.089 42.195 15.244 44.036 15.78 43.826 15.937 45.506 16.65 47.498 15.122 37.807 11.331"/><polygon class="cls-4" points="40.012 16.457 41.118 17.777 40.249 16.279 40.012 16.457"/><polygon class="cls-5" points="40.249 16.279 41.191 17.902 40.249 16.279 40.249 16.279"/><polygon class="cls-4" points="41.847 15.106 41.831 15.089 43.826 15.937 43.709 15.887 41.847 15.106"/><polygon class="cls-5" points="41.938 15.134 41.831 15.089 43.826 15.937 43.52 15.806 41.938 15.134"/><path class="cls-4" d="M46.17,28.089a6.391,6.391,0,0,0-4.114-3.135,4.05,4.05,0,0,0-4.342,1.373,2.032,2.032,0,0,0-.348,2.075,5.173,5.173,0,0,0,1.845,2.285,6.065,6.065,0,0,0,3.71,1.464,3.908,3.908,0,0,0,2.65-1.025A2.334,2.334,0,0,0,46.17,28.089Zm-2.821,2.426c-.1.016-.213.013-.329.02a2.891,2.891,0,0,1-1.518-.613,8.43,8.43,0,0,1-1.665-1.455c-.514-.6-.617-1.038-.331-1.459a1.556,1.556,0,0,1,1.7-.55,5.552,5.552,0,0,1,2,1.258,4.905,4.905,0,0,1,.968.989A1.1,1.1,0,0,1,43.349,30.515Z"/><polygon class="cls-4" points="10.159 17.09 17.081 22.947 18.898 21.606 13.923 17.366 20.499 20.438 21.97 19.399 18.379 13.991 23.441 18.188 25.302 16.847 18.423 11.092 15.567 13.169 18.725 17.902 13.015 15.089 12.731 15.288 10.159 17.09"/><polygon class="cls-4" points="19.492 10.362 21.057 11.704 23.219 10.064 28.437 14.487 30.475 12.996 25.302 8.672 27.369 7.032 25.729 5.641 19.492 10.362"/><polygon class="cls-4" points="26.648 5.069 28.674 3.529 35.039 6.61 31.65 1.392 33.601 0 38.128 7.405 35.933 9.095 26.648 5.069"/><polygon class="cls-4" points="19.492 24.864 26.414 30.72 28.231 29.379 23.256 25.139 29.832 28.211 31.303 27.173 27.712 21.765 32.774 25.961 34.634 24.62 27.755 18.866 24.9 20.942 28.058 25.675 22.347 22.862 19.492 24.864"/><polygon class="cls-4" points="29.697 17.348 31.703 15.78 38.551 21.651 36.624 23.084 29.697 17.348"/><polygon class="cls-4" points="55.655 9.174 50.769 1.91 48.87 3.296 52.585 8.183 46.74 4.881 44.858 6.218 48.589 11.105 42.828 7.813 40.946 9.207 49.636 13.516 51.644 12.046 48.16 7.552 53.625 10.593 55.655 9.174"/><path class="cls-4" d="M37.807,11.331,35.873,12.8l4.139,7.853,1.935-1.45-.753-1.276,2.657-1.99,1.655.712,1.907-1.561Zm2.467,5.036-1.556-2.638,3.225,1.388Z"/><path class="cls-4" d="M44.723,21.1l1.483-1.175,6.8,5.75-1.958,1.4L46.886,23.5l-1.71,1.289-1.143-.954S46.33,22.71,44.723,21.1Z"/><path class="cls-4" d="M34.254,29.812a3.052,3.052,0,0,1,2.575,1.4,2.269,2.269,0,0,1,.074,1.97,9.2,9.2,0,0,0-.646,2.328.086.086,0,0,0,.034.072c.124.082.241-.058.34-.13.865-.631,1.734-1.257,2.581-1.912.277-.215.465-.292.733,0a5.473,5.473,0,0,0,.756.641c.219.167.252.267-.038.464-.846.573-1.68,1.164-2.481,1.8-.835.66-1.72,1.254-2.557,1.911a.428.428,0,0,1-.694-.065,3.053,3.053,0,0,1-.614-3.1c.207-.687.465-1.36.645-2.054a1.1,1.1,0,0,0-.808-1.458,1.508,1.508,0,0,0-1.736.925,1.016,1.016,0,0,0,.258.882,2.4,2.4,0,0,0,.24.265c.175.184.157.17-.2.471-.316.268-.168.144-.869.748-.318.273-.328.22-.712-.09-1.409-1.234-1.3-2.879.294-4.082A4.617,4.617,0,0,1,34.254,29.812Z"/><path class="cls-4" d="M59.665,20.079a.993.993,0,0,1-.067.17,5.43,5.43,0,0,1-3.9,2.827,2.933,2.933,0,0,1-2.429-.468,1.612,1.612,0,0,1-.571-2.274c.01-.019,0-.05-.009-.1-.3.013-.6.047-.905.036a2.18,2.18,0,0,1-1.653-.848,1.665,1.665,0,0,1,.081-2.115A4.725,4.725,0,0,1,54.339,15.3a2.045,2.045,0,0,1,1.146.344.508.508,0,0,1,.051.027,1.483,1.483,0,0,1,.41.384,1.739,1.739,0,0,1,.262,1.456.108.108,0,0,0,.127.147,2.7,2.7,0,0,1,2.958.814A1.734,1.734,0,0,1,59.665,20.079ZM55.6,21.442l.015,0a2.032,2.032,0,0,0,1.6-.749.851.851,0,0,0-.162-1.372,1.81,1.81,0,0,0-2.417.42c-.589.782-.127,1.333.5,1.615A1.833,1.833,0,0,0,55.6,21.442ZM53.537,16.89h-.011a1.947,1.947,0,0,0-1.427.68c-.487.461-.367.979.221,1.292a1.794,1.794,0,0,0,2.061-.676.866.866,0,0,0-.182-1.138A.968.968,0,0,0,53.537,16.89Z"/></g></g></g></g></g></svg>