<svg xmlns="http://www.w3.org/2000/svg" viewBox="0 0 120.5 52.14"><defs><style>.cls-1{font-size:25px;font-family:Rustico-Regular, Rustico;letter-spacing:0.1em;}.cls-1,.cls-2{fill:#fff;}</style></defs><title>clients-title</title><g id="Layer_2" data-name="Layer 2"><g id="NOSOTROS"><g id="CLIENTES"><g id="CLIENTES-2" data-name="CLIENTES"><text class="cls-1" transform="matrix(0.99, -0.11, -0.07, 1, 1.49, 34.66)">CLIENTES</text><path class="cls-2" d="M119.91,43.1a7.45,7.45,0,0,1-1.62-.23l-1.06-.16c-.07,0-.14,0-.18-.08h0c-.08,0-.18,0-.27,0h0c-.1,0-.21.06-.29,0s0,0,0-.06a.35.35,0,0,1,.3,0c.1,0,.22-.08.29.05h0a2.34,2.34,0,0,1,1.25.17c.32-.07.66.12,1.06-.06l-.42-.11a15.66,15.66,0,0,0-2.46-.25c-1.17,0-2.33-.15-3.5-.25s-2.15-.24-3.23-.29a16.56,16.56,0,0,1-2.89-.29h0a19.79,19.79,0,0,1-2.18-.15,8.68,8.68,0,0,1-1.48-.16c.23-.17.42,0,.61,0a4.72,4.72,0,0,1,.65,0,4.36,4.36,0,0,1,.62.07,6,6,0,0,1,1.94.15,4.23,4.23,0,0,1,1.23.08,16.23,16.23,0,0,0,1.71.17.53.53,0,0,1,.17,0h0a8.6,8.6,0,0,1,1.24,0c.9.05,1.78.22,2.68.24.27,0,.54,0,.8.07a18.31,18.31,0,0,0,2,.19,7.06,7.06,0,0,1,1.77.19.94.94,0,0,0,.64,0s-.06-.09,0-.12.08,0,.12,0,.31,0,.43-.09c-.4-.08-.82-.05-1.23-.12-.73-.12-1.47-.16-2.2-.27-.11,0-.22,0-.32,0a3,3,0,0,1-.51-.08h-.37a.42.42,0,0,1-.31,0,14.86,14.86,0,0,1-1.89-.1c-.66,0-1.31-.16-2-.16a4.06,4.06,0,0,1-.69-.08,5.28,5.28,0,0,1-.68-.09,5.24,5.24,0,0,1-1.53-.06,2.42,2.42,0,0,0-.54,0,3.51,3.51,0,0,1-1.51-.3,13.79,13.79,0,0,1,1.89.15c.61.07,1.23.1,1.85.15.29.08.61,0,.9.09h0a1.43,1.43,0,0,1,.29,0c.67.12,1.36.06,2,.15.25,0,.51,0,.74-.1a2.5,2.5,0,0,0-.72-.09L111,40.92c-.93-.1-1.86-.2-2.79-.35a11.64,11.64,0,0,0-2.35-.24c-.38,0-.76,0-1.13-.06a8.62,8.62,0,0,0-1.9,0,2.67,2.67,0,0,1-1.09,0c-.3,0-.6-.1-.9-.13a6.14,6.14,0,0,0-2.22,0,.94.94,0,0,1-.29,0c-1-.11-2-.23-3.09-.31-.87-.07-1.75-.11-2.62-.14-.33,0-.62.13-.94.13s-.92-.05-1.39-.07a7.47,7.47,0,0,0-1.89,0c-.44.09-.89,0-1.34.16a3.18,3.18,0,0,1-.87,0c-.73,0-1.45-.11-2.18-.16s-1.61-.1-2.41-.15a12.8,12.8,0,0,0-2.23.08c-.61.07-1.23.16-1.85.2-1.28.08-2.56.09-3.83.24a17.8,17.8,0,0,1-2.3.17,15.73,15.73,0,0,0-1.94.07c-.59.05-1.18.12-1.78.16-2.39.16-4.78.21-7.17.32a2.75,2.75,0,0,0-.85.1h0L58.49,41c-.71,0-1.43,0-2.15.11-1.12.1-2.23.26-3.35.35-1.68.14-3.37.34-5.06.44a13.54,13.54,0,0,0-1.89.23,2.78,2.78,0,0,1-.76.09,9,9,0,0,0-1.64.06L40,42.64c-.65.06-1.29.16-1.93.24s-1.39.21-2.1.27c-1.13.1-2.26.15-3.38.31a4.52,4.52,0,0,1-.52,0,12.22,12.22,0,0,0-1.35,0c-.92.09-1.83.23-2.75.38a6.67,6.67,0,0,0-2.15.5l-.11,0a8.48,8.48,0,0,1-1.5.3c-.68.06-1.3.37-2,.41a7.29,7.29,0,0,0-1.47.25,6.24,6.24,0,0,1-1.92.23,7.34,7.34,0,0,0-1.69.25c-.41.08-.81.25-1.22.35-.9.22-1.79.49-2.68.71a4.17,4.17,0,0,0-1.78.8.9.9,0,0,1-.47.17c-.56.09-1.08.3-1.63.39-.09,0-.2,0-.22.12s-.29.26-.45.34a16.13,16.13,0,0,1-1.47.81c-.14.05-.14.15,0,.25a.61.61,0,0,0,.61.14c.3-.1.61-.17.9-.27A.25.25,0,0,1,9,49.8c-.08.12-.21.13-.32.18a4,4,0,0,0-.59.27c-.05,0-.11.07-.1.14s.09.11.16.12a.76.76,0,0,0,.49-.11,2.47,2.47,0,0,1,.67-.29c.48,0,1-.17,1.44-.23.13,0,.27,0,.38-.11a.86.86,0,0,0,.23-.06h0a1.12,1.12,0,0,1-.26.08c-.07.08-.22,0-.28.17a1.09,1.09,0,0,1-.43.18l-1,.25c-.1,0-.2,0-.25.14a.48.48,0,0,1-.39.22,1.63,1.63,0,0,0-.31.11c-.07,0-.15,0-.14.14a.16.16,0,0,0,.15.14,1.42,1.42,0,0,0,.65,0,6.46,6.46,0,0,1,1-.22c.09,0,.2,0,.22-.11.07-.27.31-.27.51-.33.75-.21,1.47-.5,2.22-.7.32-.08.68-.06.91-.37a.38.38,0,0,1,.17,0A4.42,4.42,0,0,0,15.49,49a.89.89,0,0,1,.32-.08,9.08,9.08,0,0,0,1.54-.29c.45-.13.92-.23,1.38-.34.25-.05.53,0,.71-.24s.45,0,.69-.09a2,2,0,0,1,.73-.2c.33-.06.64-.19,1-.27s.41,0,.58-.16.14,0,.21,0a.52.52,0,0,0,.25,0L24,47.14c.5-.09,1-.25,1.5-.3a11.51,11.51,0,0,0,1.75-.34,2.34,2.34,0,0,1,.83-.14,3.52,3.52,0,0,0,1-.1,1.74,1.74,0,0,1,1.06-.07.75.75,0,0,0,.39,0,30.32,30.32,0,0,1,3.68-.59,9.21,9.21,0,0,0,1.19-.14,9.52,9.52,0,0,1,1.17-.29,14.92,14.92,0,0,1,3-.55.57.57,0,0,0,.18,0,14.31,14.31,0,0,1,3.33-.4.73.73,0,0,1,.36,0,.89.89,0,0,0,.51,0,16.72,16.72,0,0,1,3.24-.24,22.69,22.69,0,0,0,3.39-.28,33,33,0,0,1,3.85-.37h.07c.06-.08.15-.06.23-.07a.89.89,0,0,0,.56,0,1.59,1.59,0,0,1,.61-.06,1.44,1.44,0,0,0,1-.1.27.27,0,0,1,.18,0,2,2,0,0,0,.87-.14c.72,0,1.44-.06,2.15-.13a19.48,19.48,0,0,1,2.15-.18c1.15,0,2.29,0,3.44,0,.35,0,.7,0,1.06,0,.87,0,1.76,0,2.62-.06a30.93,30.93,0,0,1,3.47,0,18.7,18.7,0,0,0,2.12-.07,12.55,12.55,0,0,1,2.37-.17.24.24,0,0,0,.14,0,2.77,2.77,0,0,1,.76-.08A2.32,2.32,0,0,0,79,42c.08,0,.19-.07.25,0s.33.08.5,0a2.6,2.6,0,0,1,.62-.11c.85,0,1.69-.14,2.54-.24,1.71-.2,3.43-.25,5.15-.34,1.29-.07,2.58,0,3.87,0,.31,0,.61,0,.92,0v.07c-.42,0-.82.16-1.25.1a8.51,8.51,0,0,0-2.08,0,2,2,0,0,1-.73,0,1.83,1.83,0,0,0-.87,0,2.34,2.34,0,0,1-.58.06c-1-.06-2,.12-3,.09a.35.35,0,0,0-.37.16,1.3,1.3,0,0,0,.58.05,10.8,10.8,0,0,1,1.13-.05c2,0,4.07-.1,6.11,0,.9,0,1.8,0,2.7.06.42,0,.83,0,1.25,0a11.62,11.62,0,0,0,1.56.05,2.57,2.57,0,0,1,.48,0c1.37.17,2.75.07,4.12.18a9.57,9.57,0,0,1,1.2,0c.82.18,1.65,0,2.47.15.43.08.89,0,1.34.12a3.21,3.21,0,0,0,.76,0h0c.22-.07.47,0,.68-.11-.17-.12-.41,0-.65-.17a8.07,8.07,0,0,1,1.57,0,11.07,11.07,0,0,1,1.52.09l1.52.16h0a1.87,1.87,0,0,1,.52.12h0c.13,0,.26-.07.37,0a.77.77,0,0,1,.37,0,.26.26,0,0,1,.21,0h0l.52,0c.15,0,.31-.07.44.05h0c.17,0,.34-.06.5,0a2.37,2.37,0,0,0,.59.06,2.89,2.89,0,0,1,.83,0c.3.06.6.1.9.13.52,0,1,.12,1.56.16a10.14,10.14,0,0,0,1.23.07c.06,0,.15,0,.18-.1A2.9,2.9,0,0,0,119.91,43.1Zm-14.13-2.32s0,0,0,0-.06,0-.09,0l0,0Zm-69.15,3s.06,0,.08,0,0,0,0,0l-.09,0A.12.12,0,0,1,36.63,43.78Zm12.07-.6h0a.16.16,0,0,1,.15.07C48.8,43.23,48.69,43.34,48.7,43.18ZM67,41.6a3.51,3.51,0,0,1-1,0c-.14,0-.24.08-.38.08-.3,0-.59.05-.89.05-.14,0-.17.16-.31.15a3.4,3.4,0,0,1-1.19,0s-.13-.08-.17,0c-.19.2-.43.07-.65.11-.5.07-1,.05-1.5.08s-.74,0-1.11.08l-1,.13a5,5,0,0,0-.77.14v.08s.08,0,.07.08h-.13l-.18-.07c-.12-.13-.21.07-.34,0a1.12,1.12,0,0,0-.36,0h0a.61.61,0,0,1-.44.07c-.14,0-.29-.06-.33.21,0-.16,0-.22,0-.27-.12-.13-.28-.06-.4,0a4.29,4.29,0,0,1-.5.07c-.14,0-.31,0-.36.18,0,0-.13,0-.2.06h0a.19.19,0,0,1-.1-.21,11.15,11.15,0,0,1-1.29.07c-.18.18-.46-.06-.64.15,0,0-.09,0-.13,0s-.14-.07-.17,0c-.22.24-.51.13-.77.17a1.62,1.62,0,0,1-.79,0c-.11,0-.21,0-.31.07-.26.08-.52,0-.78,0a.27.27,0,0,0-.3-.13l-1.09,0-.22,0c0,.07,0,.15-.08.16s-.17,0-.26,0a2.38,2.38,0,0,0-.81.08,1.49,1.49,0,0,1-.57.14c-.32,0-.65,0-1,0h0a3.47,3.47,0,0,0-.9-.11l-1.13.06c-.06,0-.15,0-.18,0-.22.23-.52.13-.78.19s-.38,0-.57.09l-.72.16c-.5.1-1,.13-1.51.21-.3,0-.6.11-.9.19a14.74,14.74,0,0,1-1.76.14c-.66.07-1.33.08-2,.18a11.69,11.69,0,0,0-1.43.29,1.24,1.24,0,0,1-.74,0,1.77,1.77,0,0,0-1.09.07c-.49.15-1,.19-1.49.38a.34.34,0,0,1-.24,0c-.45-.16-.85.11-1.28.1a.49.49,0,0,1-.21,0c-.23-.08-.23-.13-.1-.34a.42.42,0,0,1,.45-.22,8.28,8.28,0,0,0,.86-.06h0c.05-.12.15-.07.24-.06s0-.09.08-.08h0l.15,0,0-.1c.18.12.31-.11.5-.06a1.93,1.93,0,0,0,.53,0l.58,0a.74.74,0,0,0,.39-.07h0l.24,0a.4.4,0,0,1,.28-.17.13.13,0,0,1,.15-.06c.47,0,.93-.16,1.4-.14a1.16,1.16,0,0,1,.32,0,2.49,2.49,0,0,0,1,.13,3.36,3.36,0,0,0,.93-.2c.12,0,.09-.12.09-.2s-.07,0-.09,0,0,0,0,0,.06,0,.07,0a6.32,6.32,0,0,0,1.92-.31,5.23,5.23,0,0,1,1.43-.16A4.82,4.82,0,0,0,41.44,43a2.46,2.46,0,0,1,1,0,1.2,1.2,0,0,0,.5,0,14,14,0,0,1,2-.16c.39,0,.79,0,1.19,0,.91-.08,1.82-.2,2.74-.25s2.13-.27,3.2-.32S54,42,55,41.93c.34,0,.7-.08,1-.08.18,0,.29-.13.46-.14,0,.17.19.12.3.11l1.08-.13c.82-.08,1.65-.13,2.47-.22s1.44,0,2.16-.06l.08-.06h0a.74.74,0,0,1,.84-.07c.12,0,.22.14.35,0a.32.32,0,0,1,.22,0,2.65,2.65,0,0,0,.93,0,1.9,1.9,0,0,1,.71.08c.06,0,.15.07.17,0,.19-.18.43-.09.64-.12a1,1,0,0,1,.78.13C67.17,41.52,67.11,41.61,67,41.6Zm8.83,0,0,0s0,0,0,0,0,0,0,0Zm.57,0,0,0,0,0,0,0Zm6.75,0s0,0,0,0l0,0,0,0S83.12,41.57,83.11,41.57Zm10.88,0a1.22,1.22,0,0,1-.6,0,.4.4,0,0,1-.25-.06,1.08,1.08,0,0,1,.47,0c.17,0,.35-.07.51,0C94.12,41.62,94.05,41.57,94,41.58Zm.61.06s-.09,0-.08-.06.06,0,.09,0,0,0,.1,0S94.63,41.64,94.6,41.64Zm11.91.27s.12,0,.15.05,0,.07-.07.07-.13,0-.15-.06S106.47,41.92,106.51,41.91Zm-1.73.16a1.73,1.73,0,0,1-.68,0,3.47,3.47,0,0,1-.79,0h0l-.59-.05h0l-.29-.06a.34.34,0,0,1-.29,0c.11-.15.23-.11.36-.05l.22.07a.92.92,0,0,1,.59.05,4.3,4.3,0,0,1,.88,0l.59.05a1.34,1.34,0,0,1,.53.09A.68.68,0,0,1,104.78,42.07Zm2.43.25a10.27,10.27,0,0,1-1.47-.09h0l-.3-.06a1,1,0,0,1,.63,0,3.87,3.87,0,0,1,1.22.09.58.58,0,0,1,.36,0A.84.84,0,0,1,107.21,42.32Zm4.57,0,0,0s0,0,0,0l0,0S111.79,42.32,111.78,42.32Z"/></g></g></g></g></svg>