<svg xmlns="http://www.w3.org/2000/svg" width="294.067" height="93.123" viewBox="0 0 294.067 93.123"><defs><style>.cls-1{fill:#fff;}</style></defs><title>contactanos-titulo</title><g id="Layer_2" data-name="Layer 2"><g id="CONTACTO"><g id="MAPA_BACKGROUND" data-name="MAPA BACKGROUND"><g id="CONTÁCTANOS"><g id="CONTÁCTANOS-2" data-name="CONTÁCTANOS"><path class="cls-1" d="M4.013,66.017a6.949,6.949,0,0,1-2.325-2.765A22.775,22.775,0,0,1,.273,59.028a11.718,11.718,0,0,1,.132-5.554,15,15,0,0,1,1.1-2.638c.334-.691.67-1.383,1.008-2.125.333-.64.748-1.19,1.121-1.785a16.223,16.223,0,0,0,.913-1.51c.325-.539.694-1.084,1.064-1.628,1.053-1.526,2.1-3.05,3.2-4.531A22.618,22.618,0,0,1,10.5,37.41c.858-.849,1.763-1.7,2.618-2.5A8.577,8.577,0,0,1,15.38,33.3a6.19,6.19,0,0,0,1.174-.733,3.139,3.139,0,0,1,1.073-.621,7.35,7.35,0,0,1,3.531-.641,2.265,2.265,0,0,1,1.667,1.176c.072.243.2.431.269.675a10.8,10.8,0,0,1,.2,4.962,8.541,8.541,0,0,1-.658,1.785,26.848,26.848,0,0,1-2,3.443,1.372,1.372,0,0,0-.212.325l-.188.021a2.208,2.208,0,0,1-.8.138c-.233.026-.178-.081-.072-.244a.176.176,0,0,0,.02-.255,1.157,1.157,0,0,0-.413-.053c-.276-.021-.353-.213-.333-.467.042-.509.088-1.068.087-1.622a2.324,2.324,0,0,1,.319-1.041c.266-.433.539-.915.81-1.4.217-.376.434-.753.654-1.179.106-.163.267-.432.1-.616s-.366-.059-.6.017c-.434.2-.868.4-1.35.6a3.316,3.316,0,0,1,1.37-.856l.575-.215a.916.916,0,0,0,.106-.162c-.042-.046-.085-.092-.133-.086a2.5,2.5,0,0,0-.616.168,8.12,8.12,0,0,0-3.2,2.215.362.362,0,0,0-.041.508,2.649,2.649,0,0,1-.792.591,2.473,2.473,0,0,0-1.055.971,10.327,10.327,0,0,1-.88,1.105A2.312,2.312,0,0,0,13.237,43a3.225,3.225,0,0,1-.59.972,3.041,3.041,0,0,0-.658,1.23l-.294.183c-.251.229-.314.438-.1.615l-.047.006a2.723,2.723,0,0,1-.523.711c-.148.118-.293.184-.352.342a9.914,9.914,0,0,1-1.023,1.723.24.24,0,0,0,.068.294,1.27,1.27,0,0,1-.479.759,4.6,4.6,0,0,0-1.008,1.521c-.343.792-.683,1.535-1.025,2.328a2.646,2.646,0,0,0-.37,1.1A1,1,0,0,1,6.7,55.3,16.486,16.486,0,0,0,6,58.247,2.661,2.661,0,0,0,6,59.3c.022.3.149.436.43.405a4.188,4.188,0,0,0,1.52-.418c.386-.194.727-.384,1.114-.576a3.941,3.941,0,0,0,1.144-.931,21.363,21.363,0,0,0,2.707-3.572,5.727,5.727,0,0,0,.865-2.058c.084-.462.373-.595.73-.433a.971.971,0,0,1,.687.68,2.04,2.04,0,0,0,.491.8,2.252,2.252,0,0,1,.658,1.59,2.662,2.662,0,0,0,.189,1.087,1.1,1.1,0,0,1-.036,1.011,16.26,16.26,0,0,1-.59,1.525,5.885,5.885,0,0,0-.309.94,2.229,2.229,0,0,1-.683.982.375.375,0,0,0-.128.417,3.4,3.4,0,0,1-.645,1.077c.013-.152.024-.3.033-.407a.335.335,0,0,0-.033.407,1.2,1.2,0,0,1-.607.621,3.009,3.009,0,0,0-.8.692,23.965,23.965,0,0,1-1.913,1.822A8.408,8.408,0,0,0,9.37,66.334a9.96,9.96,0,0,0,3.12-2.409c.2-.172.314-.436.6-.518l-.012.152a7.96,7.96,0,0,1-4.121,3.274c-.14.016-.239.075-.379.091C6.9,67.06,5.271,67.087,4.013,66.017ZM6.888,53.063c-.047,0-.047,0-.043-.045-.05.054-.05.054-.1.06a.149.149,0,0,0,.037.1C6.837,53.118,6.837,53.118,6.888,53.063Zm3.161,7.256c.047-.006.055-.109.059-.16-.042-.044-.084-.089-.131-.085-.144.067-.238.077-.337.137-.688.48-1.458.816-2.058,1.336a.492.492,0,0,0-.11.212.57.57,0,0,1,.132.086A6,6,0,0,0,10.049,60.319Zm-.423,1.2c0-.051,0-.051.008-.1l.008-.1-.094.01a1.5,1.5,0,0,0-.879.549c-.046.005-.055.108-.059.157s.084.092.136.036A1.793,1.793,0,0,0,9.626,61.522Zm1.205,2.284a.239.239,0,0,0,.058-.156c.012-.154-.025-.249-.124-.188A5.225,5.225,0,0,0,9,64.613a.262.262,0,0,0-.069.258.4.4,0,0,0,.227.076A4.238,4.238,0,0,0,10.831,63.806ZM9.925,48.852a.5.5,0,0,1-.2.223A.949.949,0,0,0,9.925,48.852Zm1.847-3.274A4.254,4.254,0,0,1,11.6,46l-.047.006A1.308,1.308,0,0,0,11.772,45.578Zm.2-.174a.837.837,0,0,1-.2.174A.837.837,0,0,0,11.972,45.4Zm.017-.2c0,.051-.008.1-.017.2C11.981,45.3,11.985,45.252,11.989,45.2Zm.555,16.956c-.053.057-.154.169-.205.225A.516.516,0,0,0,12.544,62.157ZM13.78,41.479a1.869,1.869,0,0,0,.666-.777c.005-.051-.042-.047-.038-.1-.046.005-.042-.046-.093.01a1.486,1.486,0,0,0-.625.824c-.046.005,0,.05.043.046Zm2,16.3c-.043-.046-.038-.1-.084-.092-.188.02-.248.178-.308.336-.05.055-.009.1.087.09A.576.576,0,0,0,15.78,57.775Zm.781-23.046a1.765,1.765,0,0,0,.392-.244c.191-.073.337-.138.527-.209.051-.056.1-.061.15-.118l-.052.057-.094.01a4.3,4.3,0,0,1-.531.26,1.765,1.765,0,0,1-.392.244c-.1.061-.247.178-.344.239A1.479,1.479,0,0,0,16.561,34.729Zm.353,4.19c-.052.057-.1.112-.2.224C16.81,39.031,16.862,38.976,16.914,38.919Zm1.1-1.027,0-.051a1.522,1.522,0,0,1,.625-.27l-.046.005a.9.9,0,0,1-.54.362A.038.038,0,0,1,18.018,37.892Zm.232-4.506a19.623,19.623,0,0,0,2.395-.365c.145-.067.332-.087.341-.189.013-.152-.175-.132-.268-.122a4.051,4.051,0,0,0-2.425.72l-.141.016C18.2,33.441,18.245,33.436,18.25,33.386Zm1.8,2.419c.19-.07.477-.152.761-.234a.152.152,0,0,0,.111-.213.084.084,0,0,0-.085-.092,2.279,2.279,0,0,0-1.469.362.233.233,0,0,0-.055.108c0,.05-.013.151.034.146C19.522,35.964,19.718,35.841,20.046,35.805Zm.753-2.4a1.592,1.592,0,0,0-1.17.129c-.046.005-.055.107-.059.159,0,0,0,.05.042.045A2.088,2.088,0,0,0,20.8,33.406ZM20.42,43.669l-.188.021Z"/><path class="cls-1" d="M27.421,63.994a3.286,3.286,0,0,1-.959-.75A21.074,21.074,0,0,1,24.09,59.93a11.489,11.489,0,0,1-.967-3.468c-.056-.447-.069-.849-.126-1.3a6.867,6.867,0,0,1,.133-2.18c.22-.981.435-1.911.605-2.835a15.5,15.5,0,0,1,1.348-3.976c.5-1.062.869-2.109,1.421-3.177a34.954,34.954,0,0,1,1.935-3.234,3.454,3.454,0,0,0,.268-.432,32.236,32.236,0,0,1,3.024-4.612c.16-.27.408-.447.569-.717a12.454,12.454,0,0,0,1.02-1.119,18.17,18.17,0,0,1,3.423-3.246,8.473,8.473,0,0,1,1.982-.975.777.777,0,0,1,1.116.532,3.6,3.6,0,0,0-2.25,1.406l0-.051a6.452,6.452,0,0,0,2.2-1.35,3.692,3.692,0,0,0,1.293.059,3.339,3.339,0,0,1,3.2,1.158,17.1,17.1,0,0,1,1.519,1.847,9.719,9.719,0,0,1,1.646,4.805,19,19,0,0,1-.434,5.836,15.269,15.269,0,0,1-.574,2.481.442.442,0,0,0-.065.208,12.2,12.2,0,0,1-1.338,3.874c-.132-.087-.273-.071-.336.137-.047.006-.009.1-.013.152a.059.059,0,0,0,.051-.056c.1-.061.2-.172.3-.233a17.615,17.615,0,0,1-1.595,3.6C42.8,54.2,42.1,55.33,41.36,56.418a33.365,33.365,0,0,1-3.016,3.958,20.816,20.816,0,0,1-2.959,2.692c-.243.128-.484.254-.68.377a.714.714,0,0,0-.716.229,5.118,5.118,0,0,1-3.012,1.087A6,6,0,0,1,27.421,63.994Zm4.056-6.438c.558-.565,1.11-1.078,1.667-1.644a25.3,25.3,0,0,0,2.535-3.2A21.26,21.26,0,0,0,37.472,50.1c.429-.7.812-1.4,1.287-2.105a28.04,28.04,0,0,0,1.792-3.169c.441-.853.793-1.748,1.14-2.591a18.559,18.559,0,0,0,1.722-7.39,4.548,4.548,0,0,0-.023-.854c-.063-.345-.238-.477-.575-.338-.331.085-.668.223-1.047.316a4.148,4.148,0,0,0-1.735.8,3.64,3.64,0,0,1-.924.5.138.138,0,0,1-.135-.036c0-.051.013-.152.06-.158.595-.468,1.189-.936,1.831-1.41a1.921,1.921,0,0,0,.595-.468c.052-.056.012-.152.017-.2a.124.124,0,0,0-.089-.042,1.745,1.745,0,0,0-.433.2,11,11,0,0,0-1.524,1.023,7.167,7.167,0,0,0-2.235,2.36c-.322.539-.739,1.088-1.113,1.683-.037-.1.016-.2-.021-.3-.081-.143-.234.026-.29.132a7.134,7.134,0,0,0-1.112,2.237,1.708,1.708,0,0,0-.3.285c-.255.28-.373.594-.229.53a.727.727,0,0,0,.362-.444,3.132,3.132,0,0,1,.169-.371,7.343,7.343,0,0,0,.565-.667c-.576,1.374-1.332,2.665-2.045,4a6.025,6.025,0,0,1-.739,1.089,1.658,1.658,0,0,0-.522.711c-.009.1-.069.259-.026.306.09.04.145-.068.246-.179a.192.192,0,0,0,.145-.066c0,.05.034.146.03.2a6.527,6.527,0,0,1-.657,1.23c-.1.062-.239.077-.34.189a.5.5,0,0,0-.116.264c-.013.153.128.137.219.178a3.773,3.773,0,0,1-.467,1.158c-.048.005-.035-.146-.141.016L31,48.7a7.542,7.542,0,0,0-.267.987,38.051,38.051,0,0,0-1.778,8.654.891.891,0,0,0-.2.224.483.483,0,0,1,.2-.224c.042.045.135.034.22.127.251.324.63.232,1.023-.012A8.165,8.165,0,0,0,31.477,57.556Zm.18-10.643c-.065.209-.175.422-.237.631C31.482,47.335,31.592,47.122,31.657,46.913Zm-.1-8.346a.061.061,0,0,0,.052-.056c-.044-.046-.044-.046-.1.061a.23.23,0,0,0-.059.158C31.5,38.674,31.5,38.623,31.553,38.567Zm1.072-1.729a.873.873,0,0,0,.2-.173,1.981,1.981,0,0,0,.221-.427c.05-.056.153-.168.2-.224l.2-.225,0,.051c-.052.057-.15.118-.2.174a1.042,1.042,0,0,1-.2.224,1.981,1.981,0,0,1-.221.427.918.918,0,0,0-.157.218,1.16,1.16,0,0,0-.42.6A1.236,1.236,0,0,0,32.625,36.838Zm-.1,22.616a11.2,11.2,0,0,0,3.515-3.81,1.862,1.862,0,0,1,.22-.426c-.059.156-.163.27-.22.426-.052.056-.1.062-.149.118-1.246,1.044-2.325,2.32-3.486,3.454a.2.2,0,0,0-.068.259Zm1.1-17.34,0-.05,0,.05c-.311.387-.477.708-.328.59A.99.99,0,0,0,33.629,42.114Zm.163,17.2a10.332,10.332,0,0,0,2.074-2.091,3.321,3.321,0,0,0,.487-.859,26.187,26.187,0,0,0-2.681,2.71c-.1.114-.157.219-.068.26C33.647,59.381,33.745,59.321,33.792,59.316Zm1,2.458a7.989,7.989,0,0,0,1.748-1.5c1.326-1.455,2.434-3.087,3.631-4.68.056-.106.107-.163.026-.3-.051.057-.15.117-.2.173-.458.5-.964,1.013-1.376,1.512a34.774,34.774,0,0,1-3.826,4.2,1.7,1.7,0,0,0-.417.55c-.05.055-.008.1.036.147a.037.037,0,0,0,.042.045A3.442,3.442,0,0,0,34.8,61.774Zm.625-28.466a.909.909,0,0,1,.2-.224.965.965,0,0,0,.156-.219.508.508,0,0,0,.2-.223.906.906,0,0,0,.2-.173.979.979,0,0,1,.2-.225.979.979,0,0,0-.2.225c-.052.056-.148.116-.2.173a.508.508,0,0,1-.2.223c-.052.056-.106.163-.156.219a.483.483,0,0,0-.2.224.5.5,0,0,0-.206.224A.953.953,0,0,1,35.421,33.308Zm.2,5.415a1.271,1.271,0,0,1,.459-.5,1.7,1.7,0,0,1-.373.595l-.047.006A.138.138,0,0,1,35.624,38.723Zm.9,22.91,0,.051c-.047.006-.094.011-.1.061Zm.332-24.908a2,2,0,0,0,.22-.428c.052-.056.009-.1-.034-.146l-.046,0-.358.392c-.106.162-.123.365-.029.356A1.356,1.356,0,0,0,36.856,36.725Zm.719,23.988a3.509,3.509,0,0,0,.45-.4c.671-.829,1.342-1.658,2.018-2.538A32.467,32.467,0,0,0,42.8,53.643a3.894,3.894,0,0,0,.572-1.322,1.784,1.784,0,0,0,.437-.8,1.462,1.462,0,0,0-.441.854,12.408,12.408,0,0,0-1.522,2.13,13.719,13.719,0,0,1-1.112,1.684c-.846,1.25-1.771,2.359-2.655,3.514a2.983,2.983,0,0,0-.629.874c-.051.057.039.1.035.149S37.57,60.764,37.575,60.713Zm2.159-9.905a1.285,1.285,0,0,0-.331.64C39.513,51.235,39.8,51.1,39.734,50.808Zm.815-1.45a.227.227,0,0,0,.059-.158,2.027,2.027,0,0,0,.222-.426l.047-.005-.052.055c-.055.107-.114.264-.17.372-.051.056-.1.112-.149.118,0,.049-.05.054-.055.1C40.494,49.466,40.541,49.46,40.549,49.358ZM45.487,46.3a3.044,3.044,0,0,0,.228-1.082.351.351,0,0,0,.106-.163.221.221,0,0,1,.056-.1c-.043-.047-.094.009-.1.06a.373.373,0,0,1-.063.208,4.583,4.583,0,0,0-.458,1.058c0,.05.035.147.08.141A.813.813,0,0,0,45.487,46.3Z"/><path class="cls-1" d="M67.215,64.7c.009-.1.018-.2.026-.3a.36.36,0,0,0-.137-.036.707.707,0,0,0-.391.244c-.4.4-.586.366-.881,0,0-.051-.042-.046-.038-.1-.236-1.082-1.216-1.577-1.694-2.533a.338.338,0,0,0-.545-.141.491.491,0,0,1-.648-.03,5.733,5.733,0,0,1-.717-.877,3.868,3.868,0,0,0-.926-1.157,2.7,2.7,0,0,1-.679-1.889c-.054-2.158-.113-4.266-.121-6.431,0-1.057.082-2.124.123-3.185l.038-.457c.012-.152-.026-.249-.162-.284a.4.4,0,0,0-.3.232,6.1,6.1,0,0,0-.493.911,60.4,60.4,0,0,0-2.63,6.029,7.138,7.138,0,0,1-.84,1.755c.016-.2.182-.524.046-.559-.274-.071-.3.284-.361.442-.225.479-.357.946-.535,1.418,0,.051.039.1.081.143,0,0,.094-.011.1-.062.054-.106.16-.269.267-.432.119-.315.284-.635.407-1a6.394,6.394,0,0,1-.449,1.509,2.107,2.107,0,0,1-.488.86,1.216,1.216,0,0,0-.383.7.2.2,0,0,1-.055.107.232.232,0,0,0,.059-.158.262.262,0,0,1,.251.325c-.13.467-.257.885-.435,1.357-.12.315-.191.072-.225-.076-.087-.091-.18-.08-.235.025a7.7,7.7,0,0,0-.561.616.614.614,0,0,1-.442.3.281.281,0,0,1-.225-.077c-.048.005-.087-.091-.083-.142.018-.2.042-.507-.137-.588-.267-.122-.39.244-.539.361a.363.363,0,0,1-.473.1,1.182,1.182,0,0,1-.712-.929,1.035,1.035,0,0,0-.627-.837,1.455,1.455,0,0,1-.731-1.279,4.922,4.922,0,0,1,.27-2.144c.479-1.312.963-2.675,1.441-3.986,0-.05.051-.055.055-.106.768-2.553,1.947-5.048,2.666-7.594a57.247,57.247,0,0,1,2.524-5.866,2.315,2.315,0,0,0,.249-.784,11.449,11.449,0,0,1,.6-1.574c.335-.693.623-1.378.911-2.066a13.233,13.233,0,0,1,.714-1.336c.433-.752.82-1.5,1.206-2.249a17.1,17.1,0,0,1,.913-1.508,1.839,1.839,0,0,1,1.85-1.061,2.058,2.058,0,0,1,.6.036c.225.074.446.2.375.512-.022.254.064.346.293.369.048-.005.09.042.133.088a1.73,1.73,0,0,1,1.263,1.572,1.671,1.671,0,0,0,.362.666,2.132,2.132,0,0,1,.466,1.106,5.247,5.247,0,0,0,.4,1.366,6.417,6.417,0,0,1,.351,1.925,19.142,19.142,0,0,1,.085,2.911,41.7,41.7,0,0,0-.256,4.811,12.549,12.549,0,0,1-.2,2.942,4.036,4.036,0,0,0-.041,1.061,11.607,11.607,0,0,1-.37,2.81c.428-.148.527-.208.693-.529.178-.472.305-.889.436-1.357a15.183,15.183,0,0,1,.619-1.881,7.176,7.176,0,0,0,.483-1.362,18.143,18.143,0,0,1,1.153-3.3c.173-.423.305-.89.483-1.364a12.694,12.694,0,0,1,.827-2.154,7.721,7.721,0,0,0,.411-1.052c.543-1.521,1.218-2.953,1.9-4.488a2.08,2.08,0,0,1,.22-.429c.8-1.3,1.61-2.644,2.367-3.936a11.069,11.069,0,0,1,2-2.284,1.428,1.428,0,0,1,1.557-.322c.269.122.349.265.219.731-.124.367-.124.367.255.275a.367.367,0,0,1,.319.065.454.454,0,0,0,.213.229c.5.2.6.638.458,1.207a8.989,8.989,0,0,0-.182,1.078c-.063.208-.276.533,0,.6.183.03.212-.326.314-.438.051-.056.149-.117.145-.067.046,0,.084.092.081.144a13.241,13.241,0,0,0-.474,1.812,3.074,3.074,0,0,1-.43.7,1.725,1.725,0,0,0-.351.894,5.35,5.35,0,0,1-.989,2.425c-.586.921-.989,1.871-1.481,2.782-.225.478-.45.955-.671,1.382a8.531,8.531,0,0,0-.768,2,23.327,23.327,0,0,1-.97,2.221,3.662,3.662,0,0,0-.292.738c-.052.056.037.1.033.147.052-.056.145-.067.149-.118.162-.268.328-.589.493-.909.106-.164.166-.32.323-.539-.013.151,0-.051.043.045,0,0,.042.046,0,.051a5.529,5.529,0,0,1-.3.788c-.233.58-.518,1.216-.8,1.849a.588.588,0,0,0-.54.363c-.219.427-.395.849-.569,1.27-.58,1.424-1.209,2.853-1.653,4.312-.309.94-.62,1.88-.975,2.825a1.614,1.614,0,0,0-.054.661,1.807,1.807,0,0,0-.228,1.082,2.823,2.823,0,0,1-.729,2.094c-.1.112-.247.18-.256.28a6.663,6.663,0,0,0-.447,2.063c-.063.21-.128.418-.187.575a1.512,1.512,0,0,0-.24,1.234c-.008.1-.021.254-.029.357a.494.494,0,0,1-.319.488,2.555,2.555,0,0,0-.8.742,4.826,4.826,0,0,1-.459.5c-.1.11-.3.233-.425.1C67.054,64.97,67.161,64.806,67.215,64.7ZM56.664,54.784c.054-.106.059-.157.114-.264-.043-.045-.043-.045-.085-.091a.058.058,0,0,0-.05.056.491.491,0,0,0-.116.264c-.05.056-.009.1.035.148C56.567,54.845,56.659,54.835,56.664,54.784Zm.687-1.585c.23-.53.454-1.007.68-1.486a42.059,42.059,0,0,1,1.772-4.07,7.489,7.489,0,0,0,.4-.85c.008-.1.016-.2-.078-.193-.043-.046-.1.061-.15.117a14.953,14.953,0,0,0-.941,1.866c-.178.472-.4.9-.572,1.322-.459,1.057-.87,2.11-1.274,3.06-.063.209-.071.31.023.3C57.25,53.31,57.347,53.248,57.351,53.2Zm8.427-1.482-.051.056Zm4.893,5.957a.37.37,0,0,1-.035-.148.263.263,0,0,1-.144.067,1.028,1.028,0,0,0-.115.264c-.008.1.035.147.085.091C70.563,57.836,70.62,57.73,70.671,57.674Zm1.135-3.1c-.089.513-.089.513-.543.966A10.766,10.766,0,0,0,71.806,54.578Zm.792-2.3.095-.011c0,.051-.009.1-.056.108l-.048.005C72.594,52.326,72.594,52.326,72.6,52.276Zm.891-2.364,0,.051Zm.056-.107a.2.2,0,0,1-.056.107A.2.2,0,0,0,73.545,49.805Zm.708-1.841c.054-.1.106-.161.161-.269l-.047.005a.45.45,0,0,1-.068.259.334.334,0,0,1-.105.163C74.244,48.067,74.2,48.021,74.253,47.964Zm.563-1.22a1.884,1.884,0,0,1-.394.85A2.465,2.465,0,0,1,74.816,46.744Zm.238-.631a3.464,3.464,0,0,1-.238.631C74.88,46.536,74.991,46.323,75.054,46.113Zm1.816-4.578a3.068,3.068,0,0,0-.234.579A2.27,2.27,0,0,1,76.87,41.535ZM78.359,38.1a2.132,2.132,0,0,1-.221.428A3.556,3.556,0,0,1,78.359,38.1Zm.221-.428c-.061.158-.162.271-.221.428A1.9,1.9,0,0,1,78.58,37.67Zm.452-1.006a2.074,2.074,0,0,1-.452,1.006A1.89,1.89,0,0,1,79.032,36.664Zm0,0-.046.006Z"/><path class="cls-1" d="M88.239,60.071c0-.052.057-.108.06-.159.063-.208-.018-.35-.158-.335l-.328.036c-.48.2-.693-.024-.851-.359a2.653,2.653,0,0,1-.237-1.082,7.49,7.49,0,0,0-.412-2.32,4.425,4.425,0,0,1-.038-2.364c.224-1.031.494-2.068.809-3.058.576-1.927,1.245-3.863,2-5.708.178-.474.352-.9.483-1.362.662-1.834,1.5-3.59,2.3-5.39.279-.584.517-1.215.751-1.794.639-1.58,1.459-3.081,2.188-4.621.06-.157.115-.266.174-.422a.3.3,0,0,0-.153-.387,2.544,2.544,0,0,0-.614.118c-1.131.226-2.268.5-3.4.728-.518.107-1.081.169-1.6.276-.093.011-.187.021-.226-.075,1.09-.271,2.133-.537,3.217-.758.856-.244,1.708-.439,2.562-.684.094-.011.192-.071.285-.082a.352.352,0,0,0,.107-.162c0-.051-.081-.143-.081-.143a2.324,2.324,0,0,0-.567.112c-1.276.292-2.556.635-3.833.926-.708.129-1.418.308-2.124.435a1.363,1.363,0,0,1-1.107-.079.172.172,0,0,1-.035-.147c.009-.1.059-.158.106-.163a.778.778,0,0,1,.336-.138c2.133-.537,4.264-1.073,6.44-1.565.378-.091.8-.189,1.228-.285a3.59,3.59,0,0,0,.627-.271.486.486,0,0,0,.114-.263.123.123,0,0,0-.128-.138,8.857,8.857,0,0,0-1.174.18c-1.941.464-3.886.981-5.78,1.441a9.858,9.858,0,0,1-1.693.287.651.651,0,0,1-.75-.471A.918.918,0,0,1,87,28.839c.2-.224.258-.33.139-.569-.086-.092.021-.254.118-.315a2.014,2.014,0,0,1,.439-.25.22.22,0,0,0,.054-.107c-.042-.046-.038-.1-.084-.091-.043-.045-.137-.034-.184-.029-.188.02-.434.2-.549-.092-.034-.148.123-.366.23-.528a3.678,3.678,0,0,1,1.709-1.6,23.531,23.531,0,0,1,4.346-1.537c.844-.093,1.649-.28,2.5-.425a5.233,5.233,0,0,0,1.231-.286,7.733,7.733,0,0,1,2.514-.68.831.831,0,0,1,.6-.016,4.812,4.812,0,0,0,1.683-.134,12.337,12.337,0,0,1,2.675-.4,1.821,1.821,0,0,1,.743.021,3.96,3.96,0,0,0,1.57.079,3.65,3.65,0,0,1,2.78.6,1.745,1.745,0,0,1,.8,1.624,3,3,0,0,0,.282,1.077c.107.389.26.776.367,1.167a1.318,1.318,0,0,1-.384,1.3c-.051.055-.154.167-.254.279-.158.219-.073.31.059.4a.8.8,0,0,1,.222.126c.132.087.068.3-.081.413a1.716,1.716,0,0,1-1.184.28.931.931,0,0,1-.366-.059,8.922,8.922,0,0,0-3.321-.239l-2.34.257c-1.082.17-1.387.5-1.53,1.679a.953.953,0,0,0,.073.8.855.855,0,0,1-.016.757c-.4.9-.711,1.891-1.2,2.75a5.852,5.852,0,0,0-.386.748,24.187,24.187,0,0,1-1.625,3.4,3.211,3.211,0,0,0-.4.9,2.593,2.593,0,0,1-.569,1.27.842.842,0,0,0-.217.377c-.156.773-.676,1.434-.878,2.211a1.1,1.1,0,0,1-.136.519c-.771,1.495-1.229,3.1-2.006,4.651a16.267,16.267,0,0,0-.771,2.049,7.706,7.706,0,0,1-.68,1.485,1.7,1.7,0,0,1-.113.264,14.653,14.653,0,0,1-.925,2.77,1.38,1.38,0,0,0-.063.209,15.5,15.5,0,0,1-.614,2.383,4.252,4.252,0,0,1-.463,1.108l-1.607.931a1.984,1.984,0,0,1-.715.231C88.2,60.578,88.121,60.386,88.239,60.071Zm1.988-33.2c2.374-.664,4.736-1.176,7.141-1.641.333-.087.711-.179,1.042-.267a.874.874,0,0,0,.341-.187.305.305,0,0,0,.063-.209.125.125,0,0,0-.088-.04c-.095.01-.183-.031-.324-.015-.422.047-.9.2-1.32.245a59.11,59.11,0,0,0-6.344,1.554,6.388,6.388,0,0,0-.864.347c-.095.01-.286.082-.251.229a.388.388,0,0,0,.225.076C89.989,26.949,90.087,26.889,90.227,26.873Zm-.152,33.448c.26-.331.468-.6.721-.885a1.264,1.264,0,0,1-.594,1.022.192.192,0,0,1-.144.066C89.921,60.489,90.024,60.377,90.075,60.321ZM97.02,26.074a3.239,3.239,0,0,0,.953-.305.354.354,0,0,0,.107-.163c0-.051-.085-.092-.132-.087a4,4,0,0,0-1.316.2,6.951,6.951,0,0,0-.991.21c-1.417.307-2.838.664-4.269,1.125-.285.08-.574.213-.906.3a.473.473,0,0,0,.553.041C93.007,26.919,95,26.4,97.02,26.074ZM92.645,51.629c.046,0,.046,0,.051-.055s-.038-.1-.089-.041c0,.051,0,.051-.009.1C92.6,51.634,92.641,51.681,92.645,51.629ZM107.264,23.94l.1-.111c0-.05-.034-.148-.081-.143a1.141,1.141,0,0,0-.413-.054c-.511.006-1.022.011-1.486.012a18.065,18.065,0,0,0-3.269.259,3.3,3.3,0,0,0-.664.173.162.162,0,0,0-.153.169c0,.05.081.141.128.136.229.026.464,0,.7.025a32.136,32.136,0,0,1,4.392-.383Zm-1.637.734a8.072,8.072,0,0,0-2.921-.03.634.634,0,0,0-.481.2.3.3,0,0,0-.059.157,1.011,1.011,0,0,0,.319.066C103.515,24.957,104.591,24.839,105.627,24.674ZM106.98,27.4a.267.267,0,0,0,.2-.224c.055-.106-.034-.145-.124-.187a3.428,3.428,0,0,0-.783-.065,15.012,15.012,0,0,0-3.358.219c-.287.081-.49.306-.456.452.077.194.264.174.452.152l1.872-.205,0,.051c.423-.047.84-.043,1.215-.085Zm-2.007,1.279c.05-.057.149-.117.157-.22,0-.049-.086-.091-.131-.085-.615.118-1.223.185-1.831.252,0,.05-.008.1-.013.153.417,0,.788.013,1.2.017C104.547,28.771,104.739,28.7,104.973,28.674Zm5.369.719.042.045-.05.056Z"/><path class="cls-1" d="M107.147,54.666c-.516.057-.721-.272-.875-.659a4.189,4.189,0,0,0-.537-.8,2.247,2.247,0,0,1-.275-2.287,27.27,27.27,0,0,1,1.466-3.736c.216-.376.339-.741.509-1.113a28.625,28.625,0,0,1,1.349-2.867c.553-1.067,1.057-2.131,1.566-3.245.459-1.057,1.053-2.079,1.653-3.151.712-1.337,1.429-2.725,2.1-4.057.556-1.118,1.243-2.151,1.884-3.179.383-.7.769-1.444,1.2-2.145a32.972,32.972,0,0,1,2.511-3.448c.464-.555.932-1.16,1.347-1.709a19.476,19.476,0,0,1,2.64-2.758,4.877,4.877,0,0,1,1.612-.984.718.718,0,0,1,1.039.34,1.958,1.958,0,0,0,.5.649,1.925,1.925,0,0,1,.635,1.29,1.083,1.083,0,0,0,.355.766,1.843,1.843,0,0,1,.5,1.2,13.42,13.42,0,0,0,.246,1.535,11.952,11.952,0,0,1-.044,2.219c-.235,1.738-.476,3.527-.763,5.321-.08.411-.206.827-.287,1.24-.329,1.748-.791,3.41-1.026,5.146-.118.871-.329,1.748-.494,2.623a15.458,15.458,0,0,0-.468,2.871,1.218,1.218,0,0,1-.08.413c-.315.991-.351,2-.571,2.983a28.283,28.283,0,0,0-.513,3.429c-.013.153-.026.3-.037.457a1.829,1.829,0,0,1-.809,1.347,3.421,3.421,0,0,1-.642.475c-.147.116-.387.192-.462,0a.533.533,0,0,0-.666-.379.6.6,0,0,1-.71-.375,2.846,2.846,0,0,1-.313-.721,3.563,3.563,0,0,0-.44-.858,3.342,3.342,0,0,1-.609-2.2c.063-.763.074-1.469.137-2.232.063-1.314-.065-1.452-1.265-.967-.527.209-1,.362-1.532.571a.6.6,0,0,0-.566.112,3.942,3.942,0,0,1-1.2.436c-.707.127-1.417.3-2.124.433a2.764,2.764,0,0,0-.812.291.509.509,0,0,0-.443.3c-.156.22-.318.489-.479.759-.056.107-.114.264-.029.356.26.223.1.441-.093.564a1.676,1.676,0,0,0-.786,1.093c-.059.157-.114.264-.174.422l-.046,0a1.946,1.946,0,0,0,.22-.426c.145-.067.243-.127.386-.194a7.854,7.854,0,0,1-.827,1.6c-.093.011-.14.016-.186.02l-.052.057.052-.057.186-.02a2.935,2.935,0,0,1-.453,1.007l-.086-.09-.093.01a.152.152,0,0,0,.179.08,2.615,2.615,0,0,1-.229.528,2.564,2.564,0,0,0-.509,1.114.966.966,0,0,1-1.221.74C107.462,54.783,107.287,54.651,107.147,54.666Zm3.695-4.887,0,.05Zm1.049-2.029a1.61,1.61,0,0,1,.216-.377,4.229,4.229,0,0,0-.22.426Zm0,0,0,.049Zm.39-.8.047-.005a1.981,1.981,0,0,0-.221.427C112.167,47.215,112.221,47.11,112.281,46.951Zm7.685-7.693a.8.8,0,0,0,.561-.615,9.477,9.477,0,0,0,.36-1.551c.2-1.381.413-2.764.713-4.156a2.08,2.08,0,0,0-.062-1.5c-.086-.092-.022-.3.038-.458,0-.05-.038-.1-.034-.148l-.141.016c-.319.488-.634.927-.947,1.362-.053.057-.009.1-.017.2.047,0,.094-.01.14-.015.1-.061.2-.122.235-.026.047-.005.038.1-.013.153-.374.594-.7,1.184-1.07,1.728a4.1,4.1,0,0,1-.408.448c.178-.472.4-.951.628-1.429l0,.053a8.148,8.148,0,0,0-1.814,2.866,9.794,9.794,0,0,0-1.609,2.644,2.209,2.209,0,0,0-.484.809c-.009.1.035.147.174.133a1.287,1.287,0,0,1,.248-.18c.2.382.617.386,1,.294C118.307,39.693,119.116,39.453,119.966,39.258Zm-3.338-.035a3.776,3.776,0,0,1-.22.428A3.776,3.776,0,0,0,116.628,39.223Zm2.026-3.193c.267-.433.446-.905.667-1.333-.209.275-.413.5-.621.774a2.275,2.275,0,0,1-.569.716,6.062,6.062,0,0,1-1.656,2.65,1.26,1.26,0,0,1,.153.386A30.391,30.391,0,0,0,118.654,36.03Zm-1.628,9.644-.047.005Zm6.314,6.152c-.043-.045-.085-.091-.135-.035-.094.011-.15.117-.158.218.047-.005.088.041.136.036A.268.268,0,0,0,123.34,51.826Zm.993-30.671a.839.839,0,0,1,.156-.217.976.976,0,0,0,.2-.225h0c-.051.057-.1.112-.2.225a.933.933,0,0,1-.2.173.916.916,0,0,1-.157.217A.872.872,0,0,1,124.333,21.155Zm1.533-1.729-.052.056Z"/><path class="cls-1" d="M137.343,51.342a6.946,6.946,0,0,1-2.325-2.764,22.786,22.786,0,0,1-1.415-4.225,11.714,11.714,0,0,1,.132-5.553,15.035,15.035,0,0,1,1.1-2.638c.336-.692.671-1.383,1.009-2.125.333-.641.748-1.19,1.121-1.785a16.556,16.556,0,0,0,.914-1.511c.324-.538.692-1.083,1.062-1.627,1.054-1.526,2.107-3.05,3.2-4.531a22.261,22.261,0,0,1,1.683-1.846c.858-.85,1.763-1.706,2.618-2.5a8.547,8.547,0,0,1,2.268-1.61,6.209,6.209,0,0,0,1.173-.732,3.123,3.123,0,0,1,1.073-.621,7.338,7.338,0,0,1,3.531-.641,2.265,2.265,0,0,1,1.667,1.176c.072.243.195.431.269.674a10.81,10.81,0,0,1,.195,4.964,8.628,8.628,0,0,1-.657,1.784,27.011,27.011,0,0,1-2,3.442,1.393,1.393,0,0,0-.212.325l-.188.021a2.235,2.235,0,0,1-.8.139c-.233.026-.178-.082-.072-.244a.177.177,0,0,0,.021-.255,1.169,1.169,0,0,0-.415-.054c-.275-.02-.352-.213-.332-.467.042-.509.088-1.067.087-1.621a2.315,2.315,0,0,1,.319-1.042c.266-.432.539-.914.81-1.4.217-.375.434-.751.655-1.178.1-.163.266-.433.095-.616s-.365-.059-.6.016c-.434.2-.868.4-1.35.6a3.319,3.319,0,0,1,1.37-.857c.192-.071.384-.141.575-.214a1.019,1.019,0,0,0,.106-.163c-.043-.046-.085-.091-.133-.086a2.535,2.535,0,0,0-.616.169,8.131,8.131,0,0,0-3.2,2.215.361.361,0,0,0-.041.508,2.663,2.663,0,0,1-.792.59,2.487,2.487,0,0,0-1.055.972,10.662,10.662,0,0,1-.88,1.105,2.316,2.316,0,0,0-.746,1.188,3.213,3.213,0,0,1-.591.973,3.049,3.049,0,0,0-.657,1.231l-.294.181c-.251.231-.314.439-.1.616l-.047,0a2.7,2.7,0,0,1-.523.712c-.147.118-.293.183-.352.342a9.951,9.951,0,0,1-1.023,1.723.24.24,0,0,0,.068.294,1.266,1.266,0,0,1-.479.758,4.609,4.609,0,0,0-1.008,1.521c-.343.793-.683,1.536-1.026,2.328a2.645,2.645,0,0,0-.368,1.1,1.015,1.015,0,0,1-.136.519,16.455,16.455,0,0,0-.7,2.947,2.685,2.685,0,0,0,0,1.057c.022.3.149.437.43.405a4.17,4.17,0,0,0,1.52-.419c.387-.193.727-.382,1.114-.575a3.944,3.944,0,0,0,1.144-.931,21.417,21.417,0,0,0,2.707-3.572,5.734,5.734,0,0,0,.865-2.058c.084-.463.373-.595.73-.433a.971.971,0,0,1,.687.679,2.055,2.055,0,0,0,.491.8,2.249,2.249,0,0,1,.658,1.588,2.673,2.673,0,0,0,.189,1.087,1.1,1.1,0,0,1-.036,1.011,16.154,16.154,0,0,1-.59,1.525,5.952,5.952,0,0,0-.309.94,2.229,2.229,0,0,1-.683.982.378.378,0,0,0-.129.417,3.379,3.379,0,0,1-.644,1.078c.013-.152.025-.3.033-.407a.335.335,0,0,0-.033.407,1.2,1.2,0,0,1-.608.621,3.021,3.021,0,0,0-.8.692,23.95,23.95,0,0,1-1.913,1.821,8.527,8.527,0,0,0-1.458,1.369,9.971,9.971,0,0,0,3.121-2.408c.2-.172.313-.436.6-.518,0,.05-.009.1-.013.151a7.941,7.941,0,0,1-4.121,3.274c-.14.016-.239.077-.379.092C140.226,52.385,138.6,52.412,137.343,51.342Zm2.875-12.953c-.047,0-.047,0-.043-.045-.05.055-.05.055-.1.06a.148.148,0,0,0,.037.1Zm3.161,7.255c.047,0,.055-.108.059-.158-.042-.045-.084-.091-.131-.085a3.58,3.58,0,0,0-.337.136c-.688.479-1.458.816-2.058,1.335a.5.5,0,0,0-.11.213.536.536,0,0,1,.132.086A5.981,5.981,0,0,0,143.379,45.644Zm-.423,1.2.008-.1.008-.1-.093.01a1.5,1.5,0,0,0-.88.549c-.047.005-.056.108-.06.158s.085.09.137.035A1.8,1.8,0,0,0,142.956,46.848Zm1.205,2.284a.236.236,0,0,0,.058-.157c.012-.153-.025-.248-.124-.188a5.23,5.23,0,0,0-1.764,1.151.264.264,0,0,0-.069.259.4.4,0,0,0,.227.076A4.266,4.266,0,0,0,144.161,49.132Zm-.906-14.955a.494.494,0,0,1-.2.224A.914.914,0,0,0,143.255,34.177ZM145.1,30.9a4.357,4.357,0,0,1-.174.421l-.047,0A1.3,1.3,0,0,0,145.1,30.9Zm.2-.174a.884.884,0,0,1-.2.174A.884.884,0,0,0,145.3,30.73Zm.017-.2c0,.05-.008.1-.017.2C145.311,30.628,145.315,30.578,145.319,30.528Zm.555,16.955c-.053.056-.154.169-.2.224A.517.517,0,0,0,145.874,47.483Zm1.236-20.678a1.876,1.876,0,0,0,.666-.777c0-.052-.042-.046-.038-.1-.047,0-.043-.046-.093.01a1.491,1.491,0,0,0-.625.823c-.046.006,0,.051.043.046Zm2,16.3c-.043-.046-.038-.1-.085-.091-.187.021-.247.177-.307.335-.05.057-.008.1.087.091A.578.578,0,0,0,149.11,43.1Zm.781-23.045a1.775,1.775,0,0,0,.391-.244c.192-.073.337-.139.528-.209.051-.057.1-.062.15-.117l-.052.055-.094.011a4.45,4.45,0,0,1-.532.26,1.775,1.775,0,0,1-.391.244c-.1.06-.247.178-.344.239A1.511,1.511,0,0,0,149.891,20.055Zm.352,4.189c-.051.058-.1.113-.2.225C150.14,24.357,150.192,24.3,150.243,24.244Zm1.105-1.027,0-.051a1.507,1.507,0,0,1,.625-.269l-.046.005a.893.893,0,0,1-.54.361A.038.038,0,0,1,151.348,23.217Zm.232-4.506a19.431,19.431,0,0,0,2.395-.365c.145-.066.332-.087.341-.189.013-.152-.175-.131-.268-.121a4.057,4.057,0,0,0-2.425.72l-.141.016C151.528,18.767,151.575,18.761,151.58,18.711Zm1.8,2.419c.189-.07.476-.151.76-.233a.153.153,0,0,0,.111-.214.083.083,0,0,0-.085-.091,2.285,2.285,0,0,0-1.469.361.239.239,0,0,0-.055.109c0,.051-.012.151.034.145C152.852,21.289,153.048,21.166,153.377,21.13Zm.752-2.4a1.587,1.587,0,0,0-1.17.129c-.046,0-.055.106-.059.158,0,0,0,.051.042.046A2.1,2.1,0,0,0,154.129,18.732Zm-.379,10.262-.188.021Z"/><path class="cls-1" d="M162.16,51.935c0-.052.056-.108.06-.158.063-.208-.018-.351-.158-.335l-.328.036c-.48.2-.693-.025-.852-.36a2.649,2.649,0,0,1-.236-1.082,7.5,7.5,0,0,0-.412-2.32,4.422,4.422,0,0,1-.037-2.363c.224-1.031.494-2.069.807-3.059.577-1.927,1.246-3.863,2-5.708.178-.473.353-.895.483-1.363.662-1.834,1.5-3.589,2.3-5.389.279-.584.517-1.215.751-1.794.639-1.58,1.459-3.081,2.189-4.621.059-.157.114-.264.173-.422a.3.3,0,0,0-.154-.386,2.434,2.434,0,0,0-.613.118c-1.13.226-2.267.5-3.4.727-.519.108-1.081.169-1.6.277-.093.01-.187.02-.226-.076,1.09-.271,2.133-.537,3.218-.757.855-.245,1.707-.44,2.561-.685.094-.011.192-.071.285-.082a.347.347,0,0,0,.107-.162c0-.051-.081-.143-.081-.143a2.223,2.223,0,0,0-.566.114c-1.277.291-2.558.634-3.834.924-.708.129-1.418.308-2.125.435a1.357,1.357,0,0,1-1.106-.079.168.168,0,0,1-.034-.147c.007-.1.058-.158.1-.163a.765.765,0,0,1,.336-.137c2.133-.537,4.264-1.074,6.439-1.566.379-.091.8-.187,1.229-.285a3.509,3.509,0,0,0,.627-.27.5.5,0,0,0,.114-.264.122.122,0,0,0-.128-.138,8.965,8.965,0,0,0-1.176.18c-1.939.465-3.884.981-5.778,1.441a9.82,9.82,0,0,1-1.694.287.65.65,0,0,1-.749-.47.919.919,0,0,1,.266-.987c.2-.223.258-.33.14-.569-.085-.092.021-.254.118-.314a1.935,1.935,0,0,1,.439-.25.235.235,0,0,0,.054-.108c-.042-.046-.038-.1-.085-.091-.043-.045-.136-.035-.183-.029-.188.021-.434.2-.549-.092-.034-.147.123-.366.229-.528a3.7,3.7,0,0,1,1.709-1.6,23.785,23.785,0,0,1,4.347-1.536c.844-.093,1.649-.28,2.5-.425a5.233,5.233,0,0,0,1.231-.286,7.733,7.733,0,0,1,2.513-.679.831.831,0,0,1,.606-.017,4.76,4.76,0,0,0,1.682-.134,12.22,12.22,0,0,1,2.676-.395,1.778,1.778,0,0,1,.741.019,3.949,3.949,0,0,0,1.571.079,3.65,3.65,0,0,1,2.78.6,1.745,1.745,0,0,1,.8,1.624,3,3,0,0,0,.282,1.077c.108.39.26.776.367,1.167a1.32,1.32,0,0,1-.384,1.3c-.051.055-.154.168-.254.279-.158.219-.074.31.058.4a.791.791,0,0,1,.223.126c.132.085.068.294-.081.412a1.715,1.715,0,0,1-1.183.281.937.937,0,0,1-.367-.06,8.918,8.918,0,0,0-3.32-.239l-2.34.257c-1.083.17-1.389.507-1.531,1.68a.948.948,0,0,0,.074.8.859.859,0,0,1-.017.757c-.4.9-.712,1.891-1.2,2.749a6.357,6.357,0,0,0-.387.748,23.875,23.875,0,0,1-1.625,3.4,3.313,3.313,0,0,0-.4.9,2.587,2.587,0,0,1-.568,1.271.823.823,0,0,0-.217.377c-.156.772-.676,1.433-.878,2.211a1.1,1.1,0,0,1-.136.518c-.771,1.495-1.229,3.106-2.006,4.651a16.643,16.643,0,0,0-.771,2.049,7.776,7.776,0,0,1-.68,1.486c-.055.1-.063.208-.113.263a14.582,14.582,0,0,1-.925,2.77c0,.051-.056.107-.063.209a15.4,15.4,0,0,1-.614,2.384,4.211,4.211,0,0,1-.463,1.107l-1.607.932a1.984,1.984,0,0,1-.715.231C162.118,52.443,162.042,52.25,162.16,51.935Zm1.989-33.2c2.373-.665,4.735-1.176,7.141-1.642.332-.087.71-.179,1.041-.267a.85.85,0,0,0,.34-.187.3.3,0,0,0,.064-.21.125.125,0,0,0-.088-.039c-.095.011-.184-.03-.324-.015-.422.046-.9.2-1.32.245a59.052,59.052,0,0,0-6.344,1.554,6.4,6.4,0,0,0-.864.348c-.095.009-.286.081-.251.228a.391.391,0,0,0,.226.076C163.909,18.814,164.007,18.752,164.149,18.738ZM164,52.185c.258-.33.467-.605.721-.885a1.264,1.264,0,0,1-.594,1.022.192.192,0,0,1-.144.066C163.842,52.354,163.946,52.241,164,52.185Zm6.946-34.245a3.227,3.227,0,0,0,.952-.307A.342.342,0,0,0,172,17.47c0-.051-.085-.092-.132-.087a4.006,4.006,0,0,0-1.316.2,6.951,6.951,0,0,0-.991.21c-1.417.307-2.838.664-4.269,1.125-.285.08-.574.213-.906.3a.47.47,0,0,0,.553.041C166.928,18.783,168.921,18.262,170.942,17.94Zm-4.376,25.553c.046-.005.046-.005.051-.054s-.038-.1-.089-.041c0,.05,0,.05-.009.1C166.519,43.5,166.562,43.545,166.566,43.493Zm14.619-27.688.1-.111c0-.051-.034-.149-.081-.143a1.139,1.139,0,0,0-.413-.055c-.51.006-1.022.011-1.486.012a18.254,18.254,0,0,0-3.269.259,3.258,3.258,0,0,0-.664.174.161.161,0,0,0-.153.169c0,.049.081.14.128.135.23.027.464,0,.7.026a32.3,32.3,0,0,1,4.392-.384Zm-1.638.733a8.061,8.061,0,0,0-2.919-.03.64.64,0,0,0-.482.2.3.3,0,0,0-.059.157.937.937,0,0,0,.319.066C177.436,16.822,178.512,16.7,179.547,16.538ZM180.9,19.26a.27.27,0,0,0,.2-.225c.055-.106-.034-.145-.124-.187a3.372,3.372,0,0,0-.783-.065,15.025,15.025,0,0,0-3.359.219c-.286.082-.489.3-.455.452.077.2.264.174.452.154l1.872-.207,0,.05c.423-.046.84-.043,1.215-.084Zm-2.007,1.278c.05-.055.149-.117.157-.219,0-.05-.086-.09-.132-.085-.614.117-1.222.184-1.831.251,0,.05-.007.1-.012.152.417,0,.788.015,1.205.018C178.468,20.635,178.66,20.564,178.894,20.538Zm5.369.718.042.046-.051.056Z"/><path class="cls-1" d="M181.069,46.53c-.516.056-.721-.272-.874-.659a4.281,4.281,0,0,0-.538-.8,2.247,2.247,0,0,1-.276-2.286,27.506,27.506,0,0,1,1.467-3.736c.216-.376.339-.741.509-1.112a28.526,28.526,0,0,1,1.349-2.868c.553-1.068,1.057-2.13,1.566-3.245.459-1.056,1.053-2.079,1.652-3.151.713-1.338,1.43-2.725,2.1-4.057.556-1.118,1.243-2.151,1.884-3.178.383-.7.768-1.445,1.2-2.146a32.972,32.972,0,0,1,2.511-3.448c.464-.555.932-1.159,1.347-1.709a19.476,19.476,0,0,1,2.64-2.758,4.884,4.884,0,0,1,1.612-.983.717.717,0,0,1,1.039.339,1.978,1.978,0,0,0,.5.649,1.922,1.922,0,0,1,.636,1.29,1.087,1.087,0,0,0,.355.767,1.845,1.845,0,0,1,.5,1.2,13.137,13.137,0,0,0,.245,1.533,11.8,11.8,0,0,1-.044,2.221c-.236,1.737-.476,3.526-.763,5.32-.08.411-.206.827-.286,1.24-.33,1.748-.792,3.41-1.027,5.147-.119.869-.329,1.748-.5,2.623a15.5,15.5,0,0,0-.467,2.87,1.213,1.213,0,0,1-.08.413c-.315.991-.351,2-.571,2.982a28.329,28.329,0,0,0-.513,3.43c-.013.153-.026.3-.037.457a1.831,1.831,0,0,1-.809,1.348,3.417,3.417,0,0,1-.642.474c-.147.116-.387.193-.463,0-.112-.339-.337-.415-.666-.379a.6.6,0,0,1-.71-.375,2.89,2.89,0,0,1-.312-.72,3.588,3.588,0,0,0-.44-.859,3.34,3.34,0,0,1-.609-2.2c.063-.763.074-1.469.137-2.231.063-1.315-.065-1.453-1.265-.968-.527.209-1,.362-1.532.571a.6.6,0,0,0-.566.112,3.886,3.886,0,0,1-1.2.435c-.706.127-1.417.307-2.124.435a2.7,2.7,0,0,0-.812.29.511.511,0,0,0-.443.3c-.156.22-.318.49-.479.758-.056.109-.114.265-.029.358.26.222.1.44-.093.563a1.668,1.668,0,0,0-.785,1.093c-.06.157-.116.264-.175.422l-.046.005a2.075,2.075,0,0,0,.221-.427c.144-.066.242-.127.385-.193a7.919,7.919,0,0,1-.826,1.6l-.187.021-.052.056.052-.056.187-.021a2.956,2.956,0,0,1-.454,1.007l-.086-.09-.094.01a.152.152,0,0,0,.18.08,2.639,2.639,0,0,1-.229.528,2.557,2.557,0,0,0-.509,1.115.967.967,0,0,1-1.221.739C181.383,46.647,181.209,46.515,181.069,46.53Zm3.7-4.887-.005.051Zm1.049-2.03a1.572,1.572,0,0,1,.217-.375,3.9,3.9,0,0,0-.221.425Zm0,0,0,.05Zm.39-.8.047,0a1.874,1.874,0,0,0-.22.428C186.088,39.079,186.143,38.974,186.2,38.815Zm7.685-7.693a.8.8,0,0,0,.561-.616,9.443,9.443,0,0,0,.36-1.55c.205-1.382.413-2.763.713-4.156a2.08,2.08,0,0,0-.062-1.5c-.086-.092-.022-.3.038-.458,0-.05-.038-.1-.035-.147l-.14.015c-.319.489-.633.926-.947,1.363-.051.056-.009.1-.017.2l.14-.016c.1-.061.195-.122.235-.025.047-.006.038.095-.013.152-.374.595-.7,1.184-1.07,1.728a4.005,4.005,0,0,1-.408.448c.178-.472.4-.951.628-1.429l0,.052a8.17,8.17,0,0,0-1.814,2.867,9.719,9.719,0,0,0-1.609,2.645,2.211,2.211,0,0,0-.484.808c-.009.1.035.148.174.133a1.39,1.39,0,0,1,.247-.18c.2.382.618.386,1,.294C192.229,31.557,193.038,31.317,193.888,31.122Zm-3.338-.036a3.54,3.54,0,0,1-.22.428A3.54,3.54,0,0,0,190.55,31.086Zm2.027-3.192c.266-.433.445-.9.666-1.333-.209.275-.413.5-.62.774a2.306,2.306,0,0,1-.57.716A6.062,6.062,0,0,1,190.4,30.7a1.275,1.275,0,0,1,.153.385A30.445,30.445,0,0,0,192.577,27.894Zm-1.629,9.644-.047.005Zm6.314,6.153c-.043-.046-.085-.092-.135-.036-.094.011-.15.118-.158.218.047-.006.088.041.136.036A.268.268,0,0,0,197.262,43.691Zm.992-30.671a.9.9,0,0,1,.157-.219.976.976,0,0,0,.2-.224h0l-.2.224a.881.881,0,0,1-.2.174.947.947,0,0,1-.157.218A.839.839,0,0,1,198.254,13.02Zm1.534-1.73-.052.056Z"/><path class="cls-1" d="M223.251,47.528c.008-.1.017-.206.025-.3a.361.361,0,0,0-.135-.037.724.724,0,0,0-.392.244c-.4.4-.586.367-.881,0,0-.051-.043-.046-.039-.1-.235-1.081-1.216-1.577-1.694-2.533a.337.337,0,0,0-.545-.14.492.492,0,0,1-.648-.03,5.862,5.862,0,0,1-.717-.878,3.919,3.919,0,0,0-.924-1.157,2.686,2.686,0,0,1-.68-1.889c-.055-2.157-.113-4.266-.12-6.431-.006-1.056.082-2.122.123-3.185.011-.152.024-.3.037-.457s-.027-.249-.162-.284a.4.4,0,0,0-.3.233,6.044,6.044,0,0,0-.493.91,60.878,60.878,0,0,0-2.63,6.03,7.123,7.123,0,0,1-.841,1.755c.016-.2.183-.525.046-.56-.272-.07-.3.285-.361.442-.225.479-.356.947-.534,1.419,0,.051.038.1.08.142,0,0,.095-.01.1-.061.054-.107.16-.269.267-.433.118-.314.284-.634.406-1a6.459,6.459,0,0,1-.448,1.51,2.118,2.118,0,0,1-.488.86,1.207,1.207,0,0,0-.383.7.193.193,0,0,1-.055.107.226.226,0,0,0,.059-.157.261.261,0,0,1,.251.324c-.13.468-.257.885-.435,1.357-.119.316-.192.071-.226-.077-.086-.09-.179-.08-.234.026a7.571,7.571,0,0,0-.562.617.61.61,0,0,1-.441.3.281.281,0,0,1-.226-.076c-.048,0-.086-.092-.081-.142.017-.2.041-.508-.137-.589-.268-.121-.392.245-.54.361a.363.363,0,0,1-.473.1,1.184,1.184,0,0,1-.712-.929,1.035,1.035,0,0,0-.628-.837,1.456,1.456,0,0,1-.73-1.279,4.913,4.913,0,0,1,.27-2.145c.48-1.311.962-2.674,1.441-3.985,0-.05.051-.056.056-.107.766-2.551,1.945-5.047,2.665-7.593a57.806,57.806,0,0,1,2.524-5.867,2.334,2.334,0,0,0,.25-.783,11.191,11.191,0,0,1,.593-1.575c.335-.691.624-1.378.911-2.064a13.038,13.038,0,0,1,.714-1.337c.433-.753.82-1.5,1.206-2.248a17.383,17.383,0,0,1,.913-1.51,1.839,1.839,0,0,1,1.85-1.06,2.031,2.031,0,0,1,.6.035c.224.076.446.2.375.513-.022.254.063.345.294.369.047,0,.088.041.131.087a1.731,1.731,0,0,1,1.263,1.573,1.694,1.694,0,0,0,.363.665,2.13,2.13,0,0,1,.465,1.107,5.3,5.3,0,0,0,.4,1.366,6.386,6.386,0,0,1,.351,1.925,19.136,19.136,0,0,1,.086,2.911,41.918,41.918,0,0,0-.256,4.811,12.545,12.545,0,0,1-.195,2.942,4.035,4.035,0,0,0-.041,1.061,11.607,11.607,0,0,1-.371,2.809c.43-.146.527-.208.693-.529.178-.471.306-.889.436-1.356a15.7,15.7,0,0,1,.619-1.881,7.093,7.093,0,0,0,.483-1.363A18.1,18.1,0,0,1,226,24.87c.174-.423.3-.889.482-1.363a12.736,12.736,0,0,1,.827-2.155,7.67,7.67,0,0,0,.411-1.052c.543-1.52,1.218-2.953,1.9-4.488a2,2,0,0,1,.22-.428c.8-1.3,1.61-2.644,2.367-3.936a11.039,11.039,0,0,1,2-2.284,1.428,1.428,0,0,1,1.558-.322c.268.121.349.265.218.73-.123.368-.123.368.255.276a.368.368,0,0,1,.319.064.452.452,0,0,0,.214.229c.5.2.6.639.458,1.208a8.778,8.778,0,0,0-.182,1.077c-.064.209-.275.534,0,.605.183.03.213-.325.313-.437.051-.057.15-.117.145-.066.047-.006.086.09.082.142a13.123,13.123,0,0,0-.474,1.814,3.05,3.05,0,0,1-.43.7,1.733,1.733,0,0,0-.352.895,5.352,5.352,0,0,1-.987,2.425c-.586.921-.99,1.871-1.483,2.781-.224.478-.449.955-.67,1.382a8.474,8.474,0,0,0-.767,2,23.6,23.6,0,0,1-.971,2.221,3.714,3.714,0,0,0-.293.737c-.052.056.038.1.034.148.051-.056.145-.067.149-.118.162-.269.327-.589.492-.909.107-.164.166-.32.323-.539-.013.152,0-.051.043.045,0,0,.042.045-.005.051a5.692,5.692,0,0,1-.3.788c-.233.579-.518,1.216-.8,1.85a.58.58,0,0,0-.54.362c-.22.427-.4.85-.569,1.27-.58,1.423-1.209,2.853-1.653,4.311-.31.941-.619,1.88-.975,2.826a1.614,1.614,0,0,0-.054.661,1.814,1.814,0,0,0-.229,1.082,2.82,2.82,0,0,1-.728,2.094c-.1.111-.248.179-.256.279a6.713,6.713,0,0,0-.448,2.064c-.063.209-.127.418-.186.575a1.507,1.507,0,0,0-.24,1.234c-.008.1-.021.254-.03.357a.491.491,0,0,1-.318.487,2.55,2.55,0,0,0-.805.743,4.907,4.907,0,0,1-.458.5c-.1.112-.3.235-.426.1C223.09,47.8,223.2,47.633,223.251,47.528ZM212.7,37.611c.054-.106.059-.157.113-.264-.041-.046-.041-.046-.084-.092a.059.059,0,0,0-.051.056.51.51,0,0,0-.115.264c-.051.056-.008.1.035.149C212.6,37.672,212.7,37.661,212.7,37.611Zm.687-1.585c.229-.53.453-1.007.679-1.486a42.434,42.434,0,0,1,1.772-4.071,6.934,6.934,0,0,0,.4-.85c.008-.1.017-.2-.077-.192-.043-.046-.1.061-.15.116a14.892,14.892,0,0,0-.942,1.866c-.178.473-.4.9-.572,1.323-.458,1.056-.869,2.109-1.272,3.059-.064.209-.072.31.021.3C213.285,36.137,213.383,36.075,213.387,36.026Zm8.427-1.483-.051.057Zm4.892,5.957a.388.388,0,0,1-.035-.148.252.252,0,0,1-.144.067,1.13,1.13,0,0,0-.114.265c-.008.1.035.147.085.091C226.6,40.663,226.655,40.557,226.706,40.5Zm1.136-3.095c-.088.512-.088.512-.543.966A11.019,11.019,0,0,0,227.842,37.405Zm.792-2.3.094-.01c0,.051-.009.1-.055.107l-.047.006Zm.892-2.364-.005.051Zm.054-.106a.2.2,0,0,1-.054.106A.2.2,0,0,0,229.58,32.632Zm.709-1.841c.054-.106.105-.162.161-.269l-.048.005a.465.465,0,0,1-.066.258.35.35,0,0,1-.107.164C230.28,30.894,230.237,30.848,230.289,30.791Zm.563-1.219a1.9,1.9,0,0,1-.393.849A2.4,2.4,0,0,1,230.852,29.572Zm.238-.631a3.679,3.679,0,0,1-.238.631C230.917,29.363,231.026,29.15,231.09,28.941Zm1.816-4.579a3.068,3.068,0,0,0-.234.579A2.234,2.234,0,0,1,232.906,24.362Zm1.488-3.438a1.921,1.921,0,0,1-.221.428A3.88,3.88,0,0,1,234.394,20.924Zm.221-.427c-.061.158-.161.271-.221.427A2,2,0,0,1,234.615,20.5Zm.453-1.006a2.093,2.093,0,0,1-.453,1.006A1.885,1.885,0,0,1,235.068,19.491Zm0,0-.047,0Z"/><path class="cls-1" d="M242.866,40.281a3.249,3.249,0,0,1-.959-.75,21.019,21.019,0,0,1-2.372-3.313,11.49,11.49,0,0,1-.968-3.468c-.055-.447-.068-.847-.125-1.3a6.81,6.81,0,0,1,.133-2.18c.221-.98.435-1.911.605-2.835a15.515,15.515,0,0,1,1.347-3.976c.505-1.061.869-2.109,1.421-3.177a35.189,35.189,0,0,1,1.936-3.234,3.343,3.343,0,0,0,.267-.432,32.186,32.186,0,0,1,3.025-4.612c.161-.27.408-.447.569-.717a12.479,12.479,0,0,0,1.02-1.12,18.252,18.252,0,0,1,3.422-3.245,8.5,8.5,0,0,1,1.983-.975.778.778,0,0,1,1.116.533,3.6,3.6,0,0,0-2.25,1.4l0-.051a6.442,6.442,0,0,0,2.2-1.35,3.7,3.7,0,0,0,1.295.059,3.336,3.336,0,0,1,3.2,1.158,16.981,16.981,0,0,1,1.519,1.847,9.718,9.718,0,0,1,1.645,4.805,19.01,19.01,0,0,1-.434,5.837,15.178,15.178,0,0,1-.574,2.48.457.457,0,0,0-.063.208,12.177,12.177,0,0,1-1.34,3.873c-.132-.086-.272-.07-.335.138-.048.006-.009.1-.013.152a.059.059,0,0,0,.051-.056c.1-.06.2-.172.3-.234a17.514,17.514,0,0,1-1.6,3.6c-.649,1.13-1.345,2.263-2.086,3.351a33.465,33.465,0,0,1-3.015,3.958,20.876,20.876,0,0,1-2.959,2.692c-.243.128-.485.255-.681.377a.712.712,0,0,0-.715.229,5.112,5.112,0,0,1-3.013,1.087A5.989,5.989,0,0,1,242.866,40.281Zm4.055-6.437c.558-.564,1.11-1.078,1.667-1.644a25.5,25.5,0,0,0,2.537-3.2,21.364,21.364,0,0,0,1.792-2.614c.429-.7.812-1.4,1.287-2.105A28.428,28.428,0,0,0,256,21.115c.44-.854.793-1.749,1.14-2.592a18.559,18.559,0,0,0,1.722-7.39,4.534,4.534,0,0,0-.023-.853c-.064-.346-.239-.477-.576-.34-.331.087-.668.224-1.047.317a4.167,4.167,0,0,0-1.734.794,3.589,3.589,0,0,1-.925.506.137.137,0,0,1-.134-.036c0-.051.012-.152.059-.158.595-.468,1.19-.936,1.831-1.41a1.928,1.928,0,0,0,.6-.468c.052-.057.013-.152.017-.2a.131.131,0,0,0-.089-.042,1.735,1.735,0,0,0-.434.2,11.133,11.133,0,0,0-1.523,1.022,7.15,7.15,0,0,0-2.235,2.361c-.323.539-.739,1.088-1.113,1.683-.039-.1.017-.2-.022-.3-.08-.143-.234.026-.289.132a7.158,7.158,0,0,0-1.113,2.237,1.753,1.753,0,0,0-.3.286c-.254.279-.373.594-.228.529a.718.718,0,0,0,.36-.444,3.586,3.586,0,0,1,.17-.371,7.361,7.361,0,0,0,.566-.667c-.578,1.374-1.333,2.666-2.045,4a6.031,6.031,0,0,1-.74,1.089,1.666,1.666,0,0,0-.522.711c-.009.1-.068.259-.026.306.09.04.145-.068.248-.179a.2.2,0,0,0,.144-.065c0,.05.033.145.029.2a6.5,6.5,0,0,1-.657,1.23c-.1.062-.239.078-.34.19a.5.5,0,0,0-.116.264c-.012.152.129.136.219.177a3.749,3.749,0,0,1-.467,1.158c-.047.005-.034-.146-.141.016.047-.006.094-.011.188-.02a7.809,7.809,0,0,0-.267.986,38.073,38.073,0,0,0-1.778,8.654.93.93,0,0,0-.2.224.494.494,0,0,1,.2-.224c.043.045.136.034.221.127.252.324.631.233,1.022-.012A8.073,8.073,0,0,0,246.921,33.844ZM247.1,23.2c-.063.209-.174.422-.237.631C246.927,23.623,247.038,23.41,247.1,23.2Zm-.1-8.346a.059.059,0,0,0,.05-.056c-.043-.046-.043-.046-.1.061a.232.232,0,0,0-.06.158C246.943,14.961,246.948,14.91,247,14.855Zm1.07-1.729a.881.881,0,0,0,.2-.173,2.026,2.026,0,0,0,.221-.427l.2-.224c.051-.056.1-.111.2-.225l0,.051c-.051.058-.149.118-.2.174a1.015,1.015,0,0,1-.2.224,2.026,2.026,0,0,1-.221.427.88.88,0,0,0-.157.219,1.161,1.161,0,0,0-.421.6A1.229,1.229,0,0,0,248.069,13.126Zm-.1,22.616a11.191,11.191,0,0,0,3.515-3.81,1.931,1.931,0,0,1,.221-.426c-.06.156-.162.27-.221.426-.052.056-.1.062-.149.118-1.246,1.044-2.325,2.32-3.486,3.454a.2.2,0,0,0-.067.259Zm1.1-17.339,0-.051,0,.051c-.31.386-.476.707-.326.589A.99.99,0,0,0,249.073,18.4Zm.163,17.2a10.281,10.281,0,0,0,2.074-2.091,3.365,3.365,0,0,0,.488-.858,25.6,25.6,0,0,0-2.681,2.71c-.1.113-.157.218-.069.259C249.091,35.67,249.189,35.609,249.236,35.6Zm1,2.458a7.966,7.966,0,0,0,1.748-1.5c1.326-1.455,2.434-3.087,3.632-4.679.055-.107.107-.164.025-.3-.05.056-.148.116-.2.172-.458.5-.964,1.013-1.376,1.512a34.534,34.534,0,0,1-3.825,4.2,1.687,1.687,0,0,0-.417.55c-.05.055-.009.1.035.148a.037.037,0,0,0,.043.044A3.412,3.412,0,0,0,250.24,38.062ZM250.865,9.6a.932.932,0,0,1,.2-.224.891.891,0,0,0,.156-.218.5.5,0,0,0,.2-.224.841.841,0,0,0,.2-.173.974.974,0,0,1,.205-.224.974.974,0,0,0-.205.224c-.05.056-.148.116-.2.173a.5.5,0,0,1-.2.224c-.051.055-.1.162-.156.218a.5.5,0,0,0-.2.224.488.488,0,0,0-.205.225A.959.959,0,0,1,250.865,9.6Zm.2,5.415a1.278,1.278,0,0,1,.459-.5,1.7,1.7,0,0,1-.373.6l-.048.006A.134.134,0,0,1,251.069,15.011Zm.9,22.91,0,.051c-.046,0-.093.011-.1.061Zm.332-24.908a1.889,1.889,0,0,0,.22-.427c.052-.056.009-.1-.033-.147l-.047.005c-.153.168-.256.279-.357.391-.106.162-.122.365-.03.356A1.31,1.31,0,0,0,252.3,13.013ZM253.019,37a3.3,3.3,0,0,0,.45-.4c.671-.829,1.343-1.658,2.018-2.538a32.474,32.474,0,0,0,2.754-4.129,3.925,3.925,0,0,0,.572-1.322,1.815,1.815,0,0,0,.438-.8,1.464,1.464,0,0,0-.443.854,12.458,12.458,0,0,0-1.521,2.13,13.843,13.843,0,0,1-1.113,1.684c-.845,1.25-1.771,2.359-2.655,3.514a2.97,2.97,0,0,0-.628.875c-.052.056.038.1.034.148S253.014,37.051,253.019,37Zm2.159-9.9a1.3,1.3,0,0,0-.331.641C254.959,27.522,255.247,27.391,255.178,27.1Zm.816-1.45a.223.223,0,0,0,.059-.158,2.05,2.05,0,0,0,.222-.426l.046-.005-.051.056c-.056.106-.115.264-.17.371-.051.056-.1.112-.149.118,0,.05-.05.054-.055.105C255.938,25.754,255.985,25.748,255.994,25.646Zm4.938-3.061a3.022,3.022,0,0,0,.228-1.081.342.342,0,0,0,.1-.164.23.23,0,0,1,.056-.105c-.043-.047-.093.009-.1.06a.368.368,0,0,1-.063.209,4.5,4.5,0,0,0-.458,1.057c0,.051.034.146.081.141A.858.858,0,0,0,260.932,22.585Z"/><path class="cls-1" d="M266.488,39.6a3.679,3.679,0,0,1-1.536-2.2,21.431,21.431,0,0,1-.6-2.352,7.184,7.184,0,0,1,1.027-5.148q.721-1.136,1.428-2.119a10.672,10.672,0,0,1,1.827-1.914,5.274,5.274,0,0,0,.79-.59,6.039,6.039,0,0,1,2.265-1,.819.819,0,0,1,.821.161c.18.081.158.335-.037.457-.34.188-.681.378-1.021.565a5.463,5.463,0,0,0-1.692,1.4l0-.051a2.276,2.276,0,0,0,.914-.4,12.2,12.2,0,0,1,1.114-.576c-.356.39-.833.544-1.147.982.077.192.18.08.276.019.3-.183.635-.371.929-.554q.508-.284,1.021-.566c.242-.128.535-.31.7-.026a.884.884,0,0,1-.181,1.076,2.532,2.532,0,0,1-.545.413c-.349.29-.743.585-1.092.876-.3.284-.557.565-.859.849a.564.564,0,0,0-.166.32c-.013.153.179.081.375-.041q.746-.609,1.492-1.222a6.739,6.739,0,0,1,1.221-.738c.128.138-.021.254-.118.316-.4.4-.85.748-1.254,1.145s-.758.736-1.161,1.135a2.523,2.523,0,0,0-.585.92,1.8,1.8,0,0,0-.63.874l0-.051a1.493,1.493,0,0,0,.626-.823c.191-.072.335-.138.526-.209l0-.051a9.46,9.46,0,0,1-1.5,1.928.759.759,0,0,0-.245.73c.073.244.251.326.532.3a3.518,3.518,0,0,0,1.226-.236,43.24,43.24,0,0,0,4.492-2.155,9.809,9.809,0,0,0,2.472-1.833,2.423,2.423,0,0,1,.5-.457,4.945,4.945,0,0,0,1.019-1.121q.631-.9,1.263-1.8a10.515,10.515,0,0,0,1.175-2.446c.368-1.1.265-1.54-.577-2a17.044,17.044,0,0,0-2.012-.935,6.863,6.863,0,0,0-1.494-.44,12.836,12.836,0,0,1-2.915-1.24,3.911,3.911,0,0,1-1.3-1.166,12.81,12.81,0,0,1-.989-1.5,1.564,1.564,0,0,1-.3-.924,7.779,7.779,0,0,1-.1-1.047c.033-.959-.024-1.96-.086-2.911a6.156,6.156,0,0,1,.362-2.708,5.018,5.018,0,0,1,.706-1.235,9.374,9.374,0,0,1,1.075-1.226,5.179,5.179,0,0,1,1.781-1.353,7.659,7.659,0,0,0,1.659-.99,5.487,5.487,0,0,1,1.553-.825,17.724,17.724,0,0,0,1.6-.831c.582-.315,1.124-.123,1.7-.338a10.436,10.436,0,0,0,1.68-.688,8.051,8.051,0,0,1,2.558-.634c.607-.067,1.217-.135,1.783-.246a8.469,8.469,0,0,1,2.281-.1,1.241,1.241,0,0,1,.542.191,3.4,3.4,0,0,1,1.583,2.193,8.54,8.54,0,0,0,.436,1.462,5.23,5.23,0,0,1,.285,2.738,2.888,2.888,0,0,0,.019.9.949.949,0,0,1-.072.863,7.03,7.03,0,0,1-1.087,1.933,5.157,5.157,0,0,1-.7.681.593.593,0,0,0-.279.585c-.357.392-.673.828-1.03,1.221a3.354,3.354,0,0,1-1.518.973,10.492,10.492,0,0,0,1.2-1.09,3.417,3.417,0,0,0-.918.454,3.619,3.619,0,0,1-1.148.429c-.327.036-.447-.2-.281-.523a3.237,3.237,0,0,0,.217-.377c.049-.055-.037-.146-.128-.136-.091-.042-.235.026-.328.037-.427.1-.6-.037-.657-.483a2.1,2.1,0,0,1,.223-1.032c.069-.259.229-.528.062-.762l0,.051a4.674,4.674,0,0,1-.164-1.392c.077-.361-.094-.544-.473-.451-.621.219-1.238.388-1.864.657a23.933,23.933,0,0,0-4.318,2.289,3.459,3.459,0,0,0-.641.473.276.276,0,0,0-.039.457c.133.087.218.178.351.264a21.148,21.148,0,0,1,1.807,1.161,7.4,7.4,0,0,1,2.938,3.754,32.922,32.922,0,0,1,1.133,3.149,12.332,12.332,0,0,1,.645,4.007c.015.954.119,1.95.04,2.916a9.171,9.171,0,0,1-1.154,3.853c-.164.32-.429.7-.275,1.087a2.06,2.06,0,0,1-.671.829,14.739,14.739,0,0,0-1.206,1.139,21.642,21.642,0,0,1-5.206,4.047,8.83,8.83,0,0,0-1.717,1.146,3.177,3.177,0,0,1-1.208.587,7.315,7.315,0,0,0-1,.26c-.188.021-.384.143-.515.057-.4-.208-.836-.009-1.307.093a5.029,5.029,0,0,1-1.221.185A7.5,7.5,0,0,1,266.488,39.6Zm2.474-11.449c.1-.061.144-.067.195-.122-.1.061-.149.117-.246.176A.059.059,0,0,0,268.962,28.147Zm2.268,2.318c.051-.057.149-.117.2-.174a1.051,1.051,0,0,0-.2.225Zm.4-.4-.2.223A.516.516,0,0,1,271.633,30.068Zm.158-.219.046,0-.2.224C271.684,30.012,271.741,29.905,271.791,29.849Zm.2-.225.047,0a1.081,1.081,0,0,1-.251.23A.976.976,0,0,0,272,29.624Zm.193-4.049a1.7,1.7,0,0,1-.392.246A3.172,3.172,0,0,0,272.188,25.575Zm.341-.188a3.181,3.181,0,0,1-.388.193A3.181,3.181,0,0,0,272.529,25.387Zm.143-.066a.194.194,0,0,0-.143.066A.194.194,0,0,1,272.672,25.321Zm5.22,7.632a2.6,2.6,0,0,0,.761-.789l.051-.055,0,.05a1.7,1.7,0,0,0-.813.291,35.885,35.885,0,0,1-4.173,2.222,2.119,2.119,0,0,0-.395.3s0,.052-.009.1a.082.082,0,0,0,.085.09.523.523,0,0,0,.277.02A15.291,15.291,0,0,0,277.892,32.953Zm-1.555,1.985a8.2,8.2,0,0,0,2.152-1.345c.051-.057.157-.219.114-.265.009-.1-.132-.086-.182-.03-1.022.566-2,1.177-3.026,1.793l-.05.057c0,.05-.05.055-.008.1l.042.046A3.392,3.392,0,0,0,276.337,34.938Zm.18,3.454c.578-.265,1.111-.526,1.689-.791a10.419,10.419,0,0,0,2.218-1.6c.1-.113.209-.274.311-.387a.168.168,0,0,0,.018-.2c0-.05-.09-.04-.136-.035a.958.958,0,0,0-.337.139c-1.268.743-2.493,1.532-3.756,2.225a1.232,1.232,0,0,0-.492.356.543.543,0,0,0-.07.259c.044.046.133.087.175.133C276.278,38.468,276.423,38.4,276.517,38.392Zm.335-30.6c.052-.055.1-.112.152-.168.1-.06.244-.128.341-.188-.1.06-.242.128-.341.188-.049.056-.1.062-.148.117-.093.01-.1.061-.056.107Zm3.288,30.552a3.775,3.775,0,0,1-1.69.791A2.448,2.448,0,0,1,280.14,38.345Zm-.362-32.838a41.358,41.358,0,0,1,8.391-2.735c.707-.128,1.416-.308,2.268-.5a5.692,5.692,0,0,0-2.742.049,36.134,36.134,0,0,0-5.378,1.649c-.864.347-1.736.8-2.6,1.193a1.22,1.22,0,0,0-.637.422C279.332,5.859,279.586,5.579,279.778,5.507Zm-.378,6.286c.2-.123.442-.3.638-.424a31.735,31.735,0,0,1,6.474-3.13c.333-.086.673-.274,1.055-.417a.614.614,0,0,0,.061-.157c0-.052-.086-.093-.086-.093a2.32,2.32,0,0,0-.567.114c-.284.082-.621.219-.952.3a27.787,27.787,0,0,0-4.089,1.76c-.68.378-1.365.806-2,1.228a1.483,1.483,0,0,0-.747.635c-.048,0-.055.107-.012.153,0,0,0,.052.041.047Zm1.125-2.39a35.865,35.865,0,0,1,4.335-1.937c1.094-.322,2.234-.649,3.374-.976a1.772,1.772,0,0,0,.77-.336c.051-.056.153-.167.115-.265-.043-.045-.077-.193-.124-.188a1.423,1.423,0,0,0-.465,0c-.476.155-1,.262-1.518.419a32.248,32.248,0,0,0-6.591,2.841,2.306,2.306,0,0,0-1.143.932A4.4,4.4,0,0,0,280.525,9.4Zm-.571-3.21a7.992,7.992,0,0,0,1.428-.459,36.789,36.789,0,0,1,5.443-1.859q1-.258,1.992-.52c.1-.061.233-.027.2-.224,0-.051-.132-.086-.225-.076a5.4,5.4,0,0,0-1.508.267,30.551,30.551,0,0,0-3.523,1.092,19.944,19.944,0,0,0-3.811,1.779l-.047.005Zm.163,25.106a.058.058,0,0,1,.05-.056l.2-.223c.05-.058.152-.168.2-.225a68.163,68.163,0,0,1-.408.448c-.046.005-.05.056-.1.112Zm1.711,5.7a3.923,3.923,0,0,1-1.633,1.237A5.412,5.412,0,0,1,281.828,37Zm.407-.447a22.286,22.286,0,0,0,1.982-2.081c.152-.168.352-.341.5-.51a5.673,5.673,0,0,1-2.843,2.983A1.5,1.5,0,0,1,282.235,36.554Zm9.821-25.2a.944.944,0,0,0-.2.224A.492.492,0,0,1,292.056,11.356Z"/><g id="ACENTO"><path class="cls-1" d="M125.563,16.838a.173.173,0,0,1,.2-.116,2.1,2.1,0,0,1,.393-.046,3.119,3.119,0,0,0,.48-.088c.212-.014.439-.161.373-.2-.106-.113-.253-.06-.373-.037a4.927,4.927,0,0,1-1.491-.151.325.325,0,0,1-.292-.37,1.4,1.4,0,0,1,.149-.771,2.167,2.167,0,0,0,.224-1.395c-.133-.321.1-.656.31-.96a8.434,8.434,0,0,1,1.616-1.784,26.114,26.114,0,0,1,3.4-2.457,15.478,15.478,0,0,1,1.794-1.1,2.281,2.281,0,0,1,.521-.255.837.837,0,0,1,1,.186c.286.32.691.616.543,1.148-.047.115.06.228.139.373-.107.126-.241.283-.042.4a.635.635,0,0,1,.277.745,1.2,1.2,0,0,1-.435.93c-.053.063-.167.137-.22.2-.307.242-.307.242-.029.51a.228.228,0,0,1-.02.322l-.054.063c-.346.17-.361.544-.741.694l-.96.415c-.141.106-.221.2.025.208.094.009.1.061.074.093a.7.7,0,0,1-.253.178q-.992.541-1.882,1.143a4.04,4.04,0,0,1-1.347.752.982.982,0,0,0-.5.411,3.672,3.672,0,0,1-.688.631,1.883,1.883,0,0,1-1.712.527l-.38-.089C125.576,16.941,125.51,16.9,125.563,16.838Z"/></g><path id="SUBRAYADO" class="cls-1" d="M290.258,71.244a24.032,24.032,0,0,1-4.156-.358c-.913-.088-1.825-.177-2.739-.261-.176-.015-.356-.011-.463-.139l-.02,0-.01,0-.009-.009-.009,0a.613.613,0,0,1,.072.025l-.029,0c-.019-.009-.037-.011-.056-.018a1.712,1.712,0,0,1-.695.029.448.448,0,0,1-.088.014c-.25-.009-.527.131-.742-.057-.02-.018,0-.1.037-.116a1.074,1.074,0,0,1,.764.043c.259-.019.551-.173.746.078l.023-.009h0c0,.006.011.008.016.014a7.927,7.927,0,0,1,3.206.258c.829-.159,1.7.2,2.737-.164-.5-.092-.79-.159-1.085-.2a51.1,51.1,0,0,0-6.325-.349c-3-.013-5.982-.169-8.967-.306-2.766-.127-5.52-.356-8.3-.388a54.831,54.831,0,0,1-7.419-.416h0c-1.881.044-3.748-.061-5.615-.169a27.7,27.7,0,0,1-3.786-.25c.593-.329,1.074-.053,1.554-.057a15.229,15.229,0,0,1,1.682.017c.52.054,1.058.006,1.574.1a20.441,20.441,0,0,1,5,.184,15.407,15.407,0,0,1,3.164.087c1.451.124,2.9.261,4.376.244a2.509,2.509,0,0,1,.45.072h0a31.67,31.67,0,0,1,3.185-.135c2.3.067,4.576.346,6.887.339.685,0,1.368.052,2.051.092,1.672.1,3.321.3,5.025.258a25.509,25.509,0,0,1,4.55.278,3.075,3.075,0,0,0,1.634-.1c-.043-.075-.146-.168-.116-.223.046-.085.19-.068.3-.033.367-.08.789.047,1.112-.2-1.045-.124-2.122-.053-3.155-.164-1.876-.2-3.773-.231-5.649-.406a1.242,1.242,0,0,1-.822-.051,7.513,7.513,0,0,1-1.32-.128h0l-.575.032-.371.02a1.438,1.438,0,0,1-.808-.05c-1.629.109-3.24-.044-4.857-.095-1.678-.054-3.34-.232-5.03-.2-.587.013-1.173-.082-1.76-.128-.574-.114-1.195.022-1.76-.147a16.362,16.362,0,0,1-3.913-.024,7.62,7.62,0,0,0-1.4-.026,11.625,11.625,0,0,1-3.871-.507,41.735,41.735,0,0,1,4.86.187c1.575.093,3.158.132,4.737.194.764.142,1.576-.054,2.335.133h0a4.339,4.339,0,0,1,.741-.041c1.723.2,3.481.042,5.209.178a7.121,7.121,0,0,0,1.895-.24,8.3,8.3,0,0,0-1.843-.121c-1.668-.157-3.343-.271-5.018-.384-2.388-.16-4.78-.3-7.154-.548a39.247,39.247,0,0,0-6.05-.341c-.964.048-1.935-.045-2.9-.052a28.539,28.539,0,0,0-4.873.138,9.607,9.607,0,0,1-2.8.074c-.768-.1-1.537-.172-2.312-.222a21.043,21.043,0,0,0-5.693.063,2.873,2.873,0,0,1-.748.028c-2.638-.175-5.276-.349-7.926-.446q-3.37-.124-6.746-.124c-.83,0-1.587.277-2.407.29-1.191.019-2.374-.049-3.56-.058a26.1,26.1,0,0,0-4.87.164c-1.129.2-2.289.141-3.435.391a11.885,11.885,0,0,1-2.232.026c-1.88.016-3.74-.147-5.611-.2-2.059-.062-4.121-.1-6.181-.152a42.053,42.053,0,0,0-5.722.274c-1.585.175-3.163.388-4.759.5-3.284.225-6.579.31-9.851.667a51.882,51.882,0,0,1-5.9.458c-1.662-.008-3.317.116-4.974.249-1.531.124-3.056.3-4.586.41-6.128.448-12.269.672-18.4,1.009a9.565,9.565,0,0,0-2.2.25h0l-2.988.194c-1.845.111-3.695.178-5.535.341-2.869.254-5.724.618-8.6.86-4.338.365-8.664.849-13.011,1.143a46.956,46.956,0,0,0-4.845.545,9.183,9.183,0,0,1-1.949.224,30.586,30.586,0,0,0-4.214.214c-3.149.3-6.3.554-9.451.857-1.651.159-3.293.378-4.939.576-1.8.216-3.592.489-5.4.647-2.9.253-5.813.41-8.7.787a12.48,12.48,0,0,1-1.313.065c-1.157.028-2.307.007-3.47.125-2.368.242-4.718.569-7.065.9a21.5,21.5,0,0,0-5.537,1.089,1.744,1.744,0,0,1-.272.059,27.573,27.573,0,0,1-3.859.659c-1.742.159-3.35.8-5.122.912a23.178,23.178,0,0,0-3.786.571,20.648,20.648,0,0,1-4.913.561,24.326,24.326,0,0,0-4.355.576c-1.051.18-2.076.529-3.14.75-2.3.48-4.579,1.05-6.881,1.535a12.812,12.812,0,0,0-4.57,1.66,2.914,2.914,0,0,1-1.221.372c-1.426.195-2.773.634-4.191.85-.225.034-.5.089-.565.232-.2.432-.722.527-1.147.7-1.283.52-2.418,1.24-3.774,1.664-.366.115-.374.306-.066.487a1.911,1.911,0,0,0,1.566.241c.769-.21,1.564-.363,2.333-.575.441-.122.712-.05.9.261-.187.239-.531.264-.806.359a12.687,12.687,0,0,0-1.526.573c-.126.062-.281.148-.249.284.038.163.229.2.414.227a2.64,2.64,0,0,0,1.258-.254,7.233,7.233,0,0,1,1.712-.6c1.246-.131,2.461-.392,3.7-.535a2.462,2.462,0,0,0,.979-.223,3.092,3.092,0,0,0,.594-.138c.022-.009.047-.008.069-.016a4.147,4.147,0,0,1-.652.164c-.2.165-.589.1-.731.348a3.589,3.589,0,0,1-1.108.388c-.852.168-1.693.369-2.544.541A1,1,0,0,0,5.9,91.8a1.356,1.356,0,0,1-1.013.45,5.118,5.118,0,0,0-.791.233c-.17.056-.381.1-.359.286.02.164.2.26.378.273a5.2,5.2,0,0,0,1.667.022,21.135,21.135,0,0,1,2.559-.491c.226-.025.515-.075.566-.224.187-.539.782-.553,1.3-.677,1.92-.458,3.783-1.055,5.716-1.485.81-.18,1.746-.159,2.341-.773.076-.079.282-.1.433-.122a14.165,14.165,0,0,0,3.322-.768,2.768,2.768,0,0,1,.812-.173,28.153,28.153,0,0,0,3.953-.657c1.169-.281,2.364-.493,3.549-.731a3.809,3.809,0,0,0,1.813-.519c.549-.488,1.171.068,1.772-.214a7.31,7.31,0,0,1,1.888-.429c.853-.136,1.652-.409,2.49-.573.5-.1,1.068.035,1.484-.342.123-.112.359-.047.54-.019a1.949,1.949,0,0,0,.651,0c.949-.164,1.9-.333,2.85-.481,1.293-.2,2.549-.541,3.856-.684a39.151,39.151,0,0,0,4.506-.757,7.9,7.9,0,0,1,2.118-.315,11.492,11.492,0,0,0,2.492-.251,5.785,5.785,0,0,1,2.726-.2,2.4,2.4,0,0,0,1.017-.08c3.11-.631,6.271-1.014,9.44-1.359a26.545,26.545,0,0,0,3.073-.336c.992-.229,1.968-.484,2.987-.632,2.613-.381,5.111-1.256,7.819-1.23a2.286,2.286,0,0,0,.459-.079,51.03,51.03,0,0,1,8.558-.968,3.127,3.127,0,0,1,.932.011,3,3,0,0,0,1.3-.006,58.31,58.31,0,0,1,8.327-.657,77.222,77.222,0,0,0,8.7-.717c3.288-.407,6.57-.828,9.894-.934l.194-.011a.759.759,0,0,1,.572-.143,2.974,2.974,0,0,0,1.452-.021,5.644,5.644,0,0,1,1.565-.159,4.841,4.841,0,0,0,2.52-.236.954.954,0,0,1,.455-.041,6.363,6.363,0,0,0,2.245-.307c1.844-.113,3.689-.2,5.53-.376s3.657-.442,5.516-.475c2.94-.051,5.882-.074,8.823-.238.907-.05,1.814-.113,2.722-.143,2.252-.076,4.52-.085,6.751-.267,2.982-.243,5.942-.211,8.91-.224,1.821-.008,3.635-.071,5.442-.238a40.272,40.272,0,0,1,6.071-.468,1.193,1.193,0,0,0,.371-.042,8.349,8.349,0,0,1,1.953-.2,7.824,7.824,0,0,0,2.041-.233c.2-.058.485-.147.632-.031.418.33.839.143,1.3.064a11.949,11.949,0,0,1,1.569-.245c2.193-.089,4.363-.37,6.539-.611,4.39-.484,8.808-.674,13.219-.939,3.319-.2,6.634-.118,9.951-.178.787-.014,1.573.023,2.358.036l.006.142c-1.093-.054-2.106.362-3.218.266a28.639,28.639,0,0,0-5.334.038,6.705,6.705,0,0,1-1.869.056,6.144,6.144,0,0,0-2.256.057,7.045,7.045,0,0,1-1.482.154c-2.6-.07-5.191.338-7.792.333a1.105,1.105,0,0,0-.951.338,4.465,4.465,0,0,0,1.5.072c.967-.1,1.939-.147,2.908-.155,5.228-.046,10.455-.429,15.684-.358,2.312.031,4.631-.049,6.944-.024,1.064.012,2.128-.055,3.191-.02a38.393,38.393,0,0,0,4.029.017,8.594,8.594,0,0,1,1.219-.04c3.517.26,7.063-.018,10.584.117,1.033.039,2.089-.129,3.082.008,2.1.289,4.236-.139,6.343.141,1.11.147,2.3.055,3.431.177a12.356,12.356,0,0,0,1.962.042h0c.57-.145,1.209.041,1.748-.252-.446-.214-1.041.03-1.658-.29,1.468-.279,2.736.078,4.009-.01a33.048,33.048,0,0,1,3.921.1c1.3.064,2.6.151,3.893.228h0a5.423,5.423,0,0,1,1.342.2h0a1.063,1.063,0,0,1,.947.077,2.407,2.407,0,0,1,.949-.013.813.813,0,0,1,.554-.054h0l1.33.065c.379.005.784-.158,1.127.077l.014,0a3.255,3.255,0,0,1,1.305.035,6.826,6.826,0,0,0,1.5.095,8.933,8.933,0,0,1,2.143-.009c.765.1,1.538.175,2.314.2,1.332.045,2.65.183,3.985.23,1.054.036,2.1.142,3.164.075.167-.011.385.036.479-.2A13.252,13.252,0,0,0,290.258,71.244Zm-36.281-3.766c.01,0,.048.061.071.091-.063.1-.152.059-.234.037a.33.33,0,0,1-.073-.042C253.82,67.534,253.9,67.5,253.977,67.478ZM76.341,77.117c.105-.043.156.016.2.074-.035.032-.08.1-.1.093a1.385,1.385,0,0,1-.235-.08A.882.882,0,0,1,76.341,77.117Zm31-1.837h0a.449.449,0,0,1,.38.128C107.6,75.363,107.31,75.582,107.341,75.28Zm46.914-4.09a11.207,11.207,0,0,1-2.5-.006c-.366-.092-.614.176-.975.179-.76.007-1.522.124-2.282.138-.367.007-.429.323-.793.322a11.525,11.525,0,0,1-3.06-.006c-.141-.038-.324-.14-.435-.047-.5.416-1.1.172-1.659.247-1.287.173-2.582.152-3.871.245-.945.067-1.892.092-2.834.211-.9.113-1.809.2-2.711.327a17.373,17.373,0,0,0-1.98.307c.005.054.01.108.014.162.092.026.2.038.18.145L131,73.42l-.449-.131c-.32-.244-.553.153-.89.086a3.376,3.376,0,0,0-.908.072h0a1.986,1.986,0,0,1-1.152.162c-.356-.018-.745-.1-.841.44-.126-.318-.052-.438.112-.535-.317-.253-.733-.1-1.045-.041-.423.08-.846.121-1.269.172-.364.044-.812-.07-.934.376-.017.062-.331.083-.508.124h0c-.177-.1-.3-.223-.253-.407-1.109.049-2.209.236-3.323.2-.464.356-1.174-.08-1.632.33-.082.073-.235.013-.347-.031-.139-.055-.342-.125-.437-.045-.563.47-1.314.286-1.969.364a5.172,5.172,0,0,1-2.034.042c-.271-.075-.545.095-.8.158-.675.168-1.337-.044-2,.082a.8.8,0,0,0-.772-.243c-.935.067-1.873.1-2.809.14l-.552.047c.013.143.039.3-.226.323-.215.019-.434,0-.651.019a7.822,7.822,0,0,0-2.1.2,4.55,4.55,0,0,1-1.452.312c-.838.043-1.677.066-2.516.1h0a12.927,12.927,0,0,0-2.325-.155c-.965.064-1.931.119-2.9.178-.154.009-.373-.022-.451.043-.563.466-1.35.286-2.012.421-.461.094-.964.12-1.458.206-.615.108-1.24.241-1.859.35-1.28.226-2.58.315-3.863.5-.779.114-1.556.248-2.323.408a44.431,44.431,0,0,1-4.51.368c-1.7.176-3.426.233-5.114.47-1.235.173-2.48.348-3.695.642a4.1,4.1,0,0,1-1.885.074,6.035,6.035,0,0,0-2.8.2c-1.261.322-2.587.44-3.823.827a1.323,1.323,0,0,1-.642.079c-1.13-.3-2.167.265-3.263.257a2.2,2.2,0,0,1-.542.022c-.6-.144-.6-.255-.257-.676a1.226,1.226,0,0,1,1.155-.442c.748.055,1.466-.171,2.208-.168h0c.136-.228.38-.152.6-.136.008-.106.076-.163.22-.16a.991.991,0,0,1,.109,0l.386.085c.034-.064.066-.128.1-.192.454.23.781-.236,1.267-.145a5.92,5.92,0,0,0,1.383-.082c.5-.034.993-.059,1.489-.095a2.49,2.49,0,0,0,1-.16h0l.622-.061a1.094,1.094,0,0,1,.716-.355.416.416,0,0,1,.39-.12c1.2-.066,2.377-.367,3.595-.365a3.971,3.971,0,0,1,.821.056,8.015,8.015,0,0,0,2.671.193,11.819,11.819,0,0,0,2.386-.436c.306-.11.22-.248.215-.4-.089.044-.171.042-.211-.035-.01-.018.047-.077.087-.089.095-.028.168,0,.177.084a21.078,21.078,0,0,0,4.938-.7,16.26,16.26,0,0,1,3.677-.393A16.319,16.319,0,0,0,88.7,75.39a8.47,8.47,0,0,1,2.58-.126,4.211,4.211,0,0,0,1.3-.069,49.1,49.1,0,0,1,5.225-.419c1.019-.069,2.043-.088,3.059-.174,2.349-.2,4.691-.479,7.043-.621,2.76-.166,5.47-.646,8.235-.8,2.418-.137,4.815-.54,7.246-.68.892-.051,1.8-.2,2.7-.214.475-.007.77-.288,1.2-.314.122.339.482.229.768.2.928-.09,1.853-.208,2.781-.3,2.106-.21,4.218-.363,6.326-.567,1.842-.177,3.707-.172,5.563-.248.066-.041.133-.081.2-.121l0-.017.023.008a2.384,2.384,0,0,1,2.157-.183c.314.085.559.253.919.045a.968.968,0,0,1,.548-.038,8.315,8.315,0,0,0,2.388-.123,6.747,6.747,0,0,1,1.838.134c.147.026.369.122.425.081.492-.361,1.1-.195,1.651-.268a3.39,3.39,0,0,1,2.007.2A.579.579,0,0,1,154.255,71.19Zm22.684-.433-.085-.039c.02-.014.039-.038.058-.039s.038.024.056.037Zm1.467-.071s-.037-.024-.055-.039c.02-.013.039-.038.059-.037s.036.024.055.038C178.445,70.661,178.425,70.686,178.406,70.686Zm17.339-.429c-.053.022-.087,0-.078-.057,0-.016.035-.03.053-.045l.05.047C195.762,70.221,195.762,70.25,195.745,70.257Zm27.951-.585a3.96,3.96,0,0,1-1.557-.009,1.356,1.356,0,0,1-.644-.106,3.815,3.815,0,0,1,1.219-.08c.436.021.9-.152,1.307.066C224.02,69.75,223.827,69.664,223.7,69.672Zm1.565.086c-.088,0-.252.023-.21-.109.011-.035.145-.068.221-.067a.907.907,0,0,1,.249.084A.919.919,0,0,1,225.261,69.758Zm30.574-.1c.142-.006.3-.045.384.087a.165.165,0,0,1-.173.146c-.152.01-.324.013-.381-.119C255.629,69.683,255.749,69.659,255.835,69.654Zm-4.446.407a5.764,5.764,0,0,1-1.75-.029,11.074,11.074,0,0,1-2.01.082h0l-1.519-.074h0l-.743-.094a1.128,1.128,0,0,1-.759-.051.781.781,0,0,1,.936-.1l.56.119a3.061,3.061,0,0,1,1.511.069,15.863,15.863,0,0,1,2.254-.092l1.515.062a4.648,4.648,0,0,1,1.383.153A2.329,2.329,0,0,1,251.389,70.061Zm6.248.348a32.471,32.471,0,0,1-3.785-.1h0l-.762-.089a3.371,3.371,0,0,1,1.614-.061,12.9,12.9,0,0,1,3.126.115,1.98,1.98,0,0,1,.946.052A2.56,2.56,0,0,1,257.637,70.409Zm11.746-.237a.522.522,0,0,1-.058-.109c0-.009.039-.028.059-.043a.532.532,0,0,1,.06.109C269.447,70.138,269.4,70.157,269.383,70.172Z"/></g></g></g></g></g></svg>