<svg xmlns="http://www.w3.org/2000/svg" width="301.084" height="111.185" viewBox="0 0 301.084 111.185"><defs><style>.cls-1{font-size:50.984px;font-family:Rustico-Regular, Rustico;letter-spacing:0.1em;}.cls-1,.cls-2{fill:#fff;}</style></defs><title>contactanos-titulo</title><g id="Layer_2" data-name="Layer 2"><g id="CONTACTO"><g id="MAPA_BACKGROUND" data-name="MAPA BACKGROUND"><g id="CONTÁCTANOS"><g id="CONTÁCTANOS-2" data-name="CONTÁCTANOS"><g id="CONTACTANOS"><text class="cls-1" transform="matrix(0.918, -0.101, -0.082, 0.997, 2.925, 75.616)">contactanos</text></g><g id="ACENTO"><path class="cls-2" d="M130.423,24.07a.174.174,0,0,1,.2-.116,2.091,2.091,0,0,1,.393-.046,3.083,3.083,0,0,0,.479-.088c.213-.013.44-.161.374-.2-.107-.113-.253-.059-.373-.037a4.959,4.959,0,0,1-1.491-.15.325.325,0,0,1-.292-.371,1.388,1.388,0,0,1,.149-.771,2.174,2.174,0,0,0,.224-1.4c-.133-.321.1-.656.309-.96a8.491,8.491,0,0,1,1.617-1.784,26.046,26.046,0,0,1,3.4-2.457,15.532,15.532,0,0,1,1.794-1.1,2.261,2.261,0,0,1,.521-.255.837.837,0,0,1,1,.186c.286.32.691.616.542,1.148-.046.115.06.229.139.373-.106.126-.24.283-.041.406a.634.634,0,0,1,.277.745,1.209,1.209,0,0,1-.435.93c-.053.062-.167.136-.22.2-.308.242-.308.242-.029.51a.227.227,0,0,1-.021.322l-.053.063c-.346.17-.361.544-.742.694l-.959.415c-.141.106-.221.2.025.208.094.009.1.061.073.093a.672.672,0,0,1-.253.178q-.992.541-1.881,1.143a4.055,4.055,0,0,1-1.348.753.973.973,0,0,0-.5.41,3.605,3.605,0,0,1-.688.631,1.888,1.888,0,0,1-1.713.528l-.379-.09C130.436,24.174,130.369,24.133,130.423,24.07Z"/></g><path id="SUBRAYADO" class="cls-2" d="M295.118,78.476a24.023,24.023,0,0,1-4.156-.358c-.913-.087-1.825-.177-2.739-.26-.176-.016-.356-.012-.463-.14l-.02,0-.011,0-.008-.009-.009,0c.024.008.048.015.072.025l-.029,0c-.019-.009-.038-.011-.056-.018a1.713,1.713,0,0,1-.695.029.45.45,0,0,1-.088.015c-.25-.009-.527.13-.742-.058-.021-.018,0-.1.037-.116a1.071,1.071,0,0,1,.763.043c.26-.019.552-.173.747.078l.023-.009h0a.2.2,0,0,0,.016.014,7.956,7.956,0,0,1,3.2.258c.83-.158,1.7.2,2.737-.164-.5-.092-.79-.159-1.085-.2a51.263,51.263,0,0,0-6.324-.349c-3-.013-5.982-.169-8.967-.306-2.766-.126-5.52-.355-8.3-.388a54.984,54.984,0,0,1-7.419-.415h0c-1.881.043-3.748-.062-5.615-.17a27.712,27.712,0,0,1-3.787-.25c.594-.329,1.075-.053,1.555-.057a15.209,15.209,0,0,1,1.681.018c.52.054,1.059.005,1.575.1a20.443,20.443,0,0,1,5,.184,15.407,15.407,0,0,1,3.164.087c1.451.124,2.9.262,4.375.244a2.6,2.6,0,0,1,.451.072h0a31.669,31.669,0,0,1,3.185-.134c2.3.067,4.576.345,6.887.339.685,0,1.368.051,2.05.091,1.673.1,3.322.3,5.026.258a25.492,25.492,0,0,1,4.549.278,3.068,3.068,0,0,0,1.635-.1c-.044-.076-.146-.169-.116-.224.046-.084.19-.068.3-.033.367-.08.789.048,1.112-.2-1.045-.124-2.123-.053-3.156-.164-1.875-.2-3.772-.231-5.648-.406a1.235,1.235,0,0,1-.822-.051,7.5,7.5,0,0,1-1.32-.128h0l-.574.032-.372.02a1.425,1.425,0,0,1-.807-.05c-1.629.11-3.24-.044-4.858-.1-1.677-.053-3.34-.232-5.029-.2-.587.013-1.174-.082-1.76-.127-.575-.114-1.195.021-1.76-.147a16.475,16.475,0,0,1-3.914-.024,7.521,7.521,0,0,0-1.4-.027,11.625,11.625,0,0,1-3.871-.507,41.735,41.735,0,0,1,4.86.187c1.575.093,3.158.132,4.737.194.764.143,1.576-.054,2.334.133h0a4.354,4.354,0,0,1,.742-.04c1.723.2,3.48.041,5.209.177a7.126,7.126,0,0,0,1.895-.239,8.318,8.318,0,0,0-1.844-.122c-1.667-.157-3.342-.271-5.018-.384-2.388-.16-4.779-.3-7.153-.548a39.372,39.372,0,0,0-6.05-.341c-.965.048-1.935-.044-2.9-.052a28.536,28.536,0,0,0-4.873.139,9.612,9.612,0,0,1-2.8.073c-.767-.1-1.537-.172-2.312-.222a21.076,21.076,0,0,0-5.692.063,2.874,2.874,0,0,1-.748.028c-2.639-.175-5.277-.348-7.927-.446q-3.369-.124-6.745-.124c-.83,0-1.587.277-2.407.29-1.191.02-2.374-.049-3.56-.058a26.1,26.1,0,0,0-4.87.164c-1.129.2-2.289.141-3.435.391a11.809,11.809,0,0,1-2.233.027c-1.879.015-3.739-.148-5.61-.2-2.059-.062-4.121-.1-6.181-.152a42.207,42.207,0,0,0-5.722.274c-1.585.175-3.163.388-4.759.5-3.284.224-6.579.309-9.851.666a51.883,51.883,0,0,1-5.9.459c-1.663-.009-3.317.116-4.974.249-1.532.123-3.056.3-4.586.409-6.128.448-12.269.672-18.4,1.01a9.564,9.564,0,0,0-2.2.249h0l-2.988.194c-1.846.111-3.7.178-5.535.341-2.869.254-5.724.618-8.6.86-4.339.365-8.664.849-13.011,1.143a46.925,46.925,0,0,0-4.845.545,9.118,9.118,0,0,1-1.949.224,30.578,30.578,0,0,0-4.214.214c-3.149.3-6.3.555-9.452.857-1.65.159-3.293.378-4.938.576-1.8.216-3.592.489-5.4.647-2.9.253-5.813.41-8.7.787A12.448,12.448,0,0,1,69.424,84c-1.157.028-2.307.007-3.47.126-2.368.241-4.718.568-7.065.9a21.535,21.535,0,0,0-5.537,1.09,1.769,1.769,0,0,1-.272.058,27.573,27.573,0,0,1-3.859.659c-1.742.159-3.351.8-5.122.912a23.286,23.286,0,0,0-3.786.571,20.654,20.654,0,0,1-4.913.561,24.225,24.225,0,0,0-4.355.577c-1.051.18-2.076.528-3.14.75-2.3.479-4.579,1.049-6.881,1.534A12.8,12.8,0,0,0,16.453,93.4a2.9,2.9,0,0,1-1.22.371c-1.426.195-2.774.634-4.191.85-.225.034-.5.089-.565.233-.2.431-.722.526-1.147.7-1.283.52-2.418,1.24-3.774,1.665-.366.114-.374.3-.066.486a1.915,1.915,0,0,0,1.566.242c.769-.211,1.564-.364,2.332-.576.442-.122.713-.05.9.261-.187.24-.531.264-.806.359a12.858,12.858,0,0,0-1.526.573c-.126.063-.282.148-.249.285.038.162.228.2.414.226A2.643,2.643,0,0,0,9.38,98.82a7.241,7.241,0,0,1,1.711-.6c1.247-.131,2.462-.392,3.7-.535a2.466,2.466,0,0,0,.979-.223,3.11,3.11,0,0,0,.594-.138c.022-.009.047-.008.069-.015a4.288,4.288,0,0,1-.652.163c-.2.165-.589.1-.731.348a3.589,3.589,0,0,1-1.108.388c-.852.168-1.694.369-2.544.541a1,1,0,0,0-.638.281,1.356,1.356,0,0,1-1.013.45,5.014,5.014,0,0,0-.791.234c-.17.055-.382.1-.359.285.02.164.2.26.378.274a5.22,5.22,0,0,0,1.666.021A21.151,21.151,0,0,1,13.2,99.8c.226-.025.514-.075.566-.223.186-.54.781-.554,1.3-.678,1.92-.457,3.783-1.055,5.716-1.485.81-.18,1.745-.159,2.34-.772.077-.08.283-.1.434-.122a14.277,14.277,0,0,0,3.322-.768,2.706,2.706,0,0,1,.812-.173,28.3,28.3,0,0,0,3.953-.657c1.169-.281,2.364-.494,3.549-.732a3.813,3.813,0,0,0,1.813-.519c.549-.488,1.171.069,1.772-.214a7.31,7.31,0,0,1,1.888-.429c.853-.136,1.652-.409,2.49-.573.5-.1,1.067.035,1.484-.342.123-.112.359-.047.54-.019a1.969,1.969,0,0,0,.65,0c.95-.165,1.9-.334,2.851-.482,1.293-.2,2.549-.54,3.855-.684a38.916,38.916,0,0,0,4.507-.757,7.933,7.933,0,0,1,2.117-.315,11.5,11.5,0,0,0,2.493-.251,5.782,5.782,0,0,1,2.725-.2A2.422,2.422,0,0,0,65.4,89.33c3.11-.632,6.27-1.015,9.44-1.359a26.79,26.79,0,0,0,3.073-.337c.991-.229,1.968-.483,2.987-.632,2.612-.381,5.111-1.256,7.819-1.23a2.37,2.37,0,0,0,.459-.078,50.928,50.928,0,0,1,8.558-.969,3.12,3.12,0,0,1,.931.011,3.006,3.006,0,0,0,1.3-.006,58.31,58.31,0,0,1,8.327-.657,77.475,77.475,0,0,0,8.7-.716c3.288-.408,6.57-.829,9.893-.935l.195-.01a.754.754,0,0,1,.572-.144,2.982,2.982,0,0,0,1.451-.02,5.577,5.577,0,0,1,1.565-.159,4.84,4.84,0,0,0,2.52-.237.946.946,0,0,1,.456-.04,6.384,6.384,0,0,0,2.244-.308c1.845-.112,3.69-.2,5.531-.376s3.656-.442,5.516-.475c2.94-.051,5.882-.074,8.823-.238.907-.05,1.814-.112,2.722-.143,2.251-.076,4.52-.085,6.751-.266,2.982-.243,5.942-.212,8.91-.225,1.821-.008,3.635-.071,5.442-.237a40.132,40.132,0,0,1,6.071-.468,1.224,1.224,0,0,0,.371-.043,8.349,8.349,0,0,1,1.953-.2,7.871,7.871,0,0,0,2.041-.232c.2-.059.484-.148.632-.032.418.33.839.143,1.295.064a11.923,11.923,0,0,1,1.569-.245c2.193-.089,4.362-.37,6.539-.611,4.39-.484,8.808-.674,13.218-.939,3.319-.2,6.635-.117,9.952-.177.786-.015,1.573.022,2.358.035l.006.142c-1.093-.054-2.106.363-3.218.267a28.564,28.564,0,0,0-5.335.038,6.7,6.7,0,0,1-1.868.055,6.144,6.144,0,0,0-2.256.057,6.98,6.98,0,0,1-1.482.154c-2.6-.07-5.191.338-7.792.333a1.107,1.107,0,0,0-.952.338,4.466,4.466,0,0,0,1.5.072c.967-.1,1.939-.147,2.909-.155,5.228-.046,10.455-.429,15.683-.358,2.312.032,4.632-.049,6.944-.024,1.065.012,2.129-.055,3.191-.02a38.4,38.4,0,0,0,4.029.018,8.325,8.325,0,0,1,1.22-.04c3.517.259,7.063-.019,10.584.116,1.032.039,2.089-.129,3.081.008,2.1.289,4.236-.139,6.344.141,1.11.147,2.3.055,3.431.178a12.587,12.587,0,0,0,1.961.042h0c.571-.146,1.21.04,1.749-.253-.446-.214-1.041.03-1.658-.29,1.467-.279,2.735.078,4.009-.01a32.837,32.837,0,0,1,3.921.1c1.3.064,2.6.151,3.892.228h0a5.43,5.43,0,0,1,1.343.2h0a1.063,1.063,0,0,1,.947.077,2.426,2.426,0,0,1,.949-.013.807.807,0,0,1,.554-.053h0l1.33.065c.379.005.784-.158,1.127.077l.014,0a3.25,3.25,0,0,1,1.3.035,6.83,6.83,0,0,0,1.5.1,8.993,8.993,0,0,1,2.144-.01c.764.1,1.538.175,2.313.2,1.333.044,2.651.183,3.986.229,1.054.036,2.1.143,3.164.075.166-.011.385.036.479-.2A13.252,13.252,0,0,0,295.118,78.476ZM258.837,74.71c.01,0,.048.061.071.092-.063.1-.152.058-.234.036a.3.3,0,0,1-.073-.042A2.463,2.463,0,0,1,258.837,74.71ZM81.2,84.349c.105-.042.155.016.2.074-.035.033-.08.1-.1.093a1.422,1.422,0,0,1-.236-.079A.871.871,0,0,1,81.2,84.349Zm31-1.836h0a.444.444,0,0,1,.381.128C112.456,82.6,112.17,82.814,112.2,82.513Zm46.915-4.091a11.207,11.207,0,0,1-2.5-.006c-.366-.092-.614.176-.975.179-.76.007-1.522.124-2.283.139-.366.007-.428.322-.793.322a11.518,11.518,0,0,1-3.059-.007c-.141-.038-.324-.139-.435-.047-.5.416-1.105.173-1.659.247-1.287.173-2.582.153-3.872.245-.944.067-1.891.093-2.834.211-.9.113-1.809.2-2.711.327a17.442,17.442,0,0,0-1.98.307c.006.054.01.109.015.162.091.026.2.038.179.145l-.348.006-.448-.131c-.32-.244-.553.153-.89.086a3.386,3.386,0,0,0-.909.072h0a1.982,1.982,0,0,1-1.151.162c-.356-.018-.745-.1-.841.44-.126-.318-.053-.438.112-.534-.317-.254-.734-.1-1.045-.041-.423.079-.846.12-1.269.171-.364.044-.812-.07-.934.376-.017.062-.332.084-.508.124h0c-.177-.1-.3-.223-.253-.407-1.109.049-2.21.236-3.324.2-.463.356-1.173-.08-1.631.33-.082.073-.235.013-.347-.031-.14-.055-.342-.124-.437-.045-.563.471-1.314.286-1.97.364a5.172,5.172,0,0,1-2.034.042c-.27-.075-.544.095-.8.158-.675.168-1.337-.044-2,.082a.806.806,0,0,0-.772-.243c-.935.067-1.873.1-2.809.14l-.552.048c.013.142.039.3-.226.322-.216.019-.435,0-.651.019a7.822,7.822,0,0,0-2.1.2,4.55,4.55,0,0,1-1.452.312c-.839.043-1.678.066-2.517.1h0a12.934,12.934,0,0,0-2.325-.156c-.965.064-1.932.119-2.9.178-.155.01-.373-.022-.452.043-.562.466-1.349.286-2.011.421-.461.094-.965.12-1.459.207-.614.107-1.239.24-1.858.349-1.28.226-2.58.315-3.863.5-.78.114-1.556.248-2.323.408a44.431,44.431,0,0,1-4.51.368c-1.7.176-3.426.233-5.114.47-1.235.173-2.48.349-3.695.642a4.075,4.075,0,0,1-1.886.074,6.031,6.031,0,0,0-2.8.2c-1.261.322-2.587.44-3.823.827a1.323,1.323,0,0,1-.642.079c-1.13-.3-2.167.265-3.263.257a2.156,2.156,0,0,1-.543.022c-.6-.144-.6-.255-.256-.676a1.222,1.222,0,0,1,1.154-.441c.748.055,1.467-.172,2.208-.169h0c.137-.228.381-.152.6-.135.007-.106.076-.164.22-.161a.779.779,0,0,1,.108,0l.387.084.1-.192c.454.23.78-.236,1.267-.145a5.918,5.918,0,0,0,1.383-.081c.5-.034.993-.06,1.489-.1a2.49,2.49,0,0,0,1-.16h0l.622-.061a1.094,1.094,0,0,1,.715-.355.418.418,0,0,1,.391-.119c1.2-.066,2.377-.368,3.595-.366a3.956,3.956,0,0,1,.82.056,8.019,8.019,0,0,0,2.671.193,11.725,11.725,0,0,0,2.386-.436c.307-.11.22-.248.215-.4-.088.043-.17.041-.21-.035-.01-.019.047-.078.086-.09.1-.027.169,0,.178.085a21.139,21.139,0,0,0,4.938-.706,16.317,16.317,0,0,1,3.677-.393,16.319,16.319,0,0,0,3.168-.432,8.438,8.438,0,0,1,2.58-.125,4.242,4.242,0,0,0,1.3-.07,49.337,49.337,0,0,1,5.225-.419c1.019-.069,2.043-.088,3.059-.174,2.349-.2,4.691-.479,7.042-.62,2.76-.167,5.471-.647,8.235-.8,2.419-.137,4.816-.54,7.247-.68.892-.051,1.8-.2,2.7-.214.476-.006.771-.288,1.2-.314.122.339.482.229.767.2.929-.09,1.854-.209,2.782-.3,2.106-.21,4.218-.363,6.326-.566,1.841-.178,3.707-.173,5.562-.248.067-.041.134-.082.2-.122l0-.016.023.007a2.386,2.386,0,0,1,2.158-.183c.314.085.559.254.919.045a.958.958,0,0,1,.548-.037,8.387,8.387,0,0,0,2.388-.123,6.669,6.669,0,0,1,1.838.134c.147.025.369.121.425.08.492-.361,1.1-.194,1.65-.268a3.389,3.389,0,0,1,2.007.2A.576.576,0,0,1,159.115,78.422ZM181.8,77.99l-.085-.04c.02-.014.039-.038.058-.038s.037.023.056.036Zm1.467-.072s-.037-.024-.055-.038c.019-.014.039-.038.058-.038s.037.024.055.038C183.305,77.894,183.285,77.918,183.266,77.918Zm17.339-.429c-.054.022-.087,0-.078-.057,0-.016.035-.03.053-.045l.05.047C200.622,77.453,200.621,77.482,200.605,77.489Zm27.951-.585A3.947,3.947,0,0,1,227,76.9a1.374,1.374,0,0,1-.644-.107,3.82,3.82,0,0,1,1.22-.079c.435.02.9-.153,1.307.065C228.88,76.982,228.687,76.9,228.556,76.9Zm1.564.086c-.088,0-.252.023-.209-.109.011-.034.145-.068.221-.067a.918.918,0,0,1,.249.084A.913.913,0,0,1,230.12,76.99Zm30.575-.1c.142-.007.305-.046.384.086a.165.165,0,0,1-.173.146c-.152.011-.325.013-.381-.119C260.488,76.915,260.609,76.891,260.7,76.887Zm-4.446.406a5.764,5.764,0,0,1-1.75-.029,11.082,11.082,0,0,1-2.011.083h0l-1.518-.075h0l-.744-.094a1.128,1.128,0,0,1-.759-.051.784.784,0,0,1,.937-.1l.56.12a3.045,3.045,0,0,1,1.51.068,15.877,15.877,0,0,1,2.255-.092l1.515.062a4.622,4.622,0,0,1,1.383.154A2.337,2.337,0,0,1,256.249,77.293Zm6.247.348a32.682,32.682,0,0,1-3.784-.1h0c-.253-.031-.507-.06-.761-.09a3.384,3.384,0,0,1,1.614-.061,12.9,12.9,0,0,1,3.126.115,1.988,1.988,0,0,1,.945.052A2.546,2.546,0,0,1,262.5,77.641Zm11.746-.237a.591.591,0,0,1-.057-.108c0-.01.038-.029.059-.044a.585.585,0,0,1,.06.109C274.307,77.371,274.264,77.389,274.242,77.4Z"/></g></g></g></g></g></svg>