<svg xmlns="http://www.w3.org/2000/svg" width="291.369" height="86.103" viewBox="0 0 291.369 86.103"><defs><style>.cls-1{fill:#fff;}</style></defs><title>contactanos-titulo</title><g id="Layer_2" data-name="Layer 2"><g id="CONTACTO"><g id="MAPA_BACKGROUND" data-name="MAPA BACKGROUND"><g id="CONTÁCTANOS"><g id="CONTÁCTANOS-2" data-name="CONTÁCTANOS"><g id="ACENTO"><path class="cls-1" d="M125.153,9.817a.174.174,0,0,1,.2-.116,2.2,2.2,0,0,1,.393-.046,3.1,3.1,0,0,0,.48-.088c.213-.013.439-.161.373-.2-.106-.113-.253-.059-.373-.037a4.931,4.931,0,0,1-1.491-.15.326.326,0,0,1-.292-.371,1.408,1.408,0,0,1,.149-.771,2.161,2.161,0,0,0,.224-1.395c-.132-.32.1-.656.31-.959A8.41,8.41,0,0,1,126.742,3.9a26.027,26.027,0,0,1,3.4-2.458,15.683,15.683,0,0,1,1.8-1.1,2.255,2.255,0,0,1,.52-.255.837.837,0,0,1,1,.187c.286.319.69.616.542,1.148-.047.115.06.228.139.373-.107.125-.241.283-.041.405a.636.636,0,0,1,.277.745,1.209,1.209,0,0,1-.436.93c-.053.062-.167.136-.22.2-.307.243-.307.243-.028.51a.229.229,0,0,1-.021.322l-.054.064c-.346.169-.361.544-.741.693l-.96.416c-.141.105-.22.2.026.208.093.008.1.061.073.092a.7.7,0,0,1-.253.179q-.992.542-1.881,1.143a4.045,4.045,0,0,1-1.348.752.975.975,0,0,0-.5.41,3.605,3.605,0,0,1-.688.631,1.885,1.885,0,0,1-1.712.528l-.38-.09C125.166,9.921,125.1,9.88,125.153,9.817Z"/></g><path id="SUBRAYADO" class="cls-1" d="M289.849,64.223a23.916,23.916,0,0,1-4.156-.358c-.914-.087-1.826-.176-2.739-.26-.177-.016-.357-.012-.464-.14l-.02,0-.01,0-.008-.008-.009,0a.693.693,0,0,1,.072.026l-.03,0a.522.522,0,0,0-.056-.018,1.712,1.712,0,0,1-.695.029.438.438,0,0,1-.088.015c-.25-.009-.527.131-.741-.058-.021-.018,0-.1.036-.115a1.074,1.074,0,0,1,.764.043c.26-.019.551-.174.747.078l.022-.01h0c0,.006.011.009.015.014a7.961,7.961,0,0,1,3.206.258c.829-.158,1.7.2,2.737-.163-.5-.093-.79-.16-1.085-.2a51.29,51.29,0,0,0-6.325-.349c-3-.013-5.981-.168-8.967-.3-2.766-.127-5.52-.356-8.3-.389a54.84,54.84,0,0,1-7.419-.415h0c-1.881.043-3.748-.062-5.615-.17a27.7,27.7,0,0,1-3.786-.25c.593-.328,1.074-.053,1.554-.056a14.985,14.985,0,0,1,1.682.017c.52.054,1.059.005,1.574.1a20.439,20.439,0,0,1,5,.184,15.4,15.4,0,0,1,3.164.087c1.452.124,2.9.262,4.376.245a2.625,2.625,0,0,1,.451.071h0c1.06-.075,2.12-.165,3.185-.134,2.3.067,4.575.346,6.886.339.685,0,1.368.051,2.051.092,1.673.1,3.321.3,5.025.258a25.416,25.416,0,0,1,4.55.278,3.075,3.075,0,0,0,1.634-.1c-.043-.076-.146-.169-.116-.223.046-.085.19-.069.3-.034.367-.079.79.048,1.112-.2-1.044-.124-2.122-.053-3.155-.164-1.876-.2-3.773-.231-5.649-.406a1.242,1.242,0,0,1-.822-.05,7.708,7.708,0,0,1-1.32-.128h0l-.574.032-.372.019a1.434,1.434,0,0,1-.807-.049c-1.63.109-3.241-.045-4.858-.1-1.677-.053-3.34-.232-5.03-.2-.586.013-1.173-.082-1.76-.127-.574-.114-1.195.022-1.759-.147a16.475,16.475,0,0,1-3.914-.024,7.523,7.523,0,0,0-1.4-.026,11.606,11.606,0,0,1-3.872-.508,41.948,41.948,0,0,1,4.86.187c1.575.094,3.158.132,4.737.194.765.143,1.576-.054,2.335.134h0a4.251,4.251,0,0,1,.742-.041c1.722.2,3.48.042,5.208.177a7.121,7.121,0,0,0,1.9-.239,8.365,8.365,0,0,0-1.843-.122c-1.667-.156-3.343-.271-5.018-.383-2.388-.161-4.779-.3-7.153-.549a39.261,39.261,0,0,0-6.05-.34c-.965.048-1.935-.045-2.9-.053a28.642,28.642,0,0,0-4.873.139,9.6,9.6,0,0,1-2.8.073c-.768-.1-1.537-.172-2.312-.222a21.117,21.117,0,0,0-5.692.063,2.882,2.882,0,0,1-.749.028c-2.638-.175-5.276-.348-7.926-.446q-3.37-.123-6.746-.124c-.829,0-1.587.277-2.407.291-1.19.019-2.373-.049-3.56-.059a26.01,26.01,0,0,0-4.87.165c-1.129.2-2.289.14-3.434.39a11.81,11.81,0,0,1-2.233.027c-1.88.015-3.74-.148-5.611-.2-2.059-.061-4.12-.1-6.181-.151a41.871,41.871,0,0,0-5.721.274c-1.586.174-3.164.387-4.76.5-3.284.225-6.579.309-9.851.666a51.865,51.865,0,0,1-5.9.459c-1.662-.009-3.316.116-4.974.249-1.531.123-3.055.3-4.586.41-6.128.447-12.269.672-18.4,1.009a9.57,9.57,0,0,0-2.2.249h0l-2.988.2c-1.845.11-3.695.178-5.535.34-2.869.254-5.724.618-8.6.86-4.338.366-8.663.849-13.01,1.144a46.7,46.7,0,0,0-4.846.544,9.12,9.12,0,0,1-1.949.225,30.276,30.276,0,0,0-4.214.214c-3.149.3-6.3.554-9.451.857-1.65.158-3.293.377-4.938.575-1.8.216-3.593.49-5.4.647-2.9.253-5.813.411-8.7.788a13.029,13.029,0,0,1-1.313.065c-1.157.027-2.307.006-3.47.125-2.367.241-4.718.569-7.065.9a21.552,21.552,0,0,0-5.537,1.09,1.744,1.744,0,0,1-.272.058,27.548,27.548,0,0,1-3.859.659c-1.742.159-3.35.8-5.121.912a23.27,23.27,0,0,0-3.786.571,20.715,20.715,0,0,1-4.914.562,24.248,24.248,0,0,0-4.355.576c-1.05.18-2.076.529-3.14.75-2.3.479-4.578,1.049-6.881,1.535a12.793,12.793,0,0,0-4.57,1.66,2.909,2.909,0,0,1-1.22.371c-1.427.195-2.774.635-4.191.85-.225.035-.5.089-.566.233-.2.431-.722.526-1.146.7C2.777,81.82,1.642,82.54.287,82.965c-.366.114-.375.3-.067.486a1.915,1.915,0,0,0,1.566.242c.769-.211,1.564-.363,2.333-.576.441-.122.713-.05.9.261-.187.24-.531.265-.806.359a12.924,12.924,0,0,0-1.526.573c-.126.063-.281.148-.249.285.038.163.229.2.415.226a2.642,2.642,0,0,0,1.258-.253,7.184,7.184,0,0,1,1.711-.6c1.247-.13,2.461-.392,3.7-.535a2.439,2.439,0,0,0,.978-.222,3.094,3.094,0,0,0,.594-.139c.022-.009.047-.008.069-.015a4.145,4.145,0,0,1-.652.163c-.2.165-.589.1-.731.349a3.6,3.6,0,0,1-1.108.387c-.852.168-1.693.37-2.544.542a1,1,0,0,0-.637.28,1.352,1.352,0,0,1-1.013.45,5.026,5.026,0,0,0-.792.234c-.169.055-.381.1-.359.285.02.164.2.26.378.274a5.2,5.2,0,0,0,1.667.021,21.135,21.135,0,0,1,2.559-.491c.226-.024.515-.074.566-.223.187-.539.782-.554,1.3-.678,1.92-.457,3.783-1.054,5.717-1.485.81-.18,1.745-.159,2.34-.772a.95.95,0,0,1,.433-.122,14.265,14.265,0,0,0,3.322-.768,2.706,2.706,0,0,1,.812-.173,28.3,28.3,0,0,0,3.953-.657c1.169-.281,2.364-.494,3.549-.732a3.809,3.809,0,0,0,1.813-.519c.549-.487,1.172.069,1.772-.214a7.359,7.359,0,0,1,1.889-.429c.852-.136,1.651-.409,2.489-.573.5-.1,1.068.035,1.484-.342.123-.111.359-.047.54-.019a1.975,1.975,0,0,0,.651,0c.95-.165,1.9-.334,2.851-.482,1.292-.2,2.548-.54,3.855-.684a38.936,38.936,0,0,0,4.506-.757A7.986,7.986,0,0,1,53.9,75.6a11.43,11.43,0,0,0,2.492-.251,5.785,5.785,0,0,1,2.726-.2,2.435,2.435,0,0,0,1.017-.08c3.11-.631,6.271-1.015,9.44-1.359a26.783,26.783,0,0,0,3.074-.337c.991-.228,1.967-.483,2.987-.632,2.612-.381,5.11-1.256,7.819-1.23a2.308,2.308,0,0,0,.459-.078,50.916,50.916,0,0,1,8.557-.969,3.126,3.126,0,0,1,.932.012,3,3,0,0,0,1.3-.007,58.321,58.321,0,0,1,8.327-.657,77.221,77.221,0,0,0,8.7-.716c3.289-.407,6.57-.829,9.894-.935l.194-.01a.755.755,0,0,1,.572-.144,2.974,2.974,0,0,0,1.452-.02,5.607,5.607,0,0,1,1.565-.159,4.84,4.84,0,0,0,2.52-.237.946.946,0,0,1,.456-.04,6.384,6.384,0,0,0,2.244-.308c1.844-.112,3.689-.2,5.53-.375s3.657-.443,5.516-.475c2.94-.052,5.883-.074,8.824-.238.907-.051,1.813-.113,2.721-.144,2.252-.076,4.52-.085,6.751-.266,2.982-.243,5.943-.212,8.911-.225,1.82-.007,3.634-.071,5.441-.237a40.142,40.142,0,0,1,6.071-.468,1.252,1.252,0,0,0,.371-.042,8.35,8.35,0,0,1,1.953-.2,7.866,7.866,0,0,0,2.041-.232c.2-.059.485-.148.632-.031.419.33.84.142,1.3.063a11.949,11.949,0,0,1,1.569-.245c2.194-.089,4.363-.37,6.539-.61,4.39-.485,8.808-.675,13.219-.94,3.319-.2,6.634-.117,9.952-.177.786-.014,1.572.022,2.358.035l0,.142c-1.092-.054-2.106.363-3.218.267a28.554,28.554,0,0,0-5.334.038,6.667,6.667,0,0,1-1.869.055,6.144,6.144,0,0,0-2.256.058,7.112,7.112,0,0,1-1.482.154c-2.6-.071-5.19.337-7.792.332a1.105,1.105,0,0,0-.951.338,4.467,4.467,0,0,0,1.5.073c.967-.1,1.939-.148,2.909-.156,5.227-.046,10.454-.428,15.683-.357,2.312.031,4.631-.05,6.944-.025,1.064.012,2.128-.055,3.191-.02a38.4,38.4,0,0,0,4.029.018,8.462,8.462,0,0,1,1.22-.04c3.516.259,7.062-.019,10.583.116,1.033.039,2.089-.128,3.082.008,2.1.29,4.236-.139,6.343.141,1.11.147,2.3.056,3.431.178a12.475,12.475,0,0,0,1.962.042h0c.57-.145,1.21.041,1.749-.252-.447-.215-1.041.029-1.658-.29,1.467-.28,2.735.077,4.008-.011a33.065,33.065,0,0,1,3.922.1c1.3.064,2.6.151,3.892.228h0a5.469,5.469,0,0,1,1.342.2h0a1.068,1.068,0,0,1,.948.077,2.445,2.445,0,0,1,.949-.013.81.81,0,0,1,.553-.053h0l1.331.065c.379,0,.783-.158,1.126.078l.014,0a3.236,3.236,0,0,1,1.305.036,6.888,6.888,0,0,0,1.5.095,8.993,8.993,0,0,1,2.144-.01c.764.1,1.537.175,2.313.2,1.332.044,2.65.183,3.986.229,1.053.036,2.1.143,3.164.075.166-.01.384.036.478-.2A13.258,13.258,0,0,0,289.849,64.223Zm-36.282-3.765c.011,0,.048.06.071.091-.063.1-.151.059-.234.036a.31.31,0,0,1-.073-.041A2.088,2.088,0,0,1,253.567,60.458ZM75.931,70.1c.105-.042.156.016.2.074-.034.033-.08.1-.1.093a1.392,1.392,0,0,1-.236-.079A.819.819,0,0,1,75.931,70.1Zm31-1.836h0a.443.443,0,0,1,.38.128C107.186,68.342,106.9,68.561,106.931,68.26Zm46.914-4.091a11.2,11.2,0,0,1-2.5-.006c-.367-.092-.615.177-.976.18-.759.006-1.522.124-2.282.138-.367.007-.428.322-.793.322a11.476,11.476,0,0,1-3.059-.007c-.141-.038-.325-.139-.435-.047-.5.416-1.106.173-1.66.247-1.287.174-2.582.153-3.871.245-.945.068-1.891.093-2.834.211-.9.113-1.809.2-2.711.328a17.37,17.37,0,0,0-1.98.306l.015.163c.091.025.2.037.179.144l-.348.006-.449-.131c-.32-.243-.553.153-.89.086a3.376,3.376,0,0,0-.908.072h0a1.983,1.983,0,0,1-1.151.162c-.357-.018-.746-.1-.842.44-.126-.318-.052-.438.112-.534-.317-.254-.733-.1-1.044-.041-.424.079-.846.12-1.27.171-.363.044-.811-.07-.934.376-.017.062-.331.084-.508.124h0c-.176-.1-.3-.223-.253-.407-1.109.05-2.209.236-3.323.2-.464.356-1.174-.079-1.632.33-.081.073-.235.013-.347-.031-.139-.054-.341-.124-.437-.044-.562.47-1.314.285-1.969.364a5.172,5.172,0,0,1-2.034.041c-.271-.075-.544.095-.8.158-.676.168-1.338-.043-2,.082a.806.806,0,0,0-.772-.243c-.934.067-1.872.1-2.809.14l-.551.048c.012.142.038.3-.227.322-.215.019-.434,0-.65.019a7.824,7.824,0,0,0-2.1.2,4.543,4.543,0,0,1-1.452.311c-.838.043-1.677.066-2.516.1h0a12.922,12.922,0,0,0-2.324-.156c-.966.064-1.932.119-2.9.179-.154.009-.373-.022-.451.042-.563.466-1.35.286-2.012.421-.461.095-.964.121-1.458.207-.615.107-1.24.24-1.859.349-1.28.226-2.58.315-3.863.5-.779.115-1.555.248-2.323.408a44.145,44.145,0,0,1-4.51.368c-1.7.176-3.425.234-5.114.47-1.234.173-2.48.349-3.7.642a4.07,4.07,0,0,1-1.885.074,6.016,6.016,0,0,0-2.8.2c-1.262.322-2.587.439-3.824.827a1.332,1.332,0,0,1-.641.078c-1.131-.3-2.167.265-3.264.258a2.151,2.151,0,0,1-.542.021c-.6-.143-.6-.255-.257-.676a1.229,1.229,0,0,1,1.155-.441c.748.055,1.467-.172,2.208-.169h0c.137-.228.381-.153.6-.136.008-.106.077-.164.22-.16a.661.661,0,0,1,.109,0l.387.084.1-.191c.454.23.781-.237,1.267-.146a5.918,5.918,0,0,0,1.383-.081c.5-.034.994-.059,1.489-.1a2.507,2.507,0,0,0,1-.159h0l.623-.061a1.09,1.09,0,0,1,.715-.355.414.414,0,0,1,.39-.12c1.206-.066,2.378-.368,3.595-.366a4.036,4.036,0,0,1,.821.056,8.017,8.017,0,0,0,2.671.193,11.817,11.817,0,0,0,2.386-.435c.307-.111.22-.248.215-.4-.089.043-.171.041-.211-.035-.01-.018.047-.077.087-.089.095-.028.168,0,.177.084a21.131,21.131,0,0,0,4.938-.705,16.26,16.26,0,0,1,3.677-.394,16.317,16.317,0,0,0,3.168-.431,8.439,8.439,0,0,1,2.58-.126,4.24,4.24,0,0,0,1.3-.069,49.1,49.1,0,0,1,5.225-.42c1.019-.069,2.043-.088,3.059-.173,2.349-.2,4.692-.479,7.043-.621,2.76-.166,5.47-.647,8.235-.8,2.418-.137,4.815-.541,7.247-.681.891-.051,1.8-.2,2.7-.213.476-.007.77-.289,1.2-.315.122.339.482.23.768.2.928-.09,1.853-.208,2.781-.3,2.106-.21,4.219-.363,6.326-.566,1.842-.178,3.707-.172,5.563-.248.066-.041.134-.082.2-.121l0-.017.023.007a2.385,2.385,0,0,1,2.158-.183c.313.085.558.254.918.045a.959.959,0,0,1,.548-.037,8.387,8.387,0,0,0,2.388-.123,6.666,6.666,0,0,1,1.838.134c.147.025.37.121.425.08.492-.361,1.1-.194,1.651-.267a3.381,3.381,0,0,1,2.007.2A.578.578,0,0,1,153.845,64.169Zm22.684-.432-.085-.04c.02-.013.039-.038.058-.038s.038.024.057.037ZM178,63.665s-.037-.024-.055-.038c.02-.014.04-.038.059-.038s.036.024.055.038C178.035,63.641,178.015,63.666,178,63.665Zm17.339-.429c-.053.023-.087,0-.078-.057,0-.016.035-.03.054-.045l.049.047C195.353,63.2,195.352,63.229,195.335,63.236Zm27.951-.584a3.96,3.96,0,0,1-1.557-.009,1.37,1.37,0,0,1-.644-.107,3.847,3.847,0,0,1,1.22-.079c.435.02.895-.153,1.306.065C223.611,62.729,223.417,62.643,223.286,62.652Zm1.565.086c-.088,0-.252.022-.21-.109.011-.035.145-.069.221-.068a.931.931,0,0,1,.249.084A.96.96,0,0,1,224.851,62.738Zm30.575-.1c.142-.007.305-.045.383.086a.164.164,0,0,1-.173.146c-.152.011-.324.014-.381-.119C255.219,62.662,255.34,62.638,255.426,62.634Zm-4.447.406a5.694,5.694,0,0,1-1.749-.029,11,11,0,0,1-2.011.083h0l-1.519-.075h0l-.743-.094a1.129,1.129,0,0,1-.759-.052.783.783,0,0,1,.937-.105l.559.12a3.049,3.049,0,0,1,1.511.068,16.018,16.018,0,0,1,2.254-.092l1.515.062a4.625,4.625,0,0,1,1.384.154A2.332,2.332,0,0,1,250.979,63.04Zm6.248.348a32.471,32.471,0,0,1-3.785-.1h0l-.761-.09a3.379,3.379,0,0,1,1.613-.061,12.96,12.96,0,0,1,3.127.115,1.989,1.989,0,0,1,.945.052A2.531,2.531,0,0,1,257.227,63.388Zm11.746-.237a.6.6,0,0,1-.058-.108c0-.01.039-.029.06-.044a.579.579,0,0,1,.059.109C269.037,63.118,268.994,63.137,268.973,63.151Z"/></g></g></g></g></g></svg>