<svg xmlns="http://www.w3.org/2000/svg" width="68.856" height="12.509" viewBox="0 0 68.856 12.509"><defs><style>.cls-1{fill:#fff;}</style></defs><title>flecha-back</title><g id="Layer_2" data-name="Layer 2"><g id="MENU"><g id="FLECHA"><path class="cls-1" d="M.2,7.551a.448.448,0,0,1,.179.113,1.159,1.159,0,0,0,.387.227.856.856,0,0,1,.323.252.4.4,0,0,0,.422.179c.088-.02.136.047.182.074.439.255.868.526,1.3.8a.842.842,0,0,1,.388.344c.017.038.06.051.1.066A2,2,0,0,1,4,9.982c.105.1.227.164.333.255a.207.207,0,0,0,.124.056.7.7,0,0,1,.6.226,2.935,2.935,0,0,0,.479.275,3.609,3.609,0,0,1,.676.439,1.118,1.118,0,0,0,.44.2.127.127,0,0,0,.1,0c.139-.1.2,0,.283.092a.7.7,0,0,0,.175.125,8.119,8.119,0,0,0,.893.54,2.53,2.53,0,0,0,.644.232.787.787,0,0,1,.13.042c.182.07.182.07.3-.107a.56.56,0,0,0,.049.057c.092.085.17.086.219-.022a.192.192,0,0,1,.171-.124.165.165,0,0,0,.126-.241,3.961,3.961,0,0,1-.1-.438.093.093,0,0,1,0-.059c.083-.2-.02-.383-.04-.575a3,3,0,0,1,.008-.544,1.234,1.234,0,0,0-.056-.483,1.05,1.05,0,0,1-.082-.567c0-.011-.006-.025-.008-.038-.075-.45-.105-.906-.216-1.349A2.129,2.129,0,0,1,9.2,7.6L9.2,7.593s0,.008,0-.008h0a.3.3,0,0,1-.031-.205c.075.011.037.077.069.1l.008,0c.037-.017.038-.056.049-.089h0A1.086,1.086,0,0,0,9.122,6.8.111.111,0,0,1,9.1,6.751a8,8,0,0,1-.129-.842.226.226,0,0,0-.076-.192c-.029-.026-.059-.013-.083.016l0,.082c0,.025.007.063-.016.065s-.027-.036-.027-.062c-.027-.043-.066-.086,0-.129.039-.026-.095-.121.043-.107a.061.061,0,0,0,.05-.048,4.507,4.507,0,0,1-.1-.541,1.467,1.467,0,0,0-.06-.421c0-.012-.01-.03,0-.038.127-.165.013-.321-.015-.48-.006-.032-.006-.064-.013-.1-.021-.1.015-.137.116-.156.238-.045.478-.078.712-.146a.94.94,0,0,1,.354.01.589.589,0,0,0,.467-.088c.082-.065.1-.107.039-.184-.031-.043-.059-.087-.091-.134.007-.029.036-.04.062-.059.1-.072.089-.144-.022-.2A.521.521,0,0,1,10,2.666c-.019-.049,0-.074.037-.1s.054-.056.027-.1a.077.077,0,0,0-.1-.031.416.416,0,0,1-.213,0,.489.489,0,0,1-.073-.026c-.048-.019.067-.094-.028-.091-.043,0-.084.039-.128.048S9.4,2.424,9.4,2.313c0-.028-.035-.042-.075-.043a.593.593,0,0,0-.39.069.684.684,0,0,1-.486.026,1.245,1.245,0,0,1,.068-.4,4.823,4.823,0,0,0,.095-.887A.939.939,0,0,1,8.673.761.059.059,0,0,0,8.657.689C8.626.664,8.6.677,8.576.71s-.054.075-.081.112h0L8.46.983c0,.036-.019.069-.05.062S8.388,1,8.4.969A.139.139,0,0,1,8.415.938h0L8.42.751A.246.246,0,0,1,8.444.545a.416.416,0,0,0,0-.369c-.025-.053,0-.114,0-.176-.114.02-.11.112-.109.171a1.888,1.888,0,0,1-.07.6c0,.013-.014.027-.01.038.057.173-.061.3-.108.453h0a1.111,1.111,0,0,0-.025.248c.012.1-.039.114-.115.125a1.446,1.446,0,0,1,.064-.371A.545.545,0,0,1,8.053.769C8.065.746,8.079.705,8.059.7,7.988.672,7.988.6,7.945.553s.09-.092-.017-.12a.025.025,0,0,1,0-.045c.1-.031.032-.064.007-.1s.1-.036.033-.1h0C7.916.2,7.9.069,7.829.158L7.747.469c.031.188-.079.383.031.567a.021.021,0,0,1,0,.019c-.016.03.018.085-.043.092s-.067-.029-.07-.072A1.419,1.419,0,0,1,7.639.784C7.478.7,7.4.727,7.41.888a3.541,3.541,0,0,1-.219.9,2.291,2.291,0,0,0-.064.505c0,.106.107.193.088.311,0,.012.008.025.009.038.032.252,0,.294-.261.35a.192.192,0,0,0-.089.037,3.594,3.594,0,0,1-.927.537c-.03.014-.07.019-.089.041a1.6,1.6,0,0,1-.518.337.765.765,0,0,0-.2.126,2.455,2.455,0,0,1-.595.4,5.309,5.309,0,0,0-.507.291c-.095.073-.271.09-.279.263,0,0-.007.012-.013.014a1,1,0,0,0-.337.25c-.086.074-.23.077-.264.215-.089-.039-.174.082-.263.006a.076.076,0,0,0-.089-.021.921.921,0,0,1-.483.066c-.08,0-.14.033-.112.116s-.021.119-.082.148c-.076.038-.156.066-.155.178,0,.057-.072.06-.109.066a1.171,1.171,0,0,0-.572.293.379.379,0,0,1-.31.084C.9,6.435.838,6.412.786,6.5c-.023.038-.106.048-.163.056C.548,6.567.5,6.587.5,6.676c0,.048-.036.062-.074.078-.079.033-.157.069-.234.106-.1.046-.189.1-.135.233.014.035-.014.061-.026.091A.243.243,0,0,0,.2,7.551ZM9.656,2.782c.026-.064.067-.076.133-.082A.127.127,0,0,1,9.656,2.782ZM8.444,1.394a.032.032,0,0,1-.018-.043c0-.007.014-.011.02-.016a.032.032,0,0,1,.01.047C8.453,1.387,8.446,1.4,8.444,1.394ZM1.878,7.183A1.293,1.293,0,0,0,2.225,7c.07-.039.1-.132.211-.12a.7.7,0,0,0,.408-.125c.247-.138.489-.284.731-.43.055-.033.1-.1.155-.117a.927.927,0,0,0,.453-.329.182.182,0,0,1,.111-.074.743.743,0,0,0,.5-.282,2.629,2.629,0,0,1,.659-.448.084.084,0,0,1,.054-.013c.13.04.207-.033.27-.127.03-.044.064-.037.1-.032.056-.02.023-.111.1-.118h0c.079,0,.128-.063.188-.1a2.085,2.085,0,0,1,.464-.257c.1-.033.2-.064.221-.191,0-.028.041-.075.057-.073.132.017.176-.1.252-.16s.135-.018.2-.021c.049,0,.033.075.042.118.029.128.075.252.1.378.089.422.208.837.277,1.263A5.868,5.868,0,0,1,7.89,7a1.579,1.579,0,0,0,.092.62c.06.167.1.338.144.508a1.2,1.2,0,0,1,.055.649.374.374,0,0,0,.005.176c.044.2.105.394.134.594.04.275.184.517.219.794a.457.457,0,0,1-.135.43,1.107,1.107,0,0,1-.161.105c-.247.171-.315.167-.546-.02-.051-.041-.11-.073-.159-.116-.185-.163-.423-.244-.61-.409-.087-.077-.261-.053-.276-.228,0-.01-.031-.018-.048-.027l-.711-.42c-.03-.018-.05-.077-.095-.037s-.094.016-.139-.013c-.346-.216-.689-.438-1.042-.643a1.671,1.671,0,0,0-.538-.27.531.531,0,0,1-.342-.249.6.6,0,0,0-.287-.213c-.277-.126-.549-.264-.833-.375-.109-.042-.187-.143-.306-.18-.038-.011-.043-.077-.03-.125l-.007-.075A.08.08,0,0,0,2.2,7.422c-.052,0-.1,0-.158,0a1.04,1.04,0,0,1-.137-.01c-.072-.011-.092-.069-.1-.128S1.832,7.193,1.878,7.183Z"/><path class="cls-1" d="M9.993,7.472l.045.032h.125c.044-.047.107-.027.162-.028.2,0,.393,0,.59-.007V7.438h0c-.015-.009-.073-.013-.027-.032a.478.478,0,0,1,.165,0h0c.069,0,.138-.037.208,0h.4c.035.01.034.022,0,.034a.055.055,0,0,0,.085,0,.189.189,0,0,1,.225-.01l.08.012h0c.1-.018.214.017.307-.043h0a.308.308,0,0,1,.27,0h0l0,0h0c-.046.057-.114.034-.177.033l-.084,0c.026.075.128.059.179.1h0l.612,0h0a.66.66,0,0,1,.124-.017,3.487,3.487,0,0,1,.446-.018h0c.026,0,.053-.009.079-.012.22-.029.444-.019.666-.026l0,0h0A7.105,7.105,0,0,1,15.5,7.437l0,0h0a.155.155,0,0,1,.1-.026c.259-.021.52-.009.78-.011.019-.031.035-.024.05,0h0c.249,0,.5-.016.746,0a.841.841,0,0,1,.265,0h0l.176,0,.083,0a.131.131,0,0,1,.151,0l.009,0,.01.006h0a.137.137,0,0,1,.156,0,.383.383,0,0,1,.165,0h0l.748,0a.093.093,0,0,1,.073-.007l.108-.107h0c-.021,0-.034,0-.026-.022l.025.021.006,0h0l0,0c.108,0,.216,0,.324.009.214.016.427-.035.641,0h.045l.169-.078h0a.408.408,0,0,1,.269-.022c.064,0,.1.048.051.1l0,.064.053.039.076,0a1.036,1.036,0,0,1,.261,0h0c.108-.052.232-.015.344-.042a.085.085,0,0,1,.094-.065l0,0h0a.1.1,0,0,1,.081-.041h0c.01-.007.019-.02.031-.022a3.522,3.522,0,0,1,.59-.009h0c.017-.027.037-.024.057,0a.581.581,0,0,1,.208,0,.033.033,0,0,1,.035-.007A.044.044,0,0,1,22.5,7.19h0a4.185,4.185,0,0,1,.916-.06s.009.02.014.031l.011.008,0,.012h0l.054.048a1.285,1.285,0,0,1,.284,0c.019-.021.037-.027.055,0h0l.077,0h0a.542.542,0,0,1,.32,0h0c.1.013.14.094.229.114l.009-.008.012,0c.083-.024.161-.067.254-.012.049.029.094-.017.141-.029-.007-.01-.005-.018.007-.023,0-.028.012-.038.043-.035l.012-.01.017,0h0c.085-.042.2-.013.276-.068l0,0a.128.128,0,0,1,.152,0l0,0h0c.053-.051.1-.012.151,0l.015-.009.017.006a.1.1,0,0,1,.117,0l.017,0,.011.01.261,0h0a.06.06,0,0,1,.092,0h.087a.231.231,0,0,1,.125,0c.037-.023.074-.043.112,0h.012a.192.192,0,0,1,.2,0l.018-.006.017.008c.1.012.215-.022.312.035h0l.7,0h0a.444.444,0,0,1,.3,0l.008,0a.038.038,0,0,1,.045.03h.124l0,0c.036-.033.086-.028.131-.037a.042.042,0,0,1,.045-.031l.006,0a.075.075,0,0,1,.085-.035.067.067,0,0,1,.071,0h0a.356.356,0,0,1,.257,0h.006a.185.185,0,0,1,.1-.019l.835-.02c.049-.063.095-.032.14,0h0l.078,0a.076.076,0,0,1,.081-.064l.232-.006h0a.11.11,0,0,1,.135,0h.832a.093.093,0,0,1,.089-.033h0c.093-.066.2-.034.306-.035h0a.194.194,0,0,1,.184,0h.069a.043.043,0,0,1,.066,0l.011-.006.011.006a.042.042,0,0,1,.063,0,.458.458,0,0,1,.165,0l.087-.035a.036.036,0,0,1,.044-.036h0c.019-.032.04-.024.061,0a.4.4,0,0,1,.162.006,1.158,1.158,0,0,1,.235,0,1.738,1.738,0,0,0,.519.037c.044,0,.1-.017.133.034h0c.075-.019.15-.041.227-.053.032,0,.037.026.042.05a.687.687,0,0,0,.242-.044c.049-.021.06.014.068.044a.381.381,0,0,0,.236-.014c.063-.022.066.018.072.052.067.024.137-.016.2,0h0c.042-.044.082-.1.14-.009.008.013.053.009.081.013h0c.019-.03.04-.024.062,0h.011l.054-.035c.007-.031,0-.066.023-.1h0a.1.1,0,0,1,.028-.024v.127h0a.049.049,0,0,1,.006.029c.07.015.138-.028.207,0h0a.744.744,0,0,1,.315.008h0l.079,0h0a.061.061,0,0,1,.093,0h0a.04.04,0,0,1,.037,0h0a.168.168,0,0,1,.059-.017,1.589,1.589,0,0,1,.241-.034.2.2,0,0,0,.024-.031.175.175,0,0,0,.016.027,1.789,1.789,0,0,0,.179-.024.138.138,0,0,1,.1.031l.018.01h.008a1.075,1.075,0,0,1,.552.038l0,0h0a1.543,1.543,0,0,1,.4.038l0,0h0a.026.026,0,0,1,.032,0h0c.019-.028.038-.02.057,0l.019,0,.016.009h0a4.836,4.836,0,0,1,.565.027c0-.024.028-.057.041-.041a.154.154,0,0,0,.208.049c.012,0,.045.023.068.035h0c.063-.01.125-.085.19,0l.016,0,.012.009a.053.053,0,0,1,.039,0c.031-.041.064-.053.1-.006h0c.055.025.118-.073.17.006h0c.095-.025.213.018.284-.085.026-.037.065.017.084.048h.014c.11-.057.159-.056.237.029a.148.148,0,0,0,.125.052l.007,0h0c.013-.022.028-.021.045,0h0l.065,0a.065.065,0,0,1,.055-.036.046.046,0,0,1,.043-.038c0-.022.02-.033.046-.036h0a.043.043,0,0,1,.043-.037h0c.029-.084.11-.066.184-.064l.045,0a.036.036,0,0,1,.04,0h0c.018-.028.036-.022.055,0h.071c.021-.027.042-.028.063,0l.013-.006.013.006h0a.41.41,0,0,1,.081-.023c.327-.019.656.006.981-.042.014,0,.034.02.051.03h0A.365.365,0,0,1,41.6,7h0l.125,0h0a.819.819,0,0,1,.355-.044h0a.519.519,0,0,1,.211-.032.112.112,0,0,0,.124-.052c.052-.109.161-.1.272-.093h0a2.729,2.729,0,0,1,.705-.071h0a.714.714,0,0,1,.226-.038c.068-.009.083.029.086.074.136.034.26-.031.392-.031a.22.22,0,0,1,.122-.006h0a.6.6,0,0,1,.235-.021,1.122,1.122,0,0,0,.295-.019.04.04,0,0,1,.054-.028l.084,0a.041.041,0,0,1,.062,0h.011a.292.292,0,0,1,.258,0h.011a.039.039,0,0,1,.065,0,.576.576,0,0,1,.215,0,.264.264,0,0,1,.2.03l.069.006h0c.109.011.225-.033.326.031a.628.628,0,0,1,.2.006h0c.21,0,.421.005.632,0,.091,0,.155.024.18.1l.014,0,.011.009h0l.088,0,.074,0h0a.436.436,0,0,1,.235-.033l.011-.009.013,0h0c.055-.044.127-.028.191-.038h0c.052-.048.12-.022.181-.028a.38.38,0,0,1,.161-.007.178.178,0,0,1,.148-.032l.016-.008.017,0c.054-.044.123-.028.187-.03a5.537,5.537,0,0,1,.794,0c.08-.018.1.015.088.073l.011.007-.005.012.072.006.049-.073c-.008-.01-.006-.019.007-.026-.013-.08.016-.128.127-.109l.006,0h0a.064.064,0,0,1,.095,0l.013-.006.013.006c.1-.038.218,0,.316-.04a1.306,1.306,0,0,1,.663.006h0a4.072,4.072,0,0,1,.749.073h0l.893,0a.282.282,0,0,1,.249.08h0a.046.046,0,0,1,.05.029,1.929,1.929,0,0,0,.694-.028.143.143,0,0,1,.138.031h0l.435.01a1.05,1.05,0,0,1,.291-.008h0a.289.289,0,0,1,.238-.068,1.3,1.3,0,0,1,.353,0,2.331,2.331,0,0,1,.59.035.069.069,0,0,1,.071,0h.966l0,0h0a.146.146,0,0,1,.053-.015c.068-.014.141-.011.21-.023h0c.018-.028.033-.018.047,0h0l1.183,0,0,0c.13-.026.253-.115.4-.035l0,0a5.607,5.607,0,0,0,.608-.009c.037-.059.068-.013.1.006h.331c.028-.028.033-.1.108-.039h0a.441.441,0,0,0,.128.011,1.149,1.149,0,0,1,.464.017.7.7,0,0,1,.078.012.64.64,0,0,1,.235,0h0a2.274,2.274,0,0,1,.452-.038h0a.248.248,0,0,1,.178-.032h0c.072-.064.194,0,.262-.07l0,0h0c.025-.052.084-.036.128-.037.133,0,.267,0,.4,0a3.057,3.057,0,0,1,.574,0h0a1.194,1.194,0,0,1,.417.034h.005a.171.171,0,0,1,.168,0H63a1.084,1.084,0,0,1,.368-.037h0a.521.521,0,0,1,.367,0,1.455,1.455,0,0,1,.28,0c.016-.018.029-.051.048-.054a1.254,1.254,0,0,1,.542-.015h0a1.865,1.865,0,0,1,.538.034l.018,0,.015.009h.087a4.776,4.776,0,0,1,.61,0c.053-.045.12-.029.183-.031l.08-.006c.083-.053.18-.027.271-.034h0c.018-.034.051-.037.089-.032l.016-.008.019,0c.018-.008.036-.024.054-.025.367,0,.734-.032,1.1,0l.018-.007.021,0c.11-.047.259.029.35-.076h0c.071-.031.152,0,.223-.024l.01-.007c.027-.03.057-.015.087,0l.011-.006.012,0a.132.132,0,0,0,.1-.069h0c.025-.019.064-.012.086-.034l0,0c.079-.043.149-.09.085-.181a.044.044,0,0,1,0-.06c-.007-.018-.016-.036,0-.053v0c.031-.02.026-.052.039-.077h0a.055.055,0,0,0,.047-.048l-.006-.011.01-.008c.03-.026.029-.061.041-.091v0c-.063-.076.089-.155,0-.231-.036-.042.03-.109-.046-.142,0-.069-.081-.056-.125-.081-.019-.023-.014-.056-.044-.074l0,0a.09.09,0,0,0-.063-.036l-.014,0-.01-.009c-.036-.032-.1,0-.131-.036l-.046-.007c-.027-.014-.064-.007-.086-.03l-.047-.008c-.027-.013-.063-.006-.086-.028l-.3,0h0a.8.8,0,0,1-.417,0A.038.038,0,0,1,67.38,4.8a.1.1,0,0,1-.088-.031h0l-.02,0h-.019c-.051.055-.106.093-.187.036l-.121,0c-.051.047-.119.028-.18.033l-.041.01c-.051.03-.1.047-.15,0a.351.351,0,0,1-.164-.016.046.046,0,0,1-.048-.023h-.337a.115.115,0,0,1-.147,0,.035.035,0,0,1-.04-.007.05.05,0,0,1-.057-.027.023.023,0,0,1-.03,0c-.079,0-.164.029-.229-.034h-.156c-.055.043-.123.027-.187.028a.207.207,0,0,1-.123.008h0a.421.421,0,0,1-.231.034l-.012.009-.015,0h0a.107.107,0,0,1-.105.031.025.025,0,0,1-.034,0h0a2.308,2.308,0,0,1-.751.013L63.9,4.842l-.218,0a.127.127,0,0,1-.111,0h0a.1.1,0,0,1-.111.027.669.669,0,0,0-.262-.036.075.075,0,0,1-.07.007h0a.337.337,0,0,1-.215,0,.15.15,0,0,1-.112,0l-.441,0a.019.019,0,0,1-.029.006h0a.1.1,0,0,1-.123,0l-.014,0-.011-.009a1.988,1.988,0,0,1-.505-.032h-.006a.042.042,0,0,1-.066,0,.039.039,0,0,1-.04,0c-.147.009-.293-.024-.44,0L61,4.8a.1.1,0,0,1-.1.03.025.025,0,0,1-.034.006h0c-.056.034-.125.016-.185.034h0c-.048.052-.112.039-.176.031a1.964,1.964,0,0,1-.391.007.454.454,0,0,1-.28-.037.028.028,0,0,1-.035,0,.162.162,0,0,0-.127.043c-.049.11-.091.022-.135,0h0a.346.346,0,0,0-.046-.032h0l.046.032a.043.043,0,0,1-.047-.032l-.173-.007a.046.046,0,0,1-.04,0l-.039.04h0a.058.058,0,0,1-.053.071c-.03.018-.026.081-.089.055s-.009-.062,0-.094l-.058-.033h-.013a.656.656,0,0,1-.225.043c-.019.084-.153.071-.158.064-.066-.121-.2-.052-.294-.076h0c-.026.129-.139.076-.228.074l-.087.03-.016,0-.016,0h0l-.1,0h0c-.066-.029-.145.016-.209-.026h0a.457.457,0,0,1-.3,0,.05.05,0,0,1-.055.024.1.1,0,0,1-.088.006,3.749,3.749,0,0,1-.827,0l-.016.011c.007.023.107.049,0,.07a2.942,2.942,0,0,1-.478.02c-.117,0-.087-.052-.106-.1h0a.238.238,0,0,1-.258.044h0a.688.688,0,0,1-.437-.039.033.033,0,0,1-.037-.007l-.262-.01a.233.233,0,0,1-.215-.054l.2-.012c.018-.026,0-.049-.011-.072h0l-.161-.009-.085.009a.536.536,0,0,1-.264.022h0l-.135.009-.01.01-.015,0h0a.151.151,0,0,1-.152.031.587.587,0,0,1-.221,0,1,1,0,0,1-.361-.03l-.256-.008h0a.293.293,0,0,1-.2-.028h-.006a.046.046,0,0,1-.067,0,.033.033,0,0,1-.039,0h0a2.031,2.031,0,0,1-.528-.035h0c-.048-.007-.047-.041-.059-.069h-.014a.062.062,0,0,1-.057.032h0a.871.871,0,0,1-.393.031.124.124,0,0,1-.139-.029h0l-.3-.009-.079.008a.127.127,0,0,1-.163.047.1.1,0,0,1-.03-.011.216.216,0,0,1-.121,0,.037.037,0,0,1-.058,0,1.117,1.117,0,0,1-.3-.007H50.5l-.044,0h0a.083.083,0,0,1-.088.031l-.09,0h0c-.1-.018-.212.038-.307-.029h0l-.261-.008a.038.038,0,0,1-.046,0,.04.04,0,0,1-.049-.027l-.083.02c0,.014-.013.018-.029.014h0a.086.086,0,0,1-.117,0l-.01.006-.01-.006h0a.051.051,0,0,1-.072,0h-.008a.043.043,0,0,1-.068,0,.041.041,0,0,1-.039,0,1.293,1.293,0,0,1-.443-.037.077.077,0,0,1-.037,0h0c-.046.041-.093.056-.139,0h-.083c-.005.021-.018.032-.046.027l-.045-.007a.122.122,0,0,0-.124-.013h0c-.037.042-.07.042-.1-.008h0l-.082,0c-.031.046-.065.045-.1,0v0h-.073c-.036.041-.069.036-.1,0h-.019l-.018,0h0c-.065.054-.149.014-.223.03l-.005,0h0c-.022.029-.039.062-.08.077h0a.827.827,0,0,1-.49,0l-.087-.013a.483.483,0,0,1-.239-.025c-.038.03-.075.01-.112,0h-.125c-.036.038-.073.025-.11,0h-.016a.136.136,0,0,1-.151.006l-.012,0-.006-.008h0a.422.422,0,0,1-.289,0h0l-.018,0-.017,0h0a1.023,1.023,0,0,1-.492,0h0c-.073-.018-.169.061-.223-.036h-.3c-.016.031-.053.052-.058.09-.01.067-.053.054-.1.023h-.009a.037.037,0,0,1-.061,0l-.09-.006h0a1.078,1.078,0,0,1-.2-.019.115.115,0,0,1-.033-.009l-1.625.006a.375.375,0,0,1-.173-.018h0c-.061-.016-.132.012-.189-.027h-.277a.049.049,0,0,1-.078,0h-.01a.046.046,0,0,1-.078,0h-.01a.574.574,0,0,1-.237.025l-.045.005-.082.01h0c-.037.04-.091.019-.137.023l-.046,0H41.2l-.009.009-.014,0h0a.525.525,0,0,1-.24.032h0c-.015.031-.031.033-.047,0a.519.519,0,0,1-.215.038c-.017.03-.034.031-.052,0l-.017,0h-.018c-.032.047-.084.04-.136.031h0a.143.143,0,0,1-.082.041.054.054,0,0,1-.039.041c-.021.046-.051.074-.11.03l-.038-.013h0a.375.375,0,0,1-.234-.024l-.008,0h0c-.025.028-.048.027-.068,0a.051.051,0,0,1-.04-.007A.765.765,0,0,1,39.5,5.1a.253.253,0,0,1-.22,0c-.089.036-.177-.013-.266,0h0c-.286.023-.569.065-.857.063a.071.071,0,0,1-.074.009h0c-.056.043-.128.011-.19.025l-.04.01h0a.368.368,0,0,1-.269.027.085.085,0,0,1-.071.011h0a.1.1,0,0,1-.113,0,.022.022,0,0,1-.03,0h0a2.386,2.386,0,0,1-.447.026l-.046,0h0l-.532.01-.041-.008-.081.011c-.035.042-.066.013-.1-.006a.56.56,0,0,1-.261.034h0a.235.235,0,0,1-.041.009,3.25,3.25,0,0,1-.669.023,1.84,1.84,0,0,1-.539-.031.051.051,0,0,1-.058,0h0a.178.178,0,0,1-.169,0l-.012.006-.01-.007c-.076-.013-.149.05-.225,0a.041.041,0,0,1-.04-.007l-.085.005c-.034.045-.068.02-.1,0a.026.026,0,0,1-.034,0,.133.133,0,0,1-.088,0l-.044,0-.088,0h-.044l-.086,0h0a.429.429,0,0,1-.359,0v0h0l-.04,0A.285.285,0,0,1,33,5.3l-.087,0-.045,0h0a.263.263,0,0,1-.173.007c-.046.045-.089-.007-.134,0a.061.061,0,0,1-.091,0,.051.051,0,0,1-.04,0c-.036.029-.072.045-.109,0l-.008,0a.251.251,0,0,1-.089.017,3.491,3.491,0,0,1-.369.012.109.109,0,0,1-.081.006.515.515,0,0,1-.224.039c-.02.033-.04.028-.061,0l-.011,0-.01-.006h0a.39.39,0,0,1-.229.029l-.116.009h0a.092.092,0,0,1-.108,0l-.113,0h0a.173.173,0,0,1-.164,0h-.012c-.113.071-.248.005-.367.039l0,0a3.219,3.219,0,0,1-.491.025h-.046c-.073-.011-.155.025-.221-.027a.023.023,0,0,1-.029,0c-.073.085-.186.012-.271.049a.08.08,0,0,1-.095.018h-.177c-.141.048-.294,0-.436.041-.04.037-.078,0-.117,0h0c-.04.054-.078.036-.116,0a.042.042,0,0,1-.027,0,.049.049,0,0,1-.052.028.071.071,0,0,1-.089,0c-.039-.007-.049-.036-.065-.06-.068.037-.133.006-.2-.006-.118-.023-.245.026-.358-.03h0a.042.042,0,0,1-.041-.043l-.062-.033h0a.2.2,0,0,1-.151.033h0c-.1.026-.2.1-.275-.03A.06.06,0,0,1,27,5.376a.039.039,0,0,1-.035-.007.09.09,0,0,1-.089-.031h-.217c-.027.029-.055,0-.083,0-.081.055-.182.014-.269.039a.279.279,0,0,1-.178.031h0a.062.062,0,0,1-.1,0,.016.016,0,0,1-.022,0,.048.048,0,0,1-.056.027H25.9c-.06-.017-.113.062-.175.008h0c-.059-.01-.115.074-.177,0H25.48c-.021.028-.043.036-.068,0l-.078-.007c-.083.043-.166,0-.249,0h0a.055.055,0,0,1-.062.028l-.043.006a.132.132,0,0,1-.137.005l-.013,0-.009-.008h0a1.042,1.042,0,0,1-.481,0,.038.038,0,0,1-.051,0h0a2.324,2.324,0,0,1-.323.031.159.159,0,0,1-.133,0l-.085.01a8.987,8.987,0,0,1-1.062.243,3.4,3.4,0,0,1-.517.052c-.152,0-.3.011-.456,0a.653.653,0,0,0-.339.049.584.584,0,0,1-.3,0c-.425-.033-.848-.077-1.276-.07-.074,0-.147,0-.22,0a.18.18,0,0,0-.125.064c-.07.057-.152.152-.289.116.018-.1-.06-.107-.148-.1-.193.006-.387.012-.58.02-.448.018-.894.048-1.343.039-.307-.007-.613.009-.92.014-.018.041.018.065.04.094a.471.471,0,0,1,.341.034,1.309,1.309,0,0,1-.348,0h0l-.263,0a2.068,2.068,0,0,1-.343,0c-.071.007-.144.05-.219-.006a.373.373,0,0,1,.22-.02h0l.344,0h0c.065-.038.017-.072-.006-.108q-.5-.015-1,.009c-.169.009-.34-.009-.507,0-.6.044-1.2,0-1.8.016a.281.281,0,0,0-.23.071.368.368,0,0,1-.272.079,2.367,2.367,0,0,0-.638.077c-.1.025-.156.067-.139.15s-.024.095-.091.118c-.039.014-.107.013-.111.05-.016.161-.17.141-.29.157-.2.026-.4.042-.6.063h0l.042.076c.061.053.136.015.2.023.033,0,.08-.005.079.037s-.006.074-.066.076c-.022,0-.044,0-.065,0-.27.011-.291.03-.279.247,0,.042,0,.084,0,.126h0c.078.126.24.042.367.1a2.973,2.973,0,0,1-.507,0,.149.149,0,0,0-.042,0l.006.039ZM58.865,5l-.013.012-.016-.024.016-.013A.1.1,0,0,1,58.865,5Zm.547.084a.047.047,0,0,1-.046-.031c-.011-.024.009-.032.03-.035a.039.039,0,0,1,.045.03C59.449,5.071,59.436,5.084,59.412,5.086Zm.318.028s-.01-.007-.015-.011l.016-.028s.012.007.015.012S59.748,5.111,59.73,5.114Zm.789.76h.013l0,.011ZM58.51,5.179c.024-.035.067-.008.1-.021h0c.014-.042.04-.048.094-.041a.791.791,0,0,0,.3.007h0c.063-.053.106.048.143.022.1-.075.219-.013.31,0a9.89,9.89,0,0,0,1.288.083.9.9,0,0,1,.35.02c.036.02,1.837.22,1.822.252s-1.953-.055-2-.055-.073,0-.109-.007c-.412-.034-.817-.1-1.224-.162a1.024,1.024,0,0,0-.481-.019c-.029.01-.079-.026-.1-.06-.08.082-.208,0-.3.06-.015.008-.076-.027-.1-.062C58.577,5.184,58.538,5.211,58.51,5.179ZM58.439,5l.016-.023.014.012a.116.116,0,0,1-.014.024ZM57.3,5.21c0-.006.024-.007.034-.01.028,0,.033.019.026.038s-.016.018-.033.01S57.3,5.228,57.3,5.21Zm-.7,0a.169.169,0,0,1,.17,0A.21.21,0,0,1,56.608,5.211Zm-5.315,0a8.634,8.634,0,0,1,1.016-.028c.173,0,.346-.013.519-.011.259,0,.518.017.777.018a.486.486,0,0,1,.285.063.537.537,0,0,0,.341.032c.027,0,.56.046.586.05a1.279,1.279,0,0,1-.57.038l-.016.031a1.262,1.262,0,0,1-.631.017c-.138-.04-.124-.1-.272-.092a8.367,8.367,0,0,1-1.014-.049A7.9,7.9,0,0,1,51.293,5.21ZM50.031,6.227a.226.226,0,0,1,.037-.011s.01.007.015.012a.226.226,0,0,1-.037.011Zm-.1.041.012-.013c.005,0,.014.007.015.011s-.008.008-.012.013Zm-.271.065c.012-.031.069-.023.105,0-.009.006-.018.016-.028.017C49.707,6.356,49.65,6.362,49.66,6.333Zm-.6-.836a.141.141,0,0,1,.027-.018.023.023,0,0,1,.034.011c0,.006-.013.019-.013.019A.131.131,0,0,1,49.061,5.5Zm-.664.911c.054-.073.129-.046.225-.04C48.534,6.391,48.485,6.455,48.4,6.408Zm-.466-.328-.012.012-.013-.011.012-.012Zm.193.348c0-.019.011-.03.033-.034v0h0c.036-.039.077-.055.12-.008a.042.042,0,0,1-.005.048c-.055.04-.066-.021-.1-.033l-.016-.007h0c0,.016-.007.032-.011.047C48.139,6.437,48.124,6.433,48.124,6.428Zm-.177,0c0-.009.01-.018.016-.027.006.008.017.017.018.025s-.011.018-.017.027C47.958,6.444,47.947,6.435,47.947,6.427Zm-.262,0c.01-.014.021-.013.026,0a.021.021,0,0,1-.007.016l-.016,0Zm-.867-.353a.783.783,0,0,1,.325-.038,2.544,2.544,0,0,1,.843.106,1.132,1.132,0,0,1,.3-.01c.031,0,.054.017.048.047a.043.043,0,0,1-.045.031c-.116,0-.232,0-.347-.007a6.2,6.2,0,0,1-.894-.043C46.916,6.221,46.906,6.1,46.818,6.07Zm-.063.064h0l0,0v0c.026,0,.052-.018.077,0s.012.022,0,.029C46.786,6.184,46.764,6.168,46.755,6.134Zm-.089.037h0a.061.061,0,0,1-.07-.007c-.012-.014,0-.029.017-.038h0a.043.043,0,0,1,.006-.031c-.018,0-.039,0-.035-.022l.032-.01h0l.048,0h0c.038-.01.072-.011.08.031l.007.041h0l0,0h0l-.046,0h0C46.709,6.155,46.693,6.167,46.666,6.171Zm-.134.071c.038-.009.086-.05.112,0s-.036.037-.067.044-.056.041-.081,0C46.482,6.268,46.5,6.247,46.532,6.242ZM30.985,5.781c-.006.009-.009.021-.018.026a.021.021,0,0,1-.033-.013c-.005-.016,0-.035.024-.035C30.967,5.759,30.976,5.774,30.985,5.781Zm4.163.125c0,.022-.025.025-.046.026s-.038-.006-.039-.011c0-.022.02-.028.04-.034S35.147,5.882,35.148,5.906ZM46.3,6.154a.472.472,0,0,1-.053.018l-.021-.028a.3.3,0,0,1,.056-.013C46.287,6.131,46.294,6.146,46.3,6.154Zm.108.24a.128.128,0,0,1,.011-.027l.014.01a.153.153,0,0,1-.011.027Zm0-.246a.263.263,0,0,1,.054-.018s.012.016.021.028a.321.321,0,0,1-.057.015C46.421,6.173,46.414,6.157,46.408,6.148Zm-.01-.069-.016.012-.014-.018.016-.006Zm-.219.216c0-.045.042-.054.088-.053a.168.168,0,0,1,.125.028c-.05.02-.064.07-.125.079S46.179,6.338,46.179,6.3Zm-.251.069.028-.011v0h0l.005,0,.079-.113h0a.11.11,0,0,1,.034-.167c.113.067.018.138.006.208.015.088-.07.059-.119.072l0,0,0,0C45.953,6.366,45.956,6.385,45.928,6.364ZM45.8,6.335l.006-.012.008.01Zm-.1.014a.074.074,0,0,1,.016-.012c.005,0,.013.007.016.012s0,.027-.016.027S45.687,6.363,45.7,6.349Zm-5.761.136a.02.02,0,0,1,.033-.008c.01.007.025.017.024.024s-.024.021-.041.012S39.939,6.5,39.934,6.485Zm-.147.034h0c0-.022-.005-.052.04-.042.02,0,.033.023.022.042a.085.085,0,0,1-.066.038C39.725,6.541,39.762,6.53,39.787,6.519Zm-.3.207.015-.012.033.013-.014.011A.34.34,0,0,1,39.492,6.726Zm-4.142-.3a.069.069,0,0,1,.058-.048c.039.019.03.051.031.08a.036.036,0,0,1-.04.036A.053.053,0,0,1,35.35,6.429Zm-7.9-.15c-.063.017-.093-.022-.123-.056s-.036-.053-.012-.083a.75.75,0,0,1,.38-.1c.108.1.241.052.364.066l.067-.065.037.059h0a.443.443,0,0,1,.234-.015c.112.024.253,0,.321.036s.127-.043.184.012c.072.07.156.042.24.018a.31.31,0,0,1,.165-.014c.065.015.146-.017.22.007.055-.107.112.015.173,0,.208-.057.433-.029.643-.088a2.043,2.043,0,0,1,.386-.059c.13-.011.262-.008.394-.009.117,0,.228-.066.349-.017a.047.047,0,0,0,.065-.032c.013-.031,0-.077.066-.083.046.018.025.083.092.1.068-.019.125-.166.227-.024.008.011.047-.014.068-.033.038-.034.085-.017.133-.019.116,0,.179.084.29.083.239,0,.478,0,.717.009h.043c.094,0,.189,0,.283,0,.312,0,.621-.027.93-.05a1.877,1.877,0,0,1,.408.032.875.875,0,0,0,.494-.018,1.115,1.115,0,0,1,.349-.063c.129-.009.28.037.4-.049,0-.021-.011-.058.019-.057.048,0,.021.039.021.062.018.05.011.118.11.109s.207.026.3-.019c.065-.031.175.115.2-.038.012,0,.033,0,.037,0,.054.075.117.116.217.051.164.073.342.012.512.034a1.877,1.877,0,0,1,.3.015,6.088,6.088,0,0,0,.872.138c.113.019.271-.037.334.032.129.14.179-.078.273-.02a.069.069,0,0,0,.039.014c.147-.028.3.04.441-.023a1.569,1.569,0,0,1,.493-.083,4.291,4.291,0,0,0,.453-.005c.063.085.153-.036.23.023s.17-.078.237.026a.087.087,0,0,0,.036-.012c.051-.049.118-.023.178-.033.15-.023.3,0,.448-.01a1.388,1.388,0,0,0,.421-.055.248.248,0,0,1,.087,0c.354-.008.709-.018,1.064-.021.159,0,.318.014.477.024a.661.661,0,0,0,.227-.049.358.358,0,0,1,.2-.055,4.692,4.692,0,0,0,.593.006.221.221,0,0,1,.119.031c.152.058.312.1.469.151a.957.957,0,0,0,.436.047.053.053,0,0,1,.059.062c-.006.027-.033.039-.066.029a.514.514,0,0,0-.335.028c-.082.025-.2.046-.253,0-.095-.083-.2-.038-.3-.052s-.185,0-.279-.006a2.424,2.424,0,0,0-.926.107,2.018,2.018,0,0,1-.669.09c-.267,0-.534-.007-.8,0-.088,0-.192-.015-.239.089-.022.048-.23.073-.246.036-.059-.143-.184-.047-.277-.064h0c-.011.032.012.081-.049.087-.04,0-.047-.039-.068-.062a.126.126,0,0,1-.016-.033h0c-.1-.085-.1-.085-.193,0a.106.106,0,0,1-.051.031,1.448,1.448,0,0,1-.551.021c-.086-.021-.147.021-.219,0s-.136-.061-.216,0c-.045.035-.1,0-.108-.052a.918.918,0,0,1-.017-.107c-.093,0-.2-.028-.263.006-.081.046-.174-.043-.211.019-.082.137-.114-.039-.172-.011a.214.214,0,0,0-.054.029c-.025.024.007.079-.064.082-.056-.016-.009-.1-.1-.1-.111,0-.048.1-.106.135-.019-.01-.046-.016-.054-.03-.053-.09-.1-.13-.156,0-.009.021-.045.047-.067.022-.068-.08-.122-.073-.174.008a3.29,3.29,0,0,0-.444.016,1.135,1.135,0,0,0-.411.026.124.124,0,0,1-.085,0c-.159-.069-.345,0-.5-.07-.292.046-.58-.033-.873-.016-.062,0-.083.067-.144.041-.009-.022-.016-.044-.026-.066-.055-.128-.059-.129-.221-.058-.007,0-.011.011-.017.017-.14-.1-.167.03-.233.08v0h0c0,.026.008.068-.048.055s-.089-.045-.084-.092c.006-.063.084-.053.127-.079h0c0-.051.024-.1-.091-.1-.184-.008-.356.049-.535.048s-.365.084-.543-.014a.282.282,0,0,0-.085-.011c-.144-.019-.281.084-.427.015a.052.052,0,0,0-.038.013c-.054.1-.13.063-.2.02-.024-.014-.058-.042-.069-.02-.081.165-.181.087-.286.022-.012-.008-.042,0-.064,0l-.3.029a.177.177,0,0,1,0,.052c-.006.014-.018.035-.032.038-.036.007-.046-.018-.05-.041a.3.3,0,0,1,0-.052h0c-.052-.01-.125.037-.156-.027s-.115-.059-.164-.037c-.139.061-.3.03-.442.084a.38.38,0,0,1-.209.022.3.3,0,0,0-.3.049c-.035.017-.068.026-.094-.006-.066-.08-.1-.055-.144.017-.023.034-.124.148-.155-.017-.006-.03-.062-.018-.1-.009-.006.029-.008.082-.017.083-.047,0-.047-.044-.077-.063,0,0,0-.012,0-.017h0c-.029-.04-.068-.073-.124-.04a1.151,1.151,0,0,1-.222.072c-.006.033.013.081-.045.089s-.036-.045-.061-.063a.4.4,0,0,0-.076-.031.865.865,0,0,0-.259.019c-.125.054-.224.163-.384.069a2.918,2.918,0,0,1-.613.04c-.05.006-.119.02-.139-.024-.042-.091-.125-.055-.2-.065-.108-.014-.217.03-.323-.008l-.15.042h-.045l-.045,0h0c-.107.006-.215.013-.323.016s-.206-.035-.239-.137a.568.568,0,0,1,.375-.073.31.31,0,0,0,.144-.03c-.113-.052-.238-.009-.355-.029h0A2.306,2.306,0,0,0,27.452,6.279Zm-1.24.237c0-.028.021-.041.053-.047a.637.637,0,0,1,.441-.008.387.387,0,0,0,.17.02l.495-.008c.046,0,.1,0,.1.045,0,.06-.066.052-.113.053-.16,0-.321,0-.482,0-.131.006-.261-.014-.392,0a1.459,1.459,0,0,1-.219,0A.057.057,0,0,1,26.212,6.516Zm-2.144-.252c0-.031.042-.024.065-.035a.044.044,0,0,1,.056.009h0c.056.013.04.05.041.082.034.021.1.056.11.027.036-.145.094-.089.179-.031.029.021.1,0,.148,0,.034,0,.071-.034.1-.011.11.08.228.016.342.017,0-.023,0-.059.02-.06.041,0,.042.039.061.062h0c.069.029.123-.029.2-.016a2.651,2.651,0,0,0,.444-.01c.045,0,.085,0,.112-.036.048-.074.1-.074.154,0,.024.033.061.024.1.021.014-.02,0-.074.053-.05s.077.059,0,.089h0a.654.654,0,0,1-.219.07,3.1,3.1,0,0,1-.617.045h0c-.074.069-.2-.007-.274.068h0c.026.042.075.032.116.033a4.654,4.654,0,0,0,.541-.025c.066-.006.152-.018.165.051s-.089.063-.143.087a.156.156,0,0,1-.065,0c-.353-.02-.7-.062-1.059-.06-.193,0-.387-.01-.584.009l.072-.138a.061.061,0,0,1,0-.03c-.082-.035-.035-.1-.045-.147C24.114,6.278,24.067,6.27,24.068,6.264Zm-.128.1A.047.047,0,0,1,24,6.351a.07.07,0,0,1,.032.019.052.052,0,0,1-.069.02C23.95,6.387,23.946,6.374,23.94,6.366Zm-.261-.01.062,0h0c.022-.049.036-.105.113-.117.042-.007.088.02.068.042-.046.05-.063.145-.184.117a.284.284,0,0,1-.041,0c-.024,0-.058.027-.07-.006S23.651,6.357,23.679,6.356Zm-.66.119c.1-.026.207-.016.284-.082a.333.333,0,0,1-.007-.054c0-.031.013-.065.062-.053s.047.05.019.083a.157.157,0,0,1-.032.024h0C23.284,6.54,23.236,6.553,23.019,6.475Zm-.28-.213c.011-.006.022-.017.033-.017s.023.01.034.016l-.034.019ZM19.8,6.03c.044.022.085-.061.138.019C19.89,6.047,19.848,6.075,19.8,6.03ZM19.1,6.006c.008-.031.039-.023.065-.022v0l0,0h0c0,.023,0,.047-.037.045C19.113,6.028,19.094,6.012,19.1,6.006Zm-.15,0,.01-.01A.032.032,0,0,1,18.976,6l-.009.011C18.957,6.013,18.951,6.006,18.945,6ZM17.9,6.181c-.011,0-.026.011-.034.007s-.012-.017-.017-.027a.019.019,0,0,1,.032-.007A.1.1,0,0,1,17.9,6.181Zm-.6,1.042a.344.344,0,0,1,.23-.071l.127,0,.094,0,.043.008a.081.081,0,0,0,0,.022V7.161c.054,0,.11-.045.161.007-.048.049-.106.018-.161.015l-.044.007h0A1.15,1.15,0,0,1,17.3,7.223Zm-.6-1.167h0c.057-.071.146-.026.219-.041h.261l0,.042c-.11-.019-.2.045-.311.028h0C16.81,6.08,16.74,6.122,16.7,6.056Zm-.754.08a.088.088,0,0,1,.093.021c.016.015.012.032-.011.038a.088.088,0,0,1-.09-.03C15.923,6.152,15.925,6.142,15.943,6.136Zm-.216.049c.006-.007.011-.019.018-.02a.121.121,0,0,1,.035.009c-.007.007-.012.019-.019.02A.075.075,0,0,1,15.727,6.185ZM14.887,7.2c-.015.027-.045.021-.071.021s-.054.007-.071-.019c.023-.022.054-.015.081-.014A.346.346,0,0,1,14.887,7.2Zm-.372.116a2.113,2.113,0,0,1,.464-.048h0a.78.78,0,0,1,.216-.009h0a.152.152,0,0,1,.105,0c.067-.056.163-.034.242-.06.027-.009.05.034.013.063h0a.614.614,0,0,1-.365.031l-.169.011h0A1.287,1.287,0,0,1,14.515,7.316Zm-.106,0,.014-.007v.012Zm-.663-.077c.011-.051.053-.041.1-.037.167.012.335.018.5.026a.421.421,0,0,1,.294-.023.383.383,0,0,1-.294.05c-.036,0-.1,0-.105.014-.062.129-.173.085-.27.052a.507.507,0,0,0-.148-.023C13.779,7.3,13.734,7.29,13.746,7.237ZM12.637,7.4c.049-.05.115-.037.178-.03h.171c.031,0,.078-.018.091.009l.009,0-.008,0,0,.01c0,.02-.058.014-.091.009h-.178l-.175,0h0Z"/></g></g></g></svg>