<svg xmlns="http://www.w3.org/2000/svg" viewBox="0 0 33.03 39.75"><defs><style>.cls-1{fill:#fff;}</style></defs><title>go_to_project_arrow</title><g id="Layer_2" data-name="Layer 2"><g id="PROYECTOS"><g id="HQTC"><g id="VER_PROYECTO_HQTC" data-name="VER PROYECTO HQTC"><path class="cls-1" d="M7.79,27.92a1.45,1.45,0,0,1,.22.21c.32.35.65.69,1,1,.56.56,1.07,1.16,1.58,1.76a4.86,4.86,0,0,0,.85.79l.08.06a6.51,6.51,0,0,0,1,.76c.27.17.53.34.78.53a1.74,1.74,0,0,0,.19.1c.42.24.86.43,1.28.67a8,8,0,0,0,.93.46l.07,0c.32.08.63.22,1,.31a3.84,3.84,0,0,0,.59.11.73.73,0,0,1,.26.11,2.5,2.5,0,0,0,.85.33,4.67,4.67,0,0,1,.64.18,1.86,1.86,0,0,0,.45.08l.28,0c.06,0,.14,0,.18,0s.08,0,.12,0a.33.33,0,0,0,.3-.06s.09,0,.15,0a.38.38,0,0,0,.34,0,1.12,1.12,0,0,1,.61-.06c.25,0,.5,0,.75,0a.55.55,0,0,1,.18,0,3.64,3.64,0,0,0,.82-.06l.31,0a0,0,0,0,1,.07,0,.1.1,0,0,1,.15,0,.1.1,0,0,0,0-.08s0,0-.05,0a.07.07,0,0,1-.06,0,.1.1,0,0,1-.14,0,5.5,5.5,0,0,1-.91,0,5.81,5.81,0,0,1-.59,0,.13.13,0,0,1-.12,0h-.07s-.05,0,0,0,0-.09.07,0,.07-.05.12,0a.57.57,0,0,1,.32-.05,2,2,0,0,0,.5-.06,2,2,0,0,1,.5-.07c0-.12-.09-.11-.16-.13s-.13,0-.19,0a1,1,0,0,1-.29-.07.35.35,0,0,0-.17,0s0,0,0,.06.06,0,.05.06-.05,0-.07,0H22.4s0,0,0,0h0s0,0-.08,0h0s0,0-.07,0h-.13a.11.11,0,0,1-.1,0s0,0-.05,0,0,0-.05,0,0,0,0,0h0s-.11-.13,0-.13a.75.75,0,0,0,.16,0c.06,0,.05,0,.06.07h.05c.06,0,.16,0,.2,0s0-.07,0-.1.13.11.13,0,.06-.06.11-.07.2,0,.26,0l-.08,0c-.32,0-.64,0-1,0a.52.52,0,0,1-.17,0c-.05,0-.05.13-.15,0s-.1,0-.17,0-.14,0-.21,0c-.31-.08-.61-.08-.91-.13a1.68,1.68,0,0,0-.45,0,1,1,0,0,1-.47-.05s-.08,0-.11,0-.21,0-.32,0a1.15,1.15,0,0,1-.39-.07,1.49,1.49,0,0,1-.3-.09,3.32,3.32,0,0,1-.65-.22,5.61,5.61,0,0,0-.83-.38,2,2,0,0,0-.39-.1,1.35,1.35,0,0,1-.52-.16l-.1,0a1,1,0,0,1-.53-.31,1.87,1.87,0,0,0-.84-.45,1,1,0,0,1-.28-.12,6.58,6.58,0,0,0-.9-.55.3.3,0,0,1-.11-.06,2.93,2.93,0,0,0-.71-.39,1.76,1.76,0,0,1-.56-.42,4.14,4.14,0,0,1-.37-.46c-.18-.28-.41-.51-.6-.77s-.26-.36-.37-.54a1.91,1.91,0,0,0-.37-.38,9.81,9.81,0,0,1-.79-.79l-.05-.07a2,2,0,0,0-.55-.57.55.55,0,0,1-.15-.2,5.87,5.87,0,0,0-.92-1.24,2.4,2.4,0,0,1-.37-.53A1.11,1.11,0,0,0,7,24.83c-.17-.19-.29-.41-.45-.61A.67.67,0,0,1,6.41,24a.5.5,0,0,0-.13-.19c0-.06-.13-.12-.13-.22s-.08-.11-.13-.15a.34.34,0,0,1-.14-.2,1.65,1.65,0,0,0-.28-.52,2.54,2.54,0,0,1-.31-.53A1.32,1.32,0,0,0,5,21.74a2.88,2.88,0,0,1-.55-.85,2.67,2.67,0,0,0-.25-.43,4.09,4.09,0,0,1-.46-.94c-.1-.29-.26-.59-.33-.88a4,4,0,0,0-.34-.84,1.62,1.62,0,0,0-.1-.18.25.25,0,0,1-.06-.18.56.56,0,0,0-.09-.34,2.65,2.65,0,0,1-.12-.37c-.14-.32-.26-.64-.38-1a.5.5,0,0,1,0-.12,5.18,5.18,0,0,1-.22-1.08,5.89,5.89,0,0,0-.16-.67,1.85,1.85,0,0,1-.08-.46,5.13,5.13,0,0,0,0-.87c0-.22-.05-.44-.05-.65a2.48,2.48,0,0,1,0-.47s-.1,0-.09-.09h0l0-.18c.13,0,.09.11.11.17h0l.06,0h0a.06.06,0,0,1,0-.07c0-.2,0-.4,0-.59a.83.83,0,0,0,0-.15,1.26,1.26,0,0,1-.07-.73,2.21,2.21,0,0,0-.07-1,1.06,1.06,0,0,1,0-.43c0-.18-.05-.4-.05-.6a.58.58,0,0,1,0-.23.7.7,0,0,0,0-.5,3,3,0,0,1,0-.59,1.93,1.93,0,0,0,0-.24s0-.08,0-.08.07-.07.07-.14a2.63,2.63,0,0,1,.05-.75.26.26,0,0,0,0-.15,1.84,1.84,0,0,1,0-.52,3.2,3.2,0,0,0-.07-.41,2.26,2.26,0,0,1,.07-.83,2.92,2.92,0,0,1,.19-.49c0-.08,0-.2,0-.31a1,1,0,0,1,0-.26A2.35,2.35,0,0,0,2,1.66c0-.12,0-.28,0-.4A.34.34,0,0,0,2,.93c0-.05,0-.11,0-.16A.51.51,0,0,0,1.67.29L1.22,0a.11.11,0,0,0-.07,0C1.05,0,.91.05.88.17S.67.49.59.68A.85.85,0,0,0,.53.85a2,2,0,0,1-.16.55s0,.06,0,.1a.32.32,0,0,1-.12.32.37.37,0,0,0,0,.53.32.32,0,0,1,0,.16.63.63,0,0,0,0,.19,1.26,1.26,0,0,1,0,.61A2.43,2.43,0,0,0,.22,4a.93.93,0,0,1-.08.58.87.87,0,0,0-.06.54c0,.22.07.45.1.67,0,.05,0,.11,0,.15a.43.43,0,0,0-.07.32c0,.18,0,.38.07.57s0,.22-.09.28A.23.23,0,0,0,0,7.36a.47.47,0,0,1,0,.2,1.82,1.82,0,0,0,.1.82.52.52,0,0,1,0,.17,1.81,1.81,0,0,0,.08.82c0,.1.06.21.08.32a.82.82,0,0,1,0,.41,2,2,0,0,0,.1,1.08.77.77,0,0,1,0,.39A1.08,1.08,0,0,0,.53,12a5.15,5.15,0,0,1,.07.53c0,.36.1.73.16,1.09s.09.46.12.69.1.4.15.6.1.54.16.8a4.61,4.61,0,0,0,.3,1.05.53.53,0,0,1,0,.16,2.66,2.66,0,0,0,.24.84s.05.08,0,.11a1,1,0,0,0,.12.39,10.2,10.2,0,0,1,.4,1.26,3.62,3.62,0,0,0,.19.4,4.76,4.76,0,0,1,.21.6.32.32,0,0,0,.06.15,7.74,7.74,0,0,1,.43.73l.17.28a6.43,6.43,0,0,1,.42.77,2,2,0,0,0,.31.53,1,1,0,0,1,.14.21,8.4,8.4,0,0,0,.64,1.07,5.44,5.44,0,0,0,.45.62.39.39,0,0,1,.1.16,2.32,2.32,0,0,0,.52.73,15.38,15.38,0,0,1,1,1.36A3.85,3.85,0,0,0,7.79,27.92Zm-6.44-18h0v0Zm.09.44s0,0,0,.06l0,.05s0,.06,0,.06a.07.07,0,0,1,0-.06.09.09,0,0,1,0-.05h0s0,0,0-.06Zm0-.27Zm0-.08h0Zm.27.52h0a.13.13,0,0,1,0-.14s0,0,0-.05h0a.17.17,0,0,1,0-.16c0,.05.08.11.06.16h0l0,0h0A.31.31,0,0,1,1.66,10.55Zm.05.37v0h0s0,0,0-.05h0a.28.28,0,0,1-.05-.24h0s0,0,0,0h0s0,0,0,0h0a.28.28,0,0,1,.05.24h0a0,0,0,0,1,0,.05h0S1.74,10.92,1.71,10.92Zm-.12.1v0s-.05-.08,0-.12l0,0c0-.05-.07-.11,0-.16a.3.3,0,0,1,.05.14l0,0h0a.5.5,0,0,1,0,.16h0S1.63,11,1.59,11Zm-.22-.11a.13.13,0,0,1,0-.06c-.05-.06-.07-.12,0-.15h0c-.05,0-.05-.08,0-.1h0l0,0h0v0h0s0,.07,0,.1h0a.46.46,0,0,1,0,.19s.05.06,0,.07S1.38,10.93,1.37,10.91ZM3.7,21.07h0v0Zm1,.91h0s0-.06,0-.08l0,0c0,.05,0,0,0,.06h0l0,.06h0s0,.06-.06,0S4.67,22,4.69,22Zm.09.1h0l0,0h0s0,0,0,0,0,0,0,0l0,0s0,0,0,.05,0,0,0,0Zm-.86-1v0h0v0Zm-.47-.6,0,0s0,0,0,0,0,0,0,0Zm-.5-1H3v0Zm.63.74a0,0,0,0,1,.07,0s0,.05,0,.07-.05,0-.06,0S3.57,20.21,3.58,20.2Zm.16.15s0,0,0,0,.05.05,0,.07,0,0,0,0A.07.07,0,0,1,3.74,20.35ZM3.53,20s0,.06,0,.08,0,0-.07,0a.15.15,0,0,1,0,0S3.51,20,3.53,20Zm-.31-.47,0,0a.13.13,0,0,1,0,.05s0,0,0,0Zm-.14-.28h0s.09.08.06.13a.05.05,0,0,1-.05,0h0s0,0,0,0S3.06,19.31,3.08,19.27ZM3,19s0,0,0,.06.09.11,0,.12-.08-.06-.09-.11S2.92,19,3,19Zm-.11-.17Zm.06.06s0,0,0,0h0v0S2.9,18.88,2.9,18.89ZM1.26,15a.33.33,0,0,1,.07.21c0,.05.06.09,0,.14h0a.08.08,0,0,1-.06-.1h0C1.25,15.14,1.21,15.07,1.26,15Zm0-.54s0,0,0,0l0,0s0,0,0,0Zm-.08-.24s0,0,0,.06h0s0,0,0-.07S1.15,14.19,1.16,14.21ZM1,13.9s0,0,0,0,0,0,0,.06h0a.09.09,0,0,1,0-.06s0,0,0,0ZM1,13.7s0,.05,0,.07H1v0H1s0-.06,0-.07Zm0-.2h0v0s0,0,0,0S1,13.49,1,13.5Zm.25-.35a0,0,0,0,1,0,0l.05,0s0,0,0,0S1.22,13.17,1.2,13.15Zm.13.13a0,0,0,0,1,0,0h0v0ZM1,12.8s-.05,0-.08,0-.06,0-.07,0,0,0,.07,0S1,12.75,1,12.8Zm-.1-.26h0Zm.13.1h0l0,0H1Zm.14.15s0,.06-.09.05,0-.13.09-.1S1.22,12.78,1.2,12.79Zm-.27-.51h0v0h0S.93,12.27.93,12.28Zm.77.9A.31.31,0,0,1,1.61,13h0l0-.09s0,0,0-.05l0,0,0,0a1,1,0,0,1-.13-.64s0,0,0,0,0,0,0,0h0s.05.09.06.14a3.7,3.7,0,0,0,.14.55,0,0,0,0,1,0,.05l.06.12h0C1.68,13.06,1.73,13.12,1.7,13.18Zm0,.61c0-.07-.11-.14-.1-.21s0-.09-.06-.13,0-.09-.05-.13a.14.14,0,0,1-.06-.19.07.07,0,0,0,0-.11.06.06,0,0,1,0-.08.17.17,0,0,0,0-.12c-.08-.13-.06-.27-.16-.39l0,0c0-.07-.14-.15,0-.19h0l0,0h0v0a.37.37,0,0,1,.07.16h0a4.56,4.56,0,0,0,.32.67.06.06,0,0,1,0,.05s0,0,0,0,0,.11.11.14,0,0,0,0v0c-.08,0,0,.14,0,.2S1.77,13.7,1.69,13.79ZM1,13l-.07.06,0,0s0,.07,0,.11,0,.07,0,.06,0,0,0-.08h0a.24.24,0,0,1-.06-.09c0-.07.05-.08.09-.11s0-.08,0-.06.12.06.12.13-.05,0-.08,0Zm0,.33H1s0,0,0,0H1Zm.92,1h0Zm-.63-.54s0,.08.05.12,0,.09-.05.08-.07,0-.05-.08,0-.05-.05-.07,0-.05,0-.07h0a.2.2,0,0,0,0-.05c-.11,0-.07-.1,0-.15l0,0h0l-.1,0,.06-.09h0s0-.05,0-.06h0s0,0,0-.05-.07,0-.07-.07,0-.08,0-.1.09,0,.13.07,0,0,0,.09,0,.05,0,.06h0s0,0,.07,0,.07,0,.05.06S1.23,13.68,1.26,13.77Zm.43,1.4s0-.06,0-.09a1.65,1.65,0,0,1-.11-.36l0-.06a.46.46,0,0,1,0-.19.58.58,0,0,1,0-.36h0v0s0-.07,0-.06,0,.05,0,.07a0,0,0,0,1,0,0c0,.11,0,.21,0,.32a.47.47,0,0,1,0,.2l.08.1h0v0s0,0,0,.05h0c0,.09.09.18.07.27h0s0,.06,0,.08h0l0,0s0,0,0,0S1.68,15.19,1.69,15.17Zm.13.27v0h0Zm0,.18h0Zm-.23-.22h0a.49.49,0,0,1-.11-.27A.8.8,0,0,1,1.63,15.4Zm.57,1.12h0v0h0S2.2,16.53,2.2,16.52Zm0,.12v0h0v0Zm1,1.91h0Zm0,.1s0,0,0,0l0,0s0,0,0,0A0,0,0,0,1,3.27,18.65Zm-.13,0a.07.07,0,0,0,0,0h0L3,18.49s0,0,0-.06h0c0,.05.1.11,0,.16h0l0,0s.05.05,0,.06S3.15,18.67,3.14,18.65ZM4.5,21.34v0h0l0,0Zm.28.48s-.06,0-.1-.07,0,0,0,0h0c0,.05,0,.15-.08.15l-.37-.53c0-.05-.07-.13-.15-.07S4,21.21,4,21.18s0-.21-.06-.31l-.09-.1-.06-.07h0l-.06-.12s0,0,0,0h0s.13,0,.17-.08,0,0,0,0,0,0,0,0l.07,0a1.92,1.92,0,0,1-.14-.29s-.05-.09-.11-.12a.17.17,0,0,1-.09-.16c0-.07-.08-.18-.19-.16s0,0,0,.06,0,.09,0,.11-.07-.17,0-.22-.07-.18-.12-.27,0-.2-.12-.31-.29-.45-.43-.68c0,0-.14,0-.07-.11l-.06-.12a1.09,1.09,0,0,1-.19-.45.53.53,0,0,1,0-.28,3,3,0,0,1-.26-.58A1.85,1.85,0,0,0,2,16.57H2c-.16,0-.2,0-.24-.21a1,1,0,0,0-.1-.33h0L1.55,16h0s0,0,0,0h0s0-.08,0-.12h0c-.07,0-.06-.08-.05-.13h0l-.05-.06s0-.07,0-.11-.07-.06,0-.11v-.08h0l.05.12.06.06,0,0s0,0,0-.05h0s0-.06,0-.08,0,0,.06,0h0l.09.19h0s0-.09,0-.14h0s.07.08.05.13a.39.39,0,0,1,.15.25.08.08,0,0,0,0,.07h0s0,0,.05,0,0,0,0,0a.08.08,0,0,1-.05-.05h0s0,.08,0,.13h0S2,16,2,16s0,0,0,0,0,0,0-.05h0a0,0,0,0,0,0,.07,1,1,0,0,1,.07.23.13.13,0,0,1,0,.08.39.39,0,0,1,.12.29s.07.12.11.11.09.07.13.12.11.25.17.37,0,.05,0,.06a.12.12,0,0,1,0,.07.8.8,0,0,1,.11.25h0a3.42,3.42,0,0,1,.23.42s0,0,0,.06a.47.47,0,0,1,.12.23s0,.07,0,.06a.05.05,0,0,1,0-.07.83.83,0,0,1-.14-.26s0-.08-.06-.12h0l0,0s0,.06-.07.05,0,.08,0,.12a5.17,5.17,0,0,1,.36.59c.12.2.23.4.37.59a.14.14,0,0,1,0,.06c0,.12.14.22.14.34s.06.12.06.18.06,0,.08,0l0,0s0,0,.05,0h0c0,.05,0,.1,0,.14l0,0c.16.25.27.51.44.76,0,.05,0,.1,0,.12s0,.07,0,.11,0-.11.09,0,0,.09,0,.1a0,0,0,0,0,0,0,.24.24,0,0,0,.09.25l.07.08c.06.11.07,0,.1,0s0,.11,0,.17h0s.09,0,.12.05S4.8,21.81,4.78,21.82Zm.12.12,0,0h0l-.07-.07a.1.1,0,0,1,0,0S4.88,21.92,4.9,21.94Zm.17.24s0,0,0,0a0,0,0,0,1,0,0,.09.09,0,0,1,.06.06S5.08,22.19,5.07,22.18Zm.08.15s0,0,0,0h0s0,0,0,0S5.17,22.34,5.15,22.33Zm-.25-.12a.08.08,0,0,1,0,0c0-.06,0,0,.09,0S5,22.24,4.9,22.21Zm.75.87a.3.3,0,0,1,.13.16C5.72,23.18,5.67,23.15,5.65,23.08Zm-.6-.65h0Zm-.11-.13H5v0Zm-.12-.05,0,0s0,0,0-.05h0S4.84,22.24,4.82,22.25Zm.09.11h0s0,0,0,0S4.91,22.38,4.91,22.36Zm.12.16v0H5v0Zm1,1.27s0,0,0,0,0,0,0,0,0,0,0,0S6.06,23.79,6.06,23.79ZM4.85,22.41c-.12-.1-.12-.1-.14-.19Zm.8.95h0v0A0,0,0,0,1,5.65,23.36Zm.08.17s0,0,0,0h0s0,0,0,0S5.74,23.55,5.73,23.53Zm-.94-1s0,0,0,0a0,0,0,0,1,0,0h0s-.1-.06-.11-.13-.06-.07-.08-.1-.07-.06-.09-.09h0a8,8,0,0,1-.63-.81,1.13,1.13,0,0,0-.1-.13c0-.05,0-.09,0-.11s.07,0,.1.06c.21.31.43.61.65.92a.38.38,0,0,1,.09.15l.08.09c0,.05.09.09.09.15ZM5.94,23.9s0,0-.05,0v0a0,0,0,0,1,0,0S6,23.9,5.94,23.9Zm.12.19s0,0,0,0,0,0,0,0,0,0,0,0Zm.18.24v0h0v0Zm16,10.16h0v0Zm.33.28h0s0,0,0,0Zm-.88.19h0v0ZM6.54,25.21a.17.17,0,0,1,.09.1c.06,0,.09.11.14.16l.28.33a.49.49,0,0,1,.14.23.62.62,0,0,1-.2-.25c-.07-.06-.1-.18-.21-.2l0,0s0,.05-.06,0,0,0,0-.06a1.71,1.71,0,0,0-.13-.23s-.08,0-.1-.05A.11.11,0,0,1,6.54,25.21Zm.61,1h0S7.16,26.17,7.15,26.17Zm.18,0h0s0,0,0-.08.08.06.09.12,0,0-.1,0Zm-.85-1.11a1.3,1.3,0,0,1-.32-.34A1,1,0,0,1,6.48,25.11ZM8.22,27s0,.05,0,.06,0,0,0,0h0l0,0s0,0,0,0l0,0S8.22,27,8.22,27Zm.15.17s0,0,0,0a.1.1,0,0,1,0-.07s0,0,0,0S8.37,27.13,8.37,27.15Zm.3.31a.11.11,0,0,1-.06.14h0s0-.08-.07-.1l0,0s0,0,0,0,0,0,0,0l0,0c0-.07-.09-.1-.11-.16s0-.07,0-.08.06,0,.06,0a.16.16,0,0,0,.15.15S8.67,27.44,8.67,27.46Zm1.19,1.37v0l.05,0a.05.05,0,0,1,.05,0h0s0,0,0,0h0S9.87,28.85,9.86,28.83Zm-.15-.18h0v0Zm-.26-.3s0,0,.06,0l0,.05s0,0,0,0,0,0,0,.05l0,0,0,0s0,0,0,0S9.44,28.37,9.45,28.35ZM9,28l-.11-.13a.07.07,0,0,1,0-.11c.05,0,.07,0,.08.07s.17.12.16.24l0,0c.1,0,.12.12.19.16s0,0,0,.05,0,0,0,0S9.08,28.16,9,28Zm-.42-.29s0-.08,0-.1h0c0,.05.07.07.1,0s0-.09.1-.06,0,.07,0,.11,0,0,0,0,0,0,0,0l0,0h0C8.74,27.72,8.67,27.67,8.6,27.71Zm-.31-.35v0a0,0,0,0,1,.05,0s0,0,0,.05S8.31,27.39,8.29,27.36Zm-.12-.17h0v0h0l0,0h0l0,0s.07,0,.06.05,0,0-.06,0A.09.09,0,0,1,8.17,27.19Zm1.58,1.93v0h0v0ZM9.58,29v0s0,0,.06,0,0,0,0,0S9.6,29,9.58,29ZM8.09,27.27v0h0s0,0,0,0S8.1,27.27,8.09,27.27ZM8,27.17a.15.15,0,0,1,.11-.12h0v0A.13.13,0,0,1,8,27.17ZM8,27a0,0,0,0,1,0,0s0,0,0-.06l.06,0A0,0,0,0,1,8,27Zm-.24,0s0,0,0,0,0,0,.06,0,0,0,0,0S7.81,27,7.79,27Zm-.22-.26c0-.05,0,0,.08,0s0,0,.1,0l0,0s.06,0,.06.06,0,0,0,0-.07.07-.13,0S7.57,26.75,7.57,26.71Zm-.22-.26s0,0,0,0,0,.06.07.08,0,0,0,0l.06,0s0,0,.06,0h0l0,0s0,0,0,0,0,0,0,0h0l0,0s0,0,0,0h0s0,0,0,0S7.36,26.51,7.35,26.45ZM6.85,26h0s0,0,0,0,0,0,0,0,0,0,0,0l0,0c0,.05,0,.09-.08,0S6.83,26,6.85,26Z"/><path class="cls-1" d="M33,33.61a.69.69,0,0,0-.32-.29l-.44-.22a.32.32,0,0,1-.2-.15c0-.09-.15-.11-.24-.08a.19.19,0,0,1-.15,0,.44.44,0,0,0-.2,0,.45.45,0,0,1-.32-.14,1.06,1.06,0,0,0-.33-.18,2.43,2.43,0,0,0-.27,0c-.08,0-.16,0-.21-.1a.25.25,0,0,0-.13-.09,1.38,1.38,0,0,1-.39-.23l-.07,0c-.26.06-.46-.1-.68-.19l-.16-.05a1.74,1.74,0,0,1-.36-.13,1.91,1.91,0,0,0-.73-.24,1.12,1.12,0,0,1-.43-.16,4.66,4.66,0,0,0-.5-.25.46.46,0,0,0-.38,0s-.05,0-.08,0a.44.44,0,0,0-.39-.22c-.08-.12-.22-.11-.33-.14a1.11,1.11,0,0,0-.65,0,3.29,3.29,0,0,1-.44.16.27.27,0,0,0-.21.15.17.17,0,0,1-.13.08c-.1,0-.11.08-.09.17s.06.17,0,.25a.11.11,0,0,0,0,.1c.06.13.11.27.17.4a.65.65,0,0,1,.09.41.47.47,0,0,0,.07.22c0,.08.08.15.05.24a.13.13,0,0,0,0,.1,1.17,1.17,0,0,1,.25.67.69.69,0,0,1,0,.35c0,.07.05.13.09.19s.06.09,0,.15a.29.29,0,0,0,.06.28,1.43,1.43,0,0,1,.12.21s-.08,0-.12.06-.09.12,0,.21a1.39,1.39,0,0,1,.31.83,3.1,3.1,0,0,1,0,.43c0,.06,0,.12.06.16a1,1,0,0,1,.12.26s0,.07,0,.09-.08.25-.07.38a1.2,1.2,0,0,0,0,.2c.12,0,.17-.12.27-.13s-.08.08-.06.15.07,0,.09,0,.12,0,.17,0l.15-.16c.1-.11.13-.11.25,0s.12.07.18,0v0a0,0,0,0,1-.05,0h0l0-.07h0s0,0,0,0h0a.45.45,0,0,1-.09-.28c0-.06,0,0,.06,0a.17.17,0,0,1,0,.1h0c.07,0,0,.13.05.18s0,0,0,0h.06a0,0,0,0,1,0,0q.07-.06.09,0l.06,0c.07,0,.09-.13.16-.17s0-.08,0-.13a1.27,1.27,0,0,0-.06-.18s0-.06-.08-.06l0,0s0,.06,0,.08h0v0s0,.05-.06.06l0,.07-.05,0c0-.05,0-.1,0-.15l0-.07v0h0a.07.07,0,0,1,0-.06.14.14,0,0,1,0-.16h.08l0-.35s0,0,0-.05-.09-.13,0-.16,0,.09.06.11,0,0,0,.08,0,0,0,.06a1,1,0,0,1,.1.29s0,.09,0,.1.06.12.08.18.1,0,.12,0a.05.05,0,0,0,.09,0,.07.07,0,0,0,0-.1.4.4,0,0,1,0-.37h0a.16.16,0,0,1-.08-.18c0,.12.11.1.17.12h0c0,.14.11.29.16.44a.14.14,0,0,0,.14.12s.07,0,.1,0,0-.12,0-.18.06,0,.08,0,.06,0,.09,0,.14,0,.19-.15,0-.14.1-.22c-.06.22.16.15.2.27l-.17.11a.83.83,0,0,1-.22.14.57.57,0,0,0-.26.15,1.12,1.12,0,0,1-.4.28c-.05,0-.05.05,0,.08s0,.14-.1.18-.2.08-.25.19a.05.05,0,0,1,0,0,3.35,3.35,0,0,0-.66.32,6.18,6.18,0,0,0-.53.36,2.73,2.73,0,0,0-.3.21c-.06,0-.16.07-.18.19s-.11.09-.19.13a.07.07,0,0,0,0,.1c0,.05.06,0,.1,0s0,0,.06,0,0,0,0,.08a.36.36,0,0,1,0,.43s0,.07,0,.08l.17.13s.1,0,.15,0l.06,0c.06-.08.11,0,.17,0a.3.3,0,0,0-.15.28c0,.06,0,.1.09.06l.3-.14a.84.84,0,0,1,.31-.08.64.64,0,0,0,.45-.19.94.94,0,0,1,.34-.25c.16-.08.25-.23.39-.34,0-.12.09-.12.16-.16s.27-.17.22-.37c0,0,0,0,0-.05s.28-.25.47-.31.11-.12.14-.2,0-.18.15-.18.23-.1.31-.22a.08.08,0,0,1,.1,0c.2.08.32,0,.42-.18a.55.55,0,0,1,.17-.17,5,5,0,0,0,.5-.41.68.68,0,0,1,.23-.14c.1,0,.16-.11.26-.14a.1.1,0,0,0,.06-.08c0-.1.14-.1.14-.2h0l0,0h0c-.08,0-.12.09-.22.09a.38.38,0,0,1,.23-.17,1.07,1.07,0,0,1,.21-.13s.06,0,.1,0,.16,0,.18-.11,0-.1.09,0,.1,0,.1-.11,0-.06,0-.08a.62.62,0,0,0,.3-.32.49.49,0,0,1,.16-.16c.12-.06.22-.15.34-.21a.28.28,0,0,0,.15-.17.2.2,0,0,1,.14-.13.57.57,0,0,0,.34-.34c0-.1.14-.16.18-.26S33,33.65,33,33.61Zm-4,1.77h0v0Zm-.88-.29h0Zm.17.56h0ZM26,32.27a.06.06,0,0,1,.08,0,0,0,0,0,1,0,0s-.06,0-.09,0l0,0Zm0-.13,0,0v0H26s0,0,0,0,0,0,0,0l0,0h0Zm.27.51c.08,0,.12.05.1.14a.2.2,0,0,0,0,.15c0,.1,0,.22.1.3s0,.06,0,.08,0,.33-.05.49a1.43,1.43,0,0,1,.09.54.77.77,0,0,1,0,.25c0,.1.13.15,0,.25a.24.24,0,0,1,0,.33.13.13,0,0,1-.09-.11,1,1,0,0,0-.07-.23.74.74,0,0,1,0-.32.9.9,0,0,0-.09-.4,2,2,0,0,1-.19-.58,1.11,1.11,0,0,0-.09-.31,4.23,4.23,0,0,1-.23-.48.94.94,0,0,0-.13-.32.37.37,0,0,1,.29.07A.87.87,0,0,0,26.32,32.65Zm-.06-.32h0s0,0,0,0h0S26.25,32.35,26.26,32.33Zm0-.15v0l0,0v0Zm.12,0v0s0,0,0,0a0,0,0,0,1,0,0S26.33,32.19,26.34,32.2Zm0,.19s0,0,0,0h0Zm.32.34.38.2c-.11.06-.15.18-.28.25C26.82,33,26.7,32.9,26.69,32.73Zm.51,1h0s.05,0,0,.06a.07.07,0,0,1-.08,0s0,0,0-.09-.08-.08,0-.11,0,.06.07.08v0Zm-.55-1.36h0s0,0,0,0h0s-.07,0-.05-.06,0,0,.07,0S26.63,32.32,26.65,32.35Zm.28,0h0v0h0Zm.43.24c0,.06,0,.09-.05.13s-.12.07-.17,0,0-.05-.05-.05a.08.08,0,0,1-.1,0h0a.07.07,0,0,1-.06,0,0,0,0,0,1,0,0s-.09,0-.13,0,0-.06-.06,0,0,0-.07,0,0,0,0,0h0l0,0a0,0,0,0,1,.05,0v0h0c.05-.07.07,0,.09,0s.07,0,.09,0h0c.05,0,.05,0,.07.08h0c.06-.09.07,0,.1,0h0c.07-.08.08,0,.12,0h0s.07,0,.07-.08,0,0,.05,0l.05,0h0C27.45,32.47,27.35,32.51,27.36,32.55Zm.46.93h0a2.4,2.4,0,0,1,0,.37c-.24,0-.29.11-.23.29a.3.3,0,0,0,0,.1c.11.1.08.18,0,.28a3.13,3.13,0,0,1-.38.45A1.61,1.61,0,0,1,27,34c.07,0,.14,0,.2,0a2,2,0,0,1,.39-.38c0-.13.09-.1.15-.14s0-.1,0-.1S27.83,33.43,27.82,33.48ZM29,35.68c0,.06-.05.13-.13.12h0s0-.14.11-.14S29.05,35.66,29,35.68Zm-1.12-3s0,0,0,0a.05.05,0,0,1-.07,0s0,0,0,0S27.9,32.68,27.92,32.71ZM30.39,36s0,0,0,0,0,0,0,0,0,0,0,0S30.39,36,30.39,36Zm-.11.07,0,0h0s0,0,0,0Zm-1-.8v0a.1.1,0,0,1-.09,0l0,0h0S29.27,35.22,29.3,35.26Zm.81.9h0l0,0s0,0,0,0l0,0s0,0-.06.06h0s0,0,0,0a.85.85,0,0,1-.32.21A.63.63,0,0,1,30.11,36.16Zm-1.63-3.37,0,0h0s0,0,0,0Zm.1,0h0l0,0h0Zm.3.64,0,0,0,0s0,0,0,0S28.89,33.44,28.88,33.46Zm.41-.37s0,0,0,0l0,.07h0s0,.09-.07.06h0a.14.14,0,0,1-.14-.14h0l0,0h0s0,.07,0,.06-.12,0-.17-.06-.08,0-.08-.06a.14.14,0,0,1,.07-.1c.06,0,.11-.07.18,0s.13,0,.18.08h0s0,0,0,0l0,.06h0l.06,0h0S29.27,33.06,29.29,33.09Zm-.37.3s0-.09,0-.14.13,0,.16.08Zm.35.47v0h0a0,0,0,0,1,0,0Zm1,1.08a2,2,0,0,1-.45.24.58.58,0,0,1-.32,0c-.09,0-.11-.06-.05-.14s0-.16.12-.14a0,0,0,0,0,0-.05c0-.09,0-.1.11-.12s.16,0,.2,0S30.15,34.86,30.28,34.94Zm.24-.47h0v0h0A0,0,0,0,1,30.52,34.47Z"/></g></g></g></g></svg>