<svg xmlns="http://www.w3.org/2000/svg" viewBox="0 0 10.191 40.183"><defs><style>.cls-1{fill:#fff;}</style></defs><title>left-wrap</title><g id="Layer_2" data-name="Layer 2"><g id="MENU"><g id="MENU-2" data-name="MENU"><g id="PROJECTS"><g id="CORCHETES"><path class="cls-1" d="M10.189,39.187a.148.148,0,0,0,0-.042.058.058,0,0,1-.043-.045l-.079-.013-.122.008a1.084,1.084,0,0,1-.258.085.2.2,0,0,1-.166.06c-.006-.051.054-.04.058-.082l-.1-.022c-.036.023-.1.014-.1.087l.134.02c-.126.146-.3.137-.456.2a1.238,1.238,0,0,1-.657.2c-.23-.007-.461,0-.691,0l-.04.042c.094.06.221.035.29.157a.235.235,0,0,1,.232-.013h0a1.2,1.2,0,0,1,.416-.044.266.266,0,0,1-.213.061c-.019.091-.081.073-.139.093a.378.378,0,0,1-.3-.006,3.531,3.531,0,0,1-1.283-.3,1.583,1.583,0,0,1-.326-.22,1.783,1.783,0,0,0-.489-.317c-.065-.02-.092-.1-.135-.147a3.982,3.982,0,0,0-.438-.487,1.789,1.789,0,0,1-.3-.4c-.17-.27-.4-.481-.558-.759a1.159,1.159,0,0,1-.079-.207,1.629,1.629,0,0,0-.235-.474,8.062,8.062,0,0,1-.677-1.5C3.4,35,3.427,34.888,3.4,34.774a11.676,11.676,0,0,0-.26-1.15c-.034-.1.053-.143.041-.245-.038-.339-.081-.675-.148-1.007-.016-.081-.068-.169.014-.248.023-.022.009-.061,0-.093-.08-.322-.075-.659-.131-.986a.936.936,0,0,1,0-.434.636.636,0,0,0-.018-.267c-.033-.224-.071-.448-.106-.672-.007-.047-.019-.1.034-.124a4.283,4.283,0,0,0-.006-.689c-.04-.018-.036-.058-.036-.1a3,3,0,0,0-.06-.461c.116.158.082.329.14.464l0,.1a2.6,2.6,0,0,1,.042.491c.108.578.186,1.163.274,1.746a5.14,5.14,0,0,0,.2,1.155.148.148,0,0,1,.037.155.075.075,0,0,0,.007.042.1.1,0,0,1,.03.114l.011.083a.236.236,0,0,1,.038.2c.069.064.048.153.047.237v0c.057-.072.016-.166.04-.246a.07.07,0,0,0-.007-.045.161.161,0,0,1-.033-.157.044.044,0,0,0-.007-.04.161.161,0,0,1-.033-.16.056.056,0,0,0-.009-.036.026.026,0,0,1-.017-.036c0-.006.01-.01.015-.015l0-.047c-.049-.042-.036-.1-.031-.157a.611.611,0,0,1,0-.186c0-.053-.029-.108.013-.171.044.056.019.116.021.171a.309.309,0,0,1,.039.2l.015.045a.151.151,0,0,1,.032.152l-.006.05.012-.006a.157.157,0,0,1,.033.159v.089a1.539,1.539,0,0,1,.092.4,6.175,6.175,0,0,0,.28,1.048c.169.531.324,1.069.485,1.6a.182.182,0,0,1,.077.094,5.027,5.027,0,0,1,.277.566.665.665,0,0,1,.059.272l0,.006h0v0c.03-.006.034.015.032.045.015.015.036.028.042.048s0,.062,0,.066c-.041.02-.033-.031-.045-.052s-.018-.044-.028-.066l0-.035,0-.006h0l-.014-.024a.918.918,0,0,1-.257-.469c-.015-.087-.09-.12-.1-.2-.031-.081-.1-.145-.093-.244l-.08-.1c-.036,0-.078.012-.084-.053a.081.081,0,0,0-.012-.037c-.033.021-.026.064-.036.1a.15.15,0,0,0,.009.042.1.1,0,0,1,.035.1,9.535,9.535,0,0,0,.348.96.418.418,0,0,0,.176.226.244.244,0,0,1,.025.359.094.094,0,0,0-.023.105.591.591,0,0,0,.116.2,3.663,3.663,0,0,1,.293.41l.044.01a.03.03,0,0,0,.032-.013l.04-.089a2.7,2.7,0,0,1-.213-.543A.208.208,0,0,1,5,37.229H5L4.989,37.2l.029.016h0c.04.036.093.054.122.108.071.121.142.243.212.365a.518.518,0,0,0,.223.249.239.239,0,0,1,.093.1,3.975,3.975,0,0,0,.621.7c.126.132.307.213.444.341a1.524,1.524,0,0,0,.87.393A2.731,2.731,0,0,0,9,39.378c.063-.046.126-.09.188-.138.018-.013.056-.007.041-.058s-.054-.034-.085-.042l-.008.013-.013,0c-.054.075-.125.033-.189.036a.741.741,0,0,1-.244.009c-.009.027-.023.044-.051.036h0l-.061.013a.47.47,0,0,1-.417,0h0l-.07-.011a.356.356,0,0,1-.26-.041c-.008.01-.016.011-.025,0-.019.037-.037.042-.055,0-.042-.014-.1.01-.125-.05a.067.067,0,0,1-.061-.044L7.5,39.093c-.01.014-.021.036-.03,0l-.057-.06A.049.049,0,0,1,7.357,39H7.343c-.02.034-.041.047-.062,0-.028,0-.037-.028-.045-.054a.029.029,0,0,1-.035-.017c-.031,0-.066.011-.083-.035-.027,0-.042-.018-.051-.046a.029.029,0,0,1-.034-.021c-.021,0-.032-.013-.039-.033h0a.058.058,0,0,1-.061-.04h0c-.013.006-.021,0-.025-.015-.024,0-.038-.012-.045-.037a.065.065,0,0,1-.056-.047c-.013.006-.021,0-.025-.014a.042.042,0,0,1-.049-.033.089.089,0,0,1-.077-.058c-.026,0-.04-.016-.048-.042-.032-.006-.067-.008-.081-.054a.05.05,0,0,1-.043-.047.068.068,0,0,1-.052-.048c-.016,0-.026,0-.03-.023-.021,0-.031-.013-.034-.035l0,0a.048.048,0,0,1-.046-.04c-.025,0-.039-.019-.044-.047a.057.057,0,0,1-.042-.05.051.051,0,0,1-.04-.05.049.049,0,0,1-.036-.054l0,0a.037.037,0,0,1-.03-.042l-.017-.041a.059.059,0,0,1-.038-.06v0a.052.052,0,0,1-.036-.049l0-.007c-.02,0-.031-.014-.031-.038a.026.026,0,0,1-.019-.033.068.068,0,0,1-.046-.056.057.057,0,0,1-.035-.058.054.054,0,0,1-.035-.053l0-.005a.1.1,0,0,1-.055-.08.065.065,0,0,1-.036-.056.049.049,0,0,1-.039-.052.052.052,0,0,1-.038-.052l0,0a.036.036,0,0,1-.032-.045.029.029,0,0,1-.015-.036.066.066,0,0,1-.04-.061.05.05,0,0,1-.036-.054l0,0a.038.038,0,0,1-.03-.042c-.015,0-.022-.012-.02-.03a.076.076,0,0,1-.043-.063.054.054,0,0,1-.036-.054.04.04,0,0,1-.032-.05.031.031,0,0,1-.014-.037.109.109,0,0,1-.049-.1.053.053,0,0,1-.024-.059A.024.024,0,0,1,5.3,36.7a.057.057,0,0,1-.028-.063.034.034,0,0,1-.012-.042.051.051,0,0,1-.029-.057.036.036,0,0,1-.014-.04.049.049,0,0,1-.032-.059.033.033,0,0,1-.01-.039c-.039-.022-.04-.064-.042-.106-.039-.02-.04-.06-.04-.1a.1.1,0,0,1-.041-.1h0a.1.1,0,0,1-.035-.1.045.045,0,0,1-.009-.045.114.114,0,0,1-.04-.1h0a.1.1,0,0,1-.042-.1l-.011-.011,0-.017a.066.066,0,0,1-.03-.07.028.028,0,0,1-.01-.037.124.124,0,0,1-.041-.108.093.093,0,0,1-.034-.1L4.8,35.32a.057.057,0,0,1-.036-.065h0a.118.118,0,0,1-.04-.1v0a.091.091,0,0,1-.037-.1l-.009-.09a.278.278,0,0,1-.043-.153.11.11,0,0,1-.043-.1.105.105,0,0,1-.043-.1.11.11,0,0,1-.036-.1h0a.1.1,0,0,1-.037-.1.048.048,0,0,1-.007-.045.056.056,0,0,1-.03-.052c-.014,0-.02-.011-.017-.027a.175.175,0,0,1-.031-.171l-.009-.088a.156.156,0,0,1-.034-.158l-.01-.075a.134.134,0,0,1-.034-.122c-.013-.034-.061-.047-.042-.1a.09.09,0,0,1,0-.046c-.019-.01-.036-.022-.029-.051l-.011-.049a.125.125,0,0,1-.035-.1.037.037,0,0,1-.006-.05l0-.1a.038.038,0,0,1-.008-.042l-.088-.1h0c-.044-.025-.024-.046,0-.067h0c0-.063-.078-.1-.044-.174A.054.054,0,0,1,4,32.746a.11.11,0,0,1,0-.087c-.069-.055-.032-.138-.041-.209a.063.063,0,0,1,0-.071.9.9,0,0,1-.043-.319c-.066-.053,0-.139-.037-.2h0c-.074-.047,0-.139-.043-.2-.062-.051-.006-.138-.043-.2h0a.176.176,0,0,1-.018-.059,1.064,1.064,0,0,1-.028-.288l-.009-.014.009-.014c-.059-.061-.033-.143-.039-.216h0a2.386,2.386,0,0,1-.043-.637.183.183,0,0,1,0-.217h0l0-.014c-.056-.043-.022-.11-.03-.165a.021.021,0,0,1-.013-.03.054.054,0,0,1-.031-.07,1.527,1.527,0,0,1-.009-.427.038.038,0,0,1,0-.065,1.32,1.32,0,0,0,0-.344h0a1.076,1.076,0,0,1-.037-.448,1.213,1.213,0,0,0,0-.241l-.012-.01,0-.017a.107.107,0,0,1-.039-.179.227.227,0,0,1,0-.139c-.007-.037.016-.045.037-.057a.048.048,0,0,1,.008-.042l0-.245a.026.026,0,0,1-.006-.038.381.381,0,0,1,0-.362.038.038,0,0,1,.006-.043l-.018-.238,0,0a1.874,1.874,0,0,1-.04-.4c-.03-.027-.024-.053,0-.08h0c-.063-.1-.023-.215-.042-.321a.136.136,0,0,1,.01-.1c.019-.106-.07-.188-.048-.295h0s-.01-.011-.009-.016a.2.2,0,0,1,.009-.033l0-.049a.043.043,0,0,1-.006-.044.937.937,0,0,1-.059-.435v-.006l-.006-.026c-.017-.024-.065-.029-.078-.075-.017-.061-.018-.125-.032-.185a5.453,5.453,0,0,1-.15-.605c0-.065-.141-.075-.051-.18A.04.04,0,0,0,3,23.95s-.015-.1-.014-.108H2.964l-.018,0c-.028,0-.041-.018-.04-.05l-.037-.1h0a.1.1,0,0,1,0-.038l.016,0,.019,0,.049,0a.246.246,0,0,0-.01-.047.072.072,0,0,0-.075.049.077.077,0,0,1-.035-.1c.03-.053.075.01.113,0a.17.17,0,0,0,.01-.032.136.136,0,0,0,0-.017,1.231,1.231,0,0,1-.125-.344c-.04-.029-.011-.064-.007-.1a.7.7,0,0,1-.111-.3h0c0-.012,0-.035,0-.035.021,0,.025,0,.024.016v0l0,.018a.68.68,0,0,1,.134.3l.01.094A.688.688,0,0,1,3,23.435a.23.23,0,0,1,.031.161.058.058,0,0,1,.007.043,1.193,1.193,0,0,1,.085.3c.052.037.023.1.036.151.041.015.03.066.05.1.034-.025.03-.069.041-.105l.007-.188L3.241,23.8a.054.054,0,0,1-.028-.059l-.017-.08a.156.156,0,0,1-.026-.116.04.04,0,0,1-.014-.041.05.05,0,0,1-.035-.059l-.012-.011,0-.018a.067.067,0,0,1-.026-.068l-.012-.1c-.042-.041-.027-.1-.03-.15l-.012-.045a.1.1,0,0,1-.035-.1.043.043,0,0,1-.009-.041.047.047,0,0,1-.032-.058.04.04,0,0,1-.009-.042.049.049,0,0,1-.03-.056l-.012-.045a.116.116,0,0,1-.039-.1h0l-.125-.343a.029.029,0,0,1-.005-.037.062.062,0,0,1-.043-.058c-.044-.032-.038-.09-.051-.139a.057.057,0,0,1-.033-.057c-.033-.019-.038-.058-.047-.094a.045.045,0,0,1-.039-.054c-.041-.1-.081-.2-.122-.3-.1-.245-.1-.246.079-.446a.091.091,0,0,1,.084-.1c.012-.049-.015-.115.049-.14h0c0-.026.017-.04.041-.038q.006-.024.027-.018a.062.062,0,0,1,.056-.045c.006-.026.019-.042.044-.038l.011-.016h.017a.07.07,0,0,1,.05-.05.1.1,0,0,1,.052-.082l0-.007a.053.053,0,0,1,.034-.052.051.051,0,0,1,.036-.057c.022-.059.04-.139.1-.132.11.011.1-.1.146-.161h0a.115.115,0,0,1,.049-.1c0-.04,0-.083.038-.1,0-.038,0-.081.043-.1a.185.185,0,0,1,.043-.111h0c-.007-.016,0-.026.011-.032a.1.1,0,0,1,.041-.1c0-.039-.014-.086.032-.105,0-.039-.007-.084.033-.107l.018-.085,0-.05a.052.052,0,0,1,.032-.062.03.03,0,0,1,.014-.037.04.04,0,0,1,.03-.051c.009-.051-.015-.115.042-.147.012-.049,0-.111.047-.142v0c0-.039-.014-.087.034-.105.031-.061-.023-.146.04-.2.016-.048.005-.108.051-.14v0c0-.039,0-.082.036-.1l.025-.133a.182.182,0,0,1,.016-.08l0-.076c-.028-.017-.034-.036,0-.054,0-.042,0-.082.039-.1A.159.159,0,0,1,4,17.723.689.689,0,0,1,4,17.5c-.042-.052-.072-.1,0-.152l0,0a.151.151,0,0,1,.039-.047l0,0a.259.259,0,0,1,.036-.158.033.033,0,0,1,0-.04.421.421,0,0,1,.038-.26.18.18,0,0,1,0-.117.544.544,0,0,1,0-.367h0a.055.055,0,0,1,0-.04v.005h0c-.058-.078-.017-.171-.029-.256v-.048a8.931,8.931,0,0,0-.138-1.265.812.812,0,0,1-.032-.36l-.007-.141c-.053-.077-.029-.168-.036-.254l0-.293h0c-.07-.084-.043-.2-.076-.3,0-.013,0-.035.01-.037.024-.007.028.016.03.038a.456.456,0,0,1,.075.3l.01.183c.05.043.038.1.032.161a.3.3,0,0,1,0,.145.028.028,0,0,1,.007.036c.04.028.022.072.023.111A.3.3,0,0,1,4,14.374a.042.042,0,0,1,0,.018l.006.05c.048.31.068.626.136.933a.074.074,0,0,1,.033,0l.037-.06a.194.194,0,0,1,0-.02c0-.013,0-.026.007-.039a2.371,2.371,0,0,1-.029-.519l-.006-.051,0-.1h0c-.055-.054-.027-.129-.037-.195l-.006-.1c-.062-.054-.024-.132-.036-.2a.141.141,0,0,1-.006-.1l0-.1-.01-.176c-.052-.082-.023-.178-.035-.267l-.006-.135c-.046-.025-.047-.05,0-.075h0v-.071a.06.06,0,0,1-.027-.063.043.043,0,0,1,0-.052l-.006-.145v-.051L4,12.67v-.142c-.044-.036-.04-.073,0-.111v-.085c-.074-.073-.019-.167-.03-.251l-.005-.051v-.146l-.006-.147a.276.276,0,0,1-.006-.253h0c0-.088-.026-.185.045-.257a.059.059,0,0,1,0-.064.044.044,0,0,1,0-.077H4a.035.035,0,0,1,.008-.041c.025-.081-.034-.179.035-.252a.058.058,0,0,1,0-.041.037.037,0,0,1,0-.062h0a.174.174,0,0,1,0-.121.037.037,0,0,1,0-.065v-.147l0-.1c-.012-.034-.022-.068.006-.1a.091.091,0,0,1,0-.049.268.268,0,0,1,0-.2v-.1l0-.05a.786.786,0,0,1,.036-.4.654.654,0,0,1,0-.292,1.06,1.06,0,0,1,.038-.393h0a.062.062,0,0,1,.038-.062,2.32,2.32,0,0,1,.009-.382.385.385,0,0,1,.033-.261h0a.061.061,0,0,1,0-.066c-.028-.026-.025-.049,0-.07A.045.045,0,0,1,4.218,7.8c.012-.074-.032-.158.03-.222h0A.059.059,0,0,1,4.256,7.5a.617.617,0,0,1,.032-.3c.027-.113-.01-.237.045-.344h0l0-.092,0,0a.025.025,0,0,1-.009-.032c0-.006.011-.009.017-.013v0A.387.387,0,0,1,4.376,6.5h0a.2.2,0,0,1,.01-.127c0-.058-.021-.118.033-.159a.319.319,0,0,1,.009-.186.811.811,0,0,1,.037-.346l.006-.146A.273.273,0,0,1,4.5,5.329a.614.614,0,0,1,.008-.286.043.043,0,0,1,.035-.051c.027-.086-.038-.212.082-.258a.11.11,0,0,1,.012-.085c0-.053-.031-.114.022-.156a.087.087,0,0,1,.049-.059.1.1,0,0,1,0-.079.759.759,0,0,1,.084-.35l.009-.143c0-.116-.039-.238.033-.345a.326.326,0,0,1,.031-.129.059.059,0,0,1,.013-.019l.009-.048a.063.063,0,0,1,.027-.068c-.006-.015,0-.025.01-.03a.053.053,0,0,1,.035-.06.037.037,0,0,1,.011-.039.065.065,0,0,1,.029-.069h0l0-.017.012-.012a.1.1,0,0,1,.039-.1c.011-.081-.009-.171.045-.241v0c0-.04-.011-.086.035-.1a.073.073,0,0,1,.041-.06c-.015-.047-.014-.084.041-.085a.424.424,0,0,0,.049-.046h0l.006-.049c0-.006-.007-.013-.006-.018a.169.169,0,0,1,.013-.031c.025-.024.073-.052.071-.072-.012-.113.064-.119.12-.151h0a.077.077,0,0,1,0-.071c-.033-.066.023-.043.041-.057a.164.164,0,0,1,.044-.107A.025.025,0,0,1,5.569,1.8a.045.045,0,0,1,.03-.052.108.108,0,0,1,.043-.1c0-.04,0-.08.047-.09l0,0a.049.049,0,0,1,.038-.044h0l0-.006a.053.053,0,0,1,.035-.053.05.05,0,0,1,.04-.052c0-.027.014-.048.041-.05A.056.056,0,0,1,5.9,1.306h0a.052.052,0,0,1,.04-.052.047.047,0,0,1,.043-.048.051.051,0,0,1,.043-.047h0a.051.051,0,0,1,.042-.05h0c0-.029.018-.044.043-.044l0,0a.048.048,0,0,1,.04-.043l0-.006c0-.027.013-.043.038-.044l0-.005A.121.121,0,0,1,6.235.915l0,0A.043.043,0,0,1,6.276.861c.006-.025.014-.047.038-.054a.129.129,0,0,1,0-.044c-.01-.082-.124-.14-.04-.243h0A.128.128,0,0,1,6.4.417a.028.028,0,0,1,.034,0l.046-.05L6.5.319a.031.031,0,0,1,.03-.038L6.538.274c0-.023.011-.037.032-.037h0c0-.017.008-.024.022-.022L6.649.148a.072.072,0,0,1-.057.067A.065.065,0,0,0,6.649.148l0-.113c-.109-.084-.2,0-.287.053A.024.024,0,0,1,6.352.12c-.008.044-.04.051-.069.062S6.244.275,6.2.237c-.019-.016,0-.055.03-.065-.031-.114-.081,0-.12-.013L6.067.17v0l0,0h0c0-.035.015-.048.039-.058a.047.047,0,0,1,0-.037L6.059.02c-.092.013-.137.105-.2.168-.048.048-.087.121-.142.142-.137.054-.2.187-.295.3A2.334,2.334,0,0,1,5.073,1a.7.7,0,0,0-.161.142,6.6,6.6,0,0,0-.555.966c-.1.211-.211.417-.317.626A.11.11,0,0,1,4,2.827v0a.063.063,0,0,1-.034.069.022.022,0,0,1-.012.031.06.06,0,0,1-.031.064h0a.024.024,0,0,1-.008.034.1.1,0,0,1-.04.1h0a.11.11,0,0,1-.037.1.121.121,0,0,1-.045.1l-.009.049a.042.042,0,0,1-.028.055.191.191,0,0,1-.043.112h0l0,.018L3.7,3.568a.053.053,0,0,1-.027.06c-.014.048.01.114-.047.142a.184.184,0,0,1-.042.1.106.106,0,0,1-.043.1c-.011.066.013.143-.046.193a.14.14,0,0,1-.038.119h0l0,.016-.011.011a.163.163,0,0,1-.039.149c0,.042-.005.079-.044.1h0a.074.074,0,0,1-.035.068c.007.014,0,.024-.008.031a.1.1,0,0,1-.042.095v0a.065.065,0,0,1-.034.069.022.022,0,0,1-.011.032.055.055,0,0,1-.026.058.184.184,0,0,1-.041.12.035.035,0,0,1-.013.014v0a.129.129,0,0,1-.033.106.232.232,0,0,1-.043.114h0l.007.013-.009.012c.01.042-.017.052-.042.063l0,.085c.013.043-.017.048-.039.06l0,.088c.015.043-.015.049-.037.061l0,.079c.029.021.04.039,0,.05l0,0-.031.078a.078.078,0,0,1,0-.022.054.054,0,0,0,0,.022h0c.039.028.051.054,0,.079L2.9,6.027s.013.012.012.017a.14.14,0,0,1-.013.034.056.056,0,0,1-.03.058.026.026,0,0,1,0,.029c.033.021.041.043,0,.064l-.01.093c0,.007.008.014.007.019a.226.226,0,0,1-.013.033.457.457,0,0,1-.017.177.229.229,0,0,1-.01.023c-.018.07-.007.147-.03.215a.122.122,0,0,1-.014.033.1.1,0,0,1,0,.092l0,.048c.024.016.039.033.006.056l-.01.141a.042.042,0,0,1,0,.05c.007.037-.015.048-.038.059l0,.066c.029.056.044.111-.009.162l0,.006.006.1h0c.04.016.036.032,0,.048h0c-.017.05.03.119-.033.155l0,.087c.063.038.029.074,0,.11h0l0,.091a.054.054,0,0,1-.036.068v.062a.16.16,0,0,1,0,.221.046.046,0,0,1-.007.044l.017.087c.035.028.024.051-.008.071a.117.117,0,0,1-.013.088.072.072,0,0,1-.027.071h0a.055.055,0,0,1,0,.059c.066.058.047.114,0,.168l0,.122a.065.065,0,0,1-.009.113l0,0c-.021.081.053.181-.036.249l0,.092c.03.02.034.038,0,.056v.1h0c.016.006.023.018.015.033s-.011.008-.017.012v0c0,.1,0,.205,0,.308,0,.039,0,.077-.039.091a.183.183,0,0,0,.016.136h0l.013,0,.007.015c.011,0,.029.005.031.013.007.026-.012.029-.027.034l-.01.144c0,.006.012.013.011.017a.192.192,0,0,1-.014.033.139.139,0,0,0,0,.2s.013.011.012.016a.135.135,0,0,1-.011.034c-.018.065.06.15-.03.2l-.042.059h0a.017.017,0,0,1,0,.023.077.077,0,0,1,.04.06c.068.032.03.1.035.149,0,.006.01.012.009.017a.146.146,0,0,1-.01.034c0,.035-.017.038-.038.044l0,0,0,.1,0,0a.035.035,0,0,1,.034.042l.016.01v.021c.021.04.07.083-.005.118h0a.365.365,0,0,0-.041.054.07.07,0,0,1,0,.038.046.046,0,0,1,.03.054l.012.044a.279.279,0,0,1,0,.05l0,.3c.023.051.059.1,0,.154l0,.144v.089c.029.022.038.041,0,.056h0v0a.069.069,0,0,1-.037.06.026.026,0,0,1,0,.028.059.059,0,0,1,.037.061v0c.033.017.03.04.006.065h0v.01c.029.026.04.052,0,.075a.076.076,0,0,1-.042.066h0v.006a.073.073,0,0,1,.034.071h0c.026.049.066.1.006.148a.153.153,0,0,0,.018.134c.019.034.04.088-.015.116l-.016.091c.013,0,.018.012.014.028.04.043.056.085,0,.126a.109.109,0,0,1-.005.044l.005.13c.054.058.066.114,0,.168a.186.186,0,0,0,.021.134c.02.04.03.092-.021.122a.03.03,0,0,1-.016.038.086.086,0,0,1-.024.07h0v0a.071.071,0,0,1,.036.072h0c.029.033.053.066,0,.1l-.006.2c.042.057,0,.12.01.181a.759.759,0,0,1,.032.311.446.446,0,0,1,.009.182,2.6,2.6,0,0,1,0,.876h0a.177.177,0,0,1-.009.124v.048a.033.033,0,0,1,.006.042c.027.021.028.04,0,.057h0a.074.074,0,0,1-.035.074.087.087,0,0,1,.006.1.063.063,0,0,0-.013.067.043.043,0,0,1,.005.07h0c0,.006.011.013.011.018s-.007.026-.01.04c.029.027.034.051-.006.07a.063.063,0,0,1-.038.062.02.02,0,0,1,0,.028.165.165,0,0,1,.043.1c.016.006.032.014.026.037s-.017.012-.027.018a.05.05,0,0,1-.044.047l.043-.047c-.015.014-.029.031-.043.047h0c-.026.08.059.184-.039.248l.007.09c.036.024.028.042-.007.058-.014.085.013.179-.041.255h0a.028.028,0,0,1-.009.039c0,.039,0,.079-.031.1a.074.074,0,0,1-.042.066.084.084,0,0,1-.016.078.041.041,0,0,1-.029.051c0,.04,0,.079-.039.1a.107.107,0,0,1-.048.093A.077.077,0,0,1,2.2,18.7h0l0,.016-.012.01a.065.065,0,0,1-.032.07h0l-.015.078a.039.039,0,0,1-.032.05.052.052,0,0,1-.04.051.057.057,0,0,1-.04.051.121.121,0,0,1-.049.091h0a.051.051,0,0,1-.035.056.132.132,0,0,1-.047.094.091.091,0,0,1-.046.09l0,0a.071.071,0,0,1-.032.068.021.021,0,0,1,0,.032.121.121,0,0,1-.037.117c0,.018,0,.029-.019.033a.033.033,0,0,1-.031.038l-.005.007a.052.052,0,0,1-.034.052.107.107,0,0,1-.042.1.066.066,0,0,1-.037.068q.009.023-.012.03a.049.049,0,0,1-.029.056.111.111,0,0,1-.046.094.11.11,0,0,1-.046.094h0a.105.105,0,0,1-.043.094h0l0,0a.068.068,0,0,1-.033.07h0l.005.017-.011.013a.048.048,0,0,1-.03.06c-.007.037-.007.078-.043.1a.056.056,0,0,1-.049.044.056.056,0,0,1-.041.05.054.054,0,0,1-.043.048.058.058,0,0,1-.04.051.073.073,0,0,1-.042.064c0,.017,0,.027-.019.029,0,.025-.012.037-.032.038l-.006.007c0,.023-.011.037-.032.035a.027.027,0,0,1-.033.022c-.008.029-.023.048-.052.047h0a.442.442,0,0,1-.351,0H.561l-.054.047v.053a.7.7,0,0,1,.1.046c.024.016.016.036-.007.049a.126.126,0,0,0,.036.094h0c.035,0,.075-.014.081.047H.718l0,.007.026.009-.019.02L.72,21.285l-.006,0v0H.634l-.169,0a.185.185,0,0,0-.084.088c.033.025.083,0,.108.05a.3.3,0,0,1-.2,0l-.081,0h0l-.075.009c-.03.066-.089.029-.131.05a.312.312,0,0,1,0,.044H0l.085.1h0a.1.1,0,0,1,.088.048l.123.009c.062-.016.08.032.094.087l.075.013c.055-.007.092.01.081.087-.006.04.019.051.043.062L.63,21.92c.009-.021.021-.036.043-.033a.03.03,0,0,1,.044,0c.084.029.048.068.006.109h0v0a.053.053,0,0,1,0,.083h0l.008.011L.722,22.1l.078.024.064-.014c.085-.082.14-.031.186.058h0c.051.006.054.063.077.1l.006.005c.036.012.049.048.062.083.015,0,.023,0,.025.019.034.009.045.041.053.074a.055.055,0,0,1,.039.052.058.058,0,0,1,.036.057.039.039,0,0,1,.032.05.031.031,0,0,1,.013.037.062.062,0,0,1,.039.061.112.112,0,0,1,.05.09.049.049,0,0,1,.035.055.059.059,0,0,1,.032.055l.005.007c.034.014.044.047.05.084a.048.048,0,0,1,.035.056v0a.107.107,0,0,1,.043.095h0a.079.079,0,0,1,.014.023.255.255,0,0,1,.025.173V23.5l.012.076a.146.146,0,0,1,.044.114c.042.024.03.045-.005.065l0,.088a.087.087,0,0,1,.014.027.337.337,0,0,1,.02.17,1.1,1.1,0,0,1,.013.324.774.774,0,0,1,.031.267l.011.18a.464.464,0,0,1,0,.318l0,.266a.158.158,0,0,1,.03.122l0,.05-.005.244,0,.051v.2l.007.093a1.009,1.009,0,0,1,0,.512.028.028,0,0,1-.009.036.291.291,0,0,1-.025.135l-.011.017-.008.193a1.709,1.709,0,0,1,0,.343l.01.081a.969.969,0,0,1,.035.313l.006.135a.109.109,0,0,1,.01.025.3.3,0,0,1,.023.184l.012.124a.114.114,0,0,1,.03.122l.008.14a.221.221,0,0,1,.015.05.927.927,0,0,1,.022.3.087.087,0,0,1,.008.077.065.065,0,0,1,0,.094h0l0,.015-.01.011-.005.049a2.1,2.1,0,0,1,0,.543l0,.146a.21.21,0,0,1,0,.148v.049a.3.3,0,0,1,.009.179.383.383,0,0,1,.032.165l.013.01,0,.019c.075.065.032.129,0,.193h0a.515.515,0,0,1,.032.221l.011.077a.325.325,0,0,1,.012.052,1.934,1.934,0,0,1,.02.314l.008.184a.445.445,0,0,1,.036.162l0,0c.042.015.043.053.041.095l.011.011,0,.018a.141.141,0,0,1,.03.118l0,.05v.049L2.277,32a.319.319,0,0,1,.04.2l.01.01,0,.014a.161.161,0,0,1,.032.123.032.032,0,0,1,.008.039A.112.112,0,0,1,2.4,32.5a.025.025,0,0,1,.007.036.118.118,0,0,1,.034.112.036.036,0,0,1,.006.042.188.188,0,0,1,.04.155l.011.011-.006.016a.15.15,0,0,1,.032.12l.013.01,0,.017c.048.047.027.112.035.17l.01.01-.005.015a.4.4,0,0,1,.03.171l.011.141a.474.474,0,0,1,.034.253l.007.092c.036.025.035.064.031.1a.04.04,0,0,1,.011.044c.048.039.035.1.042.153.05.036.04.094.038.149l.012.01,0,.017a.063.063,0,0,1,.028.071l.011.087a.108.108,0,0,1,.044.1.05.05,0,0,1,.024.054l.014.048a.12.12,0,0,1,.037.1l.012.011,0,.019a.063.063,0,0,1,.031.069A.025.025,0,0,1,3,34.946a.159.159,0,0,1,.051.1.051.051,0,0,1,.023.061.034.034,0,0,1,.009.041.11.11,0,0,1,.038.107l.011.012,0,.017a.073.073,0,0,1,.026.068.036.036,0,0,1,.013.043.107.107,0,0,1,.041.1c.046.057.02.134.042.2a.093.093,0,0,1,.035.1.045.045,0,0,1,.008.043.1.1,0,0,1,.04.106.108.108,0,0,1,.037.1.024.024,0,0,1,.01.034.055.055,0,0,1,.03.064.038.038,0,0,1,.01.04.047.047,0,0,1,.033.058.042.042,0,0,1,.009.043.046.046,0,0,1,.029.055.04.04,0,0,1,.013.043.047.047,0,0,1,.029.056.039.039,0,0,1,.013.043.1.1,0,0,1,.039.1l.011.01-.005.016.043.115a.043.043,0,0,1,.031.056.03.03,0,0,1,.009.036.064.064,0,0,1,.042.058.052.052,0,0,1,.038.054l-.037-.052h0a.273.273,0,0,0,.037.052h0c.036.015.049.053.062.09h0c.021.006.028.023.025.047a.071.071,0,0,1,.042.056.044.044,0,0,1,.037.053v0a.06.06,0,0,1,.028.042c.015,0,.023.009.022.027a.079.079,0,0,1,.041.068.063.063,0,0,1,.04.051c.026.005.039.022.037.054v0a.177.177,0,0,1,.04.046h0c.052,0,.046.05.052.087a.054.054,0,0,1,.045.045.067.067,0,0,1,.03.063h0c.021.007.037.018.032.048a.027.027,0,0,1,.015.035.105.105,0,0,1,.087.1.05.05,0,0,1,.029.057l.013.01v.017a.074.074,0,0,1,.036.072.134.134,0,0,1,.051.142l.03.056h0a.047.047,0,0,1,.042.048h0a.052.052,0,0,1,.044.047c.026,0,.039.021.041.05a.05.05,0,0,1,.039.051h0l0,0a.043.043,0,0,1,.038.047l0,0a.033.033,0,0,1,.032.042l.054.066c.04.011.032.049.032.082a.039.039,0,0,1,.013.042.233.233,0,0,0,.04.057h0a.047.047,0,0,1,.044.046.058.058,0,0,1,.044.048.05.05,0,0,1,.042.047c.028.011.062.01.069.056l.054.062c.025,0,.034.013.037.039l0,0c.024,0,.037.019.043.044h0a.049.049,0,0,1,.052.038.075.075,0,0,1,.053.053.063.063,0,0,1-.055-.052l-.015,0,.015,0a.062.062,0,0,0,.055.052c.015,0,.023.007.023.025a.053.053,0,0,1,.036.034h0c.025,0,.04.013.047.041a.113.113,0,0,1,.083.051c.029,0,.04.021.048.048h.018l.016.01c.025-.009.043,0,.052.029.034.028.089.01.11.068l0,0a.171.171,0,0,1,.045.04l.042.013h0c.027-.008.035.013.041.037h0a.079.079,0,0,1,.077.052l0,.005a.062.062,0,0,1,.057.036H6.1l.012.017c.033,0,.067,0,.089.036l.079.057c.036-.007.071-.011.085.042l.082.01h.043a.105.105,0,0,1,.1.035h.016l.006.017.094.084h.02l.014.016a.1.1,0,0,1,.092.035h0l.076.015A.086.086,0,0,1,7,40.073l.075.013c.045,0,.093-.013.131.031a.025.025,0,0,1,.033,0c.022-.029.044-.026.067,0h0c.023-.028.045-.024.065.005l.04.007a.258.258,0,0,1,.19.038h0a.465.465,0,0,1,.189.013h.588a.2.2,0,0,1,.122-.009.075.075,0,0,1,.089-.039l.08-.01a.112.112,0,0,1,.131-.04l.08-.009c.066-.055.142-.035.215-.044l.014-.013.018.005c.038-.044.089-.035.136-.04l.01-.014.015,0a.114.114,0,0,1,.018-.042.1.1,0,0,0-.092-.057h0l-.056-.009c.006-.047.037-.023.057-.027l.1-.1.083.005.08-.009c.027-.07.079-.05.126-.05,0-.032.022-.044.044-.056a.08.08,0,0,1,.086-.039c.041,0,.083-.024.124,0v-.005h0c-.008-.034.01-.046.036-.051a.16.16,0,0,0,0-.044v0a.7.7,0,0,0-.5.108c-.037.06-.078.048-.121.012a.122.122,0,0,1,.122-.072l.338-.142a.462.462,0,0,1,.166-.057l.008-.012.013,0a.1.1,0,0,1,.106-.04l.008-.013.014,0a.054.054,0,0,1,.061-.035l.01-.015.016,0A.07.07,0,0,1,10.189,39.187ZM5.03,36.9c.008.006.01.025.015.038s-.019.025-.031.01A.173.173,0,0,1,5,36.905C5.008,36.9,5.022,36.891,5.03,36.9ZM2.865,23.647ZM6.064.174v0l0,0h0c0,.021,0,.037-.022.04,0,0-.013-.01-.013-.014C6.033.176,6.046.17,6.064.174Zm-5.172,21c-.006,0-.015,0-.018-.007s0-.024.019-.021.01.01.015.015ZM2.9,32.444l-.02.031a.418.418,0,0,1-.016-.068.111.111,0,0,1,.014-.041C2.912,32.383,2.9,32.415,2.9,32.444Zm.077.547a.653.653,0,0,1-.07-.251c0-.026-.009-.073.039-.044C3.022,32.785,2.984,32.89,2.98,32.991ZM8.968,39.77l-.011-.015a.13.13,0,0,1,.03-.013l.01.015A.108.108,0,0,1,8.968,39.77Zm.107.145,0-.017.014,0Zm.13-.243-.015-.016c.006,0,.011-.014.016-.014l.016.015C9.216,39.663,9.21,39.673,9.205,39.672Z"/></g></g></g></g></g></svg>