<svg xmlns="http://www.w3.org/2000/svg" viewBox="0 0 10.19 40.18"><defs><style>.cls-1{fill:#fff;}</style></defs><title>left-wrap</title><g id="Layer_2" data-name="Layer 2"><g id="MENU"><g id="MENU-2" data-name="MENU"><g id="PROJECTS"><g id="CORCHETES"><path class="cls-1" d="M10.19,39.19v0a.07.07,0,0,1,0,0H10a1,1,0,0,1-.26.09.18.18,0,0,1-.17.06c0-.05.05,0,.06-.08l-.1,0s-.1,0-.1.08l.13,0c-.12.15-.3.14-.45.2a1.22,1.22,0,0,1-.66.2H7.71l0,0c.09,0,.22,0,.29.15a.24.24,0,0,1,.23,0h0a1.31,1.31,0,0,1,.42,0c-.09.09-.16.06-.21.07s-.09.07-.14.09a.39.39,0,0,1-.3,0,3.33,3.33,0,0,1-1.28-.3,1.36,1.36,0,0,1-.33-.22,1.69,1.69,0,0,0-.49-.31c-.06,0-.09-.1-.13-.15a5.12,5.12,0,0,0-.44-.49,1.74,1.74,0,0,1-.3-.4c-.17-.27-.4-.48-.56-.76l-.08-.21a1.58,1.58,0,0,0-.23-.47,7.83,7.83,0,0,1-.68-1.5c0-.11,0-.22,0-.34a11.25,11.25,0,0,0-.26-1.15c0-.09,0-.14,0-.24,0-.34-.08-.68-.15-1,0-.08-.07-.17,0-.25s0-.06,0-.09c-.08-.32-.08-.66-.13-1a.89.89,0,0,1,0-.43.62.62,0,0,0,0-.27c0-.22-.07-.44-.11-.67,0-.05,0-.1,0-.12a4,4,0,0,0,0-.69s0-.06,0-.1a2.08,2.08,0,0,0-.06-.46c.12.16.08.33.14.47v.09a2,2,0,0,1,0,.49c.11.58.19,1.17.28,1.75a4.94,4.94,0,0,0,.19,1.15.16.16,0,0,1,0,.16.06.06,0,0,0,0,0,.11.11,0,0,1,0,.11v.09a.23.23,0,0,1,0,.2c.07.06,0,.15,0,.23h0c.06-.08,0-.17,0-.25s0,0,0,0a.16.16,0,0,1,0-.16s0,0,0,0a.16.16,0,0,1,0-.16s0,0,0,0a0,0,0,0,1,0,0V32.3a.14.14,0,0,1,0-.15.61.61,0,0,1,0-.19c0-.05,0-.11,0-.17s0,.12,0,.17a.27.27,0,0,1,0,.2l0,0a.16.16,0,0,1,0,.15v.06h0a.18.18,0,0,1,0,.16v.09a1.7,1.7,0,0,1,.09.39A6,6,0,0,0,4,34.09c.17.53.32,1.07.48,1.61a.14.14,0,0,1,.08.09,5.85,5.85,0,0,1,.28.56.67.67,0,0,1,.06.28h0s0,0,0,0l0,0s0,.06,0,.07,0,0,0-.06l0-.06v0h0l0,0a.86.86,0,0,1-.25-.47c0-.08-.09-.12-.1-.2a.51.51,0,0,1-.1-.24l-.08-.1s-.08,0-.08-.06,0,0,0,0,0,.06,0,.09a.09.09,0,0,0,0,0s0,.05,0,.1c.09.33.23.64.35,1a.39.39,0,0,0,.18.22.24.24,0,0,1,0,.36.09.09,0,0,0,0,.11.67.67,0,0,0,.12.2,3,3,0,0,1,.29.41h0s0,0,0,0l0-.08a2.63,2.63,0,0,1-.22-.55A.23.23,0,0,1,5,37.23H5v0H5s.09,0,.12.11l.21.36a.5.5,0,0,0,.22.25.32.32,0,0,1,.1.1,3.79,3.79,0,0,0,.62.7c.13.14.31.22.44.35a1.56,1.56,0,0,0,.87.39A2.78,2.78,0,0,0,9,39.38l.18-.14s.06,0,0-.06-.05,0-.08,0h0c-.06.07-.13,0-.19,0a1,1,0,0,1-.24,0s0,0,0,0H8.57a.45.45,0,0,1-.41,0H8.09a.4.4,0,0,1-.26-.05h0s0,0,0,0-.1,0-.13,0,0,0-.06,0H7.5s0,0,0,0L7.41,39s0,0,0,0h0s0,0-.06,0,0,0,0,0,0,0,0,0-.06,0-.08,0,0,0,0,0,0,0,0,0,0,0,0,0H7a.06.06,0,0,1-.06,0h0s0,0,0,0,0,0,0,0a.05.05,0,0,1-.05,0s0,0,0,0,0,0,0,0a.09.09,0,0,1-.08-.06,0,0,0,0,1,0,0s-.07,0-.08,0a.06.06,0,0,1,0-.05.08.08,0,0,1-.05,0s0,0,0,0,0,0,0,0h0a0,0,0,0,1,0,0s0,0-.05,0,0,0,0-.05a0,0,0,0,1,0,0s0,0,0,0h0s0,0,0,0l0,0a.06.06,0,0,1,0-.06h0s0,0,0,0H6s0,0,0,0,0,0,0,0a.06.06,0,0,1-.05-.05.06.06,0,0,1,0-.06.05.05,0,0,1,0-.06h0a.1.1,0,0,1-.06-.08.06.06,0,0,1,0-.06s0,0,0,0,0,0,0-.05h0s0,0,0,0,0,0,0,0a.05.05,0,0,1,0-.06.07.07,0,0,1,0-.06h0s0,0,0,0l0,0a.08.08,0,0,1,0-.07s0,0,0-.05a0,0,0,0,1,0,0s0,0,0,0a.1.1,0,0,1,0-.1.06.06,0,0,1,0-.06,0,0,0,0,1,0,0,.09.09,0,0,1,0-.07s0,0,0,0a.05.05,0,0,1,0-.05.07.07,0,0,1,0,0s0,0,0-.05,0,0,0,0a.12.12,0,0,1,0-.11s0-.06,0-.1a.08.08,0,0,1,0-.1h0S5,36,5,36s0,0,0,0a.13.13,0,0,1,0-.1H5a.08.08,0,0,1,0-.09h0v0a.09.09,0,0,1,0-.07s0,0,0,0a.12.12,0,0,1,0-.11s0,0,0-.1v-.08s0,0,0-.07h0a.1.1,0,0,1,0-.09h0a.08.08,0,0,1,0-.09V35s0-.1,0-.15a.13.13,0,0,1,0-.1.1.1,0,0,1,0-.1s0-.06,0-.1h0a.1.1,0,0,1,0-.1.07.07,0,0,1,0-.05.06.06,0,0,1,0,0s0,0,0,0,0-.1,0-.17V34a.16.16,0,0,1,0-.16V33.8a.12.12,0,0,1,0-.12s-.06,0,0-.1a.25.25,0,0,0,0-.1v0a.12.12,0,0,1,0-.1s0,0,0-.05v-.1a0,0,0,0,1,0,0l-.09-.1h0s0,0,0-.07h0c0-.06-.08-.1,0-.17a.07.07,0,0,1,0-.06.1.1,0,0,1,0-.09c-.07-.06,0-.14,0-.21a0,0,0,0,1,0-.07.86.86,0,0,1,0-.32c-.06-.05,0-.14,0-.2h0c-.08-.05,0-.14,0-.2s0-.13,0-.19h0s0,0,0-.06a1.36,1.36,0,0,1,0-.29h0v0c-.05-.06,0-.14,0-.21h0a2,2,0,0,1,0-.64.2.2,0,0,1,0-.22h0c-.06,0,0-.11,0-.17s0,0,0,0,0,0,0-.07a1.48,1.48,0,0,1,0-.42,0,0,0,0,1,0-.07,1,1,0,0,0,0-.34h0a1.15,1.15,0,0,1,0-.45,1,1,0,0,0,0-.24h0v0a.11.11,0,0,1,0-.18.34.34,0,0,1,0-.14s0,0,0-.05,0,0,0,0v-.25s0,0,0,0a.36.36,0,0,1,0-.36s0,0,0,0v-.24h0a1.75,1.75,0,0,1,0-.4s0-.05,0-.08h0c-.06-.1,0-.22,0-.33a.14.14,0,0,1,0-.09c0-.11-.07-.19,0-.3h0s0,0,0,0,0,0,0,0v-.05s0,0,0,0a.93.93,0,0,1-.06-.44h0v0s-.07,0-.08-.07a1.48,1.48,0,0,1,0-.19,4,4,0,0,1-.15-.6c0-.07-.14-.08,0-.18A0,0,0,0,0,3,24s0-.1,0-.11H3s0,0,0-.05l0-.1h0v0H3a.06.06,0,0,0,0,0,.07.07,0,0,0-.07,0s-.06-.06,0-.09.08,0,.12,0v0s0,0,0,0a1.25,1.25,0,0,1-.12-.34s0-.06,0-.1a.6.6,0,0,1-.11-.3h0v0s0,0,0,0h0v0a.7.7,0,0,1,.13.29v.1a.65.65,0,0,1,.13.29.27.27,0,0,1,0,.16s0,0,0,0a1.47,1.47,0,0,1,.08.3s0,.1,0,.15,0,.06,0,.09,0-.07,0-.1V23.8a.06.06,0,0,1,0-.06v-.08a.14.14,0,0,1,0-.11s0,0,0,0a.05.05,0,0,1,0-.06h0v0a.06.06,0,0,1,0-.07l0-.1s0-.09,0-.15v0A.11.11,0,0,1,3,23s0,0,0,0,0,0,0-.05,0,0,0-.05,0,0,0,0v-.05a.08.08,0,0,1,0-.1h0l-.13-.34a.08.08,0,0,1,0,0,.07.07,0,0,1,0-.06s0-.09,0-.14a.06.06,0,0,1,0-.06s0,0,0-.09,0,0,0-.05l-.12-.31c-.1-.24-.1-.24.08-.44,0-.07,0-.09.08-.1s0-.12,0-.14h0s0,0,0,0,0,0,0,0a.05.05,0,0,1,.06,0s0,0,0,0v0h0a.08.08,0,0,1,0-.05.1.1,0,0,1,.05-.08h0a.07.07,0,0,1,0-.06s0,0,0,0,0-.14.11-.14.1-.1.14-.16h0a.13.13,0,0,1,0-.09s0-.09,0-.1,0-.08,0-.1a.22.22,0,0,1,.05-.11h0s0,0,0,0a.11.11,0,0,1,0-.1s0-.09,0-.1,0-.09,0-.11l0-.09v0a.05.05,0,0,1,0-.06s0,0,0,0a.05.05,0,0,1,0-.05c0-.05,0-.11,0-.14s0-.11,0-.15h0s0-.09,0-.1,0-.15,0-.2,0-.11.05-.14h0s0-.08,0-.1l0-.14a.22.22,0,0,1,0-.08V18s0,0,0-.06,0-.08,0-.1,0-.08,0-.11,0-.14,0-.22-.07-.1,0-.15H4a.1.1,0,0,1,0-.05h0c0-.06,0-.12,0-.16s0,0,0,0a.46.46,0,0,1,0-.26.24.24,0,0,1,0-.12.56.56,0,0,1,0-.36h0v0h0c-.06-.08,0-.17,0-.26v0A9,9,0,0,0,4,14.75c-.06-.11,0-.24,0-.36v-.14c-.05-.08,0-.17,0-.25v-.3h0c-.06-.08,0-.2-.07-.29s0,0,0,0,0,0,0,0a.44.44,0,0,1,.07.3v.18c.05,0,0,.1,0,.16a.38.38,0,0,1,0,.15s0,0,0,0,0,.07,0,.11v.1c0,.31.07.63.14.93h0l0-.06v0s0,0,0,0a2.27,2.27,0,0,1,0-.52v-.15h0c0-.06,0-.13,0-.2V14.3c-.06-.06,0-.14,0-.2a.12.12,0,0,1,0-.1v-.27c0-.09,0-.18,0-.27v-.14s0-.05,0-.07H4v-.07a.09.09,0,0,1,0-.07,0,0,0,0,1,0,0v-.53s0-.08,0-.11v-.09c-.07-.07,0-.17,0-.25v-.34a.3.3,0,0,1,0-.26H4c0-.09,0-.19,0-.26a.06.06,0,0,1,0-.07,0,0,0,0,1,0-.07H4s0,0,0,0,0-.18,0-.26v0a0,0,0,0,1,0-.06H4a.17.17,0,0,1,0-.12,0,0,0,0,1,0-.06v-.25a.09.09,0,0,1,0-.1s0,0,0-.05a.28.28,0,0,1,0-.2V9.77a.9.9,0,0,1,0-.4.7.7,0,0,1,0-.29,1.09,1.09,0,0,1,0-.4h0a.05.05,0,0,1,0-.06,2.41,2.41,0,0,1,0-.38.39.39,0,0,1,0-.26h0a.06.06,0,0,1,0-.07s0,0,0-.07a.06.06,0,0,1,0,0c0-.08,0-.16,0-.22h0s0,0,0-.08a.62.62,0,0,1,0-.3,1.32,1.32,0,0,1,0-.34h0V6.77h0s0,0,0,0h0a.33.33,0,0,1,0-.22h0a.15.15,0,0,1,0-.13c0-.06,0-.12,0-.16a.28.28,0,0,1,0-.18,1,1,0,0,1,0-.35V5.54a.3.3,0,0,1,0-.21.71.71,0,0,1,0-.29s0,0,0,0,0-.21.08-.26a.08.08,0,0,1,0-.08c0-.05,0-.12,0-.16s0,0,0-.06a.06.06,0,0,1,0-.07c0-.14,0-.24.08-.36V3.86c0-.11,0-.24,0-.34a.5.5,0,0,1,0-.13l0,0V3.32a.09.09,0,0,1,0-.07,0,0,0,0,1,0,0,.05.05,0,0,1,0-.06s0,0,0,0,0-.05,0-.07H5a.11.11,0,0,1,0-.1.49.49,0,0,1,0-.24h0s0-.08,0-.1,0-.05,0-.06,0-.09,0-.09l0,0h0V2.34s0,0,0,0a0,0,0,0,1,0,0s.07,0,.07-.07.06-.12.12-.15h0a.11.11,0,0,1,0-.08c0-.06,0,0,0-.05s0-.08,0-.11,0,0,0,0a.06.06,0,0,1,0-.06.1.1,0,0,1,0-.09s0-.08.05-.09h0s0,0,0,0h0a.07.07,0,0,1,0-.05s0-.05,0-.05,0,0,0,0a.05.05,0,0,1,.05,0h0a.05.05,0,0,1,0-.05s0,0,0-.05,0,0,0,0H6s0,0,.05,0h0s0-.05,0-.05h0s0,0,0,0h0s0,0,0,0h0l0,0h0s0-.05,0-.05,0,0,0,0a.09.09,0,0,1,0-.05c0-.08-.13-.14,0-.24h0A.12.12,0,0,1,6.4.42a0,0,0,0,1,0,0l.05,0,0,0s0,0,0,0h0a0,0,0,0,1,0,0h0s0,0,0,0L6.65.15s0,.06-.06.06A.05.05,0,0,0,6.65.15V0c-.11-.09-.19,0-.29,0s0,0,0,0,0,.05-.07.06,0,.1-.08.06,0-.06,0-.07-.08,0-.12,0h0a0,0,0,0,1,0-.06.08.08,0,0,1,0,0L6.06,0C6,0,5.92.13,5.86.19s-.09.12-.14.14-.21.19-.3.3A2,2,0,0,1,5.07,1a1,1,0,0,0-.16.14,6.57,6.57,0,0,0-.55,1L4,2.73a.13.13,0,0,1,0,.1H4A.09.09,0,0,1,4,2.9s0,0,0,0a0,0,0,0,1,0,.06h0s0,0,0,0a.11.11,0,0,1,0,.09h0a.11.11,0,0,1,0,.11.11.11,0,0,1,0,.09v.05a0,0,0,0,1,0,.06.22.22,0,0,1,0,.11h0v0h0a0,0,0,0,1,0,.06c0,.05,0,.11-.05.14a.18.18,0,0,1,0,.1.12.12,0,0,1,0,.1c0,.06,0,.14,0,.19s0,.09,0,.12h0v0h0a.14.14,0,0,1,0,.15s0,.07,0,.09h0a.07.07,0,0,1,0,.07,0,0,0,0,1,0,0,.11.11,0,0,1-.05.09h0a.09.09,0,0,1,0,.07,0,0,0,0,1,0,0,.09.09,0,0,1,0,.06.19.19,0,0,1,0,.12h0a.15.15,0,0,1,0,.11.21.21,0,0,1,0,.11h0v0h0s0,0,0,.06v.09s0,0,0,.06v.09s0,0,0,.06v.08s0,0,0,0h0l0,.08a0,0,0,0,1,0,0,0,0,0,0,0,0,0h0s.06,0,0,.08V6h0s0,0,0,0a.07.07,0,0,1,0,.06v0s0,0,0,.06v.11l0,0a.53.53,0,0,1,0,.18,0,0,0,0,0,0,0c0,.07,0,.15,0,.22l0,0a.1.1,0,0,1,0,.09V7s0,0,0,.06v.14a0,0,0,0,1,0,0s0,0,0,.06v.06c0,.06,0,.12,0,.17h0v.1h0s0,0,0,.05h0s0,.12,0,.16v.08c.06,0,0,.08,0,.11h0v.09a.05.05,0,0,1,0,.07v.06a.17.17,0,0,1,0,.23.06.06,0,0,1,0,0l0,.09s0,.05,0,.07a.15.15,0,0,1,0,.09.07.07,0,0,1,0,.07h0a0,0,0,0,1,0,0,.11.11,0,0,1,0,.17v.13s0,.07,0,.11h0c0,.08.05.18,0,.25v.09s0,0,0,.06v.1h0s0,0,0,0h0v.3s0,.08,0,.09a.22.22,0,0,0,0,.14h0s0,0,0,0,0,0,0,0v.14l0,0,0,0a.15.15,0,0,0,0,.2v0a0,0,0,0,1,0,0c0,.07.06.15,0,.2l0,.06h0s0,0,0,0a.09.09,0,0,1,0,.06c.07,0,0,.1,0,.15s0,0,0,0a0,0,0,0,1,0,0s0,0,0,0h0v.1h0s0,0,0,0h0v0s.06.08,0,.12h0l0,0v0a0,0,0,0,1,0,.05v.39c0,.06,0,.11,0,.16v.23s0,0,0,.06h0a.07.07,0,0,1,0,.06,0,0,0,0,1,0,0,.07.07,0,0,1,0,.06h0s0,0,0,.06h0s0,.06,0,.08a.12.12,0,0,1-.05.07h0a.08.08,0,0,1,0,.07h0c0,.05.07.1,0,.15a.23.23,0,0,0,0,.14s0,.08,0,.11l0,.09s0,0,0,0a.08.08,0,0,1,0,.13V14c0,.06.06.11,0,.17a.19.19,0,0,0,0,.13.08.08,0,0,1,0,.12s0,0,0,0a.08.08,0,0,1,0,.07h0a.07.07,0,0,1,0,.07h0s.05.07,0,.1v.19c0,.06,0,.12,0,.18a.69.69,0,0,1,0,.32,1.09,1.09,0,0,1,0,.18,2.82,2.82,0,0,1,0,.87h0a.28.28,0,0,1,0,.13v.05s0,0,0,0,0,0,0,.05h0a.22.22,0,0,0,0,.17s0,0,0,0V17s0,0,0,.07h0s0,0,0,0,0,0,0,0,0,.05,0,.07a.05.05,0,0,1,0,.06,0,0,0,0,1,0,0,.13.13,0,0,1,0,.1s0,0,0,0,0,0,0,0a0,0,0,0,1,0,0l0,0,0,0h0c0,.08.06.19,0,.25v.09s0,0,0,.06,0,.18,0,.25h0s0,0,0,0,0,.08,0,.1a.07.07,0,0,1,0,.07.11.11,0,0,1,0,.08,0,0,0,0,1,0,.05.12.12,0,0,1,0,.1.11.11,0,0,1,0,.09.1.1,0,0,1,0,.08h0a.08.08,0,0,1,0,.07h0l0,.08a0,0,0,0,1,0,.05,0,0,0,0,1,0,0s0,.05,0,.05a.13.13,0,0,1,0,.09H2s0,0,0,.05a.1.1,0,0,1,0,.09.11.11,0,0,1,0,.1h0a.09.09,0,0,1,0,.07s0,0,0,0a.12.12,0,0,1,0,.12s0,0,0,0a0,0,0,0,1,0,0h0a.06.06,0,0,1,0,.06.11.11,0,0,1-.05.1,0,0,0,0,1,0,.06s0,0,0,0a.06.06,0,0,1,0,.06.13.13,0,0,1-.05.09.12.12,0,0,1-.05.1h0a.08.08,0,0,1,0,.09h0a.09.09,0,0,1,0,.07h0v0a0,0,0,0,1,0,.06s0,.07,0,.09a.08.08,0,0,1-.05.05.1.1,0,0,1,0,.05.06.06,0,0,1-.05,0,.05.05,0,0,1,0,.05.05.05,0,0,1,0,.06s0,0,0,0,0,0,0,0H1a0,0,0,0,1,0,0s0,0,0,0,0,.05,0,.05h0a.43.43,0,0,1-.35,0h0L.51,21V21l.09.05s0,0,0,.05a.12.12,0,0,0,0,.09h0s.08,0,.08.05h0l0,0v0H.47a.2.2,0,0,0-.09.09s.08,0,.11.05a.28.28,0,0,1-.2,0H.14c0,.07-.09,0-.14.05v.05H0l.08.1h0a.09.09,0,0,1,.08,0H.3c.06,0,.08,0,.09.09H.46c.06,0,.1,0,.09.09s0,.05,0,.06h0s0,0,0,0,0,0,0,0,.05.07,0,.11h0s0,.05,0,.08h0l.08,0,.06,0c.09-.08.14,0,.19.06h0c.05,0,.06.06.08.1h0s.05.05.07.09,0,0,0,0,.05,0,.06.07a.05.05,0,0,1,0,.05.05.05,0,0,1,0,.06s0,0,0,.05,0,0,0,0a.05.05,0,0,1,0,.06s.05.05.05.09,0,0,0,.05a.06.06,0,0,1,0,.06h0a.13.13,0,0,1,.05.09,0,0,0,0,1,0,.05h0a.11.11,0,0,1,.05.09h0a0,0,0,0,0,0,0,.28.28,0,0,1,0,.18v.22s0,.07.05.12,0,0,0,.06v.09a0,0,0,0,1,0,0,.25.25,0,0,1,0,.17.85.85,0,0,1,0,.32.8.8,0,0,1,0,.27v.18a.47.47,0,0,1,0,.31v.27a.17.17,0,0,1,0,.12v.64a1,1,0,0,1,0,.51s0,0,0,0a.32.32,0,0,1,0,.14V27a1.93,1.93,0,0,1,0,.34v.08a.85.85,0,0,1,0,.32v.13s0,0,0,0a.27.27,0,0,1,0,.18v.12a.12.12,0,0,1,0,.13v.14s0,0,0,0a1,1,0,0,1,0,.3.09.09,0,0,1,0,.07s0,.07,0,.1H2v.06a2,2,0,0,1,0,.55v.14a.2.2,0,0,1,0,.15v0a.37.37,0,0,1,0,.18.45.45,0,0,1,0,.16h0v0c.08.07,0,.13,0,.2h0a.51.51,0,0,1,0,.22v.07a.13.13,0,0,1,0,.06,1.06,1.06,0,0,1,0,.31v.18a.47.47,0,0,1,0,.17h0s0,.05,0,.09h0v0a.17.17,0,0,1,0,.12V32a.34.34,0,0,1,0,.2h0v0a.12.12,0,0,1,0,.12s0,0,0,0,0,.06,0,.11a0,0,0,0,1,0,0,.12.12,0,0,1,0,.12s0,0,0,0a.2.2,0,0,1,0,.15v0h0a.17.17,0,0,1,0,.12h0v0c.05,0,0,.11,0,.17h0a.26.26,0,0,1,0,.17v.14a.46.46,0,0,1,0,.26v.09s0,.06,0,.1a.09.09,0,0,1,0,.05s0,.1,0,.15,0,.09,0,.15h0v0a.06.06,0,0,1,0,.07l0,.08a.15.15,0,0,1,0,.11,0,0,0,0,1,0,0l0,.05a.12.12,0,0,1,0,.1H3v0a.08.08,0,0,1,0,.07s0,0,0,0a.16.16,0,0,1,0,.1s0,0,0,.06,0,0,0,0a.12.12,0,0,1,0,.1v0h0a.09.09,0,0,1,0,.07s0,0,0,0a.12.12,0,0,1,0,.11c0,.06,0,.13,0,.2s0,0,0,.1,0,0,0,0a.12.12,0,0,1,0,.1.18.18,0,0,1,0,.1s0,0,0,0a0,0,0,0,1,0,.06s0,0,0,0a.06.06,0,0,1,0,.06s0,0,0,0a.06.06,0,0,1,0,.06s0,0,0,0a.05.05,0,0,1,0,0s0,0,0,0,0,.06,0,.1h0v0l0,.11a0,0,0,0,1,0,.06s0,0,0,0,0,0,0,0a.07.07,0,0,1,0,.06l0,0h0l0,0h0s0,0,.06.09h0s0,0,0,0a.07.07,0,0,1,0,0,0,0,0,0,1,0,.06h0a.05.05,0,0,1,0,0,0,0,0,0,1,0,0s0,0,0,.07,0,0,0,0a0,0,0,0,1,0,.05h0l0,0h0s0,.05,0,.09a0,0,0,0,1,0,0s0,0,0,.07h0s0,0,0,0,0,0,0,0a.11.11,0,0,1,.09.1.06.06,0,0,1,0,.06h0v0a.07.07,0,0,1,0,.07.14.14,0,0,1,0,.14l0,.06h0a0,0,0,0,1,0,0h0a.07.07,0,0,1,0,0,.07.07,0,0,1,0,.05.06.06,0,0,1,0,.06h0s0,0,0,.05h0s0,0,0,0l0,.07s0,0,0,.08,0,0,0,0l0,.06h0a0,0,0,0,1,0,0,.08.08,0,0,1,0,.05.07.07,0,0,1,0,0s.06,0,.07.06l0,.06s0,0,0,0h0a0,0,0,0,1,0,0h0a.05.05,0,0,1,.05,0,.12.12,0,0,1,0,0,.06.06,0,0,1-.06,0h0a.06.06,0,0,0,.06,0s0,0,0,0,0,0,0,0h0s0,0,.05,0a.12.12,0,0,1,.08.06s0,0,.05,0h0a0,0,0,0,1,.06,0s.09,0,.11.07h0l.05,0h0s0,0,0,0h0a.12.12,0,0,1,.08.06H6a.06.06,0,0,1,.06,0h0a.09.09,0,0,1,.09,0l.08.06s.07,0,.08,0h.13a.1.1,0,0,1,.1,0h0v0l.1.08h0v0s.07,0,.09,0h0l.08,0a.08.08,0,0,1,.09,0l.08,0s.09,0,.13,0h0a0,0,0,0,1,.07,0h0s0,0,.06,0h0a.3.3,0,0,1,.19,0h0a.59.59,0,0,1,.19,0h.59a.25.25,0,0,1,.12,0s.06-.05.09,0h.08a.11.11,0,0,1,.13,0h.08C9,40,9,40,9.1,40h0s.09,0,.14,0h0l0,0a.13.13,0,0,0-.09-.06H9.16s0,0,.06,0l.09-.1h.17c0-.07.07,0,.12,0s0,0,.05,0a.06.06,0,0,1,.08,0s.08,0,.13,0h0s0,0,0,0a.06.06,0,0,0,0,0h0c-.19-.06-.34,0-.51.11s-.07,0-.12,0a.12.12,0,0,1,.12-.07l.34-.14a.58.58,0,0,1,.17-.06h0a.1.1,0,0,1,.1,0h0a0,0,0,0,1,.06,0v0h0A.07.07,0,0,1,10.19,39.19ZM5,36.9s0,0,0,0,0,0,0,0,0,0,0,0ZM2.86,23.65ZM6.06.17h0s0,0,0,0,0,0,0,0A0,0,0,0,1,6.06.17Zm-5.17,21h0a0,0,0,0,1,0,0l0,0Zm2,11.27,0,0s0,0,0-.06,0,0,0,0S2.9,32.41,2.9,32.44ZM3,33a.72.72,0,0,1-.07-.25s0-.07,0,0S3,32.89,3,33Zm6,6.78v0H9v0Zm.11.15v0h0Zm.12-.25h0l0,0v0Z"/></g></g></g></g></g></svg>