<svg xmlns="http://www.w3.org/2000/svg" viewBox="0 0 88 81.45"><defs><style>.cls-1{fill:#fff;}</style></defs><title>logo_small_white</title><g id="Layer_2" data-name="Layer 2"><g id="PROYECTOS"><g id="HQTC"><g id="BTF"><path class="cls-1" d="M28.53,81.15H25.41V69.36a3.15,3.15,0,0,0-.09-.72,1.77,1.77,0,0,0-.4-.73,2.48,2.48,0,0,0-.92-.59,4.52,4.52,0,0,0-1.63-.24,4.78,4.78,0,0,0-1.66.24,2.87,2.87,0,0,0-1,.57,1.53,1.53,0,0,0-.46.71,2.33,2.33,0,0,0-.11.68V81.15H16V69.36a3.19,3.19,0,0,0-.1-.72,1.66,1.66,0,0,0-.4-.73,2.4,2.4,0,0,0-.92-.59A4.49,4.49,0,0,0,13,67.08a4.78,4.78,0,0,0-1.66.24,2.87,2.87,0,0,0-1,.57,1.61,1.61,0,0,0-.46.71,2.72,2.72,0,0,0-.11.68V81.15H6.69V68.77a6.19,6.19,0,0,1,.15-1.17,3.28,3.28,0,0,1,.77-1.47,4.94,4.94,0,0,1,1.87-1.26,8.86,8.86,0,0,1,3.44-.53,10,10,0,0,1,2.88.34,6.1,6.1,0,0,1,1.81.87,6.1,6.1,0,0,1,1.81-.87,10,10,0,0,1,2.88-.34,8.89,8.89,0,0,1,3.44.53,4.94,4.94,0,0,1,1.87,1.26,3.39,3.39,0,0,1,.77,1.49,6.32,6.32,0,0,1,.15,1.15V81.15Z"/><path class="cls-1" d="M38.38,64.34a8.86,8.86,0,0,1,3.44.53,4.86,4.86,0,0,1,1.87,1.26,3.29,3.29,0,0,1,.77,1.49,6.32,6.32,0,0,1,.15,1.15v.9a4.67,4.67,0,0,1-.24,1.39,4.2,4.2,0,0,1-1.12,1.65,2.76,2.76,0,0,1-.91.66,6.56,6.56,0,0,1-.92.33,3.3,3.3,0,0,1-1,.15H37.65a2.39,2.39,0,0,0-1.69.69,2.28,2.28,0,0,0-.73,1.72v-.09a2.55,2.55,0,0,0,.33,1.39,2.2,2.2,0,0,0,.33.44,1.63,1.63,0,0,0,.55.33,3.12,3.12,0,0,0,.75.25,4.86,4.86,0,0,0,1.19.11,4.38,4.38,0,0,0,1.5-.2,3.62,3.62,0,0,0,.77-.35,1.85,1.85,0,0,0,.66-.87,3.34,3.34,0,0,0,.18-1.1h3.12v.88a3.92,3.92,0,0,1-1.72,3.29,5.86,5.86,0,0,1-1.73.77,9.84,9.84,0,0,1-2.78.33,10.45,10.45,0,0,1-2.16-.2,8.76,8.76,0,0,1-1.59-.51A4.16,4.16,0,0,1,33.51,80a5.39,5.39,0,0,1-.74-.8,3.61,3.61,0,0,1-.62-2.2V68.77a6.19,6.19,0,0,1,.15-1.17,3.28,3.28,0,0,1,.77-1.47,4.86,4.86,0,0,1,1.87-1.26A8.86,8.86,0,0,1,38.38,64.34Zm3.11,4.82a1.78,1.78,0,0,0-.09-.52,1.61,1.61,0,0,0-.42-.73,2.61,2.61,0,0,0-.93-.59,4.46,4.46,0,0,0-1.6-.24,4.78,4.78,0,0,0-1.66.24,2.87,2.87,0,0,0-1,.57,1.53,1.53,0,0,0-.46.71,1.29,1.29,0,0,0-.11.49v3.15a1,1,0,0,1,.33-.54,2.14,2.14,0,0,1,.58-.31,3.92,3.92,0,0,1,.66-.15l.52,0H39.4a2,2,0,0,0,1.47-.61,2,2,0,0,0,.62-1.44Z"/><path class="cls-1" d="M65.92,77.89v3.26H62.74V77.89Zm0-1.77H62.77V64.28h3.12Z"/><path class="cls-1" d="M60,76.43V77a6.94,6.94,0,0,1-.14,1.17,3.35,3.35,0,0,1-.77,1.46,5.07,5.07,0,0,1-1.87,1.27,9.09,9.09,0,0,1-3.44.53H47.52V64.34h6.23a9.09,9.09,0,0,1,3.44.53,5.07,5.07,0,0,1,1.87,1.27,3.4,3.4,0,0,1,.77,1.46A6.93,6.93,0,0,1,60,68.78Zm-3.11-.37V69.33a2.74,2.74,0,0,0-.11-.72,1.55,1.55,0,0,0-.46-.71,3,3,0,0,0-1-.57,4.85,4.85,0,0,0-1.69-.24h-3v9l0,2.63h3a4.85,4.85,0,0,0,1.69-.24,3,3,0,0,0,1-.57,1.51,1.51,0,0,0,.46-.71,2.8,2.8,0,0,0,.11-.71Z"/><path class="cls-1" d="M81.31,81.16H78.2V73.84l-.79.29-1.56.55-2.2.73a3.12,3.12,0,0,0-.84.37,3,3,0,0,0-.61.57,1.41,1.41,0,0,0-.27.89v3.92H68.85V68.71A6.32,6.32,0,0,1,69,67.56a3.24,3.24,0,0,1,.77-1.49,4.94,4.94,0,0,1,1.87-1.26,8.89,8.89,0,0,1,3.44-.53,9,9,0,0,1,3.45.53,4.82,4.82,0,0,1,1.86,1.26,3.15,3.15,0,0,1,.77,1.49,6.32,6.32,0,0,1,.15,1.15ZM73,72.54c.51-.19,1-.37,1.56-.55l1.42-.5.72-.25a1.91,1.91,0,0,0,1.21-.92,2.69,2.69,0,0,0,.26-1.06h0a2.8,2.8,0,0,0-.11-.72,1.7,1.7,0,0,0-.46-.71,3,3,0,0,0-1-.57A4.88,4.88,0,0,0,75,67a4.38,4.38,0,0,0-1.59.23,2.43,2.43,0,0,0-.94.61,1.77,1.77,0,0,0-.42.75,3.07,3.07,0,0,0-.09.71v3.59Z"/><path class="cls-1" d="M88,0h-.3a19,19,0,0,0-14,5.82,19.15,19.15,0,0,0-5.82,14.06V34.36h0v2.31c-.18,3.88-1.21,6.79-3.11,8.75a10.31,10.31,0,0,1-7.71,3.24,11,11,0,0,1-10.94-11V23.23H59.39V14.32H46.17V0H37.26V21.18A19,19,0,0,0,26.5,17.92h-.14a19,19,0,0,0-10.75,3.25V19.62A19.15,19.15,0,0,0,9.79,5.56,19.11,19.11,0,0,0,0,.15v9.3a10.8,10.8,0,0,1,3.51,2.39,10.43,10.43,0,0,1,3.18,7.65V34h0V57.59h8.92V54.33a18.9,18.9,0,0,0,10.75,3.25h.14a19.52,19.52,0,0,0,14-5.81c.46-.45.88-.93,1.29-1.39.39.47.82.93,1.27,1.38a19.14,19.14,0,0,0,14.05,5.82,19.14,19.14,0,0,0,10.8-3.15v3.16h8.92V43.19h6.69V34.27H76.85V19.76A10.45,10.45,0,0,1,80,12.1a10.47,10.47,0,0,1,7.66-3.17H88ZM34.06,45.48a10.72,10.72,0,0,1-15.26,0,10.61,10.61,0,0,1-3.19-7.77A10.89,10.89,0,0,1,26.43,26.84,10.89,10.89,0,0,1,37.25,37.71,10.61,10.61,0,0,1,34.06,45.48Z"/></g></g></g></g></svg>