<svg xmlns="http://www.w3.org/2000/svg" viewBox="0 0 27.039 26.329"><defs><style>.cls-1{fill:#fff;}</style></defs><title>menu-close</title><g id="Layer_2" data-name="Layer 2"><g id="MENU"><g id="MENU-2" data-name="MENU"><path id="X" class="cls-1" d="M27.034,20.055a.02.02,0,0,1-.023-.01.116.116,0,0,1-.121-.051h-.142c-.011.019-.022.02-.033,0l-.028,0h0c-.1-.023-.2.031-.294-.024h0a.069.069,0,0,1-.061-.03l-.028-.008c-.024,0-.047,0-.062-.021h0l-.056,0c-.04-.01-.088.019-.121-.025a.658.658,0,0,1-.2-.005l-.088,0h0l-.03,0c-.051-.012-.109.022-.155-.023l-.007,0-.007,0c-.024.026-.047.027-.07,0h-.051c-.013.023-.025.022-.037,0h0l-.056-.007-.021-.006c0-.014.01-.017.019-.022l-.026-.062c-.043-.01-.054-.044-.061-.08h-.029l-.006.008-.01,0c-.026.038-.05.024-.074,0-.033,0-.067,0-.092-.029a.058.058,0,0,1-.054,0,.066.066,0,0,1-.066-.025.015.015,0,0,1-.022-.006.065.065,0,0,1-.064-.024l-.055-.008a.058.058,0,0,1-.062-.022l-.173-.006c-.015,0-.03,0-.043,0a.167.167,0,0,1-.2-.085l-.086,0h0c-.008.018-.017.018-.027,0h0a.03.03,0,0,1-.035-.022.088.088,0,0,1-.058-.035.018.018,0,0,1-.021,0c-.041.032-.082.061-.122,0-.051-.026-.114.028-.16-.026H23.81c-.016.018-.029.018-.041,0H23.71a.022.022,0,0,1-.03,0l-.058,0-.03,0c-.041,0-.085.013-.119-.023a.058.058,0,0,1-.055-.033h0a.024.024,0,0,1-.029-.027h0c-.054-.062-.13-.055-.2-.06A.18.18,0,0,1,23,19.11v-.03h0c-.075.04-.141,0-.208-.027l-.083,0c-.053.015-.1-.021-.145-.032a.165.165,0,0,1-.16-.04.161.161,0,0,1,.16.019h0c.053-.015.1.015.144.027h.145c.051.015.108.014.147.058h0v0h.03c.136.057.287.071.419.142h0l.011,0,.01.008c.043,0,.088-.015.122.023.039.019.088,0,.124.032h0l.256.007a1.81,1.81,0,0,1,.422.022h0l.05.009a.129.129,0,0,1,.093.022.147.147,0,0,1,.083.006l.028,0v0h0c.015-.048.043-.038.074-.014a.061.061,0,0,1-.074.014v0h0l.006.084.054.007.085,0c.015-.023.039-.022.062-.02a.109.109,0,0,1,.09,0,.127.127,0,0,1,.077.014l.012.009h.2c.006-.015.015-.024.033-.02a.819.819,0,0,1,.221-.012.1.1,0,0,0,.018-.085l0,0c-.017,0-.047,0-.046-.015v0h0c0-.023.03-.01.048-.009l.174,0a.041.041,0,0,1,.066,0h0l.01,0,.009,0a.082.082,0,0,1,.019-.009l.044-.022h0c-.027-.043-.092-.009-.116-.057a.023.023,0,0,1,0-.028.03.03,0,0,1,0-.026l-.072-.03h0a.126.126,0,0,1-.118,0h0a.02.02,0,0,1-.033,0,.028.028,0,0,1-.049,0h0l-.006,0-.006,0a1.9,1.9,0,0,1-.392.022l-.059,0c-.022.008-.034,0-.043-.022-.015,0-.02-.012-.019-.027a.189.189,0,0,0-.142,0c-.012.025-.025.019-.039,0h0a.015.015,0,0,1-.023,0c-.041,0-.085.01-.119-.026l-.012,0h-.012c-.014.026-.027.02-.04,0h0a.019.019,0,0,1-.024-.008c-.039,0-.085.024-.114-.025l0,0h0l-.059,0c-.011.021-.02.02-.029,0h0A.031.031,0,0,1,24.266,19c-.044-.006-.1.046-.134-.037a.321.321,0,0,1,.138,0h.085c.033-.034.065-.021.1,0H24.5c.035-.046.071-.022.107,0h0l.044,0a.061.061,0,0,1,.1,0h0l.049,0c.013-.021.026-.022.04,0h.217a.036.036,0,0,1,.052,0h0l.048.006h.029l.082,0a.084.084,0,0,0,0-.084.024.024,0,0,1-.025-.027l-.062-.033-.113-.005c-.051,0-.105.023-.147-.026l-.051-.015a.066.066,0,0,1-.043-.013c-.006.007-.011.007-.017,0a.5.5,0,0,1-.213.021.735.735,0,0,1-.2.009.047.047,0,0,1-.072,0h0a.012.012,0,0,1-.017,0c-.035.044-.084.009-.125.021s-.059.022-.089,0c-.185,0-.369,0-.554,0-.042,0-.088.013-.125-.02a.059.059,0,0,1-.059-.03c-.026,0-.053,0-.065-.028a.015.015,0,0,1-.018,0c-.012.007-.021.019-.035.023l0,0c-.012.021-.025.04-.053.03l-.03,0c-.027.006-.051.006-.065-.023-.018,0-.037.015-.053-.006-.032-.011-.072.012-.1-.023a.014.014,0,0,1-.021-.009l-.013,0c-.029,0-.063.021-.085-.016l-.067-.029c-.026.043-.046.023-.066-.006l0,0a.038.038,0,0,1-.036-.024.018.018,0,0,1-.019,0c-.022.032-.045.038-.067,0a.035.035,0,0,1-.033-.025l-.051,0c-.012.026-.025.021-.037,0h0a.02.02,0,0,1-.025-.01c-.017,0-.024-.008-.028-.022h0a.314.314,0,0,1-.213-.027l-.054-.008a.078.078,0,0,1-.071-.02h0l-.011,0-.006-.009c-.03-.006-.068.017-.092-.019-.042-.012-.092.01-.127-.032h0c-.016.018-.031.017-.045,0a.019.019,0,0,1-.026-.007.026.026,0,0,1-.033-.018.5.5,0,0,1-.262-.063h-.014l-.014,0-.008.008-.011,0c-.025.023-.049.04-.072,0a.1.1,0,0,1-.064-.031h0a.086.086,0,0,1-.081,0,.1.1,0,0,1-.093-.028.022.022,0,0,1-.026-.006c-.041,0-.086.021-.117-.025h0a.044.044,0,0,1-.042-.025l.014,0-.014,0-.009.006-.008-.007c-.041-.013-.09.006-.126-.029a.015.015,0,0,1-.022-.006c-.018,0-.028-.006-.033-.022-.025,0-.054,0-.069-.03l-.045-.009c-.033,0-.069.018-.092-.021-.04-.021-.091-.02-.121-.06h-.039c-.015.019-.031.024-.048,0a.06.06,0,0,1-.056-.034l-.146-.028a.067.067,0,0,1-.058-.008A.026.026,0,0,1,19.989,18a.11.11,0,0,1-.066-.033h0l-.01,0-.006-.008a.174.174,0,0,1-.1-.025h0l-.01,0-.006-.008c-.024,0-.047,0-.056-.029h0c-.022,0-.048,0-.062-.024-.033-.009-.073,0-.1-.028h0l-.01,0-.007-.007a.057.057,0,0,1-.062-.026.9.9,0,0,1-.174-.062l-.03,0a.03.03,0,0,1-.038-.022.014.014,0,0,1-.021-.01.032.032,0,0,1-.034-.021.019.019,0,0,1-.024,0,.116.116,0,0,1-.093-.026.019.019,0,0,1-.025,0,.052.052,0,0,1-.06-.025.035.035,0,0,1-.036-.021c-.03-.009-.067,0-.087-.037a.057.057,0,0,1-.053-.013l-.089-.047a.065.065,0,0,1-.068-.027l-.05-.009c-.018,0-.028-.006-.034-.022a.02.02,0,0,1-.024-.009c-.03-.02-.078,0-.095-.049a.022.022,0,0,1-.023,0c-.028.009-.044-.01-.059-.027l-.03,0c-.02.006-.031,0-.038-.021a.016.016,0,0,1-.021-.008.026.026,0,0,1-.032-.021c-.027,0-.056.006-.068-.029a.052.052,0,0,1-.047-.008.064.064,0,0,1-.06-.026l-.029-.008c-.041,0-.067-.027-.1-.044l-.017-.008h0a.079.079,0,0,1-.069-.024l-.05-.01c-.018,0-.026,0-.031-.02a.046.046,0,0,1-.041-.028l-.009,0-.007-.008c-.025,0-.05,0-.061-.027a.034.034,0,0,1-.031-.027c-.029-.01-.064,0-.084-.034h0a.276.276,0,0,1-.119-.058.058.058,0,0,1-.056-.031h0a.031.031,0,0,1-.032-.026.093.093,0,0,1-.063-.025c-.019,0-.025-.015-.028-.031a.053.053,0,0,1-.037-.03l-.047-.01c-.019,0-.028-.007-.034-.022a.071.071,0,0,1-.055-.035c-.018,0-.027-.008-.03-.025a.04.04,0,0,1-.035-.028l-.053-.01c-.017,0-.025-.007-.031-.02a.035.035,0,0,1-.036-.028.014.014,0,0,1-.021-.008c-.03-.006-.043-.032-.06-.052-.026,0-.053,0-.068-.028-.009,0-.015,0-.019-.006a.027.027,0,0,1-.034-.022c-.023,0-.048,0-.056-.033a.035.035,0,0,1-.033-.025c-.026,0-.053,0-.069-.031h0c-.02,0-.039,0-.048-.022-.023-.007-.05-.006-.061-.033a.1.1,0,0,1-.054-.038l-.029,0a.029.029,0,0,1-.038-.022.015.015,0,0,1-.021-.01c-.018,0-.026-.008-.032-.022a.023.023,0,0,1-.027-.007c-.018,0-.026-.006-.031-.021-.023,0-.046-.006-.058-.03a.03.03,0,0,1-.031-.028.044.044,0,0,1-.034-.025c-.068-.012-.054-.083-.085-.121a.074.074,0,0,1-.057-.033.106.106,0,0,1-.092-.053.243.243,0,0,1-.109-.068h0a.029.029,0,0,1-.033-.023.05.05,0,0,1-.038-.029l-.01,0-.008-.008a.04.04,0,0,1-.051-.029c-.01,0-.014-.007-.012-.017-.028-.015-.069,0-.087-.038a.034.034,0,0,1-.032-.026c-.027-.013-.068.005-.082-.037h0c-.024-.009-.03-.03-.036-.052-.022,0-.047,0-.053-.035a.175.175,0,0,0-.033-.028.025.025,0,0,1-.026,0c-.02.006-.03,0-.035-.023h0c-.021-.037-.077-.018-.1-.059a.012.012,0,0,1-.018-.009c-.019,0-.025-.007-.024-.024l-.01,0v-.011c-.025-.021-.07,0-.085-.042l-.039-.028c-.007.007-.013.006-.019,0-.03.011-.056.014-.062-.028l-.056-.061h0c-.05.014-.083,0-.094-.052-.049-.007-.1,0-.143-.037l-.007-.007,0-.009a.043.043,0,0,1-.027-.041.043.043,0,0,1-.032-.028l-.061-.031a.015.015,0,0,1-.023,0,.11.11,0,0,1-.089-.06h0a.032.032,0,0,1-.031-.027c-.029-.012-.068.008-.09-.027a.076.076,0,0,1-.062-.057.146.146,0,0,1-.112-.065c-.025,0-.053.009-.064-.024a.038.038,0,0,1-.026-.034c-.023,0-.048-.006-.064-.029a.014.014,0,0,1-.022,0l-.011.008H13.81c-.051.04-.062.009-.066-.037a.077.077,0,0,1-.031-.057l-.036-.029a.012.012,0,0,1-.02,0l-.055.009h0c-.079.028-.08.027-.093-.065l-.065-.057a.03.03,0,0,1-.038,0,.039.039,0,0,1-.06,0h0l-.008,0-.006-.007c-.018,0-.031,0-.033-.024s-.02-.018-.019-.033a.015.015,0,0,1-.01-.021l-.064-.036h0l-.05,0c-.053.014-.063-.032-.086-.06h0c-.031-.006-.043-.035-.062-.054-.03,0-.064,0-.081-.034h0l0,0c-.026-.026-.072-.016-.09-.055h0a.039.039,0,0,1-.033-.026c-.041,0-.063-.033-.087-.061-.018,0-.027-.01-.033-.025-.032,0-.066,0-.086-.032a.027.027,0,0,1-.026-.032h0a.069.069,0,0,1-.029-.059h0a.031.031,0,0,1-.024-.029l0,0a.028.028,0,0,1-.025-.025l-.005-.005a.03.03,0,0,1-.028-.024h0a.033.033,0,0,1-.037-.024.019.019,0,0,1-.024-.012c-.016,0-.023-.007-.026-.021h0c-.023,0-.049,0-.062-.025-.028-.011-.063,0-.084-.033h0a.031.031,0,0,1-.032-.026c-.022,0-.047,0-.058-.031a.031.031,0,0,1-.032-.026c-.023,0-.05,0-.062-.026l-.056-.032a.067.067,0,0,1-.062-.032.017.017,0,0,1-.024-.009c-.017,0-.025-.007-.029-.022a.036.036,0,0,1-.035-.024.065.065,0,0,1-.051-.037h0a.034.034,0,0,1-.037-.02.07.07,0,0,1-.053-.037.036.036,0,0,1-.038-.026.016.016,0,0,1-.021-.008c-.018,0-.027-.008-.033-.023a.025.025,0,0,1-.026-.009.024.024,0,0,1-.03-.021.042.042,0,0,1-.04-.027.014.014,0,0,1-.019-.013c-.015,0-.022-.008-.023-.022l0,0a.026.026,0,0,1-.025-.025l0-.005c-.014,0-.023-.007-.022-.022l-.012-.024c-.016-.039-.059-.042-.088-.065l-.028-.006a.032.032,0,0,1-.038-.021.013.013,0,0,1-.02-.007c-.019,0-.028-.007-.031-.024a.031.031,0,0,1-.028-.031c-.037-.02-.02-.039,0-.059h0c0-.024,0-.048.024-.062l0-.052c-.042-.013-.041-.014.007-.063h0c0-.025-.009-.052.022-.066a.065.065,0,0,1,.039-.046l0,0a.033.033,0,0,1,.023-.032c0-.028-.007-.057.026-.072a.011.011,0,0,1,.01-.016.028.028,0,0,1,.022-.031.045.045,0,0,1,.027-.042.06.06,0,0,1-.006.019.06.06,0,0,0,.006-.019v-.011l.009,0a.239.239,0,0,1,.109-.1v-.011l.009-.005c0-.034.036-.041.055-.059a.033.033,0,0,1,.022-.037.039.039,0,0,1,.029-.03.135.135,0,0,1,.066-.082h0l.2-.209c0-.021.012-.027.029-.03a.041.041,0,0,1,.027-.03c0-.024,0-.049.029-.061a.033.033,0,0,1,.038-.022h0c.034-.021.016-.074.057-.09,0-.017.012-.027.03-.025l.008-.008h.011a.043.043,0,0,1,.039-.028.041.041,0,0,1,.03-.028.031.031,0,0,1,.029-.03.037.037,0,0,1,.029-.03.065.065,0,0,1,.055-.063.039.039,0,0,1,.027-.032.072.072,0,0,1,.038-.05h0a.03.03,0,0,1,.028-.032.035.035,0,0,1,.03-.029.028.028,0,0,1,.031-.026h0c.041-.047.037-.129.11-.153.007-.021.008-.045.036-.051l0,0c.013-.034.064-.032.064-.083,0-.067.064-.094.106-.134V10.89l.01-.008c0-.018.007-.023.024-.022a.017.017,0,0,1,.022-.009l.033-.041a.038.038,0,0,1-.01.024.038.038,0,0,0,.01-.024l-.005-.008.005-.007c-.008-.027.012-.033.03-.04-.006-.007-.006-.014,0-.019-.008-.028.011-.03.029-.034l.029-.035a.015.015,0,0,1,.011-.021c0-.016.005-.023.022-.021l.027-.008a.138.138,0,0,0,.031-.033.025.025,0,0,1,0-.026c-.01-.025.008-.032.026-.04a.011.011,0,0,1,0-.018c-.007-.024.008-.031.026-.034.007-.019.008-.043.035-.049l0-.01h.01c.065-.045.053-.145.131-.179a.022.022,0,0,1,.021-.027c.006-.018.014-.031.034-.033l.033-.024c0-.024,0-.051.028-.061,0-.024,0-.051.031-.057A.029.029,0,0,1,13.421,10l0-.009h.01l.044-.029c0-.02-.01-.042.011-.057a.114.114,0,0,1,.018-.032l.01-.025c.007-.026.028-.029.05-.03l.028-.03c0-.025-.006-.051.021-.066,0-.04.027-.055.063-.057.007-.021.008-.046.036-.053h0c.005-.022,0-.046.031-.056l0,0c.007-.024.027-.031.048-.036,0-.023.006-.047.034-.056a.036.036,0,0,1,.027-.031c0-.039.018-.062.06-.06l.059-.069c-.015-.016-.016-.03,0-.041v0c0-.02.01-.028.028-.028h0a.1.1,0,0,1,.053-.042.037.037,0,0,1,.01-.049.036.036,0,0,1,.021-.034.016.016,0,0,1,.007-.024c0-.028.026-.033.049-.035l.031-.034c-.009-.028-.018-.056.011-.078.013-.037.05-.031.077-.043l0-.043-.007-.008V8.837l0,0,.01,0c0-.011.006-.015.017-.014a.03.03,0,0,1,.009-.025c-.01-.019,0-.027.018-.033a.156.156,0,0,0,.1-.107l.005-.011h.011c.016-.026.045-.029.069-.041L14.5,8.61l.006-.013,0-.043c-.011-.027.01-.032.027-.039a.013.013,0,0,1,0-.02c-.008-.027.009-.031.029-.032.034-.02.022-.07.059-.087.01-.029.035-.029.058-.031.016-.049.016-.105.062-.14l0-.01h.01l.041-.039a.047.047,0,0,1-.041.039.043.043,0,0,0,.041-.039V8.146l.011-.005.075-.093a.038.038,0,0,1,.031-.037c-.006-.023-.006-.043.023-.051a.049.049,0,0,1,.036-.029c0-.024,0-.052.029-.06a.036.036,0,0,1,.033-.026.041.041,0,0,1,.026-.033c.007-.029,0-.065.036-.081h0l0,0a.034.034,0,0,1,.026-.03c0-.024-.005-.051.025-.063a.036.036,0,0,1,.03-.03.034.034,0,0,1,.027-.03.074.074,0,0,1,.033-.057.067.067,0,0,1,.033-.054v0A.026.026,0,0,1,15.3,7.43a.027.027,0,0,1,.033-.02l.009-.009h.012a.253.253,0,0,1,.1-.115h0l.06-.087h0a.023.023,0,0,1,.027-.022.018.018,0,0,1,.023-.011c.019-.031.008-.082.059-.093a.038.038,0,0,1,.037-.022h0a.117.117,0,0,1,.06-.056v0a.1.1,0,0,1,.057-.059h0a.037.037,0,0,1,.028-.031c0-.018.008-.03.026-.033a.04.04,0,0,1,.032-.028.041.041,0,0,1,.028-.035.016.016,0,0,1,.011-.021c0-.027.027-.034.047-.044h0l0-.01.009,0a.029.029,0,0,1,.023-.033c0-.017.01-.029.028-.032a.028.028,0,0,1,.034-.019l.007-.01h.011a.179.179,0,0,1,.067-.088c.009-.03.04-.039.059-.058,0-.024.006-.044.034-.049,0-.01.01-.013.021-.01l.035-.058c0-.021.011-.028.027-.033a.032.032,0,0,1,.029-.029c.019-.03,0-.083.058-.091a.031.031,0,0,1,.035-.023l.028-.03c0-.025-.007-.052.023-.065a.05.05,0,0,1,.039-.044l0-.011h.012a.1.1,0,0,1,.068-.067l0-.009.007-.008c-.006-.047.025-.069.061-.088h0a.03.03,0,0,1,.03-.028h0a.029.029,0,0,1,.029-.027l0,0a.03.03,0,0,1,.027-.026l0,0a.027.027,0,0,1,.026-.029h0a.028.028,0,0,1,.028-.029h0c.013-.025.025-.052.056-.06a.041.041,0,0,1,.03-.03.035.035,0,0,1,.022-.036.039.039,0,0,1,.032-.028.074.074,0,0,1,.061-.063.013.013,0,0,1,.009-.019c.051-.046.071-.121.138-.152.016-.027.048-.041.054-.078s.047-.067.092-.074l.032-.028a.017.017,0,0,1,0-.022c-.011-.031.01-.05.027-.07h0l-.006-.01.008-.009c0-.044.033-.03.057-.033l.062-.084h0c0-.116,0-.117.085-.121l.061-.086c0-.112,0-.112.086-.122l.06-.085c.008-.038-.023-.086.032-.111l.029-.006a.018.018,0,0,1,.023-.007l.062-.084c0-.026,0-.051.034-.054h0l.086-.089a.031.031,0,0,1,.023-.036c.013-.034.009-.08.06-.088a.087.087,0,0,1,.036-.052h0a.032.032,0,0,1,.021-.037.035.035,0,0,1,.028-.029.369.369,0,0,1,.123-.173c0-.02.011-.028.028-.031a.039.039,0,0,1,.028-.031.036.036,0,0,1,.028-.031.034.034,0,0,1,.029-.029.059.059,0,0,1,.033-.036h0l0-.008.006-.007c0-.047.04-.063.061-.1a.016.016,0,0,1,.01-.024c0-.025.022-.031.042-.037.005-.022.008-.045.031-.057a.084.084,0,0,1,.036-.054c0-.039.025-.057.055-.071l0-.01.008-.007c0-.043.032-.063.058-.089,0-.024,0-.046.032-.054l0,0a.033.033,0,0,1,.026-.03h0a.057.057,0,0,1,.03-.057v0a.033.033,0,0,1,.024-.033c0-.024.006-.046.031-.057a.11.11,0,0,1,.061-.087h0c.006-.034.033-.03.057-.03a.2.2,0,0,1,.032-.026v0c0-.022,0-.047.027-.06h0c0-.019.01-.028.026-.034a.039.039,0,0,1,.03-.033c0-.02,0-.041.017-.055l.041-.039a.047.047,0,0,1-.041.039.043.043,0,0,0,.041-.039l0-.01.008-.006c0-.026,0-.051.026-.066a.019.019,0,0,1,0-.023V2.274h0a.037.037,0,0,1-.033-.025c-.1-.02-.1-.02-.054-.088v0a.054.054,0,0,1,.022-.044h0A.012.012,0,0,1,19.2,2.1c0-.021,0-.045.026-.054l0,0L19.255,2h0l0-.011.009-.008a.052.052,0,0,1,.026-.058h0a.071.071,0,0,1,.028-.063c0-.032,0-.066-.029-.088-.023,0-.047,0-.059-.025-.015,0-.027-.019-.02-.028.052-.063-.02-.062-.042-.086-.037-.006-.027-.036-.03-.059-.022,0-.046,0-.058-.029-.019,0-.031-.011-.03-.031-.025-.013-.018-.024,0-.034a.054.054,0,0,1,.031-.056h0a.027.027,0,0,1,.027-.031c.007-.021,0-.048.031-.058h0c.009-.011.019-.02.027-.031h0l-.027.031a.035.035,0,0,1,.027-.032l0-.054c-.045-.023-.018-.045,0-.068h0a.016.016,0,0,1,.006-.023c0-.082.088-.109.116-.175A.4.4,0,0,1,19.434.8l.006,0a.092.092,0,0,1,.048-.065c.011-.026,0-.061.036-.076l0-.012h.013L19.61.621c0-.018.011-.028.031-.023L19.7.593l0-.054c-.021-.005-.047,0-.048-.034l0-.029h0c.037-.066.1-.01.144-.027l.032-.033L19.813.332c-.012,0-.026-.006-.02-.023s.017,0,.026-.006L19.873.3a.112.112,0,0,0,.033-.028c.008-.028,0-.063.031-.079a.017.017,0,0,1,.021-.012c.007-.024.007-.051.034-.064A.016.016,0,0,1,20,.092V.063a.022.022,0,0,1,0-.024L19.925.008h0A.477.477,0,0,1,19.789,0c-.041.006-.086,0-.119.031h0c-.007.029-.018.021-.03,0h-.079a.044.044,0,0,1-.032.03A.036.036,0,0,1,19.5.1a.087.087,0,0,1-.033.045L19.464.15h0a.042.042,0,0,1-.024.043h0l0,.01L19.436.21c0,.026-.017.023-.03.029h0a.037.037,0,0,1-.022.036c0,.017-.015.024-.031.028a.04.04,0,0,1-.025.032.079.079,0,0,1-.039.052.032.032,0,0,1-.023.035.04.04,0,0,1-.032.028A.076.076,0,0,1,19.2.506l0,.029c0,.044-.032.027-.055.026a.02.02,0,0,1-.024,0,.037.037,0,0,1-.036.026h0c-.008.011-.018.02-.026.031h0L19.08.593a.041.041,0,0,1-.026.032c0,.019-.013.026-.03.029-.006.021-.01.043-.033.054v0c-.037.059-.077.037-.117,0h-.114L18.7.774C18.7.8,18.688.8,18.669.8L18.638.83c0,.077-.089.087-.119.142l0,0a.033.033,0,0,1-.024.033.027.027,0,0,1-.007.027l-.078.072h0a.072.072,0,0,1-.041.046c-.008.028-.022.018-.035,0h0l-.1,0a.036.036,0,0,1-.036.027h0a.265.265,0,0,1-.029.029h0a.141.141,0,0,1-.029.025l.029-.025c0,.019-.009.028-.029.025l-.036.034c0,.016,0,.03-.022.03-.01.025-.035.026-.056.033-.005.021,0,.047-.033.051l-.008.01-.012,0c-.026.035-.052.026-.078,0h0l-.047,0a.136.136,0,0,1-.034.025l0,0a.041.041,0,0,1-.024.036l-.036.054a.027.027,0,0,1-.017.035A.063.063,0,0,1,17.7,1.6h0c0,.019-.013.027-.028.034l-.011.027c0,.015-.007.022-.02.027h0a.031.031,0,0,1-.024.034.066.066,0,0,1-.034.055.051.051,0,0,1-.031.055l0,0c-.015.042-.055.022-.083.034,0,.022-.006.046-.03.057a.07.07,0,0,1-.03.062.022.022,0,0,1-.007.026.027.027,0,0,1-.02.033c0,.018-.01.03-.03.029a.04.04,0,0,1-.026.01l-.062.026a.013.013,0,0,1,0,.02c.009.029-.008.047-.029.063l-.012.025c-.027.034-.07.018-.1.035a.154.154,0,0,1-.064.082h0c0,.02-.007.031-.029.026h-.03c-.068-.018-.028-.042,0-.065a.048.048,0,0,1,.007-.05.052.052,0,0,1,.027-.055v0c0-.024-.006-.051.026-.061a.054.054,0,0,1,.027-.041h0a.052.052,0,0,1,0-.05l.034-.06h0c0-.015,0-.028.024-.028.012-.023.037-.027.058-.037V1.9c-.035-.024-.045-.046,0-.066.031-.023.016-.062.032-.091,0-.02.006-.029.026-.025h0l.012-.006h.013l.009-.027a.02.02,0,0,1-.006-.025l-.03-.033h0c-.03-.048-.093-.09-.03-.156a.017.017,0,0,1,.01-.023.031.031,0,0,1,.02-.035.018.018,0,0,1,.012-.024.025.025,0,0,1,.02-.029.032.032,0,0,1,.02-.036.169.169,0,0,1,.037-.088h0c0-.017,0-.025.021-.027.01-.031,0-.069.038-.091a.017.017,0,0,1,.01-.024c0-.017.007-.025.02-.03a.665.665,0,0,0,0-.2c-.021-.016-.046-.031-.053-.06l-.009,0V.785a.044.044,0,0,1-.029-.039.04.04,0,0,1-.033-.029C17.256.685,17.272.64,17.281.6a.084.084,0,0,1-.029-.059L17.21.509h0L17.2.514,17.2.508a.069.069,0,0,1-.066-.03.016.016,0,0,1-.023-.005A.028.028,0,0,1,17.07.454.046.046,0,0,1,17.039.42H17l-.069.054h0c0,.04-.066.014-.06.06a.021.021,0,0,1,0,.029.038.038,0,0,1-.029.051.05.05,0,0,1-.059,0l-.03,0h0c-.014.032.029.035.03.059.036.01.018.024,0,.038h0c0,.012,0,.018-.011.021-.017.034-.035.017-.054,0a.115.115,0,0,0-.088.029l0,.017c.015.032.082,0,.082.059-.04.034-.1-.008-.138.019h0c-.045.024-.03.081-.061.113,0,.018,0,.032-.027.034-.059.028-.063.093-.093.141h0c-.075.042-.079.045-.111.159l-.006.019h0c0,.02-.008.031-.031.027l.031-.027h0l-.031.027-.049.005a.03.03,0,0,1-.012.025l0,.031a.031.031,0,0,1-.02.039.012.012,0,0,1-.005.019c0,.025,0,.047-.029.054-.024.028-.053.012-.08.008.009.028.072.043.022.086a.029.029,0,0,1-.025.033.049.049,0,0,1-.03.039c0,.009,0,.015-.011.017s-.009.025-.022.031a.076.076,0,0,1-.008.057c0,.017,0,.026-.022.022-.019.016-.052.008-.063.037l0,.029h0c.026.02.026.039,0,.058h0c0,.02-.008.03-.029.026a.03.03,0,0,1-.027.01.026.026,0,0,1,0,.024.02.02,0,0,1,0,.029.134.134,0,0,1-.057.1.014.014,0,0,1-.006.02.046.046,0,0,1-.028.056l0,0c0,.017-.007.028-.026.023l-.03,0-.084.009a.046.046,0,0,1-.029.037c0,.01,0,.016-.011.017,0,.017-.009.024-.024.028h0a.033.033,0,0,1-.023.034.057.057,0,0,1-.036.049l0,0-.042.014c-.043.022-.077.062-.122.082-.024.053-.009.131-.094.144l-.026.032c-.015.049.03.126-.065.139l-.005.009-.01,0c-.041.051-.009.132-.072.174h0a.067.067,0,0,1-.054.035.042.042,0,0,1-.032.027c0,.027.009.064-.035.056a1.133,1.133,0,0,0-.143,0l-.059.056a.031.031,0,0,1-.025.033c0,.026.009.054-.029.061-.018.023-.039.045-.032.078.019.012.029.024,0,.035a.062.062,0,0,1-.057.033.047.047,0,0,1-.03.028.034.034,0,0,1,0,.022c.021.015.019.031,0,.047h0l0,.01-.008,0c0,.02-.01.028-.027.03a.029.029,0,0,1-.032.026h0a.071.071,0,0,1-.049.039.031.031,0,0,1-.036.018.012.012,0,0,1-.019.007h0l-.068.116c0,.021-.013.027-.031.028h0l-.025.032a.074.074,0,0,1-.034.086h0l-.057.089c.013.069-.024.1-.083.124-.007.047,0,.1-.037.138l0,.009-.01,0a.05.05,0,0,1-.036.032c-.021.047-.013.108-.067.141h0c-.017.021-.026.05-.052.064a.039.039,0,0,1-.032.028c0,.024-.006.046-.032.056a.031.031,0,0,1-.027.034.162.162,0,0,1-.063.053h0a.023.023,0,0,1-.029.025.014.014,0,0,1-.02.008.048.048,0,0,1-.029.034c-.014.058.049.13-.032.176a.032.032,0,0,1-.035.025.583.583,0,0,1-.149.175c0,.022-.012.027-.031.027l.031-.028h0c-.011.009-.02.02-.031.028h0a.243.243,0,0,1-.113.092.043.043,0,0,1-.029.036.012.012,0,0,1,0,.019c0,.057,0,.117-.062.147h0a.031.031,0,0,1-.027.032.034.034,0,0,1-.029.029.033.033,0,0,1-.027.031.063.063,0,0,1-.061.058c-.021.025.016.071-.03.087h0a.072.072,0,0,1-.059.03l-.028.039h0v.008h0c.022.015.028.03,0,.04h0l-.056.074h0l0,.009L12.86,5.9l-.054.092h0c-.011.03-.039.04-.064.054h0c-.01.028-.02.056-.055.062-.031.022-.022.07-.057.089a.031.031,0,0,1-.033.027l-.057.09h0a.034.034,0,0,1-.025.035c-.011.026,0,.062-.037.076l0,.01h-.011c-.016.029,0,.071-.037.09,0,.031,0,.066-.038.081h0l-.051.064c0,.021-.015.027-.031.029a.031.031,0,0,1-.034.025h0c-.023.026-.043.051-.026.09a.064.064,0,0,1-.033.086h0c-.013.044-.053.025-.081.035-.021.028,0,.09-.063.085a.081.081,0,0,1-.054.034v.05c.037.043,0,.058-.03.075l0,.01-.008.007c0,.017.013.05-.029.031a.023.023,0,0,1-.025,0,.1.1,0,0,1-.059.031c-.006.021,0,.048-.034.052l0,0-.025.06c.018.01.023.021,0,.034h0a.223.223,0,0,1-.063.109c-.014.02-.032.014-.05.008-.012.025-.036.029-.06.034-.011.038.01.086-.033.115-.009.031-.036.041-.063.05l-.005.009h-.01c-.01.021-.017.046-.044.053h0a.03.03,0,0,1-.029.028h0l-.026.036a.018.018,0,0,1,0,.024.092.092,0,0,0-.027.032h0l.026-.032c.009.025-.01.028-.026.033-.005.022-.01.044-.035.052l0,0c0,.022.007.051-.026.06h0c-.008.027-.029.034-.053.038l-.033.029a.014.014,0,0,1,0,.021c.017.032-.007.047-.025.065a.032.032,0,0,1-.028.032.482.482,0,0,1-.062.055c0,.016-.009.03-.027.032s-.021.017-.036.017l-.041.036q0,.019-.018.018l-.034.041a.029.029,0,0,1-.023.031.039.039,0,0,1-.029.035.019.019,0,0,1-.012.023c0,.016-.007.023-.021.026v0a.03.03,0,0,1-.027.031.052.052,0,0,1-.026.041h0c0,.01,0,.016-.012.017a.027.027,0,0,1-.022.029.03.03,0,0,1-.024.035.033.033,0,0,1-.032.027.039.039,0,0,1-.029.03.03.03,0,0,1-.03.029l-.029.035a.014.014,0,0,1,0,.021c.007.023-.007.03-.026.033-.012.028-.037.026-.062.026a.072.072,0,0,1-.051.037A.125.125,0,0,1,10.45,9a.034.034,0,0,1-.03.03c0,.048-.038.077-.067.109l0,0c-.014.023-.017.054-.047.066-.007.021-.01.045-.034.056,0,.019-.012.027-.028.032,0,.044-.028.066-.061.085,0,.018-.016.025-.032.029a.044.044,0,0,1-.026.039q0,.017-.012.018c-.015.037-.049.028-.078.033a.13.13,0,0,1-.062.054h0c-.02.038-.017.1-.079.1a.129.129,0,0,0-.007.08l0,0c.005,0,.012.008.012.013s-.007.014-.017.009l-.008.011-.014,0c-.022.029-.079.03-.071.085l.007.03c.01.023-.005.032-.023.039a.031.031,0,0,1-.035.024.078.078,0,0,1-.058.03.046.046,0,0,1-.026.033.035.035,0,0,1-.031.029c-.031.038-.026.1-.09.118-.048.036-.023.119-.09.143-.031.023-.016.073-.054.092a.035.035,0,0,1-.031.031,1,1,0,0,1-.126.2c-.066.078-.1.185-.191.241-.008.123-.149.155-.183.269-.018.063-.139.072-.129.173,0,.006-.022.014-.035.02-.137.064-.192.054-.3-.066a.071.071,0,0,0-.065-.023c-.038,0-.075.013-.125.022,0-.08-.011-.151-.108-.162-.034,0-.043-.038-.051-.065s-.041-.058-.069-.084c-.062-.06-.169-.079-.187-.179-.012-.066-.046-.087-.108-.1-.039-.005-.1-.016-.087-.077.021-.1-.036-.119-.112-.125-.055-.005-.07-.03-.069-.087,0-.1-.007-.109-.109-.1-.071.007-.075-.024-.072-.073,0-.066,0-.12-.089-.116a.068.068,0,0,1-.069-.064c0-.09-.073-.1-.126-.141-.024-.016-.062,0-.076-.037-.076-.178-.244-.281-.362-.424a.8.8,0,0,0-.19-.194A.537.537,0,0,1,6.1,8.92a.676.676,0,0,0-.051-.12,2.379,2.379,0,0,0-.206-.325c-.038-.047-.048-.11-.1-.147s-.132-.066-.1-.165c.01-.032-.024-.063-.062-.07a.07.07,0,0,1-.062-.052,2.082,2.082,0,0,0-.169-.388,1.368,1.368,0,0,1-.209-.361,1.7,1.7,0,0,0-.165-.4c-.025-.051-.077-.1-.074-.154.008-.145-.129-.223-.145-.353-.1-.057-.063-.211-.187-.247.007-.116-.093-.179-.134-.272-.01-.022-.019-.051-.037-.061a1.451,1.451,0,0,1-.294-.281c-.021-.021-.036-.051-.068-.053s-.093.007-.079.056c.038.126-.02.273.095.385a.189.189,0,0,1,.043.156.13.13,0,0,1-.082-.045,4.045,4.045,0,0,1-.382-.444c-.023-.035-.05-.07-.093-.051s-.012.066,0,.1c.028.092.122.139.161.224.017.04.087.071.035.125s-.091,0-.134-.016a.1.1,0,0,1-.037-.024,1.746,1.746,0,0,0-.4-.3A.069.069,0,0,1,3.1,5.58c-.056-.025-.1-.1-.169-.068s-.113-.01-.166-.043c-.079-.048-.148-.109-.227-.157s-.193.011-.272-.057c-.128.048-.18-.058-.251-.124-.029-.027-.054-.057-.081-.085s-.04-.032-.064-.012a.05.05,0,0,0-.013.066,1,1,0,0,0,.133.238c.053.056.048.134.1.182a.947.947,0,0,1,.253.315c.046.105.038.128-.074.142A.186.186,0,0,1,2.1,5.908c-.028-.028-.027-.066-.061-.092a2.679,2.679,0,0,1-.291-.262c-.094-.1-.222-.162-.28-.294A.082.082,0,0,0,1.4,5.225c-.066,0-.1-.048-.15-.082a4.206,4.206,0,0,1-.386-.369,2.959,2.959,0,0,1-.323-.29l0,0a.027.027,0,0,1-.027-.026l0,0A.036.036,0,0,1,.474,4.43C.455,4.427.45,4.414.45,4.4h0a.285.285,0,0,1-.032-.027.025.025,0,0,1-.031-.023.05.05,0,0,1-.035-.034A.016.016,0,0,1,.33,4.3c-.018,0-.023-.009-.025-.023l0,0c-.016,0-.029-.008-.031-.026-.018,0-.025-.014-.031-.029A.035.035,0,0,1,.205,4.2.054.054,0,0,1,.17,4.165h0c-.011,0-.016,0-.017-.013S.132,4.143.129,4.13l0,0A.032.032,0,0,1,.094,4.1L.037,4.094a.019.019,0,0,1-.023.01A.128.128,0,0,0,0,4.19a.019.019,0,0,1,.007.023c.045.022.023.062.026.1h0a.1.1,0,0,1,.025.029l0,0a.026.026,0,0,1,.029.026v0c.038.017.026.054.033.083A.071.071,0,0,1,.16,4.51a.033.033,0,0,1,.024.034.031.031,0,0,1,.026.031h0l0,0a.028.028,0,0,1,.026.028l0,0a.029.029,0,0,1,.026.026l0,0c.027.007.031.029.036.05a.039.039,0,0,1,.031.028.037.037,0,0,1,.03.029A.037.037,0,0,1,.4,4.772.036.036,0,0,1,.425,4.8a.072.072,0,0,1,.059.059.066.066,0,0,1,.057.061c.015,0,.029.008.033.026A.041.041,0,0,1,.6,4.984a.032.032,0,0,1,.031.029c.026.022.07.042,0,.07C.618,5.115.591,5.1.566,5.1h0c-.014.017-.025.038-.052.036-.014.022-.024.012-.034,0l-.058,0c-.02.006-.039.015-.059,0a.113.113,0,0,1-.075-.027h0l-.009,0L.272,5.1a.034.034,0,0,1-.038-.024l-.047,0-.034.058h0c.017.014.026.035.01.05-.032.03-.015.063-.013.1.009,0,.012.008.008.017a.036.036,0,0,1,.022.042.015.015,0,0,1,.006.021A.035.035,0,0,1,.21,5.4a.019.019,0,0,1,0,.03l.006.054a.032.032,0,0,1,.025.032c.015,0,.024.014.02.031l.01.055a.031.031,0,0,1,.019.033A.019.019,0,0,1,.3,5.657a.129.129,0,0,1,.079.069l.005,0a.129.129,0,0,1,.057.054h0c.019,0,.027.01.027.028l0,0,.065.049c.021,0,.024.018.023.035l.008,0,0,.01.06.042c.016,0,.025,0,.028.018a.044.044,0,0,1,.019.042.015.015,0,0,1,.011.02c.032.019.1.026.03.081v.008h0l.053.1v0a.125.125,0,0,1,.03.026h0c.046-.007.064.013.053.059a.018.018,0,0,1,.008.022A.051.051,0,0,1,.9,6.369l.012,0,.009.007c.044,0,.065.029.092.053a.029.029,0,0,1,.029.03.063.063,0,0,1,.032.057.03.03,0,0,1,.02.035c.009,0,.012.009.008.017a.038.038,0,0,1,.029.038.089.089,0,0,1,.032.057c.015.005.028.012.028.031a.081.081,0,0,1,.029.06.036.036,0,0,1,.029.029c.032.011.026.038.026.063a.039.039,0,0,1,.01.014l.029.041a.02.02,0,0,1,.024.019.036.036,0,0,1,.021.043.027.027,0,0,1,.005.027.069.069,0,0,1,.033.058.034.034,0,0,1,.026.033.024.024,0,0,1,.022.029.013.013,0,0,1,.01.019.043.043,0,0,1,.029.038.027.027,0,0,1,.021.032l.039.046a.109.109,0,0,1,.03.068.032.032,0,0,1,.025.034c.03.019.023.055.036.082a.031.031,0,0,1,.022.036h0a.051.051,0,0,1,.025.058l0,.03a.048.048,0,0,1,.019.029.02.02,0,0,1,.013.024.035.035,0,0,1,.028.035.038.038,0,0,1,.027.031h0c.03,0,.031.03.035.053a.029.029,0,0,1,.023.034h0c.012,0,.021.013.019.027a.053.053,0,0,1,.015.048.039.039,0,0,1,.027.04c.014.006.023.014.02.03l.008.03a.067.067,0,0,1,.028.06h0a.068.068,0,0,1,.031.057c.013.005.023.012.02.029a.021.021,0,0,1,.011.024.035.035,0,0,1,.028.035c.03.023.061.045.058.089a.013.013,0,0,1,0,.02.041.041,0,0,1,.028.037.025.025,0,0,1,.022.031.018.018,0,0,1,.008.023c.029.014.029.039.024.066a.022.022,0,0,1,0,.023.034.034,0,0,1,.026.036h0a.025.025,0,0,1,.021.028.015.015,0,0,1,.012.02.04.04,0,0,1,.033.034c.029.024.024.059.027.091.024.012.027.035.03.059.023.009.028.031.033.052.029,0,.057,0,.053.04l.007.008-.006.009a.04.04,0,0,1,.022.041l.009.006v.011L2.5,8.9a.037.037,0,0,1,.015.013h0l.009.013L2.571,9h0c.036,0,.032.032.034.056.038.044.012.1.026.149a.062.062,0,0,1,.03.058c.035.036.084.06.089.118.027.01.029.033.032.056a.04.04,0,0,1,.033.027.029.029,0,0,1,.021.036h0a.2.2,0,0,1,.1.111.042.042,0,0,1,.029.031c.019,0,.025.016.026.033l.03.028a.029.029,0,0,1,.029.03c.03.01.036.038.048.061.011,0,.015.008.013.02a.036.036,0,0,1,.025.039h0a.032.032,0,0,1,.023.03l0,.005c.025.01.027.031.029.053v0a.059.059,0,0,1,.036.051.031.031,0,0,1,.024.034h0a.079.079,0,0,1,.038.051.037.037,0,0,1,.024.034.029.029,0,0,1,.024.033v0a.065.065,0,0,1,.033.055.033.033,0,0,1,.025.032h0c.016,0,.025.01.024.027s.013.007.011.017a.046.046,0,0,1,.023.043v0a.028.028,0,0,1,.011.013l.034.039h0a.045.045,0,0,1,.019.051.042.042,0,0,1,.028.04.031.031,0,0,1,.025.032v0a.057.057,0,0,1,.03.057h0a.059.059,0,0,1,.034.054.03.03,0,0,1,.02.033.012.012,0,0,1,.01.017.041.041,0,0,1,.023.043v0a.055.055,0,0,1,.029.057l.008.006,0,.009a.047.047,0,0,1,.029.041l.034.029a.015.015,0,0,1,.021.01c.018,0,.026.007.026.024h0l0,0a.072.072,0,0,1,.039.049.036.036,0,0,1,.027.03A.033.033,0,0,1,3.93,11c.025.01.028.034.032.056a.03.03,0,0,1,.023.034l.008.006,0,.01a.042.042,0,0,1,.027.042.06.06,0,0,1,.03.058.027.027,0,0,1,.02.031.013.013,0,0,1,.011.018.059.059,0,0,1,.033.039h.013l.01.007c.024,0,.046,0,.056.026h0c.053.027.024.076.031.115l.122.113h0c.028.014.026.039.026.064a.466.466,0,0,1,.088.118.026.026,0,0,1,.027.031v0a.073.073,0,0,1,.035.053.042.042,0,0,1,.035.029.023.023,0,0,1,.02.032.06.06,0,0,1,.013.025l.018.033a.033.033,0,0,1,.033.026A.029.029,0,0,1,4.664,12l.007.006,0,.01.027.041a.031.031,0,0,1,.032.027.025.025,0,0,1,.019.033.022.022,0,0,1,.008.025.047.047,0,0,1,.035.029.027.027,0,0,1,.024.034l.035.053a.032.032,0,0,1,.029.032c.028.04.079.065.084.121a.028.028,0,0,1,.024.031l.009,0v.01a.046.046,0,0,1,.027.042.039.039,0,0,1,.028.031.031.031,0,0,1,.03.029.033.033,0,0,1,.031.028.036.036,0,0,1,.03.029.033.033,0,0,1,.03.029.038.038,0,0,1,.031.027.1.1,0,0,1,.066.061.013.013,0,0,1,.018.013.021.021,0,0,1,.023.022h0l0,0c.014,0,.023.007.022.023l.039.039c.017,0,.023.008.026.022l0,0a.026.026,0,0,1,.027.028l0,0a.029.029,0,0,1,.026.028l0,0,.062.053c.021,0,.026.014.028.032h0a.034.034,0,0,1,.028.03h0c.02.005.044,0,.051.029a.016.016,0,0,1,.012.021.049.049,0,0,1,.032.035.022.022,0,0,1,.024.009c.019,0,.027.006.029.023h0a.038.038,0,0,1,.032.027.035.035,0,0,1,.034.025.186.186,0,0,1,.085.061c.018,0,.026.015.03.031a.349.349,0,0,1,.057.06.038.038,0,0,1,.027.032h0a.034.034,0,0,1,.032.027c.02,0,.041.007.048.032l.039.037c.017,0,.023.008.023.023l0,.005a.064.064,0,0,1,.036.048.038.038,0,0,1,.032.027.08.08,0,0,1,.052.036.031.031,0,0,1,.035.024.062.062,0,0,1,.048.038l0,0a.031.031,0,0,1,.03.024h0a.031.031,0,0,1,.033.024.061.061,0,0,1,.054.035h0a.03.03,0,0,1,.031.027.026.026,0,0,1,.024.031l.009.005v.01a.094.094,0,0,1,.05.046h0a.032.032,0,0,1,.033.024.041.041,0,0,1,.039.028.015.015,0,0,1,.019.013.022.022,0,0,1,.023.022l0,0c.015,0,.03.005.033.024.019,0,.021.015.019.031l0,.03a.033.033,0,0,1-.02.042l0,.011-.008.006,0,.088,0,.012a.08.08,0,0,1-.013.019h0a.063.063,0,0,1-.02.028.3.3,0,0,1-.059.177h0a.035.035,0,0,1-.027.031c-.006.032.012.07-.025.093a.044.044,0,0,1-.032.036c0,.009,0,.015-.008.017,0,.024,0,.046-.026.057h0a.034.034,0,0,1-.022.035.085.085,0,0,1-.032.067h0l0,.01-.007.007c.006.042-.02.061-.055.073l0,.009-.007.006c0,.027,0,.053-.026.067a.017.017,0,0,1-.012.023h0c0,.016-.007.023-.021.026v0a.112.112,0,0,1-.024.072h0l0,.01-.008.007a.028.028,0,0,1-.023.033c0,.023,0,.048-.025.062-.019.042-.021.093-.064.121a.015.015,0,0,1-.012.02.03.03,0,0,1-.019.031c0,.025,0,.049-.027.06-.011.045-.015.094-.062.12a.023.023,0,0,1,0,.025.045.045,0,0,1-.028.057h0c0,.023,0,.048-.023.063a.054.054,0,0,1-.035.055h0l-.051.094h0c0,.033.014.072-.031.09a.047.047,0,0,1-.032.036c0,.009,0,.015-.009.017,0,.018,0,.03-.025.03h0l-.029.029h0l.029-.029-.029.029c0,.026,0,.052-.027.066a.017.017,0,0,1,0,.023.049.049,0,0,1-.022.064.045.045,0,0,1-.033.035.012.012,0,0,1-.006.019c0,.023,0,.045-.027.052l-.006.01H5.679a.043.043,0,0,1-.037.029.039.039,0,0,1-.032.028.382.382,0,0,1-.115.217l0,.01L5.49,16.6a.329.329,0,0,1-.09.173l0,0a.1.1,0,0,1-.11.067l-.062.053c0,.025.006.051-.025.063a.036.036,0,0,1-.028.03c-.01.028,0,.066-.036.083a.044.044,0,0,1-.026.042l0-.015,0,.015.006.009-.007.008c.006.024-.01.034-.028.042l0,.01-.008.007c0,.025,0,.049-.024.062a.108.108,0,0,1-.029.07h0c0,.014-.006.02-.019.019-.024.024-.01.067-.044.085-.006.031.014.07-.029.089a.032.032,0,0,1-.029.03c-.042.054-.033.131-.083.181h0a.032.032,0,0,1-.037.022l-.005.008-.009,0c-.02.027,0,.071-.041.088-.008.03,0,.067-.034.085h0a.031.031,0,0,1-.027.032.231.231,0,0,1-.089.176h0c-.02.055,0,.13-.081.154-.008.03-.009.062-.037.083,0,.019-.01.028-.028.03-.007.021-.008.045-.034.054v0c0,.018-.012.025-.028.028h0c0,.022,0,.047-.025.062a.112.112,0,0,1-.028.089.031.031,0,0,1-.025.035c-.017.028-.006.067-.034.092h0a.1.1,0,0,1-.006.077.028.028,0,0,1-.021.036.042.042,0,0,1-.032.032.014.014,0,0,1-.008.02c-.013.042-.052.024-.078.035-.036.065-.007.16-.095.2h0c.019.1-.056.084-.11.095-.008.1-.087.183-.1.286,0,.025-.05,0-.077.008s-.014.072-.051.09c0,.035.036.081-.033.089a.048.048,0,0,1-.034.032.012.012,0,0,1-.006.019c.014.052-.014.061-.056.055l0,.009H3.53c-.025.023-.011.066-.044.084h0c-.01.029.033.075-.026.09a.036.036,0,0,1-.033.027h0a.1.1,0,0,1-.081.094c-.006.05.009.1-.035.144h0a.034.034,0,0,1-.033.024l0,0a.071.071,0,0,1-.025.029v0l-.052.092h0l-.009.056,0,.01a.069.069,0,0,1-.01.019c0,.026-.026.03-.047.035a.035.035,0,0,1-.028.029.483.483,0,0,1-.122.261c.014.074-.046.107-.085.15a.03.03,0,0,1-.034.027l-.058.06h0a.3.3,0,0,0-.062.124c-.007.03-.018.053-.05.057a.091.091,0,0,1-.035.055.126.126,0,0,1-.058.119.028.028,0,0,1-.023.034.187.187,0,0,1-.036.09h0v.009c.021.015.03.03,0,.042a.031.031,0,0,1-.032.027h0c-.009.027-.031.031-.055.034a.036.036,0,0,1-.032.026c0,.023-.007.047-.029.062h0l-.011.027a.064.064,0,0,1-.019.029c0,.025,0,.049-.027.061a.038.038,0,0,1-.029.038.012.012,0,0,1-.007.019.08.08,0,0,1-.022.073h0l0,.01-.008.005c0,.02-.009.03-.025.036a.02.02,0,0,1-.006.023.049.049,0,0,1-.025.06.035.035,0,0,1-.028.036.017.017,0,0,1,0,.022c0,.026,0,.048-.029.056l0,0-.024.036a.019.019,0,0,1-.005.024.025.025,0,0,1-.02.035l-.035.059a.017.017,0,0,1-.008.024l-.05.067-.037.051a.028.028,0,0,1-.018.035.083.083,0,0,1-.035.056.023.023,0,0,1-.006.027c0,.019-.007.028-.023.034a.023.023,0,0,1-.006.025.026.026,0,0,1-.02.033.107.107,0,0,1-.031.066h0c0,.01,0,.017-.011.019a.027.027,0,0,1-.021.03c0,.024,0,.049-.026.061a.08.08,0,0,1-.032.06.02.02,0,0,1-.009.026c0,.018-.008.025-.022.029h0c0,.023,0,.047-.027.061a.044.044,0,0,1-.028.042.065.065,0,0,1,.006-.021.065.065,0,0,0-.006.021l-.011.045a.03.03,0,0,1-.021.034.019.019,0,0,1-.009.025c0,.017,0,.026-.019.032,0,.024,0,.05-.032.056a.039.039,0,0,1-.03.029.038.038,0,0,1-.021.037.1.1,0,0,1-.035.059.016.016,0,0,1-.01.023.027.027,0,0,1-.02.031c0,.023,0,.047-.033.054h0l-.087.058v0c0,.02-.01.028-.028.03h0l-.028.033.028-.033a.222.222,0,0,0-.028.033.025.025,0,0,1-.006.026c0,.02-.007.028-.025.029h0l-.028.034a.02.02,0,0,1-.006.025c0,.036-.04.036-.054.06l-.008.029c0,.028-.028.031-.047.041l0,.011-.008.007c.007.042-.025.056-.053.072h0l0,.01-.008.006c0,.02-.009.028-.026.031s-.009.029-.025.034a.07.07,0,0,1-.036.052h0a.037.037,0,0,1-.025.04.012.012,0,0,1-.007.019V24.3l.005.01a.07.07,0,0,1-.008.02c0,.016-.006.022-.021.02h0l-.029.011h0l-.057.125h0A.014.014,0,0,1,.8,24.5l.008.055c.04.023.028.043,0,.064s.018.086-.033.111l0,0a.057.057,0,0,1-.024.029v0a.03.03,0,0,1-.025.033.049.049,0,0,1-.028.04h0l0,.01-.008.006a.052.052,0,0,1-.03.055l0,0,.007.056.055.008.029,0,.032-.024-.032.024a.108.108,0,0,1,.032-.024l0,0c0-.016.006-.026.024-.025l.005-.01H.818a.053.053,0,0,1,.045-.021l0,0c.007-.017.014-.021.023,0h0c.019,0,.028.008.035.023H1a.038.038,0,0,1,.028-.029.037.037,0,0,1,.03-.029A.063.063,0,0,1,1.1,24.8l0,0c0-.016.006-.027.026-.024l.009-.01h.013a.047.047,0,0,1,.034-.03c0-.022.008-.042.033-.048.019-.022.018-.059.052-.069.007-.022,0-.05.035-.057.006-.021.007-.045.032-.054l0,0a.031.031,0,0,1,.024-.032.045.045,0,0,1,.026-.044h0l0-.009.009-.005a.029.029,0,0,1,.022-.034.036.036,0,0,1,.027-.032.037.037,0,0,1,.034-.025.039.039,0,0,1,.029-.03.045.045,0,0,1,.029-.036.017.017,0,0,1,.013-.021h0a.025.025,0,0,1,.021-.028h0a.029.029,0,0,1,.026-.032.039.039,0,0,1,.027-.032.068.068,0,0,1,.035-.054h0a.035.035,0,0,1,.027-.037c0-.014,0-.024.018-.027a.058.058,0,0,1,.04-.03c.067-.137.2-.212.3-.319a.292.292,0,0,1,.061-.117c.014-.034.014-.076.056-.093,0-.019-.014-.053.024-.05s.015.027.01.043,0,.057-.032.072c-.005.012-.007.028-.025.027a.158.158,0,0,1-.06.119l-.01.028a.619.619,0,0,1-.2.245.791.791,0,0,0-.095.106v0a.032.032,0,0,1-.024.033.058.058,0,0,1-.034.053l0,0a.03.03,0,0,1-.026.031h0c0,.016-.006.03-.022.036a.088.088,0,0,1-.038.051h0a.04.04,0,0,1-.024.043v.011l-.01,0c0,.029-.028.03-.048.035a.081.081,0,0,1-.036.052h0a.034.034,0,0,1-.025.038.02.02,0,0,1-.01.023.034.034,0,0,1-.019.038.013.013,0,0,1-.009.02.028.028,0,0,1-.022.032A.034.034,0,0,1,1.4,24.6a.033.033,0,0,1-.031.028.041.041,0,0,1-.026.032.063.063,0,0,1-.038.05l0,0,0,.059,0,.03c.006.02,0,.029-.021.034a.04.04,0,0,1-.027.032.037.037,0,0,1-.032.028.038.038,0,0,1-.029.029.035.035,0,0,1-.027.032.037.037,0,0,1-.031.028.039.039,0,0,1-.032.027.031.031,0,0,1-.031.028l-.029.055a.047.047,0,0,1,.033.03h.051a.08.08,0,0,1,.03-.019l.027-.011a.079.079,0,0,1,.055-.038.038.038,0,0,1,.031-.026A.037.037,0,0,1,1.3,25a.03.03,0,0,1,.032-.026c.005-.014.011-.026.029-.022a.018.018,0,0,1,.022-.011c.005-.016.012-.031.032-.032a.091.091,0,0,1,.06-.03.115.115,0,0,1,.064-.044.024.024,0,0,1,.026-.01c.006-.014.014-.025.032-.023l.008-.009h.012a.04.04,0,0,1,.039-.027.025.025,0,0,1,.03-.023c0-.01.007-.013.016-.01a.042.042,0,0,1,.044-.023h0a.04.04,0,0,1,.025-.021c0-.01.006-.015.016-.014a.059.059,0,0,1,.041-.03.035.035,0,0,1,.029-.029.033.033,0,0,1,.029-.029.031.031,0,0,1,.034-.026c.02-.031.058-.024.085-.041Q2,24.508,2.017,24.5a.112.112,0,0,1,.047-.066l.059-.114a.037.037,0,0,1,.048-.022.035.035,0,0,1,.014.049c-.026.056-.054.112-.081.167h0v.012l-.01,0a.029.029,0,0,1-.022.031.037.037,0,0,1-.028.035.019.019,0,0,1-.013.023.029.029,0,0,1-.019.029.034.034,0,0,1-.027.036l.027-.036a.1.1,0,0,0-.027.036.02.02,0,0,1-.012.024c0,.016-.008.023-.021.027h0a.037.037,0,0,1-.025.039l-.009.05c.005.021-.006.028-.024.03a.033.033,0,0,1-.031.026l0,0a.026.026,0,0,1-.028.025h0l0,0a.021.021,0,0,1-.023.022.013.013,0,0,1-.016.014l-.04.038h0c0,.015-.012.02-.026.019,0,.017-.012.032-.032.033l-.034.024a.028.028,0,0,1-.029.029.041.041,0,0,1-.03.03c0,.019-.012.027-.031.027h0a.032.032,0,0,1-.029.024l0,0a.1.1,0,0,1-.024.031h0l.007.053a.046.046,0,0,1,.029.033h.013l.01.007c.008,0,.022,0,.023.006s-.007.02-.018.023a.037.037,0,0,1-.029.031c0,.017-.01.03-.029.031a.093.093,0,0,1-.057.031.085.085,0,0,1-.038.049v0a.029.029,0,0,1-.024.033.037.037,0,0,1-.028.031c0,.022-.008.045-.036.052h0a.027.027,0,0,1-.028.027l0,0a.159.159,0,0,1-.025.033c0,.018-.006.027-.024.03a.087.087,0,0,1-.062.066.015.015,0,0,1-.008.021c0,.02-.01.024-.025.028h0a.031.031,0,0,1-.027.032.035.035,0,0,1-.029.03.042.042,0,0,1-.029.034l-.014.024a.038.038,0,0,1-.019.026h0c0,.024,0,.049-.029.056l0,0a.148.148,0,0,1-.025.031.027.027,0,0,1-.026.032.04.04,0,0,1-.029.03.036.036,0,0,1-.03.03.035.035,0,0,1-.025.033.038.038,0,0,1-.029.029.128.128,0,0,0-.009.111h0l.037.027.008,0,.009,0a.055.055,0,0,1,.035-.012L.976,26.3a.037.037,0,0,1,.03-.029.041.041,0,0,1,.025-.034.068.068,0,0,1,.039-.047v0c0-.018.011-.026.027-.029h0c0-.015.007-.029.023-.035s.016-.024.032-.026.009-.03.027-.032c.005-.017.02-.02.034-.024h0c0-.016.006-.031.026-.032a.118.118,0,0,1,.061-.051.019.019,0,0,1,.029-.008l.118,0,.011-.006h.012a.046.046,0,0,1,.029-.034c.005-.023.01-.045.037-.051h0c.008-.018,0-.046.028-.053l0-.01h.011c.019-.041.028-.088.094-.076a.368.368,0,0,0,.1-.01c.005-.014.009-.029.028-.031,0-.018.015-.021.031-.019l-.031.02-.028.03h0A.119.119,0,0,0,1.8,25.68a.2.2,0,0,1,.031-.019l.027-.009.031-.029a.045.045,0,0,1,.027-.042h0V25.57l.009-.006a.031.031,0,0,1,.024-.034c0-.015,0-.026.021-.028l.037-.057c0-.022.016-.025.032-.028h0c.009-.018,0-.046.03-.052l0-.01h.012c.01-.021.015-.046.04-.056,0-.019.017-.023.03-.03,0-.023-.006-.053.032-.056h0c.02-.023.04-.043.062,0l.012,0,.012,0,.06-.059h0c.005-.031.032-.03.053-.036.008-.053.059-.059.093-.083,0-.017.009-.031.031-.028L2.519,25l.011,0,.035-.031a.034.034,0,0,1,.029-.03.038.038,0,0,1,.027-.031.072.072,0,0,1,.039-.051h0a.062.062,0,0,1,.03-.057h0a.043.043,0,0,1,.024-.043h0v-.011l.009-.006a.025.025,0,0,1,.025-.03c-.007-.093.054-.091.118-.083l.03,0c.037.012.037.019,0,.055h0a.027.027,0,0,1-.028.03l-.022.034,0,.05h0c.01-.009.02-.012.03,0l.044-.017h0c0-.011.007-.015.017-.013a.036.036,0,0,1,.043-.02l.052-.007a.033.033,0,0,1,.037-.025.08.08,0,0,1,.079-.006.042.042,0,0,1,.038-.027.056.056,0,0,1,.054-.035.028.028,0,0,1,.035-.02h0l.035-.032c0-.031.029-.03.05-.034a.141.141,0,0,1,.056-.06.033.033,0,0,1,.036-.023h0a.068.068,0,0,1,.052-.036.038.038,0,0,1,.033-.026c.017-.041.057-.024.086-.033a.072.072,0,0,1,.036-.049v0c.021-.028.022-.069.057-.089h0a.08.08,0,0,1,.05-.038c.018-.04-.019-.11.064-.113a.038.038,0,0,1,.027-.032c.026-.035.012-.093.063-.115h0a.123.123,0,0,1,.031-.019c0-.01,0-.015.015-.013l.072-.063,0-.007,0-.006c-.021-.014-.027-.028,0-.042a.038.038,0,0,1,.031-.036v-.01c-.018-.015-.031-.029,0-.038h0a.144.144,0,0,1,.082-.063c.006-.025,0-.053.031-.069h0v0c-.026-.04-.025-.069.027-.079a.037.037,0,0,1,.028-.031.037.037,0,0,1,.034-.024.092.092,0,0,1,.031-.058c-.023-.06.009-.094.059-.118.009-.032.041-.037.062-.055h0c.016-.042-.026-.11.055-.122,0-.037.027-.051.06-.057A.034.034,0,0,1,4.571,23c0-.023,0-.05.027-.061a.042.042,0,0,1,.033-.027.043.043,0,0,1,0-.025l0-.012a.1.1,0,0,1,.012-.017.137.137,0,0,1,.046-.067c-.006-.021-.011-.041.014-.053a.066.066,0,0,1,.017-.029c-.008-.048.026-.053.058-.061l.028-.041h0a.1.1,0,0,1,.006-.074c-.007-.029-.01-.056.023-.071h0v-.008a.037.037,0,0,1,0-.011v0l0-.009.011-.006,0-.011.011,0a.148.148,0,0,1,.1-.089l0-.083,0-.011a.114.114,0,0,1,.01-.019c0-.018.008-.026.025-.029h0c0-.021,0-.046.031-.055h0l0,0h0l.052-.068a.015.015,0,0,1,.006-.022.057.057,0,0,1,.046-.068c.016-.028.01-.065.029-.092a.025.025,0,0,1,.012-.013l0,0h0a.037.037,0,0,1,.023-.033c0-.023,0-.045.032-.05l.007-.01h.012l.037-.065h0l0-.012.009-.008a.029.029,0,0,1,.02-.035.033.033,0,0,1,.031-.028.056.056,0,0,1,.03-.041.059.059,0,0,1-.006.02.059.059,0,0,0,.006-.02l0-.008.007-.006c0-.02.008-.03.026-.034.03-.034-.023-.11.057-.119a.043.043,0,0,1,.035-.023h0a.05.05,0,0,1,.025-.042h0l0-.01.008-.007c0-.04-.034-.091.031-.114l0,0a.051.051,0,0,1,.053-.032l.031-.029c0-.023,0-.049.024-.063,0-.018.015-.025.03-.029a.13.13,0,0,1,.024-.1.042.042,0,0,1,.011-.016h0c.007-.031.035-.043.057-.061,0-.033.038-.039.057-.059-.017-.058-.013-.105.056-.121,0-.026,0-.053.031-.066l0-.011.008-.007c0-.043-.016-.093.052-.1l.063-.052c0-.033-.022-.073.028-.09l.059-.117h0l0-.058h0c-.019-.009-.025-.019,0-.031.007-.035.034-.029.059-.03a.08.08,0,0,1,.056-.032l.021-.059a.051.051,0,0,1,.009-.027.382.382,0,0,1,.062-.145h0c0-.036.013-.064.054-.067l.066-.08c.009-.03-.011-.069.024-.092,0-.023,0-.048.029-.059-.015-.055.035-.064.064-.087h0l.084-.178h0a.353.353,0,0,1,.066-.17l0-.008h.009c.03-.043.013-.1.047-.144l.009-.03c0-.014,0-.02.018-.019a.016.016,0,0,1,.022-.012c.02-.028,0-.073.036-.092a.019.019,0,0,1,.009-.024A.027.027,0,0,1,6.9,18.78a.031.031,0,0,1,.027-.032.04.04,0,0,1,.03-.029c.013-.027,0-.065.036-.082H7a.029.029,0,0,1,.029-.03h0a.034.034,0,0,1,.029-.028h0a.039.039,0,0,1,.027-.034.03.03,0,0,1,0-.026c0-.057.044-.076.082-.1a.013.013,0,0,1,.013-.016.116.116,0,0,1,.02-.032.022.022,0,0,1,0-.022c-.023-.012-.031-.024,0-.033h0a.034.034,0,0,1,.028-.031.03.03,0,0,1,.029-.029.039.039,0,0,1,.029-.03c.01-.03-.02-.072.028-.089a.037.037,0,0,1,.028-.032.039.039,0,0,1,.031-.028c.022-.034-.006-.083.034-.111l0,0h0c0-.018.009-.028.027-.028l0,0a.032.032,0,0,1,.027-.027l0,0c0-.022,0-.047.022-.063a.06.06,0,0,1,.034-.054h0a.031.031,0,0,1,.024-.034.055.055,0,0,1,.036-.05l0,0a.034.034,0,0,1,.025-.03h0a.033.033,0,0,1,.026-.035.023.023,0,0,1,.006-.025.025.025,0,0,1,.02-.034.034.034,0,0,1,.03-.028.053.053,0,0,1,.029-.04h0a.012.012,0,0,1,.01-.016.049.049,0,0,1,.02-.044.068.068,0,0,1,0,.014.059.059,0,0,0,0-.014v-.01l.008,0a.026.026,0,0,1,.026-.029.039.039,0,0,1,.026-.034.04.04,0,0,1,.03-.035.014.014,0,0,1,.01-.02c0-.022,0-.043.025-.054l0,0a.029.029,0,0,1,.026-.03h0a.033.033,0,0,1,.026-.032A.2.2,0,0,1,7.99,17.1a.05.05,0,0,1,.037-.052h0a.043.043,0,0,1,.025-.036l.012-.025a.026.026,0,0,1,.021-.026h0a.035.035,0,0,1,.026-.037.02.02,0,0,1,.009-.024.025.025,0,0,1,.019-.032.033.033,0,0,1,.024-.035.071.071,0,0,1,.033-.041l.007-.006v0c0-.023,0-.045.029-.055l0,0a.03.03,0,0,1,.024-.032.057.057,0,0,1,.032-.055l0,0a.031.031,0,0,1,.024-.032.039.039,0,0,1,.022-.036.073.073,0,0,1,.038-.052l0-.088a.021.021,0,0,1,.009-.029c.008-.034.02-.021.033,0h.01l.065-.04-.005.012.005-.012a.018.018,0,0,1,.02-.02.08.08,0,0,1,.046-.049l0,0a.029.029,0,0,1,.025-.028l0,0a.031.031,0,0,1,.026-.032.044.044,0,0,1,.025-.042.043.043,0,0,1,0,.017.043.043,0,0,0,0-.017.012.012,0,0,1,.011-.017.028.028,0,0,1,.022-.03.042.042,0,0,1,.027-.04c0-.011,0-.016.012-.018a.024.024,0,0,1,.022-.027h0A.04.04,0,0,1,8.759,16a.014.014,0,0,1,.01-.02.023.023,0,0,1,.024-.027h0a.031.031,0,0,1,.027-.029h0a.043.043,0,0,1,.025-.041.013.013,0,0,1,.01-.019c0-.018.008-.025.024-.025l0,0a.029.029,0,0,1,.026-.026l0,0a.031.031,0,0,1,.024-.032.032.032,0,0,1,.024-.035.037.037,0,0,1,.029-.03c.015-.033.028-.031.041,0,.031,0,.066,0,.087.033.028.011.065,0,.087.031a.066.066,0,0,1,.057.031h0c.027,0,.054,0,.068.026l.08.011c.018,0,.026.006.03.021.037.019.086-.009.117.03a.054.054,0,0,1,.055.032h0a.034.034,0,0,1,.033.024.04.04,0,0,1,.039.028l.011,0,.006.009a.03.03,0,0,1,.036.024.019.019,0,0,1,.023.012.113.113,0,0,1,.058.05h0a.035.035,0,0,1,.038.026.015.015,0,0,1,.021.01.112.112,0,0,1,.061.05.034.034,0,0,1,.036.023.047.047,0,0,1,.033.034l.011,0,.007.009c.019,0,.028.007.031.025a.036.036,0,0,1,.03.028.035.035,0,0,1,.031.028.042.042,0,0,1,.033.031.018.018,0,0,1,.023.009.029.029,0,0,1,.033.022l.013,0,.012.006.054-.009c.021-.058.046-.029.07,0,.023,0,.047.007.056.033a.127.127,0,0,1,.116.062l.1.058a.064.064,0,0,1,.054.05.045.045,0,0,1,.027.04l.034.029.025.013a.053.053,0,0,1,.028.018h0a.03.03,0,0,1,.034.024c.022.005.048,0,.058.031a.041.041,0,0,1,.034.031c.018,0,.036-.009.051.006a.027.027,0,0,1,.036.019.035.035,0,0,1,.031.027.108.108,0,0,1,.064.035h0l.01,0,.006.008a.029.029,0,0,1,.037.02l.061.035h.013l.008.011c.017,0,.024.008.024.023l0,0c.014,0,.023.017.036.023l.026.01c.022,0,.045,0,.059.02.031.006.065,0,.089.028a.041.041,0,0,1,.041.028h0c.016-.018.03-.017.042,0,.041.015.09.015.116.059l.008.006,0,.01a.051.051,0,0,1,.03.038c.022,0,.046.006.057.03.033,0,.067-.005.083.035l0,0a.022.022,0,0,1,.023.026.013.013,0,0,1,.011.018.114.114,0,0,1,.062.039l.013,0,.01.008a.032.032,0,0,1,.038.023l.007,0,.007,0c.013-.018.025-.023.034,0h0a.042.042,0,0,1,.042.024h0l.01,0,.008.008c.022,0,.028.01.032.026.03.007.065,0,.086.032a.029.029,0,0,1,.034.025l.038.024a.042.042,0,0,1,.017.01c.019,0,.029.008.033.025a.165.165,0,0,1,.071.026.024.024,0,0,1,.01.01h0a.046.046,0,0,1,.044.023h0l.01,0,.006.008c.058-.013.09.037.134.057h0l.008,0,.005.007a.028.028,0,0,1,.035.023.051.051,0,0,1,.036.031.038.038,0,0,1,.047.014c.028.019.075,0,.092.046a.034.034,0,0,1,.034.025.036.036,0,0,1,.029.029l.067.034h0l.008,0,.006.006c.04.006.089-.019.118.031h0a.036.036,0,0,1,.037.02c.03.011.067.006.091.035l.012,0,.008.009a.035.035,0,0,1,.04.022.013.013,0,0,1,.018.013c.028.022.071.012.091.047a.045.045,0,0,1,.041.028h0l.009,0,.007.007c.02,0,.03.007.035.024.029.009.068,0,.085.034a.035.035,0,0,1,.035.025c.016,0,.021.019.024.035a.036.036,0,0,1,.031.027c.023,0,.048,0,.058.03a.1.1,0,0,1,.07.029h.011l0,.009a.024.024,0,0,1,.028.024h0c.026.006.033.028.039.05l.053.033a.129.129,0,0,1,.118.059c.019,0,.025.015.022.033l.035.04a.027.027,0,0,1,.027.02h0a.04.04,0,0,1,.042.025h0a.013.013,0,0,1,.018.011.028.028,0,0,1,.031.02.06.06,0,0,1,.06.028.067.067,0,0,1,.058.03.054.054,0,0,1,.056.033.034.034,0,0,1,.035.023.108.108,0,0,1,.083.036h0a.075.075,0,0,1,.064.028l.013,0,.012.006a.1.1,0,0,1,.072.025h0l.01,0,.006.008a.032.032,0,0,1,.037.02.1.1,0,0,1,.065.034h0l.01,0,.006.008a.037.037,0,0,1,.041.024l.048.006c.026-.006.05-.008.062.023a.043.043,0,0,1,.031.029c.026,0,.053,0,.067.03H15.1l.006.009c.018,0,.026.009.03.024.025,0,.053,0,.065.028l.012,0,.01.006c.045-.006.061.037.093.053a.058.058,0,0,1,.058.031.033.033,0,0,1,.032.027c.03.008.065,0,.086.035l.014,0,.012.007c.021,0,.029.007.03.025l.032.025c.026,0,.052,0,.063.026a.349.349,0,0,1,.116.061h0a.034.034,0,0,1,.029.03c.022,0,.048,0,.06.028a.05.05,0,0,1,.036.033l.011,0,.007.008c.02,0,.027.009.03.026.032.006.067,0,.09.03a.064.064,0,0,1,.057.005.03.03,0,0,1,.037.022.017.017,0,0,1,.022.01c.04.014.087-.025.122.018.045.022.1.027.121.086a.038.038,0,0,1,.027.03.088.088,0,0,1,.058.031.133.133,0,0,1,.085.033c.025,0,.049,0,.06.028a.037.037,0,0,1,.035.024l.08.014c.011-.01.021-.01.03,0,.028.021.073.012.088.053h0a.084.084,0,0,1,.038.049.1.1,0,0,1,.057.031.175.175,0,0,1,.074.028l.01.007c.025,0,.049,0,.062.027l.125.06h0a.081.081,0,0,1,.078.008c.023,0,.046,0,.056.025h0a.035.035,0,0,1,.035.024.054.054,0,0,1,.051.035l0,0a.038.038,0,0,1,.035.022.057.057,0,0,1,.054.034h0a.04.04,0,0,1,.04.025h.012l.007.01c.018,0,.026.008.03.023a.067.067,0,0,1,.059.029c.025,0,.047,0,.057.031h0a.315.315,0,0,1,.151.084.037.037,0,0,1,.038.029l.011,0,.007.008a.033.033,0,0,1,.038.025h.012l.009.008a.03.03,0,0,1,.035.023h.013l.011.008a.027.027,0,0,1,.034.018.07.07,0,0,1,.056.032.073.073,0,0,1,.069.029l.01,0,.008.008c.025,0,.047,0,.057.029h0c.022,0,.049,0,.061.027.019,0,.026.015.033.03h.013l.012.007c.019,0,.027.007.031.023a.138.138,0,0,1,.089.058.053.053,0,0,1,.054.033h0a.04.04,0,0,1,.038.025l.051.008a.03.03,0,0,1,.038.021l.051.008a.057.057,0,0,1,.06.023c.026,0,.041.014.056.032h0a.062.062,0,0,1,.061.027.069.069,0,0,1,.062.029h.014l.011.01a.04.04,0,0,1,.043.018h0a.048.048,0,0,1,.045.015c.031.018.016.053.029.078h0a.043.043,0,0,1,.041.025l.011,0,.008.008a.135.135,0,0,1,.079.019l.01.008c.034,0,.07-.01.093.028.018,0,.036-.013.053,0,.041.006.086-.006.122.023l.055.01a.07.07,0,0,1,.06,0c.039.01.084-.012.119.019.026,0,.042.016.058.032a.147.147,0,0,1,.1.02.035.035,0,0,1,.015.012h0c.032,0,.07-.014.093.025.019,0,.038-.014.056,0,.034.007.074-.007.1.024h0l.009,0,.005.007h0l.029,0h.03c.022,0,.031,0,.029.026l.007,0,0,.009.028.043c.033,0,.07,0,.094.028H20.5a.076.076,0,0,1,.059.006l.031,0c.028,0,.062-.014.08.024a.02.02,0,0,1,.01.023l.037.032.011,0,.009.007a.109.109,0,0,1,.092.022l.054.011.032.006c.021,0,.045,0,.062.014h0c.037.018.089-.018.117.033l.013,0,.012,0c.011-.014.021-.018.033,0h0c.037.021.088-.017.118.029a.032.032,0,0,1,.027.005h.03a.033.033,0,0,1,.043.021h0a.033.033,0,0,1,.039,0c.013-.018.025-.019.034,0h0c.03.009.069-.012.091.026.031.007.069-.008.09.03h.014l.013.006a.249.249,0,0,1,.132.021c.016-.016.031-.013.045,0h.113c.065-.068.131-.011.2,0h0l.043.007h.029l.056,0c.042-.043.084-.028.126,0l.013,0,.012.005c.055,0,.113-.014.163.025h0l.01,0,0,.009c.051,0,.105-.019.148.025.051.011.108-.013.154.027h0l.013,0,.01.01c.041.014.088-.009.126.021h0l.011,0,.009.009a.067.067,0,0,1,.06.026l.013,0,.012,0c.012-.021.025-.022.039,0h0l.053.007c.059.011.123-.022.177.024h.054l.032-.029c0-.014.005-.037.011-.039a.341.341,0,0,1,.251.012c.006,0,0,.017.007.026a.479.479,0,0,1,.188.058h0l.312.007h.441l.371-.007c.078-.063.168,0,.249-.025h0l.028-.032v-.053l-.03-.031a.559.559,0,0,1-.129-.02.077.077,0,0,1-.023-.01.567.567,0,0,1-.2,0c-.012.02-.025.021-.037,0h0a.015.015,0,0,1-.02,0,.32.32,0,0,1-.226,0h-.011l-.005-.009a.079.079,0,0,1-.067-.021l-.2-.008a.6.6,0,0,1-.269-.023h0l-.055-.005a.223.223,0,0,1-.134-.024h0l-.131-.007h-.147a.815.815,0,0,1-.191.007.029.029,0,0,1-.049,0,.387.387,0,0,1-.144,0c-.041,0-.085.008-.119-.025l-.028,0a.045.045,0,0,1-.057-.027h0c-.042,0-.089.016-.121-.027a.028.028,0,0,1-.028,0,.067.067,0,0,1-.069-.023h0l-.049-.009a.081.081,0,0,1-.071-.02h0l-.047-.008a.077.077,0,0,1-.072-.021h0l-.009,0-.007-.008a.027.027,0,0,1-.034-.023.039.039,0,0,1-.027-.033.042.042,0,0,1-.034-.029.02.02,0,0,1-.023-.006c-.028.006-.055.009-.073-.022h-.01l0-.009a.031.031,0,0,1-.033-.023.068.068,0,0,1-.061-.03H22.27c-.012.02-.024.02-.035,0a.2.2,0,0,1-.077-.02l-.013-.009h-.056a.121.121,0,0,1-.079-.02L22,21.291l-.057,0h0a.022.022,0,0,1-.031,0c-.017,0-.025-.007-.029-.022-.047-.027-.108.03-.15-.025l-.086-.006h0c-.01.025-.022.023-.037,0h0a.013.013,0,0,1-.021-.01.03.03,0,0,1-.033-.021.027.027,0,0,1-.023,0c-.021.025-.041.023-.06,0h0l-.059,0h-.03a.069.069,0,0,1-.085-.027l0,0a.029.029,0,0,1-.033-.023.038.038,0,0,1-.036-.024.028.028,0,0,1-.019-.038l-.031-.033a.118.118,0,0,1-.076-.017l-.012-.009-.03-.009c-.031,0-.064.008-.087-.021h0c-.04-.012-.086.007-.121-.026l-.056-.006-.031,0c-.033,0-.069.017-.092-.021a.023.023,0,0,1-.025-.006c-.033,0-.066,0-.091-.024a.023.023,0,0,1-.027-.006.073.073,0,0,1-.067-.022h0a.014.014,0,0,1-.022-.006.057.057,0,0,1-.06-.024.081.081,0,0,1-.07-.028h0l-.047-.011a.031.031,0,0,1-.037-.019.016.016,0,0,1-.022-.007.055.055,0,0,1-.057-.026h0a.1.1,0,0,1-.073-.025h0l-.01,0-.005-.009-.087-.028a.32.32,0,0,1-.155-.053h0a.542.542,0,0,1-.057,0c-.029,0-.042-.017-.026-.047s.006-.042.035-.03.088,0,.118.042h0c.03,0,.069-.019.083.03a.11.11,0,0,1,.1.028l.051.008h0l.059,0h0l.025-.038h0v-.01a.067.067,0,0,1-.041-.036.046.046,0,0,1,.041.036.041.041,0,0,0-.041-.036h-.01l0-.008a.04.04,0,0,1-.042-.023h0l-.01,0-.006-.008a.068.068,0,0,1-.069-.025h0A.014.014,0,0,1,20,20.52a.057.057,0,0,1-.06-.025.072.072,0,0,1-.067-.027l-.05-.011c-.023,0-.046,0-.059-.022a.2.2,0,0,1-.079-.021l-.01-.008-.029,0a.087.087,0,0,1-.072-.021h0l-.046-.009h0a.089.089,0,0,1-.073-.021h0l-.074-.009a.057.057,0,0,1-.059-.024l-.03,0a.033.033,0,0,1-.041-.02.011.011,0,0,1-.017-.007.061.061,0,0,1-.06-.026.093.093,0,0,1-.072-.027h0l-.01,0-.006-.009a.039.039,0,0,1-.043-.022h0l-.01,0-.006-.008c-.033,0-.065,0-.086-.029h0a.147.147,0,0,1-.1-.024h0l-.01,0-.007-.008a.137.137,0,0,1-.08-.02l-.011-.008-.027,0a.059.059,0,0,1-.063-.023.02.02,0,0,1-.026-.008.04.04,0,0,1-.041-.019h0a.039.039,0,0,1-.047-.006.027.027,0,0,1-.034-.022c-.038-.011-.086.01-.114-.034-.034,0-.07,0-.1-.028a.014.014,0,0,1-.021-.006.058.058,0,0,1-.063-.025.021.021,0,0,1-.025,0,.11.11,0,0,1-.094-.027c-.086-.083-.2-.127-.29-.2a.553.553,0,0,0-.158-.072,2.04,2.04,0,0,1-.735-.329.677.677,0,0,0-.273-.093.233.233,0,0,1-.142-.066A.882.882,0,0,0,16.1,18.9c-.111-.048-.224-.1-.331-.153-.138-.076-.3-.093-.439-.161-.19-.09-.354-.226-.553-.3-.062-.022-.108-.075-.189-.057-.037.009-.094-.027-.127-.059a1.8,1.8,0,0,0-.382-.245.9.9,0,0,0-.381-.185,2.836,2.836,0,0,0-.48-.264c-.118-.074-.225-.164-.35-.228-.245-.125-.491-.25-.732-.381a7.745,7.745,0,0,0-.7-.355,4.784,4.784,0,0,1-.575-.282,1.231,1.231,0,0,1-.412-.268c-.044-.056-.127-.074-.188-.123a5.362,5.362,0,0,0-.6-.435v-.014l-.122-.056c-.04-.042-.106-.044-.141-.094-.008-.022,0-.029.022-.022.047.016.1.02.121.08a.186.186,0,0,1,.149.092c.018-.005.042.008.052-.016.022-.053.051-.046.091-.018.249.182.53.314.778.5a.2.2,0,0,0,.092.04,1.384,1.384,0,0,1,.38.191,1.573,1.573,0,0,0,.162.09,1.338,1.338,0,0,1,.238.115c.04.024.085.077.145.034a.029.029,0,0,1,.047.01c.033.1.13.082.2.111.026.011.057.008.083.026a3.4,3.4,0,0,0,.5.265c.143.072.294.129.439.2a.081.081,0,0,1,.018-.112c.026-.022.052-.011.072.014h0c.177.1.369.178.554.264a1.835,1.835,0,0,1,.348.184,2.364,2.364,0,0,0,.451.268c.042.016.094.013.127.074a.247.247,0,0,1-.158-.047c-.125-.013-.238-.071-.368-.074a.524.524,0,0,1-.226-.1,1,1,0,0,0-.435-.181c-.016.044.018.05.041.064.151.091.3.176.461.254.046.023.1.041.086.117-.009.038.03.047.054.057.272.12.547.233.816.359.172.081.364.107.531.191.193.1.39.189.586.282a5.285,5.285,0,0,1,.583.3c.062.04.143.028.2.083a.1.1,0,0,1,.1.02h.057c.01-.015.02-.016.031,0l.054.008.059-.027h0l0-.01h-.025c-.027.008-.052.012-.066-.02l0-.011a.037.037,0,0,1-.033-.024.029.029,0,0,1-.028-.005.054.054,0,0,1-.058-.025.087.087,0,0,1-.072-.026H16.64l-.006-.01a.026.026,0,0,1-.03-.022c-.019,0-.029-.011-.028-.031h0a.089.089,0,0,1-.036-.051c-.029-.01-.067.006-.087-.031l-.039-.024a.032.032,0,0,1-.017-.01l-.028-.007c-.018,0-.027,0-.032-.021a.068.068,0,0,1-.058-.03.063.063,0,0,1-.061-.03l-.027-.01a.024.024,0,0,1-.026-.021h0a.03.03,0,0,1-.031-.027.029.029,0,0,1-.028-.031h0a.039.039,0,0,1-.03-.029.033.033,0,0,1-.033-.025c-.03-.005-.069.009-.087-.031a.039.039,0,0,1-.033-.026c-.029-.008-.067.006-.085-.032a.048.048,0,0,1-.039-.029.045.045,0,0,1-.047-.007.027.027,0,0,1-.034-.021.081.081,0,0,1-.057-.032.043.043,0,0,1-.041-.028.051.051,0,0,1,.021.006.047.047,0,0,0-.021-.006l-.046-.014c-.016,0-.024-.007-.028-.02h0a.073.073,0,0,1-.061-.028.055.055,0,0,1-.058-.031.032.032,0,0,1-.034-.025.038.038,0,0,1-.031-.026.064.064,0,0,1-.053-.066c-.009-.011-.019-.02-.027-.031h0c-.025,0-.052.009-.066-.022l-.138-.071c-.026,0-.041-.017-.061-.025a.125.125,0,0,1-.083-.056h0a.234.234,0,0,1-.038-.009c-.009,0-.008-.015,0-.019a.053.053,0,0,1,.059.022c.032.007.071-.009.1.028.028.011.06.011.083.034a.1.1,0,0,1,.086.032l.03,0h0a.056.056,0,0,1,.061.022c.033,0,.069-.007.091.03h.014l.011.007c.02,0,.03.006.036.023l.013,0,.01.007c.05,0,.1-.014.149.024.031.007.065,0,.09.026a.079.079,0,0,1,.07.031h0l.045.01c.02,0,.029,0,.03.023.024.013.021.039.03.059a.064.064,0,0,1,.057.031h0c.025,0,.051,0,.064.027h.015l.01.01c.034.015.021.055.041.077l.011,0,.007.009a.032.032,0,0,1,.037.017.073.073,0,0,1,.062.035l.011,0,.008.008c.026,0,.048,0,.06.026a.066.066,0,0,1,.064.059h.013l.011.008c.018,0,.031,0,.029.024a.037.037,0,0,1,.011.019l.024.039h.013l.011.007a.051.051,0,0,1,.056.026h0a.081.081,0,0,1,.066.025l.013,0,.01.008a.059.059,0,0,1,.061.025.092.092,0,0,1,.07.028h0l.046.008a.1.1,0,0,1,.077.016l.012.009a.024.024,0,0,1,.033.016l.036.039h.011l.008.008a.066.066,0,0,1,.062.022.092.092,0,0,1,.085.034.057.057,0,0,1,.062.028h.014l.013.007a.063.063,0,0,1,.063.02.121.121,0,0,1,.085.033c.025,0,.05,0,.063.029h.013l.012.007a.048.048,0,0,1,.055.027l0,0c.024,0,.046,0,.059.027h0a.057.057,0,0,1,.055.03l0,0a.036.036,0,0,1,.034.022c.031,0,.064,0,.083.034h0a.032.032,0,0,1,.034.024.039.039,0,0,1,.033.03.02.02,0,0,1,.023.01.042.042,0,0,1,.042.019l-.042-.019a.107.107,0,0,0,.042.019l.01,0,.006.009a.063.063,0,0,1,.062.026l.014,0,.013.007a.035.035,0,0,1,.042.021h0l.046.012c.018,0,.027.006.034.021l.013,0,.011.007h0a.747.747,0,0,1,.107.036c.026.015.084.019.065.06s-.064.006-.1-.007a.259.259,0,0,0-.165-.037l0,0c-.007.028-.018.021-.029,0l-.028-.008h0c-.015,0-.028,0-.034-.016a.064.064,0,0,1-.062-.033l-.047.016.023.041h0a.03.03,0,0,1,.033.026.04.04,0,0,1,.035.028.017.017,0,0,1,.022.01.038.038,0,0,1,.041.019h.012l.006.01c.023,0,.045,0,.06.023a.055.055,0,0,1,.059.029.063.063,0,0,1,.057.031h0a.041.041,0,0,1,.042.025h0l.01,0,.007.009a.031.031,0,0,1,.036.024h.013l.01.008a.028.028,0,0,1,.035.022.021.021,0,0,1,.024.01l.084-.013c.015-.03.031-.023.047,0h0l.01,0,.006.008a.056.056,0,0,1,.057.03h0c.04.031.078-.049.118,0h0a.069.069,0,0,1,.059.029h0a.041.041,0,0,1,.044.024h0l.01,0,.006.008a.037.037,0,0,1,.042.024l.011,0,.006.008a.04.04,0,0,1,.042.023h0c.016-.019.03-.019.043,0a.13.13,0,0,1,.1.028h0l.044.009a.051.051,0,0,1,.059.023c.024,0,.049,0,.056.031h0c.027.009.029.034.037.055l.054.01a.056.056,0,0,1,.061.02.077.077,0,0,1,.057.01.038.038,0,0,1,.04.017h0l.077.006c.024,0,.043,0,.05.028l.039.036a.085.085,0,0,1,.072.019h0L19.73,20c.163.02.326.043.49.059.053,0,.073.067.128.058s.1.028.147.03c.009,0,.023,0,.026,0s.056.013.034.043l-.009.006,0,.006,0-.006a.038.038,0,0,1-.049-.022.363.363,0,0,1-.181-.032,2.12,2.12,0,0,1-.464-.034c-.07.029-.07.029,0,.087a.5.5,0,0,0,.168.035c.049,0,.062.033.064.093-.115-.063-.249-.012-.354-.093l-.056-.006A.079.079,0,0,1,19.6,20.2h0l-.075-.008a.1.1,0,0,1-.074-.016.033.033,0,0,1-.014-.01l-.03,0c-.026.008-.042-.009-.058-.026h0c-.043,0-.087-.013-.118.029a.05.05,0,0,1,0,.027l.033.031.013,0,.012.006a.1.1,0,0,1,.091.026l.015,0,.012.008a.059.059,0,0,1,.062.023h.014l.013.007a.059.059,0,0,1,.061.024l.027.006a.083.083,0,0,1,.072.021h0l.046.008c.033,0,.066,0,.091.024a.149.149,0,0,1,.086.009.042.042,0,0,1,.044.017l-.044-.017c.015,0,.027.018.044.017l.045.01c.039,0,.085-.021.117.024h0a.031.031,0,0,1,.036.022.045.045,0,0,1,.029.035.02.02,0,0,1,.024.009.027.027,0,0,1,.034.016c.04.008.086-.006.116.035l.027.01c.016,0,.024.008.03.02l.058,0a.031.031,0,0,1,.04.022l.011,0,.008.007a.157.157,0,0,1,.091.025.065.065,0,0,1,.06.027c.035.006.075-.007.1.031h0l.044.012c.023,0,.046,0,.059.021.038.013.084,0,.117.03l.031.008c.017,0,.026.006.033.02h.013l.012.006c.039,0,.082-.007.114.028h0c.035,0,.073-.01.1.023h0l.01,0,.007.008c.026.012.028-.04.057-.021a.023.023,0,0,1,.031,0,.222.222,0,0,1,.12.05.038.038,0,0,1,.038.029l.01,0,.009.006a.091.091,0,0,1,.091.028c.058,0,.115.024.173,0a.065.065,0,0,1,0-.024l-.031-.03a.071.071,0,0,1-.061-.03.022.022,0,0,1-.026-.006c-.019,0-.028,0-.032-.022a.085.085,0,0,1-.058-.032l-.028-.008a.032.032,0,0,1-.037-.019.015.015,0,0,1-.022-.006.063.063,0,0,1-.062-.025.022.022,0,0,1-.027-.007.061.061,0,0,1-.063-.022l-.055-.008a.058.058,0,0,1-.058-.023l-.059,0c-.02.006-.029-.006-.036-.022-.017,0-.034.012-.052,0-.025.006-.029-.014-.036-.03a.018.018,0,0,1-.023,0c-.011.008-.019.007-.022,0s0-.025.02-.026h0a.068.068,0,0,1,.1,0h0l.053.008a.069.069,0,0,1,.066.021l.051.006a.094.094,0,0,1,.093.025l.055,0c.04,0,.083,0,.118.026l.059,0a.118.118,0,0,1,.094.023l.013,0,.011.008a.151.151,0,0,1,.1.023h0l.01,0,.006.008a.128.128,0,0,1,.1.026l.052.006a.1.1,0,0,1,.091.024h.014l.013.006a.142.142,0,0,1,.1.023h0l.01,0,.008.008a.128.128,0,0,1,.1.024h0l.044.008a.063.063,0,0,1,.065.023.164.164,0,0,1,.113.01.082.082,0,0,1,.072.018h.011l0,.009a.217.217,0,0,1,.03.023h0l-.03-.023c.015,0,.03,0,.03.023h0c.027.068.091.077.15.093.092.026.185.051.277.084h0c0-.011,0-.006,0,0l.051.018c-.116.043-.227-.019-.341-.017a2.122,2.122,0,0,1-.346-.033l-.034,0-.1,0c-.077,0-.077,0-.041.089a.036.036,0,0,1,.038.028l.011,0,.009.007a.059.059,0,0,1,.064.026l.013,0,.011.008c.032,0,.067,0,.092.024h.014l.012.008a.038.038,0,0,1,.044.019h.01l.005.008a.037.037,0,0,1,.041.023l.048.009a.052.052,0,0,1,.059.024.034.034,0,0,1,.037.027h.012l.01.008a.129.129,0,0,1,.095.023l.111.008c.039.011.084-.011.119.022l.057.008a.07.07,0,0,1,.06,0,.031.031,0,0,1,.04.021l.048,0a.024.024,0,0,1,.042,0h0l.047.012c.017,0,.025.007.031.02h.052c.022-.024.043-.028.062,0h0a.043.043,0,0,1,.042.025l.008-.006.008.005c.042-.021.084-.044.124,0l.011,0,.011,0a.07.07,0,0,1,.031-.018.023.023,0,0,1,.032,0,.029.029,0,0,1,.034.019h.013l.011.007.059,0h0c.019-.031.039-.027.059,0a.272.272,0,0,0,.117,0,.018.018,0,0,1,.029,0,.063.063,0,0,1,.066.026l.008,0,.009,0c.053-.047.107-.028.16,0h0l.007-.005.007,0a.193.193,0,0,1,.169,0h0c.027-.018.053-.027.079,0h.042c.015-.019.029-.022.043,0l.056,0a.068.068,0,0,1,.059,0h.058l.031.007a.1.1,0,0,1,.034.017l.054,0,.029,0h.03a.192.192,0,0,1,.1.022h0l.044.006h.059a.075.075,0,0,1,.059,0h.059l.03,0h0l.029-.009h0l.037-.029c.014-.047.052-.025.081-.028a.073.073,0,0,0,0-.058l-.027-.008a.04.04,0,0,1-.043-.018h0l-.046-.009a.083.083,0,0,1-.072-.021h0l-.045-.008c-.029,0-.064.015-.08-.025-.016-.019-.01-.051-.038-.063l-1.413-.208a1.421,1.421,0,0,1-.3-.057.389.389,0,0,1-.2-.052.355.355,0,0,1,.238.022,1.426,1.426,0,0,1,.435.062c.119-.065.237,0,.353.009.269.024.529.109.8.134l.115.007h0a1.552,1.552,0,0,1,.354,0c.069-.007.143.026.206-.027a.11.11,0,0,1,.089,0c.031-.013.114.04.074-.06h0l-.075-.01c-.052,0-.107.012-.155-.021a.257.257,0,0,1-.14-.008c-.019,0-.038.017-.059.006l-.03,0c-.043-.006-.09.006-.131-.022h0l-.075-.007c-.067-.012-.071-.023-.029-.075a.131.131,0,0,1,.078-.013c.017-.028.035-.027.054,0h0l.039,0c.034-.047.084-.008.123-.022h.031c.039-.023.077-.065.121-.007l.043,0a.147.147,0,0,1,.1-.022l.012-.007.013,0,.034-.031c0-.053-.043-.054-.084-.054l-.358-.005c-.019.006-.029,0-.033-.021l-.055-.009c-.027.027-.057.009-.087,0a.086.086,0,0,1-.09.024.576.576,0,0,1-.207,0l-.014,0-.014,0h-.031c-.03,0-.063.007-.084-.025h0l-.03,0a1.94,1.94,0,0,1-.449-.052c-.176-.039-.356-.038-.534-.076a2.312,2.312,0,0,0-.377-.1,1.482,1.482,0,0,1-.316-.054c-.306-.083-.61-.174-.923-.231l-.149-.029c-.127-.023-.263.009-.381-.063-.023-.014-.047-.021-.063,0-.038.059-.078.034-.126.014a3.786,3.786,0,0,0-.622-.208.491.491,0,0,1-.235-.1c-.021-.018-.037-.042-.075-.028s-.08-.012-.122-.027a1.728,1.728,0,0,0-.269-.089,2.85,2.85,0,0,0-.509-.086.1.1,0,0,1-.081-.027.268.268,0,0,0-.157-.068c-.134-.033-.26-.088-.39-.133a2.792,2.792,0,0,1-.492-.2c-.07-.041-.149-.06-.218-.1s-.1-.119-.173-.144l-.062-.021a.12.12,0,0,1-.1-.049.069.069,0,0,1,.1.014c.042.007.089,0,.125.03h0c.159.056.36-.007.476.17.006.01.027.01.041.013a.861.861,0,0,1,.247.08c.025.012.064.029.081.019.123-.074.216.05.328.043.162.116.376.059.541.163a.038.038,0,0,0,.028-.007c.047-.033.081-.007.115.024s.051.045.078.032c.068-.032.108.01.154.045.019.015.051.041.061.035.092-.054.131.032.187.068.02.013.034.04.06.031a.166.166,0,0,1,.171.061c.053.052.12,0,.178.041a1.278,1.278,0,0,0,.422.1c.084.013.162.066.253.043l.012.008c.05.043.1.076.169.031.021-.014.051.022.075.037l.03-.029c-.044-.065-.134-.087-.164-.161.046-.061.1-.024.163-.034-.075-.064-.058-.1.021-.124a.061.061,0,0,1,.07.02l.057,0,.086-.014,0-.01-.048-.012a.053.053,0,0,1-.069-.023h0c-.033-.02-.065-.042-.1-.06-.013-.007-.03-.03-.044,0-.035.076-.089.031-.137.02-.079-.017-.147-.064-.228-.08-.129-.025-.276-.012-.368-.139a.016.016,0,0,0-.012-.007c-.171-.029-.324-.118-.495-.151-.046.015-.077-.024-.118-.031v-.009h0v.009c-.023,0-.054.015-.059-.025h0l0,0v0l.06.005a.127.127,0,0,1,.114.021.724.724,0,0,1,.341.049c.063.015.131.072.187-.019.014-.023.046,0,.069,0a1.07,1.07,0,0,1,.353.087,1.824,1.824,0,0,0,.276.092c.209.066.429.064.641.114.157.037.323.025.484.058a1.524,1.524,0,0,1,.721.2c.035.028.093.026.138.044.135.057.281.075.419.122a.265.265,0,0,1,.149.024.153.153,0,0,1,.087.008c.031,0,.066-.01.091.021l.014,0,.012.008a.035.035,0,0,1,.043.02h0l.046.013h0a.041.041,0,0,1,.043.017l-.043-.017c.015.005.027.017.043.017a.037.037,0,0,1,.059,0h0l.01,0,.006.008c.035,0,.075-.019.1.023h0l.016-.051h0l0,0,0,0v0l-.022-.011c.021-.02.02,0,.022.01h0v0a.082.082,0,0,1,.027,0c.035-.029.073,0,.109-.008.014-.018.028-.016.04,0l.087,0a.393.393,0,0,1,.192.023h0a.37.37,0,0,1,.162.006c.027-.008.042.009.057.027h.212c.031,0,.067-.009.089.025l.113,0c.029-.01.043.012.059.029l.03,0h.029a.331.331,0,0,1,.133-.008.17.17,0,0,1,.132-.02.478.478,0,0,1,.177-.006c.01-.02.022-.022.035,0H26.8c.026-.039.053-.021.079,0h0a.022.022,0,0,1,.033,0c.026-.037.049-.022.073,0l.012,0,.011,0C27.025,20.113,27.05,20.09,27.034,20.055ZM24.049,18.96l.01.016-.01.011a.151.151,0,0,1-.009-.018Zm-.135-.022.011.005c0,.009,0,.013-.015.011l-.006-.009ZM18.2,1.183l-.029.029Zm-1.272,1.3c0-.029-.034-.063.015-.082a.036.036,0,0,1,.049.01c.034.047-.033.046-.036.075s-.016.051-.047.055a.029.029,0,0,1-.015-.02A.033.033,0,0,1,16.924,2.478ZM16.661.923c.007,0,.015.005.023.008a.055.055,0,0,0-.009.015.061.061,0,0,1-.028-.009C16.651.932,16.656.923,16.661.923ZM1.49,25.7l.005-.009,0,.01Zm.077-.081s-.009-.008-.014-.012l.01-.008a.218.218,0,0,1,.023.009C1.58,25.612,1.574,25.619,1.567,25.619Zm.641-2.242-.015-.01.007-.008.014.008ZM8.57,14.738l-.008-.008.009-.006.008.008ZM9,15c-.016.017-.05-.012-.06-.043h0a.083.083,0,0,1-.086-.06h0l0,0,0,0v0a.1.1,0,0,1-.085-.033c-.024-.011-.052-.017-.064-.046-.017-.005-.037-.007-.043-.028,0,0,.006-.008.01-.009a.036.036,0,0,1,.043.026.009.009,0,0,0-.01.011l.01-.011a.09.09,0,0,1,.082.029c.026.014.052.028.057.061h0c.037-.016.06.009.083.031a.111.111,0,0,1,.027.012C8.983,14.952,9.028,14.967,9,15Zm3.679,1.55c-.028-.018-.053-.041-.093-.03a.094.094,0,0,1-.093-.032c-.038-.039-.073-.08-.139-.054-.023.009-.044-.015-.062-.031-.039-.034-.071-.089-.137-.053-.016.008-.028,0-.038-.015a.82.82,0,0,0-.308-.147.29.29,0,0,1-.126-.072,1.475,1.475,0,0,0-.5-.33,5.224,5.224,0,0,0-.575-.311.5.5,0,0,1-.184-.143c-.012-.013-.026-.03-.011-.052a.053.053,0,0,1,.062-.027.327.327,0,0,1,.066.03c.259.131.521.256.778.389.147.077.293.163.439.241.23.122.446.266.67.4.074.043.133.11.228.117.022,0,.041.039.061.06a.1.1,0,0,0,.091.024c.034-.01.067,0,.086.057C12.816,16.554,12.745,16.648,12.679,16.546Zm7.467,3.742c-.005,0-.01-.012-.015-.018s.017-.009.025-.008.008.012.011.019S20.156,20.3,20.146,20.288Zm.135.039a.166.166,0,0,1-.03-.022c-.006-.007,0-.016.014-.016s.025,0,.03.016Zm.133.033a.21.21,0,0,1-.03-.022l.01-.02.032.017Zm.126.044a.064.064,0,0,1-.008-.019l.009-.009a.064.064,0,0,1,.008.019Zm4.806,1.126.023.006-.012.014c-.007,0-.013-.007-.02-.01ZM23.319,21c.007,0,.015.009.027.017a.194.194,0,0,1-.042.01l-.024-.015A.194.194,0,0,1,23.319,21Zm-2.556-.478h0l.057.007c.033.013.1-.028.095.051.015-.014.028-.034.054-.023h0c.008,0,.022,0,.023.009s-.01.02-.023.023c-.022.033-.042.036-.06,0-.033,0-.068.012-.089-.026h0l-.058-.011a.1.1,0,0,1-.089-.042A.062.062,0,0,1,20.763,20.519Zm-.18-1.322h0c-.018,0-.036.01-.051-.008l.006-.018c.025,0,.039,0,.045.025h0Zm1.631-.331c-.008.007-.027,0-.041,0a.33.33,0,0,1-.231-.026.088.088,0,0,1-.077-.015c.059-.029.109-.066.173-.02l.05.008a.155.155,0,0,1,.11.014C22.21,18.837,22.238,18.844,22.214,18.866Z"/></g></g></g></svg>