<svg xmlns="http://www.w3.org/2000/svg" viewBox="0 0 27.04 26.33"><defs><style>.cls-1{fill:#fff;}</style></defs><title>menu-close</title><g id="Layer_2" data-name="Layer 2"><g id="MENU"><g id="MENU-2" data-name="MENU"><path id="X" class="cls-1" d="M27,20.05s0,0,0,0a.1.1,0,0,1-.12-.05h-.14s0,0,0,0h0c-.1,0-.2,0-.3,0h0l-.06,0h0a.07.07,0,0,1-.06,0h0s-.09,0-.13,0a.69.69,0,0,1-.2,0h-.12s-.1,0-.15,0h0s0,0-.06,0h-.06s0,0,0,0h-.08l0,0,0-.06s0,0-.06-.08h0s-.05,0-.08,0a.11.11,0,0,1-.09,0h0s-.05,0-.07,0a0,0,0,0,1,0,0,.09.09,0,0,1-.07,0H24.8a0,0,0,0,1-.06,0h-.22a.16.16,0,0,1-.19-.08h-.09s0,0,0,0h0s0,0,0,0-.05,0-.06,0,0,0,0,0-.08.06-.13,0-.11,0-.16,0h0s0,0,0,0h-.18a.17.17,0,0,1-.12,0,.07.07,0,0,1,0,0h0a0,0,0,0,1,0,0h0c-.06-.06-.13-.05-.2-.06s-.16,0-.19-.11v0h0c-.07,0-.14,0-.21,0h-.08a.32.32,0,0,1-.14,0c-.06,0-.12,0-.16-.05s.11,0,.16,0h0c.05,0,.09,0,.14,0h.14s.11,0,.15.06h0c.14.06.29.07.42.14h0c.05,0,.09,0,.13,0s.08,0,.12,0H24a2,2,0,0,1,.42,0h.05a.15.15,0,0,1,.09,0,.11.11,0,0,1,.08,0h0c0-.05,0,0,.07,0a.06.06,0,0,1-.07,0h0v.08h.14s0,0,.06,0a.14.14,0,0,1,.09,0h.29s0,0,0,0a.81.81,0,0,1,.22,0,.1.1,0,0,0,0-.09h0s-.05,0-.05,0h0s0,0,.05,0h.17s.05,0,.07,0h0l0,0h0s-.09,0-.11-.06,0,0,0,0a0,0,0,0,1,0,0l-.07,0h0a.11.11,0,0,1-.12,0h0a0,0,0,0,1,0,0s0,0,0,0h0a1.7,1.7,0,0,1-.39,0H25s0,0,0,0,0,0,0,0a.2.2,0,0,0-.15,0s0,0,0,0h0a0,0,0,0,1,0,0s-.08,0-.12,0h0s0,0,0,0h0s0,0,0,0-.09,0-.12,0h-.06s0,0,0,0h0a0,0,0,0,1,0,0c-.05,0-.1.05-.14,0s.09,0,.14,0h.09s.06,0,.09,0h.05c0-.05.07,0,.11,0h0a.07.07,0,0,1,.1,0h.05s0,0,0,0h.21a0,0,0,0,1,.06,0h.16a.14.14,0,0,0,0-.09s0,0,0,0l-.06,0h-.11c-.05,0-.11,0-.15,0h-.11a.5.5,0,0,1-.21,0,.69.69,0,0,1-.2,0,.06.06,0,0,1-.08,0h0s-.09,0-.13,0-.06,0-.09,0h-.55a.2.2,0,0,1-.13,0,.05.05,0,0,1-.05,0s-.06,0-.07,0h0l0,0h0s0,0-.05,0h0s0,0-.06,0,0,0-.06,0-.07,0-.1,0h0s-.06,0-.09,0l-.06,0s-.05,0-.07,0h0a.05.05,0,0,1,0,0h0s-.05,0-.07,0a0,0,0,0,1,0,0h-.06s0,0,0,0h0l0,0h0a.31.31,0,0,1-.21,0h-.05a.08.08,0,0,1-.07,0h0s-.07,0-.09,0-.1,0-.13,0h0s0,0,0,0,0,0,0,0,0,0,0,0a.59.59,0,0,1-.26-.07h-.05s-.05.05-.07,0a.07.07,0,0,1-.06,0h0a.1.1,0,0,1-.09,0,.09.09,0,0,1-.09,0s0,0,0,0-.09,0-.12,0h0l0,0h0s-.09,0-.13,0h0s0,0,0,0-.06,0-.07,0h-.05s-.06,0-.09,0-.09,0-.12-.06h0a0,0,0,0,1,0,0,.06.06,0,0,1-.06,0l-.15,0A.07.07,0,0,1,20,18s0,0,0,0l-.07,0h0a.17.17,0,0,1-.1,0h0s-.05,0-.06,0h0s-.05,0-.06,0-.07,0-.1,0h0s-.05,0-.06,0a.49.49,0,0,1-.17-.06h0l0,0s0,0,0,0,0,0,0,0h0a.13.13,0,0,1-.09,0h0a.06.06,0,0,1-.06,0s0,0,0,0-.07,0-.09,0,0,0-.05,0l-.09,0s-.05,0-.07,0h-.05s0,0,0,0h0s-.08,0-.09-.05h0a.07.07,0,0,1-.06,0h0s0,0,0,0a0,0,0,0,1,0,0s0,0,0,0-.05,0-.07,0h0a.06.06,0,0,1-.06,0h0s-.07,0-.1,0h0a.1.1,0,0,1-.07,0h-.05l0,0s0,0,0,0h0s-.05,0-.07,0l0,0s-.06,0-.08,0h0a.22.22,0,0,1-.12-.05.07.07,0,0,1-.06,0h0s0,0,0,0a.07.07,0,0,1-.06,0,0,0,0,0,1,0,0s0,0,0,0h-.05s0,0,0,0a.09.09,0,0,1-.05,0,0,0,0,0,1,0,0s0,0,0,0H17s0,0,0,0a.05.05,0,0,1,0,0s0,0,0,0,0,0-.06-.06a.08.08,0,0,1-.07,0h0s0,0,0,0-.05,0-.06,0,0,0,0,0-.05,0-.07,0h0s0,0-.05,0-.05,0-.06,0a.09.09,0,0,1-.05,0h0s0,0,0,0h0s0,0,0,0h0s0,0,0,0-.05,0-.06,0a0,0,0,0,1,0,0l0,0c-.07,0-.06-.08-.09-.12s0,0-.05,0-.07,0-.1-.05a.34.34,0,0,1-.11-.07h0s0,0,0,0,0,0,0,0h0a.05.05,0,0,1-.05,0s0,0,0,0-.07,0-.09,0a0,0,0,0,1,0,0s-.07,0-.08,0h0s0,0,0,0-.05,0-.05,0l0,0h0s0,0,0,0h0s-.07,0-.09,0h0s0,0,0,0h0s-.07,0-.09,0l0,0h0s-.06,0-.07,0l-.05-.06h0s-.09,0-.1-.06-.1,0-.14,0h0s0,0,0,0a0,0,0,0,1,0,0l-.06,0h0s-.06,0-.08-.06h0s0,0,0,0-.06,0-.09,0a.09.09,0,0,1-.06-.06.19.19,0,0,1-.11-.07,0,0,0,0,1-.06,0,0,0,0,0,1,0,0s-.05,0-.06,0h0c-.05,0-.06,0-.07,0s0,0,0-.06l0,0H13.6c-.08,0-.08,0-.09-.06l-.07-.06h0a0,0,0,0,1-.06,0h0a0,0,0,0,1,0,0s0,0,0,0,0,0,0,0l-.06,0h-.05c-.06,0-.07,0-.09-.06h0s0,0-.06-.05-.07,0-.09,0h0s-.07,0-.09-.06h0l0,0a.18.18,0,0,1-.09-.06,0,0,0,0,1,0,0s-.07,0-.09,0,0,0,0,0h0a.06.06,0,0,1,0-.06h0l0,0h0s0,0,0,0h0s0,0,0,0h0s0,0,0,0,0,0,0,0,0,0,0,0h0s0,0-.06,0-.07,0-.09,0h0s0,0,0,0,0,0-.06,0l0,0s-.05,0-.06,0l-.06,0-.06,0h0s0,0,0,0,0,0,0,0a.05.05,0,0,1-.05,0h0s0,0,0,0a.05.05,0,0,1-.05,0s0,0,0,0,0,0,0,0,0,0,0,0h0s0,0,0,0,0,0,0,0,0,0,0,0l0,0h0s0,0,0,0h0s0,0,0,0l0,0s-.06,0-.08-.07h0l0,0h0s0,0,0,0,0,0,0,0,0,0,0,0h0s0-.05,0-.07v-.05s0,0,0-.06h0s0-.05,0-.07l0,0h0l0,0s0-.06,0-.07,0,0,0,0,0,0,0,0,0,0,0,0v0h0a.36.36,0,0,1,.11-.1h0s0,0,0-.06,0,0,0,0l0,0a.14.14,0,0,1,.07-.08h0l.2-.21a0,0,0,0,1,0,0l0,0s0-.05,0-.06,0,0,0,0h0s0-.08,0-.09,0,0,0,0h0l0,0,0,0a1431247566859.82,1431247566859.82,0,0,1,.06-.06.05.05,0,0,1,.06-.06.05.05,0,0,1,0,0,.1.1,0,0,1,0-.05h0a0,0,0,0,1,0,0s0,0,0,0,0,0,0,0h0c0-.05,0-.13.11-.16s0,0,0-.05h0s.06,0,.06-.08.07-.1.11-.14h0s0,0,0,0h0l0,0v0h0s0,0,0,0,0,0,0,0,0,0,0,0l0,0s0,0,0,0,0,0,0,0h0l0,0s0,0,0,0,0,0,0,0,0,0,0,0,0,0,0,0,0-.05,0-.05h0c.07-.05.05-.15.13-.18s0,0,0,0,0,0,0,0l0,0s0-.05,0-.06,0-.05,0-.05a0,0,0,0,1,0,0h0l.05,0s0,0,0-.05l0,0v0a.05.05,0,0,1,.05,0l0,0s0,0,0-.06a.05.05,0,0,1,.06-.06s0-.05,0-.05h0s0,0,0,0h0s0,0,.05,0,0,0,0-.06,0,0,0,0a.06.06,0,0,1,.06-.06L14,9.31s0,0,0-.05h0a0,0,0,0,1,0,0h0a.13.13,0,0,1,.06,0s0,0,0,0,0,0,0,0a0,0,0,0,1,0,0,.05.05,0,0,1,.05,0l0,0s0-.06,0-.08,0,0,.07,0v0h0s0,0,0,0v0s0,0,0,0a.16.16,0,0,0,.1-.11h0s0,0,.07,0h0v0s0,0,0,0,0,0,0,0,0,0,0,0,0-.07.06-.08,0,0,.06,0a.22.22,0,0,1,.06-.15h0l0,0s0,0,0,0,0,0,0,0h0l.08-.09s0,0,0,0,0,0,0,0,0,0,0,0,0,0,0-.06,0,0,0,0l0,0a.08.08,0,0,1,0-.08h0s0,0,0,0,0,0,0-.06a0,0,0,0,1,0,0s0,0,0,0,0,0,0-.06a.07.07,0,0,1,0-.06h0s0,0,0,0,0,0,0,0h0a.24.24,0,0,1,.09-.11h0l.06-.09h0s0,0,0,0,0,0,0,0,0-.09.06-.1,0,0,0,0h0s0,0,.06-.06h0s0,0,.06-.06h0s0,0,0,0,0,0,0,0,0,0,0,0,0,0,0,0a0,0,0,0,1,0,0,.1.1,0,0,1,0,0h0a.05.05,0,0,1,0,0,0,0,0,0,1,0,0l0,0h0l.07-.09s0,0,.06,0,0,0,0,0,0,0,0,0l0-.06s0,0,0,0,0,0,0,0,0-.09.06-.09,0,0,0,0l0,0a0,0,0,0,1,0-.06.05.05,0,0,1,0,0h0A.11.11,0,0,1,16.6,6h0a.1.1,0,0,1,.06-.09h0s0,0,0,0h0l0,0h0a0,0,0,0,1,0,0h0a0,0,0,0,1,0,0h0s0,0,0,0h0s0,0,.06-.06,0,0,0,0,0,0,0,0,0,0,0,0A.07.07,0,0,1,17,5.51s0,0,0,0,.07-.12.14-.15.05,0,.05-.08.05-.07.1-.08l0,0a0,0,0,0,1,0,0s0,0,0-.07h0s0,0,.06,0l.06-.08h0c0-.12,0-.12.09-.12l.06-.09c0-.11,0-.11.08-.12l.06-.09s0-.08,0-.11h.06l.06-.08s0-.06,0-.06h0l.09-.09s0,0,0,0,0-.09.06-.09a.1.1,0,0,1,0,0h0s0,0,0,0a0,0,0,0,1,0,0,.44.44,0,0,1,.12-.18s0,0,0,0,0,0,0,0,0,0,0,0l0,0s0,0,0,0h0s0-.06.06-.09,0,0,0,0,0,0,0,0,0,0,0-.06a.1.1,0,0,1,0,0,.09.09,0,0,1,0-.08h0a.1.1,0,0,1,.06-.09s0,0,0-.06h0s0,0,0,0h0a.06.06,0,0,1,0-.06h0s0,0,0,0a.07.07,0,0,1,0-.06A.1.1,0,0,1,19,2.81h0s0,0,.06,0l0,0h0s0,0,0-.06h0s0,0,0,0a0,0,0,0,1,0,0s0,0,0-.06l0,0s0,0,0,0,0,0,0,0h0s0,0,0-.07,0,0,0,0V2.27h0s0,0,0,0-.1,0-.06-.09h0s0,0,0-.05h0s0,0,0,0,0-.05,0-.06h0l0,0h0s0-.05,0-.06h0s0,0,0-.06,0-.07,0-.09-.05,0-.06,0,0,0,0,0,0-.07,0-.09,0,0,0-.06-.05,0-.06,0a0,0,0,0,1,0,0s0,0,0,0a.06.06,0,0,1,0-.06h0a0,0,0,0,1,0,0s0,0,0-.06h0l0,0h0l0,0a0,0,0,0,1,0,0V1.25s0-.05,0-.07h0a0,0,0,0,1,0,0c0-.08.09-.11.12-.17A.42.42,0,0,1,19.43.8h0s0-.05,0-.06,0-.06,0-.08h0l.07,0s0,0,0,0h.06v0s-.05,0-.05,0v0h0c0-.07.1,0,.15,0l0,0V.33s0,0,0,0h.08l0,0s0-.06,0-.08,0,0,0,0,0,0,0-.07v0s0,0,0,0l-.07,0h0s-.09,0-.13,0-.09,0-.12,0h0s0,0,0,0h-.08l0,0a0,0,0,0,1,0,0s0,0,0,0h0s0,0,0,0h0s0,0,0,0h0s0,0,0,0,0,0,0,0a.05.05,0,0,1,0,0,.1.1,0,0,1,0,0,0,0,0,0,1,0,0,0,0,0,0,1,0,0,.09.09,0,0,1,0,.06v0s0,0-.06,0h0a.05.05,0,0,1,0,0h0l0,0h0l0,0a0,0,0,0,1,0,0,0,0,0,0,1,0,0,.07.07,0,0,1,0,.06h0c0,.06-.08,0-.12,0h-.11L18.7.77a0,0,0,0,1,0,0l0,0c0,.08-.09.09-.12.14h0s0,0,0,0,0,0,0,0l-.08.07h0a.08.08,0,0,1,0,0s0,0,0,0h-.1s0,0,0,0h0l0,0h0l0,0,0,0a0,0,0,0,1,0,0l0,0s0,0,0,0,0,0-.06,0,0,0,0,0h0s0,0-.08,0h0l0,0h0s0,0,0,0l0,.06s0,0,0,0,0,.05,0,.05h0s0,0,0,0v0a0,0,0,0,1,0,0h0s0,0,0,0a.05.05,0,0,1,0,.05.06.06,0,0,1,0,.06h0s-.06,0-.09,0,0,0,0,.06a.06.06,0,0,1,0,.06s0,0,0,0,0,0,0,0,0,0,0,0,0,0,0,0l-.06,0a0,0,0,0,1,0,0s0,0,0,.06l0,0s-.07,0-.1,0a.17.17,0,0,1-.06.08h0a0,0,0,0,1,0,0h0c-.07,0,0,0,0-.07a.11.11,0,0,1,0,0,.05.05,0,0,1,0-.05h0s0,0,0-.06a.08.08,0,0,1,0,0h0s0,0,0-.05l0,0h0s0,0,0,0,0,0,.06,0h0s0,0,0-.07,0-.06,0-.09,0,0,0,0h0v0s0,0,0,0l0,0h0s-.09-.09,0-.16,0,0,0,0a.05.05,0,0,1,0,0s0,0,0,0,0,0,0,0a.05.05,0,0,1,0,0s0-.06,0-.08h0s0,0,0,0,0-.07,0-.09a0,0,0,0,1,0,0s0,0,0,0a1.33,1.33,0,0,0,0-.2s-.05,0-.05-.06h0a.05.05,0,0,1,0,0s0,0,0,0,0-.08,0-.12a.09.09,0,0,1,0-.06l0,0h0a.09.09,0,0,1-.06,0s0,0,0,0,0,0,0,0a0,0,0,0,1,0,0h0l-.07,0h0s-.07,0-.06.05a0,0,0,0,1,0,0s0,0,0,0a0,0,0,0,1-.06,0h0s0,0,0,.06,0,0,0,0h0s0,0,0,0,0,0-.05,0a.11.11,0,0,0-.09,0v0s.08,0,.08.06-.1,0-.14,0h0s0,.08-.06.11a0,0,0,0,1,0,0c-.06,0-.06.1-.09.14h0c-.08.05-.08.05-.11.16v0h0a0,0,0,0,1,0,0l0,0h0l0,0H16.2a0,0,0,0,1,0,0v0a.05.05,0,0,1,0,0s0,0,0,0,0,0,0,.05-.05,0-.08,0,.08,0,0,.09,0,0,0,0,0,0,0,0,0,0,0,0a.05.05,0,0,1,0,0,.07.07,0,0,1,0,.05s0,0,0,0-.05,0-.07,0v0h0a0,0,0,0,1,0,.06h0a0,0,0,0,1,0,0h0V2a0,0,0,0,1,0,0,.15.15,0,0,1-.06.1s0,0,0,0a.05.05,0,0,1,0,0h0a0,0,0,0,1,0,0h-.11s0,0,0,0h0a0,0,0,0,1,0,0h0s0,0,0,0a.07.07,0,0,1,0,0h0l-.12.09s0,.13-.1.14l0,0c0,.05,0,.13-.07.14h0c0,.05,0,.13-.08.17h0a.1.1,0,0,1,0,0l0,0s0,.07,0,.06-.09,0-.14,0l-.06.06s0,0,0,0,0,.06,0,.06,0,.05,0,.08,0,0,0,0a.05.05,0,0,1-.05,0l0,0s0,0,0,0,0,0,0,0h0a5307543060436.48,5307543060436.48,0,0,0-.06.06h0a.1.1,0,0,1-.05,0l0,0h0l-.07.12a0,0,0,0,1,0,0h0l0,0a.08.08,0,0,1,0,.09h0L14.16,4a.11.11,0,0,1-.08.13c0,.05,0,.1,0,.14h0a0,0,0,0,1,0,0c0,.05,0,.11-.07.15h0s0,0-.05.06,0,0,0,0a.05.05,0,0,1,0,0s0,0,0,0a.15.15,0,0,1-.06.05h0s0,0,0,0,0,0,0,0l0,0c0,.06,0,.13,0,.17s0,0,0,0a.5.5,0,0,1-.15.17s0,0,0,0l0,0h0l0,0h0a.27.27,0,0,1-.11.1s0,0,0,0v0c0,.06,0,.12-.07.15h0s0,0,0,0l0,0a0,0,0,0,1,0,0s0,.06-.06.06,0,.07,0,.09h0l-.06,0,0,0h0s0,0,0,0h0l-.06.08h0l0,.09h0s0,0-.07.06h0s0,0-.05.06,0,.07-.06.09a0,0,0,0,1,0,0l-.06.08h0s0,0,0,0,0,.06,0,.07h0s0,.07,0,.08,0,.07,0,.09h0l-.05.06s0,0,0,0,0,0,0,0h0a.08.08,0,0,0,0,.08.07.07,0,0,1,0,.09h0s-.05,0-.08,0,0,.09-.06.08l-.06,0v.05s0,0,0,.07h0s0,0,0,0h0a.06.06,0,0,1-.06,0s0,0,0,0h0l0,.06s0,0,0,0h0a.24.24,0,0,1-.06.11s0,0-.05,0,0,0-.06,0,0,.08,0,.11,0,0-.07,0h0s0,0,0,.06h0a0,0,0,0,1,0,0h0l0,0v0s0,0,0,0h0l0,0s0,0,0,0a.05.05,0,0,1,0,0h0s0,0,0,.06h0a.05.05,0,0,1-.05,0l0,0s0,0,0,0,0,.05,0,.07l0,0,0,0,0,0s0,0,0,0h0l0,0s0,0,0,0l0,0,0,0s0,0,0,0a0,0,0,0,1,0,0s0,0,0,0h0s0,0,0,0,0,0,0,0h0s0,0,0,0,0,0,0,0,0,0,0,0a716966417169.9,716966417169.9,0,0,1-.06.06l0,0s0,0,0,0,0,0,0,0,0,0-.06,0a.1.1,0,0,1-.05,0s0,.06-.06.08a0,0,0,0,1,0,0c0,.05,0,.08-.07.11h0s0,.06,0,.07a.05.05,0,0,1,0,0s0,0,0,0,0,.06-.06.08a0,0,0,0,1,0,0s0,0,0,0,0,0,0,0,0,0-.08,0a.1.1,0,0,1-.06.05h0s0,.09-.08.09a.22.22,0,0,0,0,.08h0v0h0s-.08,0-.07.08v0s0,0,0,0,0,0,0,0a.09.09,0,0,1-.06,0s0,0,0,0,0,0,0,0,0,.11-.09.12,0,.12-.09.15,0,.07,0,.09a0,0,0,0,1,0,0,.86.86,0,0,1-.13.2c-.06.08-.09.19-.19.24s-.15.16-.18.27-.14.07-.13.18h0c-.14.07-.2.06-.31-.06a.06.06,0,0,0-.07,0l-.12,0c0-.08,0-.15-.11-.16s0,0-.05-.07A.14.14,0,0,0,8,11c-.06-.06-.17-.08-.18-.18a.12.12,0,0,0-.11-.1s-.1,0-.09-.07,0-.12-.11-.13-.07,0-.07-.09,0-.11-.11-.09-.08,0-.07-.08,0-.12-.09-.11A.08.08,0,0,1,7.07,10c0-.09-.07-.1-.13-.14s-.06,0-.07,0a2.42,2.42,0,0,0-.36-.42.69.69,0,0,0-.19-.19.54.54,0,0,1-.22-.32l0-.12a2.53,2.53,0,0,0-.21-.32c0-.05,0-.12-.1-.15s-.13-.07-.1-.17,0-.06-.06-.07A.06.06,0,0,1,5.52,8a2.2,2.2,0,0,0-.17-.39,1.31,1.31,0,0,1-.21-.36A1.76,1.76,0,0,0,5,6.89s-.08-.11-.08-.16-.12-.22-.14-.35-.06-.21-.19-.25S4.48,6,4.44,5.86s0-.05,0-.06a1.28,1.28,0,0,1-.29-.28s0,0-.07,0-.09,0-.08,0,0,.28.1.39a.18.18,0,0,1,0,.15A.1.1,0,0,1,4,6a5.34,5.34,0,0,1-.39-.44s0-.08-.09-.06,0,.07,0,.1.12.14.16.23.09.07,0,.12S3.64,6,3.6,6l0,0c-.1-.14-.26-.19-.4-.3a.06.06,0,0,1-.06,0c-.05,0-.1-.1-.17-.07s-.11,0-.16,0l-.23-.16c-.09,0-.19,0-.27-.06s-.18,0-.25-.12l-.08-.08s0,0-.07,0a.06.06,0,0,0,0,.07A1.12,1.12,0,0,0,2,5.34c.06,0,.05.13.1.18a.8.8,0,0,1,.25.32c.05.1,0,.12-.07.14a.18.18,0,0,1-.17-.07s0-.07-.07-.09a2.44,2.44,0,0,1-.29-.27c-.09-.09-.22-.16-.28-.29s0,0-.06,0a.34.34,0,0,1-.15-.09,3.32,3.32,0,0,1-.38-.37,2.28,2.28,0,0,1-.33-.29h0a0,0,0,0,1,0,0h0s0,0,0,0,0,0,0,0h0l0,0s0,0,0,0a.08.08,0,0,1,0,0h0s0,0,0,0h0s0,0,0,0,0,0,0,0,0,0,0,0l0,0h0l0,0,0,0h0s0,0,0,0H0s0,0,0,0a.28.28,0,0,0,0,.09v0s0,.07,0,.1H0l0,0h0a0,0,0,0,1,0,0h0s0,0,0,.08a.09.09,0,0,1,0,.06s0,0,0,0,0,0,0,0h0s0,0,0,0h0s0,0,0,0h0s0,0,0,.05l0,0,0,0,0,0,0,0s.06,0,.06.06.06,0,.06.06,0,0,0,0,0,0,0,0,0,0,0,0,.07,0,0,.07,0,0-.06,0h0s0,0-.05,0,0,0,0,0H.42s0,0-.06,0,0,0-.07,0h0s0,0,0,0h0l0,0h0s0,0,0,0,0,.07,0,.1,0,0,0,0,0,0,0,0,0,0,0,0a.05.05,0,0,1,0,0,0,0,0,0,1,0,0v.05a.05.05,0,0,1,0,0s0,0,0,0v0s0,0,0,0,0,0,0,0a.1.1,0,0,1,.08.07h0l.06,0h0s0,0,0,0h0l.06,0s0,0,0,0h0L.63,6s0,0,0,0a.08.08,0,0,1,0,0s0,0,0,0,.09,0,0,.08h0l.05.1h0l0,0h0s.07,0,.06.06,0,0,0,0,0,0,0,0h0A.11.11,0,0,1,1,6.43a0,0,0,0,1,0,0s0,0,0,0,0,0,0,0,0,0,0,0a0,0,0,0,1,0,0,.09.09,0,0,1,0,.06s0,0,0,0a.09.09,0,0,1,0,.06s0,0,0,0a0,0,0,0,1,0,.06s0,0,0,0l0,0s0,0,0,0,0,0,0,0a0,0,0,0,1,0,0s0,0,0,.06,0,0,0,0a0,0,0,0,1,0,0v0s0,0,0,0,0,0,0,0l0,0a.11.11,0,0,1,0,.07l0,0s0,.06,0,.09,0,0,0,0h0s0,0,0,.06v0l0,0s0,0,0,0,0,0,0,0,0,0,0,0h0s0,0,0,0,0,0,0,0h0s0,0,0,0a0,0,0,0,1,0,0s0,0,0,0,0,0,0,0v0A.09.09,0,0,1,2,8H2a.05.05,0,0,1,0,.05s0,0,0,0,0,0,0,0a0,0,0,0,1,0,0,.1.1,0,0,1,.06.09s0,0,0,0,0,0,0,0,0,0,0,0,0,0,0,0,0,0,0,.07v0s0,0,0,0h0l0,0v0s0,0,0,0,0,.06,0,.09,0,0,0,.06a.05.05,0,0,1,0,.05s.06,0,.06,0h0a.05.05,0,0,1,0,0h0v0l0,0h0l0,.08h0s0,0,0,.05,0,.1,0,.15a.07.07,0,0,1,0,.06s.08.06.09.12,0,0,0,0,0,0,0,0a.05.05,0,0,1,0,0h0a.19.19,0,0,1,.09.11,0,0,0,0,1,0,0s0,0,0,0l0,0,0,0s0,0,0,.06a0,0,0,0,1,0,0,.05.05,0,0,1,0,0h0s0,0,0,0h0a.05.05,0,0,1,0,0h0a.05.05,0,0,1,0,.05s0,0,0,0h0a.1.1,0,0,1,0,.05s0,0,0,0,0,0,0,0h0a.05.05,0,0,1,0,0l0,0h0l0,0s0,0,0,0,0,0,0,0h0v0l0,0h0s0,0,0,0,0,0,0,0,0,0,0,0h0s0,0,0,.06h0a.05.05,0,0,1,0,0,.05.05,0,0,1,0,0h0a.08.08,0,0,1,0,.05h0a.05.05,0,0,1,0,0h0a.05.05,0,0,1,0,0l0,0h0s0,0,0,0h0l0,0a.05.05,0,0,1,0,0,0,0,0,0,1,0,0s0,0,0,.06,0,0,0,0H4v0s0,0,0,0a.06.06,0,0,1,0,.06s0,0,0,0h0a.05.05,0,0,1,0,0h0s0,0,.06,0h0c.06,0,0,.07,0,.11l.13.12h0s0,0,0,.06a.54.54,0,0,1,.09.12,0,0,0,0,1,0,0h0a.05.05,0,0,1,0,.05s0,0,0,0,0,0,0,0v0l0,0a0,0,0,0,1,0,0s0,0,0,0h0l0,0a0,0,0,0,1,0,0s0,0,0,0v0l0,0s0,0,0,0l0,0a0,0,0,0,1,0,0s.08.07.08.12l0,0H5s0,0,0,0l0,0a0,0,0,0,1,0,0s0,0,0,0a2985492971496.05,2985492971496.05,0,0,1,.06.06,0,0,0,0,1,0,0s0,0,.07.06,0,0,0,0,0,0,0,0h0s0,0,0,0l0,0s0,0,0,0h0a0,0,0,0,1,0,0h0s0,0,0,0h0l.06.05s0,0,0,0h0l0,0h0s0,0,0,0a0,0,0,0,1,0,0,0,0,0,0,1,0,0h0s0,0,0,0h0l0,0a0,0,0,0,1,0,0,.15.15,0,0,1,.09.06s0,0,0,0l0,0s0,0,0,0a0,0,0,0,1,0,0H6a0,0,0,0,1,0,0s0,0,.05,0l0,0s0,0,0,0h0a.05.05,0,0,1,0,.05,0,0,0,0,1,0,0,.07.07,0,0,1,.06,0,0,0,0,0,1,0,0,.05.05,0,0,1,0,0h0s0,0,0,0h0s0,0,0,0a.05.05,0,0,1,0,0h0a2985492971496.88,2985492971496.88,0,0,0,.06.06h0a.07.07,0,0,1,0,0h0a0,0,0,0,1,0,0l0,0a0,0,0,0,1,0,0s0,0,0,0h0a0,0,0,0,1,0,0s0,0,0,0v0s0,0,0,0h0v.1h0s0,0,0,0a.3.3,0,0,1-.06.18h0a0,0,0,0,1,0,0s0,.07,0,.09l0,0v0s0,0,0,0h0l0,0a.09.09,0,0,1,0,.07h0s0,.06,0,.08h0s0,0,0,.07,0,0,0,0h0a0,0,0,0,1,0,0h0a.08.08,0,0,1,0,.07h0s0,0,0,0,0,0,0,.06,0,.1-.07.13v0l0,0s0,.05,0,.06,0,.09-.06.12,0,0,0,0,0,0,0,.06h0s0,0,0,.06,0,.05,0,.06H6l0,.09h0s0,.07,0,.09,0,0,0,0h0a0,0,0,0,1,0,0h0l0,0h0l0,0,0,0a.09.09,0,0,1,0,.07s0,0,0,0,0,.05,0,.06,0,0,0,0v0s0,0,0,.05h0s0,0,0,0,0,0,0,0a.4.4,0,0,1-.12.22h0a.44.44,0,0,1-.09.18h0a.09.09,0,0,1-.11.06l-.06.06s0,.05,0,.06a0,0,0,0,1,0,0s0,.07,0,.08a.05.05,0,0,1,0,.05v0h0s0,0,0,0v0h0s0,0,0,.06a.08.08,0,0,1,0,.07H5s0,0,0,0,0,.07,0,.09,0,.07,0,.09,0,0,0,0,0,.13-.08.18h0s0,0,0,0h0s0,.07,0,.08,0,.07,0,.09h0s0,0,0,0a.26.26,0,0,1-.09.18h0c0,.05,0,.13-.08.15s0,.06,0,.08a0,0,0,0,1,0,0s0,.05,0,.06h0s0,0,0,0h0s0,0,0,.06a.13.13,0,0,1,0,.09,0,0,0,0,1,0,0s0,.07,0,.1h0a.17.17,0,0,1,0,.07s0,0,0,0,0,0,0,0,0,0,0,0-.05,0-.08,0,0,.16-.09.2H4c0,.09,0,.08-.1.09s-.09.19-.11.29,0,0-.08,0,0,.07-.05.09,0,.08,0,.09,0,0,0,0,0,0,0,0,0,.06-.06.05h0s0,.07,0,.08h0s0,.08,0,.09,0,0,0,0h0a.13.13,0,0,1-.09.1s0,.1,0,.14h0l0,0h0l0,0h0l0,.09h0v0h0s0,0,0,0,0,0,0,0l0,0a.52.52,0,0,1-.12.26c0,.07-.05.1-.09.15s0,0,0,0l-.06.07h0a.31.31,0,0,0-.06.13s0,.05,0,.06a.1.1,0,0,1,0,.05.12.12,0,0,1-.06.12s0,0,0,0a.19.19,0,0,1,0,.09h0s0,0,0,.05,0,0,0,0h0s0,0,0,0a.05.05,0,0,1,0,0,.08.08,0,0,1,0,.07h0l0,0s0,0,0,0,0,.05,0,.06,0,0,0,0v0a.06.06,0,0,1,0,.07h0a0,0,0,0,1,0,0,0,0,0,0,1,0,0s0,0,0,.06a0,0,0,0,1,0,0,0,0,0,0,1,0,0s0,.05,0,.06h0l0,0s0,0,0,0a.05.05,0,0,1,0,0l0,.06s0,0,0,0L2,22.51l0,0s0,0,0,0a.09.09,0,0,1,0,.06,0,0,0,0,1,0,0s0,0,0,0,0,0,0,0a.05.05,0,0,1,0,0s0,.05,0,.06h0s0,0,0,0,0,0,0,0,0,.05,0,.06a.06.06,0,0,1,0,.06s0,0,0,0,0,0,0,0h0s0,.05,0,.06,0,0,0,0,0,0,0,0,0,0,0,0v.05l0,0a0,0,0,0,1,0,0s0,0,0,0,0,.05,0,.05a0,0,0,0,1,0,0,.05.05,0,0,1,0,0l0,.06s0,0,0,0,0,0,0,0,0,0,0,.06h0l-.09.06h0a0,0,0,0,1,0,0h0l0,0,0,0s0,0,0,0a0,0,0,0,1,0,0s0,0,0,0h0l0,0a0,0,0,0,1,0,0s0,0-.05.05v0s0,0,0,.05h0s0,.06-.06.08H1a0,0,0,0,1,0,0,.05.05,0,0,1,0,0,.1.1,0,0,1,0,.05H1s0,0,0,0,0,0,0,0v.06h0a0,0,0,0,1,0,0s0,0,0,0h0l0,.12h0s0,0,0,0v.06s0,0,0,.06,0,.09,0,.11h0l0,0h0s0,0,0,0,0,0,0,0h0s0,0,0,.05h0v0H.74l0,0,0,0,0,0h0s0,0,0,0h0l0,0h0s0,0,0,0h0s0,0,0,0H1l0,0s0,0,0,0a.1.1,0,0,1,0-.05h0a0,0,0,0,1,0,0h0s0,0,0,0,0,0,0,0,0-.06.05-.07,0-.05,0-.06,0,0,0,0h0s0,0,0,0,0,0,0,0h0s0,0,0,0,0,0,0,0,0,0,0,0,0,0,0,0a0,0,0,0,1,0,0s0,0,0,0h0s0,0,0,0h0a0,0,0,0,1,0,0s0,0,0,0a.09.09,0,0,1,0-.06h0a.05.05,0,0,1,0,0,0,0,0,0,1,0,0,.05.05,0,0,1,0,0,1.31,1.31,0,0,1,.3-.32.45.45,0,0,1,.06-.12s0-.07.06-.09,0,0,0,0,0,0,0,0,0,.06,0,.07a0,0,0,0,1,0,0,.13.13,0,0,1,0,.12l0,0a.55.55,0,0,1-.19.24,1.09,1.09,0,0,0-.1.11h0s0,0,0,0a.05.05,0,0,1,0,.06h0s0,0,0,0h0a0,0,0,0,1,0,0s0,0,0,.06h0s0,0,0,0h0s0,0-.05,0a.05.05,0,0,1,0,.05h0s0,0,0,0,0,0,0,0,0,0,0,0,0,0,0,0a0,0,0,0,1,0,0,.05.05,0,0,1,0,0l0,0s0,0,0,0a.07.07,0,0,1,0,.05h0v.09s0,0,0,0a0,0,0,0,1,0,0,0,0,0,0,1,0,0,0,0,0,0,1,0,0,0,0,0,0,1,0,0,0,0,0,0,1,0,0s0,0,0,0a0,0,0,0,1,0,0l0,.05s0,0,0,0h.06s0,0,0,0h0a.09.09,0,0,1,.06,0s0,0,0,0a0,0,0,0,1,0,0l0,0s0,0,0,0h0s0,0,0,0a.06.06,0,0,1,.06,0,.07.07,0,0,1,.06,0s0,0,0,0a0,0,0,0,1,0,0h0a.05.05,0,0,1,0,0,0,0,0,0,1,0,0h0l.05,0h0a0,0,0,0,1,0,0s0,0,0,0,0,0,0,0a0,0,0,0,1,0,0,0,0,0,0,1,0,0,0,0,0,0,1,0,0s.06,0,.09,0,0,0,0,0a.08.08,0,0,1,0-.06l.06-.12a0,0,0,0,1,0,0s0,0,0,.05a1.3,1.3,0,0,1-.08.17h0s0,0,0,0,0,0,0,0,0,0,0,0,0,0,0,0,0,0,0,0l0,0,0,0s0,0,0,0,0,0,0,0H2a.05.05,0,0,1,0,0v0a0,0,0,0,1,0,0s0,0,0,0h0s0,0,0,0h0s0,0,0,0h0l0,0h0s0,0,0,0a0,0,0,0,1,0,0l0,0a0,0,0,0,1,0,0s0,0,0,0a0,0,0,0,1,0,0h0l0,0h0s0,0,0,0h0v.05l0,0h0s0,0,0,0,0,0,0,0,0,0,0,0l-.06,0a.08.08,0,0,1,0,0h0l0,0s0,0,0,0,0,0,0,.05h0a0,0,0,0,1,0,0h0l0,0s0,0,0,0a.09.09,0,0,1-.06.07s0,0,0,0,0,0,0,0h0s0,0,0,0a0,0,0,0,1,0,0s0,0,0,0v0l0,0H1S1,26,1,26H1l0,0a0,0,0,0,1,0,0,0,0,0,0,1,0,0s0,0,0,0,0,0,0,0a0,0,0,0,1,0,0,.14.14,0,0,0,0,.11h0l0,0H.92l.06,0a0,0,0,0,1,0,0s0,0,0,0a.07.07,0,0,1,0,0h0a0,0,0,0,1,0,0h0a.05.05,0,0,1,0,0s0,0,0,0,0,0,0,0l0,0h0s0,0,0,0L1.3,26h.17l0,0s0,0,0-.05h0s0-.05,0-.05h0s0-.09.1-.08a.14.14,0,0,0,.09,0s0,0,0,0,0,0,0,0l0,0,0,0h0s0,0,0,0l0,0h0l0,0s0,0,0,0h0l0,0s0,0,0,0l0-.06s0,0,0,0H2s0-.05,0-.06h0s0,0,0-.05a0,0,0,0,1,0,0s0-.05,0-.06h0s0,0,.06,0h0l.06-.06h0s0,0,.05,0,.06-.06.09-.09,0,0,0,0h0l0,0s0,0,0,0,0,0,0,0a.1.1,0,0,1,0-.05h0a.06.06,0,0,1,0-.06h0a.05.05,0,0,1,0,0h0a0,0,0,0,1,0,0c0-.09,0-.09.12-.08h0s0,0,0,.06h0s0,0,0,0l0,0v.05h.07l0,0a.05.05,0,0,1,0,0H3a0,0,0,0,1,0,0s.05,0,.08,0,0,0,0,0,0,0,.05,0a.05.05,0,0,1,0,0h0l0,0s0,0,0,0,0,0,.06-.06,0,0,0,0h0a.05.05,0,0,1,0,0,0,0,0,0,1,0,0s.06,0,.09,0a.05.05,0,0,1,0-.05h0s0-.07.05-.09h0a.1.1,0,0,1,0,0s0-.11.07-.11,0,0,0,0,0-.1.07-.12h0s0,0,0,0,0,0,0,0L4,23.85H4s0,0,0,0a0,0,0,0,1,0,0h0s0,0,0,0h0s0-.05.08-.07a.07.07,0,0,1,0-.07h0s0-.07,0-.08l0,0a.05.05,0,0,1,0,0,.09.09,0,0,1,0-.06c0-.06,0-.09.06-.12s0,0,.06-.05h0s0-.11.06-.12A.05.05,0,0,1,4.55,23s0,0,0,0,0-.06,0-.07l0,0a0,0,0,0,1,0,0h0v0s0-.05.05-.06,0,0,0-.06l0,0s0-.05.06-.06l0,0h0a.09.09,0,0,1,0-.07s0-.06,0-.07h0A.12.12,0,0,1,5,22.32v-.09H5s0,0,0,0,0,0,0,0H5s0,0,0-.05H5l.05-.07s0,0,0,0,0-.06,0-.07,0-.07,0-.09,0,0,0,0h0s0,0,0,0,0-.05,0-.05h0l0-.07h0s0,0,0,0a0,0,0,0,1,0,0s0,0,0,0v0h0s0,0,0,0,0-.11.06-.12l0,0h0s0,0,0,0h0s0-.09,0-.11h0a.06.06,0,0,1,.06,0l0,0s0-.05,0-.06a0,0,0,0,1,0,0,.17.17,0,0,1,0-.1h0a.1.1,0,0,1,0-.06s0,0,.06-.06,0-.11.06-.12,0-.06,0-.07h0s0-.09.06-.1l.06-.05s0-.07,0-.09l.06-.11h0V20.2h0s0,0,0,0,0,0,.06,0a.05.05,0,0,1,0,0l0-.06s0,0,0,0a.47.47,0,0,1,.06-.15h0a.06.06,0,0,1,.06-.06l.06-.08s0-.07,0-.09,0-.05,0-.06,0-.07.06-.09h0l.08-.18h0a.41.41,0,0,1,.07-.17h0s0-.1,0-.14v0s0,0,0,0,0,0,0,0,0-.07,0-.09a0,0,0,0,1,0,0l0,0A2985492971496.8,2985492971496.8,0,0,1,7,18.72s0-.07,0-.08H7s0,0,0,0H7s0,0,0,0h0l0,0v0c0-.06,0-.08.09-.1s0,0,0,0l0,0s0,0,0,0,0,0,0,0h0s0,0,0,0a0,0,0,0,1,0,0s0,0,0,0,0-.07,0-.09,0,0,0,0,0,0,0,0,0-.08,0-.11h0a0,0,0,0,1,0,0h0s0,0,0,0h0s0,0,0-.06,0,0,0-.06h0s0,0,0,0a.05.05,0,0,1,0-.05h0a0,0,0,0,1,0,0h0a0,0,0,0,1,0,0,0,0,0,0,1,0,0s0,0,0,0,0,0,0,0,0,0,0,0h0s0,0,0,0,0,0,0,0,0,0,0,0v0h0a0,0,0,0,1,0,0,.05.05,0,0,1,0,0l0,0s0,0,0,0a.05.05,0,0,1,0,0h0s0,0,0,0h0s0,0,0,0,0-.06.06-.09,0-.05,0-.05H8a.05.05,0,0,1,0,0l0,0s0,0,0,0h0s0,0,0,0,0,0,0,0,0,0,0,0,0,0,0,0a.08.08,0,0,1,0,0h0s0,0,0-.05h0s0,0,0,0a.05.05,0,0,1,0-.05h0l0,0s0,0,0,0a.09.09,0,0,1,0-.06v-.09s0,0,0,0,0,0,0,0h0l.06,0h0a0,0,0,0,1,0,0,.12.12,0,0,1,.05,0h0s0,0,0,0h0s0,0,0,0,0,0,0,0h0s0,0,0,0,0,0,0,0,0,0,0,0,0,0,0,0,0,0,0,0h0s0,0,0,0v0s0,0,0,0h0l0,0h0a.05.05,0,0,1,0,0s0,0,0,0a0,0,0,0,1,0,0h0s0,0,0,0h0a0,0,0,0,1,0,0,.05.05,0,0,1,0,0l0,0s0,0,0,0,.07,0,.09,0,.07,0,.09,0,0,0,0,0h0s.06,0,.07,0h.08s0,0,0,0,.09,0,.12,0a.05.05,0,0,1,0,0h0l0,0s0,0,0,0h0s0,0,0,0h0a.12.12,0,0,1,.05.05h0s0,0,0,0,0,0,0,0a.1.1,0,0,1,.06.05s0,0,0,0,0,0,0,0h0a1404937868939.72,1404937868939.72,0,0,1,.06.06s0,0,0,0l0,0h0s0,0,0,0h.08c0-.06.05,0,.07,0s.05,0,.06,0a.11.11,0,0,1,.11.06l.1.06s0,0,0,0,0,0,0,0l0,0h0l0,0h0a0,0,0,0,1,0,0s.05,0,.06,0a0,0,0,0,1,0,0,0,0,0,0,1,.05,0l0,0a0,0,0,0,1,0,0s.05,0,.07,0h0s0,0,0,0l.06,0h0s0,0,0,0h0l0,0h0a.07.07,0,0,1,.06,0s.06,0,.09,0,0,0,0,0h0s0,0,0,0,.09,0,.12.06h0l0,0s0,0,0,0,.07,0,.09,0h0s0,0,0,0,0,0,0,0,0,0,.06,0h0s0,0,0,0h0s0,0,0,0h0l0,0h0s0,0,0,0,.06,0,.08,0,0,0,0,0l0,0h0s0,0,0,0,.06,0,.07,0h0s0,0,0,0h0c.06,0,.09,0,.13.05h0s0,0,0,0a0,0,0,0,1,0,0,0,0,0,0,1,0,0s.08,0,.09.05a.05.05,0,0,1,0,0l0,0,.06,0h0s.09,0,.12,0h0s0,0,0,0,.07,0,.09,0h0l0,0s0,0,0,0,.07,0,.09,0,0,0,0,0h0s0,0,0,0,.06,0,.08,0,0,0,0,0a0,0,0,0,1,0,0s0,0,0,0,.05,0,.06,0a.11.11,0,0,1,.07,0h0s0,0,0,0h0a.05.05,0,0,1,0,0l0,0a.11.11,0,0,1,.12.06,0,0,0,0,1,0,0l0,0,0,0h0a.05.05,0,0,1,0,0h0s0,0,0,0l0,0a.07.07,0,0,1,.06,0,.09.09,0,0,1,.06,0,.05.05,0,0,1,.05,0s0,0,0,0a.11.11,0,0,1,.08,0h0a.15.15,0,0,1,.07,0h0s0,0,.07,0h0s0,0,0,0l.07,0h0s0,0,0,0h0s.06,0,.07,0,0,0,0,0,.05,0,.06,0h0s0,0,0,0,0,0,.07,0h0s.06,0,.09.05a.06.06,0,0,1,.06,0s0,0,0,0,.07,0,.09,0h0a0,0,0,0,1,0,0l0,0s.05,0,.06,0a.24.24,0,0,1,.11.06h0a0,0,0,0,1,0,0s.05,0,.06,0,0,0,0,0h0s0,0,0,0,.07,0,.09,0,0,0,.05,0,0,0,0,0,0,0,0,0,.09,0,.13,0,.1,0,.12.08l0,0s.05,0,.06,0a.18.18,0,0,1,.09,0s.05,0,.06,0,0,0,0,0h.08a0,0,0,0,1,0,0s.07,0,.09.06h0a.07.07,0,0,1,0,.05.05.05,0,0,1,.05,0l.08,0h0s.05,0,.06,0l.13.06h0a.06.06,0,0,1,.07,0s0,0,.06,0h0s0,0,0,0a.05.05,0,0,1,.05,0h0s0,0,0,0a.06.06,0,0,1,.06,0h0s0,0,0,0h0s0,0,0,0a.06.06,0,0,1,.06,0s0,0,0,0h0a.35.35,0,0,1,.16.08,0,0,0,0,1,0,0h0s0,0,0,0h0a.05.05,0,0,1,0,0h0s0,0,0,0a.06.06,0,0,1,.06,0s.05,0,.07,0h0a.05.05,0,0,1,.05,0h0s0,0,.06,0,0,0,0,0h0s0,0,0,0a.15.15,0,0,1,.09.06.06.06,0,0,1,.06,0h0s0,0,0,0h.05l0,0h.05a.09.09,0,0,1,.06,0s0,0,.05,0h0a.08.08,0,0,1,.07,0,.09.09,0,0,1,.06,0h0l.05,0h0a0,0,0,0,1,0,0s0,.05,0,.07h0s0,0,0,0h.11s.07,0,.09,0,0,0,.06,0a.5.5,0,0,1,.12,0l.05,0h.06s.09,0,.12,0a.07.07,0,0,1,.06,0,.18.18,0,0,1,.1,0h0s.07,0,.09,0,0,0,.05,0,.08,0,.11,0h.07a0,0,0,0,1,0,0h0l0,.05s.07,0,.1,0h.05s0,0,.06,0h0s.06,0,.08,0v0l0,0h0a.12.12,0,0,1,.1,0h.08s.05,0,.06,0h0s.09,0,.12,0h.06s.09,0,.12,0h.05s0,0,0,0h0s0,0,0,0,0,0,0,0h0s.07,0,.09,0,.07,0,.09,0h0a.2.2,0,0,1,.13,0s0,0,0,0h.12c.06-.07.13,0,.19,0h.13a.09.09,0,0,1,.13,0h0a.25.25,0,0,1,.17,0h0a.16.16,0,0,1,.15,0c.05,0,.11,0,.15,0h0c.05,0,.09,0,.13,0h0a.06.06,0,0,1,.06,0h0s0,0,0,0h0c.06,0,.12,0,.18,0h0l0,0a.1.1,0,0,0,0,0,.36.36,0,0,1,.25,0s0,0,0,0A.59.59,0,0,1,24,22h1.12c.08-.06.17,0,.25,0h0l0,0v-.06l0,0a.3.3,0,0,1-.13,0h0a.45.45,0,0,1-.2,0s0,0,0,0h0s0,0,0,0a.28.28,0,0,1-.22,0h0s-.05,0-.06,0h-.2c-.09,0-.19,0-.27,0h-.06a.21.21,0,0,1-.13,0h-.47s0,0,0,0a.33.33,0,0,1-.14,0s-.09,0-.12,0h0a0,0,0,0,1-.06,0h0s-.09,0-.12,0a0,0,0,0,1,0,0,.07.07,0,0,1-.07,0h0a.11.11,0,0,1-.08,0h0a.08.08,0,0,1-.08,0h0s0,0,0,0,0,0,0,0,0,0,0,0h0s-.05,0-.07,0h0s0,0,0,0a.07.07,0,0,1-.06,0h-.05s0,0,0,0l-.08,0h-.07a.11.11,0,0,1-.08,0h-.1s0,0,0,0-.11,0-.15,0h-.08s0,0,0,0h0s0,0,0,0,0,0,0,0,0,0,0,0,0,0-.06,0h-.09a.07.07,0,0,1-.08,0h0l0,0s0,0,0,0,0,0,0,0l0,0a.1.1,0,0,1-.07,0h0S21,21,21,21h0s-.09,0-.12,0h-.09s-.07,0-.09,0h0s-.06,0-.09,0,0,0,0,0a.06.06,0,0,1-.07,0h0s0,0,0,0a0,0,0,0,1-.06,0s-.06,0-.07,0h0s0,0,0,0,0,0,0,0a.09.09,0,0,1-.06,0h0a.11.11,0,0,1-.07,0h0l-.08,0a.43.43,0,0,1-.16-.05h-.06s0,0,0,0,0-.05,0,0,.09,0,.12,0h0s.07,0,.09,0,.07,0,.09,0h.11l0,0h0s0,0,0,0,0,0,0,0,0,0,0,0h0l0,0h0s0,0-.06,0h0s0,0,0,0-.05,0-.06,0a.08.08,0,0,1-.07,0h-.05s-.05,0-.06,0a.11.11,0,0,1-.08,0h0a.06.06,0,0,1-.07,0h-.05a.1.1,0,0,1-.07,0h-.07a.06.06,0,0,1-.06,0h0s0,0,0,0,0,0,0,0a0,0,0,0,1-.06,0,.09.09,0,0,1-.07,0h0s0,0,0,0h0a.08.08,0,0,1-.08,0h0a.13.13,0,0,1-.1,0h0a.11.11,0,0,1-.08,0h0a.09.09,0,0,1-.07,0s0,0,0,0,0,0,0,0h-.05s0,0,0,0-.09,0-.12,0-.07,0-.09,0h0s-.05,0-.07,0,0,0,0,0a.11.11,0,0,1-.1,0c-.08-.08-.2-.12-.29-.2a.51.51,0,0,0-.15-.07,2.15,2.15,0,0,1-.74-.33.88.88,0,0,0-.27-.1.2.2,0,0,1-.14-.06.85.85,0,0,0-.38-.24,3.31,3.31,0,0,1-.33-.15c-.14-.08-.3-.09-.44-.16s-.36-.23-.55-.3-.11-.08-.19-.06-.1,0-.13-.06a1.87,1.87,0,0,0-.38-.24.91.91,0,0,0-.38-.19,3.2,3.2,0,0,0-.48-.26l-.35-.23-.74-.38a6.53,6.53,0,0,0-.7-.35,6.27,6.27,0,0,1-.58-.29,1.22,1.22,0,0,1-.41-.27c0-.05-.13-.07-.19-.12a5,5,0,0,0-.6-.43v0l-.12-.05s-.11-.05-.14-.1,0,0,0,0,.1,0,.12.08a.21.21,0,0,1,.15.09s0,0,.05,0,0-.05.09,0c.25.18.53.31.78.5l.09,0a1.13,1.13,0,0,1,.38.19,1.29,1.29,0,0,1,.16.09.88.88,0,0,1,.24.11s.09.08.15,0,0,0,0,0,.13.08.2.11.06,0,.09,0a3,3,0,0,0,.5.27l.44.19a.08.08,0,0,1,0-.11s.05,0,.07,0h0c.18.1.37.17.55.26a1.45,1.45,0,0,1,.35.18,2.07,2.07,0,0,0,.45.27s.1,0,.13.07a.27.27,0,0,1-.16,0c-.12,0-.24-.07-.37-.08a.47.47,0,0,1-.22-.09,1,1,0,0,0-.44-.19c0,.05,0,.05,0,.07l.46.25c.05,0,.11,0,.09.12s0,.05.05.06c.28.12.55.23.82.36s.36.1.53.19l.59.28a5.34,5.34,0,0,1,.58.3c.06,0,.14,0,.2.09a.08.08,0,0,1,.09,0h.06s0,0,0,0h.06l.06,0h0a0,0,0,0,1-.06,0h0s0,0,0,0h0a.09.09,0,0,1-.06,0,.1.1,0,0,1-.07,0h0s0,0,0,0,0,0,0,0h0a.1.1,0,0,1,0-.05s-.07,0-.09,0l0,0h0s0,0,0,0a944095772835.39,944095772835.39,0,0,0-.12-.06h0a0,0,0,0,1,0,0h0s0,0,0,0,0,0,0,0h0s0,0,0,0l0,0s-.07,0-.09,0l0,0s-.07,0-.08,0,0,0,0,0h-.05s0,0,0,0-.05,0-.06,0,0,0,0,0h0s0,0,0,0h0a.07.07,0,0,1-.06,0,.05.05,0,0,1-.05,0s0,0,0,0a0,0,0,0,1,0,0s0,0,0-.06l0,0h0s0,0-.07,0l-.14-.08s0,0-.06,0a.12.12,0,0,1-.08-.06h0a0,0,0,0,1,0,0s.08,0,.1,0,.06,0,.08,0,.06,0,.09,0h0a0,0,0,0,1,.06,0s.07,0,.09,0h0a0,0,0,0,1,0,0h0c.06,0,.11,0,.15,0s.07,0,.09,0a.08.08,0,0,1,.07,0h.05a0,0,0,0,1,0,0s0,0,0,.05,0,0,.06,0h0s.05,0,.06,0h0s0,.06.05.08h0s0,0,0,0,.05,0,.06,0h0s.05,0,.06,0a.07.07,0,0,1,.07.06h0a0,0,0,0,1,0,0,0,0,0,0,1,0,0l0,0h0a.05.05,0,0,1,.05,0h0s.05,0,.06,0h0a.07.07,0,0,1,.06,0s0,0,.07,0h0a.11.11,0,0,1,.08,0h0s0,0,0,0l0,0h0s.05,0,.06,0a.16.16,0,0,1,.09,0l.06,0h0s0,0,.06,0a.08.08,0,0,1,.08,0s.05,0,.07,0h0s0,0,.06,0h0s0,0,.06,0h0a.05.05,0,0,1,.05,0h0s0,0,0,0a.08.08,0,0,1,.08,0h0s0,0,0,0a0,0,0,0,1,0,0s0,0,0,0a0,0,0,0,1,.05,0h0s.05,0,.06,0h0s0,0,0,0h.05s0,0,0,0h0l.11,0s.08,0,.06.06-.06,0-.1,0a.29.29,0,0,0-.16,0h0s0,0,0,0h0s0,0,0,0a.09.09,0,0,1-.07,0l0,0,0,0h0s0,0,0,0,0,0,0,0,0,0,0,0,0,0,0,0h0s.05,0,.06,0a.06.06,0,0,1,.06,0l.06,0h0s0,0,0,0h0a0,0,0,0,1,0,0h0s0,0,0,0h.11s0,0,.05,0h0a.06.06,0,0,1,.06,0h0s.08,0,.12,0h0a.09.09,0,0,1,.06,0h0l0,0h0l0,0h0l0,0h0s0,0,.05,0a.12.12,0,0,1,.1,0h0s.05,0,.06,0,.05,0,.06,0h0s0,0,0,.05h.05s.05,0,.06,0h.06l0,0h.07s.05,0,.05,0l0,0a.11.11,0,0,1,.08,0h0l.49.05c.05,0,.07.07.13.06s.09,0,.14,0h0s.06,0,0,0h0s0,0-.05,0a.28.28,0,0,1-.18,0,2.48,2.48,0,0,1-.47,0c-.07,0-.07,0,0,.08a.47.47,0,0,0,.17,0c.05,0,.06,0,.06.09s-.25,0-.35-.09h-.06a.06.06,0,0,1-.07,0h-.08a.09.09,0,0,1-.07,0h0a.06.06,0,0,1-.06,0h0c-.05,0-.09,0-.12,0v0l0,0h0a.11.11,0,0,1,.09,0h0a.06.06,0,0,1,.06,0h0a.09.09,0,0,1,.07,0h0a.08.08,0,0,1,.07,0h.05a.13.13,0,0,1,.09,0h.09l0,0,0,0a.05.05,0,0,0,0,0h0s.08,0,.11,0h0s0,0,0,0,0,0,0,0,0,0,0,0,0,0,0,0,.08,0,.11,0h0s0,0,0,0h.06s0,0,0,0h0s.06,0,.09,0a.07.07,0,0,1,.06,0s.07,0,.1,0h0s.05,0,.06,0,.08,0,.12,0h0s0,0,0,0h0s.08,0,.11,0h0s.08,0,.11,0h0s0,0,.06,0h0a.26.26,0,0,1,.12.05s0,0,0,0h0s.06,0,.09,0,.11,0,.17,0v0l0,0a.09.09,0,0,1-.06,0h0s0,0,0,0a.05.05,0,0,1-.05,0h0s0,0,0,0h0a.06.06,0,0,1-.06,0h0a0,0,0,0,1-.06,0h-.06s0,0-.06,0H21.2a0,0,0,0,1,0,0s0,0-.05,0,0,0,0,0,0,0,0,0,0,0,0,0,0,0,0,0h0s.06,0,.09,0h.05a.06.06,0,0,1,.07,0h.05s.07,0,.09,0h.06a.17.17,0,0,1,.12,0h.06a.11.11,0,0,1,.09,0h0a.14.14,0,0,1,.11,0h0a.12.12,0,0,1,.1,0H22s.07,0,.09,0h0a.18.18,0,0,1,.1,0h0a.18.18,0,0,1,.1,0h0a.08.08,0,0,1,.07,0,.21.21,0,0,1,.11,0,.08.08,0,0,1,.07,0h0l0,0h0l0,0s0,0,0,0h0c0,.06.09.07.15.09l.28.08h0l.05,0c-.12,0-.23,0-.34,0a1.38,1.38,0,0,1-.35,0h-.13c-.08,0-.08,0,0,.09a0,0,0,0,1,0,0h0s.05,0,.07,0h0s.07,0,.09,0h0s0,0,0,0h0s0,0,0,0h0a.09.09,0,0,1,.06,0,0,0,0,0,1,0,0h0a.11.11,0,0,1,.09,0h.11s.09,0,.12,0h.06a.06.06,0,0,1,.06,0s0,0,0,0h.05s0,0,0,0h0l.05,0s0,0,0,0h0s0,0,.06,0h0s0,0,0,0h0s.08,0,.12,0h.09l0,0H24s0,0,.06,0a.2.2,0,0,0,.11,0,0,0,0,0,1,0,0,.06.06,0,0,1,.07,0h0a.15.15,0,0,1,.16,0h0a.2.2,0,0,1,.17,0h0s.05,0,.08,0h0s0,0,0,0h.36a.18.18,0,0,1,.1,0h.1a.06.06,0,0,1,.06,0h.12l0,0s.05,0,.08,0,0,0,0-.05h0s0,0-.05,0h0a.08.08,0,0,1-.08,0h0s-.06,0-.08,0,0-.05,0-.06l-1.41-.21c-.1,0-.2,0-.3-.06a.42.42,0,0,1-.2,0,.38.38,0,0,1,.24,0,1.34,1.34,0,0,1,.44.06c.12-.06.23,0,.35,0s.53.11.8.13h.11a1.45,1.45,0,0,1,.36,0c.06,0,.14,0,.2,0a.1.1,0,0,1,.09,0s.11,0,.08-.06H26c-.05,0-.11,0-.15,0a.38.38,0,0,1-.15,0H25.6a.51.51,0,0,1-.13,0h-.08c-.07,0-.07,0,0-.08h.08s0,0,0,0h0s.09,0,.13,0h0s.07-.06.12,0h0a.18.18,0,0,1,.1,0h0l0,0c0-.05,0-.05-.08-.05h-.36s0,0,0,0h-.05s-.06,0-.09,0a.09.09,0,0,1-.09,0,.45.45,0,0,1-.2,0H25s-.07,0-.09,0h0a2.3,2.3,0,0,1-.45-.05c-.18,0-.36,0-.53-.08a2.62,2.62,0,0,0-.38-.09,1.8,1.8,0,0,1-.32-.06c-.3-.08-.61-.17-.92-.23l-.15,0a1,1,0,0,1-.38-.06s-.05,0-.06,0-.08,0-.13,0a4.52,4.52,0,0,0-.62-.21.51.51,0,0,1-.24-.1s0,0-.07,0-.08,0-.12,0-.18-.07-.27-.09a4.5,4.5,0,0,0-.51-.08.11.11,0,0,1-.08,0c0-.05-.11-.05-.16-.07a3,3,0,0,1-.39-.13,2.13,2.13,0,0,1-.49-.21,2,2,0,0,0-.22-.09c-.06,0-.09-.12-.17-.15l-.06,0a.14.14,0,0,1-.1-.05.07.07,0,0,1,.1,0s.09,0,.12,0h0c.16.05.36,0,.48.17h0a.73.73,0,0,1,.25.08s.06,0,.08,0,.21.05.32,0,.38.06.55.16c0,0,0,0,0,0s.09,0,.12,0,.05.05.08,0,.11,0,.15.05.05,0,.06,0,.13,0,.19.07,0,0,.06,0a.18.18,0,0,1,.17.06c.05.05.12,0,.18,0a1.18,1.18,0,0,0,.42.1.53.53,0,0,0,.25.05h0c0,.05.09.08.16,0s0,0,.08,0l0,0c0-.06-.13-.08-.17-.16s.11,0,.17,0-.06-.1,0-.13a.08.08,0,0,1,.07,0h.06l.08,0h0s-.06,0-.07,0h0l-.1-.06s0,0-.05,0-.09,0-.13,0l-.23-.08c-.13,0-.28,0-.37-.14h0a4.74,4.74,0,0,1-.5-.15s-.07,0-.11,0h0s-.06,0-.06,0h.06a.14.14,0,0,1,.11,0,.78.78,0,0,1,.34.05c.06,0,.13.07.19,0s0,0,.07,0a1.06,1.06,0,0,1,.35.09,1.31,1.31,0,0,0,.28.09c.21.07.43.07.64.12s.32,0,.48.05a1.5,1.5,0,0,1,.72.2s.1,0,.14.05l.42.12a.26.26,0,0,1,.15,0h.08s.07,0,.1,0h0a0,0,0,0,1,.05,0h0s0,0,0,0l0,0s0,0,0,0a0,0,0,0,1,.06,0h0s.07,0,.1,0h0l0-.05h0s0,0,0,0h0s.07,0,.1,0,0,0,.05,0h.08a.58.58,0,0,1,.19,0h.17a.05.05,0,0,1,0,0H26s.07,0,.09,0h.12s0,0,.06,0h.05c.05,0,.09,0,.14,0a.15.15,0,0,1,.13,0,.55.55,0,0,1,.18,0s0,0,0,0h.05s.05,0,.08,0h0s0,0,0,0,.05,0,.07,0h0S27.05,20.09,27,20.05Zm-3-1.09v0h0s0,0,0,0Zm-.14,0h0s0,0,0,0h0ZM18.2,1.18l0,0Zm-1.28,1.3s0-.07,0-.08,0,0,0,0,0,0,0,.07,0,0-.05.06v0S16.9,2.48,16.92,2.48ZM16.66.92h0V1h0ZM1.49,25.7h0Zm.08-.08h0Zm.64-2.24h0Zm6.36-8.64h0ZM9,15S9,15,8.94,15h0a.08.08,0,0,1-.09-.06h0a.08.08,0,0,1-.08,0s-.06,0-.07,0a0,0,0,0,1,0,0h0s0,0,0,0h0a.11.11,0,0,1,.08,0s.06,0,.06.06h0s.06,0,.09,0l0,0S9,15,9,15Zm3.68,1.55s0,0-.09,0a.13.13,0,0,1-.1,0s-.07-.08-.14-.05,0,0-.06,0-.07-.09-.14,0l0,0a1.11,1.11,0,0,0-.31-.15.21.21,0,0,1-.13-.07,1.5,1.5,0,0,0-.5-.33,5.33,5.33,0,0,0-.58-.31.49.49,0,0,1-.18-.14s0,0,0-.05a0,0,0,0,1,.06,0l.07,0,.78.39.44.24c.23.12.44.26.67.4.07,0,.13.11.22.11s0,0,.06.06a.12.12,0,0,0,.1,0s.06,0,.08,0S12.75,16.65,12.68,16.55Zm7.47,3.74,0,0h0v0S20.16,20.3,20.15,20.29Zm.13,0,0,0a0,0,0,0,1,0,0s0,0,0,0Zm.13,0,0,0v0h0Zm.13,0h0v0Zm4.81,1.13h0Zm-2-.53h0Zm-2.56-.48h.06s.1,0,.09,0,0,0,.06,0h0s0,0,0,0,0,0-.06,0-.07,0-.09,0h-.06a.12.12,0,0,1-.09,0S20.74,20.49,20.76,20.52Zm-.18-1.32h0a.05.05,0,0,1,0,0v0s0,0,0,0h0Zm1.63-.33h0c-.08,0-.15,0-.23,0a.09.09,0,0,1-.07,0c.05,0,.1-.07.17,0h.05a.22.22,0,0,1,.11,0S22.24,18.84,22.21,18.87Z"/></g></g></g></svg>