<svg xmlns="http://www.w3.org/2000/svg" viewBox="0 0 42.75 27.77"><defs><style>.cls-1{fill:#fff;}</style></defs><title>menu_btn_white</title><g id="Layer_2" data-name="Layer 2"><g id="PROYECTOS"><g id="HQTC"><g id="B_MENU" data-name="B MENU"><path class="cls-1" d="M38.71,2.4l0-.08h-.16l0,0a.41.41,0,0,1-.19,0l-.07,0h0a.05.05,0,0,1,0,0s0,0,0,0-.15,0-.22,0a.11.11,0,0,1-.08,0,.06.06,0,0,1-.06,0h-.11s0,0,0,0h0a.08.08,0,0,1-.09,0h0c-.14,0-.26.11-.4,0-.15,0-.31,0-.46.06h-.05s0,0,0,0,0,0,0,0a3.18,3.18,0,0,1,.69,0h.2l.29,0,.05,0a0,0,0,0,1,0,0,.05.05,0,0,1-.06,0h-.2a.1.1,0,0,1-.1,0h0c-.07,0-.15,0-.21,0h0a.1.1,0,0,1-.1,0h0a.11.11,0,0,1-.11,0h0a.22.22,0,0,1-.14,0h-.08a.14.14,0,0,1-.14,0h0a.11.11,0,0,1-.11,0H36.3a.08.08,0,0,1-.09,0s-.05,0-.08,0a.25.25,0,0,1-.19,0h-.07s-.1,0-.15,0h-.15a.2.2,0,0,1-.13,0h-.08c-.08,0-.15,0-.22,0a.49.49,0,0,1-.17,0c-.06,0-.12,0-.17,0h-.08a.27.27,0,0,1-.2,0,.12.12,0,0,1-.1,0s-.08,0-.1,0h0s-.07,0-.11,0h-.11c-.13,0-.27,0-.39,0a2,2,0,0,1-.48,0,4.19,4.19,0,0,1-.7-.09.11.11,0,0,1-.08,0c0-.09-.13-.05-.2-.06s-.1,0-.13,0h0s-.08,0-.09,0h0s-.05,0-.08,0-.18,0-.26,0-.2,0-.26-.1h0c0,.07-.06,0-.09,0h-.06s-.06,0-.06,0,0,0,.06,0l.05,0h.09l.26.06c.06,0,.09,0,.13,0a.33.33,0,0,1,.26,0s0,0,0,0,.07,0,.1,0h0a.08.08,0,0,1,.1,0c.21,0,.43,0,.64.08a2.88,2.88,0,0,0,.88.06l0,0h0c.23,0,.46,0,.7,0h0a.14.14,0,0,1,.14,0,.54.54,0,0,1,.31,0H35l0-.05h0c.06-.08.12,0,.18,0a0,0,0,0,1,0,0,.22.22,0,0,1,.14,0h.07a.19.19,0,0,1,.15,0h0a.31.31,0,0,1,.19,0H36a.15.15,0,0,1,.13,0s.05,0,.08,0a.36.36,0,0,1,.23,0s0,0,.07,0a.22.22,0,0,1,.14,0,.09.09,0,0,1,.07,0c.07,0,.13-.05.19,0s0,0,0,0l.08,0,0-.07a.05.05,0,0,1,0-.05.13.13,0,0,1-.09,0h0a.55.55,0,0,1-.18,0h0a.2.2,0,0,1-.18,0h0v0s0,0,0,0h0c-.05,0-.09,0-.13,0a.08.08,0,0,1-.07,0h0a.27.27,0,0,1-.15,0h-.07s-.12,0-.17,0,0,0-.08,0a.21.21,0,0,1-.19,0,0,0,0,0,1-.07,0s-.1,0-.15,0h0a.82.82,0,0,1-.4-.13h-.17a.08.08,0,0,1-.08,0c-.13,0-.27.07-.39,0H34c-.07,0-.14.07-.21,0a.06.06,0,0,1-.06,0,.21.21,0,0,1-.11,0s-.1,0-.13,0-.08,0-.11,0h0v0a.2.2,0,0,1-.15,0h-.07s0,0,0,0a.11.11,0,0,1-.12,0c-.08,0-.16,0-.22,0s-.21.08-.31,0a.09.09,0,0,1-.08,0,.1.1,0,0,1-.09,0s-.1,0-.13,0H32a.45.45,0,0,1-.23,0h-.07a.08.08,0,0,1-.1,0h0s-.07,0-.1,0a.22.22,0,0,0-.12,0c0,.05-.11,0-.17,0s-.13.05-.19,0h0s0,0,0,0,0,.07-.08,0a.19.19,0,0,0-.13,0h0s0,0,0,0a.05.05,0,0,1-.06,0h0l-.08,0c-.05,0-.06,0-.09,0a.22.22,0,0,0-.11.05s-.05,0-.06,0a.18.18,0,0,0-.14,0,.05.05,0,0,1-.08,0h0L30,.73s0,0,0,0h0l-.06,0h-.06s0,0-.06,0H29.6s0,0-.05,0,0,0-.05,0h0s0,0-.06,0h-.25s-.07,0-.11,0-.1,0-.15,0h0s0,0,0,0h-.13s-.05,0-.06,0h0a.14.14,0,0,1-.2,0c-.07,0-.15,0-.21,0a.15.15,0,0,1-.17,0,.33.33,0,0,1-.26,0h0c-.07,0-.14,0-.2,0h-.1c-.08,0-.15,0-.22,0h-.08a0,0,0,0,1,0,0c-.06,0-.13,0-.18,0H26.9s-.09,0-.13,0h-.08a.15.15,0,0,1-.13,0s-.1,0-.14,0h0c-.1,0-.21,0-.31,0a.1.1,0,0,1-.12,0,1.94,1.94,0,0,0-.34,0s0,.05,0,.06,0,0,0,0H25.5a.53.53,0,0,1-.25,0s0,0,0,0h0c-.05,0-.12.06-.17,0H25s0,0-.05,0-.13,0-.19,0a.31.31,0,0,1-.19,0,.17.17,0,0,1-.14,0h0c-.07,0-.13,0-.18,0h-.08a.09.09,0,0,1-.09,0,.25.25,0,0,1-.15,0h-.07a.13.13,0,0,1-.13,0h0a.09.09,0,0,1-.11,0h-.06a.48.48,0,0,1-.24,0,2.62,2.62,0,0,0-.38-.09,3.31,3.31,0,0,1-.55-.07H22.1a.38.38,0,0,1-.21,0,.1.1,0,0,1-.09,0s-.09,0-.13,0h-.12l-.47,0a0,0,0,0,1,0,0c-.05,0-.1,0-.14,0h0s-.06.07-.1,0H20.7c-.06,0-.13,0-.18,0h0c0,.07-.09,0-.13,0s0,0-.05,0h0s-.09,0-.13,0h0a.17.17,0,0,1-.15,0s0,0-.07,0a.16.16,0,0,1-.15,0h-.06s-.07,0-.09,0-.15,0-.22,0h0a.08.08,0,0,1-.1,0h-.07a.36.36,0,0,1-.27,0h0L18.34.1v0h0s-.07.05-.11,0h0a.5.5,0,0,1-.27,0h-.07s-.1,0-.15,0h0c-.06,0-.12,0-.18,0h0s-.08,0-.11,0h0a.28.28,0,0,1-.22,0h0l-.12,0a0,0,0,0,1,0,0,.15.15,0,0,1-.13,0h-.22c-.07.1-.15.09-.23.1h-.09c-.1,0-.2,0-.29,0s0,0,0,0h-.25s-.07,0-.08.06h.07s.07,0,.1,0a9.47,9.47,0,0,0,1.19,0,.26.26,0,0,1,.12,0c.43.18.9,0,1.33.2.22,0,.44,0,.65,0s.61,0,.91,0,.74.06,1.11.08a1.47,1.47,0,0,0,.66,0h.06a1.69,1.69,0,0,0,.67,0c.1,0,.22,0,.25.14s0,0,.07,0,.19,0,.28,0a2.34,2.34,0,0,0,.46,0c.07,0,.14,0,.17.08s.1.05.15.06l.57.06c.08,0,.17,0,.21.1s.07,0,.11,0H25a.65.65,0,0,1,.31,0,1,1,0,0,0,.34,0,.5.5,0,0,1,.21,0c.06,0,.07.08,0,.13s-.11,0-.15,0-.11,0-.15,0-.07,0-.11.07-.07,0-.1-.08-.1.16-.18.05-.14-.05-.2,0-.05,0,0,0-.07,0-.11,0-.14.12-.2,0h0a2.36,2.36,0,0,1-.65,0,2,2,0,0,1-.49-.08,2.27,2.27,0,0,0-.52,0c-.39,0-.77-.1-1.16-.14s-.59-.09-.89-.14a2.06,2.06,0,0,0-.7,0,5,5,0,0,1-1.45,0L17.83.69c-.26,0-.51-.09-.77-.13a10.2,10.2,0,0,0-1.23-.1h-.36a.05.05,0,0,1-.05,0h0s0,0-.06,0-.16.07-.18-.07c0,0-.05-.08-.09,0s0,.08-.07,0h-.1a.11.11,0,0,1-.12,0h-.21s-.05,0-.08,0-.08,0-.1,0h0s0,0-.06,0a.34.34,0,0,1-.22,0h0a.12.12,0,0,1-.14,0h0s0,0-.05,0-.09,0-.13,0h-.17a.23.23,0,0,1-.17.17s0-.1,0-.15,0,0,0,0h-.07a0,0,0,0,1,0,0,.33.33,0,0,1-.17,0s0,0,0,0h0c0,.06-.09,0-.13,0s0,0-.05,0c-.21,0-.42,0-.62,0a.37.37,0,0,1-.32-.1h-.12c0,.05-.07,0-.11,0h0s0,0-.06,0h-.08s0,0,0,0-.15.07-.23,0h-.06s0,0,0,0H11a.08.08,0,0,1-.08,0c-.08,0-.16,0-.23,0h-.08s-.05,0-.08,0a.41.41,0,0,1-.22,0h-.08a.33.33,0,0,1-.17,0,.75.75,0,0,1-.51,0h0c-.07,0-.15.07-.21,0H9.27s0,.05-.09,0h0c-.07,0-.14.06-.21,0H8.85a0,0,0,0,1,0,0c-.05,0-.08,0-.13,0a.06.06,0,0,1-.08,0c-.07,0-.13,0-.19,0h0a.55.55,0,0,1-.31.07s0,0,0,0H8L8,.27s0,0,0,0H7.83s0,0,0,0l0,0h0c-.08,0-.15.08-.23,0h0c-.07,0-.12.12-.2,0h0l-.08,0s0,0,0,0L6.3.41a.19.19,0,0,1-.15,0h0s-.06,0-.1,0a2.25,2.25,0,0,1-.58.07h0s0,0-.06,0a1,1,0,0,1-.24,0,.36.36,0,0,1-.24.07,1.77,1.77,0,0,1-.41.12,0,0,0,0,1-.06,0,0,0,0,0,1,0-.06A3.2,3.2,0,0,1,4.83.59L5.11.51v0l0,0H4.94s0,0,0,0a0,0,0,0,1,0,0l-.25,0a0,0,0,0,1-.06,0h0a.34.34,0,0,1-.19,0L4.3.6h0a.15.15,0,0,1-.11,0h0A.14.14,0,0,1,4,.7l-.17,0c-.06.06-.14.05-.21.06h0s0,0,0,0l0,0,0,0a.06.06,0,0,1-.07,0c0,.06-.09,0-.14.06h0a.05.05,0,0,1-.09,0h0l-.09,0L3.05,1h0A0,0,0,0,1,3,1L3,1l0,0s0,0,0,0h0a.09.09,0,0,1-.12,0H2.69l-.12,0a0,0,0,0,1,0,0h0c-.08.08-.2,0-.29.08s-.11,0-.16.06S2,1.32,2,1.34H2a0,0,0,0,1,0,0s0,0,0,0h0a.1.1,0,0,1-.08.05s-.09,0-.13.05h0s0,0,0,0h0a.05.05,0,0,1-.05,0h0a.14.14,0,0,1-.09.05h0v.12l0,.05s0,0,0,0,0,0,0,0h.07c.05,0,0,.07.1.07a.11.11,0,0,1,.08,0h.13v0h0a.21.21,0,0,1,.18,0,.2.2,0,0,1,.13,0l.28,0A.66.66,0,0,1,2,1.94l-.1,0h0a.05.05,0,0,1-.06,0h0a.05.05,0,0,1,0,0,1.34,1.34,0,0,1-.44.06.09.09,0,0,1-.06,0s-.09,0-.11.06l0,0a.1.1,0,0,1,0,0,.08.08,0,0,0,0,0s0,0,.05,0l0,0h.05a0,0,0,0,1,.05,0s0,0,0,0h0l.1,0h0l0,0c.1,0,0,.08,0,.12s0,0,0,.06h0s-.09,0-.15,0a.09.09,0,0,1-.07,0s0,0-.05,0H1.3l-.12,0c-.1.08-.23,0-.34.08s0,0,0,0l-.17,0h0a.16.16,0,0,1-.08.06h0L.35,3h0l0,.06s0,0,0,0,0,0,0,.05,0,0,0,0,0,0,0,0h0s0,0,0,0h0a.05.05,0,0,1,0,0h0s0,0,0,0a0,0,0,0,1,0,0,.12.12,0,0,1,.05,0h0s.1,0,.15,0h0v0c.05,0,.05,0,.06.07H1s.05,0,.06,0h.06s0,0,0,0h.2c.13-.09.27-.06.44-.09-.08.1-.15.09-.22.12a.17.17,0,0,1,0,.14l.06.07h0s0,0,0,0l.11.07h.1s.08,0,.13-.06.09,0,.13,0,0,.08,0,.09l0,0h0a.11.11,0,0,1,0,.1s0,0,0,0a.1.1,0,0,1,0,0h0l.06,0h.06s0-.07.05-.09h0s0,0,0,0a0,0,0,0,1,.05,0h0c.06,0,.12-.07.18,0s-.15,0-.16.08h0l.07,0s0,0,.07,0a.38.38,0,0,1,.15,0h0s0-.07,0-.09h0s0,0,.07-.06.09,0,.13,0H3s0,0-.07-.06l0,0h0a.2.2,0,0,1-.15,0s0,0-.06,0h0s-.08,0-.11,0,.07,0,.11,0a.14.14,0,0,1,.23,0H3v0h0c.05,0,.11,0,.13,0s.16,0,.23-.07,0,0,.05,0h0s.06-.06.1,0h.07c.08-.1.18-.06.25,0a.64.64,0,0,0,.36,0l.08,0s.06-.1.13-.05a.08.08,0,0,1,.09,0h0s0,0,0,0h0l0,0s0,0,0,0l.06.08h.08a.24.24,0,0,1,.22,0H5a.1.1,0,0,1,.16,0h0c.08,0,.16-.05.23,0s0,0,.07,0,0,0,0,0h0a0,0,0,0,1,0,0h0s0,0,0,0h0s.08,0,.12,0,0,0,0,0a.15.15,0,0,1,.13,0h0c.11,0,.23-.06.34,0s.11,0,.17,0h0a.24.24,0,0,1,.14,0h0A2.41,2.41,0,0,1,7,4a.25.25,0,0,1,.21.07.21.21,0,0,0,.23,0,.15.15,0,0,1,.19,0s0,0,.07,0l.07,0,0-.05V4h0C7.89,4,8,4,8.07,4s0,0,0,0a.33.33,0,0,1,.22,0h0a3,3,0,0,1,.79.07h.15l.08,0s0,0,0,0,0,0,0,0a.41.41,0,0,1,.37,0h.06s0,0,.05,0,.19,0,.28,0,.1,0,.15,0a.12.12,0,0,1,.11,0h0a.23.23,0,0,1,.11,0,0,0,0,0,1,.06,0c.09,0,.18,0,.27,0s0,0,0,0a.17.17,0,0,1,.14,0h0s.05,0,.08,0h0s.08,0,.11,0h.19a.08.08,0,0,1,.1,0,.06.06,0,0,1,.07,0,.22.22,0,0,1,.22,0,.21.21,0,0,1,.1,0h0a.14.14,0,0,1,.1,0,.21.21,0,0,1,.25,0,.25.25,0,0,1,.19,0h0a.07.07,0,0,1,.09,0,.05.05,0,0,1,0,0,0,0,0,0,1,0,0,0,0,0,0,1,0,0H13c.07,0,.15,0,.21,0h.12a.13.13,0,0,1,.13,0h0s.07,0,.09,0h.06a.05.05,0,0,1,.06,0,.17.17,0,0,1,.21,0l.11,0s0-.09.09-.09a.12.12,0,0,1,.18,0h0c.07,0,.15-.06.22,0h.08s0,0,.05,0,0,0,0,0a.16.16,0,0,1,.13,0l.14,0h.22c.1-.09.24,0,.34-.1s-.06-.06,0-.09a.09.09,0,0,1,.12,0c.08,0,.16,0,.23,0H16a.05.05,0,0,1,.05,0h.12a.41.41,0,0,1,.19,0h.06s.08,0,.1,0,0,0,0,0a.08.08,0,0,1,.08,0h.17s0,0,0,0,.08,0,.13,0a.08.08,0,0,1,.08,0,.45.45,0,0,1,.2,0h.1a.25.25,0,0,1,.19,0h.11a.36.36,0,0,1,.23,0h.07a.4.4,0,0,1,.24,0,.14.14,0,0,1,.11,0,.57.57,0,0,1,.26,0h.16a1.54,1.54,0,0,1,.37,0h.07a.29.29,0,0,1,.16,0,.59.59,0,0,1,.23,0h0a.21.21,0,0,1,.11,0,.53.53,0,0,1,.28,0,.26.26,0,0,1,.15,0,.77.77,0,0,1,.26,0h.17a.5.5,0,0,1,.32,0,0,0,0,0,1,.06,0,.38.38,0,0,1,.21,0,.41.41,0,0,1,.21,0h.05a.31.31,0,0,1,.19,0h0a0,0,0,0,1,.07,0h0a.44.44,0,0,1,.23,0H22a.23.23,0,0,1,.18,0,.11.11,0,0,1,.11,0h.35a.45.45,0,0,1,.23,0,.41.41,0,0,1,.19,0,.5.5,0,0,1,.27,0h.12a.41.41,0,0,1,.19,0h.11a1.24,1.24,0,0,1,.43,0,0,0,0,0,1,0,0,.1.1,0,0,1,.1,0s0,0,.05,0h0a.15.15,0,0,1,.14,0h.05a.31.31,0,0,1,.21,0h0s.08,0,.11,0a.87.87,0,0,1,.28,0,.08.08,0,0,1,.08,0h0c.05,0,.1,0,.14,0s.12,0,.17,0h.08c.05,0,.1,0,.13,0h.09c.07,0,.15,0,.22,0a.11.11,0,0,1,.08,0s.09,0,.13,0,.13,0,.18,0,.11,0,.16,0,.09,0,.13,0h0c.06,0,.12,0,.18,0h.16s.08,0,.1,0,0,0,0,0l0,0a.19.19,0,0,1,.13,0s0,0,0,0l.07,0h0a0,0,0,0,1,.07,0,0,0,0,0,1,0,0,.09.09,0,0,1,.07,0c.06,0,.13,0,.19,0a0,0,0,0,1,.06,0l-.06,0,.06,0H28s.06,0,.1,0h.07a0,0,0,0,1,.06,0h.06a.07.07,0,0,1,.11,0,.06.06,0,0,1,.07,0c.08,0,.16,0,.24,0h.06a.17.17,0,0,1,.14,0c.13,0,.28,0,.4.06a.14.14,0,0,1,.11,0h.08s0,0,.05,0a.17.17,0,0,1,.12,0c.12,0,.24-.06.36,0h.15c.09,0,.18,0,.26,0h0c.08,0,.15,0,.22,0s.1,0,.13,0h0c0,.07.13,0,.18.07a0,0,0,0,1,0,0,.14.14,0,0,1,.14,0h0a.37.37,0,0,1,.23,0h.06a.15.15,0,0,1,.19,0,0,0,0,0,1,0,0c.09,0,.18-.05.27,0h0a.46.46,0,0,1,.26,0,.39.39,0,0,1,.15,0h.06a.35.35,0,0,1,.15,0l0,0a.13.13,0,0,1,.12,0,.65.65,0,0,1,.31,0h0c.07,0,.15,0,.22,0h.08c.11,0,.23-.08.35,0a.93.93,0,0,1,.33,0,.41.41,0,0,1,.19,0h0a.17.17,0,0,1,.12,0,.12.12,0,0,1,.14,0,0,0,0,0,1,0,0,.14.14,0,0,1,.14,0h0a.13.13,0,0,1,.1,0h0a.13.13,0,0,1,.1,0s0,0,0,0a.09.09,0,0,1,.09,0h0a.09.09,0,0,1,.09,0,0,0,0,0,1,0,0,.37.37,0,0,1,.18,0,.22.22,0,0,1,.11,0l0-.06s0,0,0,0,0,0,0,0,.1,0,.14,0h.07c.06,0,.13,0,.18,0h0a.38.38,0,0,1,.15,0s0,0,0,0h0a.19.19,0,0,1,.18,0h0l.33,0s0,0,0-.06h0s-.1,0-.14,0h0a.11.11,0,0,1-.13,0h0a.11.11,0,0,1-.13,0,.15.15,0,0,1-.13,0s-.1,0-.13,0a.15.15,0,0,1-.14,0h0v0a0,0,0,0,1-.06,0h0s-.1,0-.13,0-.1,0-.13,0-.1,0-.14,0-.1,0-.13,0h0a.08.08,0,0,1-.09,0h0s-.07,0-.09,0a1.08,1.08,0,0,0-.3-.11c-.05,0-.09,0-.13,0a1.38,1.38,0,0,1-.4-.1h-.08a.76.76,0,0,1-.3-.05h0l-.2,0h0a.2.2,0,0,1,.22,0h0a.89.89,0,0,1,.36,0h.07l.39,0h.09c.07-.09.16,0,.24,0s0,.05,0,.07l.08,0h0l0,0a0,0,0,0,1,0,0h0s0,0,0,0a.08.08,0,0,1,.11,0h0s0,0,0,0a0,0,0,0,1,.06,0h.07s0,0,.05,0,.1,0,.14,0h0a.11.11,0,0,1,.14,0h.07c.05,0,.09,0,.12,0s0,0,0,0h0l.09,0a0,0,0,0,1,0,0s.08,0,.12,0a.12.12,0,0,1,.1,0h0a.22.22,0,0,1,.14,0h0a.17.17,0,0,1,.14,0h0a.2.2,0,0,1,.15,0H37l0,0s0,0,0,0S37,4.67,37,4.6a2.14,2.14,0,0,0-.34-.09,2.48,2.48,0,0,0-.8-.2c-.1,0-.19,0-.29-.06s-.06,0,0-.09h0a.06.06,0,0,1-.07,0v0s.06,0,.06,0h0a1.72,1.72,0,0,1,.59.08c.22.08.47,0,.67.22a.06.06,0,0,0,.06,0c.09,0,.11,0,.16.09s.13,0,.19.05h.07a.08.08,0,0,1,.09,0s0,0,0,0h.08s.08,0,.09-.07l-.05-.07h0a.17.17,0,0,1-.15,0c.06,0,.11-.07.15,0h0c.09,0,.18,0,.26,0s0,0,0,0a.07.07,0,0,1,.08,0h0s.08,0,.1,0,0,0,0,0,0,0,.06,0h.11v0l0-.1v0h0s0,0,0,0v0s0,0,0,0-.07,0-.09,0h0l0,0h0s-.07,0-.09,0h0a.08.08,0,0,1-.09,0,.15.15,0,0,1-.13,0s0,0-.06,0h0s-.06,0-.09,0h0a.09.09,0,0,1-.09,0h0s0,0-.06,0,0,0,0,0l0,0h0s-.07,0-.08,0h0L37,4h0c-.11,0-.24,0-.35-.05s0,0,0,0h0s0,0,.09,0a1,1,0,0,1,.3,0h.13s.07,0,.1,0h.07s0,0,.05,0L37.3,4l.05,0h.08a.09.09,0,0,1,.1,0h0c.08-.11.15-.12.29,0s0,0,0,0A.08.08,0,0,1,38,4s0,0,0,0l0,0,0,0a0,0,0,0,1,0,0s0,0,0,0a.26.26,0,0,1,.15,0h.05a.13.13,0,0,0,0-.12h0s0,0,0,0a0,0,0,0,1,0,0,.05.05,0,0,1-.06,0h-.07a.16.16,0,0,1-.1,0h0a.05.05,0,0,1-.05,0h0l0,0,0,0s0,0,0,0h0s0,0-.05,0a.07.07,0,0,1-.06,0h-.06a.1.1,0,0,1-.1,0h0a.14.14,0,0,1-.11,0H37.4a.08.08,0,0,1-.09,0h0a.08.08,0,0,1-.09,0h0a.05.05,0,0,1,0,0H37s0,0,0,0a.14.14,0,0,1-.14,0h-.08a.06.06,0,0,1-.08,0s0,0-.05,0h-.06s0,0-.07,0h-.16a.09.09,0,0,1-.1,0h-.07s0,0,0,0h0a.13.13,0,0,1-.18,0,.17.17,0,0,1-.12,0c-.05,0-.12,0-.17,0h0c-.05,0-.1,0-.15,0h0s-.09,0-.13,0-.12,0-.17,0H35s-.1,0-.14,0h0s-.1,0-.14,0h-.11s0,0-.06,0l-.07,0h0a.12.12,0,0,1-.1,0,.06.06,0,0,1-.07,0s-.09,0-.14,0h0c-.06,0-.12,0-.18,0h0s0,0,0,0a.12.12,0,0,1-.09,0c-.05,0-.1,0-.13,0h-.09a.17.17,0,0,1-.23,0h0s0,0-.06,0a.4.4,0,0,1-.19,0l0,0s-.06,0-.08,0,0,0,0,0l-.05,0h0a.13.13,0,0,1-.13,0h0s0,0-.07,0h-.06a.2.2,0,0,1-.15,0h-.17s-.08.05-.12,0a.22.22,0,0,1-.16,0,.1.1,0,0,1-.09,0h0s-.09,0-.13,0h0c-.06,0-.11,0-.17,0s-.05,0-.07,0h0s0,0-.07,0h0s-.09,0-.13,0H31s0,0-.05,0a2.51,2.51,0,0,1-.55-.07.32.32,0,0,1-.17,0,.39.39,0,0,1-.26,0l-.1,0s0,0,0,0,0,0,.05,0l.07,0c.11,0,.2-.08.31,0s.14,0,.21,0a2.28,2.28,0,0,1,.69,0,.17.17,0,0,1,.12,0,.16.16,0,0,1,.15,0h0a.1.1,0,0,1,.1,0h0l.12,0h0s.06,0,.09,0,0,0,0,0a.43.43,0,0,1,.22.06s.08,0,.1,0h.11s.06,0,.09,0h0l.05,0h.08a0,0,0,0,1,0,0h0c0-.12.1-.11.18-.06h0A.1.1,0,0,1,33,3h0s.07,0,.09,0h.08a0,0,0,0,1,.06,0h.07a.11.11,0,0,1,.11,0h0a.21.21,0,0,1,.15,0h.07a.14.14,0,0,1,.15,0h.06a.15.15,0,0,1,.13,0l.17,0h0a.09.09,0,0,1,.1,0c.06,0,.12,0,.17,0h.12a.26.26,0,0,1,.15,0h0a.17.17,0,0,1,.12,0,.14.14,0,0,1,.14,0c.1,0,.21,0,.31,0h.11l.08,0h0c0-.07.09,0,.14,0h0s.1,0,.14,0,0,0,0,0H36v0s0-.08,0-.09a.37.37,0,0,1,.23,0h.07a.14.14,0,0,1,.11,0h0s.09,0,.13,0a.81.81,0,0,1,.31,0h.07a.22.22,0,0,1,.16,0h.06a.22.22,0,0,1,.14,0h.12a.15.15,0,0,1,.13,0h.12s.1,0,.12,0v0s0,0-.06,0h0s0,0,0,0h0c-.06,0-.12,0-.18,0h-.08a0,0,0,0,1,0,0l0,0,0,0h-.12a.22.22,0,0,1-.14,0H37a.34.34,0,0,1-.22,0h0s0,0-.06,0h0s-.08,0-.08,0,0,0,.08,0h0s0,0,.06,0a0,0,0,0,1,0,0,.2.2,0,0,1,.22,0h.12l.26,0h0l0-.09a.09.09,0,0,1-.09,0,.45.45,0,0,1-.2,0,.14.14,0,0,1-.14,0h0s-.09,0-.12,0h0a.07.07,0,0,1-.06,0,.88.88,0,0,1-.28,0,.2.2,0,0,1-.15,0h-.11a.26.26,0,0,1-.15,0H36a.09.09,0,0,1-.09,0h0a.14.14,0,0,1-.14,0H35.6a.1.1,0,0,1-.1,0h-.07a.16.16,0,0,1-.15,0h-.11c-.05,0-.11,0-.15-.06a.17.17,0,0,1,.19,0h.07c0-.08.1,0,.15,0h0a.16.16,0,0,1,.15,0h.06a.14.14,0,0,1,.14,0h.12s0,0,.05,0a.43.43,0,0,0,.16,0h.05a.17.17,0,0,1,.17,0h.08a.06.06,0,0,1,.07,0h.15a.22.22,0,0,0,.13-.06c0-.07.08,0,.13,0H37a.36.36,0,0,1,.23,0h0s0,0,.06,0l.24,0c0-.13.13-.09.22-.07h0a.15.15,0,0,1,.2,0h0s.09,0,.13,0,0,0,0,0a.38.38,0,0,1,.15,0h.07l.29,0h0ZM37,3.78v0h0v0Zm.16.65s0,0,.06,0,0,0,0,0,0,0-.05,0Zm-1.92.62V5h0ZM5.91.93V1s0,0,0,0,0,0,0,0S5.9.91,5.91.93ZM29.82,2.77c0,.09-.07,0-.1,0a.22.22,0,0,1-.11,0s-.06,0-.09,0,0,0-.05,0l.05,0a.28.28,0,0,1,.18,0h0C29.75,2.74,29.82,2.7,29.82,2.77Zm2.67.2-.05,0S32.48,3,32.49,3Z"/><path class="cls-1" d="M42.75,13.7h0l-.33,0h-.08a.43.43,0,0,1-.16,0,0,0,0,0,1,0,0c0,.05-.09,0-.14,0h-.05a.18.18,0,0,1-.22,0h0c-.09,0-.19.07-.24-.06l-.26,0s-.05,0-.07,0h0a.42.42,0,0,1-.25,0h-.08c-.05,0-.1,0-.14,0s-.1,0-.15-.06h-.17s0,0-.07,0h-.09a.23.23,0,0,1-.2,0h0a.37.37,0,0,0-.18,0s0,0-.06,0h-.14a.16.16,0,0,1-.15,0h-.07a.25.25,0,0,1-.17,0h0c-.05,0-.11.08-.16,0h-.08a.22.22,0,0,1-.22,0c0-.06.12,0,.18,0h.11a.25.25,0,0,1,.17,0h.08a.11.11,0,0,1,.11,0h.09a.16.16,0,0,1,.15,0h0a.1.1,0,0,1,.09,0h.07a.25.25,0,0,1,.17,0H40a.29.29,0,0,1,.16,0h.31a.09.09,0,0,1,.07,0h0s.1,0,.15,0h0a.16.16,0,0,1,.15,0,.59.59,0,0,1,.23,0s.06,0,.1,0v-.08h0l-.28,0h-.14a.23.23,0,0,1-.24,0h0s0,0-.06,0h0s-.1,0-.09,0,.06,0,.09,0,0,0,0,0,0,0,.06,0l0,0h0a.39.39,0,0,1,.24,0h.09a.25.25,0,0,1,.15,0h.13l.06,0-.06,0s0,0,.06,0h.09c.06-.05.14,0,.2,0h0a0,0,0,0,1,0,0l0,0a.07.07,0,0,1,.06,0h0c0-.06-.1,0-.14-.05h-.13a.21.21,0,0,1-.15,0h-.13A.29.29,0,0,1,41,13h-.07a.25.25,0,0,1-.17,0h-.08a1,1,0,0,1-.35,0,.22.22,0,0,1-.14,0h0a.17.17,0,0,1-.12,0H40a.42.42,0,0,1-.25,0c-.05,0,0,0,0-.08v-.06h-.1s0,0,0,0a.23.23,0,0,1-.16,0h0c-.05,0-.11.06-.16,0h0l-.08,0H39a.83.83,0,0,1-.35,0c0,.05-.1,0-.15,0a.33.33,0,0,1-.14,0h0a.32.32,0,0,1-.17,0H38c-.06.05-.13,0-.19,0a.11.11,0,0,1-.11,0h0l-.19,0a.19.19,0,0,1-.15,0h-.07a.17.17,0,0,1-.17,0H37a.25.25,0,0,1-.17,0h0a.18.18,0,0,1-.12,0h-.08s0,0-.06,0h-.09a.09.09,0,0,1-.11,0h0a.14.14,0,0,1-.11,0s0,0,0,0-.17.06-.21-.06h0s0,0-.06,0h-.09l-.06,0h0s-.07,0-.1,0H35.5s-.07,0-.12,0a.61.61,0,0,1-.24.06h0s-.07,0-.1,0h0l-.14,0s0,0,0,0a.11.11,0,0,1-.11,0h0a.22.22,0,0,1-.16,0h-.13a2.91,2.91,0,0,1-.78,0c-.06.06-.15,0-.22,0s-.23,0-.35,0l-.08,0a0,0,0,0,1-.06,0,.05.05,0,0,1,0-.05l.11,0a.41.41,0,0,1,.29,0,.4.4,0,0,1,.19,0,3.08,3.08,0,0,1,.61-.07s0,0,.06,0h.09c0-.06.09,0,.14,0h0s0,0,.07,0h0s0-.05.08,0a.31.31,0,0,1,.19,0h0c0-.05.09,0,.14,0h0s.06,0,.1,0a.33.33,0,0,1,.17,0s.09,0,.14,0h.19a.23.23,0,0,1,.16,0h.07a.08.08,0,0,1,.08,0h0a.16.16,0,0,1,.15,0h0l.06,0s0-.05,0,0h.12a.38.38,0,0,1,.21,0s0,0,.07,0h0c.09-.07.17,0,.25,0H37a.14.14,0,0,1,.15,0,.12.12,0,0,1,.1,0,0,0,0,0,1,.05,0h0c.06,0,.13,0,.2,0h0s.1,0,.15,0a.08.08,0,0,1,.08,0,.11.11,0,0,1,.11,0h.13a.07.07,0,0,1,.06,0h.1v0h0c0-.05.1,0,.16,0h0a.25.25,0,0,1,.15,0h.09c.06-.06.13,0,.19,0s.1,0,.15,0h0a.18.18,0,0,1,.16,0h.05c.06,0,.13,0,.19,0a.15.15,0,0,1,.13,0,.16.16,0,0,1,.21,0h0s0,0,0,0H40a.09.09,0,0,1,.1,0h.18s.05,0,.08,0h.06s0,0,.06,0a.1.1,0,0,1,.09,0h.09a.17.17,0,0,1,.15,0s0,0,.05,0h.08a.09.09,0,0,1,.06,0H41a.09.09,0,0,1,.1,0h0a.1.1,0,0,1,.1,0h.08a.16.16,0,0,1,.12,0h0s.06,0,.1,0h.07l.07,0a0,0,0,0,1,.06,0h0s0,0,.06,0l-.06,0,.06,0h0a.07.07,0,0,1,.06,0h0a.2.2,0,0,1,.11,0h.08s0,0,.07,0l0,0,0,0h0c0-.05,0-.08,0-.12H42a.06.06,0,0,1-.06,0l.06,0-.06,0h0a.14.14,0,0,1-.11,0h0c-.16.09-.23.09-.32,0h0s-.07,0-.11,0h-.09l-.05,0,.05,0s0,0-.05,0h-.08a.12.12,0,0,1-.12,0h-.14a1.27,1.27,0,0,1-.34,0,.09.09,0,0,1-.1,0v0h0s0,0,0,0,.27,0,.39,0h0l.05,0h0s0,0,.09,0h0l0,0s0,0,0,0a0,0,0,0,1,.06,0h.05a.09.09,0,0,1,.1,0h0a.1.1,0,0,1,.1,0v0h0s0,0,.07,0a.22.22,0,0,1,.14,0,.1.1,0,0,1,.1,0h0a.11.11,0,0,1,.11,0h0l0-.05h0s.06,0,.1,0,0,0,.05,0a.06.06,0,0,1,0,0s0,0,0,0h0l0-.1v0H42a.08.08,0,0,1-.07,0h0s-.06,0-.1,0h0a.12.12,0,0,1-.1,0h0c-.09.05-.19,0-.28,0h0c0,.08-.1,0-.17,0a.23.23,0,0,1,.18,0h0l.06-.07s-.07,0-.11-.07h-.08s0,0,0,0a.11.11,0,0,1-.11,0H41c-.07,0-.14.07-.22.05s-.07.14-.17.09a.09.09,0,0,0-.07,0c-.21.17-.5.14-.74.23a2.13,2.13,0,0,1-.66.08h0a.05.05,0,0,1-.07,0s0,0,0,0a.08.08,0,0,1,.08,0h0c0-.05,0-.08.06-.09s.21-.05.32-.06a3.64,3.64,0,0,0,.88-.2,3.49,3.49,0,0,0,.38-.1c0-.07,0-.08.1-.09a0,0,0,0,1,0,0l-.05-.05h-.12a.22.22,0,0,1-.16,0h0a.18.18,0,0,1-.16,0h0l0,0a.32.32,0,0,1-.17,0h0a.17.17,0,0,1-.1,0,.53.53,0,0,1-.13,0h-.06l-.09,0h0s0,0,0,0-.09,0-.13,0h-.08a.14.14,0,0,1-.16,0h0s-.09,0-.15,0,0,0,0,0H39a.06.06,0,0,1-.07,0s0,0,0,0h0s-.07,0-.12,0,0,0,0,0h0s0,0,0,0a.05.05,0,0,1,0,0h-.05l-.09,0s0,.07,0,.07-.18.08-.27,0H38.3l-.44,0h-.08a.86.86,0,0,1-.39,0h0a.23.23,0,0,1-.24,0h0l.22,0h0a1,1,0,0,1,.34,0h.08a1.63,1.63,0,0,1,.45-.09s.09,0,.14,0a1,1,0,0,0,.34-.11c0-.05.06,0,.1,0h0a.09.09,0,0,1,.1,0h0a.14.14,0,0,1,.15,0s.1,0,.15,0,.09,0,.14,0,.1,0,.15,0h0s0,0,.05,0h0a.18.18,0,0,1,.14,0,.2.2,0,0,1,.15,0,.15.15,0,0,1,.14,0,.17.17,0,0,1,.15,0h0a.13.13,0,0,1,.15,0h0c0-.05.1,0,.15,0h0s0,0-.05-.06l-.37,0h0A.25.25,0,0,1,40,11h-.07a.49.49,0,0,1-.17,0h0c-.06.05-.13,0-.2,0h-.08a.25.25,0,0,1-.15,0s-.06,0,0-.05a0,0,0,0,1,0,0l0-.06a.17.17,0,0,1-.12,0,.5.5,0,0,1-.21,0h0a.1.1,0,0,1-.1,0h0a.11.11,0,0,1-.11,0s0,0,0,0a.11.11,0,0,1-.11,0s0,0,0,0a.11.11,0,0,1-.11,0h0a.16.16,0,0,1-.15,0h0a.16.16,0,0,1-.15,0h-.17a.38.38,0,0,1-.21,0,.93.93,0,0,1-.37,0c-.13.09-.26,0-.39,0h-.08c-.08.07-.17,0-.25,0h-.05c-.11.06-.22,0-.33,0a.33.33,0,0,1-.14,0h0a.32.32,0,0,1-.17,0h0l0,0a.32.32,0,0,1-.17,0,.45.45,0,0,1-.28,0h0c-.1.07-.2,0-.3,0h0a.15.15,0,0,1-.2,0h-.08a.35.35,0,0,1-.25,0h0s-.1,0-.16,0h0c-.06.05-.15,0-.2.08h0c0,.08-.09,0-.14,0s-.16,0-.24,0h-.05a.57.57,0,0,1-.29,0H33a.77.77,0,0,1-.4,0,.2.2,0,0,1-.13,0s0,0-.06,0h-.09a.13.13,0,0,1-.12,0c-.13.11-.3,0-.45.06s-.09,0-.15,0h-.07c-.08,0-.17,0-.26,0a.08.08,0,0,1-.08,0,.09.09,0,0,1-.12,0H31a0,0,0,0,1-.06,0h-.08c-.05.05-.08,0-.12,0h-.07l-.07,0,.07,0s0,0-.07,0-.14,0-.21,0a.06.06,0,0,1-.07,0,0,0,0,0,1,0,0,.05.05,0,0,1-.08,0h0l-.07,0s0,0,0,0a.22.22,0,0,1-.14,0l-.05,0a0,0,0,0,1,0,0,.09.09,0,0,1-.11,0h-.19c-.06.05-.13,0-.19,0h0s-.09,0-.14,0-.12,0-.18,0-.13,0-.2,0-.09,0-.14,0a.11.11,0,0,1-.08,0,.53.53,0,0,1-.25,0h-.1a.14.14,0,0,1-.14,0H28c-.05,0-.12,0-.19,0s-.1,0-.15,0h0s-.06,0-.09,0a.81.81,0,0,1-.31,0s-.08,0-.12,0h0a.33.33,0,0,1-.24,0h-.05a.16.16,0,0,1-.15,0h0a.09.09,0,0,1-.07,0,.11.11,0,0,1-.11,0s0,0,0,0a1.11,1.11,0,0,1-.48,0,.1.1,0,0,1-.09,0h0a.38.38,0,0,1-.21,0h-.13a.61.61,0,0,1-.3,0,.55.55,0,0,1-.22,0,.46.46,0,0,1-.26,0h-.38a.17.17,0,0,1-.12,0,.26.26,0,0,1-.21,0H24a.53.53,0,0,1-.25,0s0,0,0,0a.05.05,0,0,1-.08,0h0a.33.33,0,0,1-.22,0h0a.6.6,0,0,1-.24-.05.49.49,0,0,1-.24,0s0,0-.06,0a.63.63,0,0,1-.36,0,.19.19,0,0,1-.13,0H22.3a1,1,0,0,1-.3,0h-.17a.76.76,0,0,1-.3,0,.28.28,0,0,1-.13,0h0a.76.76,0,0,1-.26,0h-.25a2.75,2.75,0,0,1-.41,0h-.19a.71.71,0,0,1-.29,0,.17.17,0,0,1-.12,0,.57.57,0,0,1-.26,0H19.5a.43.43,0,0,1-.25,0h-.13a.3.3,0,0,1-.21,0H18.8a.41.41,0,0,1-.22,0,.14.14,0,0,1-.09,0,.17.17,0,0,1-.15,0h-.23a.12.12,0,0,1-.1,0,0,0,0,0,1,0,0,.11.11,0,0,1-.11,0s0,0,0,0h0a.79.79,0,0,1-.22,0h-.13a.06.06,0,0,1-.06,0h-.08c-.08.05-.17,0-.25,0a.14.14,0,0,1-.14,0c-.06,0,0-.07,0-.1-.12-.07-.27,0-.39-.09h0l-.14,0s0,0,0,0h0a.76.76,0,0,1-.16,0S16,12,16,12s0,0-.06,0,0,0,0,0h-.09c-.08.07-.16,0-.24,0h0a.14.14,0,0,1-.2,0A.1.1,0,0,1,15.2,12l-.12,0a.23.23,0,0,1-.24,0,.06.06,0,0,1-.06-.05h-.07a.1.1,0,0,1-.1,0h0a.16.16,0,0,1-.15,0h-.12a.49.49,0,0,1-.24,0h-.25a0,0,0,0,1,0,0s0,0-.05,0,0,0-.05,0a.08.08,0,0,1-.1,0s0,0,0,0a.51.51,0,0,1-.21,0,.3.3,0,0,1-.29,0,.14.14,0,0,1-.1-.05h0a.14.14,0,0,1-.11,0,.25.25,0,0,1-.24,0,.06.06,0,0,1-.07,0,.13.13,0,0,1-.12,0h-.22s-.07,0-.11,0h0s-.06,0-.08,0h0a.22.22,0,0,1-.16,0s0,0,0,0-.2,0-.3,0a.08.08,0,0,1-.08,0,.2.2,0,0,1-.11,0h0a.17.17,0,0,1-.12,0s-.11,0-.16,0-.21,0-.31,0,0,0-.06,0h-.06a.48.48,0,0,1-.42,0,0,0,0,0,1,0,0s0,0-.05,0H9.78a3.25,3.25,0,0,1-.88.08h0a.43.43,0,0,1-.25,0s0,0,0,0-.19,0-.27,0h0l-.05-.06-.08,0a.06.06,0,0,1-.07,0,.24.24,0,0,1-.22,0,.24.24,0,0,0-.26,0,.23.23,0,0,1-.23.07,2,2,0,0,1-.42,0H7a.29.29,0,0,1-.16,0h0a.37.37,0,0,1-.18,0c-.13.07-.26,0-.39,0h0a.14.14,0,0,1-.14,0,0,0,0,0,1-.06,0s-.09,0-.13,0h0a0,0,0,0,1-.05,0h0s0,0,0,0h0a0,0,0,0,1,0,0,.08.08,0,0,1-.08,0c-.08.06-.17,0-.25,0h0a.12.12,0,0,1-.17,0H5.1a.31.31,0,0,1-.25,0H4.76l-.07.09h0s0,0,0,0h0s0,0,0,0H4.6s-.06,0-.1,0-.09,0-.14-.05-.06,0-.08,0a1,1,0,0,0-.41,0c-.08,0-.19.07-.27,0s-.06,0-.09,0-.07,0-.1,0h0s0,0-.05,0-.18,0-.26-.07-.1,0-.15,0h0a.16.16,0,0,1-.25.05.15.15,0,0,1-.13,0s.08,0,.12,0h0s.05,0,.07,0,.11,0,.17,0h0s.08,0,.08-.07H3s-.12,0-.14,0-.07,0-.08-.06h0s0-.05-.06-.08h0l0,0H2.41l-.07,0h0c0,.11.15,0,.17.09s-.13,0-.19,0h0a.06.06,0,0,1,0,0s0,0,0,0h0s0-.06-.05-.09H2.08l-.07,0H2a.07.07,0,0,1,0,.05v0s0,.07,0,.1H2l0,0c.05,0,.08,0,0,.08a.09.09,0,0,1-.15,0c-.05,0-.11,0-.15-.06h-.1l-.12.08s0,0-.05,0h0l-.06.07c0,.06,0,.1-.05.14s.15,0,.24.12a1.22,1.22,0,0,1-.49-.09s0,0,0,0H.93s0,0-.05,0H.82a.08.08,0,0,1-.08,0H.66s0,.07-.06.07h0s-.11,0-.17,0h0A.1.1,0,0,1,.31,13s0,0,0,0,0,0,0,0h0l-.06,0h0s0,0,0,0h0a0,0,0,0,1,0,.05s0,0,0,0,0,0,0,.05,0,0,0,0l0,.06H0l.23.14h0a.15.15,0,0,1,.09.06h0l.19,0s0,0,0,0,.26,0,.37.07l.14,0H1.2a0,0,0,0,1,.05,0h.08c.06,0,.12-.05.17,0h0s.06,0,0,0,.11.09,0,.13h0l-.11.06v0s0,0,0,0,0,0-.06,0H1.23l-.05,0s0,0-.05,0l0,0a0,0,0,0,1,0,0,.07.07,0,0,1-.05,0,.27.27,0,0,0,.13.07s0,0,.06,0a2.14,2.14,0,0,1,.5.06l0,0h.05a.05.05,0,0,1,.06,0h0l.12,0a.8.8,0,0,1,.4.06l-.31,0a.22.22,0,0,1-.14,0,.23.23,0,0,1-.2-.05h0l-.15,0a.1.1,0,0,1-.09,0c-.06,0,0,.08-.1.08H1.25l0,0a0,0,0,0,1,0,.05l0,0v.13h0v0a.11.11,0,0,1,.1,0h0a.05.05,0,0,1,.06,0h0s0,0,.05,0h0c.05,0,.11,0,.14.05a.13.13,0,0,1,.09,0h.05s0,0,0,0,0,0,.05,0h0S2,15,2,15s.14,0,.18.07.22,0,.32.08h0s0,0,.05,0l.13,0h.07a.12.12,0,0,1,.14,0h0a0,0,0,0,1,0,0s0,0,0,0H3a.08.08,0,0,1,.07,0h0l.07.06.09,0h0s.07,0,.1,0h0a.18.18,0,0,1,.16,0,.08.08,0,0,1,.08,0l0,0h.05s0,0,0,0h0a.41.41,0,0,1,.24.06l.18,0a.17.17,0,0,1,.15,0h0l0,0a.1.1,0,0,1,.11,0h.07a.55.55,0,0,1,.22.06h0s0,0,.06,0l.28,0s0,0,0,0,0,0,0,0h.14l0,0a0,0,0,0,1,0,0l-.32-.08a2.41,2.41,0,0,1-.37-.07,0,0,0,0,1,0-.06.06.06,0,0,1,.08,0,2.5,2.5,0,0,1,.45.12.52.52,0,0,1,.27.07,1.1,1.1,0,0,1,.26,0,.05.05,0,0,1,.08,0h0a3.47,3.47,0,0,1,.64.06s.09,0,.11,0h0a.25.25,0,0,1,.17,0l1,.06s0,0,0,0l.09,0h0c.08-.1.14,0,.21,0h0c.08-.09.17,0,.25,0h0s0,0,.05,0h.1s0,0,.05,0h.09s0,0,.05,0a.8.8,0,0,1,.34.07h0c.07,0,.14,0,.21,0a.08.08,0,0,1,.09,0c.06,0,.09-.05.15,0s0,0,.05,0h.09c.07-.07.16,0,.24,0h0l0,0h0s.07,0,.1,0h.05c.07-.08.16,0,.24,0h0a.86.86,0,0,1,.57,0,.62.62,0,0,1,.19,0h.09a.48.48,0,0,1,.24,0s.06,0,.09,0h.09c.08,0,.17,0,.25,0s.06,0,.09,0H12s0,0,.06,0l.07,0c.08-.1.16-.06.25,0s0,0,0,0h.1s0,0,.06,0h0a.08.08,0,0,1,.12,0h.12a.45.45,0,0,1,.36-.1h.69s0,0,.06,0,.1-.06.14,0h0s0,0,.06,0a.37.37,0,0,1,.18,0s0,0,0,0h.08l0,0a.21.21,0,0,1,0-.15.25.25,0,0,1,.2.17H15s.1,0,.15,0,0,0,.05,0h0a.18.18,0,0,1,.16,0h0a.36.36,0,0,1,.25,0s0,0,.07,0h0a.09.09,0,0,1,.11,0s.07,0,.1,0h.23a.14.14,0,0,1,.14,0h.1c.06,0,.11,0,.09.05s.06,0,.1,0c0-.14.12-.07.19-.07s0,0,.06,0h0s0,0,.06,0h.19l.2,0a10.4,10.4,0,0,0,1.37-.11c.29,0,.57-.09.85-.13l.95-.14a5.78,5.78,0,0,1,1.61-.05,3,3,0,0,0,.79,0c.32-.06.66-.12,1-.15s.84-.12,1.27-.15a3.84,3.84,0,0,0,.59,0,1.68,1.68,0,0,1,.54-.08,2.54,2.54,0,0,1,.73,0h0c.06-.14.15,0,.22,0s.09,0,.12,0,0,0,0,0,.15.08.22,0,.11.11.21,0,.08-.11.11-.08.06.08.12.07.08-.14.17,0,.12,0,.17,0,.06.1,0,.13a.65.65,0,0,1-.24,0,.92.92,0,0,0-.37,0,.78.78,0,0,1-.34.05h-.31s-.1,0-.12,0-.14.09-.23.1l-.63.07c-.06,0-.14,0-.16.05s-.12.09-.19.08a3,3,0,0,0-.52,0c-.1,0-.21.06-.31,0s-.08,0-.08,0-.16.14-.27.14a2.29,2.29,0,0,0-.74,0h-.07a2,2,0,0,0-.74,0c-.41,0-.82.09-1.23.09s-.67,0-1,0a5.85,5.85,0,0,1-.73,0c-.47.18-1,0-1.47.2,0,0-.1,0-.14,0-.44,0-.88,0-1.32,0a.09.09,0,0,1-.11,0H17s.07,0,.1.05h.28s0,0,.05,0,.22,0,.32,0h.1c.1,0,.19,0,.26.1h.25a.17.17,0,0,1,.14,0,0,0,0,0,1,0,0l.14,0h0a.48.48,0,0,1,.24,0h0s.07,0,.12,0h0c.06,0,.13,0,.2,0v0h0s.1,0,.16,0a.06.06,0,0,1,.07,0,.65.65,0,0,1,.31,0h0c.05,0,.08,0,.12,0h0l.61.05h0a.39.39,0,0,1,.3,0h.08a.1.1,0,0,1,.12,0h0a.39.39,0,0,1,.24,0,.09.09,0,0,1,.1,0h.07a.2.2,0,0,1,.17,0,0,0,0,0,1,.07,0,.17.17,0,0,1,.17,0h0s.1,0,.15,0h0s0,0,.05,0,.1-.07.15,0h0c.05-.07.13,0,.2,0l.05,0h0c0-.05.08,0,.11,0h0c.05-.06.1,0,.16,0s0,0,.05,0l.52,0h.13c.05-.05.1,0,.15,0a.09.09,0,0,1,.1,0,.44.44,0,0,1,.23,0h.19a3.91,3.91,0,0,1,.61-.08l.42-.09a.61.61,0,0,1,.27,0h.07a.12.12,0,0,1,.12,0h0a.14.14,0,0,1,.15,0h.07a.25.25,0,0,1,.17,0,.09.09,0,0,1,.1,0h.09a.26.26,0,0,1,.19,0h0a.2.2,0,0,1,.15,0,.41.41,0,0,1,.22,0c.06-.06.14,0,.21,0s0,0,0,0h.09c.06-.07.13,0,.2,0h0s0,0,0,0a.66.66,0,0,1,.28,0h.05a0,0,0,0,1,.05,0,.05.05,0,0,1,0,.06,2.23,2.23,0,0,0,.37,0,.13.13,0,0,1,.14,0,1.32,1.32,0,0,0,.34,0h0s.1,0,.16,0a.17.17,0,0,1,.14,0h.09c.05,0,.1,0,.15,0h.14c.06,0,.13,0,.2,0a0,0,0,0,1,0,0h.09c.08,0,.17,0,.25,0h.12c.06-.05.14,0,.21,0h0a.48.48,0,0,1,.29,0,.21.21,0,0,1,.19,0c.07-.06.15,0,.24,0a.15.15,0,0,1,.21,0h0a.06.06,0,0,1,.07,0h.14s0,0,.05,0h0c.06,0,.11-.08.17,0s.07-.05.12,0h.28a0,0,0,0,1,.07,0h0a0,0,0,0,1,.06,0,0,0,0,0,1,.06,0h.14s.05,0,.07,0h.07l.06,0h0s0,0,0,0h.13a.07.07,0,0,1,.09,0,.26.26,0,0,0,.15,0s0-.05.07,0a.28.28,0,0,0,.12,0s0-.07.1,0l.09,0h0a.08.08,0,0,1,.07,0s0,0,0,0h0a.22.22,0,0,0,.14,0c0-.06.07,0,.1,0h.07c.06-.07.14,0,.21,0a.21.21,0,0,1,.19,0,.2.2,0,0,0,.13,0,.08.08,0,0,1,.12,0h0c0-.05.07,0,.11,0h.08a.39.39,0,0,1,.26,0h.13s.1,0,.15,0a.12.12,0,0,1,.1,0,.1.1,0,0,1,.09,0c.11-.09.22,0,.34,0s.16,0,.24,0a.15.15,0,0,1,.14,0,0,0,0,0,1,.06,0h0l0,0a.33.33,0,0,1,.17,0h0s.08,0,.12,0,.09-.05.15,0a.17.17,0,0,1,.12,0,.07.07,0,0,1,.07,0c.07-.08.16,0,.23,0h.1c.13-.11.29,0,.43-.05a.16.16,0,0,1,.1,0h.18a1.14,1.14,0,0,1,.44-.14h0s.11,0,.16,0a.1.1,0,0,1,.09,0,.23.23,0,0,1,.2,0s.06,0,.09,0,.13,0,.2,0h.07a.32.32,0,0,1,.17,0h0s0,0,.07,0,.1,0,.15,0h0a0,0,0,0,1,.06,0h0c.06,0,.13,0,.2,0h0a.61.61,0,0,1,.19,0h0a.18.18,0,0,1,.1,0,.05.05,0,0,1,0,0v-.07l-.09,0s0,0,0,0-.14,0-.21,0h-.08a.17.17,0,0,1-.15,0,.06.06,0,0,1-.08,0,.46.46,0,0,1-.26,0,.1.1,0,0,1-.09,0,.19.19,0,0,1-.15,0h-.07a.38.38,0,0,1-.21,0h0a.25.25,0,0,1-.17,0h-.07a.29.29,0,0,1-.16,0h0c-.07,0-.13.07-.2,0h0l0-.05h-.08a.66.66,0,0,1-.34,0,.22.22,0,0,1-.16,0h0c-.26,0-.53,0-.79,0h0l0,0a3.5,3.5,0,0,0-1,.07l-.71.08a.09.09,0,0,1-.11,0h0c0,.05-.07,0-.11,0s0,0,0,0a.41.41,0,0,1-.29,0c-.05,0-.08.06-.14,0l-.29.06h-.1s0,0-.06,0-.06,0-.07,0,0,0,.07,0h.06s.06-.08.1,0h0c.07-.09.2,0,.29-.09a.58.58,0,0,1,.29,0s0-.06.1,0h0c0-.06.07,0,.1,0h0c0-.05.09,0,.14,0s.17,0,.23-.06.05,0,.08,0a5.2,5.2,0,0,1,.78-.1,4.91,4.91,0,0,1,.53,0c.14-.07.29,0,.43,0h.13a.08.08,0,0,1,.12,0h0a.09.09,0,0,1,.11,0,.17.17,0,0,1,.12,0,.31.31,0,0,1,.21,0h.09c.06-.05.13,0,.2,0a.37.37,0,0,1,.18,0c.08-.05.17,0,.25,0h.09s.09,0,.15,0h.16c.05,0,.11,0,.17,0h.08a.37.37,0,0,1,.21,0,.08.08,0,0,1,.08,0,.14.14,0,0,1,.11,0h.08a.11.11,0,0,1,.11,0h0a.16.16,0,0,1,.15,0h.09s.1,0,.15,0h0a.12.12,0,0,1,.12,0h0a.1.1,0,0,1,.1,0h0c.08,0,.17,0,.25,0h0a.13.13,0,0,1,.12,0h.22s0,0,.07-.05a0,0,0,0,1,0,0l0-.05-.32,0h-.23a3.86,3.86,0,0,1-.76,0s0,0,0,0,0,0,0,0,0,0,0,0c.17,0,.36,0,.53.05.14-.11.29,0,.43,0h0s.05,0,.1,0h0s0,0,.05,0h.13a0,0,0,0,1,.06,0,.1.1,0,0,1,.09,0,.33.33,0,0,1,.24,0s0,0,0,0a.05.05,0,0,1,.06,0h0l.07,0h.21l0,0h.18l0-.09Zm-1.92-1.37s0,0,0,0h0l0,0Zm.19-.66s0,0,.06,0,0,0,0,0a.05.05,0,0,1-.07,0Zm-2.17-.58h0v0ZM6.24,15.39l0,0h0a.06.06,0,0,1,0,0S6.25,15.41,6.24,15.39Zm26.48-2h0a.27.27,0,0,1-.2,0h-.06s0,0,.06,0a.12.12,0,0,1,.1,0,.48.48,0,0,1,.12,0s.12-.07.12,0S32.77,13.43,32.72,13.43Zm3-.22.06,0A0,0,0,0,1,35.76,13.21Z"/><path class="cls-1" d="M2.6,26.66a.11.11,0,0,1-.09,0c0,.05,0,.13-.07.18s.08,0,.12,0h0a0,0,0,0,1,.05,0s0,0,0,0l0,.07.12,0a.08.08,0,0,1,.1,0H3a.08.08,0,0,1,.07,0h0a.1.1,0,0,1,.1,0h.08s.06,0,.1,0,.08,0,.08,0,0,.05-.09,0h0a0,0,0,0,1,0,0s0,0-.06,0H3.19l-.09.05h0c0,.09.07.16.19.13s0,0,0,0l.07,0a.37.37,0,0,1,.27,0h0l.07,0c.09,0,.19,0,.18.1h.12s0,0,.06,0h.08a.05.05,0,0,1,0,0h.08a.58.58,0,0,1,.3,0c-.06.11-.16.08-.24.11s0,.06-.06.07h0a.06.06,0,0,1,0,.06h0l0,.06h.07s0,0,.07,0h0a.09.09,0,0,1,.07,0h0s.08,0,.13,0h0a.06.06,0,0,1,.07,0h0a0,0,0,0,1,0,0h0a.08.08,0,0,1,.09,0h0a.82.82,0,0,1,.27,0h0a.16.16,0,0,1,.15,0h0a.14.14,0,0,1,.11,0h.07a.29.29,0,0,1,.16,0h0a.12.12,0,0,1,.1,0h0s0,0,0,0,.22,0,.33,0a.55.55,0,0,0,.17-.05.05.05,0,0,1,0,0s0,0,0,0,0,0,0,0h0a.09.09,0,0,1,.1,0s.07,0,.09,0l.13.05s.07,0,.1,0h.12a.26.26,0,0,1,.15,0h0a.13.13,0,0,1,.19,0h0s0,0,0,.05h.06s.11,0,.16,0H8a1,1,0,0,1,.49,0,.71.71,0,0,0,.35-.05,1.76,1.76,0,0,1,.41-.06.14.14,0,0,1,.09,0,.08.08,0,0,1,.09,0h0s0,0,0,0h.15a.1.1,0,0,1,.1,0h0s.1,0,.15,0h0c.09-.07.2,0,.29,0h0s.09-.08.12,0,0,0,0,0a.05.05,0,0,1,0,.06h.11s0,0,.07,0h0c.06-.05.13,0,.19,0h0a.06.06,0,0,1,.07,0h0s0,0,.07,0h.13a.1.1,0,0,1,.1,0s.1-.06.14,0h0s0,0,0,0h.17s.06,0,.08,0h0l.6-.08s.06,0,.09,0h0a0,0,0,0,1,.06,0c.05,0,.09-.14.19-.07h.09a.12.12,0,0,1,.1,0s0,0,.07,0H13a.1.1,0,0,1,.1,0h0s.05,0,.06,0,0,0,0,0,.17,0,.27,0,.05,0,.08,0,.05,0,.06,0h0a.26.26,0,0,1,.24,0h0c.06-.07.13,0,.19,0h0s.06,0,.09,0h.05s0,0,0,0h0a0,0,0,0,1,.06,0,.36.36,0,0,1,.25,0h0a1.22,1.22,0,0,1,.6,0,.17.17,0,0,1,.12,0,2.44,2.44,0,0,1,.38,0,0,0,0,0,1,0,0h.19l.09,0s0,0,.05,0,.08,0,.09.06h.07a.09.09,0,0,1,.11,0h.07a.29.29,0,0,1,.16,0h0a.33.33,0,0,1,.24,0h0c0-.05.1,0,.15,0s.13,0,.19,0,0,0,.06,0h.07c.09-.09.12,0,.16,0h0l.06,0a.17.17,0,0,1,.15,0h.08s.06,0,.1,0h0s0,0,0,0a.16.16,0,0,1,.12,0,.1.1,0,0,1,.15,0h0c.05,0,.11,0,.16,0h0l.05,0h0c.05-.05.1-.06.14,0s.05,0,.08,0,0,0,.06,0h.05s0,0,0,0,.06,0,.09,0,.05-.05.08,0,.05,0,.06,0h0l.06,0h0s0-.07.08-.07h0s.06,0,.08,0,0,.06.08.06a.19.19,0,0,1,.18-.11c.42,0,.85,0,1.28,0s.59-.06.88-.08a.41.41,0,0,1,.22,0s.09,0,.11,0,.34,0,.51,0,.27,0,.41,0a9.75,9.75,0,0,0,1.08,0,.9.9,0,0,1,.36,0c.1,0,.15-.05.23,0h.09c.42,0,.84.06,1.25,0a11.45,11.45,0,0,1,1.31,0c.26,0,.52,0,.78,0a2.84,2.84,0,0,0,.5-.06,5,5,0,0,1,1,0c.07,0,.14,0,.19,0a.23.23,0,0,0,.18,0h1.33c-.05.12-.05.11-.16.13a11,11,0,0,1-1.15,0,3.11,3.11,0,0,0-.8.08A1.22,1.22,0,0,1,29,27a3.05,3.05,0,0,1-.8-.05.92.92,0,0,1-.46.06c-.46,0-.91.06-1.36,0a6,6,0,0,0-.74.06c-.1,0-.21.06-.28-.07s-.07,0-.11,0-.12,0-.14-.07-.07,0-.11,0c-.46,0-.92.07-1.38.07s-1.12.07-1.69.1a.79.79,0,0,1-.22,0,.21.21,0,0,0-.24,0c-.09.07-.16,0-.24,0s-.08.16-.21.12l-.05,0c-.09-.07-.15-.06-.19.05s-.05.05-.09,0-.11-.12-.2-.11a1.87,1.87,0,0,1-.4.07c-.1,0-.1.07-.14.11v.05a.62.62,0,0,0,.27,0,0,0,0,0,1,0,0s0,0,0,0l0,0h.09s.09,0,.14,0,.1-.1.19-.06h0c.06-.05.12,0,.19,0h0a.51.51,0,0,1,.45,0s.09,0,.14,0a6.4,6.4,0,0,1,.63-.14c.07,0,.14,0,.22.06h.08a.16.16,0,0,1,.16,0,2.66,2.66,0,0,0,.47.11v0h0s.05,0,.07,0h0c.09-.06.14,0,.14.06l0,.05.14,0h.06a.5.5,0,0,1,.21,0h.09c.06,0,.12,0,.19,0h0a0,0,0,0,1,0,0h.08s0,0,.05,0,0,0,0,.05h0l.05,0h.07a.49.49,0,0,1,.24,0s.07,0,.1,0h0a.33.33,0,0,1,.29,0s0,0,0,0,.08,0,.13,0,0,0,.05,0h0c.12-.08.21.05.32.05s.08,0,.12,0,0,0,.07,0h0c.05-.05.11,0,.16,0h0a.4.4,0,0,1,.3,0h0s.09,0,.15,0h0c.1-.09.14,0,.19.06h0l.06,0a0,0,0,0,1,0,0H27s0,0,.06,0h.08a.25.25,0,0,1,.19,0c.11-.05.22,0,.32,0h.08c.06-.06.14,0,.2,0h0l.05,0h0l-.05.05a.06.06,0,0,1,.05-.05c0-.06.09,0,.14,0a.06.06,0,0,1,.07,0c.05-.05.08,0,.12,0s.24,0,.36,0h.13s0-.06.06,0,.18,0,.27,0h0c0-.05,0,0,0,0s.2.06.31,0a.09.09,0,0,1,.14,0,.25.25,0,0,1,.2.06h0a2.83,2.83,0,0,1,.71,0h.13s0,0,.05,0a.72.72,0,0,1,.25,0s0,0,.07,0h.13l.09,0h.18s.05-.05.09,0,.13,0,.19,0h0c.07-.05.14,0,.2,0a.32.32,0,0,1,.17,0s0,0,.07,0h0a.07.07,0,0,1,.11,0h0a.12.12,0,0,1,.14,0h0l.07,0a0,0,0,0,1,0,0s0-.05.05-.05a.14.14,0,0,1,.14,0h0a.14.14,0,0,1,.15,0h0a.53.53,0,0,1,.25,0h.16a.43.43,0,0,1,.16,0s.06,0,.1,0,.09,0,.14,0h0a.07.07,0,0,1,.06,0s.09,0,.13,0,.16,0,.24,0h0c.13,0,.25,0,.38,0h.12a.65.65,0,0,1,.24,0s0,0,0,0h.09a.9.9,0,0,1,.23,0h.07c.08,0,.17,0,.25,0h0s0,0,.06,0h0a.51.51,0,0,1,.3,0,.14.14,0,0,1,.09,0,.11.11,0,0,1,.09.05h0a.09.09,0,0,1,.1,0,.1.1,0,0,1,.09,0s.06,0,.1,0l0,0h0a.12.12,0,0,1,.1,0h.08c0-.05.1,0,.15,0s.09,0,.14,0h0c.06,0,.13,0,.19,0h.09a.69.69,0,0,1,.32,0l.05-.05,0,0v-.09s0,0,0,0l-.08-.07h-.07a.29.29,0,0,1-.16,0,.28.28,0,0,1-.18,0l0,0h-.35a.5.5,0,0,1-.25-.08h0s0,0,0,0h0a.32.32,0,0,1-.17,0,.07.07,0,0,1-.11,0l-.09,0H36c-.08,0-.16.05-.23,0l0,0h-.24a.15.15,0,0,1-.18,0h0l-.2,0a.17.17,0,0,1-.17,0s0-.06,0-.06h.11a.43.43,0,0,1,.16,0h0s.1,0,.15,0h.07a.26.26,0,0,1,.21,0h.07c.08,0,.17-.06.25,0h0l0,0a3.12,3.12,0,0,1,.44.05.25.25,0,0,1,.19,0,.14.14,0,0,1,.09,0,.13.13,0,0,1,.16,0h0c.13,0,.25,0,.34.08l.13,0h.15c.12-.06.23,0,.35,0a.08.08,0,0,1,.08,0,.12.12,0,0,1,.15,0h0a.22.22,0,0,1,.14,0,.19.19,0,0,1,.13,0c.08-.07.16,0,.24,0s.15,0,.23,0a.27.27,0,0,1,.23,0h0s.07,0,.11,0h.12s.07,0,.12,0h0c0-.05.09,0,.14,0h0c.08,0,.16,0,.23,0h0a.15.15,0,0,1,.16,0,.08.08,0,0,1,.08,0,.09.09,0,0,1,.1,0h.05s0,0,0,0h0s0,0,0,0h.07c0-.06.1,0,.16,0s0,0,0,0h.14a.12.12,0,0,1,.14,0h.13a0,0,0,0,1,.06,0s.09,0,.13,0h0c.08,0,.16,0,.24,0h0a.05.05,0,0,1,0,0h0s.05,0,.08,0a.07.07,0,0,1,.06,0,0,0,0,0,1,0,0l0-.05h0a1.61,1.61,0,0,1-.38,0h-.08c-.06.06-.13,0-.19,0a0,0,0,0,1,0,0,.13.13,0,0,1-.15,0h-.06c-.07,0-.14,0-.21,0h-.09s0,0,0,0a.48.48,0,0,1-.29,0c0,.06-.12,0-.18,0h0c0,.05-.12,0-.18,0a.5.5,0,0,1-.27,0l-.18,0h0c-.08.07-.16,0-.24,0a.33.33,0,0,1-.26,0,.45.45,0,0,1,.27-.05h0c.07,0,.15,0,.22,0h0l.06,0v0l-.06-.05h0a.24.24,0,0,1-.23,0h0s-.12,0-.16-.05,0,0,0,0l-.08,0a.1.1,0,0,1-.09,0c-.06,0,0-.05,0-.08h-.07a.21.21,0,0,1-.15,0c-.05,0-.09,0-.13,0l0,0h-.2s-.07,0-.09,0a0,0,0,0,1,0-.07,0,0,0,0,1,0,0s0,0,.07,0a.81.81,0,0,1,.31,0s.1,0,.15,0,0-.11.1-.12h0a.22.22,0,0,1,.16,0s.05,0,.08,0,.1,0,.15,0h.08a.1.1,0,0,1,.06-.05h0c-.05,0-.12,0-.17,0h-.05l-.08,0h0a.14.14,0,0,1-.15,0s-.06,0-.09,0-.14,0-.21-.06h-.24a.06.06,0,0,1-.06,0h-.06l0,0s0,0,.05,0h.07v0h0s-.07,0-.07,0,0-.05.08-.05h.08s0,0,0,0h0s0,0,.05,0h.09a.23.23,0,0,1,.2,0c.07,0,.11.05.17.06a.06.06,0,0,1,.07,0s0,0,.07,0l0,0-.05-.06,0,0,0,0s0,0,0,0-.11,0-.11-.07h0l-.22,0h-.13s-.1,0-.15,0a.1.1,0,0,1-.09,0c-.08.06-.12,0-.15,0H38a.18.18,0,0,1,.2-.05h.07s0,0,.07,0,0,0,0,0,.07,0,.12,0h0a.22.22,0,0,1,.16,0h.09a.05.05,0,0,1,.05,0h0V25h0l-.13,0h-.08c-.06,0-.13,0-.2,0a.06.06,0,0,1-.08,0c-.08.05-.18,0-.25.06s0,0,0,0-.16,0-.24,0h0s0,0-.05,0h0a.18.18,0,0,1-.09.06s0,0,0,0h0s0,0-.07,0a.24.24,0,0,1-.12,0,.22.22,0,0,1-.16,0h-.09a.14.14,0,0,1-.14,0h-.08c-.06,0-.11,0-.15,0h-.17c-.09,0-.19,0-.28,0a0,0,0,0,1,0,0,.1.1,0,0,1-.1,0,.12.12,0,0,1-.1,0s0,0-.05-.05a0,0,0,0,1,0,0c-.05,0-.1.06-.14,0H35.7a.07.07,0,0,1-.06,0l-.13,0c-.06,0-.08,0,0-.08v0a1.88,1.88,0,0,0-.41,0s-.08,0-.09,0,0-.07.09-.07a2.62,2.62,0,0,1,.56,0c0-.06.12,0,.18,0s.06,0,.09,0H36s0,0,.06,0l.08,0h0a0,0,0,0,1,.07,0l.08,0s0,0,0,0h0a.24.24,0,0,1,.28,0l0,0c0-.08.08,0,.13,0s.12,0,.18,0,0,0,0,0h.12s.06,0,.07,0h0a.19.19,0,0,1,.19,0,.1.1,0,0,1,.09,0h.08l0,0s0,0,0-.05a.14.14,0,0,1,.11,0h0a.23.23,0,0,1,.2,0h.07a.11.11,0,0,1,.11,0h0a.21.21,0,0,1,.19,0h.08a.45.45,0,0,1,.2,0h0a.06.06,0,0,1,.05-.05,0,0,0,0,1,0,0l0-.05h-.06a.53.53,0,0,1-.25,0,.11.11,0,0,1-.08,0,.18.18,0,0,1-.2,0c0,.05-.06,0-.1,0h0s0,0,0,0l0,0h-.05c-.07.05-.12,0-.18,0h0a.44.44,0,0,1-.28,0,.11.11,0,0,1,.14-.08h0a.11.11,0,0,1,.11,0l0,0h0s.07,0,.11,0h0s.06,0,.1,0H38a.22.22,0,0,1,.16,0,.33.33,0,0,0,.17,0,.14.14,0,0,1,.11,0h.08a.11.11,0,0,1,.11,0h.11l.13-.06h0a.09.09,0,0,1,.11,0h.1a.19.19,0,0,1,.13,0h0s0,0,.06,0h.06l.07,0s0,0,.05,0l-.05,0,.05,0,0,0a0,0,0,0,1,0,0h0a.09.09,0,0,1,0-.05h-.13s-.05,0-.05,0a0,0,0,0,1,0,0,.17.17,0,0,0-.19,0,.2.2,0,0,1-.22,0c.06-.12.19-.07.29-.11s0,0,0,0a.12.12,0,0,1,0-.05s0-.08,0-.09l-.27,0h-.08a.25.25,0,0,1-.19,0h0a.29.29,0,0,1-.16,0s0,0,0,0-.13.06-.18,0h0l-.07,0h0l-.07,0h0a.37.37,0,0,1-.18,0l-.29,0h-.07c.14-.07.28,0,.41-.05h0l.06,0c-.08-.08-.19,0-.28-.07l0,0h0a.69.69,0,0,1-.25,0h-.08a.31.31,0,0,1-.19,0h0l-.38,0,.26-.05h.06c0-.05.11,0,.16,0h.07a.46.46,0,0,1,.26,0h0a.11.11,0,0,1,.12,0h.25c.06,0,.14,0,.21,0h0l.05-.05a0,0,0,0,1,0,0l-.18,0a.15.15,0,0,1-.09,0l-.27,0s0,0,0,0-.14.05-.2,0h0c-.06,0-.12,0-.18,0h-.08a.2.2,0,0,1-.15,0h0a.16.16,0,0,1-.15,0h0s-.08,0-.12,0h-.23a0,0,0,0,1,0,0l-.32,0s0,0,0,0h0a.33.33,0,0,1-.24,0h-.13a.41.41,0,0,1-.19,0h0a.08.08,0,0,1,0,.05h0c-.06,0-.1,0-.15,0h0s0,0,0,0a.22.22,0,0,1-.12,0h-.09a1.28,1.28,0,0,1-.55,0H34.4a0,0,0,0,1,0,0s-.09,0-.14,0,0,0-.05,0l-.13,0H34a.23.23,0,0,1-.2,0,0,0,0,0,1,0,0h0a.29.29,0,0,1-.16,0h0a.14.14,0,0,1-.14,0H33.2s0,0-.06,0h0a5,5,0,0,1-.54,0c0,.06-.06.08-.11,0s-.14,0-.18-.06l-.44-.05s-.05,0-.06,0h0a.06.06,0,0,1-.06,0,0,0,0,0,1-.05,0s-.05,0-.1,0h-.08c-.06.05-.09,0-.14,0h0c0,.06-.08,0-.11,0h-.09a.13.13,0,0,1-.19,0h0c-.05.06-.13,0-.19,0h0c0,.11-.11.09-.19.09a1.34,1.34,0,0,0-.4,0,.11.11,0,0,1,0,.07c0,.05-.08,0-.13,0s-.18,0-.27,0,0,0,0,0a2,2,0,0,1-.6,0h0s-.06,0-.09,0h0c-.24,0-.49,0-.74,0a1.57,1.57,0,0,1-.3-.05c-.07.06-.15,0-.23,0s0,.07-.06.07h-.08c-.08.06-.16,0-.24,0h0a.24.24,0,0,1-.23,0h0a0,0,0,0,1,0,0,.05.05,0,0,1-.08,0h0a.08.08,0,0,1-.08,0c0-.09-.13-.1-.21-.11a.86.86,0,0,1-.28,0l-.27,0h-.07a.14.14,0,0,1-.2,0l-.13,0h-.05s-.09,0-.14,0h0a.23.23,0,0,1-.12,0s0,0-.05,0a.12.12,0,0,1-.1,0h0a.08.08,0,0,1-.09,0s-.09,0-.14,0h-.16a.31.31,0,0,1-.16,0,.16.16,0,0,1-.1,0,.11.11,0,0,1-.09-.05h0a.14.14,0,0,1-.19,0s0,0,0,0h-.05a0,0,0,0,1,0,0c-.15.06-.29,0-.43,0a.28.28,0,0,1-.18,0l-.13,0h-.09c-.11,0-.15-.14-.27-.11h-.07a.34.34,0,0,1-.2,0H22.5a.42.42,0,0,1-.25,0,0,0,0,0,1,0,0,0,0,0,0,1-.07,0h0c-.06,0-.13,0-.2,0h0a.3.3,0,0,1-.16,0h0c-.11.06-.22,0-.33,0h0a.25.25,0,0,1-.24,0H21a.3.3,0,0,1-.29,0h-.16a.22.22,0,0,1-.16,0,.2.2,0,0,1-.13,0,.45.45,0,0,1-.28,0s0,0,0,0a0,0,0,0,1-.07,0h0a.16.16,0,0,1-.15,0h-.17c-.06,0-.13,0-.19,0a.09.09,0,0,1-.1,0,.17.17,0,0,1-.12,0,.39.39,0,0,1-.24,0,.32.32,0,0,1-.17,0l-.09,0c-.35,0-.7,0-1,0a1.05,1.05,0,0,0-.31,0,.87.87,0,0,1-.36,0c-.05.06-.1.08-.17,0a.26.26,0,0,0-.15,0,.46.46,0,0,1-.47,0,.11.11,0,0,0-.08,0,7.53,7.53,0,0,1-.83.07,6.51,6.51,0,0,1-.77,0c-.07,0-.13-.05-.2-.05a0,0,0,0,1,0,0,.11.11,0,0,1-.11,0H14a.25.25,0,0,1-.19,0c-.09.05-.19,0-.28,0a0,0,0,0,1,0,0,.18.18,0,0,1-.16,0,0,0,0,0,1,0,0h-.09a0,0,0,0,1,0,0h0a.19.19,0,0,1-.13,0,.1.1,0,0,1-.09,0h-.32a0,0,0,0,1,0,0,.52.52,0,0,1-.39,0h0l-.09,0s0,0-.05,0h0l-.07,0a.05.05,0,0,1-.08,0,.11.11,0,0,1-.11,0,.08.08,0,0,1-.09,0h-.05s-.09,0-.14,0-.09,0-.14,0a.14.14,0,0,1-.14,0s0,0,0,0a.14.14,0,0,1-.11,0c-.07.05-.16,0-.23,0s-.19,0-.28,0a.15.15,0,0,1-.18,0c.06,0,.12-.07.18-.05s.08-.07.06-.13l-.13,0h-.07a.23.23,0,0,1-.16,0s0,0,0,0a.16.16,0,0,1-.15,0h0a.22.22,0,0,1-.14,0,0,0,0,0,1,0,0h0a.33.33,0,0,1-.17,0s0,0,0,0a.16.16,0,0,1-.12,0H9.48a.12.12,0,0,1-.1,0,0,0,0,0,1,0,0s-.1,0-.15,0a.17.17,0,0,1-.14,0H9a0,0,0,0,1-.06,0H8.88a.05.05,0,0,1-.07,0h0a.33.33,0,0,1-.14,0s0,0-.06,0H8.49c0,.05-.07.05-.09,0s0,0,0,0h0l0,.21.05.06h.08a.09.09,0,0,1,.09,0h0a.1.1,0,0,1,.1,0h0a.08.08,0,0,1,.1,0h.08a.11.11,0,0,1,.11,0h.13a.3.3,0,0,1,.16,0s.07,0,.06,0,0,.05-.08,0H9.21a.11.11,0,0,1-.11,0h0l0,0a.17.17,0,0,1-.12,0h0a.12.12,0,0,1-.1,0,.05.05,0,0,1,0,0h0a.06.06,0,0,1-.07,0H8.55a.08.08,0,0,1-.1,0H8.38a.1.1,0,0,1-.07,0H8.24a.17.17,0,0,1-.12,0l-.1,0s0,0,0,0H7.85s-.07,0-.11,0h0s0,0-.07,0H7.56a.09.09,0,0,1-.1,0,0,0,0,0,1,0,0,.09.09,0,0,1-.11,0h0a.06.06,0,0,1-.07,0v0h0s0,0-.07,0H7.07a.17.17,0,0,1-.12,0,0,0,0,0,1,0,0s-.06,0-.09,0H6.74a.05.05,0,0,1-.07,0h0a.12.12,0,0,1-.1,0,0,0,0,0,1,0,0s0,0-.06,0h0c-.15.08-.32.1-.48.17s-.06,0-.08,0,0-.07,0-.08a1.24,1.24,0,0,1,.42-.15,0,0,0,0,1,0,0h0a.15.15,0,0,1,.09,0,.09.09,0,0,1,.1,0l0,0,.06-.09c0-.07.12,0,.19-.06h0a.09.09,0,0,1,.09,0H7l0,0H7s0,0,.05,0h0a.1.1,0,0,1,.1,0h0a.06.06,0,0,1,.07,0h0a.09.09,0,0,1,.06,0h0l0,0c0-.05-.06-.05-.09-.06H7.24a0,0,0,0,1-.06,0h0s0,0-.06,0h0a.11.11,0,0,1-.11,0,.05.05,0,0,1,0,0s0,0,0,0a0,0,0,0,1-.06,0H6.73a.06.06,0,0,1-.07,0h0a.07.07,0,0,1-.09,0,0,0,0,0,1,0,0,0,0,0,0,1-.06,0s0,0,0,0a.12.12,0,0,1-.1,0h0a0,0,0,0,1-.06,0s0,0,0,0,0,0-.05,0h0a.1.1,0,0,1-.1,0H6a.12.12,0,0,1-.1,0h0l-.06,0h0s0,0,0,0h0s0,.05-.08.05,0,0-.06,0a0,0,0,0,1,0,0,.05.05,0,0,1-.06,0s0,0-.09,0a0,0,0,0,1,0,0s0,0-.07,0H5.21s-.08,0-.12,0h0a.34.34,0,0,1-.22.05h0a.18.18,0,0,1-.19.07h0a.08.08,0,0,1-.08.05s-.1,0-.14,0-.09.07-.16.07a0,0,0,0,1,0,0h0s-.09,0-.13,0,0,.07-.06,0H4l-.07,0H4c0,.05-.06,0-.09,0s0,0,0,0a.14.14,0,0,1-.11,0l-.1,0h0l-.23.16s0,.1-.07.12h0s0,0-.05,0a.05.05,0,0,1,0,0,.05.05,0,0,1-.05,0s0,.08-.06.09,0,0,0,0l0,.08a.15.15,0,0,1,0,.13.05.05,0,0,1,0,0s0,0,0,0,0,0,0,0,0,0,0,0,0,.09,0,.12a0,0,0,0,1,0,0h0s0,0,0,0h0s0,.08-.06.08H3a.09.09,0,0,1-.09,0h0l0,0,0,.08s0,0,0,0h0a0,0,0,0,1,0,0s0,0,0,0S2.64,26.66,2.6,26.66Zm34.74-2.95h0v0s0,0,0,0Zm-.54-.24s.09,0,.09,0-.06,0-.1,0,0,0,0,0S36.77,23.46,36.8,23.47Zm-2.18,3.22a.42.42,0,0,1,.22,0c-.05.06-.12,0-.17,0h0c-.07,0-.12,0-.21-.06Zm-2.37,0,0,0,0,0,0,0Zm-.44,0a.05.05,0,0,1,.05,0s0,0-.07,0l0,0S31.78,26.69,31.81,26.68Zm-.32.11,0,0,0,0s0,0,0,0Zm-19.66-.92s.06-.05.09,0,0,.07,0,.07h0s-.07,0-.08,0S11.8,25.88,11.83,25.87Zm-.36,0,.06,0s0,0-.06,0-.07,0-.07,0S11.45,25.87,11.47,25.88ZM5.69,24.81s0,0,0,0,0,0-.06,0,0,0,0,0S5.66,24.8,5.69,24.81Zm-.32,2s0,0,0,0a0,0,0,0,1-.06,0s0,0,0-.05S5.35,26.79,5.37,26.81Zm.11-1.91,0,0s0,0,0,0,0,0,0,0S5.48,24.93,5.48,24.9Z"/></g></g></g></g></svg>