<svg xmlns="http://www.w3.org/2000/svg" width="29.083" height="22.374" viewBox="0 0 29.083 22.374"><defs><style>.cls-1{fill:#fff;}.cls-2{fill:none;stroke:#fff;stroke-linecap:round;stroke-miterlimit:10;stroke-width:1.134px;}</style></defs><title>mute</title><g id="Layer_2" data-name="Layer 2"><g id="INICIO"><g id="AUDIO"><path class="cls-1" d="M14.942,1.006a2.507,2.507,0,0,1,.026.455v19.3c0,.085.007.174.015.263v0c-.017.038-.034.076-.051.116s-.055.125-.086.192a.315.315,0,0,1-.073-.034l-.548-.45C12.73,19.622,11.186,18.354,9.8,17a5.769,5.769,0,0,0-4.209-1.861,6.642,6.642,0,0,0-.723.041,12.142,12.142,0,0,1-1.337.063c-.4,0-.806-.012-1.21-.024-.337-.009-.674-.019-1.01-.023a1.963,1.963,0,0,1-.289-.02,1.815,1.815,0,0,1-.018-.281q-.012-3.711,0-7.421A1.849,1.849,0,0,1,1.024,7.2a2.03,2.03,0,0,1,.292-.019H3.2l1.085,0c.843,0,1.686,0,2.53-.022a2.794,2.794,0,0,0,1.666-.623c1.728-1.459,3.461-2.965,5.137-4.42l.97-.842a2.41,2.41,0,0,1,.352-.27m-.014-1a1.592,1.592,0,0,0-.992.518c-2.027,1.758-4.049,3.523-6.1,5.254A1.8,1.8,0,0,1,6.8,6.161c-.836.018-1.672.022-2.508.022-.722,0-1.444,0-2.166,0H1.312c-.973,0-1.3.325-1.306,1.287q-.012,3.714,0,7.428c0,.967.325,1.288,1.3,1.3.743.008,1.489.047,2.231.047a13.385,13.385,0,0,0,1.446-.069,5.676,5.676,0,0,1,.614-.035A4.811,4.811,0,0,1,9.1,17.712c1.583,1.551,3.32,2.948,5.034,4.359a1.536,1.536,0,0,0,.887.3.72.72,0,0,0,.281-.049c.307-.129.471-.645.648-1.014a1.4,1.4,0,0,0,.015-.55v-9.51q0-4.895,0-9.788c0-.544-.011-1.079-.609-1.356a1.013,1.013,0,0,0-.431-.1Z"/><path class="cls-2" d="M18.938,6.217A6.625,6.625,0,0,1,21.2,11.276a6.692,6.692,0,0,1-2.342,4.88"/><path class="cls-2" d="M21.164,3.431a10.519,10.519,0,0,1,3.6,8.077,10.046,10.046,0,0,1-3.6,7.435"/><path class="cls-2" d="M23.553.567A13.968,13.968,0,0,1,28.5,11.742c-.4,7.058-4.94,10.065-4.94,10.065"/></g></g></g></svg>