<svg xmlns="http://www.w3.org/2000/svg" width="52.939" height="12.002" viewBox="0 0 52.939 12.002"><title>next-project</title><g id="Layer_2" data-name="Layer 2"><g id="PROYECTO_EC_CONTENIDO" data-name="PROYECTO EC CONTENIDO"><path d="M46.583,1.911a.25.25,0,0,1-.037.181.365.365,0,0,0-.032.2c0,.065.014.13.01.195a.482.482,0,0,0,.036.26.417.417,0,0,1-.011.248.2.2,0,0,0,.006.183c.041.072.008.19,0,.287a.571.571,0,0,0,.019.268.946.946,0,0,1,.017.3.025.025,0,0,0,.017.023,1.883,1.883,0,0,1,.293.116.189.189,0,0,1,.1.25.023.023,0,0,0,.025.032.354.354,0,0,1,.243.064.57.57,0,0,0,.189.078.382.382,0,0,1,.322.254.748.748,0,0,0,.04.071c.08.026.142.045.2.067.1.034.194.072.293.1a.1.1,0,0,0,.08-.013c.156-.1.278-.018.4.071a2.219,2.219,0,0,0,.228.148c.161.089.32.182.488.255a2.974,2.974,0,0,0,.479.155.341.341,0,0,1,.172.106.745.745,0,0,1,.136.163l-.929-.349c0,.08.056.095.1.114.191.075.382.151.573.224.144.055.29.107.436.159a.245.245,0,0,0,.253-.007.026.026,0,0,1,.028,0l.123.13c.064-.028.154-.1.162.058,0,.015.03.039.049.042a.485.485,0,0,1,.306.212.616.616,0,0,0,.2.143,1.35,1.35,0,0,0,.274.109.418.418,0,0,1,.3.21.124.124,0,0,0,.087.043.578.578,0,0,1,.455.271,1.143,1.143,0,0,0,.225.212.025.025,0,0,1,.007.027.724.724,0,0,1-.252.37c-.155.109-.3.231-.448.351a.2.2,0,0,0-.073.1.151.151,0,0,1-.174.133A.26.26,0,0,0,51.8,8.6c-.03.017-.063.047-.092.045-.169-.013-.254.108-.353.21a.8.8,0,0,1-.148.144,1.174,1.174,0,0,1-.25.106c-.124.039-.249.054-.326.194a.3.3,0,0,1-.241.175c-.017,0-.035.034-.048.055-.061.094-.1.2-.256.181-.042-.006-.1.038-.137.067-.138.1-.272.2-.408.294-.005,0-.008.009-.013.011-.327.135-.564.415-.89.551a.556.556,0,0,1-.128.052.67.67,0,0,0-.348.193c-.17.138-.34.277-.514.409a.325.325,0,0,1-.35.054.025.025,0,0,0-.033.013c-.06.155-.136.289-.321.308a.078.078,0,0,0-.048.029c-.124.2-.346.214-.536.29a.962.962,0,0,1-.427,0,3.136,3.136,0,0,1-.359-.052.232.232,0,0,1-.128-.046.366.366,0,0,0-.286-.115c-.009-.056-.017-.106-.024-.156s0-.1-.019-.117c-.158-.141-.031-.3-.028-.446a3.824,3.824,0,0,1,.062-.391.308.308,0,0,0-.022-.1c0-.011-.016-.021-.014-.03.038-.2.008-.409.061-.6a1.021,1.021,0,0,0,.073-.385,1.525,1.525,0,0,0-.065-.592c-.012-.021,0-.056.007-.085.015-.109.076-.211,0-.33-.029-.044.017-.143.036-.215s.041-.125.066-.2a.025.025,0,0,0-.02-.033h0a.16.16,0,0,1-.132-.241,1.253,1.253,0,0,0,.1-.722c-.014-.12-.028-.24-.045-.36a.542.542,0,0,1,.03-.371.523.523,0,0,0,.028-.22.092.092,0,0,0-.032-.073c-.111-.049-.118-.152-.133-.246a.606.606,0,0,1,.03-.391c.044-.085.077-.176.116-.268a.024.024,0,0,0-.009-.03.673.673,0,0,0-.394-.134,4.892,4.892,0,0,1-.727-.038,1.8,1.8,0,0,1-.525-.168,1.726,1.726,0,0,1-.324-.273c-.008-.008-.021-.019-.019-.026a1.209,1.209,0,0,0-.067-.509c.076-.153-.116-.161.1-.258-.123-.068.178-.084.233-.224a.024.024,0,0,1,.02-.016,1.429,1.429,0,0,1,.717.109c.093.031.192.042.285.07.22.065.256.108.244.324a.023.023,0,0,0,.02.025c.16.024.31.137.492.052a.032.032,0,0,0,.014-.016.628.628,0,0,0,.031-.351.715.715,0,0,1-.014-.351c.024-.086-.024-.19-.016-.284a.621.621,0,0,0-.005-.3c-.008-.019,0-.046.007-.068.024-.167.009-.338.025-.5a4.749,4.749,0,0,1,.059-.982,1.839,1.839,0,0,0,.029-.309c.012-.1.036-.2.049-.3A1.7,1.7,0,0,0,45.478.4c0-.126-.008-.253-.013-.379L45.5,0c.024.02.06.035.068.06a.3.3,0,0,1,.008.12,2.2,2.2,0,0,0,.112.647c.094-.2,0-.412.083-.6l.041,0c.007.091.017.184.02.277s-.012.163,0,.242A1.406,1.406,0,0,0,45.9.959c.039.127.036.26.067.39a1.035,1.035,0,0,1-.031.329l.105.041-.013.31a1.393,1.393,0,0,0,.09-.642c.036.028.06.037.068.054.027.058-.019.127.043.189.031.031.017.112.014.169s-.019.137-.022.205a.214.214,0,0,0,.1.223.315.315,0,0,1-.025-.075c0-.21.049-.251.3-.241ZM47.89,9.265h0c.035.068-.017.109-.054.148a1.7,1.7,0,0,0-.226.232.352.352,0,0,1-.143.134c-.175.093-.351.183-.524.278-.02.011-.029.042-.042.064a.41.41,0,0,0-.336.221.589.589,0,0,0,.339-.176c.007-.007,0-.032-.008-.049l.1.059-.136.144c.13.032.194-.047.268-.094.144-.093.28-.2.428-.281a.207.207,0,0,1,.207-.036c.076.033.124-.036.11-.144.058-.028.118-.055.177-.087.156-.084.343-.1.493-.182a2.592,2.592,0,0,0,.937-.592c.005-.006.02,0,.028-.009l.324-.166,0-.136.118.1.062-.272.028.007-.009.182.326-.161c-.05-.072-.134-.133-.039-.2a1.551,1.551,0,0,1,.256-.115c-.062.038-.122.081-.188.113a.087.087,0,0,0-.056.106c.276-.08.369-.128.414-.222l-.174.006c.01-.02.016-.049.033-.059.217-.121.437-.238.655-.358.1-.055.2-.114.3-.174-.092-.045-.168-.084-.245-.121a2.651,2.651,0,0,0-.8-.348.347.347,0,0,1-.1-.037c-.2-.089-.4-.182-.6-.265a1.062,1.062,0,0,0-.2-.029c-.111-.022-.213.04-.335,0a1.2,1.2,0,0,1-.664-.527c-.136,0-.274.013-.412.013-.12,0-.148-.028-.194-.143a.144.144,0,0,0-.073-.083c-.147-.046-.3-.081-.446-.123a.814.814,0,0,1-.145-.054c-.179-.092-.355-.19-.535-.28a1.147,1.147,0,0,0-.226-.087c-.078-.021-.123-.124-.227-.088a.073.073,0,0,1-.057-.1.208.208,0,0,0-.138-.28c0-.234,0-.234-.1-.269a.238.238,0,0,0-.01.068,3.142,3.142,0,0,1-.023.8c-.017.119-.026.24-.037.359-.005.063.006.117.1.114l.021-.412c.007.113.1.139.169.164.007.182.011.348.019.513a.168.168,0,0,0,.031.1c.017.018.056.015.095.023l.019.526c.213.083.223.094.16.292a1.284,1.284,0,0,0-.088.437c0,.148.01.3.015.445a1.588,1.588,0,0,1,0,.169c-.021.227-.059.454-.062.681a1.881,1.881,0,0,1-.052.479c-.044.164-.08.33-.117.5-.019.083-.031.169-.05.271a.5.5,0,0,0,.318-.153.913.913,0,0,1,.367-.252,1.4,1.4,0,0,0,.3-.159,1.947,1.947,0,0,1,.529-.35A.442.442,0,0,0,47.89,9.265ZM45.576,1.453c.037-.087.147.007.181-.111l-.13-.018.1-.076-.077-.039c.025-.047.064-.088.06-.125S45.662,1,45.638.956L45.7.93,45.58.875A.739.739,0,0,0,45.576,1.453Zm3.182,8.211c.012-.063.025-.118-.053-.138-.013,0-.043.02-.047.036C48.644,9.622,48.667,9.661,48.758,9.664Z"/><path d="M44.415,7.8l0-.03a.169.169,0,0,0-.032,0A2.178,2.178,0,0,1,44,7.777c.095-.047.219.012.274-.085h0c0-.031,0-.063,0-.095,0-.163-.013-.177-.217-.179l-.049,0c-.045,0-.05-.031-.052-.056s.034-.026.059-.03c.051-.007.109.019.153-.022l.03-.058h0c-.151-.011-.3-.018-.454-.033-.091-.009-.206.01-.223-.111,0-.028-.054-.026-.084-.035-.051-.015-.081-.033-.072-.086s-.034-.094-.108-.11a1.746,1.746,0,0,0-.483-.042.281.281,0,0,1-.207-.053.211.211,0,0,0-.175-.048c-.453,0-.905.051-1.358.033-.127,0-.255.013-.382.011q-.38-.006-.757.018c-.016.027-.052.054,0,.081h0l.259-.006h0a.287.287,0,0,1,.166.009c-.055.044-.111.014-.165.011A1.59,1.59,0,0,1,39.9,6.9l-.2,0h0a1,1,0,0,1-.262.006.359.359,0,0,1,.256-.035c.016-.022.043-.041.028-.071-.231,0-.463,0-.693.012-.339.018-.676.006-1.013,0h-.438c-.067,0-.126.008-.109.082-.1.031-.167-.038-.221-.08a.14.14,0,0,0-.1-.045l-.165,0c-.323,0-.641.049-.961.085a.445.445,0,0,1-.226,0,.481.481,0,0,0-.256-.028c-.116.011-.229.009-.344.011a2.666,2.666,0,0,1-.391-.026A6.751,6.751,0,0,1,34,6.671l-.065,0a.117.117,0,0,1-.1.006,1.806,1.806,0,0,1-.244-.015h0a.03.03,0,0,1-.039,0,.8.8,0,0,1-.363.012h0l-.006.006-.01,0a.1.1,0,0,1-.1,0l-.032,0a.041.041,0,0,1-.047-.02h0c-.063,0-.125.035-.188,0l-.059.007c-.018.024-.035.018-.051,0h0l-.052,0c-.045.054-.089-.008-.134,0h0c-.046.042-.088-.016-.132,0l-.035,0a.037.037,0,0,1-.043-.019.01.01,0,0,1-.016,0,.047.047,0,0,1-.074,0h0a.2.2,0,0,1-.135-.019c-.066-.016-.141.017-.2-.022-.021,0-.041.023-.062,0l-.163.006h0a.066.066,0,0,1-.066.025.027.027,0,0,1-.026.007.048.048,0,0,1-.033.033c-.05.1-.132.046-.206.029h0a.158.158,0,0,1-.115-.021h0l-.047.027a.031.031,0,0,1-.029.033h0c-.084.045-.181.011-.269.032-.05.011-.1.036-.15.009-.012.019-.019.041-.048.047a.053.053,0,0,1-.067,0,.037.037,0,0,1-.039-.02.03.03,0,0,1-.021,0c-.027.031-.056.045-.087,0h0c-.029,0-.057.03-.087,0-.108-.024-.223.012-.33-.02h0l-.131,0a.06.06,0,0,1-.073-.011c-.064-.025-.148.032-.2-.03a.018.018,0,0,1-.022,0c-.048.041-.111.016-.166.026l-.035,0a2.4,2.4,0,0,1-.37-.007h0c-.09-.022-.189.031-.277-.019H28.73a.133.133,0,0,1-.124,0H28.52a.069.069,0,0,1-.081,0h0l-.087,0a.291.291,0,0,1-.173-.016h0l-.008,0-.008,0c-.015.022-.031.027-.046,0a.361.361,0,0,1-.17-.024.079.079,0,0,1-.062,0c-.092,0-.186.01-.278,0a.2.2,0,0,1-.067-.011l-.007,0c-.026.034-.054.022-.081,0a.037.037,0,0,1-.031,0,.046.046,0,0,1-.069,0c-.033,0-.065.038-.1.005a.2.2,0,0,1-.131,0h0l-.033,0h-.066a.2.2,0,0,1-.1.006l-.03,0h0a.321.321,0,0,1-.271.008h-.1l-.066,0-.033,0a.1.1,0,0,1-.067,0,.02.02,0,0,1-.026,0c-.025.018-.049.038-.076,0h-.064a.033.033,0,0,1-.03.006c-.057.037-.113-.009-.17,0l-.007,0-.009,0a.135.135,0,0,1-.128,0h0a.038.038,0,0,1-.043,0,1.388,1.388,0,0,1-.406.036,2.507,2.507,0,0,1-.5,0l-.031-.006h0a.423.423,0,0,1-.2-.019c-.023.015-.046.038-.073.007L24.529,6.8l-.03.007-.4,0h-.035a1.806,1.806,0,0,1-.337-.009h0a.017.017,0,0,1-.022,0,.072.072,0,0,1-.085,0h0a.06.06,0,0,1-.054-.006.282.282,0,0,1-.2-.014h0l-.03-.006c-.047-.009-.1.017-.144-.014h0a.054.054,0,0,1-.056,0c-.217.009-.431-.016-.647-.026h0c-.067-.008-.133.032-.2.007a.193.193,0,0,1-.166.006.572.572,0,0,1-.247.029.039.039,0,0,1-.03.006c-.015.024-.032.025-.051,0h-.006a.284.284,0,0,1-.177.024h0l-.028.011c-.043.034-.066.014-.083-.02a.037.037,0,0,1-.03-.03.106.106,0,0,1-.063-.029h0c-.039.008-.077.015-.1-.02l-.013,0-.013,0c-.013.024-.026.023-.039,0a.387.387,0,0,1-.163-.023c-.012.023-.024.022-.036,0h0a.414.414,0,0,1-.182-.019h0l-.01,0-.007-.006H20.8l-.035,0c-.035,0-.075.016-.1-.014h0l-.062,0-.034,0a.415.415,0,0,1-.179-.013h-.008a.034.034,0,0,1-.058,0h-.008a.036.036,0,0,1-.058,0h0l-.209.007c-.042.03-.1.011-.142.025h0a.274.274,0,0,1-.13.017q-.612.019-1.225.036a.075.075,0,0,1-.024.008.822.822,0,0,1-.149.02h0l-.067.006a.029.029,0,0,1-.046,0h-.007c-.034.024-.066.035-.075-.015-.005-.029-.033-.043-.046-.066l-.223.007c-.039.075-.113.017-.167.033h0a.761.761,0,0,1-.37.016h0l-.013,0h-.012a.321.321,0,0,1-.218.008h0l0,.007h-.009a.1.1,0,0,1-.114,0H16.99c-.028.019-.055.03-.083,0h-.061l-.033,0c-.028.01-.055.026-.085,0a.361.361,0,0,1-.179.025l-.065.012a.631.631,0,0,1-.37.011h0a.141.141,0,0,1-.062-.056h0l0,0c-.056-.01-.118.023-.169-.016h0l-.013,0h-.014c-.023.031-.048.036-.076.006h0l-.056,0h0v0c-.026.033-.051.034-.076,0h-.062c-.02.039-.045.039-.073.009h0a.1.1,0,0,0-.094.012l-.033.007a.027.027,0,0,1-.036-.019h-.063c-.033.043-.068.033-.1,0h0a.053.053,0,0,1-.028,0,.958.958,0,0,1-.333.039.03.03,0,0,1-.029,0,.033.033,0,0,1-.051,0h-.006a.039.039,0,0,1-.055,0h0l-.007,0-.008,0a.066.066,0,0,1-.088,0h0c-.012,0-.019,0-.022-.01l-.063-.013a.03.03,0,0,1-.036.021.028.028,0,0,1-.035,0l-.2.012h0c-.069.053-.154.013-.23.03h0l-.068,0a.063.063,0,0,1-.067-.021h0l-.033,0h0l-.066,0h0a.9.9,0,0,1-.226.012.027.027,0,0,1-.043,0,.176.176,0,0,1-.091,0l-.023.009a.1.1,0,0,1-.124-.031l-.059,0-.23.015h0a.093.093,0,0,1-.1.025.648.648,0,0,1-.3-.014h0a.046.046,0,0,1-.043-.023H12.5c-.008.021-.007.048-.043.054h0a1.552,1.552,0,0,1-.4.039h0a.024.024,0,0,1-.029,0,.034.034,0,0,1-.05,0h-.005a.22.22,0,0,1-.147.027h0l-.192.012a.779.779,0,0,1-.272.032.447.447,0,0,1-.167.008.115.115,0,0,1-.115-.019h0l-.011,0-.007-.007-.1,0h0a.409.409,0,0,1-.2-.011l-.064,0-.122.011h0c-.007.018-.02.035-.006.055l.155,0a.175.175,0,0,1-.161.047l-.2.014a.024.024,0,0,1-.028.006.522.522,0,0,1-.329.041h0v0a.177.177,0,0,1-.2-.026h0c-.013.033.011.075-.078.074a2.164,2.164,0,0,1-.36,0c-.08-.013-.005-.035,0-.053l-.011-.007a2.894,2.894,0,0,1-.624.023.076.076,0,0,1-.066,0,.038.038,0,0,1-.042-.017.35.35,0,0,1-.226.006h0c-.047.033-.108,0-.157.024h0l-.078,0h0l-.012,0-.012,0-.067-.02c-.066,0-.15.046-.173-.051h0c-.072.02-.173-.029-.22.064,0,.006-.1.019-.12-.044A.468.468,0,0,1,7.4,7.092h-.01l-.043.026c.006.024.045.05,0,.071s-.045-.026-.068-.04A.043.043,0,0,1,7.239,7.1h0l-.031-.029a.035.035,0,0,1-.03,0l-.13.009a.032.032,0,0,1-.035.025l.034-.025h0c-.013.007-.022.017-.034.025h0c-.033.022-.062.089-.1.007a.122.122,0,0,0-.1-.029.021.021,0,0,1-.026,0,.335.335,0,0,1-.21.034,1.455,1.455,0,0,1-.295,0c-.048.008-.1.02-.133-.019h0c-.046-.012-.1,0-.14-.021h0a.02.02,0,0,1-.026,0A.076.076,0,0,1,5.91,7.06H5.816c-.112-.014-.221.015-.332.012a.763.763,0,0,1-.08.008h0a1.5,1.5,0,0,1-.379.036l-.008.008L5,7.12a.075.075,0,0,1-.092,0h0a.015.015,0,0,1-.023,0l-.332.014a.116.116,0,0,1-.084,0,.25.25,0,0,1-.162,0h0a.053.053,0,0,1-.053,0,.489.489,0,0,0-.2.034.077.077,0,0,1-.085-.018h0a.1.1,0,0,1-.084,0l-.164.008-.008.01a1.708,1.708,0,0,1-.566.01h0a.021.021,0,0,1-.026,0,.082.082,0,0,1-.08-.022h0l-.011,0-.009-.006a.325.325,0,0,1-.175-.02h0a.148.148,0,0,1-.093,0,.21.21,0,0,1-.142-.016h0l-.117,0h0c-.048.049-.113.03-.172.032a.017.017,0,0,1-.022,0,.039.039,0,0,1-.043.022.027.027,0,0,1-.03.006.085.085,0,0,1-.11,0L1.867,7.2a.035.035,0,0,1-.035.019.287.287,0,0,1-.123.016c-.035.04-.074.027-.113.007l-.031-.007c-.047,0-.1.014-.137-.02l-.091,0c-.06.045-.1.018-.142-.022H1.181l-.015,0h0a.073.073,0,0,1-.065.026.034.034,0,0,1-.028.006.608.608,0,0,1-.314.012h0l-.223,0c-.016.017-.044.013-.064.023l-.035.008c-.016.017-.044.013-.064.024l-.034.007c-.026.026-.072,0-.1.03l-.007.007-.011,0a.062.062,0,0,0-.047.028l0,0c-.022.015-.017.04-.031.057-.032.02-.092.013-.092.064C0,7.515.048,7.564.022,7.6c-.068.059.049.115,0,.174h0c.01.023.01.049.033.068l.008.006,0,.008A.04.04,0,0,0,.1,7.889h0c.01.019.007.043.031.057h0c.014.012.008.026,0,.04a.033.033,0,0,1,0,.045c-.046.07.008.1.069.135h0c.018.016.047.009.066.023h0a.1.1,0,0,0,.076.05l.009,0,.008,0c.022-.009.045-.021.066,0l.008.005c.054.018.114-.009.168.012h0c.072.077.182.016.266.048l.016,0,.014,0c.276-.03.553-.018.83-.024.014,0,.028.012.041.018l.015,0,.012.006c.028,0,.054,0,.068.022h0c.068,0,.141-.018.205.02l.06,0c.048,0,.1-.014.139.019a3.362,3.362,0,0,1,.46-.013l.066,0,.01-.007.014,0a1.411,1.411,0,0,1,.4-.039h0a.941.941,0,0,1,.409,0c.014,0,.025.026.038.04a.984.984,0,0,1,.21-.007.4.4,0,0,1,.277-.01h0a.812.812,0,0,1,.278.019h0a.128.128,0,0,1,.127,0h0a.891.891,0,0,1,.313-.036h0a2.313,2.313,0,0,1,.432-.015c.1,0,.2-.01.3-.012.033,0,.077-.014.1.025h0v0c.054.053.144,0,.2.046h0a.185.185,0,0,1,.135.02h0a1.7,1.7,0,0,1,.342.018h0a.5.5,0,0,1,.177-.006c.019-.005.039-.008.058-.011a.872.872,0,0,1,.349-.024.307.307,0,0,0,.1-.012h0c.056-.051.061.006.083.026l.249-.007c.025-.016.048-.051.077-.007a4.376,4.376,0,0,0,.458-.009h0c.107-.064.2,0,.3.016h0l.892-.029h0c.01-.015.021-.023.035,0h0c.052.008.106,0,.158.012a.145.145,0,0,1,.041.01h0l.728-.023a.052.052,0,0,1,.054,0,1.776,1.776,0,0,1,.443-.041.948.948,0,0,1,.266-.009.217.217,0,0,1,.181.045h0a.772.772,0,0,1,.22,0l.328-.018h0a.108.108,0,0,1,.1-.026,1.465,1.465,0,0,0,.524,0,.034.034,0,0,1,.037-.022h0l0,0a.212.212,0,0,1,.186-.066l.673-.02h0a3.025,3.025,0,0,1,.562-.074h0a.97.97,0,0,1,.5-.021c.075.024.162,0,.239.022l.01,0,.01,0a.049.049,0,0,1,.072,0h0c.083-.017.106.018.1.079a.012.012,0,0,1,.005.02l.039.053.054-.006,0-.009.007-.006c-.009-.043,0-.068.065-.057a4.131,4.131,0,0,1,.6-.019c.048,0,.1-.015.141.017l.013,0,.012.006a.133.133,0,0,1,.112.02.3.3,0,0,1,.122,0c.046,0,.1-.018.137.017h0c.049.006.1-.008.144.024h0l.01,0,.008.006a.336.336,0,0,1,.178.019h0l.056,0,.066,0h0l.008-.007.011,0c.017-.059.064-.079.133-.081.159,0,.318-.012.476-.019h0a.461.461,0,0,1,.153-.009c.075-.051.163-.021.245-.031h0l.052-.007a.2.2,0,0,1,.146-.028.442.442,0,0,1,.162-.009.03.03,0,0,1,.049,0h.008a.221.221,0,0,1,.194-.007h.009a.03.03,0,0,1,.046,0h.064c.023-.007.036,0,.041.019a.833.833,0,0,0,.223.008.421.421,0,0,1,.177.01h0a.163.163,0,0,1,.093,0c.1,0,.194.043.3.013,0-.034.012-.063.063-.058a.54.54,0,0,1,.171.023h0a2.059,2.059,0,0,1,.532.036h0c.084-.009.166-.018.208.063.018.036.054.042.095.037a.4.4,0,0,1,.159.018h0a.625.625,0,0,1,.269.024h0l.094-.005h0a.27.27,0,0,1,.129-.087h0c.013-.008.026-.025.037-.024.246.028.494,0,.74.007a.269.269,0,0,1,.062.016h0l.01-.005.01,0c.015-.021.031-.021.048,0h0l.053,0c.014-.017.027-.021.041,0h0a.031.031,0,0,1,.031,0h.033c.056,0,.117-.019.141.044h0a.033.033,0,0,1,.033.027h0a.034.034,0,0,1,.035.026.035.035,0,0,1,.033.027.048.048,0,0,1,.042.026h.05c.012-.014.023-.015.034,0h0l.005,0a.111.111,0,0,0,.093-.042c.056-.066.093-.068.178-.028h.011c.012-.024.041-.066.061-.038.056.076.144.04.216.056h0c.038-.061.087.012.129-.009h0c.027-.037.052-.029.077,0a.037.037,0,0,1,.029,0l.009-.007.012,0c.047-.063.1-.008.143,0h0c.018-.011.042-.033.051-.029a.117.117,0,0,0,.156-.042c.009-.012.028.012.031.03a3.562,3.562,0,0,1,.425-.034h0l.012-.008.015,0c.013-.015.028-.022.043,0h0a.019.019,0,0,1,.024,0h0a1.143,1.143,0,0,1,.3-.038h0a.812.812,0,0,1,.415-.043h.006l.014-.009a.107.107,0,0,1,.072-.026,1.211,1.211,0,0,0,.135.014l.012-.021a.087.087,0,0,0,.019.023,1.236,1.236,0,0,1,.182.02.115.115,0,0,1,.045.011h0a.031.031,0,0,1,.028,0h0a.047.047,0,0,1,.07,0h.063a.558.558,0,0,1,.237-.014h0c.052-.02.1.011.156,0a.052.052,0,0,1,0-.021h0l0-.1a.08.08,0,0,1,.022.017h0c.02.023.014.049.02.072l.041.026h.009c.015-.016.031-.022.046,0h0c.021,0,.055,0,.061-.011.042-.07.073-.029.106,0h0c.051-.016.1.012.154-.008,0-.026,0-.056.053-.041a.285.285,0,0,0,.178,0c.006-.023.013-.05.05-.035a.5.5,0,0,0,.184.027c0-.018.006-.042.03-.039.059.008.115.023.173.035h0c.021-.038.065-.031.1-.028a1.345,1.345,0,0,0,.39-.041.868.868,0,0,1,.177,0,.314.314,0,0,1,.122-.008c.016-.018.031-.024.046,0h0a.028.028,0,0,1,.034.027l.066.024a.35.35,0,0,1,.125,0,.032.032,0,0,1,.047,0l.008,0,.009,0a.032.032,0,0,1,.049,0h.052a.148.148,0,0,1,.14,0h0c.078,0,.16-.029.232.019h0a.073.073,0,0,1,.068.023h0l.624-.021h0a.084.084,0,0,1,.1,0h0l.175,0a.057.057,0,0,1,.062.046h.06c.033-.029.067-.053.105-.008l.63,0a.142.142,0,0,1,.079.012h0A.271.271,0,0,1,30.47,8h0a.048.048,0,0,1,.053,0,.06.06,0,0,1,.066.024l0,0a.031.031,0,0,1,.035.022c.034,0,.072,0,.1.024h0l.093,0a.029.029,0,0,1,.033-.024l.006,0a.346.346,0,0,1,.229-.009h0l.526-.021h0c.071-.045.156-.022.234-.033l.012-.007.014,0a.146.146,0,0,1,.151-.006h.009c.028-.032.056-.018.084,0a.18.18,0,0,1,.1,0l.064,0h0a.046.046,0,0,1,.07,0h0l.2,0,.008-.008.013,0a.075.075,0,0,1,.088,0l.013,0,.011.006c.037-.015.073-.045.114-.008h0l0,0a.1.1,0,0,1,.114,0l0,0c.062.04.145.015.21.044h0l.013,0L33.15,8c.024,0,.036,0,.034.026.009,0,.011.01.005.017.036.008.071.042.108.019.068-.044.128-.014.191,0l.009,0,.007.005c.067-.017.1-.079.169-.092h0a.412.412,0,0,1,.242,0h.061c.012-.021.026-.017.041,0a1.02,1.02,0,0,1,.214-.008l.04-.038h0l0-.008.008-.007c0-.008.006-.023.01-.024a3.138,3.138,0,0,1,.692.023h0a.034.034,0,0,1,.036.024.024.024,0,0,1,.026,0A.415.415,0,0,1,35.2,7.92c.015-.017.029-.019.043,0h0a2.635,2.635,0,0,1,.444-.009c.009,0,.016.011.024.016h0a.074.074,0,0,1,.062.029h0a.066.066,0,0,1,.073.047c.085.018.178-.014.26.023h0a.812.812,0,0,1,.2,0l.058-.006.038-.031,0-.048c-.035-.041-.013-.075.035-.08a.317.317,0,0,1,.2.01h0l.13.055h.033c.161-.028.323,0,.484-.012.08-.009.162-.011.243-.015l0,0h0l.018-.016c.007.019,0,.02-.018.016l0,0,.085.078a.07.07,0,0,1,.055,0l.564-.02h0a.283.283,0,0,1,.123-.008.1.1,0,0,1,.118,0h0l.007,0,.008,0a.1.1,0,0,1,.113,0h.063l.133-.007h0a.632.632,0,0,1,.2,0c.187-.019.375-.017.562-.021h0c.011-.021.023-.026.038,0,.2-.006.392-.021.588-.012a.117.117,0,0,1,.076.018h0v0a5.55,5.55,0,0,1,.763,0h0a4.943,4.943,0,0,1,.5,0,.409.409,0,0,1,.06.007h0a2.691,2.691,0,0,1,.336,0,.429.429,0,0,1,.094.01h0l.461-.019h0c.038-.035.115-.025.132-.083h-.063c-.047,0-.1.022-.134-.02h0l0,0h0a.233.233,0,0,1,.2-.009h0c.072.044.156.015.233.026h0l.06-.012a.142.142,0,0,1,.169,0,.042.042,0,0,0,.064,0c-.025-.008-.026-.017,0-.026l.227-.007.075,0h0c.052-.029.1,0,.157,0h0a.347.347,0,0,1,.124,0c.035.013-.008.017-.019.024h0v.023c.148,0,.3-.007.445-.009.041,0,.088-.017.123.017h0l.094,0h0l.033-.025ZM7.531,7.14l.012.009-.011.018-.011-.008A.114.114,0,0,1,7.531,7.14Zm-.442.069a.028.028,0,0,1,.033-.023c.016,0,.031.007.023.025a.036.036,0,0,1-.034.025C7.093,7.235,7.083,7.225,7.089,7.209Zm-.229.036.011-.01.013.021-.012.008C6.859,7.262,6.854,7.255,6.86,7.245Zm-.569.62,0-.008H6.3ZM7.718,7.3c-.014.027-.059.055-.07.049-.071-.039-.166.023-.228-.037-.017.026-.053.054-.076.048a.755.755,0,0,0-.361.026c-.3.058-.609.116-.919.153-.027,0-.054.006-.082.007s-1.491.114-1.5.092,1.34-.219,1.367-.236a.71.71,0,0,1,.264-.024,7.324,7.324,0,0,0,.969-.094c.068-.009.152-.058.233,0,.028.019.058-.058.107-.02h0a.582.582,0,0,0,.228-.013c.041-.007.061,0,.072.029h0c.024.008.056-.013.075.013C7.773,7.308,7.743,7.288,7.718,7.3Zm.113-.138a.087.087,0,0,1-.011-.018l.01-.01.012.018Zm.853.148c-.012.007-.021,0-.025-.006s0-.025.019-.029.024,0,.026.006S8.7,7.3,8.684,7.305Zm.416-.04a.128.128,0,0,1,.128-.006A.152.152,0,0,1,9.1,7.265ZM12.466,7.2a6.5,6.5,0,0,1-.763.062c-.112,0-.1.042-.2.076a.951.951,0,0,1-.476,0l-.013-.023a.951.951,0,0,1-.43-.015c.019,0,.42-.048.44-.052a.407.407,0,0,0,.256-.032.362.362,0,0,1,.214-.055c.2-.007.389-.025.584-.033.131-.006.261,0,.392,0a6.359,6.359,0,0,1,.767,0A6.094,6.094,0,0,1,12.466,7.2ZM14.2,7.87a.153.153,0,0,1-.029-.007l.012-.009a.164.164,0,0,1,.028.007Zm.076.028-.009-.01.01-.008.01.009Zm.159.05c-.007,0-.014-.008-.021-.012.027-.02.069-.027.079,0S14.457,7.95,14.434,7.948Zm.458-.651c-.006,0-.016-.01-.015-.014s.013-.014.025-.009a.106.106,0,0,1,.02.012A.093.093,0,0,1,14.892,7.3Zm.383.635c.072-.007.128-.029.171.025C15.381,8,15.342,7.947,15.275,7.932Zm.523-.243.009.006c0,.006-.006.009-.009.012L15.789,7.7Zm-.163.287-.009-.036h0l-.012.006c-.025.01-.032.057-.074.028a.036.036,0,0,1-.005-.037c.031-.036.063-.025.091,0h0v0c.017,0,.027.011.026.025Zm.138,0c0-.007-.013-.013-.013-.02s.008-.013.013-.019.012.013.012.02S15.777,7.973,15.773,7.979Zm.208-.016-.012,0-.006-.011c0-.013.012-.014.019,0Zm.474-.23a4.593,4.593,0,0,1-.673.055L15.52,7.8a.032.032,0,0,1-.034-.023c-.005-.022.011-.034.035-.036a.829.829,0,0,1,.228,0,1.929,1.929,0,0,1,.633-.1.577.577,0,0,1,.245.021C16.562,7.69,16.557,7.779,16.455,7.733Zm.167,0c-.012,0-.012-.014,0-.022s.039,0,.058,0v0l0,0h0C16.671,7.735,16.654,7.748,16.622,7.735Zm.092-.03h0l-.034,0v0l0,0h0l.005-.03c0-.033.03-.033.059-.026h.036l.025.007c0,.016-.012.017-.026.017a.039.039,0,0,1,.005.023h0c.014.007.023.018.014.028a.045.045,0,0,1-.053.007h0C16.724,7.732,16.711,7.724,16.714,7.705Zm.161.114c-.018.028-.041.011-.061,0s-.068,0-.052-.032.056-.007.085,0S16.885,7.8,16.875,7.819Zm11.7-.787c.021,0,.022.013.019.025a.016.016,0,0,1-.024.011c-.007,0-.01-.012-.015-.019S28.565,7.032,28.572,7.032Zm-3.12.2c.014,0,.033.008.03.024s-.018.007-.028.01-.036,0-.036-.019S25.435,7.228,25.452,7.232ZM17.033,7.7a.167.167,0,0,1,.042.009l-.015.021a.264.264,0,0,1-.04-.012C17.024,7.706,17.029,7.7,17.033,7.7Zm-.1.209a.176.176,0,0,1-.009-.02l.01-.008a.176.176,0,0,1,.009.02Zm-.008-.174a.343.343,0,0,1-.044-.009L16.9,7.7a.193.193,0,0,1,.041.012Zm.028-.081.013,0-.011.014-.012-.008Zm.1.21c-.047,0-.058-.042-.1-.056a.121.121,0,0,1,.094-.024c.035,0,.067,0,.068.037S17.084,7.858,17.05,7.859Zm.234,0h0l0,0c-.037-.009-.1.015-.091-.052-.011-.052-.084-.1,0-.156a.083.083,0,0,1,.03.125h0l.062.083h0v0l.021.007C17.285,7.878,17.286,7.864,17.284,7.854Zm.109-.018.006-.008,0,.008Zm.076.03a.014.014,0,0,1-.013-.021l.012-.009.012.009A.013.013,0,0,1,17.469,7.866Zm4.345-.041c-.012.007-.028.008-.031-.008s.01-.013.018-.019a.014.014,0,0,1,.024,0C21.822,7.811,21.821,7.821,21.814,7.825Zm.127.029a.063.063,0,0,1-.051-.028c-.008-.013,0-.027.016-.031.034-.009.029.014.031.03h0C21.956,7.833,21.984,7.84,21.941,7.854Zm.2.129-.011-.008.025-.01.012.009A.267.267,0,0,1,22.139,7.983Zm3.1-.284a.027.027,0,0,1-.03-.027c0-.021-.008-.045.021-.06a.051.051,0,0,1,.045.034A.041.041,0,0,1,25.243,7.7Zm5.559-.37h0c-.087.019-.183-.011-.267.031a.248.248,0,0,0,.11.02.42.42,0,0,1,.284.045c-.022.077-.086.109-.177.109s-.162,0-.244,0h0l-.033,0h-.034l-.114-.029c-.079.032-.162,0-.243.015-.056.009-.119-.016-.149.054-.014.033-.066.025-.1.021a2.107,2.107,0,0,1-.463-.015c-.118.075-.2,0-.291-.042a.631.631,0,0,0-.2-.008.24.24,0,0,0-.056.026c-.019.013-.008.053-.045.049s-.03-.042-.035-.067a.826.826,0,0,1-.17-.048c-.043-.024-.071,0-.092.033h0l0,.013c-.022.015-.021.051-.057.049-.006,0-.009-.04-.014-.062-.027-.006-.07-.013-.073.009-.019.125-.1.042-.117.017-.039-.053-.061-.071-.108-.009-.019.024-.045.019-.071.006-.07-.033-.132-.076-.228-.029a.283.283,0,0,1-.157-.011c-.11-.037-.23-.01-.336-.052-.037-.015-.095-.027-.122.032s-.078.015-.117.024h0a.254.254,0,0,1,0,.039c0,.017-.009.037-.036.032-.011,0-.021-.017-.025-.028a.117.117,0,0,1,0-.038L26.787,7.5c-.016,0-.039-.009-.048,0-.077.051-.151.113-.216-.01-.009-.016-.034.006-.051.017-.052.034-.109.066-.152-.009a.037.037,0,0,0-.028-.01c-.109.056-.215-.018-.323,0-.021,0-.048,0-.064.01-.132.078-.272.019-.408.024s-.266-.033-.405-.023c-.087.007-.065.043-.066.081h0c.033.018.092.009.1.056s-.025.062-.061.072-.034-.021-.038-.041h0v0c-.051-.036-.075-.131-.178-.055,0,0-.007-.01-.013-.012-.124-.049-.127-.048-.165.049-.007.017-.012.034-.018.05-.045.022-.062-.026-.11-.027a6.571,6.571,0,0,1-.657.034c-.118.056-.259.01-.377.066a.094.094,0,0,1-.064,0,.877.877,0,0,0-.311-.009,2.5,2.5,0,0,0-.335,0c-.041-.06-.082-.064-.131,0-.016.019-.044,0-.051-.015-.045-.1-.08-.065-.118,0-.006.01-.026.016-.039.024-.045-.024,0-.1-.084-.1-.066,0-.029.064-.07.078s-.031-.042-.051-.06a.225.225,0,0,0-.041-.021c-.045-.019-.064.114-.129.013-.03-.046-.1.024-.16-.009-.046-.024-.128,0-.2,0,0,.028,0,.055-.01.081s-.046.067-.081.042c-.061-.046-.111-.013-.162,0s-.1-.013-.166,0a1.093,1.093,0,0,1-.415,0,.092.092,0,0,1-.039-.023c-.074-.063-.073-.064-.146,0h0a.115.115,0,0,1-.012.025c-.015.018-.019.05-.049.048-.046,0-.03-.04-.039-.064h0c-.069.015-.166-.054-.208.055-.01.028-.168.015-.185-.021-.039-.077-.117-.062-.183-.061-.2,0-.4.018-.6.023a1.519,1.519,0,0,1-.507-.052,1.83,1.83,0,0,0-.7-.057,2.081,2.081,0,0,0-.211.012c-.073.013-.153-.019-.223.046-.037.035-.128.023-.191.005a.392.392,0,0,0-.253-.012.036.036,0,0,1-.051-.021.042.042,0,0,1,.044-.048.708.708,0,0,0,.327-.046c.118-.04.237-.078.35-.125a.168.168,0,0,1,.089-.027,3.511,3.511,0,0,0,.447-.019.267.267,0,0,1,.154.036.5.5,0,0,0,.172.032c.12-.012.239-.027.359-.03.268-.007.535-.008.8-.011a.177.177,0,0,1,.065,0,1.007,1.007,0,0,0,.319.031c.113.008.224-.017.337,0,.046.006.1-.015.136.02a.052.052,0,0,0,.027.008c.048-.08.132.013.178-.025s.127.043.173-.023c.115.021.23-.017.342-.007a1.182,1.182,0,0,1,.373.049c.1.044.222-.01.333.007a.055.055,0,0,0,.029-.012c.069-.046.112.117.206.009.046-.054.166-.016.251-.033a4.689,4.689,0,0,0,.654-.126,1.5,1.5,0,0,1,.229-.019c.127-.02.262.021.384-.038.077.046.124.014.163-.044,0,0,.018,0,.028,0,.021.115.1,0,.149.024.07.031.15,0,.226.007s.068-.047.08-.085c0-.018-.022-.045.014-.047s.014.026.016.042c.091.062.2.023.3.027a.841.841,0,0,1,.265.039.658.658,0,0,0,.373,0,1.442,1.442,0,0,1,.306-.034c.234.009.467.022.7.014.071,0,.142-.007.214-.011h.032c.18-.009.36-.021.54-.025.083,0,.129-.07.216-.069.036,0,.072-.014.1.011s.046.031.052.022c.074-.109.12,0,.172.013.05-.013.033-.061.067-.075.053,0,.041.037.052.061a.035.035,0,0,0,.049.022c.09-.04.176.007.264,0s.2-.008.3,0a1.5,1.5,0,0,1,.293.035c.159.039.328.012.486.05.047.012.087-.082.131,0,.055-.02.116,0,.165-.01a.236.236,0,0,1,.125.006c.064.016.128.035.181-.02s.091.016.138-.013.157-.014.241-.036a.345.345,0,0,1,.176.006h0l.027-.045.052.047c.092-.013.194.017.272-.059a.56.56,0,0,1,.289.067c.019.022.01.044-.006.063s-.044.056-.092.045A1.776,1.776,0,0,0,30.8,7.329Zm1.324.191a1.141,1.141,0,0,1-.165.009c-.1,0-.2.014-.3.013-.121,0-.242.009-.363.012-.035,0-.087.008-.086-.037s.042-.036.077-.037l.374-.006a.274.274,0,0,0,.127-.02.483.483,0,0,1,.333,0c.024,0,.041.013.04.034A.041.041,0,0,1,32.126,7.52Zm1.6-.263c-.006.038.031.084-.03.113a.042.042,0,0,1,0,.022l.058.1c-.149-.009-.3,0-.441.008-.268.008-.531.048-.8.072a.13.13,0,0,1-.048,0c-.041-.017-.118-.007-.11-.062s.073-.046.123-.043a3.472,3.472,0,0,0,.408.006c.031,0,.068,0,.087-.028h0c-.057-.055-.151,0-.209-.045h0a2.268,2.268,0,0,1-.466-.018.5.5,0,0,1-.167-.047h0c-.058-.021-.037-.051,0-.068s.03.022.041.037c.027,0,.055.007.072-.018.039-.056.078-.057.117,0,.02.029.051.024.085.024a1.953,1.953,0,0,0,.334,0c.061-.011.1.03.155.007h0c.013-.018.013-.05.044-.049s.017.028.017.045c.086,0,.176.043.257-.021.023-.018.051,0,.077.006s.09.012.112,0c.062-.046.1-.09.136.018.006.022.056-.006.082-.023,0-.024-.014-.051.028-.062h0a.034.034,0,0,1,.042-.009c.018.008.049,0,.05.025C33.778,7.244,33.743,7.251,33.724,7.257Zm.139.075a.04.04,0,0,1-.053-.013s.014-.013.023-.016.033,0,.043.011S33.87,7.33,33.863,7.332Zm.25-.007c-.008.025-.035,0-.053.006a.161.161,0,0,1-.031,0c-.09.024-.105-.047-.141-.084-.016-.016.018-.037.05-.033.058.008.07.049.088.086h.047C34.094,7.3,34.12,7.3,34.113,7.325Zm.212-.006h0A.22.22,0,0,1,34.3,7.3c-.022-.024-.032-.051.013-.063s.045.015.048.038a.285.285,0,0,1,0,.041c.059.048.142.038.216.055C34.412,7.437,34.375,7.429,34.325,7.319Zm.429-.1-.026-.014c.009-.005.017-.013.026-.013s.016.008.024.012Zm2.128-.246c.038-.061.071,0,.1-.017C36.953,6.992,36.92,6.972,36.882,6.974Zm.616-.035c-.031,0-.031-.015-.029-.033h0l0,0v0c.02,0,.043-.008.049.015C37.519,6.926,37.506,6.938,37.5,6.939Zm.121-.016-.011-.008.012-.008s.008,0,.012.008ZM38.437,7a.014.014,0,0,1,.024,0c0,.007,0,.018-.012.021s-.017,0-.026,0A.153.153,0,0,1,38.437,7Zm.128.778h0l-.033,0c-.042,0-.085.029-.123-.007.038-.04.082,0,.122-.008v.015a.092.092,0,0,0,0-.016l.032-.007h.071l.1-.007a.256.256,0,0,1,.175.048A.873.873,0,0,1,38.565,7.78Zm.634-.854h0c-.082.015-.153-.03-.235-.013V6.88l.2-.006c.055.009.121-.027.166.025h0C39.3,6.949,39.243,6.92,39.2,6.926Zm.705.036a.065.065,0,0,1-.067.025c-.018,0-.021-.017-.01-.029a.071.071,0,0,1,.07-.018C39.911,6.944,39.913,6.952,39.9,6.962Zm.132.018c-.005,0-.01-.01-.015-.015a.1.1,0,0,1,.026-.008c.005,0,.009.01.014.015A.081.081,0,0,1,40.036,6.98Zm.729.725c.021,0,.044-.007.061.009-.011.02-.034.016-.053.016s-.041.006-.053-.014A.246.246,0,0,1,40.765,7.705Zm-.144.091h0l-.127,0a.464.464,0,0,1-.276-.014h0c-.029-.021-.013-.054.008-.048.06.018.132,0,.184.04a.108.108,0,0,1,.079,0h0a.593.593,0,0,1,.163,0h0A1.583,1.583,0,0,1,41,7.794.963.963,0,0,1,40.621,7.8Zm.45,0V7.785l.011,0Zm.451-.032a.352.352,0,0,0-.111.021c-.073.027-.155.063-.2-.032-.005-.011-.052-.006-.08-.008a.286.286,0,0,1-.222-.031.318.318,0,0,1,.222.01c.126-.01.252-.019.378-.032.036,0,.067-.013.076.025S41.557,7.76,41.522,7.762Zm.9.049,0,0h0l-.132,0-.135,0h0c-.025,0-.07.01-.068,0l0-.008-.007,0,.007,0c.009-.021.045-.007.068-.01l.129,0h0c.048-.006.1-.018.135.018Z"/></g></g></svg>