<svg xmlns="http://www.w3.org/2000/svg" viewBox="0 0 203.25 90"><defs><style>.cls-1,.cls-2{fill:#fff;}.cls-2{font-size:44.18px;font-family:Rustico-Regular, Rustico;letter-spacing:0.1em;}</style></defs><title>nosotros-title</title><g id="Layer_2" data-name="Layer 2"><g id="NOSOTROS"><g id="NOSOTROS-2" data-name="NOSOTROS"><g id="NOSOTROS-3" data-name="NOSOTROS"><g id="SUBRAYADO"><path class="cls-1" d="M186.57,62.54a12.19,12.19,0,0,1-2.7-.19l-1.78-.14c-.11,0-.23,0-.3-.11h0l.05,0h-.05a.86.86,0,0,1-.45,0h-.05c-.17,0-.34.13-.49,0s0-.09,0-.1a.56.56,0,0,1,.49,0c.17,0,.35-.16.49.05h0a3.94,3.94,0,0,1,2.07.13c.53-.16,1.11.12,1.75-.21l-.71-.14a25.42,25.42,0,0,0-4.09-.12c-1.93.07-3.85,0-5.78,0s-3.58-.15-5.37-.1a27.38,27.38,0,0,1-4.79-.15h0a33.81,33.81,0,0,1-3.63,0,12.82,12.82,0,0,1-2.45-.11c.36-.29.69-.07,1-.09a9.74,9.74,0,0,1,1.08,0,8.71,8.71,0,0,1,1,0,10,10,0,0,1,3.23,0,7.74,7.74,0,0,1,2,0,22.24,22.24,0,0,0,2.83.09,1,1,0,0,1,.29,0h0a14.09,14.09,0,0,1,2-.2c1.49,0,3,.16,4.45.09.44,0,.89,0,1.33,0a27,27,0,0,0,3.25.08,13.17,13.17,0,0,1,2.94.11,1.57,1.57,0,0,0,1.05-.12c0-.07-.11-.14-.09-.19s.12-.06.19,0c.23-.07.51,0,.7-.19-.68-.08-1.37,0-2-.05-1.22-.12-2.44-.09-3.66-.19a.65.65,0,0,1-.53,0,4,4,0,0,1-.85-.07h0l-.37,0-.24,0a.77.77,0,0,1-.52,0,25.15,25.15,0,0,1-3.13,0c-1.09,0-2.17-.1-3.25,0a7.26,7.26,0,0,1-1.14-.06,10.73,10.73,0,0,1-1.14-.07,8.2,8.2,0,0,1-2.52.08,4,4,0,0,0-.91,0,5.94,5.94,0,0,1-2.52-.32,21.8,21.8,0,0,1,3.14,0c1,0,2,0,3.06,0,.5.1,1-.09,1.51.05h0a2,2,0,0,1,.48-.06c1.12.13,2.24-.06,3.36,0,.39-.12.84,0,1.2-.26a4.31,4.31,0,0,0-1.19,0c-1.08-.08-2.17-.13-3.25-.18-1.55-.07-3.1-.13-4.64-.27a19.65,19.65,0,0,0-3.91-.12c-.62.07-1.25,0-1.87,0a14.87,14.87,0,0,0-3.13.25,4.57,4.57,0,0,1-1.8.14q-.75-.09-1.5-.12a10.5,10.5,0,0,0-3.66.21,1.29,1.29,0,0,1-.48,0c-1.7-.07-3.41-.15-5.12-.16-1.45,0-2.9,0-4.35.08-.53,0-1,.28-1.53.31-.77,0-1.53,0-2.3,0a12.63,12.63,0,0,0-3.12.27c-.71.21-1.46.18-2.18.43a6.14,6.14,0,0,1-1.44.08c-1.21.06-2.41,0-3.62,0l-4,0a20.49,20.49,0,0,0-3.66.39c-1,.19-2,.41-3,.55-2.1.28-4.22.44-6.3.83a26.55,26.55,0,0,1-3.77.55,30.89,30.89,0,0,0-3.18.34c-1,.15-2,.34-2.93.47-3.91.55-7.85.9-11.78,1.36a4.51,4.51,0,0,0-1.4.27h0L85,66.23c-1.18.15-2.36.25-3.54.44-1.83.29-3.64.68-5.48,1-2.77.43-5.52,1-8.3,1.32a22.93,22.93,0,0,0-3.08.59,4.46,4.46,0,0,1-1.24.24,14.31,14.31,0,0,0-2.7.3c-2,.34-4,.64-6,1-1,.18-2.09.4-3.14.62s-2.28.51-3.43.69c-1.86.29-3.72.5-5.55.9a6,6,0,0,1-.84.09c-.75.06-1.49.07-2.23.2-1.51.27-3,.61-4.49,1a11,11,0,0,0-3.5,1.07.85.85,0,0,1-.17.06,13.52,13.52,0,0,1-2.44.66c-1.11.18-2.11.77-3.24.91a11.83,11.83,0,0,0-2.4.58,10.17,10.17,0,0,1-3.13.61,12.36,12.36,0,0,0-2.76.6c-.67.18-1.31.51-2,.72-1.45.47-2.88,1-4.33,1.48a6.84,6.84,0,0,0-2.84,1.53,1.59,1.59,0,0,1-.76.34c-.91.21-1.75.61-2.65.83-.14,0-.31.09-.35.21-.1.37-.43.47-.69.62a27.26,27.26,0,0,1-2.33,1.51c-.23.1-.22.27,0,.41a1,1,0,0,0,1,.16c.48-.2,1-.35,1.47-.55a.4.4,0,0,1,.59.2c-.11.2-.32.23-.5.32a5.81,5.81,0,0,0-.94.53c-.08,0-.18.13-.15.24s.16.17.28.18a1.29,1.29,0,0,0,.8-.25A3.83,3.83,0,0,1,5,86.93c.8-.15,1.56-.4,2.35-.55.21-.07.45,0,.62-.22A1.63,1.63,0,0,0,8.37,86l.05,0a2.31,2.31,0,0,1-.41.16c-.13.14-.38.1-.45.31a2.07,2.07,0,0,1-.69.36c-.54.16-1.07.36-1.61.53a.56.56,0,0,0-.39.25.79.79,0,0,1-.62.41,2.78,2.78,0,0,0-.5.21c-.1.06-.24.1-.21.25a.26.26,0,0,0,.26.22,2.58,2.58,0,0,0,1.07,0,11.22,11.22,0,0,1,1.62-.49c.14,0,.32-.07.35-.2.09-.46.47-.49.8-.61,1.2-.43,2.37-1,3.58-1.4.51-.18,1.12-.18,1.46-.72.05-.07.18-.09.27-.11A7.34,7.34,0,0,0,15,84.42a1.52,1.52,0,0,1,.52-.17,13.76,13.76,0,0,0,2.5-.66c.73-.27,1.49-.48,2.24-.71.39-.13.86-.14,1.13-.49s.76,0,1.13-.23a3.57,3.57,0,0,1,1.19-.41c.54-.14,1-.39,1.56-.55.32-.1.69,0,.94-.33.07-.1.23-.05.34,0a1,1,0,0,0,.42,0c.6-.16,1.2-.33,1.81-.48.82-.21,1.6-.53,2.44-.68a21.36,21.36,0,0,0,2.85-.76,3.94,3.94,0,0,1,1.34-.33A5.37,5.37,0,0,0,37,78.29a3,3,0,0,1,1.74-.24,1.26,1.26,0,0,0,.65-.09,50,50,0,0,1,6-1.4,13.85,13.85,0,0,0,2-.37,17.91,17.91,0,0,1,1.88-.61c1.66-.4,3.21-1.2,5-1.25a1.57,1.57,0,0,0,.29-.08,24.66,24.66,0,0,1,5.45-1,1.52,1.52,0,0,1,.6,0,1.47,1.47,0,0,0,.83,0,29.06,29.06,0,0,1,5.32-.78,38.32,38.32,0,0,0,5.55-.84,54,54,0,0,1,6.31-1.06h.13c.08-.14.22-.13.36-.14a1.42,1.42,0,0,0,.93-.06,2.7,2.7,0,0,1,1-.17,2.41,2.41,0,0,0,1.6-.27.49.49,0,0,1,.29,0,3.06,3.06,0,0,0,1.43-.32c1.18-.14,2.36-.27,3.53-.47s2.33-.47,3.52-.55c1.89-.12,3.78-.22,5.67-.44.58-.07,1.16-.14,1.74-.19,1.44-.13,2.9-.2,4.33-.41,1.9-.29,3.81-.34,5.71-.44a28.84,28.84,0,0,0,3.49-.34,18.82,18.82,0,0,1,3.88-.56.59.59,0,0,0,.23-.05,4.11,4.11,0,0,1,1.25-.22,3.89,3.89,0,0,0,1.3-.25c.12,0,.3-.14.4,0,.29.26.55.09.84,0a5.74,5.74,0,0,1,1-.25c1.41-.14,2.79-.44,4.17-.7,2.8-.52,5.63-.81,8.45-1.15,2.12-.26,4.26-.28,6.39-.42.51,0,1,0,1.52,0v.12c-.7,0-1.33.37-2,.32a14.09,14.09,0,0,0-3.43.17,3.24,3.24,0,0,1-1.2.1,3.09,3.09,0,0,0-1.45.11,3.38,3.38,0,0,1-.94.17c-1.68,0-3.32.43-5,.5a.57.57,0,0,0-.59.31,2.45,2.45,0,0,0,1,0,12.91,12.91,0,0,1,1.86-.21c3.36-.19,6.7-.65,10.07-.73,1.49,0,3-.17,4.46-.21.69,0,1.37-.11,2.06-.11a20.38,20.38,0,0,0,2.59-.09,3.43,3.43,0,0,1,.78-.07c2.28.12,4.54-.21,6.82-.19a14.64,14.64,0,0,1,2-.08c1.37.19,2.72-.23,4.09-.06.72.1,1.48,0,2.22.06a5.9,5.9,0,0,0,1.26,0h0c.36-.14.78,0,1.11-.26-.3-.17-.66.06-1.08-.2a14.38,14.38,0,0,1,2.58-.12,17.79,17.79,0,0,1,2.53,0c.84,0,1.68.06,2.52.09h0a2.56,2.56,0,0,1,.87.14h0c.21-.07.42-.15.62,0a1.14,1.14,0,0,1,.61,0,.39.39,0,0,1,.35-.06h0l.86,0c.24,0,.49-.16.73,0h0c.28,0,.56-.15.84,0a3.51,3.51,0,0,0,1,0,4.26,4.26,0,0,1,1.38-.07,12.59,12.59,0,0,0,1.5.1c.86,0,1.72.09,2.58.09a17.36,17.36,0,0,0,2,0c.1,0,.25,0,.29-.19A6.48,6.48,0,0,0,186.57,62.54ZM163,60.36s0,0,0,.07-.09.06-.14,0a.09.09,0,0,1-.05,0Zm-113.7,13c.07,0,.1,0,.14.06s0,.08-.06.08a.76.76,0,0,1-.16-.06A.6.6,0,0,1,49.29,73.33Zm19.84-2.39h0a.25.25,0,0,1,.25.1C69.3,71,69.13,71.19,69.13,70.94Zm29.93-4.73a5.11,5.11,0,0,1-1.61.06c-.24-.06-.38.17-.61.18-.49,0-1,.15-1.46.18-.24,0-.26.28-.49.29a5.68,5.68,0,0,1-2,.08c-.1,0-.22-.11-.28,0-.3.37-.71.18-1.06.26-.81.18-1.65.2-2.47.31-.61.08-1.21.13-1.81.25s-1.16.22-1.73.35a8.81,8.81,0,0,0-1.25.32.59.59,0,0,0,0,.13c.06,0,.13,0,.12.12h-.22l-.3-.09c-.22-.2-.35.14-.57.09a1.75,1.75,0,0,0-.58.09h0a1,1,0,0,1-.73.17c-.23,0-.48-.07-.51.39-.1-.26-.06-.37,0-.45-.22-.21-.48-.07-.68,0a7.66,7.66,0,0,1-.8.18c-.24,0-.53,0-.58.34,0,.06-.21.08-.32.12h0a.34.34,0,0,1-.19-.33c-.71.07-1.41.25-2.12.25-.28.32-.76,0-1,.33-.05.06-.15,0-.23,0s-.23-.1-.28,0c-.34.42-.83.28-1.25.37a2.6,2.6,0,0,1-1.3.09c-.18-.06-.35.09-.51.15-.42.16-.86,0-1.28.12a.46.46,0,0,0-.51-.18c-.59.08-1.2.13-1.8.2l-.35,0c0,.12,0,.25-.12.28l-.42,0a3.85,3.85,0,0,0-1.34.23,2.38,2.38,0,0,1-.91.3c-.54.06-1.08.1-1.62.15h0a6.86,6.86,0,0,0-1.5-.07l-1.86.23c-.1,0-.24,0-.28,0-.34.41-.86.28-1.27.41s-.62.13-.93.21l-1.17.35c-.81.22-1.64.33-2.46.53-.49.12-1,.25-1.47.4a19.82,19.82,0,0,1-2.88.44c-1.08.19-2.19.29-3.26.53a18.11,18.11,0,0,0-2.34.65,2,2,0,0,1-1.21.11,3,3,0,0,0-1.78.24c-.8.31-1.64.44-2.41.8a.7.7,0,0,1-.41.09c-.75-.22-1.38.28-2.09.3a.94.94,0,0,1-.34,0c-.4-.11-.4-.2-.21-.57a.69.69,0,0,1,.72-.4,13.67,13.67,0,0,0,1.41-.2h0c.07-.2.23-.14.38-.13,0-.09,0-.14.13-.14h.07l.25.06a.75.75,0,0,0,.05-.16c.31.18.49-.22.81-.16a2.77,2.77,0,0,0,.89-.1c.31-.05.63-.08,1-.12a1.19,1.19,0,0,0,.63-.17h0l.4-.06a.61.61,0,0,1,.43-.32.23.23,0,0,1,.25-.11c.77-.09,1.51-.38,2.29-.41a1.89,1.89,0,0,1,.53,0A3.91,3.91,0,0,0,48,74a5.89,5.89,0,0,0,1.51-.43c.19-.1.13-.21.11-.34,0,0-.1,0-.13,0s0-.06,0-.07.1,0,.11.06a10.27,10.27,0,0,0,3.14-.73A8,8,0,0,1,55.13,72a8,8,0,0,0,2-.45,4.42,4.42,0,0,1,1.65-.18,2.15,2.15,0,0,0,.84-.09,25,25,0,0,1,3.33-.5c.66-.08,1.31-.13,2-.23,1.5-.23,3-.53,4.49-.71,1.77-.22,3.48-.69,5.25-.9,1.55-.18,3.07-.59,4.63-.77.57-.07,1.14-.22,1.72-.26.3,0,.47-.26.75-.29.1.28.32.18.5.14.6-.1,1.18-.22,1.78-.33,1.34-.23,2.69-.42,4-.64,1.18-.2,2.38-.25,3.57-.37l.12-.1v0h0a1.24,1.24,0,0,1,1.38-.22c.2.07.37.2.59,0a.46.46,0,0,1,.35,0,4,4,0,0,0,1.53-.17,3.41,3.41,0,0,1,1.19.06c.1,0,.25.1.28.06.29-.32.7-.19,1-.27a1.71,1.71,0,0,1,1.31.12C99.39,66.05,99.3,66.21,99.06,66.21Zm14.57-1-.06,0s0,0,0,0,0,0,0,0Zm.94-.1,0,0s0,0,0,0,0,0,0,0S114.58,65.13,114.57,65.13Zm11.13-.84s-.06,0-.06,0,0,0,0,0l0,0A.07.07,0,0,1,125.7,64.29ZM143.64,63a1.89,1.89,0,0,1-1,0,.74.74,0,0,1-.42-.07,1.68,1.68,0,0,1,.78-.1c.28,0,.57-.16.85,0C143.86,63.09,143.73,63,143.64,63Zm1,0c-.06,0-.16,0-.14-.08s.08-.06.13-.06.1,0,.17.06S144.71,63.06,144.66,63.06Zm19.66-.92c.09,0,.2,0,.25.06a.12.12,0,0,1-.1.13c-.1,0-.21,0-.25-.09S164.27,62.15,164.32,62.14Zm-2.83.46a2.87,2.87,0,0,1-1.13,0,5.09,5.09,0,0,1-1.29.12h0l-1,0h0l-.49-.06a.53.53,0,0,1-.49,0c.18-.26.38-.21.6-.11l.37.08a1.53,1.53,0,0,1,1,0,7.06,7.06,0,0,1,1.45-.14h1a2.26,2.26,0,0,1,.9.09A1.14,1.14,0,0,1,161.49,62.6Zm4,.13a16.57,16.57,0,0,1-2.44,0h0l-.5-.05a1.68,1.68,0,0,1,1-.1,6.51,6.51,0,0,1,2,0,1,1,0,0,1,.61,0A1.25,1.25,0,0,1,165.53,62.73Zm7.54-.52a.36.36,0,0,1,0-.09s0,0,0,0a.41.41,0,0,1,.05.09Z"/></g><g id="NOSOTROS-4" data-name="NOSOTROS"><text class="cls-2" transform="matrix(0.92, -0.1, -0.08, 1, 2.53, 59.18)">nosotros</text></g></g></g></g></g></svg>