<svg xmlns="http://www.w3.org/2000/svg" viewBox="0 0 104.15 33.42"><defs><style>.cls-1{fill:#fafafa;}</style></defs><title>premio</title><g id="Layer_2" data-name="Layer 2"><g id="PROYECTOS"><g id="HQTC"><g id="EMMY"><path class="cls-1" d="M18.36,32.06v-.62c0-.05-.22-.09-.61-.13V29.53l-.86.06,0,0a3.93,3.93,0,0,0,.95-.08,5.31,5.31,0,0,0-1.29-.1,12.26,12.26,0,0,0-4.73-.86.66.66,0,0,0,.42-.38,2.37,2.37,0,0,1,.25-1c.12-.2.13-.56-.11-.66s-.25-.3-.22-.51.23-.3.41-.34c.5-.11.94-.73,1.29-1.11s.47-.61.73-.9.11-.27-.05-.38A10.4,10.4,0,0,1,12.88,22a12.94,12.94,0,0,1-2.75-3.69A5.55,5.55,0,0,0,9,16.74c-.73-.71-.72-.9-.1-1.68.12-.15.21-.43.47-.13a.2.2,0,0,0,.2,0c.18-.26.38-.13.58,0a.46.46,0,0,0,.69-.24c.15-.29.28-.58.43-.88a6.47,6.47,0,0,1,.66-1.21c.13-.15.26-.25.46-.09s.28,0,.35-.15a18.59,18.59,0,0,0,1.73-5.06,18.36,18.36,0,0,0,.22-3.85,6.06,6.06,0,0,0-.33-1.78c-.07.13-.23,1.91-.31,2.75A6.61,6.61,0,0,0,14,3.13c0-.28-.12-.91-.21-.9A30.21,30.21,0,0,1,12,9.88c-.19-.21-.34-.41-.45-.06l-.44.76c-.26-.67-.53-1.27-1.38-1l-.44.07c-.13-.06-.26-.13-.34.07l-.19.18,0,0a.06.06,0,0,0,0,0s0,0,0,0l0,0a.26.26,0,0,0-.19.41,2,2,0,0,1,.13.41.15.15,0,0,1-.06.19.12.12,0,0,1-.15-.06A7.9,7.9,0,0,1,7.23,9.61C7,9.15,6.45,8.1,6.29,7.76a3.44,3.44,0,0,0,.36-.28,3.63,3.63,0,0,0,.69-.87l.22.06.15,0h.17l0,0L8,6.59a.19.19,0,0,0,0-.08s0,0,0,0a.24.24,0,0,0,0-.07l0-.09-.11-.11L7.61,6a4.49,4.49,0,0,0,.25-2A1.63,1.63,0,0,0,8,3.84a1.64,1.64,0,0,0,.16-.29,2.24,2.24,0,0,0,.11-.31,1.13,1.13,0,0,0,0-.68,1.15,1.15,0,0,0-.45-.5,1.55,1.55,0,0,0-.29-.14,1.81,1.81,0,0,0-.31-.09L7,1.81a4.06,4.06,0,0,0-1-1A3.58,3.58,0,0,0,4.7.2a3.21,3.21,0,0,0-1.51,0,3.59,3.59,0,0,0-.51.2h0L2.61.4A.2.2,0,0,0,2.5.4a.2.2,0,0,0-.08.08.09.09,0,0,0,0,.06s0,0,0,0l-.22.1a2.33,2.33,0,0,0-.94,1A4.12,4.12,0,0,0,1,2.42H1l-.2-.07L.48,2.27l-.16,0a.4.4,0,0,0-.11,0l-.08,0,0,0L0,2.36a.19.19,0,0,0,0,.08A.11.11,0,0,0,0,2.5a.15.15,0,0,0,0,.08.28.28,0,0,0,.06.08l.11.12L.43,3l.32.23a4.51,4.51,0,0,0-.05,1,3.38,3.38,0,0,0-.27.36,2.54,2.54,0,0,0-.16.28,1.42,1.42,0,0,0-.11.31,1.1,1.1,0,0,0,0,.67.93.93,0,0,0,.05.1.06.06,0,0,1,0,0,.94.94,0,0,0,.45.47,1.7,1.7,0,0,0,.58.18l.24,0h0A4.08,4.08,0,0,0,1.82,7a4.17,4.17,0,0,0,1.08.88,3.35,3.35,0,0,0,1.34.43,2.83,2.83,0,0,0,.87-.05l.2.81a5.62,5.62,0,0,0,1.16,2.15,14.14,14.14,0,0,0,1.1,1.09c.12.11-.73.5-1,.81a.66.66,0,0,0-.11.62s.07.92.12,1.33A20,20,0,0,0,7.27,18a12.29,12.29,0,0,0,1.85,3.6,11.79,11.79,0,0,1,1.69,3.71c.08.31.18.63.27.94a6.14,6.14,0,0,1,.33,2c-.11.17-.23.15-.21.29v0a12.72,12.72,0,0,0-5,.86,5.26,5.26,0,0,0-1.28.1l.06,0v1.8c-.39,0-.61.08-.61.13v.62c-.37,0-.57.08-.57.13v.9c0,.18,3.38.33,7.55.33s7.56-.15,7.56-.33v-.9S18.72,32.1,18.36,32.06ZM6.87,6.8,7,6.49l0,0ZM4,4.7l-.15-.36c0-.09-.07-.19-.11-.28l.41.21.29.16c.09.21.17.42.25.63Zm.83.81c-.06.07-.1.2-.18.26l-.09,0-.1,0c-.09-.2-.18-.4-.26-.6Zm-2.12-2,.65.32.22.58,0,0L2.28,3.76ZM2,3.62l0,0-.18-.1.32-.21h0l.25.12Zm.44-.54c.15-.08.31-.17.47-.24,0,.09.07.18.1.27l-.27.12Zm.59.29.06,0,0,.07Zm.14-.65.34-.15.06,0c0,.1.09.19.13.29l-.18.06L3.31,3C3.27,2.91,3.24,2.81,3.21,2.72Zm.32.88-.14-.36.26-.1.2-.07L4.23,4Zm.31-1.14a9.32,9.32,0,0,1,1-.3.33.33,0,0,0,0,.19.24.24,0,0,0-.2.16.14.14,0,0,0,0,.06L4,2.76Zm.72,1.68a.59.59,0,0,0,0-.08C4.38,3.7,4.23,3.35,4.08,3c.21-.07.43-.13.65-.18l.08,0a.27.27,0,0,0,.36-.14h0l.69-.1.27,0a4.3,4.3,0,0,1,.32.6,5.26,5.26,0,0,1,.43,1.38,6.54,6.54,0,0,1-.73.48Zm.77-2.09.33,0c.11.12.21.24.31.37H5.84c-.23,0-.46.06-.7.1h0a.26.26,0,0,0,.21-.16A.31.31,0,0,0,5.33,2.05ZM6.92,5a5,5,0,0,1,0,.55l-.4-.25Zm.33,1.15-.06.11-.1,0,0-.16a.57.57,0,0,1,.13.08Zm.23.21v0l.06,0Zm-.12-.51-.18-.12a4.57,4.57,0,0,0,0-1c.12-.11.24-.23.35-.35A4.17,4.17,0,0,1,7.36,5.83Zm.47-2.24,0,.05c0-.12,0-.24-.07-.35s-.1-.3-.15-.45a.67.67,0,0,1,.27.31A.67.67,0,0,1,7.83,3.59ZM7.38,2.11a1.05,1.05,0,0,1,.26.13,1,1,0,0,1,.37.4,1,1,0,0,1,0,.42.92.92,0,0,0-.43-.46l-.16-.07a5.42,5.42,0,0,0-.26-.48A1.39,1.39,0,0,1,7.38,2.11Zm-.22.56a3.66,3.66,0,0,1,.25.7A3.29,3.29,0,0,1,7.53,4a3.23,3.23,0,0,1-.37.37,5.3,5.3,0,0,0-.4-1.3,4.09,4.09,0,0,0-.25-.46l.48,0ZM7,2.41H7a3.91,3.91,0,0,0-.68-.06C6.26,2.22,6.15,2.09,6,2a5.77,5.77,0,0,1,.72,0A4,4,0,0,1,7,2.41ZM4.64.47a3.45,3.45,0,0,1,1.25.6,3.77,3.77,0,0,1,.7.68,4.09,4.09,0,0,0-.7,0h0a5,5,0,0,0-1-.74A3.93,3.93,0,0,0,3.57.52l-.29,0A3,3,0,0,1,4.64.47ZM3.52.75a3.91,3.91,0,0,1,1.22.49,4.34,4.34,0,0,1,.72.56A5.5,5.5,0,0,0,4.65,2a7.35,7.35,0,0,0-.91.28l0,0c-.15-.31-.3-.62-.46-.92C3.18,1.11,3.09,1,3,.81a.61.61,0,0,0-.07-.1A2.88,2.88,0,0,1,3.52.75ZM2.78,1c.09.14.17.29.25.43.16.3.32.6.46.91v0l0,0-.33.15v0c-.11-.32-.22-.64-.31-1L2.68,1a2.08,2.08,0,0,1,0-.23C2.69.82,2.74.88,2.78,1ZM1.38,2A3.6,3.6,0,0,1,2,1.14,2.42,2.42,0,0,1,2.4.87a.88.88,0,0,0,0,.17c0,.18.08.34.12.51.1.33.2.66.31,1a.14.14,0,0,0,0,.06c-.19.09-.37.19-.55.29L2.2,3c-.3-.14-.61-.28-.92-.4l-.09,0A4.76,4.76,0,0,1,1.38,2Zm-.26.86,0,0c.24.09.47.2.71.3l-.27.19L1.08,3C1.09,3,1.11,2.9,1.12,2.84Zm.59,1A1.88,1.88,0,0,0,1.48,4,4.06,4.06,0,0,0,1,4.34a1.09,1.09,0,0,1,0-.18c.13-.13.28-.26.43-.39l.09-.06ZM1,3.39l.29.19h0L1,3.85C1,3.7,1,3.54,1,3.39ZM.63,2.7.56,2.64l.09,0,.2.07,0,.1Zm.1,1.79v.07H.68ZM.44,5h0l0,0ZM1.3,6.3,1,6.22A1.57,1.57,0,0,1,.76,6.1a1.07,1.07,0,0,1-.34-.33.7.7,0,0,1,.06-.4A1.43,1.43,0,0,1,.63,5.1H.68a.28.28,0,0,0,.13,0A3.34,3.34,0,0,0,1,5.83a4.31,4.31,0,0,0,.26.47Zm.36,0,0,0a4.68,4.68,0,0,1-.3-.59A3.52,3.52,0,0,1,1,4.62a6.26,6.26,0,0,1,.57-.45L1.94,4c.59.35,1.2.69,1.81,1l0,0L4,5.56a.27.27,0,0,0-.31.16.28.28,0,0,0,.09.33,6.82,6.82,0,0,1-1.33.27A4.5,4.5,0,0,1,1.66,6.34ZM3.87,8,3.55,7.9A3.48,3.48,0,0,1,3,7.66a4.07,4.07,0,0,1-1-.84,1.83,1.83,0,0,1-.13-.16h.62a7.52,7.52,0,0,0,1.25-.17l.36-.1c.08,0,.13,0,.14.08s.09.36.11.43a1.64,1.64,0,0,0,.48.64A2.87,2.87,0,0,1,5,8,2.88,2.88,0,0,1,3.87,8ZM5,5.22c-.07-.2-.15-.41-.23-.61.37.2.73.4,1.1.62l-.43.21Zm.74,2.5a.06.06,0,0,0,0,0l0,.05h0Zm0,.35L5.83,8c0,.18.1.55.1.55S5.78,8.27,5.71,8.07ZM6,5.61l.11-.07a.57.57,0,0,0,.13-.08l.64.4c0,.08,0,.16,0,.23L6,5.75A.38.38,0,0,0,6,5.61Zm.11.51.64.27A2.66,2.66,0,0,1,6.46,7a2.19,2.19,0,0,1-.29.39A7.81,7.81,0,0,1,6.1,6.12Z"/><path class="cls-1" d="M23.71,27.59V22.54l3.45,3.61V22.86h.72v5l-3.45-3.6v3.31Z"/><path class="cls-1" d="M28.82,25.2a2.29,2.29,0,0,1,.73-1.71,2.39,2.39,0,0,1,1.75-.72,2.48,2.48,0,0,1,2.46,2.46A2.3,2.3,0,0,1,33,27a2.51,2.51,0,0,1-3.41.08A2.31,2.31,0,0,1,28.82,25.2Zm.72,0a1.72,1.72,0,0,0,.52,1.29,1.7,1.7,0,0,0,1.21.51,1.72,1.72,0,0,0,1.26-.52A1.75,1.75,0,0,0,33,25.22,1.71,1.71,0,0,0,32.53,24a1.62,1.62,0,0,0-1.24-.52A1.68,1.68,0,0,0,30,24,1.7,1.7,0,0,0,29.54,25.21Z"/><path class="cls-1" d="M34.49,27.59l1-5.09,1.62,3.68,1.68-3.68.9,5.09H39l-.45-2.86-1.4,3.08-1.36-3.08-.51,2.86Z"/><path class="cls-1" d="M41.4,22.86v4.73h-.71V22.86Z"/><path class="cls-1" d="M42.54,27.59V22.54L46,26.15V22.86h.71v5l-3.45-3.6v3.31Z"/><path class="cls-1" d="M50.65,26.44h-2l-.52,1.15h-.77l2.34-5,2.26,5h-.78Zm-.29-.67-.7-1.61-.74,1.61Z"/><path class="cls-1" d="M53.56,23.53v4.06h-.71V23.53H51.76v-.67h2.88v.67Z"/><path class="cls-1" d="M57.89,23.53H56v1.14h1.84v.67H56v1.58h1.9v.67H55.28V22.86h2.61Z"/><path class="cls-1" d="M58.83,27.59V22.86h1A3.76,3.76,0,0,1,61,23a2.11,2.11,0,0,1,.8.47,2.45,2.45,0,0,1,0,3.52,2.28,2.28,0,0,1-.8.47,3.91,3.91,0,0,1-1.11.13Zm.71-.67h.32a3,3,0,0,0,.8-.1,1.88,1.88,0,0,0,.58-.34,1.79,1.79,0,0,0,0-2.52,2,2,0,0,0-1.38-.43h-.32Z"/><path class="cls-1" d="M25.88,7.59c0-3.9,0-4.6-.05-5.39S25.59,1,24.76.77A4.64,4.64,0,0,0,23.91.7c-.1,0-.2,0-.2-.15s.13-.2.4-.2c.58,0,1.25,0,1.8,0l1,0c.18,0,5.14,0,5.72,0A7.15,7.15,0,0,0,33.72.27c.12,0,.22-.12.35-.12s.1.1.1.22S34,.85,34,1.55c0,.25-.08,1.34-.13,1.64,0,.13-.07.28-.17.28s-.2-.13-.2-.33a2.53,2.53,0,0,0-.15-.89c-.17-.4-.42-.7-1.77-.85-.43,0-3.15-.08-3.42-.08-.1,0-.15.08-.15.25V8.46c0,.17,0,.25.15.25.32,0,3.39,0,4-.05s.95-.1,1.17-.35.28-.32.37-.32.13,0,.13.19-.13.58-.2,1.4c0,.5-.1,1.42-.1,1.6s0,.47-.17.47-.18-.1-.18-.22a2.51,2.51,0,0,0-.1-.82c-.1-.35-.32-.78-1.3-.88-.67-.07-3.14-.12-3.56-.12-.13,0-.18.07-.18.17V12c0,.85,0,3.74,0,4.26.08,1.73.45,2.05,2.9,2.05A7.27,7.27,0,0,0,33.27,18c.65-.28.95-.78,1.12-1.8,0-.27.1-.37.23-.37s.15.2.15.37a23,23,0,0,1-.33,2.42c-.17.65-.37.65-1.34.65-1.88,0-3.25-.05-4.22-.08s-1.57-.07-1.95-.07l-1,0c-.49,0-1.07.05-1.44.05s-.4-.05-.4-.2.05-.15.2-.15a4,4,0,0,0,.75-.1c.5-.09.62-.64.72-1.37.12-1.05.12-3,.12-5.41Z"/><path class="cls-1" d="M57.67,16c.1.9.28,2.3,1.35,2.65a5.49,5.49,0,0,0,1.62.22c.13,0,.2,0,.2.12s-.22.23-.52.23c-.55,0-3.25,0-4.17-.1-.57-.05-.7-.13-.7-.25s0-.15.18-.17.15-.45.1-.9L54.53,4.87h-.08l-6.11,13c-.52,1.1-.6,1.32-.82,1.32s-.3-.25-.78-1.14c-.64-1.23-2.79-5.54-2.92-5.79-.22-.45-3-6.44-3.29-7.11h-.1l-1,11.57c0,.4,0,.85,0,1.28a.79.79,0,0,0,.65.77,4.46,4.46,0,0,0,.94.12c.1,0,.2.05.2.13s-.15.22-.44.22c-.93,0-2.13-.07-2.33-.07s-1.42.07-2.09.07c-.25,0-.43-.05-.43-.22s.13-.13.25-.13a3.41,3.41,0,0,0,.75-.07c.83-.15.9-1.12,1-2.07L39.71.45c0-.28.12-.45.27-.45s.25.1.38.37L48,16.07,55.33.4c.1-.23.2-.4.37-.4s.25.2.3.67Z"/><path class="cls-1" d="M81.88,16c.1.9.27,2.3,1.34,2.65a5.58,5.58,0,0,0,1.63.22c.12,0,.2,0,.2.12s-.23.23-.53.23c-.55,0-3.24,0-4.17-.1-.57-.05-.69-.13-.69-.25s0-.15.17-.17.15-.45.1-.9L78.73,4.87h-.07l-6.12,13c-.52,1.1-.6,1.32-.82,1.32s-.3-.25-.77-1.14c-.65-1.23-2.8-5.54-2.92-5.79-.23-.45-3-6.44-3.3-7.11h-.1l-1,11.57c0,.4,0,.85,0,1.28a.79.79,0,0,0,.65.77,4.46,4.46,0,0,0,.95.12c.1,0,.2.05.2.13s-.15.22-.45.22c-.93,0-2.12-.07-2.32-.07s-1.43.07-2.1.07c-.25,0-.42-.05-.42-.22s.12-.13.25-.13a3.33,3.33,0,0,0,.74-.07c.83-.15.9-1.12,1-2.07L63.91.45c0-.28.12-.45.27-.45s.25.1.38.37l7.63,15.7L79.53.4c.1-.23.2-.4.37-.4s.25.2.3.67Z"/><path class="cls-1" d="M90,12.75a5.33,5.33,0,0,0-.57-2.62c-.17-.4-3.52-5.89-4.39-7.19a7.09,7.09,0,0,0-1.7-1.84A2.38,2.38,0,0,0,82.25.7c-.13,0-.25,0-.25-.18s.1-.17.32-.17c.48,0,2.35.07,2.47.07s1.13-.07,2.1-.07c.27,0,.32.07.32.17s-.15.13-.37.23a.5.5,0,0,0-.32.45,2.08,2.08,0,0,0,.32,1c.4.72,4.14,7.16,4.59,7.89.48-1.05,3.64-6.52,4.14-7.34A2.4,2.4,0,0,0,96,1.45c0-.35-.1-.63-.4-.7S95.22.62,95.22.5s.15-.15.4-.15c.65,0,1.45.07,1.65.07s2-.07,2.42-.07c.18,0,.33.05.33.15s-.13.2-.33.2a2.4,2.4,0,0,0-1.15.35,4.8,4.8,0,0,0-1.32,1.27,79.86,79.86,0,0,0-4.77,7.94,6,6,0,0,0-.37,2.49V14.9c0,.4,0,1.44.07,2.49,0,.73.28,1.28,1,1.37a10.94,10.94,0,0,0,1.12.1c.15,0,.2.08.2.15s-.12.2-.4.2c-1.37,0-2.94-.07-3.07-.07s-1.69.07-2.44.07c-.28,0-.4-.05-.4-.2s0-.15.2-.15a4,4,0,0,0,.75-.1c.49-.09.72-.64.77-1.37C90,16.34,90,15.3,90,14.9Z"/><path class="cls-1" d="M101.13,1.79a1.51,1.51,0,1,1,1.51,1.43A1.43,1.43,0,0,1,101.13,1.79Zm2.74,0a1.23,1.23,0,0,0-2.46,0A1.19,1.19,0,0,0,102.66,3,1.17,1.17,0,0,0,103.87,1.78Zm-1.78-.23c0-.25,0-.36,0-.45s0-.11-.18-.11,0,0,0,0,0,0,.08,0h.64c.28,0,.69,0,.69.44,0,.16,0,.29-.29.49l.27.35c.22.26.28.27.32.27a0,0,0,0,1,0,0s0,0-.11,0-.33,0-.57-.31l-.23-.32h-.3v.15c0,.33,0,.35,0,.36a.47.47,0,0,0,.17,0s0,0,0,0,0,0-.07,0h-.06l-.27,0-.24,0h-.09s-.06,0-.06,0a.06.06,0,0,1,.06,0c.15,0,.15,0,.17-.09s0-.2,0-.46Zm.29.19a.44.44,0,0,0,.25.05.25.25,0,0,0,.16-.05.31.31,0,0,0,.15-.29.38.38,0,0,0-.41-.4s-.12,0-.15,0Z"/><path class="cls-1" d="M23.71,33.19v-2.5l1.71,1.79V30.85h.36v2.49l-1.71-1.79v1.64Z"/><path class="cls-1" d="M26.65,32a1.16,1.16,0,0,1,.36-.85A1.23,1.23,0,0,1,29.1,32a1.15,1.15,0,0,1-.36.86,1.22,1.22,0,0,1-1.69,0A1.13,1.13,0,0,1,26.65,32ZM27,32a.87.87,0,0,0,.86.89.89.89,0,0,0,.62-1.51.81.81,0,0,0-.61-.25.83.83,0,0,0-.62.25A.84.84,0,0,0,27,32Z"/><path class="cls-1" d="M30,33.19v-2.5l1.71,1.79V30.85H32v2.49L30.3,31.55v1.64Z"/><path class="cls-1" d="M32.7,32.29h.68v.3H32.7Z"/><path class="cls-1" d="M35.36,31.18h-.94v.56h.91v.34h-.91v.78h.94v.33h-1.3V30.85h1.3Z"/><path class="cls-1" d="M36.22,33.19v-2.5l1.71,1.79V30.85h.36v2.49l-1.71-1.79v1.64Z"/><path class="cls-1" d="M40.48,32h1v.08a1.68,1.68,0,0,1-.06.47,1.13,1.13,0,0,1-.2.35,1.09,1.09,0,0,1-.83.37,1.16,1.16,0,0,1-.85-.36,1.23,1.23,0,0,1,.88-2.08,1.26,1.26,0,0,1,.51.11,1.63,1.63,0,0,1,.45.37l-.25.24a.86.86,0,0,0-.71-.38.84.84,0,0,0-.62.25.86.86,0,0,0-.25.64.89.89,0,0,0,.85.88.71.71,0,0,0,.47-.18.64.64,0,0,0,.23-.43h-.59Z"/><path class="cls-1" d="M42.66,30.85v2h.69v.33H42.3V30.85Z"/><path class="cls-1" d="M44.44,30.85v2.34h-.35V30.85Z"/><path class="cls-1" d="M46.73,31.2l-.28.17a.41.41,0,0,0-.16-.18.29.29,0,0,0-.19-.05.36.36,0,0,0-.25.08.27.27,0,0,0-.09.21c0,.11.08.2.25.27l.24.1a1,1,0,0,1,.41.28.64.64,0,0,1,.14.41.73.73,0,0,1-.22.53.77.77,0,0,1-.54.22.71.71,0,0,1-.5-.18.85.85,0,0,1-.25-.51l.36-.08a.54.54,0,0,0,.09.28.35.35,0,0,0,.31.15.36.36,0,0,0,.28-.11.38.38,0,0,0,.11-.28.5.5,0,0,0,0-.12.24.24,0,0,0-.06-.11l-.1-.09-.16-.08L45.88,32c-.32-.14-.48-.33-.48-.6a.55.55,0,0,1,.2-.44.71.71,0,0,1,.5-.18A.69.69,0,0,1,46.73,31.2Z"/><path class="cls-1" d="M48,31.77h1v-.92h.36v2.34H49V32.1H48v1.09h-.35V30.85H48Z"/><path class="cls-1" d="M52,30.85v1.41a.73.73,0,0,0,.1.44.47.47,0,0,0,.41.2.48.48,0,0,0,.42-.2.71.71,0,0,0,.1-.44V30.85h.35v1.51a.83.83,0,0,1-.23.61.88.88,0,0,1-1.27,0,.83.83,0,0,1-.23-.61V30.85Z"/><path class="cls-1" d="M54.33,33a.2.2,0,0,1,.06-.14.19.19,0,0,1,.15-.07.18.18,0,0,1,.15.07.2.2,0,0,1,.06.14.25.25,0,0,1-.06.16.22.22,0,0,1-.3,0A.25.25,0,0,1,54.33,33Z"/><path class="cls-1" d="M57,31.2l-.28.17a.41.41,0,0,0-.16-.18.29.29,0,0,0-.19-.05.36.36,0,0,0-.25.08.27.27,0,0,0-.09.21c0,.11.08.2.25.27l.23.1a1.06,1.06,0,0,1,.42.28.63.63,0,0,1,.13.41.72.72,0,0,1-.21.53.77.77,0,0,1-.54.22.71.71,0,0,1-.5-.18.8.8,0,0,1-.25-.51l.36-.08a.67.67,0,0,0,.08.28.38.38,0,0,0,.32.15.36.36,0,0,0,.28-.11.38.38,0,0,0,.11-.28.5.5,0,0,0,0-.12.24.24,0,0,0-.06-.11l-.1-.09-.16-.08L56.18,32c-.32-.14-.48-.33-.48-.6a.55.55,0,0,1,.2-.44.71.71,0,0,1,.5-.18A.69.69,0,0,1,57,31.2Z"/><path class="cls-1" d="M57.91,33a.25.25,0,0,1,.21-.21.18.18,0,0,1,.15.07.21.21,0,0,1,.07.14.26.26,0,0,1-.07.16.22.22,0,0,1-.3,0A.25.25,0,0,1,57.91,33Z"/><path class="cls-1" d="M61,32.24v.95h-.36V30.85h.4a1.72,1.72,0,0,1,.45,0,.72.72,0,0,1,.27.15.7.7,0,0,1,.2.5.61.61,0,0,1-.22.51.81.81,0,0,1-.58.19Zm0-.33h.13c.33,0,.49-.12.49-.37s-.17-.37-.51-.37H61Z"/><path class="cls-1" d="M63.53,32.19l.73,1h-.43l-.67-1h-.07v1h-.35V30.85h.41a1.06,1.06,0,0,1,.67.17.62.62,0,0,1,.23.52.66.66,0,0,1-.14.42A.63.63,0,0,1,63.53,32.19Zm-.44-.26h.11q.51,0,.51-.39c0-.24-.17-.36-.49-.36h-.13Z"/><path class="cls-1" d="M65.37,30.85v2.34H65V30.85Z"/><path class="cls-1" d="M66.26,33.19l.49-2.52.8,1.82.84-1.82.44,2.52h-.36l-.23-1.41-.69,1.52-.68-1.52-.25,1.41Z"/><path class="cls-1" d="M71,31.18h-.94v.56H71v.34h-.91v.78H71v.33h-1.3V30.85H71Z"/><path class="cls-1" d="M72.54,31.18v2h-.35v-2h-.54v-.33h1.43v.33Z"/><path class="cls-1" d="M74.15,30.85v2.34H73.8V30.85Z"/><path class="cls-1" d="M75,33.19l.49-2.52.81,1.82.83-1.82.45,2.52h-.37L77,31.78l-.7,1.52-.67-1.52-.25,1.41Z"/><path class="cls-1" d="M79.81,31.18h-.94v.56h.91v.34h-.91v.78h.94v.33H78.52V30.85h1.29Z"/><path class="cls-1" d="M82.4,32.24v.95H82V30.85h.4a1.72,1.72,0,0,1,.45,0,.72.72,0,0,1,.27.15.7.7,0,0,1,.2.5.61.61,0,0,1-.22.51.81.81,0,0,1-.58.19Zm0-.33h.13c.32,0,.49-.12.49-.37s-.17-.37-.51-.37H82.4Z"/><path class="cls-1" d="M84.92,32.19l.73,1h-.43l-.67-1h-.07v1h-.35V30.85h.41a1.06,1.06,0,0,1,.67.17.62.62,0,0,1,.23.52.66.66,0,0,1-.14.42A.63.63,0,0,1,84.92,32.19Zm-.44-.26h.11q.51,0,.51-.39c0-.24-.17-.36-.49-.36h-.13Z"/><path class="cls-1" d="M86.23,32a1.17,1.17,0,0,1,.37-.85,1.23,1.23,0,0,1,2.09.86,1.12,1.12,0,0,1-.37.86,1.19,1.19,0,0,1-.87.36,1.23,1.23,0,0,1-.82-.32A1.16,1.16,0,0,1,86.23,32Zm.36,0a.88.88,0,0,0,1.49.64.89.89,0,0,0,.25-.63.85.85,0,0,0-.25-.63.83.83,0,0,0-.62-.25.84.84,0,0,0-.62.25A.89.89,0,0,0,86.59,32Z"/><path class="cls-1" d="M90.74,32h1v.08a1.68,1.68,0,0,1-.06.47,1,1,0,0,1-.21.35,1.06,1.06,0,0,1-.83.37,1.12,1.12,0,0,1-.84-.36,1.22,1.22,0,0,1,0-1.72,1.15,1.15,0,0,1,.86-.36,1.27,1.27,0,0,1,.52.11,1.63,1.63,0,0,1,.45.37l-.26.24a.83.83,0,0,0-.7-.38.81.81,0,0,0-.62.25.87.87,0,0,0-.26.64.82.82,0,0,0,.29.64.81.81,0,0,0,.56.24.67.67,0,0,0,.47-.18.65.65,0,0,0,.24-.43h-.59Z"/><path class="cls-1" d="M93.35,32.19l.73,1h-.43l-.67-1h-.07v1h-.35V30.85H93a1.11,1.11,0,0,1,.68.17.65.65,0,0,1,.22.52.61.61,0,0,1-.14.42A.6.6,0,0,1,93.35,32.19Zm-.44-.26H93c.33,0,.5-.13.5-.39s-.16-.36-.49-.36h-.13Z"/><path class="cls-1" d="M96.21,32.62h-1l-.26.57h-.38l1.16-2.49,1.12,2.49h-.39Zm-.14-.33-.35-.8-.36.8Z"/><path class="cls-1" d="M97.46,33.19l.5-2.52.8,1.82.84-1.82.44,2.52h-.36l-.23-1.41-.69,1.52-.68-1.52-.25,1.41Z"/></g></g></g></g></svg>