<svg xmlns="http://www.w3.org/2000/svg" viewBox="0 0 10.094 40.09"><defs><style>.cls-1{fill:#fff;}</style></defs><title>right-wrap</title><g id="Layer_2" data-name="Layer 2"><g id="MENU"><g id="MENU-2" data-name="MENU"><g id="PROJECTS"><g id="CORCHETES"><polygon class="cls-1" points="7.341 16.294 7.341 16.294 7.341 16.294 7.341 16.294"/><path class="cls-1" d="M5.657,35.616h0a.155.155,0,0,1,0-.023A.155.155,0,0,0,5.657,35.616Z"/><polygon class="cls-1" points="7.868 22.761 7.855 22.761 7.868 22.761 7.868 22.761"/><path class="cls-1" d="M7.506,32.125h0l-.034.064A.245.245,0,0,0,7.506,32.125Z"/><path class="cls-1" d="M10.092,20.045l0,0h0c-.028,0-.055,0-.083,0s-.041,0-.048-.03.012-.056.039-.069V19.9l0,0c-.1,0-.206,0-.309,0-.041,0-.085,0-.105-.054.007-.057.072-.048.084-.1-.029-.066.019-.043.042-.05v-.1L9.581,19.6H9.538L9.5,19.6c-.034.037-.069.059-.107.006h0l-.013,0L9.369,19.6a.081.081,0,0,1-.081-.049h0c-.028,0-.044-.013-.053-.043a.026.026,0,0,1-.034-.015.054.054,0,0,1-.06-.031h0c-.014,0-.022,0-.024-.019a.038.038,0,0,1-.041-.038h0c-.027,0-.039-.021-.048-.046l-.038-.02c-.021,0-.032-.012-.035-.035l0,0c-.025,0-.038-.018-.045-.043a.054.054,0,0,1-.051-.046c-.022,0-.036-.012-.037-.04a.135.135,0,0,1-.078-.064h0c-.024,0-.048,0-.049-.04a.174.174,0,0,1-.042-.1.061.061,0,0,1-.038-.053.057.057,0,0,1-.043-.049.051.051,0,0,1-.042-.05.052.052,0,0,1-.039-.052h0a.038.038,0,0,1-.034-.047c-.014,0-.019-.012-.016-.028a.079.079,0,0,1-.041-.066.052.052,0,0,1-.037-.055.042.042,0,0,1-.032-.049c-.014,0-.02-.013-.016-.03a.073.073,0,0,1-.04-.066.052.052,0,0,1-.035-.054l0,0A.037.037,0,0,1,8.2,18.32a.033.033,0,0,1-.016-.039.243.243,0,0,0-.037-.062h0a.04.04,0,0,1-.029-.046.033.033,0,0,1-.017-.04.076.076,0,0,1-.048-.056.03.03,0,0,1-.035-.016c-.032,0-.064,0-.081-.038h0c-.08-.046-.047-.125-.041-.2l-.006-.088a.055.055,0,0,1-.041-.057c-.036-.022-.038-.062-.038-.1v0a.117.117,0,0,1-.045-.094c-.037-.018-.039-.058-.043-.1a.041.041,0,0,1-.031-.052.037.037,0,0,1-.011-.041.054.054,0,0,1-.034-.057l-.013-.009v-.018a.066.066,0,0,1-.029-.072.031.031,0,0,1-.01-.039.062.062,0,0,1-.035-.062l0,0c-.034-.014-.031-.034-.006-.056h0l-.038-.053c-.035-.013-.042-.046-.043-.082a.055.055,0,0,1-.038-.052l0,0c-.042-.015-.038-.055-.036-.093a.034.034,0,0,1-.011-.043.194.194,0,0,1-.033-.154.083.083,0,0,1-.011-.086c-.022-.039-.06-.079,0-.114h0l.04-.065h0v-.071c-.072-.085-.045-.194-.054-.3h0c-.053-.126-.041-.271-.084-.4h0v0a1.035,1.035,0,0,1-.025-.4v-.051l0-.148v0c-.016-.005-.022-.015-.015-.029s.011-.007.016-.009l0-.006,0-.1,0,0-.006,0-.025-.017.029-.023h0c.013-.115-.034-.24.041-.346.018-.1-.043-.211.044-.294h0c.043-.061-.035-.149.032-.2a3.042,3.042,0,0,1,.031-.382.344.344,0,0,1,.012-.064h0l.012-.141c-.032-.033-.085-.066,0-.1.042-.1-.053-.216.042-.3l0-.079a.076.076,0,0,1,0-.115.262.262,0,0,1,.039-.165h0v-.013a.056.056,0,0,1,0-.087h0l0-.019.013-.011c.018-.066-.029-.145.026-.2L7.512,12a.034.034,0,0,1,0-.04h0c-.031-.021-.034-.042,0-.06a.271.271,0,0,1,.039-.151.822.822,0,0,1,.042-.362h0v-.009a.08.08,0,0,1,0-.12.069.069,0,0,1,0-.047v-.05a.131.131,0,0,1,.035-.115h0l0-.018.01-.015a.478.478,0,0,1,.037-.265h0a.249.249,0,0,1,.008-.13.093.093,0,0,1,.031-.105.847.847,0,0,1,.033-.261.146.146,0,0,1,.012-.033h0l.009-.094v-.05C7.773,10,7.75,9.92,7.8,9.854a.07.07,0,0,1,0-.095h0c0-.059-.028-.12.008-.177v-.2a.162.162,0,0,1,.035-.156h0l.008-.14a2.967,2.967,0,0,1,.033-.618h0A.077.077,0,0,1,7.894,8.4l0-.1a.078.078,0,0,1,0-.115h0l-.006-.01.006-.01c-.024-.023-.033-.047,0-.071l0-.09a.527.527,0,0,1-.036-.3c-.032-.065,0-.132,0-.2a.077.077,0,0,1,0-.112h0V7.322c-.064-.094-.019-.2-.032-.3l0-.052h0l-.006-.146v-.05l0-.1A.022.022,0,0,1,7.8,6.638a.238.238,0,0,1,0-.227,4.127,4.127,0,0,1,.01-.629v-.1A1.2,1.2,0,0,1,7.8,5.4a.148.148,0,0,1-.013-.035.624.624,0,0,1-.026-.22.071.071,0,0,1,0-.082A.577.577,0,0,1,7.72,4.8a.343.343,0,0,1-.046-.227c-.048-.045-.037-.109-.039-.168a.351.351,0,0,1-.044-.184c-.044-.024-.043-.066-.034-.111a.041.041,0,0,1-.007-.041c-.052-.036-.041-.1-.045-.152-.035-.022-.038-.061-.041-.1-.053-.037-.039-.1-.038-.152h0a.109.109,0,0,1-.036-.1.022.022,0,0,1-.012-.031.063.063,0,0,1-.045-.058c-.023-.011-.026-.033-.024-.059A.035.035,0,0,1,7.3,3.371a.112.112,0,0,1-.03-.1l-.013-.09c-.045-.02-.042-.064-.038-.108a.455.455,0,0,1-.088-.24A.046.046,0,0,1,7.1,2.772a.039.039,0,0,1-.011-.04.047.047,0,0,1-.032-.058.039.039,0,0,1-.011-.04.05.05,0,0,1-.035-.059L7,2.565l0-.017a.065.065,0,0,1-.029-.072.039.039,0,0,1-.009-.042.05.05,0,0,1-.03-.056l-.012-.046a.128.128,0,0,1-.049-.094.06.06,0,0,1-.033-.059h0a.1.1,0,0,1-.053-.087.061.061,0,0,1-.033-.059.042.042,0,0,1-.033-.049q-.019,0-.015-.027a.082.082,0,0,1-.041-.067.048.048,0,0,1-.037-.055.236.236,0,0,1-.087-.145.185.185,0,0,1-.081-.1h0c-.026,0-.04-.018-.039-.05l0,0a.119.119,0,0,1-.05-.087.055.055,0,0,1-.036-.056h0a.049.049,0,0,1-.038-.051l.038.051a.212.212,0,0,1-.038-.051l0,0a.044.044,0,0,1-.039-.046l0,0c-.023,0-.035-.019-.038-.046l0,0a.041.041,0,0,1-.038-.045l0-.006a.045.045,0,0,1-.039-.043l0-.005c-.024,0-.037-.017-.044-.042h0c-.026,0-.041-.016-.046-.045A.222.222,0,0,1,5.9.95C5.874.95,5.865.928,5.858.9,5.825.9,5.786.9,5.781.845l0,0L5.733.8c-.026,0-.043-.011-.051-.04A.078.078,0,0,1,5.639.7c-.013.007-.023,0-.03-.013C5.566.681,5.546.64,5.523.6,5.5.6,5.486.58,5.479.555A.049.049,0,0,1,5.431.514a.232.232,0,0,1-.12-.108A.107.107,0,0,1,5.229.353h0C5.168.332,5.093.39,5.041.311l-.014,0L5.018.3a.1.1,0,0,1-.1-.042C4.907.27,4.9.267,4.891.252,4.853.26,4.828.237,4.807.205h0a.1.1,0,0,1-.1-.042l-.016,0L4.68.153A.076.076,0,0,1,4.6.107c-.037,0-.073,0-.093-.046A.024.024,0,0,1,4.468.046C4.443.051,4.429.035,4.42.01A.029.029,0,0,1,4.383,0L4.344.018C4.306.1,4.212.024,4.172.1c.105.085.24.1.342.19h0c.026.012.077-.007.067.048-.006.036-.044.013-.069,0L4.264.249C4.23.256,4.191.255,4.173.3c.055.061.142.06.2.137-.089.038-.147-.006-.2-.084-.047,0-.1.016-.127-.044A.06.06,0,0,1,4.005.3.843.843,0,0,1,3.746.21C3.7.2,3.642.218,3.605.163h0L3.539.15,3.463.165l0,.085c.015-.005.025,0,.032.016.025-.005.039.01.048.035h.021l.015.015c.026-.006.037.012.046.035h.021l.017.013.295.1L4.3.6c.069.048.184.005.208.14l0,0h0V.751c.075-.016.118.048.17.093a.04.04,0,0,1,.037.019c.035.087.137.082.172.169h0c.017.007.036.014.031.042,0,0-.02.006-.03.008h0A.368.368,0,0,1,4.723.939C4.682.951,4.669.9,4.64.887h0C4.6.846,4.515.848,4.514.753l0,0h0v0l0,0L4.238.675A.224.224,0,0,1,4.2.665L4.161.655c-.08,0-.109-.13-.2-.1a.369.369,0,0,1,0,.047c.014.016.027.034.042.049s.04.017.046.045C4.074.7,4.1.707,4.09.748L4.1.762,4.094.778l.094.063h0l.016,0,.012.014c.047,0,.1-.009.131.043l.039.019c.02,0,.032.013.038.034h0a.073.073,0,0,1,.08.05l0,0a.061.061,0,0,1,.056.039h.019l.012.018c.024,0,.035.014.041.037h0a.048.048,0,0,1,.05.041.054.054,0,0,1,.041.05.047.047,0,0,1,.034.056l.012.011,0,.017c.029.015.067.02.068.072a.046.046,0,0,1,.011.044l.043.051c.043.011.045.053.052.091a.048.048,0,0,1,.028.06.021.021,0,0,1,.008.031.092.092,0,0,1,.058.06c.02.005.028.019.026.042a.066.066,0,0,1,.038.064.042.042,0,0,1,.032.049c.026.025.017.057.013.088a.055.055,0,0,1,.037.062v0a.14.14,0,0,1,.048.091.051.051,0,0,1,.039.051.05.05,0,0,1,.038.054v0c.044.036.032.094.04.145l0,0a.118.118,0,0,1,.056.08.057.057,0,0,1,.035.059.176.176,0,0,1,.049.191.443.443,0,0,1,.117.3.048.048,0,0,1,.029.05.067.067,0,0,1,.017.079.178.178,0,0,1,.045.112.118.118,0,0,1,.035.107h0l0,.049a.032.032,0,0,1,.009.039h0c.057.074.033.175.064.257a.04.04,0,0,1,.01.044c.094.054.1.147.078.249.011.058.018.115-.032.156l-.008,0,0,.049c.049.038.03.1.032.148l0,.051,0,.049a.272.272,0,0,1,.038.182,4.177,4.177,0,0,1-.035.783l0,0,.082.071c.051.016.035.039,0,.064a.643.643,0,0,0-.049.334c.042.039.023.1.042.148.01.006.026.009.028.018s-.009.031-.025.036l-.01.49L6,6.743a.709.709,0,0,1,0,.4.309.309,0,0,1,0,.246h0v0a.125.125,0,0,1,0,.141h0v.015a.048.048,0,0,1,0,.079h0a.284.284,0,0,1,0,.161A.323.323,0,0,1,6.027,8a.138.138,0,0,1,0,.1,2.121,2.121,0,0,1-.034.509h0l-.009.132.006.2c.036.035.01.067,0,.1a.191.191,0,0,1-.035.161c.01.03.019.059,0,.086a1.349,1.349,0,0,1-.037.4c-.022.115.015.24-.039.35v0a.784.784,0,0,1-.046.357.193.193,0,0,1,0,.182l0,.394,0,.143a.81.81,0,0,1,.038.4.244.244,0,0,1,0,.149l0,.1,0,.05c-.014.086.025.181-.037.257h0a.018.018,0,0,1,0,.028.228.228,0,0,1,0,.254h0v0l.006.592c.044.034-.006.064,0,.1a.111.111,0,0,1,.025.051h0a.094.094,0,0,1,.02.1l-.006.2c.028.061,0,.124.006.185h0a1.012,1.012,0,0,1,.033.47c-.006.128,0,.254,0,.381a.025.025,0,0,1,.008.034,1.154,1.154,0,0,1,0,.572.025.025,0,0,1-.009.037v.1l.01.182a1.339,1.339,0,0,1,.039.41c.036.02.035.043,0,.069h0v.01c.048.046.036.109.036.169A.066.066,0,0,1,6,16.075c.042.029.036.075.03.121a.088.088,0,0,1,.012.076c.059.044.034.111.033.171a.093.093,0,0,1,.007.086.253.253,0,0,1,.033.16v.1a.052.052,0,0,1,0,.047.106.106,0,0,1,.035.1.035.035,0,0,1,.009.043.113.113,0,0,1,.032.105l.008.048a.118.118,0,0,1,.031.1.124.124,0,0,1,.014.091h0c.039.044.028.1.033.156l.181.44c.028,0,.036.024.033.054l.013.011L6.5,18a.068.068,0,0,1,.037.069.1.1,0,0,1,.044.1l.01.013-.008.015c.033.033.028.079.032.122l0,0a.28.28,0,0,1,.087.19c.023.006.044.013.045.046l.018.018a2.042,2.042,0,0,1,.141.266c.047-.06.088-.044.124.02l.006.007a.092.092,0,0,1,.055.076c.029.013.063.019.074.061h0c.048.032.041.09.049.141a.062.062,0,0,1,.041.048c.032.008.066.01.077.058.031.009.052.022.01.051a.062.062,0,0,1,0,.033.111.111,0,0,1,.124.1c.025.01.048.02.039.06l.008.011-.006.012c.078,0,.125.052.162.125h0c.026,0,.04.016.047.044a.106.106,0,0,1,.077.056h0c.026,0,.042.011.05.038a.089.089,0,0,1,.078.057c.026,0,.041.016.048.043a.064.064,0,0,1,.051.05H8.05l.01.015c.025,0,.039.011.047.037.109.071.11.085.005.162a.1.1,0,0,1-.054.084l0,0a.077.077,0,0,1-.034.065.024.024,0,0,1,0,.032c.033.08-.027.043-.049.053s-.029.033-.043.049a.063.063,0,0,1-.037.065c0,.019,0,.03-.018.035a.044.044,0,0,1-.03.048h0a.173.173,0,0,0-.036.057h0l.035-.056c0,.03-.009.051-.034.058a.059.059,0,0,1-.046.046c0,.028-.018.045-.046.04-.006.014-.015.018-.027.01a.1.1,0,0,1-.052.069h0c0,.017,0,.026-.02.026a.076.076,0,0,1-.029.044v0a.046.046,0,0,1-.036.055.119.119,0,0,1-.048.09l0,0a.059.059,0,0,1-.036.06.037.037,0,0,1-.013.041.041.041,0,0,1-.03.051.2.2,0,0,1-.04.112h0c.008.016,0,.027-.01.034a.05.05,0,0,1-.034.058.037.037,0,0,1-.013.041.071.071,0,0,1-.026.071l.026-.071a.252.252,0,0,0-.026.071l0,.018-.014.01a.068.068,0,0,1-.03.069h0c.007.013,0,.022-.007.028l-.384,1.184a.162.162,0,0,1-.044.145c-.021.052-.017.122-.091.168a.293.293,0,0,1,.047-.227.549.549,0,0,1,.045-.213c-.008-.092.047-.166.054-.254h0c-.009-.039-.009-.084-.043-.109h0l-.091.142v0a.112.112,0,0,1-.039.1h0l-.167.45a.034.034,0,0,1-.006.041.113.113,0,0,1-.035.113.026.026,0,0,1-.009.036c-.012.1.009.217-.068.3a.127.127,0,0,1-.015.094.258.258,0,0,1-.035.151.275.275,0,0,1-.043.183h0c.036.024.036.049,0,.075a.025.025,0,0,1-.009.035.469.469,0,0,1-.032.27h0l0,.015-.011.01a.175.175,0,0,1-.041.151.059.059,0,0,1,0,.047v.1a.162.162,0,0,1-.035.159.021.021,0,0,1,0,.029l0,0c.022.019.021.038-.007.055a1.135,1.135,0,0,0,0,.308c.019.063-.021.1-.044.153h0v.015c.017.018.02.033.01.046s-.007.01-.017.013v0a.156.156,0,0,1-.039.15h0a.4.4,0,0,0,.014.189h0c.057.076.026.149-.009.221h0L6.127,26l-.011.015c.007.058.012.115-.036.153l-.007.094.012.015-.007.019h0c.022.073.058.147,0,.219h0l0,.093h0l0,.049a.441.441,0,0,1,0,.2,1.213,1.213,0,0,1,0,.295l0,.05v.346h0V27.7l.008.082a.3.3,0,0,1,0,.271l0,.326c.045.022.049.063.037.111a.043.043,0,0,1,0,.044.193.193,0,0,1,0,.208.037.037,0,0,1,0,.038,2.139,2.139,0,0,1,0,.817.06.06,0,0,1,0,.062c.067.057.023.134.025.2,0,.151,0,.3.007.455a.493.493,0,0,1,.011.226.229.229,0,0,1,0,.238h0v.01A.11.11,0,0,1,6.2,30.9l0,.05c0,.06.052.133-.031.172h0l0,.016-.011.009V31.2h0s.008.011.007.016a.124.124,0,0,1-.009.033v.1a.029.029,0,0,1,.007.038.25.25,0,0,1,0,.26l-.01.59.012.089h0a.548.548,0,0,1,0,.419h0a.022.022,0,0,1,0,.035,1.268,1.268,0,0,0,.008.289c.046.021.038.063.029.1v.051a.691.691,0,0,1-.033.358h0a.481.481,0,0,1-.009.185v.246a.261.261,0,0,1,0,.149.273.273,0,0,1-.029.169h0l-.012.077a.156.156,0,0,1-.03.125h0l-.013.073h0a.142.142,0,0,1-.03.117h0l0,.018-.013.013A.266.266,0,0,1,6,34.907a.173.173,0,0,1-.042.115h0v.011c.019.021.025.04,0,.056l-.011.007v0c0,.031-.018.042-.038.053,0,.04,0,.082-.039.1a.072.072,0,0,1-.041.066c0,.016,0,.026-.014.029a.042.042,0,0,1-.032.052.1.1,0,0,1-.047.09l0,0a.044.044,0,0,1-.039.048l0,0-.034.073h0c0,.016,0,.026-.015.028,0,.039,0,.079-.03.107h0a.03.03,0,0,1-.013.041.045.045,0,0,1-.029.052.054.054,0,0,1-.033.057.139.139,0,0,1-.056.084v0a.059.059,0,0,1-.036.065.029.029,0,0,1-.018.036.047.047,0,0,1-.028.049.086.086,0,0,1-.046.09l0,.006-.031.072h0c0,.018,0,.027-.018.028-.017.04-.028.085-.069.1a.064.064,0,0,1-.041.058.032.032,0,0,1-.019.039.035.035,0,0,1-.03.04l0,.005a.053.053,0,0,1-.035.054.051.051,0,0,1-.041.052.052.052,0,0,1-.043.048.056.056,0,0,1-.042.049.062.062,0,0,1-.036.058.06.06,0,0,1-.038.052l-.05.1h0c0,.018,0,.029-.02.031h0c0,.025-.011.036-.031.038l-.006.007a.042.042,0,0,1-.036.042l-.007.007c0,.023-.011.036-.031.036l-.057.066a.078.078,0,0,1-.061.063.058.058,0,0,1-.044.046.056.056,0,0,1-.047.044.053.053,0,0,1-.043.048c-.005.029-.019.046-.046.045h0c-.006.024-.018.038-.041.036a.024.024,0,0,1-.03.019.132.132,0,0,1-.057.087l0,0a.065.065,0,0,1-.034.064c0,.019,0,.031-.017.036-.01.044-.04.048-.072.046l-.009.014-.015,0a.078.078,0,0,1-.049.056.054.054,0,0,1-.051.04A.047.047,0,0,1,4,37.911l.045-.043a.064.064,0,0,1,.011-.016l-.011.016c-.016.012-.029.03-.045.043H4c-.006.023-.014.042-.039.037a.028.028,0,0,1-.037.016h0a.055.055,0,0,1-.051.04l0,0c0,.022-.013.037-.035.035l-.037.02-.091.082a.055.055,0,0,1-.066.021.058.058,0,0,1-.061.041h0c-.007.021-.018.036-.039.034a.028.028,0,0,1-.035.02c-.008.029-.023.047-.05.047-.006.025-.018.04-.043.036a.025.025,0,0,1-.032.017c-.007.029-.018.052-.047.052l-.09.092c-.011.065-.052.037-.084.036l-.066.02a.057.057,0,0,0-.022.007.081.081,0,0,1,.022-.007.057.057,0,0,1-.062.04h0c-.043.06-.109.041-.163.062,0,.03-.015.044-.041.04a.073.073,0,0,1-.089.039l-.069.014a.1.1,0,0,1-.1.035l-.065.015a.107.107,0,0,1-.1.035l-.065.015a.1.1,0,0,1-.1.038.026.026,0,0,1-.036.007.134.134,0,0,1-.133.041.033.033,0,0,1-.036.008c-.009.025-.014.053-.044.054a.073.073,0,0,1-.089.036.032.032,0,0,1-.039.008c-.035.047-.084.038-.13.042-.008.015-.019.019-.032.01-.038.045-.077.036-.116,0h0v0a.3.3,0,0,1-.255,0h0A1.087,1.087,0,0,1,1,39.09l-.084,0c-.084.062-.169.006-.254,0a.056.056,0,0,1-.036.014c-.049.1-.095.01-.143-.005h0A.019.019,0,0,1,.455,39.1a.349.349,0,0,1-.227-.041h0l-.153-.012-.043.006h0L0,39.139a.131.131,0,0,1,.076.056.1.1,0,0,1,.1.044h0a.071.071,0,0,1,.07.018.076.076,0,0,1,.088.036l.081.014a.087.087,0,0,1,.094.033l.018-.005.013.013c.062-.009.108.047.166.056h0c.049-.012.088.021.131.039l.076.02c-.033.063-.073.09-.13.038l-.107-.017a.088.088,0,0,1-.094-.033l-.116-.017-.05.051a.066.066,0,0,0,.036.011l.046,0h0l.045.042.039.019c.072.043.179.009.214.133h0c.012.005.03.008.031.015.006.03-.015.032-.034.034a.4.4,0,0,1,0,.049l.048.05.019,0,.017.011a.077.077,0,0,1,.089.042l.08.013a.052.052,0,0,1,.062.031L1.047,39.9c.021.011.037.031.062.031l.107.016c.072.011.149-.02.214.04L1.512,40a.052.052,0,0,1,.06.029h.106a.4.4,0,0,1,.216.056l.021,0,.019.01h.084c.044-.056.092-.1.161-.057.038-.045.087-.037.134-.039l.017-.015.02,0c.026-.026.05-.058.091-.044l.042,0,.042,0,.011-.013.015,0a.366.366,0,0,1,.235-.046l.016,0,.017.005a.1.1,0,0,1,.042-.031c.034-.057.081-.013.121-.021.032-.071.086-.042.134-.042l.007-.013.013,0a.115.115,0,0,1,.107-.034.334.334,0,0,1,.166-.01A.076.076,0,0,1,3.5,39.7l.018-.012.021,0a.1.1,0,0,1,.089-.048c.018-.041.051-.038.083-.039l.01-.017h.017a.1.1,0,0,1,.1-.045.1.1,0,0,1,.086-.047h0A.082.082,0,0,1,4,39.444h0a.051.051,0,0,1,.044-.041l0-.006c0-.024.011-.038.033-.036l.039-.018c.009-.023.022-.039.046-.034a.088.088,0,0,1,.084-.015.078.078,0,0,1,.085-.041l.042-.008a.088.088,0,0,1,.042-.032l.039-.019h0a.129.129,0,0,1,.077-.063.1.1,0,0,1,.045-.063.03.03,0,0,1,.013-.009l.006-.007c.035-.076.106-.028.153-.06.007-.028.022-.044.048-.043a.094.094,0,0,1,.081-.055.052.052,0,0,1,.044-.045c.006-.027.018-.045.044-.041l.011-.014H5a.068.068,0,0,1,.053-.049c0-.027.019-.044.045-.045a.1.1,0,0,1,.076-.061.077.077,0,0,1,.047-.052c0-.028.017-.038.039-.037a.055.055,0,0,1,.051-.044h0a.051.051,0,0,1,.041-.045l0,0c0-.029.013-.048.039-.051h0a.043.043,0,0,1,.044-.043l0,0c.027-.031.054-.063.08-.1l0,0c0-.1.073-.083.119-.113,0-.032.014-.043.039-.039.011-.023.018-.05.044-.056.016-.042.054-.045.084-.064a.1.1,0,0,1-.006.018l.006-.018c-.034-.12.085-.066.1-.126a.044.044,0,0,1,.029-.045v0c0-.032.01-.052.041-.05h0a.332.332,0,0,0,.04-.056.033.033,0,0,1,.009-.043c.008-.053.047-.042.077-.05l.039-.059a.03.03,0,0,1,.014-.039c.005-.045.035-.053.064-.061.008-.036.018-.07.055-.08l0,0a.042.042,0,0,1,.037-.042l.007-.007a.09.09,0,0,1,.034-.048v0a.048.048,0,0,1,.037-.055.059.059,0,0,1,.036-.056A.084.084,0,0,1,6.49,37.1h0q-.006-.023.015-.027a.327.327,0,0,1,.032-.05l-.032.05a.043.043,0,0,1,.032-.051.058.058,0,0,1,.041-.057l.054-.089c0-.033.013-.042.035-.046v0c0-.024.01-.048.032-.058l.006-.049a.128.128,0,0,1,.035-.1h0l.045-.041h0l.015,0a.155.155,0,0,1,0-.048L6.776,36.5l.055-.022a.027.027,0,0,0,.011-.032.364.364,0,0,1,.069-.172h0a.1.1,0,0,0-.041-.1.065.065,0,0,1-.033.059l-.044.052a.194.194,0,0,1-.042.108l-.032.038a.039.039,0,0,0-.015.039c.009.072-.021.1-.081.108,0,.056.011.12-.054.143l-.058.01c0,.071-.022.121-.094.11a.136.136,0,0,1-.088.178v.008h0l0,0c.011.076-.013.111-.082.1h0c.012.049.006.089-.041.11,0,.1-.089.086-.121.144a.7.7,0,0,1-.173.18c-.009-.126.07-.143.119-.188a.05.05,0,0,1,.047-.053c.036-.055.033-.151.119-.155h0c.01-.025.024-.042.05-.038h0c-.008-.075,0-.124.08-.1l0,0h0a.2.2,0,0,1,.085-.244.058.058,0,0,1,.033-.055c.025-.08.047-.162.126-.194l.057-.1c-.021-.084.055-.1.079-.153s-.078-.2.083-.147h0a.083.083,0,0,1,.053-.091l.073-.109c.05-.126.1-.254.153-.379.006-.013.035-.012.054-.017.022-.043,0-.108.051-.136l0,0a.065.065,0,0,1,.031-.059.168.168,0,0,1,.05-.138v0a.15.15,0,0,1,.041-.147h0c.007-.076-.012-.157.035-.224h0l.006-.073c0-.059-.007-.124.037-.172h0l.011-.075a.241.241,0,0,1,.031-.171h0l0-.015.012-.01a.252.252,0,0,1,.035-.173h0l.01-.123a.422.422,0,0,1,.037-.246,1.857,1.857,0,0,1,.039-.521h0l0,0a.909.909,0,0,1-.032-.371c-.02-.031-.008-.065,0-.1-.04-.036-.024-.076,0-.115h0v-.014a.113.113,0,0,1-.031-.118.041.041,0,0,1,0-.018c0-.011.006-.022.009-.033h0a.122.122,0,0,1,.031-.1.036.036,0,0,1,0-.036.116.116,0,0,1-.039-.107h0c-.017,0-.023-.017-.015-.032s.011-.007.016-.011l0,0a.063.063,0,0,1,.034-.064v-.067a.063.063,0,0,1-.04-.064c-.034-.018-.035-.038,0-.059a.4.4,0,0,0,0-.188c-.044-.052-.079-.1,0-.155V31.5c-.04-.018-.043-.058-.044-.1-.046-.035-.047-.071,0-.106l0-.141a.093.093,0,0,1-.042-.1c-.025-.02-.021-.038,0-.055l0-.344,0-.05,0-.591a.042.042,0,0,1,0-.018.318.318,0,0,1,.009-.033l0-.1a.03.03,0,0,1-.011-.04.073.073,0,0,1,0-.112l0-.138a.048.048,0,0,1-.025-.055c0-.006-.01-.012-.009-.017a.225.225,0,0,1,.009-.035.045.045,0,0,1,.029-.052.064.064,0,0,1,.006-.045.037.037,0,0,1-.006-.04c-.076-.073-.049-.147,0-.22h0l0-.019a1.169,1.169,0,0,1,0-.621.024.024,0,0,1,0-.03c-.031-.041-.069-.083,0-.128h0l0-.017.012-.012,0-.048A.033.033,0,0,1,7.38,28.2c-.039-.022-.047-.044,0-.066V28c-.034-.021-.032-.04,0-.059.023-.132-.036-.277.044-.4a.032.032,0,0,1,0-.039,2.16,2.16,0,0,1,.037-.562h0v-.012a.133.133,0,0,1,0-.178h0a.018.018,0,0,1,0-.026.112.112,0,0,1,0-.167h0a.033.033,0,0,1,0-.036c-.023-.036-.06-.072,0-.11l.01-.093,0-.05v-.2c0-.006-.008-.013-.007-.018a.173.173,0,0,1,.011-.032.15.15,0,0,1,.032-.122h0l0-.07a.042.042,0,0,1,0-.073h0v-.507c-.029-.061-.058-.123,0-.185h0l0-.017.011-.013c0-.061-.017-.125.034-.171h0l.011-.076a.175.175,0,0,1,.035-.157.032.032,0,0,1,.006-.04.261.261,0,0,1,.034-.174h0a.081.081,0,0,1,.016-.074.128.128,0,0,1,.029-.106h0l.009-.091h0a.138.138,0,0,1,.033-.108.117.117,0,0,1,.014-.09.126.126,0,0,1,.03-.1h0l.006-.047a.212.212,0,0,1,.035-.156l.008-.091a.113.113,0,0,1,.032-.112l.014-.086a.062.062,0,0,1,.027-.068h0l0-.017.011-.013c0-.045-.005-.088.036-.113a.028.028,0,0,1,.008-.035A.109.109,0,0,1,7.972,23a.032.032,0,0,1,.007-.039.108.108,0,0,1,.035-.11.029.029,0,0,1,.008-.038.1.1,0,0,1,.038-.1h0A.141.141,0,0,1,8.1,22.6a.028.028,0,0,1,.007-.038.1.1,0,0,1,.036-.1c0-.055,0-.113.043-.151l.013-.044c0-.013,0-.026-.006-.04-.017-.031,0-.08-.039-.1a.672.672,0,0,1-.091.193c-.033.064-.035.146-.084.2a.056.056,0,0,1-.011.042c-.018.056-.018.124-.076.152l-.007.05c.013.073-.034.129-.039.2s-.03.1-.042.143-.018.127-.08.151v0h0a.093.093,0,0,1-.016.078s-.014-.007-.015-.012a.05.05,0,0,1,.03-.066v0h0c-.007-.058-.013-.115.045-.146a.236.236,0,0,1,.034-.15.336.336,0,0,1,.054-.2l0-.047h0c.029-.067.01-.155.069-.208a.058.058,0,0,1,.011-.039.4.4,0,0,1,.077-.2.062.062,0,0,1,.01-.04.881.881,0,0,1,.116-.257l.049-.093a.14.14,0,0,1,.03-.1A.3.3,0,0,1,8.3,21.62a.288.288,0,0,1,.093-.2.305.305,0,0,1,.09-.138c.019-.065.074-.079.116-.111a.055.055,0,0,1,.039-.054c.007-.027.021-.043.046-.045a.066.066,0,0,1,.042-.049.053.053,0,0,1,.041-.052.045.045,0,0,1,.049-.041.108.108,0,0,1,.08-.057.056.056,0,0,1,.043-.045.577.577,0,0,1,.079-.106.055.055,0,0,1,.045-.045c.009-.036.011-.077.049-.093.014-.049.052-.044.085-.048.018-.044.056-.034.087-.044l0,0a.254.254,0,0,1,.207-.091l.077-.013a.068.068,0,0,1,.048-.05c.018-.087.085-.035.126-.058.007-.028.015-.056.047-.028.055-.017.1-.066.167-.05L10,20.194a.109.109,0,0,1,.087-.043l0,0ZM4.911.543C4.875.57,4.855.533,4.837.5A.113.113,0,0,1,4.722.4h0c-.026,0-.052.009-.07-.02,0,0,0-.018.01-.019.03-.008.05.006.06.039h0A.237.237,0,0,1,4.895.5h0C4.913.507,4.928.53,4.911.543Zm.424.837s-.01-.01-.01-.014.008-.009.012-.013l.01.015Zm.124.189a.027.027,0,0,1-.014-.039c0-.007.01-.011.015-.017a.345.345,0,0,1,.014.042Zm1.029,12.57a.409.409,0,0,1,0-.312Zm.62-.372L7.1,13.749h.014Zm-.063-1.912c-.122.472-.142.966-.266,1.434-.055.208,0,.426-.038.635.016.1.064.2.01.3,0,.029,0,.073-.019.074s-.024-.044-.027-.073a.3.3,0,0,1-.035-.252c-.028-.355-.057-.711-.085-1.067,0-.035-.013-.061-.046-.066a.545.545,0,0,1,0,.07c0,.013-.01.034-.018.035-.029.006-.023-.024-.024-.043,0-.038,0-.077,0-.115,0-.013,0-.026,0-.039l0-.111,0-.085a.186.186,0,0,1,0-.112V12.3h0l0-.051h0c-.011-.637.047-1.271.074-1.906.014-.326.01-.653.05-.978.014-.113.025-.227.044-.339A10.3,10.3,0,0,0,6.78,7.011a11.357,11.357,0,0,0-.148-1.687c-.021-.11.01-.231-.053-.331a.485.485,0,0,1-.071-.047c-.074-.071-.07-.086.035-.152l0-.233a.231.231,0,0,1,.011-.047.386.386,0,0,1,.039-.08c.039.017.03.064.036.1a.215.215,0,0,1,.032.013c.009-.095.039-.2-.049-.266A.078.078,0,0,1,6.593,4.2c.038-.123.03-.218-.083-.287-.036-.022-.02-.091,0-.135a.149.149,0,0,0-.054-.2c-.089-.021-.1-.07-.089-.153a.161.161,0,0,0-.01-.095,4.217,4.217,0,0,1-.235-.539c-.1-.185-.193-.384-.308-.563-.09-.14-.17-.288-.256-.432-.038-.063-.04-.062-.012-.194.084.042.1.162.174.2s.077.216.206.148c.053.1.107.192.161.288a.975.975,0,0,1,.137.261c.02.1.08.164.1.261.031.143.157.22.221.35a4.718,4.718,0,0,1,.285.574c.079.23.184.447.247.685A2.08,2.08,0,0,1,7.37,5.479a7.736,7.736,0,0,1,.085,1.544c-.013.426-.012.854-.036,1.278a8.367,8.367,0,0,1-.114,1.045,12.774,12.774,0,0,0-.129,1.516A5.442,5.442,0,0,1,7.045,11.855Zm1.1,6.364.037.062A.059.059,0,0,1,8.146,18.219ZM5.843,37.6l-.012-.015.009-.013a.127.127,0,0,1,.016.014ZM6.4,24.74c-.008.021-.017.02-.022,0a.045.045,0,0,1,.005-.019l.014,0A.026.026,0,0,1,6.4,24.74Zm.277-1.486-.017.146a.484.484,0,0,1-.074.308c-.008.066.006.141-.054.187a.138.138,0,0,1,0,.1,1.566,1.566,0,0,1-.073.355l-.009.133a.246.246,0,0,1,.007.045c0,.043-.033.089-.06.069-.045-.032-.023-.079.018-.107a.061.061,0,0,0,0-.048c-.03-.032-.053-.065-.007-.1a.133.133,0,0,1,.017-.043c.038-.095.006-.214.074-.3a.147.147,0,0,1,.011-.1l.038-.245A.8.8,0,0,1,6.62,23.3a.067.067,0,0,1,.007-.04c0-.043.022-.058.051-.047S6.7,23.24,6.678,23.254Z"/><path class="cls-1" d="M7.262,7.07a8.005,8.005,0,0,0-.09-1.189l-.073,0a5.218,5.218,0,0,0,.033.781,16.556,16.556,0,0,1-.041,1.682c0,.033,0,.065,0,.1a.723.723,0,0,1-.065.305.944.944,0,0,0-.124.631.216.216,0,0,0,.154-.2c.012-.105.037-.208.047-.314a.3.3,0,0,1,.078-.217c.069-.039.049-.11.039-.169A.385.385,0,0,1,7.2,8.341,8.177,8.177,0,0,0,7.262,7.07Z"/><path class="cls-1" d="M6.772,10.481c0,.016,0,.033,0,.049-.01.373.031.746,0,1.12-.006.081-.017.162-.024.243a.058.058,0,0,0,.045.068c.04.009.069-.007.075-.057s.009-.114.015-.17c.04-.438.038-.881.11-1.315.024-.142.028-.288.045-.473A1.239,1.239,0,0,0,6.772,10.481Z"/></g></g></g></g></g></svg>