<svg xmlns="http://www.w3.org/2000/svg" viewBox="0 0 10.09 40.09"><defs><style>.cls-1{fill:#fff;}</style></defs><title>right-wrap</title><g id="Layer_2" data-name="Layer 2"><g id="MENU"><g id="MENU-2" data-name="MENU"><g id="PROJECTS"><g id="CORCHETES"><polygon class="cls-1" points="7.34 16.29 7.34 16.29 7.34 16.29 7.34 16.29"/><path class="cls-1" d="M5.66,35.62h0v0Z"/><polygon class="cls-1" points="7.87 22.76 7.86 22.76 7.87 22.76 7.87 22.76"/><path class="cls-1" d="M7.51,32.12h0l0,.07A.43.43,0,0,0,7.51,32.12Z"/><path class="cls-1" d="M10.09,20H10s0,0,0,0a.05.05,0,0,1,0-.07v0H9.69s-.09,0-.11,0,.07-.05.09-.1,0,0,0-.05v-.1H9.5s-.07.06-.11,0h0s-.06,0-.08-.05h0a.05.05,0,0,1-.06,0s0,0,0,0,0,0-.06,0h0s0,0,0,0,0,0,0,0h0a0,0,0,0,1,0,0l0,0s0,0,0,0H9s0,0,0,0,0,0-.05-.05,0,0,0,0a.12.12,0,0,1-.08-.06h0s-.05,0-.05,0a.24.24,0,0,1,0-.1.06.06,0,0,1,0-.06s0,0,0-.05,0,0,0-.05a0,0,0,0,1,0,0h0s0,0,0-.05,0,0,0,0a.16.16,0,0,1,0-.07,0,0,0,0,1,0-.05s0,0,0-.05,0,0,0,0a.07.07,0,0,1,0-.07s0,0,0-.05h0s0,0,0,0,0,0,0,0l0-.06h0s0,0,0,0,0,0,0,0a.08.08,0,0,1,0-.05s0,0,0,0-.07,0-.09,0h0c-.08-.05,0-.12,0-.19v-.09a.05.05,0,0,1,0-.06s0-.06,0-.1h0a.14.14,0,0,1,0-.1.12.12,0,0,1,0-.1,0,0,0,0,1,0-.05s0,0,0,0a.07.07,0,0,1,0-.06h0a.09.09,0,0,1,0-.07.06.06,0,0,1,0,0,.09.09,0,0,1,0-.07h0s0,0,0-.06h0l0,0s0,0,0-.08a.07.07,0,0,1,0-.05h0s0-.05,0-.09,0,0,0,0,0-.1,0-.16a.08.08,0,0,1,0-.08s-.06-.08,0-.12h0l0-.06h0v-.07c-.07-.09,0-.2,0-.3h0c0-.12,0-.27-.09-.4h0a.94.94,0,0,1,0-.41v-.2h0s0,0,0,0h0v-.11h0l0,0,0,0h0c0-.12,0-.24,0-.35s0-.21,0-.29h0c0-.07,0-.15,0-.21s0-.26,0-.38a.25.25,0,0,1,0-.07h0v-.14s-.08-.07,0-.11,0-.21,0-.3v-.07a.08.08,0,0,1,0-.12.27.27,0,0,1,0-.16h0v0s0-.05,0-.08h0v0h0c0-.07,0-.15,0-.21V12s0,0,0,0h0s0,0,0-.06,0-.11,0-.15a.73.73,0,0,1,0-.36h0a.08.08,0,0,1,0-.12.09.09,0,0,1,0,0v-.05a.11.11,0,0,1,0-.11h0v0a.46.46,0,0,1,0-.26h0a.28.28,0,0,1,0-.13.11.11,0,0,1,0-.11.78.78,0,0,1,0-.26,0,0,0,0,1,0,0h0v-.14a.36.36,0,0,1,0-.23.08.08,0,0,1,0-.09h0c0-.06,0-.12,0-.18v-.2a.14.14,0,0,1,0-.15h0V9.09a3.18,3.18,0,0,1,0-.62h0a.08.08,0,0,1,0-.07V8.3s0-.07,0-.11h0s0-.05,0-.08V8a.48.48,0,0,1,0-.29c0-.07,0-.13,0-.2s0-.07,0-.11h0V7.32c-.07-.09,0-.2,0-.3V7h0v-.3s0,0,0,0a.27.27,0,0,1,0-.23,4.42,4.42,0,0,1,0-.63v-.1a1.31,1.31,0,0,1,0-.28s0,0,0,0a.53.53,0,0,1,0-.22s0,0,0-.08a.59.59,0,0,1,0-.27.33.33,0,0,1,0-.22.25.25,0,0,1,0-.17.29.29,0,0,1,0-.18s0-.07,0-.12,0,0,0,0,0-.09,0-.15,0-.06,0-.1,0-.09,0-.15h0a.13.13,0,0,1,0-.1s0,0,0,0,0,0,0-.06,0,0,0-.06,0,0,0,0a.1.1,0,0,1,0-.1l0-.09s0-.07,0-.11a.42.42,0,0,1-.09-.24,0,0,0,0,1,0-.06s0,0,0,0,0,0,0-.06,0,0,0,0a0,0,0,0,1,0-.06H7s0,0,0-.07,0,0,0,0,0,0,0-.05v0a.11.11,0,0,1,0-.09.06.06,0,0,1,0-.06h0a.13.13,0,0,1,0-.09.06.06,0,0,1,0-.06,0,0,0,0,1,0,0s0,0,0,0a.1.1,0,0,1,0-.07.06.06,0,0,1,0-.06.22.22,0,0,1-.08-.14.22.22,0,0,1-.09-.1h0s0,0,0-.05h0a.22.22,0,0,1,0-.08.06.06,0,0,1,0-.06h0s0,0,0,0l0,0,0,0h0s0,0,0-.05h0s0,0,0,0h0s0,0,0,0h0s0,0,0,0h0s0,0,0,0h0a0,0,0,0,1,0,0A.26.26,0,0,1,5.9,1s0,0,0,0S5.79.9,5.78.85h0l0,0s0,0-.05,0a.09.09,0,0,1,0-.06s0,0,0,0S5.55.64,5.52.6s0,0,0,0A.08.08,0,0,1,5.43.51a.23.23,0,0,1-.12-.1A.16.16,0,0,1,5.23.35h0c-.06,0-.14,0-.19,0H5v0a.09.09,0,0,1-.1,0s0,0,0,0-.06,0-.08,0h0a.13.13,0,0,1-.11,0h0v0a.07.07,0,0,1-.09,0,.08.08,0,0,1-.09,0s0,0,0,0,0,0,0,0,0,0,0,0l0,0c0,.08-.13,0-.17.08a3.72,3.72,0,0,1,.34.19h0s.08,0,.07.05,0,0-.07,0L4.26.25s-.07,0-.09,0,.14.06.2.14c-.09,0-.15,0-.2-.09s-.09,0-.12,0H4A.73.73,0,0,1,3.75.21s-.11,0-.14,0H3.46V.25s0,0,0,0,0,0,0,0h0v0s0,0,0,0h0L4,.46,4.3.6c.07.05.18,0,.21.14h0c.08,0,.12.05.17.09a.05.05,0,0,1,0,0c0,.09.14.09.17.17h0s0,0,0,0,0,0,0,0h0A.38.38,0,0,1,4.72.94s0,0-.08,0h0s-.13,0-.13-.14h0L4.24.68l0,0h0C4.08.66,4.05.53,4,.55v0L4,.65a0,0,0,0,1,0,0s0,0,0,.06h0v0l.1.06h0a.14.14,0,0,1,.13,0l0,0s0,0,0,0h0A.08.08,0,0,1,4.51,1h0a.05.05,0,0,1,0,0h0l0,0s0,0,0,0h0s0,0,.05,0,0,0,0,0a0,0,0,0,1,0,.06h0v0s.07,0,.07.07a.06.06,0,0,1,0,0l0,.06c.05,0,.05.05.06.09a0,0,0,0,1,0,.06s0,0,0,0A.09.09,0,0,1,5,1.68s0,0,0,0a.05.05,0,0,1,0,.06s0,0,0,.05,0,.06,0,.09a0,0,0,0,1,0,.06h0a.13.13,0,0,1,0,.09s0,0,0,0,0,0,0,.05h0c.05,0,0,.1,0,.15h0a.16.16,0,0,1,.06.08,0,0,0,0,1,0,.06.16.16,0,0,1,0,.19A.47.47,0,0,1,5.61,3a0,0,0,0,1,0,0,.08.08,0,0,1,0,.08.18.18,0,0,1,0,.11.1.1,0,0,1,0,.1h0v0a.06.06,0,0,1,0,0h0c.06.08,0,.18.06.26s0,0,0,0,.1.15.08.25,0,.12,0,.16h0v.05s0,.1,0,.15v.1a.28.28,0,0,1,0,.18,4.18,4.18,0,0,1,0,.79h0L6,5.43s0,0,0,.07,0,.22,0,.33S6,5.93,6,6L6,6S6,6,6,6v.49l0,.22a.77.77,0,0,1,0,.4.28.28,0,0,1,0,.25H6s0,.09,0,.14H6s0,.06,0,.08H6a.29.29,0,0,1,0,.16A.42.42,0,0,1,6,8a.17.17,0,0,1,0,.1,2.15,2.15,0,0,1,0,.51H6v.33S6,9,6,9A.22.22,0,0,1,6,9.2a.1.1,0,0,1,0,.09c0,.13,0,.27,0,.39a1.34,1.34,0,0,1,0,.35h0a.87.87,0,0,1,0,.36.23.23,0,0,1,0,.18v.54c.07.12,0,.26,0,.4a.26.26,0,0,1,0,.15v.14c0,.09,0,.19,0,.26h0a0,0,0,0,1,0,0,.23.23,0,0,1,0,.25h0v.59s0,.06,0,.09l0,.05h0a.14.14,0,0,1,0,.11v.19c0,.06,0,.13,0,.19h0a1.06,1.06,0,0,1,0,.47c0,.13,0,.25,0,.38s0,0,0,0a1.14,1.14,0,0,1,0,.58s0,0,0,0v.28a1.39,1.39,0,0,1,0,.41s0,0,0,.07H6c0,.05,0,.11,0,.17a.06.06,0,0,1,0,.07s0,.08,0,.13a.08.08,0,0,1,0,.07c.06.05,0,.11,0,.17a.1.1,0,0,1,0,.09.29.29,0,0,1,0,.16v.1a.06.06,0,0,1,0,0,.11.11,0,0,1,0,.11s0,0,0,0a.1.1,0,0,1,0,.1v.05a.1.1,0,0,1,0,.1.15.15,0,0,1,0,.09h0a.45.45,0,0,1,0,.16l.18.44s0,0,0,0h0v0a.07.07,0,0,1,0,.07.09.09,0,0,1,0,.1h0v0s0,.08,0,.12h0a.31.31,0,0,1,.09.19,0,0,0,0,1,0,0l0,0a1.15,1.15,0,0,1,.14.27c0-.06.09-.05.13,0H7A.12.12,0,0,1,7.1,19s.06,0,.07.06h0s0,.09,0,.14a.07.07,0,0,1,0,.05s.07,0,.08.06,0,0,0,0v0a.12.12,0,0,1,.13.1,0,0,0,0,1,0,.06h0v0c.08,0,.12,0,.16.12h0s0,0,.05.05,0,0,.07.05h0a0,0,0,0,1,0,0s.07,0,.08.06,0,0,.05,0a.06.06,0,0,1,0,.05h0v0s0,0,0,0,.11.09,0,.16a.09.09,0,0,1,0,.09h0a.16.16,0,0,1,0,.07,0,0,0,0,1,0,0c0,.08,0,0,0,.05l-.05.05a.08.08,0,0,1,0,.07s0,0,0,0a0,0,0,0,1,0,.05h0a.13.13,0,0,0,0,.06h0l0-.06a.05.05,0,0,1,0,.06,0,0,0,0,1,0,0s0,0,0,0,0,0,0,0a.08.08,0,0,1-.05.07h0s0,0,0,0,0,0,0,0h0a0,0,0,0,1,0,.06.13.13,0,0,1,0,.09h0a.07.07,0,0,1,0,.06s0,0,0,0,0,.05,0,.05a.42.42,0,0,1,0,.12h0s0,0,0,0a.05.05,0,0,1,0,.06s0,0,0,0a.08.08,0,0,1,0,.07l0-.07a.14.14,0,0,0,0,.07v0h0s0,0,0,.07h0a0,0,0,0,1,0,0l-.39,1.18a.14.14,0,0,1,0,.14c0,.06,0,.13-.09.17a.26.26,0,0,1,0-.22.54.54,0,0,1,0-.22c0-.09,0-.16,0-.25h0s0-.09,0-.11h0l-.09.14h0a.14.14,0,0,1,0,.11h0L6.54,23a0,0,0,0,1,0,0,.12.12,0,0,1,0,.11s0,0,0,0,0,.21-.07.3a.1.1,0,0,1,0,.09.2.2,0,0,1,0,.15.27.27,0,0,1,0,.18h0s0,.05,0,.08,0,0,0,0a.48.48,0,0,1,0,.27h0v0h0a.14.14,0,0,1,0,.15,0,0,0,0,1,0,.05v.1a.16.16,0,0,1,0,.16s0,0,0,0h0s0,0,0,.05a1.06,1.06,0,0,0,0,.31c0,.07,0,.11,0,.16h0s0,0,0,.05a0,0,0,0,1,0,0h0c0,.06,0,.12,0,.15h0a.4.4,0,0,0,0,.19h0a.18.18,0,0,1,0,.22h0v0c0,.06,0,.11,0,.15v.13h0c0,.07.06.15,0,.22h0v.09h0v.05a.45.45,0,0,1,0,.2,1.41,1.41,0,0,1,0,.29v.4h0v.23a.32.32,0,0,1,0,.27v.32a.09.09,0,0,1,0,.12s0,0,0,0a.2.2,0,0,1,0,.21v0a2,2,0,0,1,0,.81.06.06,0,0,1,0,.06c.07.06,0,.14,0,.21v.45a.45.45,0,0,1,0,.23.23.23,0,0,1,0,.24h0a.09.09,0,0,1,0,.11V31c0,.06,0,.14,0,.18h0v.05h0s0,0,0,0v.13s0,0,0,0a.24.24,0,0,1,0,.26v.68h0a.49.49,0,0,1,0,.41h0s0,0,0,0a1.41,1.41,0,0,0,0,.29s0,.06,0,.1v0a.62.62,0,0,1,0,.36h0a.4.4,0,0,1,0,.19V34a.19.19,0,0,1,0,.15.25.25,0,0,1,0,.17h0v.08a.12.12,0,0,1,0,.12h0v.08h0a.2.2,0,0,1,0,.11H6v0H6a.41.41,0,0,1,0,.16A.16.16,0,0,1,6,35H6s0,0,0,.06h0s0,0,0,0,0,.08,0,.1,0,.06,0,.07,0,0,0,0,0,0,0,0a.09.09,0,0,1,0,.09h0s0,0,0,0h0l0,.08h0s0,0,0,0a.14.14,0,0,1,0,.11h0s0,0,0,0a0,0,0,0,1,0,.05.06.06,0,0,1,0,.06.18.18,0,0,1-.06.09h0a.05.05,0,0,1,0,.06s0,0,0,0a.05.05,0,0,1,0,0,.09.09,0,0,1-.05.09h0l0,.07h0s0,0,0,0,0,.09-.07.11,0,0,0,.05,0,0,0,0,0,0,0,0h0s0,0,0,.05,0,0,0,0,0,0,0,0a0,0,0,0,1,0,.05.05.05,0,0,1,0,.06s0,0,0,0L4.85,37h0s0,0,0,0h0s0,0,0,0h0a0,0,0,0,1,0,0h0s0,0,0,0l0,.06a.09.09,0,0,1-.06.07.07.07,0,0,1-.05,0s0,0,0,.05a0,0,0,0,1,0,0,0,0,0,0,1,0,0h0s0,0,0,0,0,0,0,0a.11.11,0,0,1,0,.09h0a.05.05,0,0,1,0,.06s0,0,0,0,0,0-.07,0h0a.1.1,0,0,1-.05.06.05.05,0,0,1,0,0s0,0,0,0l0,0v0l0,0H4s0,0,0,0,0,0,0,0h0a.1.1,0,0,1-.05,0h0s0,0,0,0l0,0-.09.09a.08.08,0,0,1-.07,0,.05.05,0,0,1-.06,0h0s0,0,0,0,0,0,0,0,0,.05,0,.05,0,0,0,0,0,0,0,0,0,0,0,0l-.09.1c0,.06-.05,0-.08,0l-.07,0h0a.05.05,0,0,1-.06,0H3c0,.06-.11,0-.16.07s0,0,0,0-.06,0-.09,0l-.07,0a.1.1,0,0,1-.1,0l-.07,0a.1.1,0,0,1-.1,0l-.07,0a.12.12,0,0,1-.1,0h0a.11.11,0,0,1-.13,0s0,0,0,0S2,39,2,39a.08.08,0,0,1-.09,0s0,0,0,0-.08,0-.13,0,0,0,0,0-.08,0-.11,0h0a.3.3,0,0,1-.26,0h0a.87.87,0,0,1-.32,0H.92c-.08.06-.17,0-.25,0l0,0c-.05.1-.1,0-.14,0h0s0,0,0,0a.29.29,0,0,1-.22,0H0l0,.09a.16.16,0,0,1,.08.06.09.09,0,0,1,.1,0h0s0,0,.07,0a.06.06,0,0,1,.08,0l.08,0a.08.08,0,0,1,.1,0h0v0c.06,0,.11,0,.16,0h0c.05,0,.09,0,.14,0l.07,0c0,.07-.07.09-.13,0l-.1,0a.1.1,0,0,1-.1,0l-.11,0,0,.06H.5l0,0,0,0c.07.05.18,0,.21.14h0s0,0,0,0,0,0,0,0v0l0,0h0s.06,0,.09,0h.08s0,0,.06,0l-.06,0s0,0,.06,0l.11,0c.07,0,.15,0,.21,0l.08,0s.05,0,.06,0h.11a.38.38,0,0,1,.21,0H2c0-.06.09-.1.16-.06a.17.17,0,0,1,.13,0h0s0,0,.09,0h.11a.47.47,0,0,1,.24,0h0a.08.08,0,0,1,0,0c0-.05.08,0,.12,0s.09,0,.14,0h0a.1.1,0,0,1,.1,0c.06,0,.11,0,.17,0a.07.07,0,0,1,.09,0v0h0a.11.11,0,0,1,.09,0,.09.09,0,0,1,.09,0v0h0a.13.13,0,0,1,.1,0s0,0,.09,0h0s.05,0,.08-.05H4a0,0,0,0,1,0,0h0s0,0,0,0l0,0s0,0,0,0,.06,0,.09,0,0,0,.08,0h0s0,0,0,0l0,0h0a.16.16,0,0,1,.08-.06s0-.05,0-.06h0c0-.07.11,0,.16-.06s0,0,0,0,0-.05.08-.06a0,0,0,0,1,0,0s0-.05.05,0v0H5a.06.06,0,0,1,.06,0s0,0,0,0a.1.1,0,0,1,.08-.06s0,0,0,0,0,0,0,0a.05.05,0,0,1,0,0h0s0,0,0,0h0s0-.05,0-.05h0a0,0,0,0,1,0,0h0l.08-.1h0c0-.1.07-.08.12-.11s0,0,0,0,0,0,0-.06.06,0,.08-.06v0c0-.12.09-.07.11-.13s0,0,0,0H6s0-.06,0,0H6l0-.06s0,0,0,0,0-.05.08-.05l0-.06s0,0,0,0,0-.05.06-.06,0-.07.06-.08h0s0,0,0,0h0s0,0,0,0h0s0,0,0-.05a.05.05,0,0,1,0-.06.07.07,0,0,1,0-.06h0s0,0,0,0l0,0,0,0s0,0,0,0a.05.05,0,0,1,0-.06l0-.08s0-.05,0-.05h0a.06.06,0,0,1,0-.06v-.05a.12.12,0,0,1,0-.1h0l0,0h0v0l0,0,0,0s0,0,0,0a.44.44,0,0,1,.07-.17h0a.09.09,0,0,0,0-.1.09.09,0,0,1,0,.06l0,0a.18.18,0,0,1,0,.1l0,0a.08.08,0,0,0,0,0c0,.07,0,.11-.08.11s0,.12,0,.14H6.51c0,.07,0,.12-.09.11s0,.15-.09.18h0c0,.07,0,.11-.08.09h0c0,.05,0,.09,0,.11s-.09.09-.12.15a.72.72,0,0,1-.17.18c0-.13.07-.15.12-.19a0,0,0,0,1,0,0c0-.06,0-.15.12-.16h0a.07.07,0,0,1,0,0h0c0-.07,0-.12.08-.09h0a.19.19,0,0,1,.08-.24.05.05,0,0,1,0-.06c0-.08,0-.16.12-.19l.06-.1c0-.08,0-.1.08-.15s-.08-.2.08-.15h0s0-.08,0-.09l.08-.11.15-.38h0s0-.11,0-.14h0a.06.06,0,0,1,0-.06.19.19,0,0,1,0-.14h0a.16.16,0,0,1,0-.15h0c0-.07,0-.16,0-.22h0v-.08c0-.06,0-.12,0-.17h0v-.07c0-.06,0-.13,0-.17h0v0h0a.25.25,0,0,1,0-.17h0V34a.4.4,0,0,1,0-.24,1.8,1.8,0,0,1,0-.52h0a.78.78,0,0,1,0-.37.17.17,0,0,1,0-.1s0-.07,0-.11h0v0a.16.16,0,0,1,0-.12h0s0,0,0,0h0a.1.1,0,0,1,0-.1s0,0,0,0a.12.12,0,0,1,0-.1h0s0,0,0,0h0a.08.08,0,0,1,0-.07v-.06a.07.07,0,0,1,0-.07s0,0,0,0a.31.31,0,0,0,0-.19c0-.05-.07-.11,0-.16V31.5s0-.06,0-.1,0-.07,0-.1v-.15a.08.08,0,0,1,0-.09s0,0,0-.06V30a0,0,0,0,0,0,0v-.1s0,0,0,0,0-.08,0-.11v-.14a.06.06,0,0,1,0-.06h0s0,0,0,0a0,0,0,0,1,0,0,.09.09,0,0,1,0-.05s0,0,0,0a.14.14,0,0,1,0-.21h0v0a1.22,1.22,0,0,1,0-.63s0,0,0,0-.07-.09,0-.13h0v0h0v-.05s0,0,0,0,0,0,0-.06V28s0,0,0-.06,0-.28,0-.4,0,0,0,0a2.09,2.09,0,0,1,0-.56h0v0a.14.14,0,0,1,0-.17h0v0a.12.12,0,0,1,0-.17h0a0,0,0,0,1,0,0s-.06-.07,0-.11v-.34s0,0,0,0,0,0,0,0a.16.16,0,0,1,0-.12h0v-.07a.05.05,0,0,1,0-.08h0v-.5c0-.07-.06-.13,0-.19h0v0h0c0-.06,0-.12,0-.17h0v-.08a.16.16,0,0,1,0-.15s0,0,0,0a.28.28,0,0,1,0-.18h0a.08.08,0,0,1,0-.07.14.14,0,0,1,0-.11h0v-.09h0s0-.07,0-.11a.14.14,0,0,1,0-.09.19.19,0,0,1,0-.1h0v0a.22.22,0,0,1,0-.16v-.09a.11.11,0,0,1,0-.11l0-.09a.06.06,0,0,1,0-.07h0v0a.12.12,0,0,1,0-.11s0,0,0,0A.1.1,0,0,1,8,23s0,0,0,0a.11.11,0,0,1,0-.11s0,0,0,0a.1.1,0,0,1,0-.1h0a.15.15,0,0,1,0-.11,0,0,0,0,1,0,0,.12.12,0,0,1,0-.1.2.2,0,0,1,0-.15l0,0a.08.08,0,0,1,0,0s0-.08,0-.11a.61.61,0,0,1-.09.2c0,.06,0,.14-.08.2a.06.06,0,0,1,0,0c0,.05,0,.12-.08.15v.05c0,.07,0,.13,0,.2s0,.09,0,.14,0,.13-.08.15h0s0,0,0,.07h0a0,0,0,0,1,0-.06h0c0-.06,0-.11,0-.14a.24.24,0,0,1,0-.15.42.42,0,0,1,0-.2v-.05h0c0-.06,0-.15.07-.2s0,0,0,0A.39.39,0,0,1,8,22.26s0,0,0,0A1.92,1.92,0,0,1,8.14,22l0-.1v0a.07.07,0,0,1,0-.06.31.31,0,0,1,.08-.15.3.3,0,0,1,.1-.2.39.39,0,0,1,.08-.14c0-.06.08-.07.12-.11s0,0,0-.05a.06.06,0,0,1,0-.05.07.07,0,0,1,0-.05s0,0,0-.05,0,0,.05,0a.09.09,0,0,1,.08-.05s0,0,0-.05,0,0,0-.06a.07.07,0,0,1,0-.05s0,0,.05,0,0-.08,0-.09a.08.08,0,0,1,.09-.05c0-.05.06,0,.09-.05h0a.27.27,0,0,1,.21-.09h.07s0-.05,0-.05.09,0,.13-.06,0-.06,0,0,.11-.06.17-.05h0s.06,0,.09,0h0ZM4.91.54s0,0-.07,0A.12.12,0,0,1,4.72.4h0a.05.05,0,0,1-.07,0v0s0,0,.06,0h0A.27.27,0,0,1,4.9.5h0S4.93.53,4.91.54Zm.42.84h0l0,0v0Zm.13.19s0,0,0,0,0,0,0,0a.09.09,0,0,1,0,.05Zm1,12.57a.37.37,0,0,1,0-.31Zm.62-.37v0h0ZM7,11.86c-.12.47-.14,1-.26,1.43-.06.21,0,.42,0,.63s.07.2,0,.3,0,.08,0,.08,0-.05,0-.07a.3.3,0,0,1,0-.26l-.09-1.06s0-.07,0-.07v.07l0,0s0,0,0,0v-.35a.21.21,0,0,1,0-.11V12.3h0v-.05h0c0-.64,0-1.27.07-1.91,0-.32,0-.65,0-1,0-.12,0-.23,0-.34a10.54,10.54,0,0,0,.12-2,12.06,12.06,0,0,0-.15-1.69c0-.11,0-.23,0-.33L6.51,5c-.08-.07-.07-.09,0-.16V4.56a.11.11,0,0,1,0,0s0-.08,0-.08,0,.07,0,.11h0c0-.1,0-.2,0-.27a.07.07,0,0,1,0-.08c0-.13,0-.22-.08-.29s0-.09,0-.14a.16.16,0,0,0,0-.2c-.09,0-.1-.07-.09-.15s0-.07,0-.09a3.65,3.65,0,0,1-.23-.54c-.11-.19-.2-.39-.31-.57l-.26-.43c0-.06,0-.06,0-.19.08,0,.1.16.17.2S5.8,2,5.93,2l.16.29a.82.82,0,0,1,.14.26c0,.1.08.16.1.26s.16.22.22.35a5,5,0,0,1,.28.57c.08.23.19.45.25.69.27.31.22.73.29,1.11A7.24,7.24,0,0,1,7.45,7c0,.43,0,.86,0,1.28a9.35,9.35,0,0,1-.11,1,10.86,10.86,0,0,0-.13,1.51A5.48,5.48,0,0,1,7,11.86Zm1.11,6.36,0,.06A.06.06,0,0,1,8.15,18.22ZM5.84,37.6h0ZM6.4,24.74s0,0,0,0v0h0Zm.28-1.49,0,.15a.48.48,0,0,1-.07.31c0,.06,0,.14-.06.18a.17.17,0,0,1,0,.1,1.44,1.44,0,0,1-.07.36v.13s0,0,0,.05,0,.09-.06.07,0-.08,0-.11a0,0,0,0,0,0,0s0-.06,0-.1l0-.05c0-.09,0-.21.07-.3a.15.15,0,0,1,0-.09l0-.25a.85.85,0,0,1,.08-.35s0,0,0,0,0-.06,0-.05A0,0,0,0,1,6.68,23.25Z"/><path class="cls-1" d="M7.26,7.07a6.74,6.74,0,0,0-.09-1.19H7.1a6.78,6.78,0,0,0,0,.78,15.7,15.7,0,0,1,0,1.68v.1a.87.87,0,0,1-.07.3.9.9,0,0,0-.12.63.21.21,0,0,0,.15-.2c0-.11,0-.21,0-.31s0-.17.08-.22.05-.11,0-.17a.32.32,0,0,1,0-.14A7.72,7.72,0,0,0,7.26,7.07Z"/><path class="cls-1" d="M6.77,10.48s0,0,0,0c0,.37,0,.75,0,1.12a1.94,1.94,0,0,0,0,.24.05.05,0,0,0,0,.07s.07,0,.08-.06a1,1,0,0,1,0-.17c0-.43,0-.88.11-1.31,0-.14,0-.29,0-.47A1.19,1.19,0,0,0,6.77,10.48Z"/></g></g></g></g></g></svg>