<svg xmlns="http://www.w3.org/2000/svg" width="128.212" height="46.799" viewBox="0 0 128.212 46.799"><defs><style>.cls-1{fill:#fff;}</style></defs><title>title-sinopsis</title><g id="Layer_2" data-name="Layer 2"><g id="PROYECTO_DL_CONTENIDO" data-name="PROYECTO DL CONTENIDO"><g id="SINOPSIS"><path class="cls-1" d="M3.824,31.405a5.2,5.2,0,0,1-1.43-1.343,4.478,4.478,0,0,1-.586-1.12,9.072,9.072,0,0,1-.5-1.994,3.419,3.419,0,0,1,.033-1.141,1.536,1.536,0,0,1,.428-.841,4.68,4.68,0,0,1,.711-.626A.881.881,0,0,1,3.494,24.3c.142.083.131.233-.024.326-.181.119-.338.236-.517.356a.106.106,0,0,0-.032.078c0,.05.045.068.1.063.252-.1.479-.179.709-.28a4.885,4.885,0,0,0-.7.527c-.2.072-.309.159-.236.173.1-.01.156-.115.238-.2a1.212,1.212,0,0,0,.553-.163,1.522,1.522,0,0,1,.177-.095c.155-.091.331-.135.442.024a.456.456,0,0,1-.043.6,2.369,2.369,0,0,1-.238.249c-.03.053-.082.109-.11.162a.074.074,0,0,0-.008.1.058.058,0,0,0,.1.014,1.95,1.95,0,0,0,.307-.158.46.46,0,0,1,.127-.064c.05-.006.076-.009.1.013,0,0,.02.047-.006.075-.082.108-.191.243-.3.356a.86.86,0,0,0-.284.5c0,.049-.007.125-.013.2a2.1,2.1,0,0,0-.176.416c-.092.233-.051.352.166.426a1.631,1.631,0,0,0,.8.205,3.336,3.336,0,0,0,1.094-.127,3.463,3.463,0,0,1,.705-.23A4.4,4.4,0,0,0,7.7,27.124a3.362,3.362,0,0,1,.541-.358,6.906,6.906,0,0,0,2.017-2.04l.028-.027c.2-.344.185-.54-.071-.734a5.546,5.546,0,0,0-.943-.607,16.838,16.838,0,0,1-2.955-1.71,3.767,3.767,0,0,1-1.477-1.759,1.773,1.773,0,0,1-.132-.9,6.517,6.517,0,0,0-.061-1.229,2.654,2.654,0,0,1,.873-2.228,3.778,3.778,0,0,1,.887-.7c.154-.091.285-.179.414-.269.391-.293.773-.51,1.16-.752a13.985,13.985,0,0,1,1.84-.931,13.911,13.911,0,0,1,2.078-.808,12.6,12.6,0,0,1,2.969-.565,3.023,3.023,0,0,1,1.1.1,1.493,1.493,0,0,1,1.063.99c.123.357.221.716.318,1.076a1.99,1.99,0,0,1,.084.534,3.9,3.9,0,0,0,.01.567A1.678,1.678,0,0,1,17.086,16a.752.752,0,0,1-.342.312,2.37,2.37,0,0,1-.742.408,8.1,8.1,0,0,0,.675-.524c-.041-.094-.119-.035-.172,0-.384.217-.8.463-1.179.679a1.623,1.623,0,0,1-.557.212c-.051.006-.1-.012-.1-.062,0-.025.032-.078.055-.08.129-.089.258-.153.387-.242.025,0,.029-.053.031-.078s-.047-.02-.072-.017l-.379.118c-.277.106-.4.046-.377-.228a4.541,4.541,0,0,0-.039-.836c-.012-.2-.082-.238-.256-.218-.074.009-.125.038-.2.047-.629.2-1.262.444-1.9.714-.279.132-.562.289-.843.419a13.787,13.787,0,0,0-1.569.947c-.336.214-.674.473-1.009.686a1.9,1.9,0,0,0-.209.172c-.209.172-.221.322-.032.448.4.251.8.477,1.205.7a7.449,7.449,0,0,1,1.432,1,5.252,5.252,0,0,1,1.193,1.569A8.916,8.916,0,0,1,12.873,24a7.483,7.483,0,0,1,.252,1.974c.013.173-.094.283-.153.414-.088.183-.064.206.155.253-.067.256-.133.486-.2.742A3.1,3.1,0,0,1,12,28.657c-.553.482-1.125.92-1.676,1.379a6.809,6.809,0,0,1-1.166.828,10.045,10.045,0,0,1-1.33.671,2.022,2.022,0,0,0-.383.194,2.293,2.293,0,0,1-1.5.371A4.086,4.086,0,0,1,3.824,31.405Zm.021-4.454c.106-.085.211-.172.34-.261a1.5,1.5,0,0,1-.353.461C3.838,27.076,3.843,27,3.845,26.951Zm2.842,2.294a4.893,4.893,0,0,0,.942-.432,8.355,8.355,0,0,0,1.478-1.06,1.777,1.777,0,0,0-.633.271,20.747,20.747,0,0,1-1.845,1c-.1.061-.278.081-.315.284A.681.681,0,0,0,6.687,29.245Zm.647-13.254c.054-.057.107-.086.111-.162a1.512,1.512,0,0,0-.7.551A3.888,3.888,0,0,0,7.334,15.991Zm1.55,12.48c-.045-.069-.123-.011-.171,0-.436.248-.9.5-1.333.724a1.114,1.114,0,0,0-.341.31A4.06,4.06,0,0,0,8.884,28.471Zm-1.47,2.666a7.14,7.14,0,0,0,2.465-1.422c.027-.027.054-.054.056-.08a.076.076,0,0,0,.006-.1c0-.026-.047-.044-.07-.041a1.275,1.275,0,0,0-.256.128c-.719.4-1.412.806-2.127,1.16a.709.709,0,0,0-.336.237c-.025,0-.029.053-.031.078a.1.1,0,0,0,.045.068c.025,0,.074-.008.1.014A.354.354,0,0,1,7.414,31.137Zm.877.469c-.155.117-.287.256-.485.253C7.709,31.845,7.966,31.693,8.291,31.606Zm.384-13.693a17.418,17.418,0,0,1,3.161-1.825,14.4,14.4,0,0,1,2.175-.819,1.023,1.023,0,0,0,.356-.165l0-.05a.02.02,0,0,0-.024-.022.368.368,0,0,0-.273.031,16.053,16.053,0,0,0-2.451.9,17.177,17.177,0,0,0-3.137,1.846,1.584,1.584,0,0,0-.477.477A1.958,1.958,0,0,0,8.675,17.913Zm.868,13.079a2.742,2.742,0,0,1-1.252.614A3.536,3.536,0,0,1,9.543,30.992ZM9.826,16.3c.562-.289,1.15-.578,1.758-.822a16.51,16.51,0,0,1,3.144-.956.63.63,0,0,0,.354-.115.52.52,0,0,0,.107-.112c-.019-.072-.066-.116-.115-.11a2.51,2.51,0,0,0-.846.121,12.212,12.212,0,0,0-2.7.906,13.73,13.73,0,0,0-1.869,1.007c-.078.06-.131.115-.209.173a.061.061,0,0,0,.023.047l.022.022C9.619,16.444,9.7,16.36,9.826,16.3Zm.7,14.012a1.937,1.937,0,0,1-.984.683A4.215,4.215,0,0,1,10.527,30.309Zm-.293-16.285a25.128,25.128,0,0,1,2.8-.942l1.426-.313c.175-.046.375-.093.55-.138.024,0,.051-.029.078-.058.006-.075-.044-.069-.093-.064a8.626,8.626,0,0,0-1.366.158,16.274,16.274,0,0,0-2.521.812,10.357,10.357,0,0,0-1.172.555c-.025.027-.027.052,0,.074a.019.019,0,0,0,.022.022C10.056,14.094,10.158,14.057,10.234,14.024Zm1.377,15.245a1.063,1.063,0,0,1,.41-.245,6.821,6.821,0,0,1-1.086,1.064,1.64,1.64,0,0,1-.408.221C10.873,29.948,11.216,29.611,11.611,29.269Zm-.4-15.21c.936-.33,1.889-.59,2.844-.849.151-.042.295-.008.4-.144-.11-.186-.268-.019-.391-.029a3.36,3.36,0,0,0-.5.083,16.4,16.4,0,0,0-2.322.786.928.928,0,0,0-.229.1c-.027.03-.055.056-.055.081,0,.05.071.042.1.038C11.115,14.1,11.164,14.09,11.216,14.059Zm1.131,14.557a.373.373,0,0,0-.1.085A.373.373,0,0,1,12.347,28.616Zm-.025-.023.025.023ZM15.8,16.818a1.686,1.686,0,0,1-.283.18C15.621,16.862,15.718,16.876,15.8,16.818Zm.206-.1c-.079.033-.129.063-.206.1A1.855,1.855,0,0,1,16,16.721Z"/><path class="cls-1" d="M18.431,29.322a2.509,2.509,0,0,1-.1-.285c-.067-.117-.19-.126-.319-.037-.1.061-.211.171-.357.164a.457.457,0,0,1-.274-.315,1.281,1.281,0,0,1-.064-.461.608.608,0,0,0-.3-.558.881.881,0,0,1-.345-.678,2.717,2.717,0,0,1,.273-1.441c.514-1.321,1.025-2.616,1.658-3.9.17-.342.272-.7.444-1.04.117-.261.283-.528.4-.788.262-.575.5-1.147.74-1.743a12.826,12.826,0,0,1,.809-1.7c.338-.583.652-1.188.965-1.768a2.111,2.111,0,0,1,.328-.458c.244-.325.465-.648.66-.968a6.793,6.793,0,0,1,1.219-1.55c.371-.363.791-.387,1.008.008a3.587,3.587,0,0,0,.382.5.851.851,0,0,1,.153.65c-.018.25-.061.476.1.657.047.044.039.142.034.218-.036.153-.071.3-.1.431-.242.621-.482,1.244-.7,1.886a6.635,6.635,0,0,0-.346.708c-.006.074-.01.15-.014.2-.107.137-.242.276-.349.412-.055.055-.082.133-.037.178.093.062.064.141.031.243a7.74,7.74,0,0,1-.512.974c-.021-.047-.072-.041-.1.012s-.059.129-.114.21l-.08.084c-.027.028,0,.05-.031.078a.162.162,0,0,0,.078-.059,1.167,1.167,0,0,0,.035-.128.913.913,0,0,0,.112-.185l.1-.012a2.812,2.812,0,0,1-.3.727c-.111.186-.2.394-.287.577a1.563,1.563,0,0,1-.466.672.987.987,0,0,0-.247.35c0,.025-.033.1.018.122.023,0,.1-.036.123-.039s.027-.028.053-.031a1.034,1.034,0,0,1-.252.426.551.551,0,0,0-.227.42.362.362,0,0,1-.148.364c-.156.091-.16.166-.121.31a.262.262,0,0,1-.1.308c-.205.148-.2.319-.209.519-.027.053-.055.08-.058.131-.108.136-.241.275-.206.467.039.146-.093.284-.177.417-.059.131-.19.244-.176.391a1.591,1.591,0,0,1-.16.192c-.057.081-.033.1.039.119a9.325,9.325,0,0,1-.49,1.366,3.805,3.805,0,0,1-.4.814l0-.026c-.054.056-.131.115-.135.166a6.5,6.5,0,0,0-.242.992.447.447,0,0,1-.332.482,5.605,5.605,0,0,0-.635.3A.159.159,0,0,1,18.431,29.322Zm2.6-4.331v0Zm3.658-8.137c-.006.074-.01.15-.014.2C24.677,17,24.681,16.928,24.687,16.854Z"/><path class="cls-1" d="M35.8,29.32a.889.889,0,0,0-.135-.208.3.3,0,0,0-.395.021c-.131.114-.236.2-.381.168a.411.411,0,0,1-.326-.26,1.886,1.886,0,0,1-.168-.4.509.509,0,0,0-.412-.447.514.514,0,0,1-.414-.4,8.03,8.03,0,0,0-.6-1.561,2.913,2.913,0,0,1-.229-.94c-.129-.972-.2-1.954-.258-2.936-.021-.764.033-1.537-.01-2.3a2.081,2.081,0,0,0-.043-.441.138.138,0,0,0-.246,0,2.264,2.264,0,0,0-.171.341,1.924,1.924,0,0,1-.442.67,9.3,9.3,0,0,1,.443-1.041c.118-.26.209-.518.327-.8,0-.025.007-.1-.065-.09a.115.115,0,0,0-.078.033c-.082.134-.191.3-.252.425-.117.286-.26.549-.4.838-.442,1.015-.908,2.058-1.449,3.06-.313.605-.606,1.233-.92,1.861-.457.895-.821,1.827-1.352,2.7a.41.41,0,0,0-.072.33c0,.025,0,.025.023.022,0,.025.024.022.049.019.029-.053.08-.109.109-.161.284-.5.54-1,.774-1.5.369-.71.717-1.443,1.064-2.174.346-.708.713-1.369,1.012-2.1a5.8,5.8,0,0,1,.791-1.426,2.447,2.447,0,0,1-.213.568c-.207.469-.41.913-.615,1.382-.576,1.154-1.152,2.333-1.705,3.509-.342.683-.686,1.342-1.029,2.024a5.358,5.358,0,0,0-.262.549.853.853,0,0,1-.225.4.22.22,0,0,1-.127.064c-.047-.019-.043-.069-.017-.122.006-.075.06-.156.066-.23.028-.028.006-.074-.019-.071a.165.165,0,0,0-.1.036c-.105.11-.213.246-.344.361a.738.738,0,0,1-.414.27c-.125.014-.218-.049-.185-.176a1.181,1.181,0,0,1,.117-.237c.029-.1.062-.2-.031-.267-.071-.042-.172-.006-.28.131a1.628,1.628,0,0,0-.189.244c-.162.191-.313.234-.451.1a.833.833,0,0,1-.4-.6c-.015-.148-.033-.244-.177-.276-.047-.019-.069-.091-.063-.166-.016-.122-.111-.161-.209-.174-.344-.009-.375-.279-.482-.488a.678.678,0,0,1,.045-.647,11.792,11.792,0,0,0,.625-1.508c.095-.308.24-.6.359-.881.465-.994.949-1.94,1.389-2.931.437-.94.92-1.837,1.308-2.8.18-.441.362-.908.563-1.351.238-.547.547-1.076.83-1.6a15.1,15.1,0,0,0,.592-1.4c.2-.444.382-.885.562-1.327a.836.836,0,0,1,.115-.236,17.916,17.916,0,0,0,.948-1.864c.027-.052.035-.153.086-.208a9.708,9.708,0,0,0,.824-1.53,2.211,2.211,0,0,0,.267-.648.456.456,0,0,1,.614-.318.4.4,0,0,1,.142.081,3.7,3.7,0,0,1,1.28,1.385,3.316,3.316,0,0,1,.443,1.755,2.442,2.442,0,0,0,.07.733,20.375,20.375,0,0,1,.184,3.293c-.008.791-.065,1.59-.072,2.407a11.8,11.8,0,0,1-.045,1.315c-.006.075.013.146.007.222.038.193.106.284.18.251.15-.042.135-.164.193-.269a8,8,0,0,0,.452-1.165,6.533,6.533,0,0,1,.273-.724,6.037,6.037,0,0,0,.309-.877,5.381,5.381,0,0,1,.353-.832,5.142,5.142,0,0,0,.537-1.3,13.168,13.168,0,0,1,.854-1.978c.115-.237.234-.5.347-.732a20.227,20.227,0,0,1,1.674-2.742c.057-.1.114-.21.17-.315a6.383,6.383,0,0,1,.742-1.1,5.9,5.9,0,0,1,.483-.55c.5-.479.947-.481,1.23.031a2.916,2.916,0,0,0,.479.538.811.811,0,0,1,.209.866c-.031.1-.041.227-.072.33a2.778,2.778,0,0,1-.29.947,2.262,2.262,0,0,0-.1.383l-.025,0c.132-.114.263-.227.394-.343.053-.055.106-.111.178-.07s.039.145-.016.2c-.139.24-.207.493-.348.734a5.228,5.228,0,0,1-.49,1.019c-.056.452-.427.817-.508,1.245a.083.083,0,0,0,.02.074c.025,0,.051-.032.076-.034.027-.029.08-.084.1-.062s.019.072.017.1c-.113.211-.226.421-.316.629-.018-.072-.012-.171-.139-.131,0,.024-.025.027-.027.052-.01.124.094.064.168.055a5.763,5.763,0,0,1-.549,1.5c-.328.779-.7,1.566-1.055,2.347a1.059,1.059,0,0,1-.138.215l-.049,0-.024-.022a.6.6,0,0,1,.094-.284,4.163,4.163,0,0,0,.465-.992,2.171,2.171,0,0,1,.178-.416,5.755,5.755,0,0,0,.351-.784,7.176,7.176,0,0,1,.322-.729.076.076,0,0,0-.041-.118c-.025,0-.05.03-.078.058-.023,0-.025.028-.027.053a18.609,18.609,0,0,0-.846,1.853,1.82,1.82,0,0,1-.23.471,3.943,3.943,0,0,0-.549,1.127,2.128,2.128,0,0,1-.17.316,2.542,2.542,0,0,0-.215.594,3.615,3.615,0,0,1-.459,1.264,1.863,1.863,0,0,0-.24.6,12.921,12.921,0,0,1-.58,1.575c-.063.181-.125.36-.184.516a6.389,6.389,0,0,1-.377,1.131,2.046,2.046,0,0,0-.209.519c-.035.127-.142.264,0,.371.129-.089.114-.211.172-.341a2.648,2.648,0,0,0,.229-.447,4.834,4.834,0,0,1-.467,1.363c-.021-.047-.041-.117-.115-.108a.2.2,0,0,0-.112.185c-.005.075.043.094.1.039.051-.032.08-.084.131-.116a1,1,0,0,1-.264.576c-.134.188-.22.372-.062.551.043.094-.012.175-.117.261a.739.739,0,0,0-.325.408A.205.205,0,0,0,37,27.3a.084.084,0,0,0,.125-.014.876.876,0,0,1,.158-.142c-.031.078-.039.178-.068.28a.389.389,0,0,1-.17.291.454.454,0,0,0-.282.478,1.528,1.528,0,0,1-.65,1.188C35.951,29.523,35.855,29.509,35.8,29.32ZM25.324,27.661a.186.186,0,0,1,.031-.1c-.025.028-.053.056-.08.084,0,0-.025.027,0,.025C25.273,27.691,25.3,27.688,25.324,27.661Zm1.385-2.856c0-.025-.024-.022-.022-.047l-.025.028,0,.05A.089.089,0,0,1,26.709,24.805Zm1.283-2.794c.023,0,0-.024,0-.05-.026,0-.051.006-.03.053Zm8.445,6.566-.049,0,.024.022Zm.844-1.457,0,.024Zm1.066-3.213c-.027.026-.08.082-.107.11A.417.417,0,0,1,38.347,23.907Zm.133-.487a3.605,3.605,0,0,0-.133.487A1.2,1.2,0,0,1,38.48,23.42Zm.1-.407.023.022a2.5,2.5,0,0,0-.125.385C38.513,23.293,38.548,23.165,38.582,23.013Zm.275-.724a1.207,1.207,0,0,1-.275.724l.023.022A1.189,1.189,0,0,1,38.857,22.289Zm.184-.516c.1-.332.2-.691.293-1.023a2.049,2.049,0,0,1,.316-.63c.025,0,.051-.03.076-.033a.075.075,0,0,1,.02.072c.023.021,0,.024,0,.049q-.313.78-.627,1.556a.113.113,0,0,1-.051.031S39.039,21.8,39.041,21.773Zm.894-2.2c0-.026.028-.029.026,0v.024l-.026,0Zm.2-.642c.03-.077.059-.155.088-.231.03-.053.084-.135.114-.186a2.694,2.694,0,0,1-.188.565C40.048,19.036,40.127,18.977,40.13,18.927Zm.231-.5c0-.051.029-.053.051-.031a.107.107,0,0,0-.028.053c-.025,0-.05.031-.078.058C40.334,18.485,40.336,18.459,40.361,18.432ZM42.783,11.4a.329.329,0,0,0-.092.26C42.8,11.448,42.838,11.346,42.783,11.4Zm.107-3.6-.025,0,.023.047Zm1.078,1.483.022.021-.026.027Z"/><path class="cls-1" d="M47.992,26.154a3.615,3.615,0,0,1-1.824-1.026,14.075,14.075,0,0,1-1.247-1.857,4.666,4.666,0,0,1-.347-3.423c.1-.433.185-.887.291-1.318.033-.128.066-.255.1-.383a12.7,12.7,0,0,1,.928-1.962,4.022,4.022,0,0,0,.283-.528,6.523,6.523,0,0,1,.9-1.537c.056-.081.113-.186.168-.266a12.489,12.489,0,0,1,.892-1.488c.139-.214.329-.434.491-.651.24-.275.435-.569.652-.867.135-.163.3-.33.455-.5a3.7,3.7,0,0,0,.506-.529,10.092,10.092,0,0,1,1.955-1.858,3.046,3.046,0,0,0,.4-.367,7.051,7.051,0,0,1,1.681-1.133,2.383,2.383,0,0,1,.428-.124.463.463,0,0,1,.318.013c.071.041.192.077.207.2-.009.15-.136.19-.236.226a1.792,1.792,0,0,0-.807.611l-.023-.021c.3-.109.607-.244.889-.375a.94.94,0,0,1-.133.14c-.028.028-.032.078-.006.074.047.02.072-.007.1-.037.055-.054.036-.127.04-.177.1-.112.21-.2.326-.112.049.02.119.061.168.079.17.056.359.133.549-.088a.352.352,0,0,1,.373-.068,1.215,1.215,0,0,1,.589.353,2.974,2.974,0,0,1,.3.287.377.377,0,0,0,.311.136.55.55,0,0,1,.529.163A3.674,3.674,0,0,1,59.3,9.468a1.771,1.771,0,0,1,.079.635,4.794,4.794,0,0,1-.147,1.005,2.4,2.4,0,0,1-.523,1.124c-.08.084-.036.152.089.114a.041.041,0,0,1,.047.043c-.031.1-.066.231-.1.333a7.042,7.042,0,0,1-.577,1.525,1.916,1.916,0,0,0-.357.857.225.225,0,0,1-.059.131,2.9,2.9,0,0,0-.459.919.641.641,0,0,1-.2.344c-.158.166-.291.281-.23.5a.335.335,0,0,1-.088.183,1.6,1.6,0,0,0-.375.76l-.1.012.026,0c-.159.117-.161.142-.039.178a6.57,6.57,0,0,1-.706,1.243.749.749,0,0,0-.115.26,10.738,10.738,0,0,1-.9,1.588,1.639,1.639,0,0,1-.188.245c-.072-.042-.144-.057-.2.023-.133.139-.267.3-.4.466-.7.923-1.387,1.842-2.162,2.7-.028.053-.106.112-.039.2.082-.084.183-.145.263-.228a9.47,9.47,0,0,0,1.014-1.106c.326-.434.629-.889.957-1.323.191-.27.381-.514.57-.757a4.825,4.825,0,0,1-.668,1.09,16.458,16.458,0,0,1-1.546,1.983,4.809,4.809,0,0,1-3.149,1.7A4.469,4.469,0,0,1,47.992,26.154Zm2.137-4.425a6.817,6.817,0,0,0,1.082-1.362,1.784,1.784,0,0,1,.136-.212,9.244,9.244,0,0,0,1.133-1.714.653.653,0,0,1,.084-.134,4.76,4.76,0,0,0,.51-.949q.3-.666.687-1.34a3.318,3.318,0,0,0,.407-.863,12.46,12.46,0,0,1,.632-1.631c.059-.129.116-.235.174-.365.28-.825.584-1.626.84-2.448.186-.539.272-1.069.41-1.63a3.3,3.3,0,0,0,.061-.5.537.537,0,0,0-.4-.6.178.178,0,0,0-.228.075,2.639,2.639,0,0,0-.568.733V8.769c-.162.191-.343.337-.5.527a.713.713,0,0,0-.229.472c.014.121-.09.208-.217.272a1.459,1.459,0,0,0-.554.509c-.215.273-.409.541-.625.814a3.729,3.729,0,0,0-.33.509c.209-.172.392-.343.6-.515a18.663,18.663,0,0,1-1.148,1.615L52.1,12.8l-.236.177c0,.023-.027.051,0,.072,0,.026.047.021.072.018l.155-.093a4.1,4.1,0,0,1-.229.446c-.453.821-.976,1.621-1.383,2.461a1.206,1.206,0,0,1-.433.569c-.155.092-.313.234-.1.408.047.045.016.121-.037.177-.057.105-.137.189-.193.295a.269.269,0,0,0-.092.256c-.1.309-.193.643-.315.953-.093.283-.214.593-.333.878a15.028,15.028,0,0,1-.641,1.731,2.959,2.959,0,0,0-.268,1.367c.035.539.2.644.69.34A7.361,7.361,0,0,0,50.129,21.729Zm-.4,1.826a5.837,5.837,0,0,0,1.373-1.3.17.17,0,0,0,.031-.1c0-.024-.046-.044-.07-.041a.569.569,0,0,0-.129.064,15.826,15.826,0,0,1-1.291,1.188c-.053.055-.082.108-.135.164a.108.108,0,0,0,.02.071.068.068,0,0,0,.047.019A.428.428,0,0,0,49.728,23.555Zm.383.154a5.257,5.257,0,0,0,1.137-1.1.079.079,0,0,0,.007-.1c-.023-.022-.074-.017-.126.039-.344.337-.713.676-1.083,1.015a.84.84,0,0,0-.083.134l.023.022c0,.024.023.022.023.022A.143.143,0,0,0,50.111,23.709Zm1.1.788a11.766,11.766,0,0,0,1.431-1.749.135.135,0,0,0,.031-.1.02.02,0,0,0-.023-.023l-.049.006a.81.81,0,0,0-.158.142A17.555,17.555,0,0,1,50.769,24.5a1.384,1.384,0,0,0-.242.275.123.123,0,0,0-.01.125c.024.022.074.016.123.012A3.4,3.4,0,0,0,51.211,24.5Zm-.022.67a.07.07,0,0,0-.049-.019.364.364,0,0,0-.181.145c0,.024-.006.075.017.072C51.023,25.409,51.181,25.267,51.189,25.167Zm.074-11.061c-.158.141-.267.277-.191.269C51.222,14.332,51.23,14.208,51.263,14.106Zm.362-4.072-.079.083v.025A.425.425,0,0,1,51.625,10.034Zm.509-.553a.4.4,0,0,1-.084.107A.4.4,0,0,0,52.134,9.481Zm1.211,1.665a1.971,1.971,0,0,0-.115.211A.642.642,0,0,1,53.345,11.146Zm.518-.7a.1.1,0,0,1,.051-.03l0,.048-.049.006ZM55.3,8.67c-.057.082-.088.184-.206.1v.023A1,1,0,0,1,55.3,8.67Zm.1-.111a.492.492,0,0,0-.1.111A.255.255,0,0,1,55.4,8.559Zm.309-.877a.03.03,0,0,0,.027-.027c-.022-.047-.047-.045-.123-.011-.025,0-.1.061-.18.1-.025.027-.078.083-.031.1,0,.026.049.02.074.017A.3.3,0,0,0,55.709,7.682Zm-.227.769.023,0a.555.555,0,0,0-.105.111A.45.45,0,0,1,55.482,8.451Zm.106-.111a.439.439,0,0,1-.083.108l-.023,0A.534.534,0,0,0,55.588,8.34Zm.107-.111a.266.266,0,0,1-.107.111A.266.266,0,0,0,55.7,8.229Zm.639,9.717-.026,0,.1-.012a.772.772,0,0,1-.111.187l.023.022Z"/><path class="cls-1" d="M60.558,24.7c-.062-.166-.137-.158-.287-.115-.326.086-.373.043-.476-.218a1.092,1.092,0,0,1-.079-.288.759.759,0,0,0-.2-.347.949.949,0,0,1-.271-1.031,2.452,2.452,0,0,1,.22-.694c.178-.416.381-.835.557-1.252.656-1.608,1.432-3.158,2.232-4.709.317-.629.68-1.24,1-1.869.14-.264.259-.55.427-.816.256-.5.563-1.005.846-1.506a8.2,8.2,0,0,0,.422-.768,7.385,7.385,0,0,1,.664-1.015c.135-.164.07-.28-.127-.282-.074.008-.15.042-.225.051.155-.092.284-.181.438-.274.023,0,.053-.056.055-.081,0-.049-.071-.04-.1-.037-.279.13-.559.236-.838.369-.178.07-.357.165-.535.234-.2.072-.227.075-.283-.166-.02-.072-.069-.066-.118-.084-.289-.09-.312-.113-.24-.418a.873.873,0,0,0-.023-.369.448.448,0,0,1,.054-.426,1.9,1.9,0,0,1,.571-.758c.287-.206.6-.416.883-.621.1-.086.23-.15.337-.237a3.277,3.277,0,0,1,.872-.5,4.921,4.921,0,0,1,.507-.232,10.2,10.2,0,0,1,2.106-.861,8.765,8.765,0,0,1,3.064-.476c.221,0,.42-.026.641-.027.123.011.221.025.318.038a3.368,3.368,0,0,1,2.713,2.357,7.47,7.47,0,0,1,.35,2.7,4.381,4.381,0,0,1-.789,2.44c-.055.056-.057.107-.084.134-.45.423-.735.975-1.2,1.35-.315.234-.559.558-.893.771a1.491,1.491,0,0,0-.9.475.177.177,0,0,0-.031.1c.024,0,.073.017.1-.01.1-.062.207-.122.285-.181a2.13,2.13,0,0,1,.438-.274,3.2,3.2,0,0,1-.735.629.426.426,0,0,1-.3.134.792.792,0,0,0-.505.182.609.609,0,0,1-.157.116c-.734.631-1.529,1.092-2.285,1.674a.232.232,0,0,1-.129.064,20.948,20.948,0,0,1-4.213,2.119c-.3.109-.609.245-.914.377-.2.073-.314.26-.449.423a.041.041,0,0,0-.045-.044c0-.024-.025,0-.025,0,0,.05.049.02.1.038a4.982,4.982,0,0,1-.571,1.106c0-.026.006-.1-.045-.071-.025,0-.027.053-.054.082-.03.051-.059.129-.088.182a.461.461,0,0,1-.106.112.579.579,0,0,1-.1.112l-.006.074s.051-.03.053-.055c.027-.028.029-.078.058-.131a.54.54,0,0,1,.106-.112c.029-.053.058-.131.09-.208.05-.006.072.017.1.015a3.205,3.205,0,0,1-.7,1.193,1.112,1.112,0,0,0-.248.374c-.006.075.016.122.088.139l0-.026a1.266,1.266,0,0,1-.336.559c-.1.086-.061.181.008.246l-.026,0a1.673,1.673,0,0,1-.205.469l0,.025c-.193-.053-.324.062-.5.156C60.646,24.841,60.6,24.822,60.558,24.7Zm.746-.111-.023,0Zm.235-.521,0,.024-.026,0Zm.326-.781a.862.862,0,0,1,.111-.185c-.027.053-.082.134-.113.211Zm.113-.21,0,.025Zm2.629-3.716a8.071,8.071,0,0,0,2.322-1.133,3.088,3.088,0,0,0,.264-.254.892.892,0,0,0,.2-.122,1.277,1.277,0,0,0,.277-.081c.153-.068.235-.176.186-.17a.244.244,0,0,0-.227.051,2.027,2.027,0,0,0-.238.224,1.691,1.691,0,0,1-.2.1c-.129.064-.279.107-.406.17a14.882,14.882,0,0,1-2.385.993.331.331,0,0,0-.18.095.233.233,0,0,0-.056.106c-.028.053.019.072.068.091A.984.984,0,0,0,64.607,19.364Zm.027-9.721c.231-.124.485-.229.715-.354.281-.131.561-.261.867-.421a.584.584,0,0,0,.235-.176l0-.05c-.026,0-.024-.021-.049-.019a.756.756,0,0,0-.225.05,14.627,14.627,0,0,0-1.687.889.163.163,0,0,0-.08.059l0,.048.047.044C64.509,9.683,64.558,9.677,64.634,9.643Zm-.14,10.278a.145.145,0,0,1,.1-.036c.026,0,.024.022.047.019-.027.052-.078.058-.127.064C64.49,19.971,64.466,19.949,64.494,19.921Zm.463-9.944.023,0a.111.111,0,0,0-.076.034A.1.1,0,0,1,64.957,9.977Zm.175,7.867.028-.027,0,.024c-.074.009-.125.04-.174.046-.025,0-.027.027-.051.031,0,.049.018.071.071.04A.645.645,0,0,0,65.132,17.844Zm.129-8a1.606,1.606,0,0,0-.3.133A1.606,1.606,0,0,1,65.261,9.844Zm.049,7.584c.028-.027.029-.053.055-.055-.026,0-.049-.019-.074.008s-.078.059-.106.086A.221.221,0,0,1,65.31,17.428ZM65.6,19.6a.213.213,0,0,0,.1-.037l-.024,0c-.027.028-.052.031-.078.058l-.025,0C65.55,19.6,65.55,19.6,65.6,19.6Zm.36-.191c.863-.371,1.666-.908,2.509-1.352.231-.127.44-.3.672-.449a3.639,3.639,0,0,1,.645-.4,3.96,3.96,0,0,1-1.094.843c-.643.371-1.285.742-1.951,1.092a3.3,3.3,0,0,1-1.039.416A2.787,2.787,0,0,0,65.959,19.405Zm-.075-3.8c-.025,0-.1.012-.054.082C65.857,15.659,65.859,15.633,65.884,15.606Zm1.127-.277c.34-.263.7-.5,1.065-.743a17.2,17.2,0,0,0,2.607-2.056c.289-.255.557-.559.871-.817A17.686,17.686,0,0,0,73.7,9.561a2.691,2.691,0,0,0,.3-.406c.113-.211.1-.332-.067-.462a1.554,1.554,0,0,0-.519-.286,4.209,4.209,0,0,0-1.141-.239,7.721,7.721,0,0,0-2.15.1,1.94,1.94,0,0,0-.686.278c-.1.086-.137.213-.043.278.07.064.166.079.133.207a2.828,2.828,0,0,1-.33.828c-.242.3-.319.68-.586.983a.321.321,0,0,0-.035.152,1.717,1.717,0,0,1-.244.646c-.254.449-.506.875-.786,1.328-.043-.07-.115-.111-.173.02a.673.673,0,0,0,.2-.049c-.26.55-.617,1.086-.928,1.617a.7.7,0,0,1-.289.279c-.078.034-.154.092-.139.19a1.375,1.375,0,0,1-.14.609c-.035.153.082.239.209.174A5.041,5.041,0,0,0,67.011,15.329Zm-.252-8.207a4.554,4.554,0,0,0,1.108-.349A12.354,12.354,0,0,1,69.15,6.4c.729-.183,1.479-.343,2.2-.451a.716.716,0,0,0,.377-.093,3.934,3.934,0,0,0-1.33.006,13.831,13.831,0,0,0-3.174.984,1.375,1.375,0,0,0-.463.274,1.413,1.413,0,0,0-.486.255A1.355,1.355,0,0,0,66.759,7.122Zm-.14,7.164.027-.029-.027.029c-.055.08-.182.119-.141.238C66.582,14.462,66.589,14.363,66.619,14.286Zm.015-6.778a7.9,7.9,0,0,0,1.746-.67,1.144,1.144,0,0,0,.5-.058c.525-.11,1.052-.245,1.552-.352a1.52,1.52,0,0,0,.582-.217c-.1-.012-.148-.007-.172-.029a10.4,10.4,0,0,0-2.076.462.867.867,0,0,0-.383.194,4.393,4.393,0,0,0-1.746.67l0,.026Zm.319,6.22,0-.025-.026.028Zm.552,2.631a.835.835,0,0,1,.208-.122.835.835,0,0,0-.208.122,2.127,2.127,0,0,1-.2.1A2.127,2.127,0,0,0,67.505,16.359ZM69.8,7.738l.669-.077c.35-.066.674-.129,1.022-.168.025,0,.076-.034.078-.059.029-.078-.019-.072-.068-.092a6.231,6.231,0,0,0-2.008.207c-.15.018-.231.1-.211.174.045.069.119.061.195.053A1.514,1.514,0,0,0,69.8,7.738Zm.07.387a.2.2,0,0,0-.072-.017c-.028.028-.051.031-.079.059.026,0,.045.044.071.041A.1.1,0,0,0,69.865,8.125Zm.078,8.915c.414-.269.783-.608,1.217-.832a3.784,3.784,0,0,1-1.375,1A1.238,1.238,0,0,1,69.943,17.04Zm1.3-.889c.025,0,.025,0,.027-.029a.389.389,0,0,1-.105.086C71.187,16.18,71.213,16.178,71.238,16.151Zm1.725-1.387a.454.454,0,0,1,.105-.086.255.255,0,0,0-.107.111Zm.4-.492a.534.534,0,0,1,.1-.11.409.409,0,0,0-.1.086l-.028.028Z"/><path class="cls-1" d="M79.271,22.69a5.261,5.261,0,0,1-1.432-1.343,4.538,4.538,0,0,1-.584-1.12,9.143,9.143,0,0,1-.5-1.994,3.447,3.447,0,0,1,.034-1.141,1.54,1.54,0,0,1,.427-.842,4.778,4.778,0,0,1,.711-.625.883.883,0,0,1,1.012-.045c.143.084.131.234-.023.327-.182.118-.338.236-.518.355a.109.109,0,0,0-.031.078c0,.05.045.069.095.063.252-.1.479-.178.709-.28a5.1,5.1,0,0,0-.7.528c-.2.072-.306.159-.234.174.1-.012.156-.116.236-.2a1.212,1.212,0,0,0,.555-.163,1.355,1.355,0,0,1,.178-.094c.154-.092.33-.137.441.023a.455.455,0,0,1-.043.6,2.475,2.475,0,0,1-.238.25c-.029.053-.082.109-.11.162a.073.073,0,0,0-.007.1.057.057,0,0,0,.1.014,1.95,1.95,0,0,0,.307-.158.52.52,0,0,1,.127-.065c.051,0,.076-.008.1.013,0,0,.021.047-.006.075a4.443,4.443,0,0,1-.3.357.856.856,0,0,0-.283.5c0,.05-.008.125-.014.2a2.122,2.122,0,0,0-.176.416c-.092.232-.051.352.166.426a1.62,1.62,0,0,0,.8.2,3.308,3.308,0,0,0,1.094-.126,3.463,3.463,0,0,1,.7-.23,4.387,4.387,0,0,0,1.281-.716,3.323,3.323,0,0,1,.543-.36,6.955,6.955,0,0,0,2.018-2.039l.027-.027c.2-.345.186-.54-.07-.734a5.685,5.685,0,0,0-.944-.608,16.812,16.812,0,0,1-2.955-1.71,3.75,3.75,0,0,1-1.476-1.759,1.736,1.736,0,0,1-.133-.9A6.513,6.513,0,0,0,80.1,9.045a2.653,2.653,0,0,1,.873-2.228,3.748,3.748,0,0,1,.887-.7c.154-.092.283-.181.414-.27.391-.293.774-.511,1.16-.753a13.857,13.857,0,0,1,1.84-.93,13.953,13.953,0,0,1,2.078-.808A12.615,12.615,0,0,1,90.316,2.8a3.07,3.07,0,0,1,1.1.1,1.494,1.494,0,0,1,1.062.99c.121.357.221.717.318,1.076a1.958,1.958,0,0,1,.084.535,3.889,3.889,0,0,0,.01.566,1.684,1.684,0,0,1-.359,1.23.747.747,0,0,1-.342.31,2.32,2.32,0,0,1-.742.408,7.85,7.85,0,0,0,.676-.523c-.043-.094-.12-.036-.172,0-.385.217-.8.463-1.18.68a1.638,1.638,0,0,1-.557.213c-.05.005-.1-.013-.095-.063,0-.025.031-.078.054-.081.129-.089.258-.152.387-.242.026,0,.029-.053.031-.078s-.047-.019-.072-.016c-.127.038-.252.078-.379.118-.277.106-.4.046-.377-.228a4.455,4.455,0,0,0-.039-.836c-.012-.2-.082-.239-.256-.218-.074.009-.125.038-.2.046-.629.2-1.262.445-1.9.715-.28.132-.563.289-.844.418a13.839,13.839,0,0,0-1.568.948c-.336.213-.674.474-1.01.686a1.982,1.982,0,0,0-.209.172c-.209.172-.221.323-.031.449.4.251.8.476,1.2.7a7.5,7.5,0,0,1,1.431,1,5.251,5.251,0,0,1,1.194,1.568,8.8,8.8,0,0,1,.777,1.863,7.365,7.365,0,0,1,.254,1.973c.014.174-.094.283-.152.414-.088.184-.065.206.154.254-.067.256-.133.486-.2.742a3.11,3.11,0,0,1-.926,1.269c-.553.483-1.127.921-1.676,1.379a6.809,6.809,0,0,1-1.166.828,10.238,10.238,0,0,1-1.33.672,2.05,2.05,0,0,0-.383.193,2.276,2.276,0,0,1-1.5.371A4.1,4.1,0,0,1,79.271,22.69Zm.022-4.454c.1-.085.211-.173.339-.261a1.486,1.486,0,0,1-.353.461C79.285,18.361,79.291,18.286,79.293,18.236Zm2.841,2.294a4.926,4.926,0,0,0,.942-.432,8.406,8.406,0,0,0,1.478-1.06,1.8,1.8,0,0,0-.633.271,20.235,20.235,0,0,1-1.845,1c-.1.061-.278.082-.315.285A.69.69,0,0,0,82.134,20.53Zm.647-13.254c.055-.057.107-.087.111-.162a1.512,1.512,0,0,0-.7.55A3.91,3.91,0,0,0,82.781,7.276Zm1.551,12.48c-.045-.069-.123-.01-.172,0-.436.248-.9.5-1.332.724a1.064,1.064,0,0,0-.342.311A4.075,4.075,0,0,0,84.332,19.756Zm-1.471,2.666A7.131,7.131,0,0,0,85.326,21c.027-.027.054-.054.056-.08a.075.075,0,0,0,.006-.1c0-.026-.047-.044-.07-.041a1.224,1.224,0,0,0-.256.128c-.719.4-1.412.806-2.127,1.16a.7.7,0,0,0-.336.237c-.025,0-.029.053-.031.078s.021.046.045.068c.025,0,.074-.009.1.014A.346.346,0,0,1,82.861,22.422Zm.877.468c-.154.118-.287.257-.484.254C83.156,23.13,83.414,22.977,83.738,22.89ZM84.123,9.2a17.462,17.462,0,0,1,3.158-1.825,14.558,14.558,0,0,1,2.178-.819,1.028,1.028,0,0,0,.355-.165l0-.05a.019.019,0,0,0-.023-.022.366.366,0,0,0-.274.031,16.053,16.053,0,0,0-2.451.9A17.229,17.229,0,0,0,83.933,9.1a1.615,1.615,0,0,0-.476.477A1.939,1.939,0,0,0,84.123,9.2Zm.867,13.078a2.732,2.732,0,0,1-1.252.614A3.57,3.57,0,0,1,84.99,22.276Zm.283-14.694c.561-.289,1.15-.579,1.756-.822A16.649,16.649,0,0,1,90.175,5.8a.623.623,0,0,0,.354-.115.493.493,0,0,0,.107-.11c-.021-.073-.066-.117-.115-.111a2.535,2.535,0,0,0-.846.121,12.181,12.181,0,0,0-2.7.907A13.615,13.615,0,0,0,85.105,7.5c-.078.06-.131.115-.209.173a.059.059,0,0,0,.024.047l.021.022C85.066,7.729,85.144,7.645,85.273,7.582Zm.7,14.012a1.918,1.918,0,0,1-.982.682A4.336,4.336,0,0,1,85.972,21.594ZM85.681,5.308a25.536,25.536,0,0,1,2.8-.941l1.426-.314c.176-.045.375-.092.551-.137.023,0,.05-.03.078-.058.006-.075-.045-.069-.1-.064a8.616,8.616,0,0,0-1.363.158,16.246,16.246,0,0,0-2.522.811,10.713,10.713,0,0,0-1.172.555c-.025.027-.027.053,0,.075,0,.024.023.021.023.021C85.5,5.379,85.605,5.342,85.681,5.308Zm1.377,15.245a1.088,1.088,0,0,1,.41-.245,6.663,6.663,0,0,1-1.086,1.065,1.632,1.632,0,0,1-.41.221C86.32,21.233,86.664,20.9,87.058,20.553ZM86.664,5.344c.933-.33,1.888-.59,2.843-.849.151-.041.3-.008.4-.144-.11-.187-.268-.019-.391-.03a3.364,3.364,0,0,0-.5.084A16.483,16.483,0,0,0,86.7,5.19a1.034,1.034,0,0,0-.229.1c-.027.029-.054.056-.054.081,0,.05.07.042.095.039C86.562,5.381,86.611,5.375,86.664,5.344ZM87.8,19.9a.365.365,0,0,0-.106.085A.365.365,0,0,1,87.8,19.9Zm-.026-.023.026.023ZM91.244,8.1a1.82,1.82,0,0,1-.283.181C91.068,8.147,91.166,8.161,91.244,8.1Zm.2-.1c-.078.034-.129.064-.2.1A2.011,2.011,0,0,1,91.449,8.005Z"/><path class="cls-1" d="M93.879,20.606a2.48,2.48,0,0,1-.1-.284c-.066-.117-.189-.126-.318-.037-.1.061-.211.171-.358.164a.457.457,0,0,1-.273-.315,1.309,1.309,0,0,1-.065-.462.61.61,0,0,0-.3-.558.88.88,0,0,1-.346-.678A2.712,2.712,0,0,1,92.386,17c.514-1.322,1.026-2.617,1.659-3.9.169-.342.271-.7.443-1.041.117-.26.283-.527.4-.788.262-.574.5-1.145.741-1.742a12.753,12.753,0,0,1,.808-1.7c.338-.583.652-1.189.965-1.768A2.093,2.093,0,0,1,97.73,5.6a11.269,11.269,0,0,0,.658-.967,6.879,6.879,0,0,1,1.221-1.55c.371-.363.791-.387,1.008.007a3.462,3.462,0,0,0,.383.5.854.854,0,0,1,.152.651c-.018.249-.061.476.1.656.046.045.039.143.033.219-.035.152-.071.3-.1.431-.242.621-.482,1.244-.7,1.886a6.45,6.45,0,0,0-.346.708c0,.074-.009.15-.013.2-.11.137-.242.276-.35.412-.055.055-.084.133-.037.177.094.064.064.142.031.243a7.807,7.807,0,0,1-.511.975c-.022-.047-.073-.041-.1.012a2.392,2.392,0,0,1-.113.211,1.058,1.058,0,0,0-.08.084c-.028.027,0,.048-.032.076.026,0,.053-.03.078-.059a1.1,1.1,0,0,0,.036-.127.879.879,0,0,0,.111-.185l.1-.012a2.9,2.9,0,0,1-.3.727,6.186,6.186,0,0,0-.287.577,1.583,1.583,0,0,1-.467.673.96.96,0,0,0-.246.349c0,.026-.034.1.015.121.026,0,.1-.035.125-.038s.028-.028.053-.031a1.02,1.02,0,0,1-.252.425.55.55,0,0,0-.226.422.364.364,0,0,1-.149.363c-.156.092-.16.166-.121.31a.263.263,0,0,1-.1.308c-.205.147-.2.319-.209.519a.337.337,0,0,0-.058.13c-.108.136-.24.276-.2.468.039.145-.094.284-.178.417-.059.131-.189.244-.176.391a1.436,1.436,0,0,1-.16.192c-.057.081-.033.1.039.119a9.379,9.379,0,0,1-.49,1.367,3.84,3.84,0,0,1-.4.813v-.025c-.054.055-.13.114-.134.165a6.372,6.372,0,0,0-.242.991.45.45,0,0,1-.333.483,5.51,5.51,0,0,0-.634.3A.158.158,0,0,1,93.879,20.606Zm2.6-4.33v0Zm3.658-8.137c0,.074-.009.15-.013.2C100.125,8.289,100.129,8.213,100.134,8.139Z"/><path class="cls-1" d="M103.386,19.9a5.242,5.242,0,0,1-1.431-1.343,4.5,4.5,0,0,1-.584-1.119,9.025,9.025,0,0,1-.5-2,3.47,3.47,0,0,1,.031-1.141,1.533,1.533,0,0,1,.43-.841,4.652,4.652,0,0,1,.709-.625.879.879,0,0,1,1.011-.045c.143.084.133.233-.021.326-.182.119-.338.237-.518.356a.109.109,0,0,0-.031.078c0,.05.045.068.094.063.254-.1.48-.178.711-.28a4.9,4.9,0,0,0-.7.527c-.2.073-.307.159-.235.174.1-.011.156-.116.237-.2a1.194,1.194,0,0,0,.552-.163,1.907,1.907,0,0,1,.18-.1c.154-.09.33-.135.441.024a.456.456,0,0,1-.043.6,2.592,2.592,0,0,1-.238.25c-.029.052-.082.109-.111.161a.074.074,0,0,0-.006.1.058.058,0,0,0,.1.014,1.942,1.942,0,0,0,.306-.158.581.581,0,0,1,.127-.065c.049,0,.074-.007.1.014,0,0,.021.047-.006.075a4.618,4.618,0,0,1-.3.356.853.853,0,0,0-.283.5c0,.05-.008.125-.014.2a2.241,2.241,0,0,0-.176.415c-.091.233-.05.352.164.427a1.647,1.647,0,0,0,.8.2,3.316,3.316,0,0,0,1.092-.126,3.483,3.483,0,0,1,.707-.231,4.323,4.323,0,0,0,1.281-.717,3.428,3.428,0,0,1,.543-.358,6.946,6.946,0,0,0,2.018-2.04l.027-.027c.2-.344.186-.54-.072-.734a5.55,5.55,0,0,0-.941-.607,16.829,16.829,0,0,1-2.957-1.71A3.759,3.759,0,0,1,104.4,8.388a1.74,1.74,0,0,1-.133-.9,6.791,6.791,0,0,0-.06-1.23,2.652,2.652,0,0,1,.873-2.227,3.757,3.757,0,0,1,.886-.7c.155-.091.284-.18.414-.269.391-.292.774-.51,1.161-.752a13.973,13.973,0,0,1,1.839-.931,13.946,13.946,0,0,1,2.079-.808A12.575,12.575,0,0,1,114.431.01a3.03,3.03,0,0,1,1.1.1,1.5,1.5,0,0,1,1.062.99c.121.357.219.716.317,1.076a1.954,1.954,0,0,1,.086.534,4.068,4.068,0,0,0,.007.567,1.668,1.668,0,0,1-.357,1.228.749.749,0,0,1-.342.311,2.311,2.311,0,0,1-.744.409,7.983,7.983,0,0,0,.678-.524c-.043-.094-.119-.035-.172,0-.385.217-.8.463-1.18.68a1.625,1.625,0,0,1-.558.212c-.049.006-.1-.013-.094-.062,0-.025.031-.078.055-.082.129-.088.257-.152.386-.242.026,0,.03-.053.032-.078s-.049-.018-.073-.016l-.379.119c-.277.106-.4.045-.377-.228a4.383,4.383,0,0,0-.039-.837c-.011-.2-.082-.238-.255-.218-.075.01-.127.038-.2.047-.629.2-1.263.444-1.9.715-.279.13-.561.288-.842.418a14.069,14.069,0,0,0-1.568.947c-.336.213-.674.474-1.01.686a1.7,1.7,0,0,0-.209.173c-.209.172-.221.322-.031.447.4.252.8.477,1.205.7a7.439,7.439,0,0,1,1.43,1,5.225,5.225,0,0,1,1.2,1.568,8.773,8.773,0,0,1,.777,1.862,7.367,7.367,0,0,1,.254,1.974c.012.173-.094.283-.152.414-.088.184-.065.206.154.254-.068.255-.133.485-.2.741a3.111,3.111,0,0,1-.926,1.27c-.553.483-1.127.92-1.676,1.378a6.662,6.662,0,0,1-1.168.829,10.089,10.089,0,0,1-1.328.672,1.991,1.991,0,0,0-.383.193,2.3,2.3,0,0,1-1.5.371A4.08,4.08,0,0,1,103.386,19.9Zm.022-4.454c.105-.085.209-.172.34-.26a1.516,1.516,0,0,1-.354.461C103.4,15.575,103.406,15.5,103.408,15.45Zm2.842,2.294a4.941,4.941,0,0,0,.941-.431,8.419,8.419,0,0,0,1.479-1.061,1.778,1.778,0,0,0-.635.272,20.837,20.837,0,0,1-1.844,1c-.1.061-.277.082-.314.284A.681.681,0,0,0,106.25,17.744ZM106.9,4.491c.055-.057.106-.087.111-.162a1.512,1.512,0,0,0-.7.55A4.1,4.1,0,0,0,106.9,4.491Zm1.551,12.48c-.045-.07-.123-.012-.172-.006-.437.248-.9.5-1.332.724a1.084,1.084,0,0,0-.342.31A4.056,4.056,0,0,0,108.447,16.971Zm-1.471,2.666a7.122,7.122,0,0,0,2.465-1.422c.027-.027.055-.054.057-.08a.08.08,0,0,0,.006-.1c0-.026-.047-.045-.071-.041a1.218,1.218,0,0,0-.256.127c-.718.405-1.412.806-2.127,1.16a.7.7,0,0,0-.336.238c-.025,0-.029.053-.031.078s.022.046.045.067c.026,0,.074-.008.1.014A.327.327,0,0,1,106.976,19.637Zm.877.468c-.154.117-.287.256-.484.254C107.271,20.344,107.529,20.192,107.853,20.105Zm.385-13.693A17.487,17.487,0,0,1,111.4,4.587a14.585,14.585,0,0,1,2.178-.819,1.008,1.008,0,0,0,.355-.164l0-.051s0-.025-.023-.022a.366.366,0,0,0-.274.032,15.807,15.807,0,0,0-2.451.9,17.172,17.172,0,0,0-3.137,1.845,1.589,1.589,0,0,0-.476.476A1.923,1.923,0,0,0,108.238,6.412Zm.867,13.079a2.747,2.747,0,0,1-1.252.614A3.553,3.553,0,0,1,109.105,19.491ZM109.388,4.8c.561-.288,1.149-.578,1.756-.822a16.473,16.473,0,0,1,3.147-.956.622.622,0,0,0,.353-.115.556.556,0,0,0,.108-.112c-.022-.072-.067-.116-.116-.11a2.5,2.5,0,0,0-.845.122,12.235,12.235,0,0,0-2.7.905,13.953,13.953,0,0,0-1.869,1.007c-.078.06-.131.115-.209.173a.061.061,0,0,0,.022.047l.023.022C109.179,4.944,109.259,4.86,109.388,4.8Zm.7,14.012a1.926,1.926,0,0,1-.983.683A4.292,4.292,0,0,1,110.088,18.808ZM109.8,2.522a25.73,25.73,0,0,1,2.8-.942c.477-.1.951-.208,1.428-.312.176-.045.375-.093.551-.137a.2.2,0,0,0,.078-.058c0-.076-.045-.071-.1-.065a8.654,8.654,0,0,0-1.365.158,16.228,16.228,0,0,0-2.52.812,10.434,10.434,0,0,0-1.171.555q-.042.041-.006.075c0,.024.023.021.023.021C109.619,2.593,109.72,2.557,109.8,2.522Zm1.375,15.246a1.078,1.078,0,0,1,.413-.245,6.957,6.957,0,0,1-1.086,1.065,1.663,1.663,0,0,1-.41.22C110.435,18.447,110.779,18.11,111.171,17.768Zm-.392-15.21c.934-.329,1.889-.589,2.842-.849.15-.041.3-.008.4-.144-.109-.186-.27-.018-.391-.029a3.339,3.339,0,0,0-.5.083,16.362,16.362,0,0,0-2.322.786.984.984,0,0,0-.228.1c-.028.028-.055.055-.055.08,0,.051.07.041.094.039C110.677,2.6,110.726,2.589,110.779,2.558Zm1.129,14.558a.4.4,0,0,0-.1.084A.4.4,0,0,1,111.908,17.116Zm-.024-.024.024.024Zm3.475-11.775a1.692,1.692,0,0,1-.285.181C115.183,5.362,115.281,5.375,115.359,5.317Zm.2-.1c-.076.032-.127.064-.2.1A1.7,1.7,0,0,1,115.562,5.22Z"/><path class="cls-1" d="M127.537,32.487a8.234,8.234,0,0,1-1.845-.183c-.4-.045-.81-.091-1.216-.135-.078-.008-.157,0-.208-.078l-.009,0h0l0-.005,0,0,.032.014h-.013a.186.186,0,0,0-.025-.01.578.578,0,0,1-.306.021.162.162,0,0,1-.038.009c-.111,0-.23.078-.329-.029a.069.069,0,0,1,.013-.067.374.374,0,0,1,.338.02c.114-.012.239-.1.332.041l.01-.006h0l.007.008a2.744,2.744,0,0,1,1.422.131c.363-.1.756.1,1.2-.111-.224-.05-.353-.087-.484-.108a17.532,17.532,0,0,0-2.8-.165c-1.325.01-2.646-.063-3.968-.125-1.224-.057-2.446-.173-3.674-.176a18.733,18.733,0,0,1-3.287-.2h0a23.406,23.406,0,0,1-2.484-.066,9.469,9.469,0,0,1-1.678-.123c.254-.193.473-.037.685-.041a4.98,4.98,0,0,1,.743,0,6.532,6.532,0,0,1,.7.05,6.952,6.952,0,0,1,2.211.077,5.252,5.252,0,0,1,1.4.032,15.126,15.126,0,0,0,1.938.116.892.892,0,0,1,.2.039h0a10.637,10.637,0,0,1,1.4-.1c1.018.025,2.029.173,3.049.156.3-.005.606.022.908.041a19.652,19.652,0,0,0,2.226.121A8.643,8.643,0,0,1,126,31.78a1.048,1.048,0,0,0,.72-.066c-.021-.044-.069-.1-.057-.129.018-.049.082-.04.132-.021.16-.048.349.023.486-.12-.465-.066-.939-.019-1.4-.076-.833-.106-1.672-.112-2.5-.2-.123.019-.248.065-.364-.024a2.627,2.627,0,0,1-.586-.067h0l-.253.022-.164.014a.5.5,0,0,1-.357-.024,16.734,16.734,0,0,1-2.148-.027c-.742-.022-1.481-.115-2.226-.085a6.059,6.059,0,0,1-.781-.063,6.578,6.578,0,0,1-.78-.075,5.576,5.576,0,0,1-1.73.009,2.513,2.513,0,0,0-.619-.007,4.067,4.067,0,0,1-1.722-.271,14.157,14.157,0,0,1,2.151.08c.7.045,1.4.058,2.1.085.342.078.7-.041,1.035.063h0a1.457,1.457,0,0,1,.326-.028c.766.108,1.538,0,2.305.073.274-.071.575.019.831-.15a2.869,2.869,0,0,0-.817-.06c-.74-.08-1.483-.137-2.226-.192-1.058-.079-2.118-.148-3.173-.276a13.341,13.341,0,0,0-2.68-.162c-.425.033-.856-.015-1.283-.013a9.6,9.6,0,0,0-2.149.108,3.237,3.237,0,0,1-1.235.058c-.341-.053-.683-.09-1.026-.115a7.123,7.123,0,0,0-2.513.07.978.978,0,0,1-.329.021c-1.17-.087-2.339-.171-3.512-.212q-1.491-.053-2.982-.033c-.367,0-.694.169-1.056.182-.526.018-1.05-.015-1.574-.013a8.732,8.732,0,0,0-2.147.123c-.493.124-1.007.1-1.507.246a4,4,0,0,1-.985.028c-.83.02-1.655-.064-2.483-.085-.911-.024-1.822-.032-2.734-.052a14.077,14.077,0,0,0-2.52.192c-.7.11-1.387.242-2.089.315-1.445.149-2.9.217-4.334.443a17.394,17.394,0,0,1-2.593.3,19.821,19.821,0,0,0-2.19.173c-.674.08-1.342.19-2.015.264-2.7.294-5.4.46-8.1.69a3.251,3.251,0,0,0-.967.157h0l-1.314.13c-.813.075-1.628.125-2.436.229-1.261.164-2.513.391-3.775.548-1.907.236-3.8.541-5.718.737a15.743,15.743,0,0,0-2.126.343,3.066,3.066,0,0,1-.855.141,10.215,10.215,0,0,0-1.856.148c-1.383.193-2.77.358-4.153.551-.725.1-1.445.238-2.166.361-.79.136-1.575.3-2.369.406-1.275.164-2.557.271-3.822.506a4.146,4.146,0,0,1-.579.045,15.1,15.1,0,0,0-1.529.093c-1.039.153-2.069.356-3.1.563a7.418,7.418,0,0,0-2.418.663.5.5,0,0,1-.119.035,9.377,9.377,0,0,1-1.687.4c-.766.1-1.46.483-2.24.557a7.945,7.945,0,0,0-1.657.353,7.006,7.006,0,0,1-2.157.353,8.243,8.243,0,0,0-1.908.359c-.46.11-.9.318-1.369.452-1.005.29-2,.634-3,.928a4.714,4.714,0,0,0-1.977.987,1.053,1.053,0,0,1-.53.222c-.625.121-1.209.383-1.83.516-.1.021-.218.054-.244.138-.077.25-.3.308-.489.411a18.617,18.617,0,0,1-1.625.984c-.159.069-.158.179-.017.282a.69.69,0,0,0,.7.131c.335-.127.682-.22,1.016-.347a.277.277,0,0,1,.4.146c-.076.14-.228.156-.347.212a4.722,4.722,0,0,0-.659.341c-.055.037-.121.087-.1.166.021.094.106.117.188.128a.917.917,0,0,0,.55-.154,2.637,2.637,0,0,1,.74-.359c.548-.082,1.078-.241,1.622-.331.144-.04.307-.018.427-.134a1.075,1.075,0,0,0,.259-.084c.009-.005.02,0,.03-.009a1.424,1.424,0,0,1-.284.1c-.086.1-.257.064-.314.206a1.32,1.32,0,0,1-.48.231c-.372.1-.738.223-1.11.328a.385.385,0,0,0-.274.166.531.531,0,0,1-.437.266,1.742,1.742,0,0,0-.343.14c-.074.033-.166.06-.152.167a.187.187,0,0,0,.174.156,1.76,1.76,0,0,0,.737,0,7.171,7.171,0,0,1,1.118-.3c.1-.016.225-.046.244-.133.069-.313.331-.324.559-.4.836-.276,1.644-.632,2.487-.892.354-.109.767-.1,1.015-.461.031-.046.122-.057.188-.073A4.912,4.912,0,0,0,9.5,44.037a.926.926,0,0,1,.354-.1,9.718,9.718,0,0,0,1.73-.4c.509-.17,1.032-.3,1.549-.444.275-.077.6-.075.788-.311.23-.285.519.033.777-.134a2.533,2.533,0,0,1,.823-.259c.373-.084.72-.247,1.085-.346.219-.06.473.014.647-.207.052-.065.158-.029.238-.014a.682.682,0,0,0,.288,0c.415-.1.83-.2,1.247-.295.566-.124,1.112-.328,1.685-.419a13.075,13.075,0,0,0,1.972-.464,2.691,2.691,0,0,1,.927-.194,3.9,3.9,0,0,0,1.095-.16,1.964,1.964,0,0,1,1.2-.129.833.833,0,0,0,.447-.052,34.9,34.9,0,0,1,4.135-.841,9.052,9.052,0,0,0,1.349-.213,12.8,12.8,0,0,1,1.3-.383,17.066,17.066,0,0,1,3.423-.757.764.764,0,0,0,.2-.048,17.183,17.183,0,0,1,3.755-.61,1.077,1.077,0,0,1,.412,0,1.015,1.015,0,0,0,.573-.011,19.619,19.619,0,0,1,3.661-.428,26.112,26.112,0,0,0,3.826-.465,36.586,36.586,0,0,1,4.346-.6l.085-.007c.062-.091.158-.081.249-.086a1.011,1.011,0,0,0,.641-.02,1.892,1.892,0,0,1,.687-.1,1.649,1.649,0,0,0,1.107-.152.331.331,0,0,1,.2-.026,2.16,2.16,0,0,0,.983-.191c.812-.075,1.625-.136,2.433-.249a23.678,23.678,0,0,1,2.424-.307c1.3-.047,2.6-.077,3.891-.189.4-.034.8-.076,1.2-.1.992-.057,1.994-.076,2.974-.194a38.581,38.581,0,0,1,3.93-.181,20.848,20.848,0,0,0,2.4-.169,13.456,13.456,0,0,1,2.669-.306.414.414,0,0,0,.163-.027,2.828,2.828,0,0,1,.858-.124,2.654,2.654,0,0,0,.9-.147c.087-.035.21-.088.278-.021.193.188.375.078.574.029a4.085,4.085,0,0,1,.687-.151c.966-.064,1.917-.239,2.873-.391,1.926-.306,3.873-.441,5.814-.62,1.461-.134,2.927-.106,4.391-.16.347-.013.7,0,1.042.006l.006.082c-.484-.024-.921.223-1.415.173a9.671,9.671,0,0,0-2.355.053,2.242,2.242,0,0,1-.823.043,2.1,2.1,0,0,0-.995.046,2.362,2.362,0,0,1-.651.1c-1.152-.026-2.284.226-3.433.238a.415.415,0,0,0-.412.2,1.537,1.537,0,0,0,.666.033,9.837,9.837,0,0,1,1.281-.107c2.308-.057,4.606-.308,6.917-.3,1.022.005,2.045-.055,3.067-.054.47,0,.938-.044,1.408-.03a13.054,13.054,0,0,0,1.78-.013,2.867,2.867,0,0,1,.538-.03c1.559.129,3.119-.052,4.677,0a11.065,11.065,0,0,1,1.361-.013c.936.156,1.867-.1,2.8.045.494.079,1.015.019,1.52.083a4.19,4.19,0,0,0,.867.013h0c.248-.087.535.017.766-.156-.2-.122-.459.023-.739-.158a9.539,9.539,0,0,1,1.77-.03,11.153,11.153,0,0,1,1.734.038c.575.029,1.15.072,1.725.109h0a1.906,1.906,0,0,1,.6.111h0c.146-.043.292-.089.42.039a.805.805,0,0,1,.419-.013.279.279,0,0,1,.243-.035h0l.589.03c.168,0,.342-.1.5.038l.006,0c.193,0,.387-.091.577.013a2.361,2.361,0,0,0,.665.047,3.007,3.007,0,0,1,.947-.018,8.844,8.844,0,0,0,1.026.1c.59.018,1.176.091,1.766.11a11.086,11.086,0,0,0,1.4.025c.073-.007.17.018.206-.12A4.652,4.652,0,0,0,127.537,32.487ZM111.42,30.519s.023.035.033.052c-.025.058-.065.035-.1.023a.155.155,0,0,1-.033-.024A.809.809,0,0,1,111.42,30.519ZM33.208,37.126c.046-.026.07.008.091.041-.014.019-.033.057-.043.054a.485.485,0,0,1-.106-.044A.348.348,0,0,1,33.208,37.126Zm13.645-1.243h0a.18.18,0,0,1,.172.072C46.968,35.929,46.848,36.058,46.853,35.883Zm20.618-2.638a3.811,3.811,0,0,1-1.1.01c-.164-.051-.267.106-.426.11-.336.008-.669.081-1,.093-.161.006-.181.189-.342.191a3.9,3.9,0,0,1-1.351.014c-.063-.021-.147-.079-.193-.025-.209.244-.484.107-.727.153-.564.108-1.137.1-1.7.164-.415.045-.833.065-1.246.138-.4.071-.794.126-1.189.206a5.881,5.881,0,0,0-.867.189l.01.093c.041.015.09.021.083.083l-.153,0-.2-.073c-.147-.139-.24.092-.391.055a1.146,1.146,0,0,0-.4.047h0a.675.675,0,0,1-.5.1c-.158-.008-.332-.055-.361.26-.064-.183-.034-.253.036-.31-.146-.145-.326-.053-.462-.018-.185.049-.371.075-.557.107-.159.027-.36-.036-.4.223-.006.036-.144.05-.221.075h0a.233.233,0,0,1-.122-.234,14.646,14.646,0,0,1-1.463.135c-.2.208-.52-.04-.712.2-.034.043-.1.009-.154-.016s-.154-.07-.194-.023c-.237.275-.574.173-.861.222a1.756,1.756,0,0,1-.9.036c-.122-.042-.238.058-.347.1-.295.1-.592-.018-.88.059a.317.317,0,0,0-.347-.136c-.411.044-.825.066-1.237.1l-.243.031c.009.082.025.173-.092.188-.094.012-.191,0-.286.014a2.628,2.628,0,0,0-.921.127,1.575,1.575,0,0,1-.634.189c-.369.03-.739.048-1.109.071h0a4.4,4.4,0,0,0-1.031-.076c-.425.042-.85.079-1.275.119-.068.007-.165-.01-.2.028-.237.273-.589.173-.878.255-.2.057-.423.075-.639.128-.269.066-.542.146-.812.213-.56.138-1.132.2-1.694.313-.341.071-.681.153-1.016.25a15,15,0,0,1-1.982.239c-.748.112-1.507.155-2.247.3a13.392,13.392,0,0,0-1.616.393,1.383,1.383,0,0,1-.831.054,2.049,2.049,0,0,0-1.231.132c-.549.193-1.132.269-1.668.5a.441.441,0,0,1-.281.049c-.507-.166-.951.166-1.435.168-.078,0-.152.042-.239.016-.269-.08-.271-.144-.131-.39a.471.471,0,0,1,.5-.262c.332.028.644-.107.971-.11h0c.055-.133.165-.091.263-.082,0-.062.03-.1.094-.094a.255.255,0,0,1,.048,0l.172.047.039-.112c.207.131.339-.141.556-.091a2.008,2.008,0,0,0,.609-.055c.218-.023.437-.04.655-.064a.853.853,0,0,0,.437-.1h0l.273-.039c.059-.134.186-.167.307-.21a.153.153,0,0,1,.169-.071c.531-.046,1.041-.227,1.579-.233a1.4,1.4,0,0,1,.364.028,2.744,2.744,0,0,0,1.184.1,4.03,4.03,0,0,0,1.043-.266c.133-.066.091-.145.085-.234-.038.026-.074.025-.094-.019-.005-.011.019-.045.036-.052.042-.017.075,0,.081.047a7.17,7.17,0,0,0,2.163-.436,5.5,5.5,0,0,1,1.614-.249,5.554,5.554,0,0,0,1.389-.268,2.832,2.832,0,0,1,1.136-.088,1.419,1.419,0,0,0,.573-.048,16.586,16.586,0,0,1,2.3-.273c.449-.045.9-.062,1.347-.118,1.032-.128,2.06-.3,3.095-.4,1.214-.112,2.4-.405,3.617-.512,1.064-.093,2.113-.341,3.183-.436.393-.034.789-.126,1.186-.139.21-.007.333-.171.521-.189.062.2.219.13.344.112.408-.057.813-.131,1.221-.19.925-.133,1.854-.234,2.78-.364.809-.114,1.633-.121,2.45-.176l.086-.071v-.01l.01,0a.834.834,0,0,1,.948-.118c.141.047.253.143.407.021a.326.326,0,0,1,.241-.025,2.826,2.826,0,0,0,1.052-.085,2.3,2.3,0,0,1,.815.067c.066.013.166.068.19.044.208-.212.482-.119.722-.165a1.185,1.185,0,0,1,.891.106C67.7,33.143,67.638,33.248,67.471,33.245Zm10.007-.382-.038-.023c.008-.008.016-.022.024-.022s.018.013.026.021Zm.646-.05c-.008,0-.016-.014-.025-.022.008-.008.017-.022.025-.022s.017.014.025.022C78.141,32.8,78.133,32.813,78.124,32.813Zm7.647-.349c-.023.013-.038,0-.036-.032,0-.01.015-.018.023-.027l.023.027C85.778,32.443,85.779,32.46,85.771,32.464Zm12.33-.5a1.348,1.348,0,0,1-.688,0,.489.489,0,0,1-.287-.058,1.29,1.29,0,0,1,.537-.053c.192.009.391-.094.578.03C98.246,32.007,98.159,31.958,98.1,31.964Zm.693.041c-.039,0-.111.014-.095-.062,0-.02.062-.041.1-.041a.342.342,0,0,1,.112.048C98.86,31.974,98.827,32,98.794,32.005Zm13.5-.238c.062,0,.133-.028.171.048a.081.081,0,0,1-.073.086c-.066.006-.143.009-.171-.067C112.2,31.785,112.257,31.77,112.3,31.767Zm-1.954.261a1.953,1.953,0,0,1-.773-.006,3.758,3.758,0,0,1-.886.059h0l-.673-.034h0l-.331-.05a.393.393,0,0,1-.336-.026c.124-.173.264-.135.411-.066l.25.066a1.044,1.044,0,0,1,.669.031,5.325,5.325,0,0,1,.993-.066l.671.027a1.593,1.593,0,0,1,.615.081A.8.8,0,0,1,110.341,32.028Zm2.768.165a11.008,11.008,0,0,1-1.674-.037h0l-.339-.048a1.146,1.146,0,0,1,.711-.044,4.374,4.374,0,0,1,1.384.048.68.68,0,0,1,.419.025A.859.859,0,0,1,113.109,32.193Zm5.182-.2a.432.432,0,0,1-.029-.062c0-.006.017-.017.025-.026a.4.4,0,0,1,.03.063S118.3,31.979,118.291,31.988Z"/></g></g></g></svg>