<svg xmlns="http://www.w3.org/2000/svg" width="113.424" height="45.433" viewBox="0 0 113.424 45.433"><defs><style>.cls-1{fill:#fff;}</style></defs><title>titulo-trailer</title><g id="Layer_2" data-name="Layer 2"><g id="PROYECTO_DL_CONTENIDO" data-name="PROYECTO DL CONTENIDO"><g id="TRAILER"><path class="cls-1" d="M8.66,28.043c0-.025.027-.05.029-.076.033-.1-.012-.173-.086-.164l-.174.021a.312.312,0,0,1-.455-.169,1.236,1.236,0,0,1-.137-.53A3.458,3.458,0,0,0,7.6,25.991a2.007,2.007,0,0,1-.041-1.158,15.4,15.4,0,0,1,.4-1.5,28.711,28.711,0,0,1,1.014-2.813c.09-.232.18-.441.244-.671.336-.9.768-1.77,1.174-2.658.145-.288.266-.6.383-.884.326-.781.75-1.522,1.125-2.282.027-.078.056-.131.088-.208a.144.144,0,0,0-.086-.188,1.467,1.467,0,0,0-.324.062c-.6.12-1.2.263-1.8.382-.276.056-.573.091-.846.148-.051.006-.1.011-.121-.037.576-.14,1.127-.278,1.7-.394.453-.127.9-.227,1.356-.354.048-.006.1-.037.15-.043.027-.027.055-.055.057-.08s-.045-.069-.045-.069a1.293,1.293,0,0,0-.3.059c-.676.153-1.354.33-2.029.481-.375.068-.748.162-1.123.23a.79.79,0,0,1-.59-.032.084.084,0,0,1-.02-.07c0-.051.031-.078.055-.081a.433.433,0,0,1,.178-.071c1.129-.279,2.255-.556,3.406-.813.2-.048.426-.1.652-.15a2.036,2.036,0,0,0,.33-.136.223.223,0,0,0,.057-.131.063.063,0,0,0-.068-.067,5.439,5.439,0,0,0-.622.1c-1.027.243-2.056.51-3.058.749a5.686,5.686,0,0,1-.9.153.348.348,0,0,1-.4-.225.427.427,0,0,1,.133-.486c.1-.11.135-.163.068-.28-.047-.044.01-.123.061-.154a1.052,1.052,0,0,1,.23-.126.11.11,0,0,0,.03-.054c-.024-.021-.022-.047-.047-.044-.024-.021-.075-.015-.1-.012-.1.011-.229.1-.293-.04-.019-.073.063-.181.117-.262a1.911,1.911,0,0,1,.895-.8,13.244,13.244,0,0,1,2.3-.784c.447-.052.871-.15,1.32-.226a2.989,2.989,0,0,0,.65-.15,4.394,4.394,0,0,1,1.33-.352.469.469,0,0,1,.321-.012,2.727,2.727,0,0,0,.894-.078,7.024,7.024,0,0,1,1.418-.214,1.07,1.07,0,0,1,.4,0,2.248,2.248,0,0,0,.834.028,2.083,2.083,0,0,1,1.484.273.844.844,0,0,1,.434.792,1.369,1.369,0,0,0,.16.525c.06.19.146.378.2.569a.61.61,0,0,1-.193.641l-.131.139c-.082.107-.037.152.035.193a.466.466,0,0,1,.119.06c.068.041.039.145-.041.2a.97.97,0,0,1-.625.148.543.543,0,0,1-.2-.028,5.178,5.178,0,0,0-1.766-.093L16.4,12.76c-.574.091-.733.258-.8.834a.447.447,0,0,0,.047.391.4.4,0,0,1,0,.371,14.719,14.719,0,0,1-.613,1.357,2.785,2.785,0,0,0-.2.368A11.117,11.117,0,0,1,14,17.76a1.586,1.586,0,0,0-.2.445,1.222,1.222,0,0,1-.291.625.4.4,0,0,0-.111.187c-.078.38-.346.707-.449,1.09a.492.492,0,0,1-.067.255c-.4.738-.625,1.53-1.025,2.3a7.386,7.386,0,0,0-.391,1.009,3.686,3.686,0,0,1-.347.732c-.03.053-.033.1-.061.131a6.591,6.591,0,0,1-.465,1.364c0,.024-.029.053-.031.1a7.123,7.123,0,0,1-.3,1.171,2.1,2.1,0,0,1-.236.548l-.848.469a1.141,1.141,0,0,1-.377.118C8.642,28.293,8.6,28.2,8.66,28.043ZM9.425,11.76c1.256-.344,2.506-.611,3.779-.856.176-.046.375-.093.551-.139a.45.45,0,0,0,.18-.1c.027-.027.027-.052.031-.1a.068.068,0,0,0-.047-.02c-.05.006-.1-.013-.172,0-.224.027-.476.1-.7.13a33.233,33.233,0,0,0-3.357.808,3.46,3.46,0,0,0-.457.177c-.049,0-.151.043-.129.115a.217.217,0,0,0,.119.035C9.3,11.8,9.349,11.769,9.425,11.76Zm3.6-.439a1.9,1.9,0,0,0,.5-.158.164.164,0,0,0,.054-.082c0-.024-.047-.043-.07-.042a2.293,2.293,0,0,0-.7.107,3.848,3.848,0,0,0-.526.11c-.75.16-1.5.347-2.257.582-.151.041-.3.109-.479.155a.27.27,0,0,0,.3.015C10.9,11.762,11.954,11.494,13.027,11.321ZM9.636,28.154c.135-.164.244-.3.377-.439a.61.61,0,0,1-.309.5.1.1,0,0,1-.076.034C9.556,28.238,9.609,28.182,9.636,28.154Zm1.289-4.279c.026,0,.026,0,.028-.027s-.022-.047-.047-.019l0,.049S10.923,23.9,10.925,23.875ZM18.449,10.2l.054-.056c0-.025-.019-.071-.045-.068a.646.646,0,0,0-.218-.026c-.272.008-.543.014-.791.018a10.438,10.438,0,0,0-1.735.15,1.835,1.835,0,0,0-.349.091.08.08,0,0,0-.08.083.083.083,0,0,0,.068.065c.123.011.248,0,.369.007a18.273,18.273,0,0,1,2.33-.218Zm-.864.371a4.611,4.611,0,0,0-1.55.007.347.347,0,0,0-.254.1.148.148,0,0,0-.03.078.585.585,0,0,0,.17.03C16.466,10.724,17.038,10.659,17.585,10.57Zm.743,1.324a.139.139,0,0,0,.109-.11c.027-.055-.022-.073-.068-.093a2.112,2.112,0,0,0-.416-.026,8.761,8.761,0,0,0-1.784.132c-.152.042-.257.154-.238.225.043.1.143.084.242.072l.992-.115,0,.024c.225-.025.446-.026.645-.048Zm-1.055.64c.027-.026.08-.057.084-.107,0-.024-.049-.044-.072-.042-.325.064-.649.1-.971.138,0,.024,0,.05,0,.074h.639C17.048,12.585,17.15,12.548,17.273,12.534Zm2.859.314.024.022-.028.028Z"/><path class="cls-1" d="M32.089,26.178c-.959-.359-1.974-.613-2.963-.918-1.423-.405-2.851-.76-4.3-1.135-.727-.164-1.452-.352-2.18-.515-.1-.013-.195-.028-.291-.04-.024-.023-.074.009-.1.036-.029.053-.007.1.041.094.313.112.651.222.965.31,1.428.353,2.881.68,4.309,1.034.992.257,1.955.565,2.943.847a1.72,1.72,0,0,1,.5.239,7.626,7.626,0,0,1-1.113-.266c-.8-.23-1.594-.46-2.391-.664-.967-.26-1.961-.466-2.929-.7-.627-.174-1.258-.324-1.887-.474a4.005,4.005,0,0,0-.533-.136.406.406,0,0,0-.489.3c-.191.614-.548,1.15-.742,1.765-.035.154-.094.284-.287.256-.123-.035-.228.076-.332.162a1.074,1.074,0,0,1-.391.269c-.15.066-.222.025-.261-.119a.283.283,0,0,0-.014-.147c.006-.074-.068-.091-.119-.059-.123.013-.233.149-.375.092a.568.568,0,0,1-.272-.339,2.031,2.031,0,0,1-.134-.875v0c-.371.017-.442-.024-.518-.336a1.829,1.829,0,0,1,.02-.967,8.886,8.886,0,0,1,.525-1.52,1.564,1.564,0,0,0,.215-.939.674.674,0,0,1,.183-.49.39.39,0,0,1,.112-.162,4.306,4.306,0,0,0,1.006-1.7c.261-.573.548-1.151.837-1.727.225-.4.426-.816.627-1.209.262-.551.569-1.057.852-1.583a9.142,9.142,0,0,0,.686-1.34c.06-.156.144-.289.2-.42.248-.4.472-.771.7-1.168.082-.108.041-.227-.059-.216-.172-.006-.32.012-.566.016.277-.106.478-.154.68-.227a.067.067,0,0,0,.052-.055c0-.026-.017-.073-.043-.07a3.725,3.725,0,0,0-.523.086,12.9,12.9,0,0,0-2.066.658c-.583.216-1.165.432-1.772.65a1.744,1.744,0,0,1-.6.143c-.048-.018-.121-.035-.142-.082-.02-.072.058-.13.111-.162.125-.039.25-.078.4-.121-.043-.067-.12-.034-.192-.05a.414.414,0,0,1-.172,0c-.345-.01-.41-.127-.265-.44a.619.619,0,0,0,.1-.408.934.934,0,0,1,.451-.793,4.656,4.656,0,0,1,.463-.3,20.855,20.855,0,0,1,3.387-1.553,8,8,0,0,1,1.508-.422,2.14,2.14,0,0,0,.375-.093,6.777,6.777,0,0,1,1.547-.278c.445-.026.92-.13,1.367-.181a7.625,7.625,0,0,1,2.963.25,3.139,3.139,0,0,1,.459.12,2.609,2.609,0,0,1,1.517,1.159,3.286,3.286,0,0,1,.455,1.58,16.544,16.544,0,0,1-.064,1.911,8.62,8.62,0,0,1-.332,1.572,1.732,1.732,0,0,1-.207.468,6.152,6.152,0,0,1-.893,1.142c-.158.142-.293.306-.453.473a3,3,0,0,1-.683.624.874.874,0,0,0-.264.252,1.282,1.282,0,0,1-.264.228,5.368,5.368,0,0,0-.658.6,4.1,4.1,0,0,1-1.145.849,1.032,1.032,0,0,0-.418.345,3.133,3.133,0,0,1-1.039.764c-.076.033-.177.07-.253.1a.531.531,0,0,0-.249.375.258.258,0,0,0,.176.276c.338.109.649.247,1.01.353a5.668,5.668,0,0,1,1.92.718c.07.041.168.056.238.1.553.182,1.133.339,1.686.547a2.392,2.392,0,0,1,.689.34,1.818,1.818,0,0,0,.744.286,2.125,2.125,0,0,1,.715.312.767.767,0,0,1,.334.852.213.213,0,0,1-.26.177c-.046-.018-.091-.063-.14-.082a28.447,28.447,0,0,0-2.8-1.135c-.287-.115-.576-.206-.889-.318a1.81,1.81,0,0,0-.828-.127,1.694,1.694,0,0,0-.5-.238c-.6-.2-1.228-.378-1.832-.555a3.59,3.59,0,0,0-.506-.139c-.314-.088-.629-.175-.945-.238-.023-.022-.049.006-.049.006l-.006.074a.749.749,0,0,0,.336.135c.653.173,1.3.344,1.955.566.334.134.7.216,1.059.322a2.589,2.589,0,0,0,.488.067,2.356,2.356,0,0,0,.739.335c.816.3,1.632.6,2.423.907.36.131.692.316,1.026.475.093.064.162.154.254.218-.411-.1-.766-.307-1.151-.436-.551-.208-1.1-.391-1.656-.6a1.007,1.007,0,0,0-.486-.092.6.6,0,0,0-.5-.163.944.944,0,0,0,.5.163,1.315,1.315,0,0,0,.5.265c.838.322,1.679.6,2.488,1,.119.06.236.147.355.206a.232.232,0,0,1,0,.372.8.8,0,0,1-.785.288l-.218-.05a30.832,30.832,0,0,0-3.442-1.11c-1.879-.575-3.816-1.043-5.726-1.539a1.569,1.569,0,0,0-.61-.1.831.831,0,0,0-.129.089c-.027.053.018.1.065.117.17.055.363.106.556.157.727.164,1.457.3,2.18.491,1.525.393,3.022.813,4.514,1.284.722.238,1.418.5,2.115.744a1.48,1.48,0,0,1,.568.331c.024,0,.02.047.018.071a.107.107,0,0,1-.1.086A2.97,2.97,0,0,1,32.089,26.178ZM20.7,10.754a.579.579,0,0,0,.278-.107,1.633,1.633,0,0,0,.3-.133,1.01,1.01,0,0,1,.281-.131.739.739,0,0,0,.224-.051c.151-.042.282-.131.207-.148a.383.383,0,0,0-.224.051,1.177,1.177,0,0,1-.207.148c-.1.035-.18.094-.281.131a.57.57,0,0,0-.3.133.6.6,0,0,0-.278.107,2.005,2.005,0,0,0-.767.385l-.025,0A2.084,2.084,0,0,0,20.7,10.754ZM21.2,24.94c0-.026.029-.053.031-.078l-.051.006a.1.1,0,0,1-.029.077Zm1.119-13.63a9.986,9.986,0,0,1,2.012-.578.959.959,0,0,0,.25-.054.3.3,0,0,0,.281-.157c.055-.054-.067-.09-.319-.036l-.074.008a16.7,16.7,0,0,0-2.636.75c-.028.027-.028.027-.053.031,0,.023-.055.055-.031.076a.044.044,0,0,0,.046.045A.991.991,0,0,0,22.314,11.31Zm-.188.565-.025,0Zm.58-.214.1-.012-.025,0c-.026.027-.051.03-.077.058l-.025,0C22.658,11.691,22.658,11.691,22.706,11.661Zm.2-.075.1-.01c-.027.028-.051.03-.078.059l-.15.017A.228.228,0,0,0,22.91,11.586Zm6.318-2.954a13.716,13.716,0,0,0-3.615.269,7.764,7.764,0,0,0-1.432.388c1.049-.2,2.064-.289,3.106-.383A30.223,30.223,0,0,1,30.341,8.9,2.354,2.354,0,0,0,29.228,8.632Zm-4.842,9.906a.819.819,0,0,0,.283-.528,1.448,1.448,0,0,0,.118-.285c-.032.1-.063.2-.092.282a1.326,1.326,0,0,0-.405.468.147.147,0,0,0,.018.1A.108.108,0,0,1,24.386,18.538Zm.68-.227c.053-.056.1-.086.158-.142a8.54,8.54,0,0,1,.857-.642c.676-.5,1.354-1.023,2.01-1.593.606-.54,1.209-1.055,1.815-1.619a12.483,12.483,0,0,0,1.41-1.474c.377-.464.48-.524-.008-.913-.049-.019-.072-.041-.119-.06a11.761,11.761,0,0,0-1.258-.672c-.143-.057-.322.013-.494.008-.121-.01-.246,0-.283-.139-.018-.123-.117-.111-.215-.124a.843.843,0,0,0-.3.134c-.248.029-.5.057-.746.111a.148.148,0,0,0-.133.138c-.031.078.018.1.09.113.193.052.192.077.156.229a1.662,1.662,0,0,1-.242.647,7.6,7.6,0,0,0-.488.971.171.171,0,0,0-.031.1.734.734,0,0,1-.266.6,3.981,3.981,0,0,0-.27.327c-.054.082-.085.16-.041.228.09.114.036.219-.048.352q-.546.916-1.092,1.832a1.336,1.336,0,0,1-.215.272.111.111,0,0,1,.029-.077c0-.049.008-.125-.041-.119-.025,0-.078.059-.1.086-.031.077-.037.151-.067.23a.548.548,0,0,0-.107.112.263.263,0,0,1,.107-.112c.051-.031.129-.089.182-.12a1.959,1.959,0,0,1-.24.6,2.9,2.9,0,0,0-.262.549c-.029.078-.061.156.037.194C24.913,18.378,24.99,18.344,25.066,18.311Zm.039-8.856c.053-.031.078-.034.1-.062.075-.009.172.006.272-.006a1.194,1.194,0,0,0,.275-.057c.026,0,.028-.029.053-.056-.023-.022-.047-.043-.07-.04a.874.874,0,0,0-.53.159.177.177,0,0,0-.1.037c-.026,0-.049.006-.028.027Zm.5,6.84a.469.469,0,0,0,.195-.318c0-.025,0-.025-.023-.023,0-.024-.024-.022-.026,0a.368.368,0,0,0-.216.3l0,.05C25.554,16.3,25.6,16.32,25.6,16.3Zm4.1-7.125a.109.109,0,0,0-.095-.038,7.182,7.182,0,0,0-2.559-.05c-.049.006-.121-.011-.152.09.045.045.144.033.219.026.566.007,1.132-.007,1.7,0a5.182,5.182,0,0,0,.888-.029l.024,0c.023.024.023.024.049.02A.078.078,0,0,0,29.706,9.17Zm.248,1.356c.024,0,0-.05-.019-.071a5.749,5.749,0,0,0-1.7-.3c-.074.007-.072-.018-.1.011a.163.163,0,0,0-.154.092c-.029.077.017.121.09.139.1.014.193.052.291.064.416.026.832.078,1.269.125a.852.852,0,0,0,.274-.006C29.923,10.6,29.953,10.551,29.954,10.526Zm-1.32.549c.026,0,.051-.006.049.019C28.685,11.069,28.66,11.072,28.634,11.075Zm1.3.121,0,.025ZM31.009,26.13l.026,0c.1.014.169.03.267.043Zm.293.04a1.172,1.172,0,0,1,.717.313A1.576,1.576,0,0,1,31.3,26.17Zm.766.307-.049.006a.079.079,0,0,1,.072.016A.02.02,0,0,1,32.068,26.477Zm1.672-1.7c.074.016.121.035.2.052l0,.024A.6.6,0,0,0,33.74,24.776Z"/><path class="cls-1" d="M34.927,23.378c-.271.032-.383-.129-.469-.316a1.989,1.989,0,0,0-.293-.387A1.036,1.036,0,0,1,34,21.557a13.208,13.208,0,0,1,.746-1.843,5.435,5.435,0,0,0,.26-.549A14.388,14.388,0,0,1,35.7,17.75c.285-.526.545-1.051.8-1.6a17.168,17.168,0,0,1,.85-1.557c.367-.66.736-1.346,1.078-2a18.212,18.212,0,0,1,.975-1.571c.2-.343.4-.714.617-1.06a16.346,16.346,0,0,1,1.3-1.709c.242-.275.484-.574.7-.847A9.752,9.752,0,0,1,43.4,6.032a2.565,2.565,0,0,1,.847-.494.4.4,0,0,1,.555.158.954.954,0,0,0,.273.314.931.931,0,0,1,.35.627.512.512,0,0,0,.193.373.867.867,0,0,1,.28.586,5.7,5.7,0,0,0,.144.75,5.431,5.431,0,0,1,0,1.089c-.111.853-.222,1.731-.359,2.612-.039.2-.1.408-.143.611-.158.858-.39,1.676-.5,2.53-.052.426-.158.858-.238,1.288a6.889,6.889,0,0,0-.224,1.411.511.511,0,0,1-.04.2c-.158.488-.168.984-.275,1.466a12.942,12.942,0,0,0-.244,1.686c-.006.073-.012.148-.016.223a.879.879,0,0,1-.418.666,1.781,1.781,0,0,1-.336.238c-.078.058-.205.1-.248,0-.06-.167-.181-.2-.355-.182a.328.328,0,0,1-.381-.18,1.392,1.392,0,0,1-.172-.35,1.714,1.714,0,0,0-.242-.417,1.548,1.548,0,0,1-.342-1.074c.028-.374.028-.719.053-1.093.021-.646-.047-.711-.68-.466-.279.107-.531.185-.808.292a.335.335,0,0,0-.3.059,2.218,2.218,0,0,1-.633.221c-.375.067-.75.161-1.125.229a1.511,1.511,0,0,0-.43.149.27.27,0,0,0-.23.149c-.082.109-.166.243-.25.376-.028.053-.057.13-.012.174.141.108.059.216-.043.278a.812.812,0,0,0-.408.541c-.031.078-.059.13-.09.209l-.023,0a1.014,1.014,0,0,0,.113-.211c.076-.034.127-.065.2-.1a3.678,3.678,0,0,1-.426.79l-.1.012-.026.028.026-.028c.025,0,.076-.008.1-.012a1.386,1.386,0,0,1-.232.5.478.478,0,0,1-.045-.045l-.051.006a.082.082,0,0,0,.1.039,1.3,1.3,0,0,1-.117.262,1.2,1.2,0,0,0-.26.548.516.516,0,0,1-.643.371C35.1,23.433,35,23.37,34.927,23.378Zm1.922-2.423,0,.025Zm.539-1a.865.865,0,0,1,.111-.187,2.326,2.326,0,0,0-.113.212Zm0,0,0,.025Zm.2-.394.026,0a1.119,1.119,0,0,0-.114.21C37.531,19.69,37.56,19.637,37.587,19.56ZM41.6,15.734a.4.4,0,0,0,.293-.308,4.28,4.28,0,0,0,.178-.762c.1-.678.2-1.357.343-2.042a.948.948,0,0,0-.047-.736c-.044-.044-.013-.146.016-.224,0-.025-.021-.047-.019-.073l-.075.009c-.166.242-.328.458-.492.676-.025.027,0,.049-.006.1l.075-.008c.05-.031.1-.062.125-.015.023,0,.019.047-.006.074-.194.295-.362.586-.555.856a1.9,1.9,0,0,1-.213.222c.092-.232.207-.468.322-.7l0,.026a3.92,3.92,0,0,0-.937,1.419,4.626,4.626,0,0,0-.832,1.307,1.08,1.08,0,0,0-.252.4c0,.048.021.072.1.062a.761.761,0,0,1,.129-.089.451.451,0,0,0,.533.136C40.726,15.957,41.154,15.834,41.6,15.734Zm-1.772.006a2.12,2.12,0,0,1-.115.212A2.12,2.12,0,0,0,39.831,15.74Zm1.047-1.579c.139-.214.229-.448.342-.659-.107.136-.213.247-.322.383a1.163,1.163,0,0,1-.3.357,2.932,2.932,0,0,1-.858,1.31.674.674,0,0,1,.086.188A15.044,15.044,0,0,0,40.878,14.161ZM40.1,18.9l-.023,0Zm3.41,2.969c-.023-.022-.047-.045-.074-.016a.1.1,0,0,0-.08.107c.023,0,.047.02.072.018C43.476,21.946,43.5,21.918,43.507,21.868Zm.258-15.039a.381.381,0,0,1,.082-.107.491.491,0,0,0,.106-.112h0c-.026.028-.053.055-.106.112a.531.531,0,0,1-.105.085.452.452,0,0,1-.082.109A.447.447,0,0,1,43.765,6.829Zm.8-.858L44.537,6Z"/><path class="cls-1" d="M49.249,23.206a2.421,2.421,0,0,1-.1-.284c-.067-.116-.188-.127-.319-.037-.1.062-.209.172-.355.164a.444.444,0,0,1-.273-.315,1.28,1.28,0,0,1-.067-.461.607.607,0,0,0-.3-.559.877.877,0,0,1-.345-.677,2.7,2.7,0,0,1,.275-1.44c.514-1.321,1.024-2.616,1.656-3.9.172-.341.272-.7.444-1.04.117-.261.285-.528.4-.788.264-.575.5-1.146.74-1.743a12.642,12.642,0,0,1,.811-1.7c.338-.584.65-1.189.963-1.769A2.1,2.1,0,0,1,53.1,8.2c.246-.326.465-.649.66-.968a6.827,6.827,0,0,1,1.219-1.55c.371-.363.791-.388,1.01.008a3.609,3.609,0,0,0,.382.5.857.857,0,0,1,.151.649c-.018.249-.059.477.1.658.045.042.039.142.034.216-.038.155-.073.305-.106.433-.24.621-.482,1.243-.7,1.886a6.45,6.45,0,0,0-.346.708l-.015.2c-.108.137-.241.274-.35.411-.053.056-.082.134-.037.178.094.062.064.14.033.243a8.113,8.113,0,0,1-.514.975c-.021-.047-.072-.041-.1.011a2.042,2.042,0,0,1-.113.211c-.028.027-.055.056-.079.083s0,.051-.031.078c.026,0,.051-.031.078-.058a1.14,1.14,0,0,0,.033-.128.813.813,0,0,0,.112-.186l.1-.011a2.874,2.874,0,0,1-.3.727c-.112.185-.2.394-.288.576a1.572,1.572,0,0,1-.466.673.96.96,0,0,0-.246.349c0,.025-.032.1.017.122.024,0,.1-.036.125-.038s.026-.03.051-.032a1.018,1.018,0,0,1-.252.425.568.568,0,0,0-.227.421.359.359,0,0,1-.148.363.225.225,0,0,0-.121.312.265.265,0,0,1-.1.308c-.207.148-.2.318-.211.519a.325.325,0,0,0-.056.13c-.11.136-.243.275-.2.468.037.144-.1.284-.178.417-.061.13-.192.244-.176.39a1.52,1.52,0,0,1-.162.193c-.055.081-.031.1.039.119a9.409,9.409,0,0,1-.49,1.366,3.941,3.941,0,0,1-.4.814l0-.026c-.054.056-.133.114-.136.165a6.894,6.894,0,0,0-.243.991.448.448,0,0,1-.33.483,5.381,5.381,0,0,0-.636.3A.16.16,0,0,1,49.249,23.206Zm2.6-4.33,0,.025Zm3.658-8.136-.015.2Z"/><path class="cls-1" d="M56.384,23a.145.145,0,0,1,.084-.157,3.449,3.449,0,0,1,.774-.485A7.084,7.084,0,0,0,57.956,22a1.387,1.387,0,0,0,.288-.23c.025,0,.029-.053.029-.078,0-.05-.043-.07-.092-.064a4.272,4.272,0,0,0-1.021.514c-.26.178-.518.331-.774.484a1.07,1.07,0,0,1-.232.127c-.176.07-.3.034-.36-.132-.023-.022-.045-.045-.043-.069a1.325,1.325,0,0,0-.261-.835.824.824,0,0,1,.023-.644,2.042,2.042,0,0,1,.494-.751c.238-.226.477-.452.737-.655a1.07,1.07,0,0,0,.367-.635c.052-.427.131-.83.211-1.235a16.147,16.147,0,0,1,.656-2.327c.506-1.542,1.154-3.051,1.754-4.578a13.964,13.964,0,0,1,.785-1.674c.2-.368.375-.76.551-1.15a7.22,7.22,0,0,1,.533-.928c.443-.695.84-1.432,1.332-2.107a18.013,18.013,0,0,1,1.045-1.531,3.214,3.214,0,0,1,.377-.438.6.6,0,0,1,.724-.158c.237.121.452.218.428.544a.244.244,0,0,0,.155.254c.384.153.353.577.4.916.012.173-.076.356-.039.524.041.12-.112.187-.168.292-.055.081-.033.128.09.138.2-.023.22,0,.158.179a15.491,15.491,0,0,1-.733,1.989.7.7,0,0,1-.138.214.8.8,0,0,0-.2.445.517.517,0,0,1-.037.2A3.956,3.956,0,0,0,64.546,9.7a.706.706,0,0,1-.17.316,2.333,2.333,0,0,0-.32.68,1.209,1.209,0,0,1-.3.455c-.082.108-.162.217-.095.308a.254.254,0,0,1-.075.354,4.492,4.492,0,0,0-.537.977c-.027.029-.08.084-.058.13.105.235-.08.431-.241.6a1.078,1.078,0,0,0-.255.475.6.6,0,0,1-.149.363c-.158.142-.291.28-.232.5.021.047-.035.127-.061.18-.115.211-.228.422-.342.633,0-.026-.021-.047-.019-.073,0,.026.021.047.019.073-.023.324-.429.494-.4.837.025.32-.215.593-.334.88a1.894,1.894,0,0,1-.113.211c-.088.208,0,.371.221.345a.987.987,0,0,0,.375-.068,6.69,6.69,0,0,1,.974-.211c.6-.119,1.176-.235,1.75-.351a8.67,8.67,0,0,1,2.108-.218,2.327,2.327,0,0,1,.421-.025,1.361,1.361,0,0,1,1.422.75c.11.212.244.418.354.6a.806.806,0,0,1,.142.726.38.38,0,0,0,.051.34c.045.069.016.145-.064.2a.538.538,0,0,1-.621.1,2.654,2.654,0,0,0-1-.106,5.376,5.376,0,0,0-1.223.239c-.326.063-.652.15-.978.237-.678.178-1.356.355-2.038.581-.4.146-.832.3-1.238.44a20.506,20.506,0,0,0-1.951.794c-.662.3-1.322.6-2.006.85.156-.115.313-.234.469-.351A.437.437,0,0,0,58.2,22.4c.048-.006.05-.031.027-.053l-.049.006a.69.69,0,0,0-.133.113,3.664,3.664,0,0,0-.965.409,2.812,2.812,0,0,1-.554.188C56.453,23.067,56.378,23.076,56.384,23Zm-.115-1.839a2.885,2.885,0,0,0,.691-.377,1.365,1.365,0,0,0,.182-.121c.051-.03.1-.086.059-.155-.022-.021-.071-.015-.122-.01a.1.1,0,0,0-.076.033,2.247,2.247,0,0,0-.736.654c-.076.033-.129.064-.2.1A1.071,1.071,0,0,0,56.269,21.161Zm1.021-.194c.053-.031.082-.084.059-.13a.113.113,0,0,0-.123.015c-.283.181-.543.359-.8.512A2.245,2.245,0,0,0,57.29,20.967Zm.264,1.849-.025,0Zm2.074-1.105a.074.074,0,0,1-.023-.047.091.091,0,0,1-.051.032l0,.05A.111.111,0,0,1,59.628,21.711Zm.973-.878a32.95,32.95,0,0,1,4.68-1.407.958.958,0,0,0,.277-.081l.006-.075a1.008,1.008,0,0,1-.123-.01c-.574.115-1.149.206-1.7.344-.8.217-1.584.455-2.364.693-.427.124-.881.275-1.312.449a.725.725,0,0,0-.385.217.255.255,0,0,0-.035.127.169.169,0,0,0,.119.062C60.044,21.044,60.324,20.939,60.6,20.833Zm.119-1.67c.352-.116.7-.231,1.082-.325.3-.083.578-.164.879-.248a.353.353,0,0,1,.15-.043c.053-.03.1-.036.082-.108,0-.026-.048-.02-.072-.017-.8.167-1.576.356-2.357.594-.026.028-.076.034-.078.059a.111.111,0,0,0-.03.078c0,.025,0,.05.022.047a.164.164,0,0,1,.1.013C60.57,19.2,60.646,19.17,60.72,19.163Zm-.219.3.1-.011c.051-.006.053-.032.029-.053l-.049,0c-.027.028-.054.056-.08.059-.027.028-.072-.016-.078.059C60.451,19.49,60.474,19.487,60.5,19.459Zm.065,1.872,0-.049a.117.117,0,0,1-.076.033c-.051.03-.032.077-.006.074S60.538,21.359,60.566,21.331Zm1.01-.339c.048-.006.05-.031.027-.053,0-.025-.022-.022-.049.006s-.078.058-.133.115C61.474,21.029,61.523,21.023,61.576,20.992Zm1.287-.446a.435.435,0,0,1,.1-.06c-.051,0-.078.034-.1.036-.049.006-.049.006-.028.027Zm.7-9.872a5.816,5.816,0,0,0,.375-.761c-.024-.022-.024-.046-.049-.043s-.072.008-.074.033a2.6,2.6,0,0,0-.323.729c-.025,0,.022.047.022.047Zm.873,7.465c0-.024,0-.049,0-.049l-.174.02c-.053.03-.027.053,0,.074C64.312,18.178,64.388,18.145,64.439,18.139Zm.015-9.57a.446.446,0,0,0-.082.107C64.4,8.649,64.427,8.6,64.454,8.569Z"/><path class="cls-1" d="M78.007,19.217c-.865.051-1.732.1-2.6.228l-.844.1a3.034,3.034,0,0,1-2.252-.531.49.49,0,0,1-.229-.246c-.041-.119-.1-.26-.144-.378a2.158,2.158,0,0,0-.338-.8,2.02,2.02,0,0,1-.209-.866,1.438,1.438,0,0,1,.291-.973,2.113,2.113,0,0,0,.309-.53,20.809,20.809,0,0,1,1.586-2.9.164.164,0,0,1,.054-.08,28.47,28.47,0,0,1,1.991-3.048c.523-.778,1.093-1.537,1.664-2.27a3.193,3.193,0,0,0,.308-.531c.09-.232.322-.383.338-.607.008-.1.156-.117.234-.176.026,0,.079-.059.053-.055.006-.074-.045-.068-.094-.063s-.076.032-.125.038c-.1.037-.2.1-.273.031-.066-.09-.008-.221.047-.326a1.067,1.067,0,0,1,.474-.426,6.153,6.153,0,0,1,1.194-.533A13.338,13.338,0,0,1,80.724,3.9c.7-.154,1.447-.291,2.17-.424.226-.051.475-.08.7-.13a2.124,2.124,0,0,1,1.059.027,1.263,1.263,0,0,1,.4.25A.653.653,0,0,1,85.171,4a.7.7,0,0,0,.133.554.342.342,0,0,1,.066.115.469.469,0,0,1-.066.6.408.408,0,0,0-.125.361c.018.1-.062.18-.187.195a.694.694,0,0,1-.34-.036,1.818,1.818,0,0,0-.907-.092,13.235,13.235,0,0,0-1.693.269l-1.43.388a2.605,2.605,0,0,0-.406.145c-.1.038-.1.112-.111.211l0-.025a1.722,1.722,0,0,0-.653.843A11.487,11.487,0,0,1,78.6,9.185a6.25,6.25,0,0,0-.387.909.2.2,0,0,0,.155.255,1.608,1.608,0,0,0,.595-.069A6.038,6.038,0,0,1,79.9,10.2a.754.754,0,0,1,.482.167c.115.11.207.2.07.387a.174.174,0,0,0,.034.219c.093.063.164.105.259.168.071.041.166.08.26.143.209.2.174.326-.111.533-.053.029-.1.06-.154.091-.028.028-.03.053-.034.1a.045.045,0,0,0,.047.044c.072.016.17.029.268.043a.143.143,0,0,1,.056.241.544.544,0,0,1-.259.2c-.077.033-.176.044-.278.082a17.912,17.912,0,0,0-2.2.5,2.812,2.812,0,0,1-.9.153,3.272,3.272,0,0,0-.694.056,1.334,1.334,0,0,0-.408.2.122.122,0,0,0-.178.069.979.979,0,0,0-.117.262l0-.026a.1.1,0,0,1,.065.141,3.282,3.282,0,0,1-.475.772c-.053.056-.082.134-.137.19.026,0,.051,0,.076-.009a2.675,2.675,0,0,1-.328.8c-.023-.024-.047-.045-.1.012.023,0,.074-.01.1-.012a3.425,3.425,0,0,1-.158.463c-.033.152.008.246.154.254.321.012.641.025.983.035.816-.02,1.625.01,2.435.064a3.035,3.035,0,0,1,.534.112.809.809,0,0,1,.607.45.645.645,0,0,0,.25.291,1.245,1.245,0,0,1,.234.171.41.41,0,0,1,.1.607c-.084.157-.016.223.078.313.162.128.1.284-.078.4a.886.886,0,0,1-.481.153C79.271,19.1,78.624,19.171,78.007,19.217Zm-.2-6.554q.829-.206,1.654-.414c.026,0,.053-.03.08-.057-.023-.023-.023-.023-.023-.047-.326.087-.65.148-1,.238-.25.054-.523.111-.775.19-.026,0-.053.031-.08.058.023.022.023.047.046.043Zm1.535-5.294c-.023-.023-.047-.046-.072-.017s-.029.053-.057.08c0,.051.02.072.045.07A.171.171,0,0,0,79.343,7.369Zm3.94-3.127a1.818,1.818,0,0,0,.779-.189c-.238-.144-.545.015-.738-.013a11.918,11.918,0,0,0-1.85.361c-.35.066-.727.184-1.078.274a1.2,1.2,0,0,0-.277.107c-.026,0-.053.055-.055.08s.045.044.07.041a.7.7,0,0,0,.223,0C81.335,4.616,82.31,4.429,83.283,4.242Zm-2.5,2.217,0,.05a1.574,1.574,0,0,1-.3.111,2.058,2.058,0,0,1-.373.066l0,.025C80.331,6.611,80.56,6.536,80.787,6.459Zm-.172-.35a21.023,21.023,0,0,1,3.2-.692,1.534,1.534,0,0,0,.326-.087c.023,0,.053-.055.055-.081s-.022-.046-.043-.069a2.447,2.447,0,0,0-.742.037c-.323.037-.649.1-.973.16a18.363,18.363,0,0,0-1.932.5c-.076.034-.154.093-.228.125l-.008.1a.02.02,0,0,0,.023.022.344.344,0,0,0,.147.007Zm-.078-1c.726-.158,1.457-.366,2.2-.5.322-.063.65-.148.974-.211a.1.1,0,0,0,.029-.078c-.222.025-.443.026-.642.05a25.005,25.005,0,0,0-2.654.6.472.472,0,0,0-.127.065s-.028.028,0,.05a.069.069,0,0,0,.021.047A.538.538,0,0,0,80.537,5.1Zm3.2.743a.162.162,0,0,1,.148-.017c.051-.006.031-.079.026,0a.031.031,0,0,1-.028.028l-.123.015C83.708,5.875,83.687,5.852,83.736,5.847Z"/><path class="cls-1" d="M98.622,18.493c-.959-.36-1.976-.613-2.962-.918-1.424-.406-2.852-.76-4.3-1.135-.727-.164-1.451-.353-2.18-.516-.1-.012-.2-.027-.291-.04-.023-.022-.076.009-.1.036-.028.053-.006.1.043.094.312.112.65.223.962.311,1.428.353,2.883.679,4.311,1.034.99.257,1.955.564,2.943.846a1.723,1.723,0,0,1,.5.24,7.627,7.627,0,0,1-1.113-.267c-.8-.229-1.594-.46-2.391-.664-.966-.26-1.96-.467-2.929-.7-.629-.175-1.258-.324-1.889-.474a3.977,3.977,0,0,0-.531-.136.4.4,0,0,0-.488.3c-.192.614-.551,1.151-.743,1.766-.035.153-.093.283-.289.256-.121-.035-.226.076-.332.162a1.065,1.065,0,0,1-.388.268c-.151.067-.223.026-.262-.119a.279.279,0,0,0-.014-.146c.006-.074-.068-.091-.119-.06-.123.014-.232.15-.377.093a.583.583,0,0,1-.271-.34,2.046,2.046,0,0,1-.133-.875v0c-.373.019-.442-.023-.518-.336a1.789,1.789,0,0,1,.02-.967,8.849,8.849,0,0,1,.525-1.519,1.582,1.582,0,0,0,.215-.94.674.674,0,0,1,.184-.49.394.394,0,0,1,.109-.162,4.284,4.284,0,0,0,1.008-1.7c.262-.573.549-1.152.836-1.728.226-.4.427-.815.629-1.209.261-.55.566-1.055.851-1.582a9.2,9.2,0,0,0,.686-1.341c.06-.156.144-.289.2-.418.25-.4.473-.772.7-1.169.082-.109.041-.228-.058-.216-.172-.006-.321.011-.569.015.279-.1.479-.154.682-.226a.068.068,0,0,0,.053-.056c0-.025-.018-.072-.043-.069a3.646,3.646,0,0,0-.526.086,12.84,12.84,0,0,0-2.064.658c-.582.216-1.164.432-1.772.649a1.734,1.734,0,0,1-.6.144c-.049-.018-.121-.035-.143-.082-.019-.072.059-.131.111-.162.125-.039.25-.078.4-.121-.043-.068-.119-.035-.192-.05a.388.388,0,0,1-.173,0c-.344-.01-.411-.127-.264-.439a.621.621,0,0,0,.1-.409.932.932,0,0,1,.452-.793,4.356,4.356,0,0,1,.462-.3,20.855,20.855,0,0,1,3.387-1.553A7.93,7.93,0,0,1,91.476.6a2.14,2.14,0,0,0,.375-.093A6.83,6.83,0,0,1,93.4.231c.445-.026.92-.131,1.367-.182A7.646,7.646,0,0,1,97.728.3a3.055,3.055,0,0,1,.457.121A2.6,2.6,0,0,1,99.7,1.579a3.294,3.294,0,0,1,.456,1.58A16.561,16.561,0,0,1,100.1,5.07a8.61,8.61,0,0,1-.332,1.571,1.752,1.752,0,0,1-.207.469,6.11,6.11,0,0,1-.894,1.141c-.157.142-.292.306-.452.473a2.956,2.956,0,0,1-.683.624.905.905,0,0,0-.266.252A1.306,1.306,0,0,1,97,9.829a5.368,5.368,0,0,0-.658.595,4.15,4.15,0,0,1-1.144.848,1.04,1.04,0,0,0-.42.346,3.163,3.163,0,0,1-1.037.763c-.077.033-.18.071-.254.1a.533.533,0,0,0-.25.375.259.259,0,0,0,.177.275c.338.11.649.247,1.01.354a5.661,5.661,0,0,1,1.92.717c.07.042.168.056.238.1.553.183,1.133.339,1.686.547a2.37,2.37,0,0,1,.689.341,1.83,1.83,0,0,0,.745.285,2.129,2.129,0,0,1,.714.312.764.764,0,0,1,.334.852.213.213,0,0,1-.259.178c-.047-.019-.094-.064-.141-.082a28.6,28.6,0,0,0-2.8-1.136c-.287-.114-.576-.205-.888-.317a1.794,1.794,0,0,0-.829-.127,1.648,1.648,0,0,0-.5-.239c-.6-.2-1.228-.378-1.832-.554a3.477,3.477,0,0,0-.507-.14c-.313-.088-.627-.175-.944-.237-.023-.023-.051.006-.051.006,0,.024,0,.074,0,.074a.752.752,0,0,0,.335.135c.653.172,1.305.343,1.954.565.336.135.7.217,1.06.322a2.53,2.53,0,0,0,.488.068,2.356,2.356,0,0,0,.739.335c.816.3,1.633.6,2.424.908.359.13.691.314,1.025.473.094.064.162.156.254.218-.41-.1-.766-.306-1.151-.435-.55-.208-1.105-.392-1.656-.6a1,1,0,0,0-.486-.093.6.6,0,0,0-.5-.163.936.936,0,0,0,.5.163,1.3,1.3,0,0,0,.5.265c.838.322,1.68.6,2.488,1,.119.061.236.148.356.206a.232.232,0,0,1,0,.372.8.8,0,0,1-.784.288l-.218-.049a30.8,30.8,0,0,0-3.444-1.111c-1.879-.574-3.814-1.043-5.726-1.539a1.553,1.553,0,0,0-.608-.1.925.925,0,0,0-.13.089c-.026.053.019.1.066.118.17.054.363.105.557.157.726.164,1.457.3,2.179.49,1.526.394,3.022.813,4.514,1.284.723.238,1.418.5,2.115.744a1.482,1.482,0,0,1,.567.331c.025,0,.021.047.019.072a.109.109,0,0,1-.1.087A3.044,3.044,0,0,1,98.622,18.493ZM87.236,3.069a.58.58,0,0,0,.279-.108,1.665,1.665,0,0,0,.3-.132A1.01,1.01,0,0,1,88.1,2.7a.784.784,0,0,0,.225-.051c.15-.042.279-.132.207-.149a.392.392,0,0,0-.225.051A1.185,1.185,0,0,1,88.1,2.7c-.1.035-.18.093-.281.131a.568.568,0,0,0-.3.132.594.594,0,0,0-.279.108,1.994,1.994,0,0,0-.766.385l-.025,0A2.1,2.1,0,0,0,87.236,3.069Zm.492,14.185c0-.024.029-.052.031-.078l-.051.006a.114.114,0,0,1-.029.078Zm1.119-13.63a10.118,10.118,0,0,1,2.012-.578.925.925,0,0,0,.25-.053.306.306,0,0,0,.281-.157c.055-.054-.068-.09-.318-.037L91,2.807a17.006,17.006,0,0,0-2.638.75c-.026.028-.026.028-.051.031,0,.024-.055.055-.031.076a.045.045,0,0,0,.047.046A.979.979,0,0,0,88.847,3.624Zm-.187.566-.026,0Zm.58-.215.1-.012-.023,0c-.028.028-.053.031-.078.059l-.026,0C89.189,4.005,89.189,4.005,89.24,3.975Zm.2-.074.1-.011c-.027.028-.052.03-.078.06l-.148.016A.225.225,0,0,0,89.443,3.9ZM95.761.947a13.712,13.712,0,0,0-3.615.268,7.87,7.87,0,0,0-1.432.389c1.049-.2,2.065-.288,3.106-.383a29.936,29.936,0,0,1,3.054-.008A2.342,2.342,0,0,0,95.761.947Zm-4.844,9.905a.812.812,0,0,0,.286-.527,1.691,1.691,0,0,0,.117-.286c-.032.1-.065.206-.094.284a1.3,1.3,0,0,0-.4.466.147.147,0,0,0,.017.1A.111.111,0,0,1,90.917,10.852Zm.682-.227c.053-.054.1-.086.158-.142a8.442,8.442,0,0,1,.858-.642c.675-.5,1.353-1.022,2.009-1.593.606-.54,1.207-1.054,1.815-1.619a12.289,12.289,0,0,0,1.408-1.472c.379-.465.482-.526-.006-.914-.049-.02-.072-.041-.119-.061a11.666,11.666,0,0,0-1.258-.672c-.142-.056-.322.014-.494.008-.121-.01-.246,0-.285-.139-.016-.123-.115-.111-.213-.124a.879.879,0,0,0-.3.134c-.248.029-.5.058-.746.111a.147.147,0,0,0-.133.138c-.031.078.016.1.09.113.194.053.192.079.157.23a1.692,1.692,0,0,1-.243.646A7.666,7.666,0,0,0,93.8,5.6a.175.175,0,0,0-.033.1.728.728,0,0,1-.264.6,3.434,3.434,0,0,0-.269.327c-.055.081-.086.16-.041.228.09.113.033.219-.049.351-.363.612-.729,1.221-1.092,1.832a1.284,1.284,0,0,1-.215.272.109.109,0,0,1,.029-.076c0-.05.008-.125-.041-.119-.025,0-.078.058-.1.086-.031.078-.037.152-.066.23a.463.463,0,0,0-.108.111.247.247,0,0,1,.108-.111c.05-.031.128-.09.181-.121a1.975,1.975,0,0,1-.24.6,2.9,2.9,0,0,0-.262.548c-.029.079-.06.157.035.195A.245.245,0,0,0,91.6,10.625Zm.039-8.856a.443.443,0,0,0,.1-.062c.074-.008.171.006.271-.005a1.231,1.231,0,0,0,.274-.057c.025,0,.027-.029.054-.057-.023-.021-.047-.043-.07-.039a.861.861,0,0,0-.529.158.168.168,0,0,0-.1.038c-.025,0-.049,0-.027.027Zm.5,6.841a.471.471,0,0,0,.2-.319c0-.025,0-.025-.023-.022,0-.024-.023-.022-.025,0a.37.37,0,0,0-.217.3l0,.05C92.085,8.616,92.134,8.634,92.136,8.61Zm4.1-7.125a.1.1,0,0,0-.094-.038,7.138,7.138,0,0,0-2.559-.05c-.048.006-.123-.012-.154.09.047.045.147.034.221.025.566.008,1.133-.007,1.7,0a5.275,5.275,0,0,0,.887-.028l.025,0c.024.023.024.023.049.02A.079.079,0,0,0,96.238,1.485Zm.248,1.355c.025,0,0-.049-.018-.07a5.719,5.719,0,0,0-1.7-.3c-.074.009-.072-.016-.1.012a.162.162,0,0,0-.154.092c-.029.077.016.121.09.138.1.014.193.052.291.065.416.025.83.078,1.27.125a.862.862,0,0,0,.271-.006C96.456,2.918,96.484,2.866,96.486,2.84Zm-1.319.549c.026,0,.049-.006.047.02C95.216,3.383,95.193,3.386,95.167,3.389Zm1.3.121,0,.026Zm1.078,14.935.026,0c.1.013.17.029.267.043Zm.293.04a1.173,1.173,0,0,1,.717.312A1.585,1.585,0,0,1,97.835,18.485Zm.766.306-.049.006a.076.076,0,0,1,.072.017A.02.02,0,0,1,98.6,18.791Zm1.672-1.7c.072.017.121.035.2.052l0,.024A.646.646,0,0,0,100.273,17.09Z"/><path class="cls-1" d="M112.832,37.34a7.183,7.183,0,0,1-1.618-.228c-.356-.054-.711-.109-1.067-.162-.069-.01-.139-.01-.181-.076h-.012l0,0,0,0,.028.013h-.012a.2.2,0,0,0-.021-.01.508.508,0,0,1-.271.007.1.1,0,0,1-.034.007c-.1-.008-.2.061-.289-.038a.063.063,0,0,1,.014-.058.326.326,0,0,1,.3.03c.1-.007.215-.083.291.048l.009-.005h0l.006.008a2.417,2.417,0,0,1,1.249.166c.322-.072.662.12,1.065-.054-.2-.053-.308-.09-.422-.113a15.353,15.353,0,0,0-2.463-.246c-1.169-.039-2.329-.151-3.492-.253-1.077-.095-2.15-.241-3.231-.288a16.579,16.579,0,0,1-2.889-.292h0a20.752,20.752,0,0,1-2.186-.148,8.37,8.37,0,0,1-1.475-.168c.231-.162.418-.016.605-.012a4.345,4.345,0,0,1,.655.027,5.747,5.747,0,0,1,.613.069,6.125,6.125,0,0,1,1.946.148,4.632,4.632,0,0,1,1.232.078,13.7,13.7,0,0,0,1.7.173.748.748,0,0,1,.176.041h0a9.32,9.32,0,0,1,1.239-.034c.9.059,1.782.226,2.682.247.267.006.533.041.8.069a17.445,17.445,0,0,0,1.957.187,7.62,7.62,0,0,1,1.771.191.92.92,0,0,0,.636-.033c-.016-.039-.056-.087-.045-.115.018-.043.074-.033.117-.014.143-.036.307.033.433-.088-.407-.075-.827-.05-1.229-.118-.731-.123-1.469-.159-2.2-.269-.109.013-.221.048-.32-.034a2.293,2.293,0,0,1-.514-.08h0l-.224.01-.144.006a.436.436,0,0,1-.315-.034,14.566,14.566,0,0,1-1.891-.1c-.653-.045-1.3-.155-1.959-.154a5.34,5.34,0,0,1-.685-.085c-.224-.064-.465,0-.685-.094a4.9,4.9,0,0,1-1.524-.054,2.216,2.216,0,0,0-.546-.029,3.586,3.586,0,0,1-1.508-.3,12.641,12.641,0,0,1,1.893.148c.613.065,1.229.1,1.844.151.3.081.614-.011.909.093h0a1.286,1.286,0,0,1,.289-.013c.671.123,1.355.059,2.028.147.244-.052.507.037.738-.1a2.515,2.515,0,0,0-.718-.082c-.649-.1-1.3-.174-1.954-.25-.93-.108-1.861-.206-2.786-.357a11.779,11.779,0,0,0-2.356-.24c-.375.014-.753-.043-1.13-.058a8.473,8.473,0,0,0-1.9.018,2.836,2.836,0,0,1-1.09.007c-.3-.059-.6-.1-.9-.138a6.3,6.3,0,0,0-2.216-.029.86.86,0,0,1-.291.006c-1.028-.118-2.055-.235-3.087-.313q-1.312-.1-2.626-.136c-.323-.009-.618.124-.937.122-.464,0-.924-.051-1.386-.069a7.712,7.712,0,0,0-1.9.032c-.44.091-.891.047-1.337.162a3.525,3.525,0,0,1-.869-.01c-.732-.013-1.457-.116-2.185-.165-.8-.054-1.605-.094-2.407-.144a12.455,12.455,0,0,0-2.227.078c-.618.072-1.232.163-1.853.2-1.278.08-2.561.087-3.835.234a15.46,15.46,0,0,1-2.3.171,17.147,17.147,0,0,0-1.936.073c-.6.046-1.19.119-1.785.16-2.386.162-4.776.21-7.165.316a2.857,2.857,0,0,0-.857.1h0l-1.163.067c-.718.036-1.439.051-2.155.114-1.116.1-2.228.254-3.346.346-1.688.14-3.372.34-5.064.443a14.049,14.049,0,0,0-1.886.226,2.723,2.723,0,0,1-.759.094,9.08,9.08,0,0,0-1.64.063c-1.226.12-2.454.215-3.679.336-.642.063-1.282.157-1.922.24-.7.091-1.4.212-2.1.272-1.13.1-2.263.147-3.387.309a3.955,3.955,0,0,1-.511.019,12.977,12.977,0,0,0-1.351.026c-.921.1-1.836.24-2.75.385a6.515,6.515,0,0,0-2.154.5.53.53,0,0,1-.106.026,8.263,8.263,0,0,1-1.5.3c-.678.063-1.3.373-1.993.411a6.993,6.993,0,0,0-1.474.25,6.152,6.152,0,0,1-1.912.234,7.229,7.229,0,0,0-1.7.247c-.409.081-.808.248-1.222.349-.9.22-1.781.487-2.677.71a4.17,4.17,0,0,0-1.778.8.921.921,0,0,1-.475.177c-.555.084-1.079.294-1.63.388-.088.015-.2.041-.22.113-.077.218-.281.261-.446.345a16.466,16.466,0,0,1-1.468.809c-.142.054-.145.151-.025.247a.611.611,0,0,0,.61.141c.3-.1.609-.169.908-.269a.244.244,0,0,1,.35.143c-.072.12-.206.129-.313.175a4.211,4.211,0,0,0-.594.276c-.049.03-.109.072-.1.142s.089.107.161.12a.808.808,0,0,0,.49-.115,2.306,2.306,0,0,1,.666-.29c.485-.053.957-.174,1.441-.233.128-.03.27-.006.38-.1a.975.975,0,0,0,.232-.065c.008,0,.018,0,.027-.007a1.329,1.329,0,0,1-.254.077c-.079.082-.229.046-.284.17a1.177,1.177,0,0,1-.431.186c-.332.076-.659.17-.99.249a.34.34,0,0,0-.248.136.469.469,0,0,1-.394.219,1.536,1.536,0,0,0-.308.111c-.066.026-.149.046-.14.141a.166.166,0,0,0,.148.144,1.539,1.539,0,0,0,.649.029,6.49,6.49,0,0,1,1-.223c.088-.01.2-.032.22-.108.072-.273.3-.274.506-.332.748-.213,1.472-.5,2.225-.7.315-.084.679-.063.91-.37.029-.039.11-.045.168-.057a4.357,4.357,0,0,0,1.293-.357.841.841,0,0,1,.316-.079,8.4,8.4,0,0,0,1.538-.293c.455-.131.92-.226,1.381-.335.245-.058.529-.044.706-.245.213-.244.456.047.69-.091a2.245,2.245,0,0,1,.734-.2c.332-.061.643-.191.969-.266.2-.045.416.029.577-.159.048-.055.14-.02.211,0a.583.583,0,0,0,.253.008c.37-.074.739-.15,1.109-.215.5-.089.992-.249,1.5-.308a11.593,11.593,0,0,0,1.753-.338,2.4,2.4,0,0,1,.825-.138,3.447,3.447,0,0,0,.97-.1,1.73,1.73,0,0,1,1.061-.071.72.72,0,0,0,.4-.03,31.021,31.021,0,0,1,3.674-.592,7.989,7.989,0,0,0,1.2-.138,11.087,11.087,0,0,1,1.162-.291,15.117,15.117,0,0,1,3.043-.544.668.668,0,0,0,.179-.035,15.188,15.188,0,0,1,3.331-.4.943.943,0,0,1,.363.016.9.9,0,0,0,.505.011,17.345,17.345,0,0,1,3.241-.246,22.976,22.976,0,0,0,3.388-.271,32.088,32.088,0,0,1,3.851-.371l.076,0c.057-.078.141-.066.222-.067a.9.9,0,0,0,.565.005,1.663,1.663,0,0,1,.61-.064,1.452,1.452,0,0,0,.98-.094.29.29,0,0,1,.178-.016,1.9,1.9,0,0,0,.873-.132c.718-.038,1.437-.062,2.153-.132a20.515,20.515,0,0,1,2.147-.183c1.145.005,2.291.025,3.435-.027.353-.016.706-.037,1.06-.043.876-.015,1.76.005,2.628-.063a34.318,34.318,0,0,1,3.469-.019,18.484,18.484,0,0,0,2.119-.062,11.984,11.984,0,0,1,2.363-.174.37.37,0,0,0,.144-.017,2.469,2.469,0,0,1,.76-.079,2.355,2.355,0,0,0,.8-.1c.077-.028.188-.071.246-.01.163.173.327.082.5.047a3.568,3.568,0,0,1,.611-.108c.854-.022,1.7-.142,2.545-.241,1.709-.2,3.429-.25,5.146-.337,1.292-.066,2.583.012,3.874.017.306,0,.612.028.918.043l0,.073c-.426-.04-.82.162-1.253.1a8.489,8.489,0,0,0-2.077-.038,1.975,1.975,0,0,1-.727.008,1.839,1.839,0,0,0-.879.005,2.1,2.1,0,0,1-.576.063c-1.015-.065-2.021.116-3.034.085a.367.367,0,0,0-.37.162,1.345,1.345,0,0,0,.586.054,8.561,8.561,0,0,1,1.132-.048c2.035.033,4.07-.106,6.106-.013.9.041,1.8.025,2.7.062.414.018.828,0,1.242.025a11.574,11.574,0,0,0,1.569.052,2.593,2.593,0,0,1,.474-.007c1.37.17,2.75.067,4.121.174a9.727,9.727,0,0,1,1.2.037c.819.171,1.649-.025,2.47.141.433.087.894.053,1.336.127a3.627,3.627,0,0,0,.764.043h0c.222-.068.471.034.681-.11-.174-.114-.406,0-.646-.166a8.319,8.319,0,0,1,1.561.038,9.852,9.852,0,0,1,1.526.1c.506.046,1.011.1,1.516.158h0a1.707,1.707,0,0,1,.523.119h0c.13-.032.261-.068.369.05a.721.721,0,0,1,.369,0,.246.246,0,0,1,.216-.021h0l.518.047c.147.007.3-.072.439.052l.005,0c.17.008.344-.066.508.032a2.1,2.1,0,0,0,.585.065,2.683,2.683,0,0,1,.834.018,7.846,7.846,0,0,0,.9.128c.519.037,1.032.122,1.552.16a9.573,9.573,0,0,0,1.232.072c.065,0,.15.023.186-.1A4.074,4.074,0,0,0,112.832,37.34ZM98.7,35.025s.019.032.028.047c-.025.05-.059.029-.091.016a.117.117,0,0,1-.029-.022A.834.834,0,0,1,98.7,35.025Zm-69.152,3c.041-.021.06.009.078.039-.013.017-.031.049-.04.047a.509.509,0,0,1-.092-.043A.309.309,0,0,1,29.55,38.028Zm12.068-.6h0a.156.156,0,0,1,.148.069C41.717,37.47,41.606,37.578,41.618,37.425Zm18.261-1.582a3.368,3.368,0,0,1-.972-.03c-.143-.051-.239.083-.379.081-.3,0-.593.047-.889.046-.143,0-.166.16-.308.156a3.436,3.436,0,0,1-1.192-.037c-.054-.021-.126-.075-.169-.029-.193.208-.43.077-.646.109-.5.074-1,.05-1.507.083-.367.024-.736.027-1.1.077-.351.048-.7.082-1.055.138a5.08,5.08,0,0,0-.771.135l.006.083c.036.014.079.022.07.076h-.135l-.175-.072c-.125-.127-.215.073-.347.035a1,1,0,0,0-.353.027h0a.606.606,0,0,1-.448.07c-.139-.013-.291-.061-.327.216-.05-.164-.021-.225.043-.272-.124-.133-.286-.059-.407-.032-.165.036-.329.052-.494.074-.142.018-.316-.045-.363.181-.007.032-.129.04-.2.058h0a.2.2,0,0,1-.1-.21c-.432.013-.86.1-1.294.066-.18.177-.457-.053-.635.151-.031.036-.091,0-.135-.02s-.133-.067-.17-.027c-.219.234-.511.131-.766.164a1.541,1.541,0,0,1-.792,0c-.106-.042-.212.042-.31.072-.262.078-.52-.037-.777.02a.28.28,0,0,0-.3-.132c-.364.024-.729.028-1.093.041l-.215.018c0,.073.015.153-.088.162-.084.008-.169,0-.253,0a2.309,2.309,0,0,0-.816.079,1.4,1.4,0,0,1-.565.143c-.326.013-.653.016-.98.023h0a3.886,3.886,0,0,0-.905-.1c-.376.022-.752.04-1.128.06-.06,0-.146-.015-.176.017-.219.232-.525.131-.783.193-.179.043-.375.051-.567.09-.24.048-.483.109-.724.158-.5.1-1,.133-1.5.215-.3.05-.606.11-.9.183a13.25,13.25,0,0,1-1.756.14c-.662.071-1.333.082-1.99.184a11.654,11.654,0,0,0-1.438.288,1.221,1.221,0,0,1-.734.018,1.806,1.806,0,0,0-1.09.071c-.491.151-1.007.2-1.488.381a.4.4,0,0,1-.249.033c-.441-.165-.844.112-1.271.1-.068,0-.135.031-.211,0-.234-.08-.233-.137-.1-.348a.414.414,0,0,1,.449-.213c.292.036.571-.072.86-.062h0c.053-.115.148-.073.235-.062,0-.055.029-.083.085-.08a.3.3,0,0,1,.042,0l.151.048.038-.1c.177.122.3-.112.494-.061a1.764,1.764,0,0,0,.538-.026c.193-.012.387-.02.58-.033a.754.754,0,0,0,.388-.071h0l.242-.024c.056-.116.17-.141.278-.174a.136.136,0,0,1,.152-.057c.469-.02.925-.162,1.4-.148a1.245,1.245,0,0,1,.32.038,2.424,2.424,0,0,0,1.04.127,3.558,3.558,0,0,0,.928-.2c.12-.053.086-.125.084-.2-.035.022-.067.02-.082-.02,0-.009.018-.039.033-.045.037-.013.066,0,.069.045a6.3,6.3,0,0,0,1.922-.306,4.868,4.868,0,0,1,1.431-.162,4.869,4.869,0,0,0,1.234-.186,2.516,2.516,0,0,1,1-.036,1.273,1.273,0,0,0,.507-.021,14.582,14.582,0,0,1,2.034-.158c.4-.024.8-.023,1.19-.056.915-.075,1.826-.194,2.742-.241,1.074-.055,2.129-.271,3.2-.321.942-.044,1.875-.224,2.821-.269.347-.016.7-.083,1.05-.08.185,0,.3-.139.466-.148.048.175.188.123.3.112.361-.036.721-.086,1.083-.124.819-.084,1.642-.139,2.462-.22.717-.071,1.443-.048,2.165-.067l.079-.06v-.008l.009,0a.735.735,0,0,1,.84-.07c.122.046.217.135.357.033a.293.293,0,0,1,.214-.014,2.482,2.482,0,0,0,.929-.037,2.032,2.032,0,0,1,.716.089c.057.014.144.066.166.045.191-.179.429-.087.642-.119a1.049,1.049,0,0,1,.782.125C60.086,35.761,60.026,35.852,59.879,35.843Zm8.832.024-.033-.021c.007-.007.015-.019.022-.019s.015.012.022.019Zm.571-.021c-.007,0-.015-.012-.022-.02s.016-.019.023-.018.014.012.022.02C69.3,35.834,69.289,35.847,69.282,35.846Zm6.75-.031c-.02.011-.033,0-.03-.03,0-.009.013-.015.021-.023l.019.025C76.039,35.8,76.039,35.811,76.032,35.815Zm10.882,0a1.186,1.186,0,0,1-.606-.021.432.432,0,0,1-.251-.061,1.132,1.132,0,0,1,.475-.028c.169.015.349-.068.509.048C87.041,35.861,86.965,35.815,86.914,35.818Zm.61.061c-.035,0-.1.009-.082-.058,0-.018.056-.033.086-.032s.056.025.1.046C87.583,35.855,87.553,35.88,87.524,35.879Zm11.9.278c.055,0,.119-.02.149.048a.07.07,0,0,1-.067.073c-.059,0-.126,0-.148-.065C99.347,36.169,99.394,36.158,99.428,36.157Zm-1.731.159a1.7,1.7,0,0,1-.681-.034,3.258,3.258,0,0,1-.783.021h0l-.591-.055h0l-.29-.056a.344.344,0,0,1-.3-.034c.115-.149.237-.11.364-.044l.218.068a.914.914,0,0,1,.588.051,4.771,4.771,0,0,1,.878-.023l.59.048a1.429,1.429,0,0,1,.539.094A.709.709,0,0,1,97.7,36.316Zm2.433.245a9.687,9.687,0,0,1-1.474-.093h0l-.3-.054a1.016,1.016,0,0,1,.628-.014,3.892,3.892,0,0,1,1.217.093.592.592,0,0,1,.368.037A.753.753,0,0,1,100.13,36.561Zm4.573.006a.388.388,0,0,1-.023-.056c0-.005.015-.014.024-.021a.346.346,0,0,1,.023.056C104.728,36.551,104.711,36.56,104.7,36.567Z"/></g></g></g></svg>