<svg xmlns="http://www.w3.org/2000/svg" width="63" height="65.142" viewBox="0 0 63 65.142">
  <g id="TOP" transform="translate(-1687 -4203.858)" opacity="0.6">
    <g id="Group_120" data-name="Group 120">
      <rect id="Rectangle_101" data-name="Rectangle 101" width="61" height="42" transform="translate(1688 4226)" fill="none" stroke="#fff" stroke-miterlimit="10" stroke-width="2"/>
      <path id="Path_185" data-name="Path 185" d="M7.68-9.531a1.85,1.85,0,0,1-.016.258.544.544,0,0,1-.051.176.246.246,0,0,1-.086.1.212.212,0,0,1-.113.031H4.57V-.2a.193.193,0,0,1-.031.109A.209.209,0,0,1,4.43-.02a1.184,1.184,0,0,1-.207.047A2.226,2.226,0,0,1,3.9.047a2.243,2.243,0,0,1-.32-.02A1.183,1.183,0,0,1,3.367-.02a.209.209,0,0,1-.109-.074A.193.193,0,0,1,3.227-.2V-8.969H.383A.212.212,0,0,1,.27-9a.221.221,0,0,1-.082-.1.717.717,0,0,1-.051-.176,1.485,1.485,0,0,1-.02-.258,1.555,1.555,0,0,1,.02-.262.792.792,0,0,1,.051-.184.218.218,0,0,1,.082-.1.212.212,0,0,1,.113-.031H7.414a.212.212,0,0,1,.113.031.242.242,0,0,1,.086.1.6.6,0,0,1,.051.184A1.937,1.937,0,0,1,7.68-9.531ZM18.756-5.172a7.841,7.841,0,0,1-.289,2.211A4.626,4.626,0,0,1,17.6-1.285,3.768,3.768,0,0,1,16.163-.223a5.111,5.111,0,0,1-2.023.371,5.2,5.2,0,0,1-1.973-.34,3.471,3.471,0,0,1-1.375-.988,4.22,4.22,0,0,1-.809-1.609A8.325,8.325,0,0,1,9.717-5a7.637,7.637,0,0,1,.289-2.172,4.52,4.52,0,0,1,.867-1.66,3.838,3.838,0,0,1,1.445-1.055,5.111,5.111,0,0,1,2.023-.371,5.155,5.155,0,0,1,1.945.336,3.523,3.523,0,0,1,1.379.98,4.167,4.167,0,0,1,.82,1.594A7.983,7.983,0,0,1,18.756-5.172Zm-1.414.094a7.905,7.905,0,0,0-.152-1.6,3.669,3.669,0,0,0-.508-1.281,2.449,2.449,0,0,0-.949-.848,3.194,3.194,0,0,0-1.469-.3,3,3,0,0,0-1.469.328,2.761,2.761,0,0,0-.965.875A3.637,3.637,0,0,0,11.3-6.629a7.152,7.152,0,0,0-.16,1.535,8.461,8.461,0,0,0,.148,1.641,3.664,3.664,0,0,0,.5,1.293,2.4,2.4,0,0,0,.941.844,3.243,3.243,0,0,0,1.48.3,3.067,3.067,0,0,0,1.484-.328,2.668,2.668,0,0,0,.969-.887,3.75,3.75,0,0,0,.523-1.293A7.458,7.458,0,0,0,17.342-5.078Zm11.35-2.07a3.572,3.572,0,0,1-.25,1.367,2.887,2.887,0,0,1-.715,1.039,3.2,3.2,0,0,1-1.141.664,4.94,4.94,0,0,1-1.613.234H23.825V-.2a.177.177,0,0,1-.035.109.233.233,0,0,1-.109.074,1.077,1.077,0,0,1-.2.047,2.226,2.226,0,0,1-.324.02,2.226,2.226,0,0,1-.324-.02,1.184,1.184,0,0,1-.207-.047.209.209,0,0,1-.109-.074A.193.193,0,0,1,22.481-.2V-9.531a.542.542,0,0,1,.164-.445.569.569,0,0,1,.367-.133h2.164q.328,0,.629.027a5.882,5.882,0,0,1,.711.117,2.929,2.929,0,0,1,.836.336,2.641,2.641,0,0,1,.723.605,2.605,2.605,0,0,1,.457.832A3.234,3.234,0,0,1,28.692-7.148Zm-1.414.109a2.1,2.1,0,0,0-.23-1.031,1.6,1.6,0,0,0-.57-.617,1.92,1.92,0,0,0-.7-.258A4.748,4.748,0,0,0,25.067-9H23.825v4.055h1.211A2.819,2.819,0,0,0,26.048-5.1a1.9,1.9,0,0,0,.676-.434,1.816,1.816,0,0,0,.414-.664A2.44,2.44,0,0,0,27.278-7.039Z" transform="translate(1703.963 4252.069)" fill="#fff"/>
    </g>
    <path id="Path_142" data-name="Path 142" d="M1707.136,4216.136,1718,4205.272l10.864,10.864" fill="none" stroke="#fff" stroke-miterlimit="10" stroke-width="2"/>
  </g>
</svg>
